# https://github.com/mikedh/trimesh

o geometry_0
v -1.99275718 -0.48869909 0.02568873
v -1.99275718 -0.48869909 0.50068873
v -1.98923020 -0.00871205 0.02568873
v -1.98923020 -0.00871205 0.50068873
v -1.52530245 -0.49213398 0.02568873
v -1.52530245 -0.49213398 0.50068873
v -1.52177547 -0.01214693 0.02568873
v -1.52177547 -0.01214693 0.50068873
f 2 4 1
f 5 2 1
f 1 4 3
f 3 5 1
f 2 8 4
f 6 2 5
f 6 8 2
f 4 8 3
f 7 5 3
f 3 8 7
f 7 6 5
f 8 6 7

o geometry_1
v -1.50344422 -0.48070352 0.02007965
v -1.50344422 -0.48070352 0.49507965
v -1.50760178 -0.00072152 0.02007965
v -1.50760178 -0.00072152 0.49507965
v -0.98905695 -0.47624794 0.02007965
v -0.98905695 -0.47624794 0.49507965
v -0.99321452 0.00373406 0.02007965
v -0.99321452 0.00373406 0.49507965
f 10 12 9
f 13 10 9
f 9 12 11
f 11 13 9
f 10 16 12
f 14 10 13
f 14 16 10
f 12 16 11
f 15 13 11
f 11 16 15
f 15 14 13
f 16 14 15

o geometry_2
v -0.97360969 -0.46538381 0.02928826
v -0.97360969 -0.46538381 0.50428826
v -0.97264154 0.01461521 0.02928826
v -0.97264154 0.01461521 0.50428826
v -0.51140889 -0.46631606 0.02928826
v -0.51140889 -0.46631606 0.50428826
v -0.51044073 0.01368296 0.02928826
v -0.51044073 0.01368296 0.50428826
f 18 20 17
f 21 18 17
f 17 20 19
f 19 21 17
f 18 24 20
f 22 18 21
f 22 24 18
f 20 24 19
f 23 21 19
f 19 24 23
f 23 22 21
f 24 22 23

o geometry_3
v -0.49132320 -0.46688257 0.00976936
v -0.49132320 -0.46688257 0.48476936
v -0.49451335 0.01310683 0.00976936
v -0.49451335 0.01310683 0.48476936
v 0.05776108 -0.46323319 0.00976936
v 0.05776108 -0.46323319 0.48476936
v 0.05457093 0.01675621 0.00976936
v 0.05457093 0.01675621 0.48476936
f 26 28 25
f 29 26 25
f 25 28 27
f 27 29 25
f 26 32 28
f 30 26 29
f 30 32 26
f 28 32 27
f 31 29 27
f 27 32 31
f 31 30 29
f 32 30 31

o geometry_4
v 0.07081621 -0.48995652 0.03257137
v 0.07081621 -0.48995652 0.50757137
v 0.07757549 -0.01000411 0.03257137
v 0.07757549 -0.01000411 0.50757137
v 0.55050773 -0.49671213 0.03257137
v 0.55050773 -0.49671213 0.50757137
v 0.55726702 -0.01675972 0.03257137
v 0.55726702 -0.01675972 0.50757137
f 34 36 33
f 37 34 33
f 33 36 35
f 35 37 33
f 34 40 36
f 38 34 37
f 38 40 34
f 36 40 35
f 39 37 35
f 35 40 39
f 39 38 37
f 40 38 39

o geometry_5
v 0.57105727 -0.48043309 0.03445746
v 0.57105727 -0.48043309 0.50945746
v 0.57276793 -0.00043613 0.03445746
v 0.57276793 -0.00043613 0.50945746
v 1.02436235 -0.48204861 0.03445746
v 1.02436235 -0.48204861 0.50945746
v 1.02607301 -0.00205166 0.03445746
v 1.02607301 -0.00205166 0.50945746
f 42 44 41
f 45 42 41
f 41 44 43
f 43 45 41
f 42 48 44
f 46 42 45
f 46 48 42
f 44 48 43
f 47 45 43
f 43 48 47
f 47 46 45
f 48 46 47

o geometry_6
v 1.04122366 -0.47565903 -0.01104796
v 1.04122366 -0.47565903 0.46395204
v 1.04523125 0.00432424 -0.01104796
v 1.04523125 0.00432424 0.46395204
v 1.51936491 -0.47965124 -0.01104796
v 1.51936491 -0.47965124 0.46395204
v 1.52337251 0.00033203 -0.01104796
v 1.52337251 0.00033203 0.46395204
f 50 52 49
f 53 50 49
f 49 52 51
f 51 53 49
f 50 56 52
f 54 50 53
f 54 56 50
f 52 56 51
f 55 53 51
f 51 56 55
f 55 54 53
f 56 54 55

o geometry_7
v 1.53744666 -0.47804336 -0.00084578
v 1.53744666 -0.47804336 0.47415422
v 1.54132214 0.00194099 -0.00084578
v 1.54132214 0.00194099 0.47415422
v 1.98905490 -0.48168973 -0.00084578
v 1.98905490 -0.48168973 0.47415422
v 1.99293038 -0.00170537 -0.00084578
v 1.99293038 -0.00170537 0.47415422
f 58 60 57
f 61 58 57
f 57 60 59
f 59 61 57
f 58 64 60
f 62 58 61
f 62 64 58
f 60 64 59
f 63 61 59
f 59 64 63
f 63 62 61
f 64 62 63

o geometry_8
v -1.99441411 -0.47443861 0.50198908
v -1.99441411 -0.47443861 0.97698908
v -1.98752380 0.00551193 0.50198908
v -1.98752380 0.00551193 0.97698908
v -1.39192428 -0.48308814 0.50198908
v -1.39192428 -0.48308814 0.97698908
v -1.38503397 -0.00313759 0.50198908
v -1.38503397 -0.00313759 0.97698908
f 66 68 65
f 69 66 65
f 65 68 67
f 67 69 65
f 66 72 68
f 70 66 69
f 70 72 66
f 68 72 67
f 71 69 67
f 67 72 71
f 71 70 69
f 72 70 71

o geometry_9
v -1.37269392 -0.47837040 0.51961472
v -1.37269392 -0.47837040 0.99461472
v -1.36817103 0.00160829 0.51961472
v -1.36817103 0.00160829 0.99461472
v -0.66961871 -0.48499555 0.51961472
v -0.66961871 -0.48499555 0.99461472
v -0.66509583 -0.00501686 0.51961472
v -0.66509583 -0.00501686 0.99461472
f 74 76 73
f 77 74 73
f 73 76 75
f 75 77 73
f 74 80 76
f 78 74 77
f 78 80 74
f 76 80 75
f 79 77 75
f 75 80 79
f 79 78 77
f 80 78 79

o geometry_10
v -0.65054166 -0.48896769 0.49354450
v -0.65054166 -0.48896769 0.96854450
v -0.64813248 -0.00897373 0.49354450
v -0.64813248 -0.00897373 0.96854450
v 0.07773747 -0.49262306 0.49354450
v 0.07773747 -0.49262306 0.96854450
v 0.08014665 -0.01262910 0.49354450
v 0.08014665 -0.01262910 0.96854450
f 82 84 81
f 85 82 81
f 81 84 83
f 83 85 81
f 82 88 84
f 86 82 85
f 86 88 82
f 84 88 83
f 87 85 83
f 83 88 87
f 87 86 85
f 88 86 87

o geometry_11
v 0.09638675 -0.48553563 0.53432203
v 0.09638675 -0.48553563 1.00932203
v 0.09750841 -0.00553695 0.53432203
v 0.09750841 -0.00553695 1.00932203
v 0.78062610 -0.48713456 0.53432203
v 0.78062610 -0.48713456 1.00932203
v 0.78174776 -0.00713587 0.53432203
v 0.78174776 -0.00713587 1.00932203
f 90 92 89
f 93 90 89
f 89 92 91
f 91 93 89
f 90 96 92
f 94 90 93
f 94 96 90
f 92 96 91
f 95 93 91
f 91 96 95
f 95 94 93
f 96 94 95

o geometry_12
v 0.79981965 -0.48603040 0.50266843
v 0.79981965 -0.48603040 0.97766843
v 0.79855849 -0.00603206 0.50266843
v 0.79855849 -0.00603206 0.97766843
v 1.50169803 -0.48418627 0.50266843
v 1.50169803 -0.48418627 0.97766843
v 1.50043687 -0.00418793 0.50266843
v 1.50043687 -0.00418793 0.97766843
f 98 100 97
f 101 98 97
f 97 100 99
f 99 101 97
f 98 104 100
f 102 98 101
f 102 104 98
f 100 104 99
f 103 101 99
f 99 104 103
f 103 102 101
f 104 102 103

o geometry_13
v 1.51971032 -0.49101511 0.51276419
v 1.51971032 -0.49101511 0.98776419
v 1.51842869 -0.01101682 0.51276419
v 1.51842869 -0.01101682 0.98776419
v 1.99163997 -0.48975502 0.51276419
v 1.99163997 -0.48975502 0.98776419
v 1.99035834 -0.00975673 0.51276419
v 1.99035834 -0.00975673 0.98776419
f 106 108 105
f 109 106 105
f 105 108 107
f 107 109 105
f 106 112 108
f 110 106 109
f 110 112 106
f 108 112 107
f 111 109 107
f 107 112 111
f 111 110 109
f 112 110 111

o geometry_14
v -1.99161599 -0.47154544 1.02737021
v -1.99161599 -0.47154544 1.50237021
v -1.99038212 0.00845298 1.02737021
v -1.99038212 0.00845298 1.50237021
v -1.41900744 -0.47301738 1.02737021
v -1.41900744 -0.47301738 1.50237021
v -1.41777356 0.00698104 1.02737021
v -1.41777356 0.00698104 1.50237021
f 114 116 113
f 117 114 113
f 113 116 115
f 115 117 113
f 114 120 116
f 118 114 117
f 118 120 114
f 116 120 115
f 119 117 115
f 115 120 119
f 119 118 117
f 120 118 119

o geometry_15
v -1.39912918 -0.48301825 1.02265204
v -1.39912918 -0.48301825 1.49765204
v -1.40164177 -0.00302483 1.02265204
v -1.40164177 -0.00302483 1.49765204
v -0.80402363 -0.47990310 1.02265204
v -0.80402363 -0.47990310 1.49765204
v -0.80653622 0.00009033 1.02265204
v -0.80653622 0.00009033 1.49765204
f 122 124 121
f 125 122 121
f 121 124 123
f 123 125 121
f 122 128 124
f 126 122 125
f 126 128 122
f 124 128 123
f 127 125 123
f 123 128 127
f 127 126 125
f 128 126 127

o geometry_16
v -0.78526013 -0.48078291 1.01292132
v -0.78526013 -0.48078291 1.48792132
v -0.78926966 -0.00079966 1.01292132
v -0.78926966 -0.00079966 1.48792132
v -0.15739280 -0.47553804 1.01292132
v -0.15739280 -0.47553804 1.48792132
v -0.16140233 0.00444521 1.01292132
v -0.16140233 0.00444521 1.48792132
f 130 132 129
f 133 130 129
f 129 132 131
f 131 133 129
f 130 136 132
f 134 130 133
f 134 136 130
f 132 136 131
f 135 133 131
f 131 136 135
f 135 134 133
f 136 134 135

o geometry_17
v -0.14474111 -0.47217560 1.01198468
v -0.14474111 -0.47217560 1.48698468
v -0.13796721 0.00777660 1.01198468
v -0.13796721 0.00777660 1.48698468
v 0.50684649 -0.48137190 1.01198468
v 0.50684649 -0.48137190 1.48698468
v 0.51362038 -0.00141970 1.01198468
v 0.51362038 -0.00141970 1.48698468
f 138 140 137
f 141 138 137
f 137 140 139
f 139 141 137
f 138 144 140
f 142 138 141
f 142 144 138
f 140 144 139
f 143 141 139
f 139 144 143
f 143 142 141
f 144 142 143

o geometry_18
v 0.52893793 -0.48690293 1.03665939
v 0.52893793 -0.48690293 1.51165939
v 0.52759608 -0.00690480 1.03665939
v 0.52759608 -0.00690480 1.51165939
v 1.10300237 -0.48529812 1.03665939
v 1.10300237 -0.48529812 1.51165939
v 1.10166052 -0.00530000 1.03665939
v 1.10166052 -0.00530000 1.51165939
f 146 148 145
f 149 146 145
f 145 148 147
f 147 149 145
f 146 152 148
f 150 146 149
f 150 152 146
f 148 152 147
f 151 149 147
f 147 152 151
f 151 150 149
f 152 150 151

o geometry_19
v 1.12383639 -0.47464778 1.01261193
v 1.12383639 -0.47464778 1.48761193
v 1.11689473 0.00530202 1.01261193
v 1.11689473 0.00530202 1.48761193
v 1.75473036 -0.46552297 1.01261193
v 1.75473036 -0.46552297 1.48761193
v 1.74778869 0.01442683 1.01261193
v 1.74778869 0.01442683 1.48761193
f 154 156 153
f 157 154 153
f 153 156 155
f 155 157 153
f 154 160 156
f 158 154 157
f 158 160 154
f 156 160 155
f 159 157 155
f 155 160 159
f 159 158 157
f 160 158 159

o geometry_20
v 1.76736778 -0.48029011 1.03051449
v 1.76736778 -0.48029011 1.50551449
v 1.77122441 -0.00030560 1.03051449
v 1.77122441 -0.00030560 1.50551449
v 1.98906811 -0.48207145 1.03051449
v 1.98906811 -0.48207145 1.50551449
v 1.99292473 -0.00208694 1.03051449
v 1.99292473 -0.00208694 1.50551449
f 162 164 161
f 165 162 161
f 161 164 163
f 163 165 161
f 162 168 164
f 166 162 165
f 166 168 162
f 164 168 163
f 167 165 163
f 163 168 167
f 167 166 165
f 168 166 167

o geometry_21
v -1.99129401 -0.49317508 1.51638974
v -1.99129401 -0.49317508 1.99138974
v -1.99070550 -0.01317544 1.51638974
v -1.99070550 -0.01317544 1.99138974
v -1.34080660 -0.49397261 1.51638974
v -1.34080660 -0.49397261 1.99138974
v -1.34021810 -0.01397297 1.51638974
v -1.34021810 -0.01397297 1.99138974
f 170 172 169
f 173 170 169
f 169 172 171
f 171 173 169
f 170 176 172
f 174 170 173
f 174 176 170
f 172 176 171
f 175 173 171
f 171 176 175
f 175 174 173
f 176 174 175

o geometry_22
v -1.32603729 -0.47688529 1.53535581
v -1.32603729 -0.47688529 2.01035581
v -1.31891977 0.00306194 1.53535581
v -1.31891977 0.00306194 2.01035581
v -0.71534653 -0.48594172 1.53535581
v -0.71534653 -0.48594172 2.01035581
v -0.70822900 -0.00599449 1.53535581
v -0.70822900 -0.00599449 2.01035581
f 178 180 177
f 181 178 177
f 177 180 179
f 179 181 177
f 178 184 180
f 182 178 181
f 182 184 178
f 180 184 179
f 183 181 179
f 179 184 183
f 183 182 181
f 184 182 183

o geometry_23
v -0.69201354 -0.49211319 1.53180898
v -0.69201354 -0.49211319 2.00680898
v -0.69547676 -0.01212568 1.53180898
v -0.69547676 -0.01212568 2.00680898
v 0.00231236 -0.48710347 1.53180898
v 0.00231236 -0.48710347 2.00680898
v -0.00115086 -0.00711596 1.53180898
v -0.00115086 -0.00711596 2.00680898
f 186 188 185
f 189 186 185
f 185 188 187
f 187 189 185
f 186 192 188
f 190 186 189
f 190 192 186
f 188 192 187
f 191 189 187
f 187 192 191
f 191 190 189
f 192 190 191

o geometry_24
v 0.01805850 -0.47978539 1.51556789
v 0.01805850 -0.47978539 1.99056789
v 0.01912279 0.00021343 1.51556789
v 0.01912279 0.00021343 1.99056789
v 0.71654201 -0.48133413 1.51556789
v 0.71654201 -0.48133413 1.99056789
v 0.71760631 -0.00133531 1.51556789
v 0.71760631 -0.00133531 1.99056789
f 194 196 193
f 197 194 193
f 193 196 195
f 195 197 193
f 194 200 196
f 198 194 197
f 198 200 194
f 196 200 195
f 199 197 195
f 195 200 199
f 199 198 197
f 200 198 199

o geometry_25
v 0.73292557 -0.48849668 1.51599997
v 0.73292557 -0.48849668 1.99099997
v 0.73724783 -0.00851614 1.51599997
v 0.73724783 -0.00851614 1.99099997
v 1.30902225 -0.49368447 1.51599997
v 1.30902225 -0.49368447 1.99099997
v 1.31334450 -0.01370393 1.51599997
v 1.31334450 -0.01370393 1.99099997
f 202 204 201
f 205 202 201
f 201 204 203
f 203 205 201
f 202 208 204
f 206 202 205
f 206 208 202
f 204 208 203
f 207 205 203
f 203 208 207
f 207 206 205
f 208 206 207

o geometry_26
v 1.32809028 -0.47804673 1.50533950
v 1.32809028 -0.47804673 1.98033950
v 1.33030675 0.00194815 1.50533950
v 1.33030675 0.00194815 1.98033950
v 1.97710044 -0.48104366 1.50533950
v 1.97710044 -0.48104366 1.98033950
v 1.97931691 -0.00104878 1.50533950
v 1.97931691 -0.00104878 1.98033950
f 210 212 209
f 213 210 209
f 209 212 211
f 211 213 209
f 210 216 212
f 214 210 213
f 214 216 210
f 212 216 211
f 215 213 211
f 211 216 215
f 215 214 213
f 216 214 215

o geometry_27
v -1.99130109 -0.48329360 2.01812262
v -1.99130109 -0.48329360 2.49312262
v -1.99069840 -0.00329398 2.01812262
v -1.99069840 -0.00329398 2.49312262
v -1.33679880 -0.48411539 2.01812262
v -1.33679880 -0.48411539 2.49312262
v -1.33619611 -0.00411577 2.01812262
v -1.33619611 -0.00411577 2.49312262
f 218 220 217
f 221 218 217
f 217 220 219
f 219 221 217
f 218 224 220
f 222 218 221
f 222 224 218
f 220 224 219
f 223 221 219
f 219 224 223
f 223 222 221
f 224 222 223

o geometry_28
v -1.31788816 -0.47261148 1.99636056
v -1.31788816 -0.47261148 2.47136056
v -1.31910440 0.00738698 1.99636056
v -1.31910440 0.00738698 2.47136056
v -0.74634406 -0.47116328 1.99636056
v -0.74634406 -0.47116328 2.47136056
v -0.74756030 0.00883518 1.99636056
v -0.74756030 0.00883518 2.47136056
f 226 228 225
f 229 226 225
f 225 228 227
f 227 229 225
f 226 232 228
f 230 226 229
f 230 232 226
f 228 232 227
f 231 229 227
f 227 232 231
f 231 230 229
f 232 230 231

o geometry_29
v -0.72665702 -0.49229771 2.02735488
v -0.72665702 -0.49229771 2.50235488
v -0.73121365 -0.01231934 2.02735488
v -0.73121365 -0.01231934 2.50235488
v -0.01977493 -0.48558699 2.02735488
v -0.01977493 -0.48558699 2.50235488
v -0.02433156 -0.00560862 2.02735488
v -0.02433156 -0.00560862 2.50235488
f 234 236 233
f 237 234 233
f 233 236 235
f 235 237 233
f 234 240 236
f 238 234 237
f 238 240 234
f 236 240 235
f 239 237 235
f 235 240 239
f 239 238 237
f 240 238 239

o geometry_30
v -0.00701418 -0.48642975 2.02115568
v -0.00701418 -0.48642975 2.49615568
v -0.00101290 -0.00646726 2.02115568
v -0.00101290 -0.00646726 2.49615568
v 0.60142354 -0.49403743 2.02115568
v 0.60142354 -0.49403743 2.49615568
v 0.60742482 -0.01407494 2.02115568
v 0.60742482 -0.01407494 2.49615568
f 242 244 241
f 245 242 241
f 241 244 243
f 243 245 241
f 242 248 244
f 246 242 245
f 246 248 242
f 244 248 243
f 247 245 243
f 243 248 247
f 247 246 245
f 248 246 247

o geometry_31
v 0.62065284 -0.46328986 2.02527934
v 0.62065284 -0.46328986 2.50027934
v 0.62425916 0.01669659 2.02527934
v 0.62425916 0.01669659 2.50027934
v 1.19034899 -0.46757019 2.02527934
v 1.19034899 -0.46757019 2.50027934
v 1.19395530 0.01241626 2.02527934
v 1.19395530 0.01241626 2.50027934
f 250 252 249
f 253 250 249
f 249 252 251
f 251 253 249
f 250 256 252
f 254 250 253
f 254 256 250
f 252 256 251
f 255 253 251
f 251 256 255
f 255 254 253
f 256 254 255

o geometry_32
v 1.20708517 -0.47994799 2.00472114
v 1.20708517 -0.47994799 2.47972114
v 1.21328397 0.00001198 2.00472114
v 1.21328397 0.00001198 2.47972114
v 1.79182830 -0.48750010 2.00472114
v 1.79182830 -0.48750010 2.47972114
v 1.79802711 -0.00754013 2.00472114
v 1.79802711 -0.00754013 2.47972114
f 258 260 257
f 261 258 257
f 257 260 259
f 259 261 257
f 258 264 260
f 262 258 261
f 262 264 258
f 260 264 259
f 263 261 259
f 259 264 263
f 263 262 261
f 264 262 263

o geometry_33
v 1.81131915 -0.48020937 1.99590725
v 1.81131915 -0.48020937 2.47090725
v 1.81458916 -0.00022050 1.99590725
v 1.81458916 -0.00022050 2.47090725
v 1.98936293 -0.48142232 1.99590725
v 1.98936293 -0.48142232 2.47090725
v 1.99263294 -0.00143346 1.99590725
v 1.99263294 -0.00143346 2.47090725
f 266 268 265
f 269 266 265
f 265 268 267
f 267 269 265
f 266 272 268
f 270 266 269
f 270 272 266
f 268 272 267
f 271 269 267
f 267 272 271
f 271 270 269
f 272 270 271

o geometry_34
v -1.99118874 -0.47837240 2.50360009
v -1.99118874 -0.47837240 2.97860009
v -1.99081105 0.00162745 2.50360009
v -1.99081105 0.00162745 2.97860009
v -1.30855559 -0.47890955 2.50360009
v -1.30855559 -0.47890955 2.97860009
v -1.30817789 0.00109031 2.50360009
v -1.30817789 0.00109031 2.97860009
f 274 276 273
f 277 274 273
f 273 276 275
f 275 277 273
f 274 280 276
f 278 274 277
f 278 280 274
f 276 280 275
f 279 277 275
f 275 280 279
f 279 278 277
f 280 278 279

o geometry_35
v -1.29260022 -0.47391504 2.50854593
v -1.29260022 -0.47391504 2.98354593
v -1.28810805 0.00606393 2.50854593
v -1.28810805 0.00606393 2.98354593
v -0.72178460 -0.47925736 2.50854593
v -0.72178460 -0.47925736 2.98354593
v -0.71729243 0.00072162 2.50854593
v -0.71729243 0.00072162 2.98354593
f 282 284 281
f 285 282 281
f 281 284 283
f 283 285 281
f 282 288 284
f 286 282 285
f 286 288 282
f 284 288 283
f 287 285 283
f 283 288 287
f 287 286 285
f 288 286 287

o geometry_36
v -0.70360940 -0.48943414 2.51300580
v -0.70360940 -0.48943414 2.98800580
v -0.69942037 -0.00945242 2.51300580
v -0.69942037 -0.00945242 2.98800580
v -0.11895789 -0.49453669 2.51300580
v -0.11895789 -0.49453669 2.98800580
v -0.11476886 -0.01455497 2.51300580
v -0.11476886 -0.01455497 2.98800580
f 290 292 289
f 293 290 289
f 289 292 291
f 291 293 289
f 290 296 292
f 294 290 293
f 294 296 290
f 292 296 291
f 295 293 291
f 291 296 295
f 295 294 293
f 296 294 295

o geometry_37
v -0.10228870 -0.48467393 2.48854091
v -0.10228870 -0.48467393 2.96354091
v -0.09534619 -0.00472414 2.48854091
v -0.09534619 -0.00472414 2.96354091
v 0.56305960 -0.49429824 2.48854091
v 0.56305960 -0.49429824 2.96354091
v 0.57000211 -0.01434845 2.48854091
v 0.57000211 -0.01434845 2.96354091
f 298 300 297
f 301 298 297
f 297 300 299
f 299 301 297
f 298 304 300
f 302 298 301
f 302 304 298
f 300 304 299
f 303 301 299
f 299 304 303
f 303 302 301
f 304 302 303

o geometry_38
v 0.58604438 -0.48837375 2.49551138
v 0.58604438 -0.48837375 2.97051138
v 0.58309807 -0.00838279 2.49551138
v 0.58309807 -0.00838279 2.97051138
v 1.17683328 -0.48474734 2.49551138
v 1.17683328 -0.48474734 2.97051138
v 1.17388698 -0.00475638 2.49551138
v 1.17388698 -0.00475638 2.97051138
f 306 308 305
f 309 306 305
f 305 308 307
f 307 309 305
f 306 312 308
f 310 306 309
f 310 312 306
f 308 312 307
f 311 309 307
f 307 312 311
f 311 310 309
f 312 310 311

o geometry_39
v 1.19682432 -0.48614759 2.49852999
v 1.19682432 -0.48614759 2.97352999
v 1.18997599 -0.00619644 2.49852999
v 1.18997599 -0.00619644 2.97352999
v 1.87395896 -0.47648569 2.49852999
v 1.87395896 -0.47648569 2.97352999
v 1.86711063 0.00346546 2.49852999
v 1.86711063 0.00346546 2.97352999
f 314 316 313
f 317 314 313
f 313 316 315
f 315 317 313
f 314 320 316
f 318 314 317
f 318 320 314
f 316 320 315
f 319 317 315
f 315 320 319
f 319 318 317
f 320 318 319

o geometry_40
v 1.88963901 -0.48072378 2.49865979
v 1.88963901 -0.48072378 2.97365979
v 1.88750053 -0.00072854 2.49865979
v 1.88750053 -0.00072854 2.97365979
v 1.99206873 -0.48026743 2.49865979
v 1.99206873 -0.48026743 2.97365979
v 1.98993025 -0.00027219 2.49865979
v 1.98993025 -0.00027219 2.97365979
f 322 324 321
f 325 322 321
f 321 324 323
f 323 325 321
f 322 328 324
f 326 322 325
f 326 328 322
f 324 328 323
f 327 325 323
f 323 328 327
f 327 326 325
f 328 326 327

o geometry_41
v -1.99005524 -0.48325826 3.00356229
v -1.99005524 -0.48325826 3.47856229
v -1.99194089 -0.00326196 3.00356229
v -1.99194089 -0.00326196 3.47856229
v -1.48872237 -0.48128879 3.00356229
v -1.48872237 -0.48128879 3.47856229
v -1.49060802 -0.00129250 3.00356229
v -1.49060802 -0.00129250 3.47856229
f 330 332 329
f 333 330 329
f 329 332 331
f 331 333 329
f 330 336 332
f 334 330 333
f 334 336 330
f 332 336 331
f 335 333 331
f 331 336 335
f 335 334 333
f 336 334 335

o geometry_42
v -1.46894495 -0.47652080 3.03589517
v -1.46894495 -0.47652080 3.51089517
v -1.47435253 0.00344874 3.03589517
v -1.47435253 0.00344874 3.51089517
v -1.01133193 -0.47136510 3.03589517
v -1.01133193 -0.47136510 3.51089517
v -1.01673950 0.00860444 3.03589517
v -1.01673950 0.00860444 3.51089517
f 338 340 337
f 341 338 337
f 337 340 339
f 339 341 337
f 338 344 340
f 342 338 341
f 342 344 338
f 340 344 339
f 343 341 339
f 339 344 343
f 343 342 341
f 344 342 343

o geometry_43
v -0.99283714 -0.49396215 3.00301818
v -0.99283714 -0.49396215 3.47801818
v -0.99916271 -0.01400383 3.00301818
v -0.99916271 -0.01400383 3.47801818
v -0.50304942 -0.48750703 3.00301818
v -0.50304942 -0.48750703 3.47801818
v -0.50937499 -0.00754872 3.00301818
v -0.50937499 -0.00754872 3.47801818
f 346 348 345
f 349 346 345
f 345 348 347
f 347 349 345
f 346 352 348
f 350 346 349
f 350 352 346
f 348 352 347
f 351 349 347
f 347 352 351
f 351 350 349
f 352 350 351

o geometry_44
v -0.49170003 -0.47342852 3.00011791
v -0.49170003 -0.47342852 3.47511791
v -0.48462240 0.00651930 3.00011791
v -0.48462240 0.00651930 3.47511791
v 0.05494001 -0.48148963 3.00011791
v 0.05494001 -0.48148963 3.47511791
v 0.06201764 -0.00154182 3.00011791
v 0.06201764 -0.00154182 3.47511791
f 354 356 353
f 357 354 353
f 353 356 355
f 355 357 353
f 354 360 356
f 358 354 357
f 358 360 354
f 356 360 355
f 359 357 355
f 355 360 359
f 359 358 357
f 360 358 359

o geometry_45
v 0.07986340 -0.47002614 3.02847071
v 0.07986340 -0.47002614 3.50347071
v 0.07320792 0.00992772 3.02847071
v 0.07320792 0.00992772 3.50347071
v 0.64404249 -0.46220271 3.02847071
v 0.64404249 -0.46220271 3.50347071
v 0.63738701 0.01775115 3.02847071
v 0.63738701 0.01775115 3.50347071
f 362 364 361
f 365 362 361
f 361 364 363
f 363 365 361
f 362 368 364
f 366 362 365
f 366 368 362
f 364 368 363
f 367 365 363
f 363 368 367
f 367 366 365
f 368 366 367

o geometry_46
v 0.66217941 -0.47384599 3.03088905
v 0.66217941 -0.47384599 3.50588905
v 0.65535727 0.00610553 3.03088905
v 0.65535727 0.00610553 3.50588905
v 1.18626294 -0.46639655 3.03088905
v 1.18626294 -0.46639655 3.50588905
v 1.17944081 0.01355496 3.03088905
v 1.17944081 0.01355496 3.50588905
f 370 372 369
f 373 370 369
f 369 372 371
f 371 373 369
f 370 376 372
f 374 370 373
f 374 376 370
f 372 376 371
f 375 373 371
f 371 376 375
f 375 374 373
f 376 374 375

o geometry_47
v 1.19977910 -0.47902033 3.00639844
v 1.19977910 -0.47902033 3.48139844
v 1.20198329 0.00097461 3.00639844
v 1.20198329 0.00097461 3.48139844
v 1.74129640 -0.48150703 3.00639844
v 1.74129640 -0.48150703 3.48139844
v 1.74350059 -0.00151210 3.00639844
v 1.74350059 -0.00151210 3.48139844
f 378 380 377
f 381 378 377
f 377 380 379
f 379 381 377
f 378 384 380
f 382 378 381
f 382 384 378
f 380 384 379
f 383 381 379
f 379 384 383
f 383 382 381
f 384 382 383

o geometry_48
v 1.75820389 -0.48415646 3.00914751
v 1.75820389 -0.48415646 3.48414751
v 1.76260852 -0.00417667 3.00914751
v 1.76260852 -0.00417667 3.48414751
v 1.98879283 -0.48627251 3.00914751
v 1.98879283 -0.48627251 3.48414751
v 1.99319746 -0.00629272 3.00914751
v 1.99319746 -0.00629272 3.48414751
f 386 388 385
f 389 386 385
f 385 388 387
f 387 389 385
f 386 392 388
f 390 386 389
f 390 392 386
f 388 392 387
f 391 389 387
f 387 392 391
f 391 390 389
f 392 390 391

o geometry_49
v -1.70000000 -0.32000000 0.10000000
v -1.47000000 -0.32000000 0.10000000
v -1.47000000 -0.32000000 3.35000000
v -1.70000000 -0.32000000 3.35000000
v -1.47783706 -0.26047162 0.10000000
v -1.47783706 -0.26047162 3.35000000
v -1.50081416 -0.20500000 0.10000000
v -1.50081416 -0.20500000 3.35000000
v -1.53736544 -0.15736544 0.10000000
v -1.53736544 -0.15736544 3.35000000
v -1.58500000 -0.12081416 0.10000000
v -1.58500000 -0.12081416 3.35000000
v -1.64047162 -0.09783706 0.10000000
v -1.64047162 -0.09783706 3.35000000
v -1.70000000 -0.09000000 0.10000000
v -1.70000000 -0.09000000 3.35000000
v -1.75952838 -0.09783706 0.10000000
v -1.75952838 -0.09783706 3.35000000
v -1.81500000 -0.12081416 0.10000000
v -1.81500000 -0.12081416 3.35000000
v -1.86263456 -0.15736544 0.10000000
v -1.86263456 -0.15736544 3.35000000
v -1.89918584 -0.20500000 0.10000000
v -1.89918584 -0.20500000 3.35000000
v -1.92216294 -0.26047162 0.10000000
v -1.92216294 -0.26047162 3.35000000
v -1.93000000 -0.32000000 0.10000000
v -1.93000000 -0.32000000 3.35000000
v -1.92216294 -0.37952838 0.10000000
v -1.92216294 -0.37952838 3.35000000
v -1.89918584 -0.43500000 0.10000000
v -1.89918584 -0.43500000 3.35000000
v -1.86263456 -0.48263456 0.10000000
v -1.86263456 -0.48263456 3.35000000
v -1.81500000 -0.51918584 0.10000000
v -1.81500000 -0.51918584 3.35000000
v -1.75952838 -0.54216294 0.10000000
v -1.75952838 -0.54216294 3.35000000
v -1.70000000 -0.55000000 0.10000000
v -1.70000000 -0.55000000 3.35000000
v -1.64047162 -0.54216294 0.10000000
v -1.64047162 -0.54216294 3.35000000
v -1.58500000 -0.51918584 0.10000000
v -1.58500000 -0.51918584 3.35000000
v -1.53736544 -0.48263456 0.10000000
v -1.53736544 -0.48263456 3.35000000
v -1.50081416 -0.43500000 0.10000000
v -1.50081416 -0.43500000 3.35000000
v -1.47783706 -0.37952838 0.10000000
v -1.47783706 -0.37952838 3.35000000
f 394 393 397
f 394 397 395
f 395 397 398
f 395 398 396
f 397 393 399
f 397 399 398
f 398 399 400
f 398 400 396
f 399 393 401
f 399 401 400
f 400 401 402
f 400 402 396
f 401 393 403
f 401 403 402
f 402 403 404
f 402 404 396
f 403 393 405
f 403 405 404
f 404 405 406
f 404 406 396
f 405 393 407
f 405 407 406
f 406 407 408
f 406 408 396
f 407 393 409
f 407 409 408
f 408 409 410
f 408 410 396
f 409 393 411
f 409 411 410
f 410 411 412
f 410 412 396
f 411 393 413
f 411 413 412
f 412 413 414
f 412 414 396
f 413 393 415
f 413 415 414
f 414 415 416
f 414 416 396
f 415 393 417
f 415 417 416
f 416 417 418
f 416 418 396
f 417 393 419
f 417 419 418
f 418 419 420
f 418 420 396
f 419 393 421
f 419 421 420
f 420 421 422
f 420 422 396
f 421 393 423
f 421 423 422
f 422 423 424
f 422 424 396
f 423 393 425
f 423 425 424
f 424 425 426
f 424 426 396
f 425 393 427
f 425 427 426
f 426 427 428
f 426 428 396
f 427 393 429
f 427 429 428
f 428 429 430
f 428 430 396
f 429 393 431
f 429 431 430
f 430 431 432
f 430 432 396
f 431 393 433
f 431 433 432
f 432 433 434
f 432 434 396
f 433 393 435
f 433 435 434
f 434 435 436
f 434 436 396
f 435 393 437
f 435 437 436
f 436 437 438
f 436 438 396
f 437 393 439
f 437 439 438
f 438 439 440
f 438 440 396
f 439 393 441
f 439 441 440
f 440 441 442
f 440 442 396
f 441 393 394
f 441 394 442
f 442 394 395
f 442 395 396

o geometry_50
v -1.70000000 -0.32000000 0.10000000
v -1.40560000 -0.32000000 0.10000000
v -1.40560000 -0.32000000 0.26000000
v -1.70000000 -0.32000000 0.26000000
v -1.41563144 -0.24380367 0.10000000
v -1.41563144 -0.24380367 0.26000000
v -1.44504212 -0.17280000 0.10000000
v -1.44504212 -0.17280000 0.26000000
v -1.49182776 -0.11182776 0.10000000
v -1.49182776 -0.11182776 0.26000000
v -1.55280000 -0.06504212 0.10000000
v -1.55280000 -0.06504212 0.26000000
v -1.62380367 -0.03563144 0.10000000
v -1.62380367 -0.03563144 0.26000000
v -1.70000000 -0.02560000 0.10000000
v -1.70000000 -0.02560000 0.26000000
v -1.77619633 -0.03563144 0.10000000
v -1.77619633 -0.03563144 0.26000000
v -1.84720000 -0.06504212 0.10000000
v -1.84720000 -0.06504212 0.26000000
v -1.90817224 -0.11182776 0.10000000
v -1.90817224 -0.11182776 0.26000000
v -1.95495788 -0.17280000 0.10000000
v -1.95495788 -0.17280000 0.26000000
v -1.98436856 -0.24380367 0.10000000
v -1.98436856 -0.24380367 0.26000000
v -1.99440000 -0.32000000 0.10000000
v -1.99440000 -0.32000000 0.26000000
v -1.98436856 -0.39619633 0.10000000
v -1.98436856 -0.39619633 0.26000000
v -1.95495788 -0.46720000 0.10000000
v -1.95495788 -0.46720000 0.26000000
v -1.90817224 -0.52817224 0.10000000
v -1.90817224 -0.52817224 0.26000000
v -1.84720000 -0.57495788 0.10000000
v -1.84720000 -0.57495788 0.26000000
v -1.77619633 -0.60436856 0.10000000
v -1.77619633 -0.60436856 0.26000000
v -1.70000000 -0.61440000 0.10000000
v -1.70000000 -0.61440000 0.26000000
v -1.62380367 -0.60436856 0.10000000
v -1.62380367 -0.60436856 0.26000000
v -1.55280000 -0.57495788 0.10000000
v -1.55280000 -0.57495788 0.26000000
v -1.49182776 -0.52817224 0.10000000
v -1.49182776 -0.52817224 0.26000000
v -1.44504212 -0.46720000 0.10000000
v -1.44504212 -0.46720000 0.26000000
v -1.41563144 -0.39619633 0.10000000
v -1.41563144 -0.39619633 0.26000000
f 444 443 447
f 444 447 445
f 445 447 448
f 445 448 446
f 447 443 449
f 447 449 448
f 448 449 450
f 448 450 446
f 449 443 451
f 449 451 450
f 450 451 452
f 450 452 446
f 451 443 453
f 451 453 452
f 452 453 454
f 452 454 446
f 453 443 455
f 453 455 454
f 454 455 456
f 454 456 446
f 455 443 457
f 455 457 456
f 456 457 458
f 456 458 446
f 457 443 459
f 457 459 458
f 458 459 460
f 458 460 446
f 459 443 461
f 459 461 460
f 460 461 462
f 460 462 446
f 461 443 463
f 461 463 462
f 462 463 464
f 462 464 446
f 463 443 465
f 463 465 464
f 464 465 466
f 464 466 446
f 465 443 467
f 465 467 466
f 466 467 468
f 466 468 446
f 467 443 469
f 467 469 468
f 468 469 470
f 468 470 446
f 469 443 471
f 469 471 470
f 470 471 472
f 470 472 446
f 471 443 473
f 471 473 472
f 472 473 474
f 472 474 446
f 473 443 475
f 473 475 474
f 474 475 476
f 474 476 446
f 475 443 477
f 475 477 476
f 476 477 478
f 476 478 446
f 477 443 479
f 477 479 478
f 478 479 480
f 478 480 446
f 479 443 481
f 479 481 480
f 480 481 482
f 480 482 446
f 481 443 483
f 481 483 482
f 482 483 484
f 482 484 446
f 483 443 485
f 483 485 484
f 484 485 486
f 484 486 446
f 485 443 487
f 485 487 486
f 486 487 488
f 486 488 446
f 487 443 489
f 487 489 488
f 488 489 490
f 488 490 446
f 489 443 491
f 489 491 490
f 490 491 492
f 490 492 446
f 491 443 444
f 491 444 492
f 492 444 445
f 492 445 446

o geometry_51
v -1.70000000 -0.32000000 3.18000000
v -1.41940000 -0.32000000 3.18000000
v -1.41940000 -0.32000000 3.36000000
v -1.70000000 -0.32000000 3.36000000
v -1.42896121 -0.24737538 3.18000000
v -1.42896121 -0.24737538 3.36000000
v -1.45699327 -0.17970000 3.18000000
v -1.45699327 -0.17970000 3.36000000
v -1.50158584 -0.12158584 3.18000000
v -1.50158584 -0.12158584 3.36000000
v -1.55970000 -0.07699327 3.18000000
v -1.55970000 -0.07699327 3.36000000
v -1.62737538 -0.04896121 3.18000000
v -1.62737538 -0.04896121 3.36000000
v -1.70000000 -0.03940000 3.18000000
v -1.70000000 -0.03940000 3.36000000
v -1.77262462 -0.04896121 3.18000000
v -1.77262462 -0.04896121 3.36000000
v -1.84030000 -0.07699327 3.18000000
v -1.84030000 -0.07699327 3.36000000
v -1.89841416 -0.12158584 3.18000000
v -1.89841416 -0.12158584 3.36000000
v -1.94300673 -0.17970000 3.18000000
v -1.94300673 -0.17970000 3.36000000
v -1.97103879 -0.24737538 3.18000000
v -1.97103879 -0.24737538 3.36000000
v -1.98060000 -0.32000000 3.18000000
v -1.98060000 -0.32000000 3.36000000
v -1.97103879 -0.39262462 3.18000000
v -1.97103879 -0.39262462 3.36000000
v -1.94300673 -0.46030000 3.18000000
v -1.94300673 -0.46030000 3.36000000
v -1.89841416 -0.51841416 3.18000000
v -1.89841416 -0.51841416 3.36000000
v -1.84030000 -0.56300673 3.18000000
v -1.84030000 -0.56300673 3.36000000
v -1.77262462 -0.59103879 3.18000000
v -1.77262462 -0.59103879 3.36000000
v -1.70000000 -0.60060000 3.18000000
v -1.70000000 -0.60060000 3.36000000
v -1.62737538 -0.59103879 3.18000000
v -1.62737538 -0.59103879 3.36000000
v -1.55970000 -0.56300673 3.18000000
v -1.55970000 -0.56300673 3.36000000
v -1.50158584 -0.51841416 3.18000000
v -1.50158584 -0.51841416 3.36000000
v -1.45699327 -0.46030000 3.18000000
v -1.45699327 -0.46030000 3.36000000
v -1.42896121 -0.39262462 3.18000000
v -1.42896121 -0.39262462 3.36000000
f 494 493 497
f 494 497 495
f 495 497 498
f 495 498 496
f 497 493 499
f 497 499 498
f 498 499 500
f 498 500 496
f 499 493 501
f 499 501 500
f 500 501 502
f 500 502 496
f 501 493 503
f 501 503 502
f 502 503 504
f 502 504 496
f 503 493 505
f 503 505 504
f 504 505 506
f 504 506 496
f 505 493 507
f 505 507 506
f 506 507 508
f 506 508 496
f 507 493 509
f 507 509 508
f 508 509 510
f 508 510 496
f 509 493 511
f 509 511 510
f 510 511 512
f 510 512 496
f 511 493 513
f 511 513 512
f 512 513 514
f 512 514 496
f 513 493 515
f 513 515 514
f 514 515 516
f 514 516 496
f 515 493 517
f 515 517 516
f 516 517 518
f 516 518 496
f 517 493 519
f 517 519 518
f 518 519 520
f 518 520 496
f 519 493 521
f 519 521 520
f 520 521 522
f 520 522 496
f 521 493 523
f 521 523 522
f 522 523 524
f 522 524 496
f 523 493 525
f 523 525 524
f 524 525 526
f 524 526 496
f 525 493 527
f 525 527 526
f 526 527 528
f 526 528 496
f 527 493 529
f 527 529 528
f 528 529 530
f 528 530 496
f 529 493 531
f 529 531 530
f 530 531 532
f 530 532 496
f 531 493 533
f 531 533 532
f 532 533 534
f 532 534 496
f 533 493 535
f 533 535 534
f 534 535 536
f 534 536 496
f 535 493 537
f 535 537 536
f 536 537 538
f 536 538 496
f 537 493 539
f 537 539 538
f 538 539 540
f 538 540 496
f 539 493 541
f 539 541 540
f 540 541 542
f 540 542 496
f 541 493 494
f 541 494 542
f 542 494 495
f 542 495 496

o geometry_52
v -1.98750000 -0.67000000 3.11000000
v -1.98750000 -0.67000000 3.27000000
v -1.98750000 0.03000000 3.11000000
v -1.98750000 0.03000000 3.27000000
v -1.41250000 -0.67000000 3.11000000
v -1.41250000 -0.67000000 3.27000000
v -1.41250000 0.03000000 3.11000000
v -1.41250000 0.03000000 3.27000000
f 544 546 543
f 547 544 543
f 543 546 545
f 545 547 543
f 544 550 546
f 548 544 547
f 548 550 544
f 546 550 545
f 549 547 545
f 545 550 549
f 549 548 547
f 550 548 549

o geometry_53
v 1.70000000 -0.32000000 0.10000000
v 1.93000000 -0.32000000 0.10000000
v 1.93000000 -0.32000000 3.35000000
v 1.70000000 -0.32000000 3.35000000
v 1.92216294 -0.26047162 0.10000000
v 1.92216294 -0.26047162 3.35000000
v 1.89918584 -0.20500000 0.10000000
v 1.89918584 -0.20500000 3.35000000
v 1.86263456 -0.15736544 0.10000000
v 1.86263456 -0.15736544 3.35000000
v 1.81500000 -0.12081416 0.10000000
v 1.81500000 -0.12081416 3.35000000
v 1.75952838 -0.09783706 0.10000000
v 1.75952838 -0.09783706 3.35000000
v 1.70000000 -0.09000000 0.10000000
v 1.70000000 -0.09000000 3.35000000
v 1.64047162 -0.09783706 0.10000000
v 1.64047162 -0.09783706 3.35000000
v 1.58500000 -0.12081416 0.10000000
v 1.58500000 -0.12081416 3.35000000
v 1.53736544 -0.15736544 0.10000000
v 1.53736544 -0.15736544 3.35000000
v 1.50081416 -0.20500000 0.10000000
v 1.50081416 -0.20500000 3.35000000
v 1.47783706 -0.26047162 0.10000000
v 1.47783706 -0.26047162 3.35000000
v 1.47000000 -0.32000000 0.10000000
v 1.47000000 -0.32000000 3.35000000
v 1.47783706 -0.37952838 0.10000000
v 1.47783706 -0.37952838 3.35000000
v 1.50081416 -0.43500000 0.10000000
v 1.50081416 -0.43500000 3.35000000
v 1.53736544 -0.48263456 0.10000000
v 1.53736544 -0.48263456 3.35000000
v 1.58500000 -0.51918584 0.10000000
v 1.58500000 -0.51918584 3.35000000
v 1.64047162 -0.54216294 0.10000000
v 1.64047162 -0.54216294 3.35000000
v 1.70000000 -0.55000000 0.10000000
v 1.70000000 -0.55000000 3.35000000
v 1.75952838 -0.54216294 0.10000000
v 1.75952838 -0.54216294 3.35000000
v 1.81500000 -0.51918584 0.10000000
v 1.81500000 -0.51918584 3.35000000
v 1.86263456 -0.48263456 0.10000000
v 1.86263456 -0.48263456 3.35000000
v 1.89918584 -0.43500000 0.10000000
v 1.89918584 -0.43500000 3.35000000
v 1.92216294 -0.37952838 0.10000000
v 1.92216294 -0.37952838 3.35000000
f 552 551 555
f 552 555 553
f 553 555 556
f 553 556 554
f 555 551 557
f 555 557 556
f 556 557 558
f 556 558 554
f 557 551 559
f 557 559 558
f 558 559 560
f 558 560 554
f 559 551 561
f 559 561 560
f 560 561 562
f 560 562 554
f 561 551 563
f 561 563 562
f 562 563 564
f 562 564 554
f 563 551 565
f 563 565 564
f 564 565 566
f 564 566 554
f 565 551 567
f 565 567 566
f 566 567 568
f 566 568 554
f 567 551 569
f 567 569 568
f 568 569 570
f 568 570 554
f 569 551 571
f 569 571 570
f 570 571 572
f 570 572 554
f 571 551 573
f 571 573 572
f 572 573 574
f 572 574 554
f 573 551 575
f 573 575 574
f 574 575 576
f 574 576 554
f 575 551 577
f 575 577 576
f 576 577 578
f 576 578 554
f 577 551 579
f 577 579 578
f 578 579 580
f 578 580 554
f 579 551 581
f 579 581 580
f 580 581 582
f 580 582 554
f 581 551 583
f 581 583 582
f 582 583 584
f 582 584 554
f 583 551 585
f 583 585 584
f 584 585 586
f 584 586 554
f 585 551 587
f 585 587 586
f 586 587 588
f 586 588 554
f 587 551 589
f 587 589 588
f 588 589 590
f 588 590 554
f 589 551 591
f 589 591 590
f 590 591 592
f 590 592 554
f 591 551 593
f 591 593 592
f 592 593 594
f 592 594 554
f 593 551 595
f 593 595 594
f 594 595 596
f 594 596 554
f 595 551 597
f 595 597 596
f 596 597 598
f 596 598 554
f 597 551 599
f 597 599 598
f 598 599 600
f 598 600 554
f 599 551 552
f 599 552 600
f 600 552 553
f 600 553 554

o geometry_54
v 1.70000000 -0.32000000 0.10000000
v 1.99440000 -0.32000000 0.10000000
v 1.99440000 -0.32000000 0.26000000
v 1.70000000 -0.32000000 0.26000000
v 1.98436856 -0.24380367 0.10000000
v 1.98436856 -0.24380367 0.26000000
v 1.95495788 -0.17280000 0.10000000
v 1.95495788 -0.17280000 0.26000000
v 1.90817224 -0.11182776 0.10000000
v 1.90817224 -0.11182776 0.26000000
v 1.84720000 -0.06504212 0.10000000
v 1.84720000 -0.06504212 0.26000000
v 1.77619633 -0.03563144 0.10000000
v 1.77619633 -0.03563144 0.26000000
v 1.70000000 -0.02560000 0.10000000
v 1.70000000 -0.02560000 0.26000000
v 1.62380367 -0.03563144 0.10000000
v 1.62380367 -0.03563144 0.26000000
v 1.55280000 -0.06504212 0.10000000
v 1.55280000 -0.06504212 0.26000000
v 1.49182776 -0.11182776 0.10000000
v 1.49182776 -0.11182776 0.26000000
v 1.44504212 -0.17280000 0.10000000
v 1.44504212 -0.17280000 0.26000000
v 1.41563144 -0.24380367 0.10000000
v 1.41563144 -0.24380367 0.26000000
v 1.40560000 -0.32000000 0.10000000
v 1.40560000 -0.32000000 0.26000000
v 1.41563144 -0.39619633 0.10000000
v 1.41563144 -0.39619633 0.26000000
v 1.44504212 -0.46720000 0.10000000
v 1.44504212 -0.46720000 0.26000000
v 1.49182776 -0.52817224 0.10000000
v 1.49182776 -0.52817224 0.26000000
v 1.55280000 -0.57495788 0.10000000
v 1.55280000 -0.57495788 0.26000000
v 1.62380367 -0.60436856 0.10000000
v 1.62380367 -0.60436856 0.26000000
v 1.70000000 -0.61440000 0.10000000
v 1.70000000 -0.61440000 0.26000000
v 1.77619633 -0.60436856 0.10000000
v 1.77619633 -0.60436856 0.26000000
v 1.84720000 -0.57495788 0.10000000
v 1.84720000 -0.57495788 0.26000000
v 1.90817224 -0.52817224 0.10000000
v 1.90817224 -0.52817224 0.26000000
v 1.95495788 -0.46720000 0.10000000
v 1.95495788 -0.46720000 0.26000000
v 1.98436856 -0.39619633 0.10000000
v 1.98436856 -0.39619633 0.26000000
f 602 601 605
f 602 605 603
f 603 605 606
f 603 606 604
f 605 601 607
f 605 607 606
f 606 607 608
f 606 608 604
f 607 601 609
f 607 609 608
f 608 609 610
f 608 610 604
f 609 601 611
f 609 611 610
f 610 611 612
f 610 612 604
f 611 601 613
f 611 613 612
f 612 613 614
f 612 614 604
f 613 601 615
f 613 615 614
f 614 615 616
f 614 616 604
f 615 601 617
f 615 617 616
f 616 617 618
f 616 618 604
f 617 601 619
f 617 619 618
f 618 619 620
f 618 620 604
f 619 601 621
f 619 621 620
f 620 621 622
f 620 622 604
f 621 601 623
f 621 623 622
f 622 623 624
f 622 624 604
f 623 601 625
f 623 625 624
f 624 625 626
f 624 626 604
f 625 601 627
f 625 627 626
f 626 627 628
f 626 628 604
f 627 601 629
f 627 629 628
f 628 629 630
f 628 630 604
f 629 601 631
f 629 631 630
f 630 631 632
f 630 632 604
f 631 601 633
f 631 633 632
f 632 633 634
f 632 634 604
f 633 601 635
f 633 635 634
f 634 635 636
f 634 636 604
f 635 601 637
f 635 637 636
f 636 637 638
f 636 638 604
f 637 601 639
f 637 639 638
f 638 639 640
f 638 640 604
f 639 601 641
f 639 641 640
f 640 641 642
f 640 642 604
f 641 601 643
f 641 643 642
f 642 643 644
f 642 644 604
f 643 601 645
f 643 645 644
f 644 645 646
f 644 646 604
f 645 601 647
f 645 647 646
f 646 647 648
f 646 648 604
f 647 601 649
f 647 649 648
f 648 649 650
f 648 650 604
f 649 601 602
f 649 602 650
f 650 602 603
f 650 603 604

o geometry_55
v 1.70000000 -0.32000000 3.18000000
v 1.98060000 -0.32000000 3.18000000
v 1.98060000 -0.32000000 3.36000000
v 1.70000000 -0.32000000 3.36000000
v 1.97103879 -0.24737538 3.18000000
v 1.97103879 -0.24737538 3.36000000
v 1.94300673 -0.17970000 3.18000000
v 1.94300673 -0.17970000 3.36000000
v 1.89841416 -0.12158584 3.18000000
v 1.89841416 -0.12158584 3.36000000
v 1.84030000 -0.07699327 3.18000000
v 1.84030000 -0.07699327 3.36000000
v 1.77262462 -0.04896121 3.18000000
v 1.77262462 -0.04896121 3.36000000
v 1.70000000 -0.03940000 3.18000000
v 1.70000000 -0.03940000 3.36000000
v 1.62737538 -0.04896121 3.18000000
v 1.62737538 -0.04896121 3.36000000
v 1.55970000 -0.07699327 3.18000000
v 1.55970000 -0.07699327 3.36000000
v 1.50158584 -0.12158584 3.18000000
v 1.50158584 -0.12158584 3.36000000
v 1.45699327 -0.17970000 3.18000000
v 1.45699327 -0.17970000 3.36000000
v 1.42896121 -0.24737538 3.18000000
v 1.42896121 -0.24737538 3.36000000
v 1.41940000 -0.32000000 3.18000000
v 1.41940000 -0.32000000 3.36000000
v 1.42896121 -0.39262462 3.18000000
v 1.42896121 -0.39262462 3.36000000
v 1.45699327 -0.46030000 3.18000000
v 1.45699327 -0.46030000 3.36000000
v 1.50158584 -0.51841416 3.18000000
v 1.50158584 -0.51841416 3.36000000
v 1.55970000 -0.56300673 3.18000000
v 1.55970000 -0.56300673 3.36000000
v 1.62737538 -0.59103879 3.18000000
v 1.62737538 -0.59103879 3.36000000
v 1.70000000 -0.60060000 3.18000000
v 1.70000000 -0.60060000 3.36000000
v 1.77262462 -0.59103879 3.18000000
v 1.77262462 -0.59103879 3.36000000
v 1.84030000 -0.56300673 3.18000000
v 1.84030000 -0.56300673 3.36000000
v 1.89841416 -0.51841416 3.18000000
v 1.89841416 -0.51841416 3.36000000
v 1.94300673 -0.46030000 3.18000000
v 1.94300673 -0.46030000 3.36000000
v 1.97103879 -0.39262462 3.18000000
v 1.97103879 -0.39262462 3.36000000
f 652 651 655
f 652 655 653
f 653 655 656
f 653 656 654
f 655 651 657
f 655 657 656
f 656 657 658
f 656 658 654
f 657 651 659
f 657 659 658
f 658 659 660
f 658 660 654
f 659 651 661
f 659 661 660
f 660 661 662
f 660 662 654
f 661 651 663
f 661 663 662
f 662 663 664
f 662 664 654
f 663 651 665
f 663 665 664
f 664 665 666
f 664 666 654
f 665 651 667
f 665 667 666
f 666 667 668
f 666 668 654
f 667 651 669
f 667 669 668
f 668 669 670
f 668 670 654
f 669 651 671
f 669 671 670
f 670 671 672
f 670 672 654
f 671 651 673
f 671 673 672
f 672 673 674
f 672 674 654
f 673 651 675
f 673 675 674
f 674 675 676
f 674 676 654
f 675 651 677
f 675 677 676
f 676 677 678
f 676 678 654
f 677 651 679
f 677 679 678
f 678 679 680
f 678 680 654
f 679 651 681
f 679 681 680
f 680 681 682
f 680 682 654
f 681 651 683
f 681 683 682
f 682 683 684
f 682 684 654
f 683 651 685
f 683 685 684
f 684 685 686
f 684 686 654
f 685 651 687
f 685 687 686
f 686 687 688
f 686 688 654
f 687 651 689
f 687 689 688
f 688 689 690
f 688 690 654
f 689 651 691
f 689 691 690
f 690 691 692
f 690 692 654
f 691 651 693
f 691 693 692
f 692 693 694
f 692 694 654
f 693 651 695
f 693 695 694
f 694 695 696
f 694 696 654
f 695 651 697
f 695 697 696
f 696 697 698
f 696 698 654
f 697 651 699
f 697 699 698
f 698 699 700
f 698 700 654
f 699 651 652
f 699 652 700
f 700 652 653
f 700 653 654

o geometry_56
v 1.41250000 -0.67000000 3.11000000
v 1.41250000 -0.67000000 3.27000000
v 1.41250000 0.03000000 3.11000000
v 1.41250000 0.03000000 3.27000000
v 1.98750000 -0.67000000 3.11000000
v 1.98750000 -0.67000000 3.27000000
v 1.98750000 0.03000000 3.11000000
v 1.98750000 0.03000000 3.27000000
f 702 704 701
f 705 702 701
f 701 704 703
f 703 705 701
f 702 708 704
f 706 702 705
f 706 708 702
f 704 708 703
f 707 705 703
f 703 708 707
f 707 706 705
f 708 706 707

o geometry_57
v -1.99000000 -0.66000000 2.63000000
v -1.99000000 -0.66000000 2.81000000
v -1.99000000 -0.58000000 2.63000000
v -1.99000000 -0.58000000 2.81000000
v -1.57000000 -0.66000000 2.63000000
v -1.57000000 -0.66000000 2.81000000
v -1.57000000 -0.58000000 2.63000000
v -1.57000000 -0.58000000 2.81000000
f 710 712 709
f 713 710 709
f 709 712 711
f 711 713 709
f 710 716 712
f 714 710 713
f 714 716 710
f 712 716 711
f 715 713 711
f 711 716 715
f 715 714 713
f 716 714 715

o geometry_58
v -1.89550000 -0.73000000 2.76000000
v -1.89550000 -0.73000000 2.84000000
v -1.89550000 -0.63000000 2.76000000
v -1.89550000 -0.63000000 2.84000000
v -1.66450000 -0.73000000 2.76000000
v -1.66450000 -0.73000000 2.84000000
v -1.66450000 -0.63000000 2.76000000
v -1.66450000 -0.63000000 2.84000000
f 718 720 717
f 721 718 717
f 717 720 719
f 719 721 717
f 718 724 720
f 722 718 721
f 722 724 718
f 720 724 719
f 723 721 719
f 719 724 723
f 723 722 721
f 724 722 723

o geometry_59
v -1.57000000 -0.66000000 2.63000000
v -1.57000000 -0.66000000 2.81000000
v -1.57000000 -0.58000000 2.63000000
v -1.57000000 -0.58000000 2.81000000
v -1.15000000 -0.66000000 2.63000000
v -1.15000000 -0.66000000 2.81000000
v -1.15000000 -0.58000000 2.63000000
v -1.15000000 -0.58000000 2.81000000
f 726 728 725
f 729 726 725
f 725 728 727
f 727 729 725
f 726 732 728
f 730 726 729
f 730 732 726
f 728 732 727
f 731 729 727
f 727 732 731
f 731 730 729
f 732 730 731

o geometry_60
v -1.47550000 -0.73000000 2.60000000
v -1.47550000 -0.73000000 2.68000000
v -1.47550000 -0.63000000 2.60000000
v -1.47550000 -0.63000000 2.68000000
v -1.24450000 -0.73000000 2.60000000
v -1.24450000 -0.73000000 2.68000000
v -1.24450000 -0.63000000 2.60000000
v -1.24450000 -0.63000000 2.68000000
f 734 736 733
f 737 734 733
f 733 736 735
f 735 737 733
f 734 740 736
f 738 734 737
f 738 740 734
f 736 740 735
f 739 737 735
f 735 740 739
f 739 738 737
f 740 738 739

o geometry_61
v -1.15000000 -0.66000000 2.63000000
v -1.15000000 -0.66000000 2.81000000
v -1.15000000 -0.58000000 2.63000000
v -1.15000000 -0.58000000 2.81000000
v -0.73000000 -0.66000000 2.63000000
v -0.73000000 -0.66000000 2.81000000
v -0.73000000 -0.58000000 2.63000000
v -0.73000000 -0.58000000 2.81000000
f 742 744 741
f 745 742 741
f 741 744 743
f 743 745 741
f 742 748 744
f 746 742 745
f 746 748 742
f 744 748 743
f 747 745 743
f 743 748 747
f 747 746 745
f 748 746 747

o geometry_62
v -1.05550000 -0.73000000 2.76000000
v -1.05550000 -0.73000000 2.84000000
v -1.05550000 -0.63000000 2.76000000
v -1.05550000 -0.63000000 2.84000000
v -0.82450000 -0.73000000 2.76000000
v -0.82450000 -0.73000000 2.84000000
v -0.82450000 -0.63000000 2.76000000
v -0.82450000 -0.63000000 2.84000000
f 750 752 749
f 753 750 749
f 749 752 751
f 751 753 749
f 750 756 752
f 754 750 753
f 754 756 750
f 752 756 751
f 755 753 751
f 751 756 755
f 755 754 753
f 756 754 755

o geometry_63
v -0.73000000 -0.66000000 2.63000000
v -0.73000000 -0.66000000 2.81000000
v -0.73000000 -0.58000000 2.63000000
v -0.73000000 -0.58000000 2.81000000
v -0.31000000 -0.66000000 2.63000000
v -0.31000000 -0.66000000 2.81000000
v -0.31000000 -0.58000000 2.63000000
v -0.31000000 -0.58000000 2.81000000
f 758 760 757
f 761 758 757
f 757 760 759
f 759 761 757
f 758 764 760
f 762 758 761
f 762 764 758
f 760 764 759
f 763 761 759
f 759 764 763
f 763 762 761
f 764 762 763

o geometry_64
v -0.63550000 -0.73000000 2.60000000
v -0.63550000 -0.73000000 2.68000000
v -0.63550000 -0.63000000 2.60000000
v -0.63550000 -0.63000000 2.68000000
v -0.40450000 -0.73000000 2.60000000
v -0.40450000 -0.73000000 2.68000000
v -0.40450000 -0.63000000 2.60000000
v -0.40450000 -0.63000000 2.68000000
f 766 768 765
f 769 766 765
f 765 768 767
f 767 769 765
f 766 772 768
f 770 766 769
f 770 772 766
f 768 772 767
f 771 769 767
f 767 772 771
f 771 770 769
f 772 770 771

o geometry_65
v -0.31000000 -0.66000000 2.63000000
v -0.31000000 -0.66000000 2.81000000
v -0.31000000 -0.58000000 2.63000000
v -0.31000000 -0.58000000 2.81000000
v 0.11000000 -0.66000000 2.63000000
v 0.11000000 -0.66000000 2.81000000
v 0.11000000 -0.58000000 2.63000000
v 0.11000000 -0.58000000 2.81000000
f 774 776 773
f 777 774 773
f 773 776 775
f 775 777 773
f 774 780 776
f 778 774 777
f 778 780 774
f 776 780 775
f 779 777 775
f 775 780 779
f 779 778 777
f 780 778 779

o geometry_66
v -0.21550000 -0.73000000 2.76000000
v -0.21550000 -0.73000000 2.84000000
v -0.21550000 -0.63000000 2.76000000
v -0.21550000 -0.63000000 2.84000000
v 0.01550000 -0.73000000 2.76000000
v 0.01550000 -0.73000000 2.84000000
v 0.01550000 -0.63000000 2.76000000
v 0.01550000 -0.63000000 2.84000000
f 782 784 781
f 785 782 781
f 781 784 783
f 783 785 781
f 782 788 784
f 786 782 785
f 786 788 782
f 784 788 783
f 787 785 783
f 783 788 787
f 787 786 785
f 788 786 787

o geometry_67
v 0.11000000 -0.66000000 2.63000000
v 0.11000000 -0.66000000 2.81000000
v 0.11000000 -0.58000000 2.63000000
v 0.11000000 -0.58000000 2.81000000
v 0.53000000 -0.66000000 2.63000000
v 0.53000000 -0.66000000 2.81000000
v 0.53000000 -0.58000000 2.63000000
v 0.53000000 -0.58000000 2.81000000
f 790 792 789
f 793 790 789
f 789 792 791
f 791 793 789
f 790 796 792
f 794 790 793
f 794 796 790
f 792 796 791
f 795 793 791
f 791 796 795
f 795 794 793
f 796 794 795

o geometry_68
v 0.20450000 -0.73000000 2.60000000
v 0.20450000 -0.73000000 2.68000000
v 0.20450000 -0.63000000 2.60000000
v 0.20450000 -0.63000000 2.68000000
v 0.43550000 -0.73000000 2.60000000
v 0.43550000 -0.73000000 2.68000000
v 0.43550000 -0.63000000 2.60000000
v 0.43550000 -0.63000000 2.68000000
f 798 800 797
f 801 798 797
f 797 800 799
f 799 801 797
f 798 804 800
f 802 798 801
f 802 804 798
f 800 804 799
f 803 801 799
f 799 804 803
f 803 802 801
f 804 802 803

o geometry_69
v 0.53000000 -0.66000000 2.63000000
v 0.53000000 -0.66000000 2.81000000
v 0.53000000 -0.58000000 2.63000000
v 0.53000000 -0.58000000 2.81000000
v 0.95000000 -0.66000000 2.63000000
v 0.95000000 -0.66000000 2.81000000
v 0.95000000 -0.58000000 2.63000000
v 0.95000000 -0.58000000 2.81000000
f 806 808 805
f 809 806 805
f 805 808 807
f 807 809 805
f 806 812 808
f 810 806 809
f 810 812 806
f 808 812 807
f 811 809 807
f 807 812 811
f 811 810 809
f 812 810 811

o geometry_70
v 0.62450000 -0.73000000 2.76000000
v 0.62450000 -0.73000000 2.84000000
v 0.62450000 -0.63000000 2.76000000
v 0.62450000 -0.63000000 2.84000000
v 0.85550000 -0.73000000 2.76000000
v 0.85550000 -0.73000000 2.84000000
v 0.85550000 -0.63000000 2.76000000
v 0.85550000 -0.63000000 2.84000000
f 814 816 813
f 817 814 813
f 813 816 815
f 815 817 813
f 814 820 816
f 818 814 817
f 818 820 814
f 816 820 815
f 819 817 815
f 815 820 819
f 819 818 817
f 820 818 819

o geometry_71
v 0.95000000 -0.66000000 2.63000000
v 0.95000000 -0.66000000 2.81000000
v 0.95000000 -0.58000000 2.63000000
v 0.95000000 -0.58000000 2.81000000
v 1.37000000 -0.66000000 2.63000000
v 1.37000000 -0.66000000 2.81000000
v 1.37000000 -0.58000000 2.63000000
v 1.37000000 -0.58000000 2.81000000
f 822 824 821
f 825 822 821
f 821 824 823
f 823 825 821
f 822 828 824
f 826 822 825
f 826 828 822
f 824 828 823
f 827 825 823
f 823 828 827
f 827 826 825
f 828 826 827

o geometry_72
v 1.04450000 -0.73000000 2.60000000
v 1.04450000 -0.73000000 2.68000000
v 1.04450000 -0.63000000 2.60000000
v 1.04450000 -0.63000000 2.68000000
v 1.27550000 -0.73000000 2.60000000
v 1.27550000 -0.73000000 2.68000000
v 1.27550000 -0.63000000 2.60000000
v 1.27550000 -0.63000000 2.68000000
f 830 832 829
f 833 830 829
f 829 832 831
f 831 833 829
f 830 836 832
f 834 830 833
f 834 836 830
f 832 836 831
f 835 833 831
f 831 836 835
f 835 834 833
f 836 834 835

o geometry_73
v 1.37000000 -0.66000000 2.63000000
v 1.37000000 -0.66000000 2.81000000
v 1.37000000 -0.58000000 2.63000000
v 1.37000000 -0.58000000 2.81000000
v 1.79000000 -0.66000000 2.63000000
v 1.79000000 -0.66000000 2.81000000
v 1.79000000 -0.58000000 2.63000000
v 1.79000000 -0.58000000 2.81000000
f 838 840 837
f 841 838 837
f 837 840 839
f 839 841 837
f 838 844 840
f 842 838 841
f 842 844 838
f 840 844 839
f 843 841 839
f 839 844 843
f 843 842 841
f 844 842 843

o geometry_74
v 1.46450000 -0.73000000 2.76000000
v 1.46450000 -0.73000000 2.84000000
v 1.46450000 -0.63000000 2.76000000
v 1.46450000 -0.63000000 2.84000000
v 1.69550000 -0.73000000 2.76000000
v 1.69550000 -0.73000000 2.84000000
v 1.69550000 -0.63000000 2.76000000
v 1.69550000 -0.63000000 2.84000000
f 846 848 845
f 849 846 845
f 845 848 847
f 847 849 845
f 846 852 848
f 850 846 849
f 850 852 846
f 848 852 847
f 851 849 847
f 847 852 851
f 851 850 849
f 852 850 851

o geometry_75
v -1.15000000 -0.72000000 1.58000000
v -1.10500000 -0.72000000 1.58000000
v -1.10500000 -0.72000000 1.92000000
v -1.15000000 -0.72000000 1.92000000
v -1.11102886 -0.69750000 1.58000000
v -1.11102886 -0.69750000 1.92000000
v -1.12750000 -0.68102886 1.58000000
v -1.12750000 -0.68102886 1.92000000
v -1.15000000 -0.67500000 1.58000000
v -1.15000000 -0.67500000 1.92000000
v -1.17250000 -0.68102886 1.58000000
v -1.17250000 -0.68102886 1.92000000
v -1.18897114 -0.69750000 1.58000000
v -1.18897114 -0.69750000 1.92000000
v -1.19500000 -0.72000000 1.58000000
v -1.19500000 -0.72000000 1.92000000
v -1.18897114 -0.74250000 1.58000000
v -1.18897114 -0.74250000 1.92000000
v -1.17250000 -0.75897114 1.58000000
v -1.17250000 -0.75897114 1.92000000
v -1.15000000 -0.76500000 1.58000000
v -1.15000000 -0.76500000 1.92000000
v -1.12750000 -0.75897114 1.58000000
v -1.12750000 -0.75897114 1.92000000
v -1.11102886 -0.74250000 1.58000000
v -1.11102886 -0.74250000 1.92000000
f 854 853 857
f 854 857 855
f 855 857 858
f 855 858 856
f 857 853 859
f 857 859 858
f 858 859 860
f 858 860 856
f 859 853 861
f 859 861 860
f 860 861 862
f 860 862 856
f 861 853 863
f 861 863 862
f 862 863 864
f 862 864 856
f 863 853 865
f 863 865 864
f 864 865 866
f 864 866 856
f 865 853 867
f 865 867 866
f 866 867 868
f 866 868 856
f 867 853 869
f 867 869 868
f 868 869 870
f 868 870 856
f 869 853 871
f 869 871 870
f 870 871 872
f 870 872 856
f 871 853 873
f 871 873 872
f 872 873 874
f 872 874 856
f 873 853 875
f 873 875 874
f 874 875 876
f 874 876 856
f 875 853 877
f 875 877 876
f 876 877 878
f 876 878 856
f 877 853 854
f 877 854 878
f 878 854 855
f 878 855 856

o geometry_76
v -1.24000000 -0.70000000 1.59000000
v -1.24000000 -0.70000000 1.83000000
v -1.24000000 -0.64000000 1.59000000
v -1.24000000 -0.64000000 1.83000000
v -1.06000000 -0.70000000 1.59000000
v -1.06000000 -0.70000000 1.83000000
v -1.06000000 -0.64000000 1.59000000
v -1.06000000 -0.64000000 1.83000000
f 880 882 879
f 883 880 879
f 879 882 881
f 881 883 879
f 880 886 882
f 884 880 883
f 884 886 880
f 882 886 881
f 885 883 881
f 881 886 885
f 885 884 883
f 886 884 885

o geometry_77
v -1.15000000 -0.73000000 1.98000000
v -1.05000000 -0.73000000 1.98000000
v -1.15000000 -0.73000000 2.18000000
v -1.06339746 -0.68000000 1.98000000
v -1.10000000 -0.64339746 1.98000000
v -1.15000000 -0.63000000 1.98000000
v -1.20000000 -0.64339746 1.98000000
v -1.23660254 -0.68000000 1.98000000
v -1.25000000 -0.73000000 1.98000000
v -1.23660254 -0.78000000 1.98000000
v -1.20000000 -0.81660254 1.98000000
v -1.15000000 -0.83000000 1.98000000
v -1.10000000 -0.81660254 1.98000000
v -1.06339746 -0.78000000 1.98000000
f 888 887 890
f 888 890 889
f 890 887 891
f 890 891 889
f 891 887 892
f 891 892 889
f 892 887 893
f 892 893 889
f 893 887 894
f 893 894 889
f 894 887 895
f 894 895 889
f 895 887 896
f 895 896 889
f 896 887 897
f 896 897 889
f 897 887 898
f 897 898 889
f 898 887 899
f 898 899 889
f 899 887 900
f 899 900 889
f 900 887 888
f 900 888 889

o geometry_78
v 1.67486387 -0.34605301 0.08072062
v 1.80544030 -0.34605301 0.08072062
v 1.67486387 -0.49394699 0.08072062
v 1.80544030 -0.49394699 0.08072062
v 1.74015208 -0.46570175 0.20676892
v 1.74015208 -0.37429825 0.20676892
v 1.74015208 -0.46570175 -0.04532768
v 1.74015208 -0.37429825 -0.04532768
v 1.84579063 -0.42000000 0.00281848
v 1.84579063 -0.42000000 0.15862275
v 1.63451353 -0.42000000 0.00281848
v 1.63451353 -0.42000000 0.15862275
v 1.74015208 -0.33307011 0.08072062
v 1.74015208 -0.50692989 0.08072062
v 1.70177663 -0.49032776 0.15480995
v 1.77852753 -0.49032776 0.15480995
v 1.70177663 -0.34967224 0.15480995
v 1.77852753 -0.34967224 0.15480995
v 1.74015208 -0.42000000 0.22889928
v 1.70177663 -0.49032776 0.00663128
v 1.77852753 -0.49032776 0.00663128
v 1.70177663 -0.34967224 0.00663128
v 1.77852753 -0.34967224 0.00663128
v 1.74015208 -0.42000000 -0.06745805
v 1.84062031 -0.37653505 0.03493089
v 1.84062031 -0.46346495 0.03493089
v 1.80224486 -0.44686281 -0.03915844
v 1.80224486 -0.39313719 -0.03915844
v 1.84062031 -0.37653505 0.12651034
v 1.84062031 -0.46346495 0.12651034
v 1.80224486 -0.44686281 0.20059967
v 1.80224486 -0.39313719 0.20059967
v 1.86433764 -0.42000000 0.08072062
v 1.63968385 -0.37653505 0.03493089
v 1.63968385 -0.46346495 0.03493089
v 1.67805930 -0.44686281 -0.03915844
v 1.67805930 -0.39313719 -0.03915844
v 1.63968385 -0.37653505 0.12651034
v 1.63968385 -0.46346495 0.12651034
v 1.67805930 -0.44686281 0.20059967
v 1.67805930 -0.39313719 0.20059967
v 1.61596652 -0.42000000 0.08072062
f 901 938 917
f 938 912 941
f 917 941 906
f 938 941 917
f 901 917 913
f 917 906 918
f 913 918 902
f 917 918 913
f 901 913 922
f 913 902 923
f 922 923 908
f 913 923 922
f 901 922 934
f 922 908 937
f 934 937 911
f 922 937 934
f 901 934 938
f 934 911 942
f 938 942 912
f 934 942 938
f 902 918 929
f 918 906 932
f 929 932 910
f 918 932 929
f 906 941 919
f 941 912 940
f 919 940 905
f 941 940 919
f 912 942 939
f 942 911 935
f 939 935 903
f 942 935 939
f 911 937 936
f 937 908 924
f 936 924 907
f 937 924 936
f 908 923 928
f 923 902 925
f 928 925 909
f 923 925 928
f 904 930 916
f 930 910 931
f 916 931 905
f 930 931 916
f 904 916 914
f 916 905 915
f 914 915 903
f 916 915 914
f 904 914 921
f 914 903 920
f 921 920 907
f 914 920 921
f 904 921 926
f 921 907 927
f 926 927 909
f 921 927 926
f 904 926 930
f 926 909 933
f 930 933 910
f 926 933 930
f 905 931 919
f 931 910 932
f 919 932 906
f 931 932 919
f 903 915 939
f 915 905 940
f 939 940 912
f 915 940 939
f 907 920 936
f 920 903 935
f 936 935 911
f 920 935 936
f 909 927 928
f 927 907 924
f 928 924 908
f 927 924 928
f 910 933 929
f 933 909 925
f 929 925 902
f 933 925 929

o geometry_79
v 1.31772947 -0.33311563 0.09484308
v 1.47115087 -0.33311563 0.09484308
v 1.31772947 -0.50688437 0.09484308
v 1.47115087 -0.50688437 0.09484308
v 1.39444017 -0.47369749 0.21236095
v 1.39444017 -0.36630251 0.21236095
v 1.39444017 -0.47369749 -0.02267480
v 1.39444017 -0.36630251 -0.02267480
v 1.51856069 -0.42000000 0.02221303
v 1.51856069 -0.42000000 0.16747312
v 1.27031965 -0.42000000 0.02221303
v 1.27031965 -0.42000000 0.16747312
v 1.39444017 -0.31786130 0.09484308
v 1.39444017 -0.52213870 0.09484308
v 1.34935075 -0.50263194 0.16391835
v 1.43952959 -0.50263194 0.16391835
v 1.34935075 -0.33736806 0.16391835
v 1.43952959 -0.33736806 0.16391835
v 1.39444017 -0.42000000 0.23299363
v 1.34935075 -0.50263194 0.02576780
v 1.43952959 -0.50263194 0.02576780
v 1.34935075 -0.33736806 0.02576780
v 1.43952959 -0.33736806 0.02576780
v 1.39444017 -0.42000000 -0.04330747
v 1.51248580 -0.36893065 0.05215221
v 1.51248580 -0.47106935 0.05215221
v 1.46739638 -0.45156259 -0.01692307
v 1.46739638 -0.38843741 -0.01692307
v 1.51248580 -0.36893065 0.13753394
v 1.51248580 -0.47106935 0.13753394
v 1.46739638 -0.45156259 0.20660922
v 1.46739638 -0.38843741 0.20660922
v 1.54035260 -0.42000000 0.09484308
v 1.27639454 -0.36893065 0.05215221
v 1.27639454 -0.47106935 0.05215221
v 1.32148396 -0.45156259 -0.01692307
v 1.32148396 -0.38843741 -0.01692307
v 1.27639454 -0.36893065 0.13753394
v 1.27639454 -0.47106935 0.13753394
v 1.32148396 -0.45156259 0.20660922
v 1.32148396 -0.38843741 0.20660922
v 1.24852775 -0.42000000 0.09484308
f 943 980 959
f 980 954 983
f 959 983 948
f 980 983 959
f 943 959 955
f 959 948 960
f 955 960 944
f 959 960 955
f 943 955 964
f 955 944 965
f 964 965 950
f 955 965 964
f 943 964 976
f 964 950 979
f 976 979 953
f 964 979 976
f 943 976 980
f 976 953 984
f 980 984 954
f 976 984 980
f 944 960 971
f 960 948 974
f 971 974 952
f 960 974 971
f 948 983 961
f 983 954 982
f 961 982 947
f 983 982 961
f 954 984 981
f 984 953 977
f 981 977 945
f 984 977 981
f 953 979 978
f 979 950 966
f 978 966 949
f 979 966 978
f 950 965 970
f 965 944 967
f 970 967 951
f 965 967 970
f 946 972 958
f 972 952 973
f 958 973 947
f 972 973 958
f 946 958 956
f 958 947 957
f 956 957 945
f 958 957 956
f 946 956 963
f 956 945 962
f 963 962 949
f 956 962 963
f 946 963 968
f 963 949 969
f 968 969 951
f 963 969 968
f 946 968 972
f 968 951 975
f 972 975 952
f 968 975 972
f 947 973 961
f 973 952 974
f 961 974 948
f 973 974 961
f 945 957 981
f 957 947 982
f 981 982 954
f 957 982 981
f 949 962 978
f 962 945 977
f 978 977 953
f 962 977 978
f 951 969 970
f 969 949 966
f 970 966 950
f 969 966 970
f 952 975 971
f 975 951 967
f 971 967 944
f 975 967 971

o geometry_80
v 0.88901115 -0.29061540 0.14123638
v 1.11747994 -0.29061540 0.14123638
v 0.88901115 -0.54938460 0.14123638
v 1.11747994 -0.54938460 0.14123638
v 1.00324555 -0.49996408 0.35418611
v 1.00324555 -0.34003592 0.35418611
v 1.00324555 -0.49996408 -0.07171336
v 1.00324555 -0.34003592 -0.07171336
v 1.18808068 -0.42000000 0.00962620
v 1.18808068 -0.42000000 0.27284655
v 0.81841041 -0.42000000 0.00962620
v 0.81841041 -0.42000000 0.27284655
v 1.00324555 -0.26789929 0.14123638
v 1.00324555 -0.57210071 0.14123638
v 0.93610025 -0.54305206 0.26640509
v 1.07039084 -0.54305206 0.26640509
v 0.93610025 -0.29694794 0.26640509
v 1.07039084 -0.29694794 0.26640509
v 1.00324555 -0.42000000 0.39157380
v 0.93610025 -0.54305206 0.01606766
v 1.07039084 -0.54305206 0.01606766
v 0.93610025 -0.29694794 0.01606766
v 1.07039084 -0.29694794 0.01606766
v 1.00324555 -0.42000000 -0.10910105
v 1.17903421 -0.34394964 0.06387786
v 1.17903421 -0.49605036 0.06387786
v 1.11188891 -0.46700171 -0.06129085
v 1.11188891 -0.37299829 -0.06129085
v 1.17903421 -0.34394964 0.21859490
v 1.17903421 -0.49605036 0.21859490
v 1.11188891 -0.46700171 0.34376361
v 1.11188891 -0.37299829 0.34376361
v 1.22053228 -0.42000000 0.14123638
v 0.82745688 -0.34394964 0.06387786
v 0.82745688 -0.49605036 0.06387786
v 0.89460218 -0.46700171 -0.06129085
v 0.89460218 -0.37299829 -0.06129085
v 0.82745688 -0.34394964 0.21859490
v 0.82745688 -0.49605036 0.21859490
v 0.89460218 -0.46700171 0.34376361
v 0.89460218 -0.37299829 0.34376361
v 0.78595881 -0.42000000 0.14123638
f 985 1022 1001
f 1022 996 1025
f 1001 1025 990
f 1022 1025 1001
f 985 1001 997
f 1001 990 1002
f 997 1002 986
f 1001 1002 997
f 985 997 1006
f 997 986 1007
f 1006 1007 992
f 997 1007 1006
f 985 1006 1018
f 1006 992 1021
f 1018 1021 995
f 1006 1021 1018
f 985 1018 1022
f 1018 995 1026
f 1022 1026 996
f 1018 1026 1022
f 986 1002 1013
f 1002 990 1016
f 1013 1016 994
f 1002 1016 1013
f 990 1025 1003
f 1025 996 1024
f 1003 1024 989
f 1025 1024 1003
f 996 1026 1023
f 1026 995 1019
f 1023 1019 987
f 1026 1019 1023
f 995 1021 1020
f 1021 992 1008
f 1020 1008 991
f 1021 1008 1020
f 992 1007 1012
f 1007 986 1009
f 1012 1009 993
f 1007 1009 1012
f 988 1014 1000
f 1014 994 1015
f 1000 1015 989
f 1014 1015 1000
f 988 1000 998
f 1000 989 999
f 998 999 987
f 1000 999 998
f 988 998 1005
f 998 987 1004
f 1005 1004 991
f 998 1004 1005
f 988 1005 1010
f 1005 991 1011
f 1010 1011 993
f 1005 1011 1010
f 988 1010 1014
f 1010 993 1017
f 1014 1017 994
f 1010 1017 1014
f 989 1015 1003
f 1015 994 1016
f 1003 1016 990
f 1015 1016 1003
f 987 999 1023
f 999 989 1024
f 1023 1024 996
f 999 1024 1023
f 991 1004 1020
f 1004 987 1019
f 1020 1019 995
f 1004 1019 1020
f 993 1011 1012
f 1011 991 1008
f 1012 1008 992
f 1011 1008 1012
f 994 1017 1013
f 1017 993 1009
f 1013 1009 986
f 1017 1009 1013

o geometry_81
v 1.32078810 -0.35741610 0.06831665
v 1.43129945 -0.35741610 0.06831665
v 1.32078810 -0.48258390 0.06831665
v 1.43129945 -0.48258390 0.06831665
v 1.37604377 -0.45867897 0.17426543
v 1.37604377 -0.38132103 0.17426543
v 1.37604377 -0.45867897 -0.03763212
v 1.37604377 -0.38132103 -0.03763212
v 1.46544934 -0.42000000 0.00283671
v 1.46544934 -0.42000000 0.13379660
v 1.28663821 -0.42000000 0.00283671
v 1.28663821 -0.42000000 0.13379660
v 1.37604377 -0.34642822 0.06831665
v 1.37604377 -0.49357178 0.06831665
v 1.34356530 -0.47952082 0.13059178
v 1.40852225 -0.47952082 0.13059178
v 1.34356530 -0.36047918 0.13059178
v 1.40852225 -0.36047918 0.13059178
v 1.37604377 -0.42000000 0.19286691
v 1.34356530 -0.47952082 0.00604153
v 1.40852225 -0.47952082 0.00604153
v 1.34356530 -0.36047918 0.00604153
v 1.40852225 -0.36047918 0.00604153
v 1.37604377 -0.42000000 -0.05623360
v 1.46107352 -0.38321411 0.02982851
v 1.46107352 -0.45678589 0.02982851
v 1.42859505 -0.44273493 -0.03244662
v 1.42859505 -0.39726507 -0.03244662
v 1.46107352 -0.38321411 0.10680480
v 1.46107352 -0.45678589 0.10680480
v 1.42859505 -0.44273493 0.16907993
v 1.42859505 -0.39726507 0.16907993
v 1.48114632 -0.42000000 0.06831665
v 1.29101403 -0.38321411 0.02982851
v 1.29101403 -0.45678589 0.02982851
v 1.32349250 -0.44273493 -0.03244662
v 1.32349250 -0.39726507 -0.03244662
v 1.29101403 -0.38321411 0.10680480
v 1.29101403 -0.45678589 0.10680480
v 1.32349250 -0.44273493 0.16907993
v 1.32349250 -0.39726507 0.16907993
v 1.27094123 -0.42000000 0.06831665
f 1027 1064 1043
f 1064 1038 1067
f 1043 1067 1032
f 1064 1067 1043
f 1027 1043 1039
f 1043 1032 1044
f 1039 1044 1028
f 1043 1044 1039
f 1027 1039 1048
f 1039 1028 1049
f 1048 1049 1034
f 1039 1049 1048
f 1027 1048 1060
f 1048 1034 1063
f 1060 1063 1037
f 1048 1063 1060
f 1027 1060 1064
f 1060 1037 1068
f 1064 1068 1038
f 1060 1068 1064
f 1028 1044 1055
f 1044 1032 1058
f 1055 1058 1036
f 1044 1058 1055
f 1032 1067 1045
f 1067 1038 1066
f 1045 1066 1031
f 1067 1066 1045
f 1038 1068 1065
f 1068 1037 1061
f 1065 1061 1029
f 1068 1061 1065
f 1037 1063 1062
f 1063 1034 1050
f 1062 1050 1033
f 1063 1050 1062
f 1034 1049 1054
f 1049 1028 1051
f 1054 1051 1035
f 1049 1051 1054
f 1030 1056 1042
f 1056 1036 1057
f 1042 1057 1031
f 1056 1057 1042
f 1030 1042 1040
f 1042 1031 1041
f 1040 1041 1029
f 1042 1041 1040
f 1030 1040 1047
f 1040 1029 1046
f 1047 1046 1033
f 1040 1046 1047
f 1030 1047 1052
f 1047 1033 1053
f 1052 1053 1035
f 1047 1053 1052
f 1030 1052 1056
f 1052 1035 1059
f 1056 1059 1036
f 1052 1059 1056
f 1031 1057 1045
f 1057 1036 1058
f 1045 1058 1032
f 1057 1058 1045
f 1029 1041 1065
f 1041 1031 1066
f 1065 1066 1038
f 1041 1066 1065
f 1033 1046 1062
f 1046 1029 1061
f 1062 1061 1037
f 1046 1061 1062
f 1035 1053 1054
f 1053 1033 1050
f 1054 1050 1034
f 1053 1050 1054
f 1036 1059 1055
f 1059 1035 1051
f 1055 1051 1028
f 1059 1051 1055

o geometry_82
v 1.26521702 -0.27875174 0.15418677
v 1.51463481 -0.27875174 0.15418677
v 1.26521702 -0.56124826 0.15418677
v 1.51463481 -0.56124826 0.15418677
v 1.38992591 -0.50729623 0.27555418
v 1.38992591 -0.33270377 0.27555418
v 1.38992591 -0.50729623 0.03281935
v 1.38992591 -0.33270377 0.03281935
v 1.59170914 -0.42000000 0.07917758
v 1.59170914 -0.42000000 0.22919596
v 1.18814268 -0.42000000 0.07917758
v 1.18814268 -0.42000000 0.22919596
v 1.38992591 -0.25395271 0.15418677
v 1.38992591 -0.58604729 0.15418677
v 1.31662386 -0.55433508 0.22552475
v 1.46322796 -0.55433508 0.22552475
v 1.31662386 -0.28566492 0.22552475
v 1.46322796 -0.28566492 0.22552475
v 1.38992591 -0.42000000 0.29686272
v 1.31662386 -0.55433508 0.08284879
v 1.46322796 -0.55433508 0.08284879
v 1.31662386 -0.28566492 0.08284879
v 1.46322796 -0.28566492 0.08284879
v 1.38992591 -0.42000000 0.01151082
v 1.58183317 -0.33697635 0.11009748
v 1.58183317 -0.50302365 0.11009748
v 1.50853112 -0.47131143 0.03875950
v 1.50853112 -0.36868857 0.03875950
v 1.58183317 -0.33697635 0.19827606
v 1.58183317 -0.50302365 0.19827606
v 1.50853112 -0.47131143 0.26961404
v 1.50853112 -0.36868857 0.26961404
v 1.62713633 -0.42000000 0.15418677
v 1.19801866 -0.33697635 0.11009748
v 1.19801866 -0.50302365 0.11009748
v 1.27132071 -0.47131143 0.03875950
v 1.27132071 -0.36868857 0.03875950
v 1.19801866 -0.33697635 0.19827606
v 1.19801866 -0.50302365 0.19827606
v 1.27132071 -0.47131143 0.26961404
v 1.27132071 -0.36868857 0.26961404
v 1.15271550 -0.42000000 0.15418677
f 1069 1106 1085
f 1106 1080 1109
f 1085 1109 1074
f 1106 1109 1085
f 1069 1085 1081
f 1085 1074 1086
f 1081 1086 1070
f 1085 1086 1081
f 1069 1081 1090
f 1081 1070 1091
f 1090 1091 1076
f 1081 1091 1090
f 1069 1090 1102
f 1090 1076 1105
f 1102 1105 1079
f 1090 1105 1102
f 1069 1102 1106
f 1102 1079 1110
f 1106 1110 1080
f 1102 1110 1106
f 1070 1086 1097
f 1086 1074 1100
f 1097 1100 1078
f 1086 1100 1097
f 1074 1109 1087
f 1109 1080 1108
f 1087 1108 1073
f 1109 1108 1087
f 1080 1110 1107
f 1110 1079 1103
f 1107 1103 1071
f 1110 1103 1107
f 1079 1105 1104
f 1105 1076 1092
f 1104 1092 1075
f 1105 1092 1104
f 1076 1091 1096
f 1091 1070 1093
f 1096 1093 1077
f 1091 1093 1096
f 1072 1098 1084
f 1098 1078 1099
f 1084 1099 1073
f 1098 1099 1084
f 1072 1084 1082
f 1084 1073 1083
f 1082 1083 1071
f 1084 1083 1082
f 1072 1082 1089
f 1082 1071 1088
f 1089 1088 1075
f 1082 1088 1089
f 1072 1089 1094
f 1089 1075 1095
f 1094 1095 1077
f 1089 1095 1094
f 1072 1094 1098
f 1094 1077 1101
f 1098 1101 1078
f 1094 1101 1098
f 1073 1099 1087
f 1099 1078 1100
f 1087 1100 1074
f 1099 1100 1087
f 1071 1083 1107
f 1083 1073 1108
f 1107 1108 1080
f 1083 1108 1107
f 1075 1088 1104
f 1088 1071 1103
f 1104 1103 1079
f 1088 1103 1104
f 1077 1095 1096
f 1095 1075 1092
f 1096 1092 1076
f 1095 1092 1096
f 1078 1101 1097
f 1101 1077 1093
f 1097 1093 1070
f 1101 1093 1097

o geometry_83
v 1.81894417 -0.28311834 0.14942018
v 2.06065136 -0.28311834 0.14942018
v 1.81894417 -0.55688166 0.14942018
v 2.06065136 -0.55688166 0.14942018
v 1.93979777 -0.50459752 0.29806068
v 1.93979777 -0.33540248 0.29806068
v 1.93979777 -0.50459752 0.00077969
v 1.93979777 -0.33540248 0.00077969
v 2.13534300 -0.42000000 0.05755531
v 2.13534300 -0.42000000 0.24128506
v 1.74425253 -0.42000000 0.05755531
v 1.74425253 -0.42000000 0.24128506
v 1.93979777 -0.25908596 0.14942018
v 1.93979777 -0.58091404 0.14942018
v 1.86876180 -0.55018220 0.23678887
v 2.01083373 -0.55018220 0.23678887
v 1.86876180 -0.28981780 0.23678887
v 2.01083373 -0.28981780 0.23678887
v 1.93979777 -0.42000000 0.32415756
v 1.86876180 -0.55018220 0.06205149
v 2.01083373 -0.55018220 0.06205149
v 1.86876180 -0.28981780 0.06205149
v 2.01083373 -0.28981780 0.06205149
v 1.93979777 -0.42000000 -0.02531719
v 2.12577233 -0.33954298 0.09542336
v 2.12577233 -0.50045702 0.09542336
v 2.05473637 -0.46972517 0.00805468
v 2.05473637 -0.37027483 0.00805468
v 2.12577233 -0.33954298 0.20341700
v 2.12577233 -0.50045702 0.20341700
v 2.05473637 -0.46972517 0.29078569
v 2.05473637 -0.37027483 0.29078569
v 2.16967497 -0.42000000 0.14942018
v 1.75382320 -0.33954298 0.09542336
v 1.75382320 -0.50045702 0.09542336
v 1.82485916 -0.46972517 0.00805468
v 1.82485916 -0.37027483 0.00805468
v 1.75382320 -0.33954298 0.20341700
v 1.75382320 -0.50045702 0.20341700
v 1.82485916 -0.46972517 0.29078569
v 1.82485916 -0.37027483 0.29078569
v 1.70992056 -0.42000000 0.14942018
f 1111 1148 1127
f 1148 1122 1151
f 1127 1151 1116
f 1148 1151 1127
f 1111 1127 1123
f 1127 1116 1128
f 1123 1128 1112
f 1127 1128 1123
f 1111 1123 1132
f 1123 1112 1133
f 1132 1133 1118
f 1123 1133 1132
f 1111 1132 1144
f 1132 1118 1147
f 1144 1147 1121
f 1132 1147 1144
f 1111 1144 1148
f 1144 1121 1152
f 1148 1152 1122
f 1144 1152 1148
f 1112 1128 1139
f 1128 1116 1142
f 1139 1142 1120
f 1128 1142 1139
f 1116 1151 1129
f 1151 1122 1150
f 1129 1150 1115
f 1151 1150 1129
f 1122 1152 1149
f 1152 1121 1145
f 1149 1145 1113
f 1152 1145 1149
f 1121 1147 1146
f 1147 1118 1134
f 1146 1134 1117
f 1147 1134 1146
f 1118 1133 1138
f 1133 1112 1135
f 1138 1135 1119
f 1133 1135 1138
f 1114 1140 1126
f 1140 1120 1141
f 1126 1141 1115
f 1140 1141 1126
f 1114 1126 1124
f 1126 1115 1125
f 1124 1125 1113
f 1126 1125 1124
f 1114 1124 1131
f 1124 1113 1130
f 1131 1130 1117
f 1124 1130 1131
f 1114 1131 1136
f 1131 1117 1137
f 1136 1137 1119
f 1131 1137 1136
f 1114 1136 1140
f 1136 1119 1143
f 1140 1143 1120
f 1136 1143 1140
f 1115 1141 1129
f 1141 1120 1142
f 1129 1142 1116
f 1141 1142 1129
f 1113 1125 1149
f 1125 1115 1150
f 1149 1150 1122
f 1125 1150 1149
f 1117 1130 1146
f 1130 1113 1145
f 1146 1145 1121
f 1130 1145 1146
f 1119 1137 1138
f 1137 1117 1134
f 1138 1134 1118
f 1137 1134 1138
f 1120 1143 1139
f 1143 1119 1135
f 1139 1135 1112
f 1143 1135 1139

o geometry_84
v -2.00000000 -0.29500000 0.00000000
v -2.00000000 -0.29500000 0.18000000
v -2.00000000 0.25500000 0.00000000
v -2.00000000 0.25500000 0.18000000
v 2.00000000 -0.29500000 0.00000000
v 2.00000000 -0.29500000 0.18000000
v 2.00000000 0.25500000 0.00000000
v 2.00000000 0.25500000 0.18000000
f 1154 1156 1153
f 1157 1154 1153
f 1153 1156 1155
f 1155 1157 1153
f 1154 1160 1156
f 1158 1154 1157
f 1158 1160 1154
f 1156 1160 1155
f 1159 1157 1155
f 1155 1160 1159
f 1159 1158 1157
f 1160 1158 1159

o geometry_85
v -2.00000000 -0.33000000 3.25000000
v -2.00000000 -0.33000000 3.50000000
v -2.00000000 0.29000000 3.25000000
v -2.00000000 0.29000000 3.50000000
v 2.00000000 -0.33000000 3.25000000
v 2.00000000 -0.33000000 3.50000000
v 2.00000000 0.29000000 3.25000000
v 2.00000000 0.29000000 3.50000000
f 1162 1164 1161
f 1165 1162 1161
f 1161 1164 1163
f 1163 1165 1161
f 1162 1168 1164
f 1166 1162 1165
f 1166 1168 1162
f 1164 1168 1163
f 1167 1165 1163
f 1163 1168 1167
f 1167 1166 1165
f 1168 1166 1167

