# https://github.com/mikedh/trimesh

o geometry_0
v -1.99025061 -0.48207539 0.00599776
v -1.99025061 -0.48207539 0.48099776
v -1.99174705 -0.00207772 0.00599776
v -1.99174705 -0.00207772 0.48099776
v -1.50931754 -0.48057603 0.00599776
v -1.50931754 -0.48057603 0.48099776
v -1.51081399 -0.00057836 0.00599776
v -1.51081399 -0.00057836 0.48099776
f 2 4 1
f 5 2 1
f 1 4 3
f 3 5 1
f 2 8 4
f 6 2 5
f 6 8 2
f 4 8 3
f 7 5 3
f 3 8 7
f 7 6 5
f 8 6 7

o geometry_1
v -1.48962125 -0.46964320 -0.01184160
v -1.48962125 -0.46964320 0.46315840
v -1.49448072 0.01033220 -0.01184160
v -1.49448072 0.01033220 0.46315840
v -0.95830484 -0.46426393 -0.01184160
v -0.95830484 -0.46426393 0.46315840
v -0.96316431 0.01571147 -0.01184160
v -0.96316431 0.01571147 0.46315840
f 10 12 9
f 13 10 9
f 9 12 11
f 11 13 9
f 10 16 12
f 14 10 13
f 14 16 10
f 12 16 11
f 15 13 11
f 11 16 15
f 15 14 13
f 16 14 15

o geometry_2
v 1.18152600 -0.47634925 0.01945341
v 1.18152600 -0.47634925 0.49445341
v 1.18655703 0.00362439 0.01945341
v 1.18655703 0.00362439 0.49445341
v 1.74023530 -0.48220558 0.01945341
v 1.74023530 -0.48220558 0.49445341
v 1.74526633 -0.00223194 0.01945341
v 1.74526633 -0.00223194 0.49445341
f 18 20 17
f 21 18 17
f 17 20 19
f 19 21 17
f 18 24 20
f 22 18 21
f 22 24 18
f 20 24 19
f 23 21 19
f 19 24 23
f 23 22 21
f 24 22 23

o geometry_3
v 1.76250617 -0.49186823 0.01365906
v 1.76250617 -0.49186823 0.48865906
v 1.75903218 -0.01188080 0.01365906
v 1.75903218 -0.01188080 0.48865906
v 1.99273398 -0.49020192 0.01365906
v 1.99273398 -0.49020192 0.48865906
v 1.98925999 -0.01021449 0.01365906
v 1.98925999 -0.01021449 0.48865906
f 26 28 25
f 29 26 25
f 25 28 27
f 27 29 25
f 26 32 28
f 30 26 29
f 30 32 26
f 28 32 27
f 31 29 27
f 27 32 31
f 31 30 29
f 32 30 31

o geometry_4
v -1.99034282 -0.46784394 0.52541151
v -1.99034282 -0.46784394 1.00041151
v -1.99165465 0.01215427 0.52541151
v -1.99165465 0.01215427 1.00041151
v -1.31424098 -0.46599616 0.52541151
v -1.31424098 -0.46599616 1.00041151
v -1.31555281 0.01400205 0.52541151
v -1.31555281 0.01400205 1.00041151
f 34 36 33
f 37 34 33
f 33 36 35
f 35 37 33
f 34 40 36
f 38 34 37
f 38 40 34
f 36 40 35
f 39 37 35
f 35 40 39
f 39 38 37
f 40 38 39

o geometry_5
v 1.31762849 -0.49561778 0.52320647
v 1.31762849 -0.49561778 0.99820647
v 1.31156483 -0.01565608 0.52320647
v 1.31156483 -0.01565608 0.99820647
v 1.99400484 -0.48707269 0.52320647
v 1.99400484 -0.48707269 0.99820647
v 1.98794118 -0.00711099 0.52320647
v 1.98794118 -0.00711099 0.99820647
f 42 44 41
f 45 42 41
f 41 44 43
f 43 45 41
f 42 48 44
f 46 42 45
f 46 48 42
f 44 48 43
f 47 45 43
f 43 48 47
f 47 46 45
f 48 46 47

o geometry_6
v -1.98783692 -0.49313067 1.00973105
v -1.98783692 -0.49313067 1.48473105
v -1.99410919 -0.01317165 1.00973105
v -1.99410919 -0.01317165 1.48473105
v -1.35670926 -0.48488287 1.00973105
v -1.35670926 -0.48488287 1.48473105
v -1.36298153 -0.00492386 1.00973105
v -1.36298153 -0.00492386 1.48473105
f 50 52 49
f 53 50 49
f 49 52 51
f 51 53 49
f 50 56 52
f 54 50 53
f 54 56 50
f 52 56 51
f 55 53 51
f 51 56 55
f 55 54 53
f 56 54 55

o geometry_7
v 1.21276287 -0.47592006 1.01883241
v 1.21276287 -0.47592006 1.49383241
v 1.21562808 0.00407138 1.01883241
v 1.21562808 0.00407138 1.49383241
v 1.93664050 -0.48024110 1.01883241
v 1.93664050 -0.48024110 1.49383241
v 1.93950571 -0.00024965 1.01883241
v 1.93950571 -0.00024965 1.49383241
f 58 60 57
f 61 58 57
f 57 60 59
f 59 61 57
f 58 64 60
f 62 58 61
f 62 64 58
f 60 64 59
f 63 61 59
f 59 64 63
f 63 62 61
f 64 62 63

o geometry_8
v 1.95669214 -0.47661977 1.00504552
v 1.95669214 -0.47661977 1.48004552
v 1.95546708 0.00337867 1.00504552
v 1.95546708 0.00337867 1.48004552
v 1.99161248 -0.47653064 1.00504552
v 1.99161248 -0.47653064 1.48004552
v 1.99038741 0.00346779 1.00504552
v 1.99038741 0.00346779 1.48004552
f 66 68 65
f 69 66 65
f 65 68 67
f 67 69 65
f 66 72 68
f 70 66 69
f 70 72 66
f 68 72 67
f 71 69 67
f 67 72 71
f 71 70 69
f 72 70 71

o geometry_9
v -1.98788427 -0.49636511 1.52159911
v -1.98788427 -0.49636511 1.99659911
v -1.99406092 -0.01640486 1.52159911
v -1.99406092 -0.01640486 1.99659911
v -1.32599816 -0.48784725 1.52159911
v -1.32599816 -0.48784725 1.99659911
v -1.33217481 -0.00788699 1.52159911
v -1.33217481 -0.00788699 1.99659911
f 74 76 73
f 77 74 73
f 73 76 75
f 75 77 73
f 74 80 76
f 78 74 77
f 78 80 74
f 76 80 75
f 79 77 75
f 75 80 79
f 79 78 77
f 80 78 79

o geometry_10
v 0.85615939 -0.49440418 1.53573165
v 0.85615939 -0.49440418 2.01073165
v 0.85033191 -0.01443955 1.53573165
v 0.85033191 -0.01443955 2.01073165
v 1.44961933 -0.48719870 1.53573165
v 1.44961933 -0.48719870 2.01073165
v 1.44379185 -0.00723407 1.53573165
v 1.44379185 -0.00723407 2.01073165
f 82 84 81
f 85 82 81
f 81 84 83
f 83 85 81
f 82 88 84
f 86 82 85
f 86 88 82
f 84 88 83
f 87 85 83
f 83 88 87
f 87 86 85
f 88 86 87

o geometry_11
v 1.46712802 -0.48902033 1.49805625
v 1.46712802 -0.48902033 1.97305625
v 1.46235295 -0.00904409 1.49805625
v 1.46235295 -0.00904409 1.97305625
v 1.99337452 -0.48378494 1.49805625
v 1.99337452 -0.48378494 1.97305625
v 1.98859944 -0.00380869 1.49805625
v 1.98859944 -0.00380869 1.97305625
f 90 92 89
f 93 90 89
f 89 92 91
f 91 93 89
f 90 96 92
f 94 90 93
f 94 96 90
f 92 96 91
f 95 93 91
f 91 96 95
f 95 94 93
f 96 94 95

o geometry_12
v -1.98843305 -0.47704022 1.99067303
v -1.98843305 -0.47704022 2.46567303
v -1.99352973 0.00293273 1.99067303
v -1.99352973 0.00293273 2.46567303
v -1.32827126 -0.47003017 1.99067303
v -1.32827126 -0.47003017 2.46567303
v -1.33336794 0.00994277 1.99067303
v -1.33336794 0.00994277 2.46567303
f 98 100 97
f 101 98 97
f 97 100 99
f 99 101 97
f 98 104 100
f 102 98 101
f 102 104 98
f 100 104 99
f 103 101 99
f 99 104 103
f 103 102 101
f 104 102 103

o geometry_13
v 0.74946900 -0.47207013 2.00219456
v 0.74946900 -0.47207013 2.47719456
v 0.74559844 0.00791426 2.00219456
v 0.74559844 0.00791426 2.47719456
v 1.38314844 -0.46696018 2.00219456
v 1.38314844 -0.46696018 2.47719456
v 1.37927788 0.01302421 2.00219456
v 1.37927788 0.01302421 2.47719456
f 106 108 105
f 109 106 105
f 105 108 107
f 107 109 105
f 106 112 108
f 110 106 109
f 110 112 106
f 108 112 107
f 111 109 107
f 107 112 111
f 111 110 109
f 112 110 111

o geometry_14
v 1.39597471 -0.46226406 2.01822663
v 1.39597471 -0.46226406 2.49322663
v 1.40252736 0.01769121 2.01822663
v 1.40252736 0.01769121 2.49322663
v 1.98769610 -0.47034262 2.01822663
v 1.98769610 -0.47034262 2.49322663
v 1.99424876 0.00961265 2.01822663
v 1.99424876 0.00961265 2.49322663
f 114 116 113
f 117 114 113
f 113 116 115
f 115 117 113
f 114 120 116
f 118 114 117
f 118 120 114
f 116 120 115
f 119 117 115
f 115 120 119
f 119 118 117
f 120 118 119

o geometry_15
v -1.98750400 -0.47983300 2.53154527
v -1.98750400 -0.47983300 3.00654527
v -1.99442492 0.00011710 2.53154527
v -1.99442492 0.00011710 3.00654527
v -1.30382850 -0.46997435 2.53154527
v -1.30382850 -0.46997435 3.00654527
v -1.31074942 0.00997575 2.53154527
v -1.31074942 0.00997575 3.00654527
f 122 124 121
f 125 122 121
f 121 124 123
f 123 125 121
f 122 128 124
f 126 122 125
f 126 128 122
f 124 128 123
f 127 125 123
f 123 128 127
f 127 126 125
f 128 126 127

o geometry_16
v -1.29227301 -0.49081703 2.50298350
v -1.29227301 -0.49081703 2.97798350
v -1.28618156 -0.01085569 2.50298350
v -1.28618156 -0.01085569 2.97798350
v -0.64319448 -0.49905485 2.50298350
v -0.64319448 -0.49905485 2.97798350
v -0.63710302 -0.01909350 2.50298350
v -0.63710302 -0.01909350 2.97798350
f 130 132 129
f 133 130 129
f 129 132 131
f 131 133 129
f 130 136 132
f 134 130 133
f 134 136 130
f 132 136 131
f 135 133 131
f 131 136 135
f 135 134 133
f 136 134 135

o geometry_17
v -0.62278420 -0.46502283 2.49736924
v -0.62278420 -0.46502283 2.97236924
v -0.62145849 0.01497534 2.49736924
v -0.62145849 0.01497534 2.97236924
v 0.04167472 -0.46685801 2.49736924
v 0.04167472 -0.46685801 2.97236924
v 0.04300044 0.01314016 2.49736924
v 0.04300044 0.01314016 2.97236924
f 138 140 137
f 141 138 137
f 137 140 139
f 139 141 137
f 138 144 140
f 142 138 141
f 142 144 138
f 140 144 139
f 143 141 139
f 139 144 143
f 143 142 141
f 144 142 143

o geometry_18
v 0.06300707 -0.47334651 2.48962179
v 0.06300707 -0.47334651 2.96462179
v 0.05771116 0.00662428 2.48962179
v 0.05771116 0.00662428 2.96462179
v 0.72916743 -0.46599622 2.48962179
v 0.72916743 -0.46599622 2.96462179
v 0.72387152 0.01397457 2.48962179
v 0.72387152 0.01397457 2.96462179
f 146 148 145
f 149 146 145
f 145 148 147
f 147 149 145
f 146 152 148
f 150 146 149
f 150 152 146
f 148 152 147
f 151 149 147
f 147 152 151
f 151 150 149
f 152 150 151

o geometry_19
v 0.74366191 -0.49262528 2.53233298
v 0.74366191 -0.49262528 3.00733298
v 0.74542174 -0.01262851 2.53233298
v 0.74542174 -0.01262851 3.00733298
v 1.36165522 -0.49489106 2.53233298
v 1.36165522 -0.49489106 3.00733298
v 1.36341505 -0.01489428 2.53233298
v 1.36341505 -0.01489428 3.00733298
f 154 156 153
f 157 154 153
f 153 156 155
f 155 157 153
f 154 160 156
f 158 154 157
f 158 160 154
f 156 160 155
f 159 157 155
f 155 160 159
f 159 158 157
f 160 158 159

o geometry_20
v 1.38122715 -0.48147706 2.51969444
v 1.38122715 -0.48147706 2.99469444
v 1.37984979 -0.00147904 2.51969444
v 1.37984979 -0.00147904 2.99469444
v 1.99168742 -0.47972534 2.51969444
v 1.99168742 -0.47972534 2.99469444
v 1.99031006 0.00027268 2.51969444
v 1.99031006 0.00027268 2.99469444
f 162 164 161
f 165 162 161
f 161 164 163
f 163 165 161
f 162 168 164
f 166 162 165
f 166 168 162
f 164 168 163
f 167 165 163
f 163 168 167
f 167 166 165
f 168 166 167

o geometry_21
v -1.99094940 -0.48365887 3.03453106
v -1.99094940 -0.48365887 3.50953106
v -1.99105059 -0.00365888 3.03453106
v -1.99105059 -0.00365888 3.50953106
v -1.46824547 -0.48354868 3.03453106
v -1.46824547 -0.48354868 3.50953106
v -1.46834666 -0.00354870 3.03453106
v -1.46834666 -0.00354870 3.50953106
f 170 172 169
f 173 170 169
f 169 172 171
f 171 173 169
f 170 176 172
f 174 170 173
f 174 176 170
f 172 176 171
f 175 173 171
f 171 176 175
f 175 174 173
f 176 174 175

o geometry_22
v -1.45172372 -0.48509516 2.99938178
v -1.45172372 -0.48509516 3.47438178
v -1.44885939 -0.00510371 2.99938178
v -1.44885939 -0.00510371 3.47438178
v -0.94567783 -0.48811497 2.99938178
v -0.94567783 -0.48811497 3.47438178
v -0.94281350 -0.00812352 2.99938178
v -0.94281350 -0.00812352 3.47438178
f 178 180 177
f 181 178 177
f 177 180 179
f 179 181 177
f 178 184 180
f 182 178 181
f 182 184 178
f 180 184 179
f 183 181 179
f 179 184 183
f 183 182 181
f 184 182 183

o geometry_23
v -0.92972755 -0.47637903 3.01492152
v -0.92972755 -0.47637903 3.48992152
v -0.92269279 0.00356942 3.01492152
v -0.92269279 0.00356942 3.48992152
v -0.35267588 -0.48483706 3.01492152
v -0.35267588 -0.48483706 3.48992152
v -0.34564112 -0.00488861 3.01492152
v -0.34564112 -0.00488861 3.48992152
f 186 188 185
f 189 186 185
f 185 188 187
f 187 189 185
f 186 192 188
f 190 186 189
f 190 192 186
f 188 192 187
f 191 189 187
f 187 192 191
f 191 190 189
f 192 190 191

o geometry_24
v -0.33029224 -0.48327290 2.98850264
v -0.33029224 -0.48327290 3.46350264
v -0.33195973 -0.00327580 2.98850264
v -0.33195973 -0.00327580 3.46350264
v 0.17368206 -0.48152212 2.98850264
v 0.17368206 -0.48152212 3.46350264
v 0.17201457 -0.00152501 2.98850264
v 0.17201457 -0.00152501 3.46350264
f 194 196 193
f 197 194 193
f 193 196 195
f 195 197 193
f 194 200 196
f 198 194 197
f 198 200 194
f 196 200 195
f 199 197 195
f 195 200 199
f 199 198 197
f 200 198 199

o geometry_25
v 0.19060698 -0.46653288 3.01886706
v 0.19060698 -0.46653288 3.49386706
v 0.19109297 0.01346688 3.01886706
v 0.19109297 0.01346688 3.49386706
v 0.72279017 -0.46707171 3.01886706
v 0.72279017 -0.46707171 3.49386706
v 0.72327617 0.01292805 3.01886706
v 0.72327617 0.01292805 3.49386706
f 202 204 201
f 205 202 201
f 201 204 203
f 203 205 201
f 202 208 204
f 206 202 205
f 206 208 202
f 204 208 203
f 207 205 203
f 203 208 207
f 207 206 205
f 208 206 207

o geometry_26
v 0.74275400 -0.47749321 3.02284751
v 0.74275400 -0.47749321 3.49784751
v 0.73932634 0.00249456 3.02284751
v 0.73932634 0.00249456 3.49784751
v 1.28104686 -0.47364918 3.02284751
v 1.28104686 -0.47364918 3.49784751
v 1.27761919 0.00633859 3.02284751
v 1.27761919 0.00633859 3.49784751
f 210 212 209
f 213 210 209
f 209 212 211
f 211 213 209
f 210 216 212
f 214 210 213
f 214 216 210
f 212 216 211
f 215 213 211
f 211 216 215
f 215 214 213
f 216 214 215

o geometry_27
v 1.30069745 -0.46994137 3.02130102
v 1.30069745 -0.46994137 3.49630102
v 1.29402607 0.01001226 3.02130102
v 1.29402607 0.01001226 3.49630102
v 1.75353743 -0.46364687 3.02130102
v 1.75353743 -0.46364687 3.49630102
v 1.74686604 0.01630677 3.02130102
v 1.74686604 0.01630677 3.49630102
f 218 220 217
f 221 218 217
f 217 220 219
f 219 221 217
f 218 224 220
f 222 218 221
f 222 224 218
f 220 224 219
f 223 221 219
f 219 224 223
f 223 222 221
f 224 222 223

o geometry_28
v 1.76692942 -0.47808446 3.01713359
v 1.76692942 -0.47808446 3.49213359
v 1.76952104 0.00190855 3.01713359
v 1.76952104 0.00190855 3.49213359
v 1.98970257 -0.47928727 3.01713359
v 1.98970257 -0.47928727 3.49213359
v 1.99229419 0.00070573 3.01713359
v 1.99229419 0.00070573 3.49213359
f 226 228 225
f 229 226 225
f 225 228 227
f 227 229 225
f 226 232 228
f 230 226 229
f 230 232 226
f 228 232 227
f 231 229 227
f 227 232 231
f 231 230 229
f 232 230 231

o geometry_29
v -0.64500000 -0.60000000 0.02000000
v -0.64500000 -0.60000000 2.23000000
v -0.64500000 -0.48000000 0.02000000
v -0.64500000 -0.48000000 2.23000000
v 0.64500000 -0.60000000 0.02000000
v 0.64500000 -0.60000000 2.23000000
v 0.64500000 -0.48000000 0.02000000
v 0.64500000 -0.48000000 2.23000000
f 234 236 233
f 237 234 233
f 233 236 235
f 235 237 233
f 234 240 236
f 238 234 237
f 238 240 234
f 236 240 235
f 239 237 235
f 235 240 239
f 239 238 237
f 240 238 239

o geometry_30
v -0.89500000 -0.64000000 0.00000000
v -0.89500000 -0.64000000 2.25000000
v -0.89500000 0.02000000 0.00000000
v -0.89500000 0.02000000 2.25000000
v -0.67500000 -0.64000000 0.00000000
v -0.67500000 -0.64000000 2.25000000
v -0.67500000 0.02000000 0.00000000
v -0.67500000 0.02000000 2.25000000
f 242 244 241
f 245 242 241
f 241 244 243
f 243 245 241
f 242 248 244
f 246 242 245
f 246 248 242
f 244 248 243
f 247 245 243
f 243 248 247
f 247 246 245
f 248 246 247

o geometry_31
v 0.67500000 -0.64000000 0.00000000
v 0.67500000 -0.64000000 2.25000000
v 0.67500000 0.02000000 0.00000000
v 0.67500000 0.02000000 2.25000000
v 0.89500000 -0.64000000 0.00000000
v 0.89500000 -0.64000000 2.25000000
v 0.89500000 0.02000000 0.00000000
v 0.89500000 0.02000000 2.25000000
f 250 252 249
f 253 250 249
f 249 252 251
f 251 253 249
f 250 256 252
f 254 250 253
f 254 256 250
f 252 256 251
f 255 253 251
f 251 256 255
f 255 254 253
f 256 254 255

o geometry_32
v -0.89500000 -0.64000000 2.15000000
v -0.89500000 -0.64000000 2.39000000
v -0.89500000 0.02000000 2.15000000
v -0.89500000 0.02000000 2.39000000
v 0.89500000 -0.64000000 2.15000000
v 0.89500000 -0.64000000 2.39000000
v 0.89500000 0.02000000 2.15000000
v 0.89500000 0.02000000 2.39000000
f 258 260 257
f 261 258 257
f 257 260 259
f 259 261 257
f 258 264 260
f 262 258 261
f 262 264 258
f 260 264 259
f 263 261 259
f 259 264 263
f 263 262 261
f 264 262 263

o geometry_33
v -1.65000000 -0.32000000 0.10000000
v -1.42000000 -0.32000000 0.10000000
v -1.42000000 -0.32000000 3.35000000
v -1.65000000 -0.32000000 3.35000000
v -1.42783706 -0.26047162 0.10000000
v -1.42783706 -0.26047162 3.35000000
v -1.45081416 -0.20500000 0.10000000
v -1.45081416 -0.20500000 3.35000000
v -1.48736544 -0.15736544 0.10000000
v -1.48736544 -0.15736544 3.35000000
v -1.53500000 -0.12081416 0.10000000
v -1.53500000 -0.12081416 3.35000000
v -1.59047162 -0.09783706 0.10000000
v -1.59047162 -0.09783706 3.35000000
v -1.65000000 -0.09000000 0.10000000
v -1.65000000 -0.09000000 3.35000000
v -1.70952838 -0.09783706 0.10000000
v -1.70952838 -0.09783706 3.35000000
v -1.76500000 -0.12081416 0.10000000
v -1.76500000 -0.12081416 3.35000000
v -1.81263456 -0.15736544 0.10000000
v -1.81263456 -0.15736544 3.35000000
v -1.84918584 -0.20500000 0.10000000
v -1.84918584 -0.20500000 3.35000000
v -1.87216294 -0.26047162 0.10000000
v -1.87216294 -0.26047162 3.35000000
v -1.88000000 -0.32000000 0.10000000
v -1.88000000 -0.32000000 3.35000000
v -1.87216294 -0.37952838 0.10000000
v -1.87216294 -0.37952838 3.35000000
v -1.84918584 -0.43500000 0.10000000
v -1.84918584 -0.43500000 3.35000000
v -1.81263456 -0.48263456 0.10000000
v -1.81263456 -0.48263456 3.35000000
v -1.76500000 -0.51918584 0.10000000
v -1.76500000 -0.51918584 3.35000000
v -1.70952838 -0.54216294 0.10000000
v -1.70952838 -0.54216294 3.35000000
v -1.65000000 -0.55000000 0.10000000
v -1.65000000 -0.55000000 3.35000000
v -1.59047162 -0.54216294 0.10000000
v -1.59047162 -0.54216294 3.35000000
v -1.53500000 -0.51918584 0.10000000
v -1.53500000 -0.51918584 3.35000000
v -1.48736544 -0.48263456 0.10000000
v -1.48736544 -0.48263456 3.35000000
v -1.45081416 -0.43500000 0.10000000
v -1.45081416 -0.43500000 3.35000000
v -1.42783706 -0.37952838 0.10000000
v -1.42783706 -0.37952838 3.35000000
f 266 265 269
f 266 269 267
f 267 269 270
f 267 270 268
f 269 265 271
f 269 271 270
f 270 271 272
f 270 272 268
f 271 265 273
f 271 273 272
f 272 273 274
f 272 274 268
f 273 265 275
f 273 275 274
f 274 275 276
f 274 276 268
f 275 265 277
f 275 277 276
f 276 277 278
f 276 278 268
f 277 265 279
f 277 279 278
f 278 279 280
f 278 280 268
f 279 265 281
f 279 281 280
f 280 281 282
f 280 282 268
f 281 265 283
f 281 283 282
f 282 283 284
f 282 284 268
f 283 265 285
f 283 285 284
f 284 285 286
f 284 286 268
f 285 265 287
f 285 287 286
f 286 287 288
f 286 288 268
f 287 265 289
f 287 289 288
f 288 289 290
f 288 290 268
f 289 265 291
f 289 291 290
f 290 291 292
f 290 292 268
f 291 265 293
f 291 293 292
f 292 293 294
f 292 294 268
f 293 265 295
f 293 295 294
f 294 295 296
f 294 296 268
f 295 265 297
f 295 297 296
f 296 297 298
f 296 298 268
f 297 265 299
f 297 299 298
f 298 299 300
f 298 300 268
f 299 265 301
f 299 301 300
f 300 301 302
f 300 302 268
f 301 265 303
f 301 303 302
f 302 303 304
f 302 304 268
f 303 265 305
f 303 305 304
f 304 305 306
f 304 306 268
f 305 265 307
f 305 307 306
f 306 307 308
f 306 308 268
f 307 265 309
f 307 309 308
f 308 309 310
f 308 310 268
f 309 265 311
f 309 311 310
f 310 311 312
f 310 312 268
f 311 265 313
f 311 313 312
f 312 313 314
f 312 314 268
f 313 265 266
f 313 266 314
f 314 266 267
f 314 267 268

o geometry_34
v -1.65000000 -0.32000000 0.10000000
v -1.35560000 -0.32000000 0.10000000
v -1.35560000 -0.32000000 0.26000000
v -1.65000000 -0.32000000 0.26000000
v -1.36563144 -0.24380367 0.10000000
v -1.36563144 -0.24380367 0.26000000
v -1.39504212 -0.17280000 0.10000000
v -1.39504212 -0.17280000 0.26000000
v -1.44182776 -0.11182776 0.10000000
v -1.44182776 -0.11182776 0.26000000
v -1.50280000 -0.06504212 0.10000000
v -1.50280000 -0.06504212 0.26000000
v -1.57380367 -0.03563144 0.10000000
v -1.57380367 -0.03563144 0.26000000
v -1.65000000 -0.02560000 0.10000000
v -1.65000000 -0.02560000 0.26000000
v -1.72619633 -0.03563144 0.10000000
v -1.72619633 -0.03563144 0.26000000
v -1.79720000 -0.06504212 0.10000000
v -1.79720000 -0.06504212 0.26000000
v -1.85817224 -0.11182776 0.10000000
v -1.85817224 -0.11182776 0.26000000
v -1.90495788 -0.17280000 0.10000000
v -1.90495788 -0.17280000 0.26000000
v -1.93436856 -0.24380367 0.10000000
v -1.93436856 -0.24380367 0.26000000
v -1.94440000 -0.32000000 0.10000000
v -1.94440000 -0.32000000 0.26000000
v -1.93436856 -0.39619633 0.10000000
v -1.93436856 -0.39619633 0.26000000
v -1.90495788 -0.46720000 0.10000000
v -1.90495788 -0.46720000 0.26000000
v -1.85817224 -0.52817224 0.10000000
v -1.85817224 -0.52817224 0.26000000
v -1.79720000 -0.57495788 0.10000000
v -1.79720000 -0.57495788 0.26000000
v -1.72619633 -0.60436856 0.10000000
v -1.72619633 -0.60436856 0.26000000
v -1.65000000 -0.61440000 0.10000000
v -1.65000000 -0.61440000 0.26000000
v -1.57380367 -0.60436856 0.10000000
v -1.57380367 -0.60436856 0.26000000
v -1.50280000 -0.57495788 0.10000000
v -1.50280000 -0.57495788 0.26000000
v -1.44182776 -0.52817224 0.10000000
v -1.44182776 -0.52817224 0.26000000
v -1.39504212 -0.46720000 0.10000000
v -1.39504212 -0.46720000 0.26000000
v -1.36563144 -0.39619633 0.10000000
v -1.36563144 -0.39619633 0.26000000
f 316 315 319
f 316 319 317
f 317 319 320
f 317 320 318
f 319 315 321
f 319 321 320
f 320 321 322
f 320 322 318
f 321 315 323
f 321 323 322
f 322 323 324
f 322 324 318
f 323 315 325
f 323 325 324
f 324 325 326
f 324 326 318
f 325 315 327
f 325 327 326
f 326 327 328
f 326 328 318
f 327 315 329
f 327 329 328
f 328 329 330
f 328 330 318
f 329 315 331
f 329 331 330
f 330 331 332
f 330 332 318
f 331 315 333
f 331 333 332
f 332 333 334
f 332 334 318
f 333 315 335
f 333 335 334
f 334 335 336
f 334 336 318
f 335 315 337
f 335 337 336
f 336 337 338
f 336 338 318
f 337 315 339
f 337 339 338
f 338 339 340
f 338 340 318
f 339 315 341
f 339 341 340
f 340 341 342
f 340 342 318
f 341 315 343
f 341 343 342
f 342 343 344
f 342 344 318
f 343 315 345
f 343 345 344
f 344 345 346
f 344 346 318
f 345 315 347
f 345 347 346
f 346 347 348
f 346 348 318
f 347 315 349
f 347 349 348
f 348 349 350
f 348 350 318
f 349 315 351
f 349 351 350
f 350 351 352
f 350 352 318
f 351 315 353
f 351 353 352
f 352 353 354
f 352 354 318
f 353 315 355
f 353 355 354
f 354 355 356
f 354 356 318
f 355 315 357
f 355 357 356
f 356 357 358
f 356 358 318
f 357 315 359
f 357 359 358
f 358 359 360
f 358 360 318
f 359 315 361
f 359 361 360
f 360 361 362
f 360 362 318
f 361 315 363
f 361 363 362
f 362 363 364
f 362 364 318
f 363 315 316
f 363 316 364
f 364 316 317
f 364 317 318

o geometry_35
v -1.65000000 -0.32000000 3.18000000
v -1.36940000 -0.32000000 3.18000000
v -1.36940000 -0.32000000 3.36000000
v -1.65000000 -0.32000000 3.36000000
v -1.37896121 -0.24737538 3.18000000
v -1.37896121 -0.24737538 3.36000000
v -1.40699327 -0.17970000 3.18000000
v -1.40699327 -0.17970000 3.36000000
v -1.45158584 -0.12158584 3.18000000
v -1.45158584 -0.12158584 3.36000000
v -1.50970000 -0.07699327 3.18000000
v -1.50970000 -0.07699327 3.36000000
v -1.57737538 -0.04896121 3.18000000
v -1.57737538 -0.04896121 3.36000000
v -1.65000000 -0.03940000 3.18000000
v -1.65000000 -0.03940000 3.36000000
v -1.72262462 -0.04896121 3.18000000
v -1.72262462 -0.04896121 3.36000000
v -1.79030000 -0.07699327 3.18000000
v -1.79030000 -0.07699327 3.36000000
v -1.84841416 -0.12158584 3.18000000
v -1.84841416 -0.12158584 3.36000000
v -1.89300673 -0.17970000 3.18000000
v -1.89300673 -0.17970000 3.36000000
v -1.92103879 -0.24737538 3.18000000
v -1.92103879 -0.24737538 3.36000000
v -1.93060000 -0.32000000 3.18000000
v -1.93060000 -0.32000000 3.36000000
v -1.92103879 -0.39262462 3.18000000
v -1.92103879 -0.39262462 3.36000000
v -1.89300673 -0.46030000 3.18000000
v -1.89300673 -0.46030000 3.36000000
v -1.84841416 -0.51841416 3.18000000
v -1.84841416 -0.51841416 3.36000000
v -1.79030000 -0.56300673 3.18000000
v -1.79030000 -0.56300673 3.36000000
v -1.72262462 -0.59103879 3.18000000
v -1.72262462 -0.59103879 3.36000000
v -1.65000000 -0.60060000 3.18000000
v -1.65000000 -0.60060000 3.36000000
v -1.57737538 -0.59103879 3.18000000
v -1.57737538 -0.59103879 3.36000000
v -1.50970000 -0.56300673 3.18000000
v -1.50970000 -0.56300673 3.36000000
v -1.45158584 -0.51841416 3.18000000
v -1.45158584 -0.51841416 3.36000000
v -1.40699327 -0.46030000 3.18000000
v -1.40699327 -0.46030000 3.36000000
v -1.37896121 -0.39262462 3.18000000
v -1.37896121 -0.39262462 3.36000000
f 366 365 369
f 366 369 367
f 367 369 370
f 367 370 368
f 369 365 371
f 369 371 370
f 370 371 372
f 370 372 368
f 371 365 373
f 371 373 372
f 372 373 374
f 372 374 368
f 373 365 375
f 373 375 374
f 374 375 376
f 374 376 368
f 375 365 377
f 375 377 376
f 376 377 378
f 376 378 368
f 377 365 379
f 377 379 378
f 378 379 380
f 378 380 368
f 379 365 381
f 379 381 380
f 380 381 382
f 380 382 368
f 381 365 383
f 381 383 382
f 382 383 384
f 382 384 368
f 383 365 385
f 383 385 384
f 384 385 386
f 384 386 368
f 385 365 387
f 385 387 386
f 386 387 388
f 386 388 368
f 387 365 389
f 387 389 388
f 388 389 390
f 388 390 368
f 389 365 391
f 389 391 390
f 390 391 392
f 390 392 368
f 391 365 393
f 391 393 392
f 392 393 394
f 392 394 368
f 393 365 395
f 393 395 394
f 394 395 396
f 394 396 368
f 395 365 397
f 395 397 396
f 396 397 398
f 396 398 368
f 397 365 399
f 397 399 398
f 398 399 400
f 398 400 368
f 399 365 401
f 399 401 400
f 400 401 402
f 400 402 368
f 401 365 403
f 401 403 402
f 402 403 404
f 402 404 368
f 403 365 405
f 403 405 404
f 404 405 406
f 404 406 368
f 405 365 407
f 405 407 406
f 406 407 408
f 406 408 368
f 407 365 409
f 407 409 408
f 408 409 410
f 408 410 368
f 409 365 411
f 409 411 410
f 410 411 412
f 410 412 368
f 411 365 413
f 411 413 412
f 412 413 414
f 412 414 368
f 413 365 366
f 413 366 414
f 414 366 367
f 414 367 368

o geometry_36
v -1.93750000 -0.67000000 3.11000000
v -1.93750000 -0.67000000 3.27000000
v -1.93750000 0.03000000 3.11000000
v -1.93750000 0.03000000 3.27000000
v -1.36250000 -0.67000000 3.11000000
v -1.36250000 -0.67000000 3.27000000
v -1.36250000 0.03000000 3.11000000
v -1.36250000 0.03000000 3.27000000
f 416 418 415
f 419 416 415
f 415 418 417
f 417 419 415
f 416 422 418
f 420 416 419
f 420 422 416
f 418 422 417
f 421 419 417
f 417 422 421
f 421 420 419
f 422 420 421

o geometry_37
v 1.65000000 -0.32000000 0.10000000
v 1.88000000 -0.32000000 0.10000000
v 1.88000000 -0.32000000 3.35000000
v 1.65000000 -0.32000000 3.35000000
v 1.87216294 -0.26047162 0.10000000
v 1.87216294 -0.26047162 3.35000000
v 1.84918584 -0.20500000 0.10000000
v 1.84918584 -0.20500000 3.35000000
v 1.81263456 -0.15736544 0.10000000
v 1.81263456 -0.15736544 3.35000000
v 1.76500000 -0.12081416 0.10000000
v 1.76500000 -0.12081416 3.35000000
v 1.70952838 -0.09783706 0.10000000
v 1.70952838 -0.09783706 3.35000000
v 1.65000000 -0.09000000 0.10000000
v 1.65000000 -0.09000000 3.35000000
v 1.59047162 -0.09783706 0.10000000
v 1.59047162 -0.09783706 3.35000000
v 1.53500000 -0.12081416 0.10000000
v 1.53500000 -0.12081416 3.35000000
v 1.48736544 -0.15736544 0.10000000
v 1.48736544 -0.15736544 3.35000000
v 1.45081416 -0.20500000 0.10000000
v 1.45081416 -0.20500000 3.35000000
v 1.42783706 -0.26047162 0.10000000
v 1.42783706 -0.26047162 3.35000000
v 1.42000000 -0.32000000 0.10000000
v 1.42000000 -0.32000000 3.35000000
v 1.42783706 -0.37952838 0.10000000
v 1.42783706 -0.37952838 3.35000000
v 1.45081416 -0.43500000 0.10000000
v 1.45081416 -0.43500000 3.35000000
v 1.48736544 -0.48263456 0.10000000
v 1.48736544 -0.48263456 3.35000000
v 1.53500000 -0.51918584 0.10000000
v 1.53500000 -0.51918584 3.35000000
v 1.59047162 -0.54216294 0.10000000
v 1.59047162 -0.54216294 3.35000000
v 1.65000000 -0.55000000 0.10000000
v 1.65000000 -0.55000000 3.35000000
v 1.70952838 -0.54216294 0.10000000
v 1.70952838 -0.54216294 3.35000000
v 1.76500000 -0.51918584 0.10000000
v 1.76500000 -0.51918584 3.35000000
v 1.81263456 -0.48263456 0.10000000
v 1.81263456 -0.48263456 3.35000000
v 1.84918584 -0.43500000 0.10000000
v 1.84918584 -0.43500000 3.35000000
v 1.87216294 -0.37952838 0.10000000
v 1.87216294 -0.37952838 3.35000000
f 424 423 427
f 424 427 425
f 425 427 428
f 425 428 426
f 427 423 429
f 427 429 428
f 428 429 430
f 428 430 426
f 429 423 431
f 429 431 430
f 430 431 432
f 430 432 426
f 431 423 433
f 431 433 432
f 432 433 434
f 432 434 426
f 433 423 435
f 433 435 434
f 434 435 436
f 434 436 426
f 435 423 437
f 435 437 436
f 436 437 438
f 436 438 426
f 437 423 439
f 437 439 438
f 438 439 440
f 438 440 426
f 439 423 441
f 439 441 440
f 440 441 442
f 440 442 426
f 441 423 443
f 441 443 442
f 442 443 444
f 442 444 426
f 443 423 445
f 443 445 444
f 444 445 446
f 444 446 426
f 445 423 447
f 445 447 446
f 446 447 448
f 446 448 426
f 447 423 449
f 447 449 448
f 448 449 450
f 448 450 426
f 449 423 451
f 449 451 450
f 450 451 452
f 450 452 426
f 451 423 453
f 451 453 452
f 452 453 454
f 452 454 426
f 453 423 455
f 453 455 454
f 454 455 456
f 454 456 426
f 455 423 457
f 455 457 456
f 456 457 458
f 456 458 426
f 457 423 459
f 457 459 458
f 458 459 460
f 458 460 426
f 459 423 461
f 459 461 460
f 460 461 462
f 460 462 426
f 461 423 463
f 461 463 462
f 462 463 464
f 462 464 426
f 463 423 465
f 463 465 464
f 464 465 466
f 464 466 426
f 465 423 467
f 465 467 466
f 466 467 468
f 466 468 426
f 467 423 469
f 467 469 468
f 468 469 470
f 468 470 426
f 469 423 471
f 469 471 470
f 470 471 472
f 470 472 426
f 471 423 424
f 471 424 472
f 472 424 425
f 472 425 426

o geometry_38
v 1.65000000 -0.32000000 0.10000000
v 1.94440000 -0.32000000 0.10000000
v 1.94440000 -0.32000000 0.26000000
v 1.65000000 -0.32000000 0.26000000
v 1.93436856 -0.24380367 0.10000000
v 1.93436856 -0.24380367 0.26000000
v 1.90495788 -0.17280000 0.10000000
v 1.90495788 -0.17280000 0.26000000
v 1.85817224 -0.11182776 0.10000000
v 1.85817224 -0.11182776 0.26000000
v 1.79720000 -0.06504212 0.10000000
v 1.79720000 -0.06504212 0.26000000
v 1.72619633 -0.03563144 0.10000000
v 1.72619633 -0.03563144 0.26000000
v 1.65000000 -0.02560000 0.10000000
v 1.65000000 -0.02560000 0.26000000
v 1.57380367 -0.03563144 0.10000000
v 1.57380367 -0.03563144 0.26000000
v 1.50280000 -0.06504212 0.10000000
v 1.50280000 -0.06504212 0.26000000
v 1.44182776 -0.11182776 0.10000000
v 1.44182776 -0.11182776 0.26000000
v 1.39504212 -0.17280000 0.10000000
v 1.39504212 -0.17280000 0.26000000
v 1.36563144 -0.24380367 0.10000000
v 1.36563144 -0.24380367 0.26000000
v 1.35560000 -0.32000000 0.10000000
v 1.35560000 -0.32000000 0.26000000
v 1.36563144 -0.39619633 0.10000000
v 1.36563144 -0.39619633 0.26000000
v 1.39504212 -0.46720000 0.10000000
v 1.39504212 -0.46720000 0.26000000
v 1.44182776 -0.52817224 0.10000000
v 1.44182776 -0.52817224 0.26000000
v 1.50280000 -0.57495788 0.10000000
v 1.50280000 -0.57495788 0.26000000
v 1.57380367 -0.60436856 0.10000000
v 1.57380367 -0.60436856 0.26000000
v 1.65000000 -0.61440000 0.10000000
v 1.65000000 -0.61440000 0.26000000
v 1.72619633 -0.60436856 0.10000000
v 1.72619633 -0.60436856 0.26000000
v 1.79720000 -0.57495788 0.10000000
v 1.79720000 -0.57495788 0.26000000
v 1.85817224 -0.52817224 0.10000000
v 1.85817224 -0.52817224 0.26000000
v 1.90495788 -0.46720000 0.10000000
v 1.90495788 -0.46720000 0.26000000
v 1.93436856 -0.39619633 0.10000000
v 1.93436856 -0.39619633 0.26000000
f 474 473 477
f 474 477 475
f 475 477 478
f 475 478 476
f 477 473 479
f 477 479 478
f 478 479 480
f 478 480 476
f 479 473 481
f 479 481 480
f 480 481 482
f 480 482 476
f 481 473 483
f 481 483 482
f 482 483 484
f 482 484 476
f 483 473 485
f 483 485 484
f 484 485 486
f 484 486 476
f 485 473 487
f 485 487 486
f 486 487 488
f 486 488 476
f 487 473 489
f 487 489 488
f 488 489 490
f 488 490 476
f 489 473 491
f 489 491 490
f 490 491 492
f 490 492 476
f 491 473 493
f 491 493 492
f 492 493 494
f 492 494 476
f 493 473 495
f 493 495 494
f 494 495 496
f 494 496 476
f 495 473 497
f 495 497 496
f 496 497 498
f 496 498 476
f 497 473 499
f 497 499 498
f 498 499 500
f 498 500 476
f 499 473 501
f 499 501 500
f 500 501 502
f 500 502 476
f 501 473 503
f 501 503 502
f 502 503 504
f 502 504 476
f 503 473 505
f 503 505 504
f 504 505 506
f 504 506 476
f 505 473 507
f 505 507 506
f 506 507 508
f 506 508 476
f 507 473 509
f 507 509 508
f 508 509 510
f 508 510 476
f 509 473 511
f 509 511 510
f 510 511 512
f 510 512 476
f 511 473 513
f 511 513 512
f 512 513 514
f 512 514 476
f 513 473 515
f 513 515 514
f 514 515 516
f 514 516 476
f 515 473 517
f 515 517 516
f 516 517 518
f 516 518 476
f 517 473 519
f 517 519 518
f 518 519 520
f 518 520 476
f 519 473 521
f 519 521 520
f 520 521 522
f 520 522 476
f 521 473 474
f 521 474 522
f 522 474 475
f 522 475 476

o geometry_39
v 1.65000000 -0.32000000 3.18000000
v 1.93060000 -0.32000000 3.18000000
v 1.93060000 -0.32000000 3.36000000
v 1.65000000 -0.32000000 3.36000000
v 1.92103879 -0.24737538 3.18000000
v 1.92103879 -0.24737538 3.36000000
v 1.89300673 -0.17970000 3.18000000
v 1.89300673 -0.17970000 3.36000000
v 1.84841416 -0.12158584 3.18000000
v 1.84841416 -0.12158584 3.36000000
v 1.79030000 -0.07699327 3.18000000
v 1.79030000 -0.07699327 3.36000000
v 1.72262462 -0.04896121 3.18000000
v 1.72262462 -0.04896121 3.36000000
v 1.65000000 -0.03940000 3.18000000
v 1.65000000 -0.03940000 3.36000000
v 1.57737538 -0.04896121 3.18000000
v 1.57737538 -0.04896121 3.36000000
v 1.50970000 -0.07699327 3.18000000
v 1.50970000 -0.07699327 3.36000000
v 1.45158584 -0.12158584 3.18000000
v 1.45158584 -0.12158584 3.36000000
v 1.40699327 -0.17970000 3.18000000
v 1.40699327 -0.17970000 3.36000000
v 1.37896121 -0.24737538 3.18000000
v 1.37896121 -0.24737538 3.36000000
v 1.36940000 -0.32000000 3.18000000
v 1.36940000 -0.32000000 3.36000000
v 1.37896121 -0.39262462 3.18000000
v 1.37896121 -0.39262462 3.36000000
v 1.40699327 -0.46030000 3.18000000
v 1.40699327 -0.46030000 3.36000000
v 1.45158584 -0.51841416 3.18000000
v 1.45158584 -0.51841416 3.36000000
v 1.50970000 -0.56300673 3.18000000
v 1.50970000 -0.56300673 3.36000000
v 1.57737538 -0.59103879 3.18000000
v 1.57737538 -0.59103879 3.36000000
v 1.65000000 -0.60060000 3.18000000
v 1.65000000 -0.60060000 3.36000000
v 1.72262462 -0.59103879 3.18000000
v 1.72262462 -0.59103879 3.36000000
v 1.79030000 -0.56300673 3.18000000
v 1.79030000 -0.56300673 3.36000000
v 1.84841416 -0.51841416 3.18000000
v 1.84841416 -0.51841416 3.36000000
v 1.89300673 -0.46030000 3.18000000
v 1.89300673 -0.46030000 3.36000000
v 1.92103879 -0.39262462 3.18000000
v 1.92103879 -0.39262462 3.36000000
f 524 523 527
f 524 527 525
f 525 527 528
f 525 528 526
f 527 523 529
f 527 529 528
f 528 529 530
f 528 530 526
f 529 523 531
f 529 531 530
f 530 531 532
f 530 532 526
f 531 523 533
f 531 533 532
f 532 533 534
f 532 534 526
f 533 523 535
f 533 535 534
f 534 535 536
f 534 536 526
f 535 523 537
f 535 537 536
f 536 537 538
f 536 538 526
f 537 523 539
f 537 539 538
f 538 539 540
f 538 540 526
f 539 523 541
f 539 541 540
f 540 541 542
f 540 542 526
f 541 523 543
f 541 543 542
f 542 543 544
f 542 544 526
f 543 523 545
f 543 545 544
f 544 545 546
f 544 546 526
f 545 523 547
f 545 547 546
f 546 547 548
f 546 548 526
f 547 523 549
f 547 549 548
f 548 549 550
f 548 550 526
f 549 523 551
f 549 551 550
f 550 551 552
f 550 552 526
f 551 523 553
f 551 553 552
f 552 553 554
f 552 554 526
f 553 523 555
f 553 555 554
f 554 555 556
f 554 556 526
f 555 523 557
f 555 557 556
f 556 557 558
f 556 558 526
f 557 523 559
f 557 559 558
f 558 559 560
f 558 560 526
f 559 523 561
f 559 561 560
f 560 561 562
f 560 562 526
f 561 523 563
f 561 563 562
f 562 563 564
f 562 564 526
f 563 523 565
f 563 565 564
f 564 565 566
f 564 566 526
f 565 523 567
f 565 567 566
f 566 567 568
f 566 568 526
f 567 523 569
f 567 569 568
f 568 569 570
f 568 570 526
f 569 523 571
f 569 571 570
f 570 571 572
f 570 572 526
f 571 523 524
f 571 524 572
f 572 524 525
f 572 525 526

o geometry_40
v 1.36250000 -0.67000000 3.11000000
v 1.36250000 -0.67000000 3.27000000
v 1.36250000 0.03000000 3.11000000
v 1.36250000 0.03000000 3.27000000
v 1.93750000 -0.67000000 3.11000000
v 1.93750000 -0.67000000 3.27000000
v 1.93750000 0.03000000 3.11000000
v 1.93750000 0.03000000 3.27000000
f 574 576 573
f 577 574 573
f 573 576 575
f 575 577 573
f 574 580 576
f 578 574 577
f 578 580 574
f 576 580 575
f 579 577 575
f 575 580 579
f 579 578 577
f 580 578 579

o geometry_41
v -1.99000000 -0.66000000 2.63000000
v -1.99000000 -0.66000000 2.81000000
v -1.99000000 -0.58000000 2.63000000
v -1.99000000 -0.58000000 2.81000000
v -1.57000000 -0.66000000 2.63000000
v -1.57000000 -0.66000000 2.81000000
v -1.57000000 -0.58000000 2.63000000
v -1.57000000 -0.58000000 2.81000000
f 582 584 581
f 585 582 581
f 581 584 583
f 583 585 581
f 582 588 584
f 586 582 585
f 586 588 582
f 584 588 583
f 587 585 583
f 583 588 587
f 587 586 585
f 588 586 587

o geometry_42
v -1.89550000 -0.73000000 2.76000000
v -1.89550000 -0.73000000 2.84000000
v -1.89550000 -0.63000000 2.76000000
v -1.89550000 -0.63000000 2.84000000
v -1.66450000 -0.73000000 2.76000000
v -1.66450000 -0.73000000 2.84000000
v -1.66450000 -0.63000000 2.76000000
v -1.66450000 -0.63000000 2.84000000
f 590 592 589
f 593 590 589
f 589 592 591
f 591 593 589
f 590 596 592
f 594 590 593
f 594 596 590
f 592 596 591
f 595 593 591
f 591 596 595
f 595 594 593
f 596 594 595

o geometry_43
v -1.57000000 -0.66000000 2.63000000
v -1.57000000 -0.66000000 2.81000000
v -1.57000000 -0.58000000 2.63000000
v -1.57000000 -0.58000000 2.81000000
v -1.15000000 -0.66000000 2.63000000
v -1.15000000 -0.66000000 2.81000000
v -1.15000000 -0.58000000 2.63000000
v -1.15000000 -0.58000000 2.81000000
f 598 600 597
f 601 598 597
f 597 600 599
f 599 601 597
f 598 604 600
f 602 598 601
f 602 604 598
f 600 604 599
f 603 601 599
f 599 604 603
f 603 602 601
f 604 602 603

o geometry_44
v -1.47550000 -0.73000000 2.60000000
v -1.47550000 -0.73000000 2.68000000
v -1.47550000 -0.63000000 2.60000000
v -1.47550000 -0.63000000 2.68000000
v -1.24450000 -0.73000000 2.60000000
v -1.24450000 -0.73000000 2.68000000
v -1.24450000 -0.63000000 2.60000000
v -1.24450000 -0.63000000 2.68000000
f 606 608 605
f 609 606 605
f 605 608 607
f 607 609 605
f 606 612 608
f 610 606 609
f 610 612 606
f 608 612 607
f 611 609 607
f 607 612 611
f 611 610 609
f 612 610 611

o geometry_45
v -1.15000000 -0.66000000 2.63000000
v -1.15000000 -0.66000000 2.81000000
v -1.15000000 -0.58000000 2.63000000
v -1.15000000 -0.58000000 2.81000000
v -0.73000000 -0.66000000 2.63000000
v -0.73000000 -0.66000000 2.81000000
v -0.73000000 -0.58000000 2.63000000
v -0.73000000 -0.58000000 2.81000000
f 614 616 613
f 617 614 613
f 613 616 615
f 615 617 613
f 614 620 616
f 618 614 617
f 618 620 614
f 616 620 615
f 619 617 615
f 615 620 619
f 619 618 617
f 620 618 619

o geometry_46
v -1.05550000 -0.73000000 2.76000000
v -1.05550000 -0.73000000 2.84000000
v -1.05550000 -0.63000000 2.76000000
v -1.05550000 -0.63000000 2.84000000
v -0.82450000 -0.73000000 2.76000000
v -0.82450000 -0.73000000 2.84000000
v -0.82450000 -0.63000000 2.76000000
v -0.82450000 -0.63000000 2.84000000
f 622 624 621
f 625 622 621
f 621 624 623
f 623 625 621
f 622 628 624
f 626 622 625
f 626 628 622
f 624 628 623
f 627 625 623
f 623 628 627
f 627 626 625
f 628 626 627

o geometry_47
v -0.73000000 -0.66000000 2.63000000
v -0.73000000 -0.66000000 2.81000000
v -0.73000000 -0.58000000 2.63000000
v -0.73000000 -0.58000000 2.81000000
v -0.31000000 -0.66000000 2.63000000
v -0.31000000 -0.66000000 2.81000000
v -0.31000000 -0.58000000 2.63000000
v -0.31000000 -0.58000000 2.81000000
f 630 632 629
f 633 630 629
f 629 632 631
f 631 633 629
f 630 636 632
f 634 630 633
f 634 636 630
f 632 636 631
f 635 633 631
f 631 636 635
f 635 634 633
f 636 634 635

o geometry_48
v -0.63550000 -0.73000000 2.60000000
v -0.63550000 -0.73000000 2.68000000
v -0.63550000 -0.63000000 2.60000000
v -0.63550000 -0.63000000 2.68000000
v -0.40450000 -0.73000000 2.60000000
v -0.40450000 -0.73000000 2.68000000
v -0.40450000 -0.63000000 2.60000000
v -0.40450000 -0.63000000 2.68000000
f 638 640 637
f 641 638 637
f 637 640 639
f 639 641 637
f 638 644 640
f 642 638 641
f 642 644 638
f 640 644 639
f 643 641 639
f 639 644 643
f 643 642 641
f 644 642 643

o geometry_49
v -0.31000000 -0.66000000 2.63000000
v -0.31000000 -0.66000000 2.81000000
v -0.31000000 -0.58000000 2.63000000
v -0.31000000 -0.58000000 2.81000000
v 0.11000000 -0.66000000 2.63000000
v 0.11000000 -0.66000000 2.81000000
v 0.11000000 -0.58000000 2.63000000
v 0.11000000 -0.58000000 2.81000000
f 646 648 645
f 649 646 645
f 645 648 647
f 647 649 645
f 646 652 648
f 650 646 649
f 650 652 646
f 648 652 647
f 651 649 647
f 647 652 651
f 651 650 649
f 652 650 651

o geometry_50
v -0.21550000 -0.73000000 2.76000000
v -0.21550000 -0.73000000 2.84000000
v -0.21550000 -0.63000000 2.76000000
v -0.21550000 -0.63000000 2.84000000
v 0.01550000 -0.73000000 2.76000000
v 0.01550000 -0.73000000 2.84000000
v 0.01550000 -0.63000000 2.76000000
v 0.01550000 -0.63000000 2.84000000
f 654 656 653
f 657 654 653
f 653 656 655
f 655 657 653
f 654 660 656
f 658 654 657
f 658 660 654
f 656 660 655
f 659 657 655
f 655 660 659
f 659 658 657
f 660 658 659

o geometry_51
v 0.11000000 -0.66000000 2.63000000
v 0.11000000 -0.66000000 2.81000000
v 0.11000000 -0.58000000 2.63000000
v 0.11000000 -0.58000000 2.81000000
v 0.53000000 -0.66000000 2.63000000
v 0.53000000 -0.66000000 2.81000000
v 0.53000000 -0.58000000 2.63000000
v 0.53000000 -0.58000000 2.81000000
f 662 664 661
f 665 662 661
f 661 664 663
f 663 665 661
f 662 668 664
f 666 662 665
f 666 668 662
f 664 668 663
f 667 665 663
f 663 668 667
f 667 666 665
f 668 666 667

o geometry_52
v 0.20450000 -0.73000000 2.60000000
v 0.20450000 -0.73000000 2.68000000
v 0.20450000 -0.63000000 2.60000000
v 0.20450000 -0.63000000 2.68000000
v 0.43550000 -0.73000000 2.60000000
v 0.43550000 -0.73000000 2.68000000
v 0.43550000 -0.63000000 2.60000000
v 0.43550000 -0.63000000 2.68000000
f 670 672 669
f 673 670 669
f 669 672 671
f 671 673 669
f 670 676 672
f 674 670 673
f 674 676 670
f 672 676 671
f 675 673 671
f 671 676 675
f 675 674 673
f 676 674 675

o geometry_53
v 0.53000000 -0.66000000 2.63000000
v 0.53000000 -0.66000000 2.81000000
v 0.53000000 -0.58000000 2.63000000
v 0.53000000 -0.58000000 2.81000000
v 0.95000000 -0.66000000 2.63000000
v 0.95000000 -0.66000000 2.81000000
v 0.95000000 -0.58000000 2.63000000
v 0.95000000 -0.58000000 2.81000000
f 678 680 677
f 681 678 677
f 677 680 679
f 679 681 677
f 678 684 680
f 682 678 681
f 682 684 678
f 680 684 679
f 683 681 679
f 679 684 683
f 683 682 681
f 684 682 683

o geometry_54
v 0.62450000 -0.73000000 2.76000000
v 0.62450000 -0.73000000 2.84000000
v 0.62450000 -0.63000000 2.76000000
v 0.62450000 -0.63000000 2.84000000
v 0.85550000 -0.73000000 2.76000000
v 0.85550000 -0.73000000 2.84000000
v 0.85550000 -0.63000000 2.76000000
v 0.85550000 -0.63000000 2.84000000
f 686 688 685
f 689 686 685
f 685 688 687
f 687 689 685
f 686 692 688
f 690 686 689
f 690 692 686
f 688 692 687
f 691 689 687
f 687 692 691
f 691 690 689
f 692 690 691

o geometry_55
v 0.95000000 -0.66000000 2.63000000
v 0.95000000 -0.66000000 2.81000000
v 0.95000000 -0.58000000 2.63000000
v 0.95000000 -0.58000000 2.81000000
v 1.37000000 -0.66000000 2.63000000
v 1.37000000 -0.66000000 2.81000000
v 1.37000000 -0.58000000 2.63000000
v 1.37000000 -0.58000000 2.81000000
f 694 696 693
f 697 694 693
f 693 696 695
f 695 697 693
f 694 700 696
f 698 694 697
f 698 700 694
f 696 700 695
f 699 697 695
f 695 700 699
f 699 698 697
f 700 698 699

o geometry_56
v 1.04450000 -0.73000000 2.60000000
v 1.04450000 -0.73000000 2.68000000
v 1.04450000 -0.63000000 2.60000000
v 1.04450000 -0.63000000 2.68000000
v 1.27550000 -0.73000000 2.60000000
v 1.27550000 -0.73000000 2.68000000
v 1.27550000 -0.63000000 2.60000000
v 1.27550000 -0.63000000 2.68000000
f 702 704 701
f 705 702 701
f 701 704 703
f 703 705 701
f 702 708 704
f 706 702 705
f 706 708 702
f 704 708 703
f 707 705 703
f 703 708 707
f 707 706 705
f 708 706 707

o geometry_57
v 1.37000000 -0.66000000 2.63000000
v 1.37000000 -0.66000000 2.81000000
v 1.37000000 -0.58000000 2.63000000
v 1.37000000 -0.58000000 2.81000000
v 1.79000000 -0.66000000 2.63000000
v 1.79000000 -0.66000000 2.81000000
v 1.79000000 -0.58000000 2.63000000
v 1.79000000 -0.58000000 2.81000000
f 710 712 709
f 713 710 709
f 709 712 711
f 711 713 709
f 710 716 712
f 714 710 713
f 714 716 710
f 712 716 711
f 715 713 711
f 711 716 715
f 715 714 713
f 716 714 715

o geometry_58
v 1.46450000 -0.73000000 2.76000000
v 1.46450000 -0.73000000 2.84000000
v 1.46450000 -0.63000000 2.76000000
v 1.46450000 -0.63000000 2.84000000
v 1.69550000 -0.73000000 2.76000000
v 1.69550000 -0.73000000 2.84000000
v 1.69550000 -0.63000000 2.76000000
v 1.69550000 -0.63000000 2.84000000
f 718 720 717
f 721 718 717
f 717 720 719
f 719 721 717
f 718 724 720
f 722 718 721
f 722 724 718
f 720 724 719
f 723 721 719
f 719 724 723
f 723 722 721
f 724 722 723

o geometry_59
v -1.10000000 -0.72000000 1.48000000
v -1.05500000 -0.72000000 1.48000000
v -1.05500000 -0.72000000 1.82000000
v -1.10000000 -0.72000000 1.82000000
v -1.06102886 -0.69750000 1.48000000
v -1.06102886 -0.69750000 1.82000000
v -1.07750000 -0.68102886 1.48000000
v -1.07750000 -0.68102886 1.82000000
v -1.10000000 -0.67500000 1.48000000
v -1.10000000 -0.67500000 1.82000000
v -1.12250000 -0.68102886 1.48000000
v -1.12250000 -0.68102886 1.82000000
v -1.13897114 -0.69750000 1.48000000
v -1.13897114 -0.69750000 1.82000000
v -1.14500000 -0.72000000 1.48000000
v -1.14500000 -0.72000000 1.82000000
v -1.13897114 -0.74250000 1.48000000
v -1.13897114 -0.74250000 1.82000000
v -1.12250000 -0.75897114 1.48000000
v -1.12250000 -0.75897114 1.82000000
v -1.10000000 -0.76500000 1.48000000
v -1.10000000 -0.76500000 1.82000000
v -1.07750000 -0.75897114 1.48000000
v -1.07750000 -0.75897114 1.82000000
v -1.06102886 -0.74250000 1.48000000
v -1.06102886 -0.74250000 1.82000000
f 726 725 729
f 726 729 727
f 727 729 730
f 727 730 728
f 729 725 731
f 729 731 730
f 730 731 732
f 730 732 728
f 731 725 733
f 731 733 732
f 732 733 734
f 732 734 728
f 733 725 735
f 733 735 734
f 734 735 736
f 734 736 728
f 735 725 737
f 735 737 736
f 736 737 738
f 736 738 728
f 737 725 739
f 737 739 738
f 738 739 740
f 738 740 728
f 739 725 741
f 739 741 740
f 740 741 742
f 740 742 728
f 741 725 743
f 741 743 742
f 742 743 744
f 742 744 728
f 743 725 745
f 743 745 744
f 744 745 746
f 744 746 728
f 745 725 747
f 745 747 746
f 746 747 748
f 746 748 728
f 747 725 749
f 747 749 748
f 748 749 750
f 748 750 728
f 749 725 726
f 749 726 750
f 750 726 727
f 750 727 728

o geometry_60
v -1.19000000 -0.70000000 1.49000000
v -1.19000000 -0.70000000 1.73000000
v -1.19000000 -0.64000000 1.49000000
v -1.19000000 -0.64000000 1.73000000
v -1.01000000 -0.70000000 1.49000000
v -1.01000000 -0.70000000 1.73000000
v -1.01000000 -0.64000000 1.49000000
v -1.01000000 -0.64000000 1.73000000
f 752 754 751
f 755 752 751
f 751 754 753
f 753 755 751
f 752 758 754
f 756 752 755
f 756 758 752
f 754 758 753
f 757 755 753
f 753 758 757
f 757 756 755
f 758 756 757

o geometry_61
v -1.10000000 -0.73000000 1.88000000
v -1.00000000 -0.73000000 1.88000000
v -1.10000000 -0.73000000 2.08000000
v -1.01339746 -0.68000000 1.88000000
v -1.05000000 -0.64339746 1.88000000
v -1.10000000 -0.63000000 1.88000000
v -1.15000000 -0.64339746 1.88000000
v -1.18660254 -0.68000000 1.88000000
v -1.20000000 -0.73000000 1.88000000
v -1.18660254 -0.78000000 1.88000000
v -1.15000000 -0.81660254 1.88000000
v -1.10000000 -0.83000000 1.88000000
v -1.05000000 -0.81660254 1.88000000
v -1.01339746 -0.78000000 1.88000000
f 760 759 762
f 760 762 761
f 762 759 763
f 762 763 761
f 763 759 764
f 763 764 761
f 764 759 765
f 764 765 761
f 765 759 766
f 765 766 761
f 766 759 767
f 766 767 761
f 767 759 768
f 767 768 761
f 768 759 769
f 768 769 761
f 769 759 770
f 769 770 761
f 770 759 771
f 770 771 761
f 771 759 772
f 771 772 761
f 772 759 760
f 772 760 761

o geometry_62
v 1.10000000 -0.72000000 1.48000000
v 1.14500000 -0.72000000 1.48000000
v 1.14500000 -0.72000000 1.82000000
v 1.10000000 -0.72000000 1.82000000
v 1.13897114 -0.69750000 1.48000000
v 1.13897114 -0.69750000 1.82000000
v 1.12250000 -0.68102886 1.48000000
v 1.12250000 -0.68102886 1.82000000
v 1.10000000 -0.67500000 1.48000000
v 1.10000000 -0.67500000 1.82000000
v 1.07750000 -0.68102886 1.48000000
v 1.07750000 -0.68102886 1.82000000
v 1.06102886 -0.69750000 1.48000000
v 1.06102886 -0.69750000 1.82000000
v 1.05500000 -0.72000000 1.48000000
v 1.05500000 -0.72000000 1.82000000
v 1.06102886 -0.74250000 1.48000000
v 1.06102886 -0.74250000 1.82000000
v 1.07750000 -0.75897114 1.48000000
v 1.07750000 -0.75897114 1.82000000
v 1.10000000 -0.76500000 1.48000000
v 1.10000000 -0.76500000 1.82000000
v 1.12250000 -0.75897114 1.48000000
v 1.12250000 -0.75897114 1.82000000
v 1.13897114 -0.74250000 1.48000000
v 1.13897114 -0.74250000 1.82000000
f 774 773 777
f 774 777 775
f 775 777 778
f 775 778 776
f 777 773 779
f 777 779 778
f 778 779 780
f 778 780 776
f 779 773 781
f 779 781 780
f 780 781 782
f 780 782 776
f 781 773 783
f 781 783 782
f 782 783 784
f 782 784 776
f 783 773 785
f 783 785 784
f 784 785 786
f 784 786 776
f 785 773 787
f 785 787 786
f 786 787 788
f 786 788 776
f 787 773 789
f 787 789 788
f 788 789 790
f 788 790 776
f 789 773 791
f 789 791 790
f 790 791 792
f 790 792 776
f 791 773 793
f 791 793 792
f 792 793 794
f 792 794 776
f 793 773 795
f 793 795 794
f 794 795 796
f 794 796 776
f 795 773 797
f 795 797 796
f 796 797 798
f 796 798 776
f 797 773 774
f 797 774 798
f 798 774 775
f 798 775 776

o geometry_63
v 1.01000000 -0.70000000 1.49000000
v 1.01000000 -0.70000000 1.73000000
v 1.01000000 -0.64000000 1.49000000
v 1.01000000 -0.64000000 1.73000000
v 1.19000000 -0.70000000 1.49000000
v 1.19000000 -0.70000000 1.73000000
v 1.19000000 -0.64000000 1.49000000
v 1.19000000 -0.64000000 1.73000000
f 800 802 799
f 803 800 799
f 799 802 801
f 801 803 799
f 800 806 802
f 804 800 803
f 804 806 800
f 802 806 801
f 805 803 801
f 801 806 805
f 805 804 803
f 806 804 805

o geometry_64
v 1.10000000 -0.73000000 1.88000000
v 1.20000000 -0.73000000 1.88000000
v 1.10000000 -0.73000000 2.08000000
v 1.18660254 -0.68000000 1.88000000
v 1.15000000 -0.64339746 1.88000000
v 1.10000000 -0.63000000 1.88000000
v 1.05000000 -0.64339746 1.88000000
v 1.01339746 -0.68000000 1.88000000
v 1.00000000 -0.73000000 1.88000000
v 1.01339746 -0.78000000 1.88000000
v 1.05000000 -0.81660254 1.88000000
v 1.10000000 -0.83000000 1.88000000
v 1.15000000 -0.81660254 1.88000000
v 1.18660254 -0.78000000 1.88000000
f 808 807 810
f 808 810 809
f 810 807 811
f 810 811 809
f 811 807 812
f 811 812 809
f 812 807 813
f 812 813 809
f 813 807 814
f 813 814 809
f 814 807 815
f 814 815 809
f 815 807 816
f 815 816 809
f 816 807 817
f 816 817 809
f 817 807 818
f 817 818 809
f 818 807 819
f 818 819 809
f 819 807 820
f 819 820 809
f 820 807 808
f 820 808 809

o geometry_65
v 0.71916234 -0.25798478 0.17685601
v 1.00525067 -0.25798478 0.17685601
v 0.71916234 -0.58201522 0.17685601
v 1.00525067 -0.58201522 0.17685601
v 0.86220650 -0.52013091 0.46928868
v 0.86220650 -0.31986909 0.46928868
v 0.86220650 -0.52013091 -0.11557666
v 0.86220650 -0.31986909 -0.11557666
v 1.09365682 -0.42000000 -0.00387732
v 1.09365682 -0.42000000 0.35758934
v 0.63075618 -0.42000000 -0.00387732
v 0.63075618 -0.42000000 0.35758934
v 0.86220650 -0.22953968 0.17685601
v 0.86220650 -0.61046032 0.17685601
v 0.77812725 -0.57408563 0.34874362
v 0.94628575 -0.57408563 0.34874362
v 0.77812725 -0.26591437 0.34874362
v 0.94628575 -0.26591437 0.34874362
v 0.86220650 -0.42000000 0.52063124
v 0.77812725 -0.57408563 0.00496840
v 0.94628575 -0.57408563 0.00496840
v 0.77812725 -0.26591437 0.00496840
v 0.94628575 -0.26591437 0.00496840
v 0.86220650 -0.42000000 -0.16691922
v 1.08232884 -0.32476984 0.07062362
v 1.08232884 -0.51523016 0.07062362
v 0.99824959 -0.47885548 -0.10126399
v 0.99824959 -0.36114452 -0.10126399
v 1.08232884 -0.32476984 0.28308840
v 1.08232884 -0.51523016 0.28308840
v 0.99824959 -0.47885548 0.45497601
v 0.99824959 -0.36114452 0.45497601
v 1.13429267 -0.42000000 0.17685601
v 0.64208417 -0.32476984 0.07062362
v 0.64208417 -0.51523016 0.07062362
v 0.72616342 -0.47885548 -0.10126399
v 0.72616342 -0.36114452 -0.10126399
v 0.64208417 -0.32476984 0.28308840
v 0.64208417 -0.51523016 0.28308840
v 0.72616342 -0.47885548 0.45497601
v 0.72616342 -0.36114452 0.45497601
v 0.59012034 -0.42000000 0.17685601
f 821 858 837
f 858 832 861
f 837 861 826
f 858 861 837
f 821 837 833
f 837 826 838
f 833 838 822
f 837 838 833
f 821 833 842
f 833 822 843
f 842 843 828
f 833 843 842
f 821 842 854
f 842 828 857
f 854 857 831
f 842 857 854
f 821 854 858
f 854 831 862
f 858 862 832
f 854 862 858
f 822 838 849
f 838 826 852
f 849 852 830
f 838 852 849
f 826 861 839
f 861 832 860
f 839 860 825
f 861 860 839
f 832 862 859
f 862 831 855
f 859 855 823
f 862 855 859
f 831 857 856
f 857 828 844
f 856 844 827
f 857 844 856
f 828 843 848
f 843 822 845
f 848 845 829
f 843 845 848
f 824 850 836
f 850 830 851
f 836 851 825
f 850 851 836
f 824 836 834
f 836 825 835
f 834 835 823
f 836 835 834
f 824 834 841
f 834 823 840
f 841 840 827
f 834 840 841
f 824 841 846
f 841 827 847
f 846 847 829
f 841 847 846
f 824 846 850
f 846 829 853
f 850 853 830
f 846 853 850
f 825 851 839
f 851 830 852
f 839 852 826
f 851 852 839
f 823 835 859
f 835 825 860
f 859 860 832
f 835 860 859
f 827 840 856
f 840 823 855
f 856 855 831
f 840 855 856
f 829 847 848
f 847 827 844
f 848 844 828
f 847 844 848
f 830 853 849
f 853 829 845
f 849 845 822
f 853 845 849

o geometry_66
v 1.54896230 -0.35135769 0.07493002
v 1.67017167 -0.35135769 0.07493002
v 1.54896230 -0.48864231 0.07493002
v 1.67017167 -0.48864231 0.07493002
v 1.60956699 -0.46242328 0.19111686
v 1.60956699 -0.37757672 0.19111686
v 1.60956699 -0.46242328 -0.04125681
v 1.60956699 -0.37757672 -0.04125681
v 1.70762743 -0.42000000 0.00312261
v 1.70762743 -0.42000000 0.14673744
v 1.51150655 -0.42000000 0.00312261
v 1.51150655 -0.42000000 0.14673744
v 1.60956699 -0.33930613 0.07493002
v 1.60956699 -0.50069387 0.07493002
v 1.57394445 -0.48528271 0.14322293
v 1.64518953 -0.48528271 0.14322293
v 1.57394445 -0.35471729 0.14322293
v 1.64518953 -0.35471729 0.14322293
v 1.60956699 -0.42000000 0.21151584
v 1.57394445 -0.48528271 0.00663712
v 1.64518953 -0.48528271 0.00663712
v 1.57394445 -0.35471729 0.00663712
v 1.64518953 -0.35471729 0.00663712
v 1.60956699 -0.42000000 -0.06165579
v 1.70282801 -0.37965306 0.03272269
v 1.70282801 -0.46034694 0.03272269
v 1.66720547 -0.44493578 -0.03557022
v 1.66720547 -0.39506422 -0.03557022
v 1.70282801 -0.37965306 0.11713736
v 1.70282801 -0.46034694 0.11713736
v 1.66720547 -0.44493578 0.18543027
v 1.66720547 -0.39506422 0.18543027
v 1.72484395 -0.42000000 0.07493002
v 1.51630597 -0.37965306 0.03272269
v 1.51630597 -0.46034694 0.03272269
v 1.55192851 -0.44493578 -0.03557022
v 1.55192851 -0.39506422 -0.03557022
v 1.51630597 -0.37965306 0.11713736
v 1.51630597 -0.46034694 0.11713736
v 1.55192851 -0.44493578 0.18543027
v 1.55192851 -0.39506422 0.18543027
v 1.49429003 -0.42000000 0.07493002
f 863 900 879
f 900 874 903
f 879 903 868
f 900 903 879
f 863 879 875
f 879 868 880
f 875 880 864
f 879 880 875
f 863 875 884
f 875 864 885
f 884 885 870
f 875 885 884
f 863 884 896
f 884 870 899
f 896 899 873
f 884 899 896
f 863 896 900
f 896 873 904
f 900 904 874
f 896 904 900
f 864 880 891
f 880 868 894
f 891 894 872
f 880 894 891
f 868 903 881
f 903 874 902
f 881 902 867
f 903 902 881
f 874 904 901
f 904 873 897
f 901 897 865
f 904 897 901
f 873 899 898
f 899 870 886
f 898 886 869
f 899 886 898
f 870 885 890
f 885 864 887
f 890 887 871
f 885 887 890
f 866 892 878
f 892 872 893
f 878 893 867
f 892 893 878
f 866 878 876
f 878 867 877
f 876 877 865
f 878 877 876
f 866 876 883
f 876 865 882
f 883 882 869
f 876 882 883
f 866 883 888
f 883 869 889
f 888 889 871
f 883 889 888
f 866 888 892
f 888 871 895
f 892 895 872
f 888 895 892
f 867 893 881
f 893 872 894
f 881 894 868
f 893 894 881
f 865 877 901
f 877 867 902
f 901 902 874
f 877 902 901
f 869 882 898
f 882 865 897
f 898 897 873
f 882 897 898
f 871 889 890
f 889 869 886
f 890 886 870
f 889 886 890
f 872 895 891
f 895 871 887
f 891 887 864
f 895 887 891

o geometry_67
v 1.35058781 -0.28867140 0.14335846
v 1.58248935 -0.28867140 0.14335846
v 1.35058781 -0.55132860 0.14335846
v 1.58248935 -0.55132860 0.14335846
v 1.46653858 -0.50116554 0.29639296
v 1.46653858 -0.33883446 0.29639296
v 1.46653858 -0.50116554 -0.00967605
v 1.46653858 -0.33883446 -0.00967605
v 1.65415087 -0.42000000 0.04877793
v 1.65415087 -0.42000000 0.23793898
v 1.27892629 -0.42000000 0.04877793
v 1.27892629 -0.42000000 0.23793898
v 1.46653858 -0.26561397 0.14335846
v 1.46653858 -0.57438603 0.14335846
v 1.39838443 -0.54490092 0.23330988
v 1.53469274 -0.54490092 0.23330988
v 1.39838443 -0.29509908 0.23330988
v 1.53469274 -0.29509908 0.23330988
v 1.46653858 -0.42000000 0.32326130
v 1.39838443 -0.54490092 0.05340703
v 1.53469274 -0.54490092 0.05340703
v 1.39838443 -0.29509908 0.05340703
v 1.53469274 -0.29509908 0.05340703
v 1.46653858 -0.42000000 -0.03654439
v 1.64496847 -0.34280698 0.08776542
v 1.64496847 -0.49719302 0.08776542
v 1.57681432 -0.46770791 -0.00218600
v 1.57681432 -0.37229209 -0.00218600
v 1.64496847 -0.34280698 0.19895149
v 1.64496847 -0.49719302 0.19895149
v 1.57681432 -0.46770791 0.28890292
v 1.57681432 -0.37229209 0.28890292
v 1.68709005 -0.42000000 0.14335846
v 1.28810869 -0.34280698 0.08776542
v 1.28810869 -0.49719302 0.08776542
v 1.35626285 -0.46770791 -0.00218600
v 1.35626285 -0.37229209 -0.00218600
v 1.28810869 -0.34280698 0.19895149
v 1.28810869 -0.49719302 0.19895149
v 1.35626285 -0.46770791 0.28890292
v 1.35626285 -0.37229209 0.28890292
v 1.24598711 -0.42000000 0.14335846
f 905 942 921
f 942 916 945
f 921 945 910
f 942 945 921
f 905 921 917
f 921 910 922
f 917 922 906
f 921 922 917
f 905 917 926
f 917 906 927
f 926 927 912
f 917 927 926
f 905 926 938
f 926 912 941
f 938 941 915
f 926 941 938
f 905 938 942
f 938 915 946
f 942 946 916
f 938 946 942
f 906 922 933
f 922 910 936
f 933 936 914
f 922 936 933
f 910 945 923
f 945 916 944
f 923 944 909
f 945 944 923
f 916 946 943
f 946 915 939
f 943 939 907
f 946 939 943
f 915 941 940
f 941 912 928
f 940 928 911
f 941 928 940
f 912 927 932
f 927 906 929
f 932 929 913
f 927 929 932
f 908 934 920
f 934 914 935
f 920 935 909
f 934 935 920
f 908 920 918
f 920 909 919
f 918 919 907
f 920 919 918
f 908 918 925
f 918 907 924
f 925 924 911
f 918 924 925
f 908 925 930
f 925 911 931
f 930 931 913
f 925 931 930
f 908 930 934
f 930 913 937
f 934 937 914
f 930 937 934
f 909 935 923
f 935 914 936
f 923 936 910
f 935 936 923
f 907 919 943
f 919 909 944
f 943 944 916
f 919 944 943
f 911 924 940
f 924 907 939
f 940 939 915
f 924 939 940
f 913 931 932
f 931 911 928
f 932 928 912
f 931 928 932
f 914 937 933
f 937 913 929
f 933 929 906
f 937 929 933

o geometry_68
v 0.86422543 -0.29541622 0.13599580
v 1.08421689 -0.29541622 0.13599580
v 0.86422543 -0.54458378 0.13599580
v 1.08421689 -0.54458378 0.13599580
v 0.97422116 -0.49699701 0.31519049
v 0.97422116 -0.34300299 0.31519049
v 0.97422116 -0.49699701 -0.04319889
v 0.97422116 -0.34300299 -0.04319889
v 1.15219799 -0.42000000 0.02524739
v 1.15219799 -0.42000000 0.24674421
v 0.79624433 -0.42000000 0.02524739
v 0.79624433 -0.42000000 0.24674421
v 0.97422116 -0.27354298 0.13599580
v 0.97422116 -0.56645702 0.13599580
v 0.90956729 -0.53848622 0.24132380
v 1.03887503 -0.53848622 0.24132380
v 0.90956729 -0.30151378 0.24132380
v 1.03887503 -0.30151378 0.24132380
v 0.97422116 -0.42000000 0.34665180
v 0.90956729 -0.53848622 0.03066781
v 1.03887503 -0.53848622 0.03066781
v 0.90956729 -0.30151378 0.03066781
v 1.03887503 -0.30151378 0.03066781
v 0.97422116 -0.42000000 -0.07466019
v 1.14348718 -0.34677149 0.07089952
v 1.14348718 -0.49322851 0.07089952
v 1.07883331 -0.46525771 -0.03442848
v 1.07883331 -0.37474229 -0.03442848
v 1.14348718 -0.34677149 0.20109209
v 1.14348718 -0.49322851 0.20109209
v 1.07883331 -0.46525771 0.30642008
v 1.07883331 -0.37474229 0.30642008
v 1.18344547 -0.42000000 0.13599580
v 0.80495513 -0.34677149 0.07089952
v 0.80495513 -0.49322851 0.07089952
v 0.86960900 -0.46525771 -0.03442848
v 0.86960900 -0.37474229 -0.03442848
v 0.80495513 -0.34677149 0.20109209
v 0.80495513 -0.49322851 0.20109209
v 0.86960900 -0.46525771 0.30642008
v 0.86960900 -0.37474229 0.30642008
v 0.76499685 -0.42000000 0.13599580
f 947 984 963
f 984 958 987
f 963 987 952
f 984 987 963
f 947 963 959
f 963 952 964
f 959 964 948
f 963 964 959
f 947 959 968
f 959 948 969
f 968 969 954
f 959 969 968
f 947 968 980
f 968 954 983
f 980 983 957
f 968 983 980
f 947 980 984
f 980 957 988
f 984 988 958
f 980 988 984
f 948 964 975
f 964 952 978
f 975 978 956
f 964 978 975
f 952 987 965
f 987 958 986
f 965 986 951
f 987 986 965
f 958 988 985
f 988 957 981
f 985 981 949
f 988 981 985
f 957 983 982
f 983 954 970
f 982 970 953
f 983 970 982
f 954 969 974
f 969 948 971
f 974 971 955
f 969 971 974
f 950 976 962
f 976 956 977
f 962 977 951
f 976 977 962
f 950 962 960
f 962 951 961
f 960 961 949
f 962 961 960
f 950 960 967
f 960 949 966
f 967 966 953
f 960 966 967
f 950 967 972
f 967 953 973
f 972 973 955
f 967 973 972
f 950 972 976
f 972 955 979
f 976 979 956
f 972 979 976
f 951 977 965
f 977 956 978
f 965 978 952
f 977 978 965
f 949 961 985
f 961 951 986
f 985 986 958
f 961 986 985
f 953 966 982
f 966 949 981
f 982 981 957
f 966 981 982
f 955 973 974
f 973 953 970
f 974 970 954
f 973 970 974
f 956 979 975
f 979 955 971
f 975 971 948
f 979 971 975

o geometry_69
v 1.50198522 -0.31429441 0.11538835
v 1.68864136 -0.31429441 0.11538835
v 1.50198522 -0.52570559 0.11538835
v 1.68864136 -0.52570559 0.11538835
v 1.59531329 -0.48532965 0.24759165
v 1.59531329 -0.35467035 0.24759165
v 1.59531329 -0.48532965 -0.01681496
v 1.59531329 -0.35467035 -0.01681496
v 1.74632128 -0.42000000 0.03368221
v 1.74632128 -0.42000000 0.19709448
v 1.44430530 -0.42000000 0.03368221
v 1.44430530 -0.42000000 0.19709448
v 1.59531329 -0.29573563 0.11538835
v 1.59531329 -0.54426437 0.11538835
v 1.54045643 -0.52053199 0.19309550
v 1.65017015 -0.52053199 0.19309550
v 1.54045643 -0.31946801 0.19309550
v 1.65017015 -0.31946801 0.19309550
v 1.59531329 -0.42000000 0.27080265
v 1.54045643 -0.52053199 0.03768119
v 1.65017015 -0.52053199 0.03768119
v 1.54045643 -0.31946801 0.03768119
v 1.65017015 -0.31946801 0.03768119
v 1.59531329 -0.42000000 -0.04002596
v 1.73893042 -0.35786781 0.06736269
v 1.73893042 -0.48213219 0.06736269
v 1.68407356 -0.45839980 -0.01034447
v 1.68407356 -0.38160020 -0.01034447
v 1.73893042 -0.35786781 0.16341401
v 1.73893042 -0.48213219 0.16341401
v 1.68407356 -0.45839980 0.24112116
v 1.68407356 -0.38160020 0.24112116
v 1.77283382 -0.42000000 0.11538835
v 1.45169616 -0.35786781 0.06736269
v 1.45169616 -0.48213219 0.06736269
v 1.50655302 -0.45839980 -0.01034447
v 1.50655302 -0.38160020 -0.01034447
v 1.45169616 -0.35786781 0.16341401
v 1.45169616 -0.48213219 0.16341401
v 1.50655302 -0.45839980 0.24112116
v 1.50655302 -0.38160020 0.24112116
v 1.41779275 -0.42000000 0.11538835
f 989 1026 1005
f 1026 1000 1029
f 1005 1029 994
f 1026 1029 1005
f 989 1005 1001
f 1005 994 1006
f 1001 1006 990
f 1005 1006 1001
f 989 1001 1010
f 1001 990 1011
f 1010 1011 996
f 1001 1011 1010
f 989 1010 1022
f 1010 996 1025
f 1022 1025 999
f 1010 1025 1022
f 989 1022 1026
f 1022 999 1030
f 1026 1030 1000
f 1022 1030 1026
f 990 1006 1017
f 1006 994 1020
f 1017 1020 998
f 1006 1020 1017
f 994 1029 1007
f 1029 1000 1028
f 1007 1028 993
f 1029 1028 1007
f 1000 1030 1027
f 1030 999 1023
f 1027 1023 991
f 1030 1023 1027
f 999 1025 1024
f 1025 996 1012
f 1024 1012 995
f 1025 1012 1024
f 996 1011 1016
f 1011 990 1013
f 1016 1013 997
f 1011 1013 1016
f 992 1018 1004
f 1018 998 1019
f 1004 1019 993
f 1018 1019 1004
f 992 1004 1002
f 1004 993 1003
f 1002 1003 991
f 1004 1003 1002
f 992 1002 1009
f 1002 991 1008
f 1009 1008 995
f 1002 1008 1009
f 992 1009 1014
f 1009 995 1015
f 1014 1015 997
f 1009 1015 1014
f 992 1014 1018
f 1014 997 1021
f 1018 1021 998
f 1014 1021 1018
f 993 1019 1007
f 1019 998 1020
f 1007 1020 994
f 1019 1020 1007
f 991 1003 1027
f 1003 993 1028
f 1027 1028 1000
f 1003 1028 1027
f 995 1008 1024
f 1008 991 1023
f 1024 1023 999
f 1008 1023 1024
f 997 1015 1016
f 1015 995 1012
f 1016 1012 996
f 1015 1012 1016
f 998 1021 1017
f 1021 997 1013
f 1017 1013 990
f 1021 1013 1017

o geometry_70
v 1.25188027 -0.25382769 0.18139389
v 1.54530923 -0.25382769 0.18139389
v 1.25188027 -0.58617231 0.18139389
v 1.54530923 -0.58617231 0.18139389
v 1.39859475 -0.52270013 0.48159053
v 1.39859475 -0.31729987 0.48159053
v 1.39859475 -0.52270013 -0.11880276
v 1.39859475 -0.31729987 -0.11880276
v 1.63598376 -0.42000000 -0.00413784
v 1.63598376 -0.42000000 0.36692562
v 1.16120574 -0.42000000 -0.00413784
v 1.16120574 -0.42000000 0.36692562
v 1.39859475 -0.22465274 0.18139389
v 1.39859475 -0.61534726 0.18139389
v 1.31235815 -0.57803926 0.35784505
v 1.48483136 -0.57803926 0.35784505
v 1.31235815 -0.26196074 0.35784505
v 1.48483136 -0.26196074 0.35784505
v 1.39859475 -0.42000000 0.53429621
v 1.31235815 -0.57803926 0.00494273
v 1.48483136 -0.57803926 0.00494273
v 1.31235815 -0.26196074 0.00494273
v 1.48483136 -0.26196074 0.00494273
v 1.39859475 -0.42000000 -0.17150843
v 1.62436512 -0.32232637 0.07234107
v 1.62436512 -0.51767363 0.07234107
v 1.53812851 -0.48036562 -0.10411009
v 1.53812851 -0.35963438 -0.10411009
v 1.62436512 -0.32232637 0.29044670
v 1.62436512 -0.51767363 0.29044670
v 1.53812851 -0.48036562 0.46689786
v 1.53812851 -0.35963438 0.46689786
v 1.67766227 -0.42000000 0.18139389
v 1.17282438 -0.32232637 0.07234107
v 1.17282438 -0.51767363 0.07234107
v 1.25906099 -0.48036562 -0.10411009
v 1.25906099 -0.35963438 -0.10411009
v 1.17282438 -0.32232637 0.29044670
v 1.17282438 -0.51767363 0.29044670
v 1.25906099 -0.48036562 0.46689786
v 1.25906099 -0.35963438 0.46689786
v 1.11952723 -0.42000000 0.18139389
f 1031 1068 1047
f 1068 1042 1071
f 1047 1071 1036
f 1068 1071 1047
f 1031 1047 1043
f 1047 1036 1048
f 1043 1048 1032
f 1047 1048 1043
f 1031 1043 1052
f 1043 1032 1053
f 1052 1053 1038
f 1043 1053 1052
f 1031 1052 1064
f 1052 1038 1067
f 1064 1067 1041
f 1052 1067 1064
f 1031 1064 1068
f 1064 1041 1072
f 1068 1072 1042
f 1064 1072 1068
f 1032 1048 1059
f 1048 1036 1062
f 1059 1062 1040
f 1048 1062 1059
f 1036 1071 1049
f 1071 1042 1070
f 1049 1070 1035
f 1071 1070 1049
f 1042 1072 1069
f 1072 1041 1065
f 1069 1065 1033
f 1072 1065 1069
f 1041 1067 1066
f 1067 1038 1054
f 1066 1054 1037
f 1067 1054 1066
f 1038 1053 1058
f 1053 1032 1055
f 1058 1055 1039
f 1053 1055 1058
f 1034 1060 1046
f 1060 1040 1061
f 1046 1061 1035
f 1060 1061 1046
f 1034 1046 1044
f 1046 1035 1045
f 1044 1045 1033
f 1046 1045 1044
f 1034 1044 1051
f 1044 1033 1050
f 1051 1050 1037
f 1044 1050 1051
f 1034 1051 1056
f 1051 1037 1057
f 1056 1057 1039
f 1051 1057 1056
f 1034 1056 1060
f 1056 1039 1063
f 1060 1063 1040
f 1056 1063 1060
f 1035 1061 1049
f 1061 1040 1062
f 1049 1062 1036
f 1061 1062 1049
f 1033 1045 1069
f 1045 1035 1070
f 1069 1070 1042
f 1045 1070 1069
f 1037 1050 1066
f 1050 1033 1065
f 1066 1065 1041
f 1050 1065 1066
f 1039 1057 1058
f 1057 1037 1054
f 1058 1054 1038
f 1057 1054 1058
f 1040 1063 1059
f 1063 1039 1055
f 1059 1055 1032
f 1063 1055 1059

o geometry_71
v 0.74484639 -0.31277408 0.11704794
v 0.93418714 -0.31277408 0.11704794
v 0.74484639 -0.52722592 0.11704794
v 0.93418714 -0.52722592 0.11704794
v 0.83951676 -0.48626926 0.23771823
v 0.83951676 -0.35373074 0.23771823
v 0.83951676 -0.48626926 -0.00362235
v 0.83951676 -0.35373074 -0.00362235
v 0.99269665 -0.42000000 0.04246960
v 0.99269665 -0.42000000 0.19162628
v 0.68633688 -0.42000000 0.04246960
v 0.68633688 -0.42000000 0.19162628
v 0.83951676 -0.29394837 0.11704794
v 0.83951676 -0.54605163 0.11704794
v 0.78387091 -0.52197791 0.18797616
v 0.89516261 -0.52197791 0.18797616
v 0.78387091 -0.31802209 0.18797616
v 0.89516261 -0.31802209 0.18797616
v 0.83951676 -0.42000000 0.25890437
v 0.78387091 -0.52197791 0.04611972
v 0.89516261 -0.52197791 0.04611972
v 0.78387091 -0.31802209 0.04611972
v 0.89516261 -0.31802209 0.04611972
v 0.83951676 -0.42000000 -0.02480849
v 0.98519949 -0.35697419 0.07321189
v 0.98519949 -0.48302581 0.07321189
v 0.92955364 -0.45895210 0.00228367
v 0.92955364 -0.38104790 0.00228367
v 0.98519949 -0.35697419 0.16088399
v 0.98519949 -0.48302581 0.16088399
v 0.92955364 -0.45895210 0.23181221
v 0.92955364 -0.38104790 0.23181221
v 1.01959052 -0.42000000 0.11704794
v 0.69383404 -0.35697419 0.07321189
v 0.69383404 -0.48302581 0.07321189
v 0.74947989 -0.45895210 0.00228367
v 0.74947989 -0.38104790 0.00228367
v 0.69383404 -0.35697419 0.16088399
v 0.69383404 -0.48302581 0.16088399
v 0.74947989 -0.45895210 0.23181221
v 0.74947989 -0.38104790 0.23181221
v 0.65944301 -0.42000000 0.11704794
f 1073 1110 1089
f 1110 1084 1113
f 1089 1113 1078
f 1110 1113 1089
f 1073 1089 1085
f 1089 1078 1090
f 1085 1090 1074
f 1089 1090 1085
f 1073 1085 1094
f 1085 1074 1095
f 1094 1095 1080
f 1085 1095 1094
f 1073 1094 1106
f 1094 1080 1109
f 1106 1109 1083
f 1094 1109 1106
f 1073 1106 1110
f 1106 1083 1114
f 1110 1114 1084
f 1106 1114 1110
f 1074 1090 1101
f 1090 1078 1104
f 1101 1104 1082
f 1090 1104 1101
f 1078 1113 1091
f 1113 1084 1112
f 1091 1112 1077
f 1113 1112 1091
f 1084 1114 1111
f 1114 1083 1107
f 1111 1107 1075
f 1114 1107 1111
f 1083 1109 1108
f 1109 1080 1096
f 1108 1096 1079
f 1109 1096 1108
f 1080 1095 1100
f 1095 1074 1097
f 1100 1097 1081
f 1095 1097 1100
f 1076 1102 1088
f 1102 1082 1103
f 1088 1103 1077
f 1102 1103 1088
f 1076 1088 1086
f 1088 1077 1087
f 1086 1087 1075
f 1088 1087 1086
f 1076 1086 1093
f 1086 1075 1092
f 1093 1092 1079
f 1086 1092 1093
f 1076 1093 1098
f 1093 1079 1099
f 1098 1099 1081
f 1093 1099 1098
f 1076 1098 1102
f 1098 1081 1105
f 1102 1105 1082
f 1098 1105 1102
f 1077 1103 1091
f 1103 1082 1104
f 1091 1104 1078
f 1103 1104 1091
f 1075 1087 1111
f 1087 1077 1112
f 1111 1112 1084
f 1087 1112 1111
f 1079 1092 1108
f 1092 1075 1107
f 1108 1107 1083
f 1092 1107 1108
f 1081 1099 1100
f 1099 1079 1096
f 1100 1096 1080
f 1099 1096 1100
f 1082 1105 1101
f 1105 1081 1097
f 1101 1097 1074
f 1105 1097 1101

o geometry_72
v -2.00000000 -0.29500000 0.00000000
v -2.00000000 -0.29500000 0.18000000
v -2.00000000 0.25500000 0.00000000
v -2.00000000 0.25500000 0.18000000
v 2.00000000 -0.29500000 0.00000000
v 2.00000000 -0.29500000 0.18000000
v 2.00000000 0.25500000 0.00000000
v 2.00000000 0.25500000 0.18000000
f 1116 1118 1115
f 1119 1116 1115
f 1115 1118 1117
f 1117 1119 1115
f 1116 1122 1118
f 1120 1116 1119
f 1120 1122 1116
f 1118 1122 1117
f 1121 1119 1117
f 1117 1122 1121
f 1121 1120 1119
f 1122 1120 1121

o geometry_73
v -2.00000000 -0.33000000 3.25000000
v -2.00000000 -0.33000000 3.50000000
v -2.00000000 0.29000000 3.25000000
v -2.00000000 0.29000000 3.50000000
v 2.00000000 -0.33000000 3.25000000
v 2.00000000 -0.33000000 3.50000000
v 2.00000000 0.29000000 3.25000000
v 2.00000000 0.29000000 3.50000000
f 1124 1126 1123
f 1127 1124 1123
f 1123 1126 1125
f 1125 1127 1123
f 1124 1130 1126
f 1128 1124 1127
f 1128 1130 1124
f 1126 1130 1125
f 1129 1127 1125
f 1125 1130 1129
f 1129 1128 1127
f 1130 1128 1129

