# https://github.com/mikedh/trimesh

o geometry_0
v -1.99025061 -0.48207539 0.00599776
v -1.99025061 -0.48207539 0.48099776
v -1.99174705 -0.00207772 0.00599776
v -1.99174705 -0.00207772 0.48099776
v -1.50931754 -0.48057603 0.00599776
v -1.50931754 -0.48057603 0.48099776
v -1.51081399 -0.00057836 0.00599776
v -1.51081399 -0.00057836 0.48099776
f 2 4 1
f 5 2 1
f 1 4 3
f 3 5 1
f 2 8 4
f 6 2 5
f 6 8 2
f 4 8 3
f 7 5 3
f 3 8 7
f 7 6 5
f 8 6 7

o geometry_1
v -1.48962125 -0.46964320 -0.01184160
v -1.48962125 -0.46964320 0.46315840
v -1.49448072 0.01033220 -0.01184160
v -1.49448072 0.01033220 0.46315840
v -0.95830484 -0.46426393 -0.01184160
v -0.95830484 -0.46426393 0.46315840
v -0.96316431 0.01571147 -0.01184160
v -0.96316431 0.01571147 0.46315840
f 10 12 9
f 13 10 9
f 9 12 11
f 11 13 9
f 10 16 12
f 14 10 13
f 14 16 10
f 12 16 11
f 15 13 11
f 11 16 15
f 15 14 13
f 16 14 15

o geometry_2
v 1.18152600 -0.47634925 0.01945341
v 1.18152600 -0.47634925 0.49445341
v 1.18655703 0.00362439 0.01945341
v 1.18655703 0.00362439 0.49445341
v 1.74023530 -0.48220558 0.01945341
v 1.74023530 -0.48220558 0.49445341
v 1.74526633 -0.00223194 0.01945341
v 1.74526633 -0.00223194 0.49445341
f 18 20 17
f 21 18 17
f 17 20 19
f 19 21 17
f 18 24 20
f 22 18 21
f 22 24 18
f 20 24 19
f 23 21 19
f 19 24 23
f 23 22 21
f 24 22 23

o geometry_3
v 1.76250617 -0.49186823 0.01365906
v 1.76250617 -0.49186823 0.48865906
v 1.75903218 -0.01188080 0.01365906
v 1.75903218 -0.01188080 0.48865906
v 1.99273398 -0.49020192 0.01365906
v 1.99273398 -0.49020192 0.48865906
v 1.98925999 -0.01021449 0.01365906
v 1.98925999 -0.01021449 0.48865906
f 26 28 25
f 29 26 25
f 25 28 27
f 27 29 25
f 26 32 28
f 30 26 29
f 30 32 26
f 28 32 27
f 31 29 27
f 27 32 31
f 31 30 29
f 32 30 31

o geometry_4
v -1.99034282 -0.46784394 0.52541151
v -1.99034282 -0.46784394 1.00041151
v -1.99165465 0.01215427 0.52541151
v -1.99165465 0.01215427 1.00041151
v -1.31424098 -0.46599616 0.52541151
v -1.31424098 -0.46599616 1.00041151
v -1.31555281 0.01400205 0.52541151
v -1.31555281 0.01400205 1.00041151
f 34 36 33
f 37 34 33
f 33 36 35
f 35 37 33
f 34 40 36
f 38 34 37
f 38 40 34
f 36 40 35
f 39 37 35
f 35 40 39
f 39 38 37
f 40 38 39

o geometry_5
v 1.31762849 -0.49561778 0.52320647
v 1.31762849 -0.49561778 0.99820647
v 1.31156483 -0.01565608 0.52320647
v 1.31156483 -0.01565608 0.99820647
v 1.99400484 -0.48707269 0.52320647
v 1.99400484 -0.48707269 0.99820647
v 1.98794118 -0.00711099 0.52320647
v 1.98794118 -0.00711099 0.99820647
f 42 44 41
f 45 42 41
f 41 44 43
f 43 45 41
f 42 48 44
f 46 42 45
f 46 48 42
f 44 48 43
f 47 45 43
f 43 48 47
f 47 46 45
f 48 46 47

o geometry_6
v -1.98783692 -0.49313067 1.00973105
v -1.98783692 -0.49313067 1.48473105
v -1.99410919 -0.01317165 1.00973105
v -1.99410919 -0.01317165 1.48473105
v -1.35670926 -0.48488287 1.00973105
v -1.35670926 -0.48488287 1.48473105
v -1.36298153 -0.00492386 1.00973105
v -1.36298153 -0.00492386 1.48473105
f 50 52 49
f 53 50 49
f 49 52 51
f 51 53 49
f 50 56 52
f 54 50 53
f 54 56 50
f 52 56 51
f 55 53 51
f 51 56 55
f 55 54 53
f 56 54 55

o geometry_7
v 1.21276287 -0.47592006 1.01883241
v 1.21276287 -0.47592006 1.49383241
v 1.21562808 0.00407138 1.01883241
v 1.21562808 0.00407138 1.49383241
v 1.93664050 -0.48024110 1.01883241
v 1.93664050 -0.48024110 1.49383241
v 1.93950571 -0.00024965 1.01883241
v 1.93950571 -0.00024965 1.49383241
f 58 60 57
f 61 58 57
f 57 60 59
f 59 61 57
f 58 64 60
f 62 58 61
f 62 64 58
f 60 64 59
f 63 61 59
f 59 64 63
f 63 62 61
f 64 62 63

o geometry_8
v 1.95669214 -0.47661977 1.00504552
v 1.95669214 -0.47661977 1.48004552
v 1.95546708 0.00337867 1.00504552
v 1.95546708 0.00337867 1.48004552
v 1.99161248 -0.47653064 1.00504552
v 1.99161248 -0.47653064 1.48004552
v 1.99038741 0.00346779 1.00504552
v 1.99038741 0.00346779 1.48004552
f 66 68 65
f 69 66 65
f 65 68 67
f 67 69 65
f 66 72 68
f 70 66 69
f 70 72 66
f 68 72 67
f 71 69 67
f 67 72 71
f 71 70 69
f 72 70 71

o geometry_9
v -1.98788427 -0.49636511 1.52159911
v -1.98788427 -0.49636511 1.99659911
v -1.99406092 -0.01640486 1.52159911
v -1.99406092 -0.01640486 1.99659911
v -1.32599816 -0.48784725 1.52159911
v -1.32599816 -0.48784725 1.99659911
v -1.33217481 -0.00788699 1.52159911
v -1.33217481 -0.00788699 1.99659911
f 74 76 73
f 77 74 73
f 73 76 75
f 75 77 73
f 74 80 76
f 78 74 77
f 78 80 74
f 76 80 75
f 79 77 75
f 75 80 79
f 79 78 77
f 80 78 79

o geometry_10
v 0.85615939 -0.49440418 1.53573165
v 0.85615939 -0.49440418 2.01073165
v 0.85033191 -0.01443955 1.53573165
v 0.85033191 -0.01443955 2.01073165
v 1.44961933 -0.48719870 1.53573165
v 1.44961933 -0.48719870 2.01073165
v 1.44379185 -0.00723407 1.53573165
v 1.44379185 -0.00723407 2.01073165
f 82 84 81
f 85 82 81
f 81 84 83
f 83 85 81
f 82 88 84
f 86 82 85
f 86 88 82
f 84 88 83
f 87 85 83
f 83 88 87
f 87 86 85
f 88 86 87

o geometry_11
v 1.46712802 -0.48902033 1.49805625
v 1.46712802 -0.48902033 1.97305625
v 1.46235295 -0.00904409 1.49805625
v 1.46235295 -0.00904409 1.97305625
v 1.99337452 -0.48378494 1.49805625
v 1.99337452 -0.48378494 1.97305625
v 1.98859944 -0.00380869 1.49805625
v 1.98859944 -0.00380869 1.97305625
f 90 92 89
f 93 90 89
f 89 92 91
f 91 93 89
f 90 96 92
f 94 90 93
f 94 96 90
f 92 96 91
f 95 93 91
f 91 96 95
f 95 94 93
f 96 94 95

o geometry_12
v -1.98843305 -0.47704022 1.99067303
v -1.98843305 -0.47704022 2.46567303
v -1.99352973 0.00293273 1.99067303
v -1.99352973 0.00293273 2.46567303
v -1.32827126 -0.47003017 1.99067303
v -1.32827126 -0.47003017 2.46567303
v -1.33336794 0.00994277 1.99067303
v -1.33336794 0.00994277 2.46567303
f 98 100 97
f 101 98 97
f 97 100 99
f 99 101 97
f 98 104 100
f 102 98 101
f 102 104 98
f 100 104 99
f 103 101 99
f 99 104 103
f 103 102 101
f 104 102 103

o geometry_13
v 1.40192582 -0.47710903 2.02593959
v 1.40192582 -0.47710903 2.50093959
v 1.39655809 0.00286095 2.02593959
v 1.39655809 0.00286095 2.50093959
v 1.99338821 -0.47049443 2.02593959
v 1.99338821 -0.47049443 2.50093959
v 1.98802048 0.00947556 2.02593959
v 1.98802048 0.00947556 2.50093959
f 106 108 105
f 109 106 105
f 105 108 107
f 107 109 105
f 106 112 108
f 110 106 109
f 110 112 106
f 108 112 107
f 111 109 107
f 107 112 111
f 111 110 109
f 112 110 111

o geometry_14
v -1.98942108 -0.48531217 2.48974701
v -1.98942108 -0.48531217 2.96474701
v -1.99256660 -0.00532248 2.48974701
v -1.99256660 -0.00532248 2.96474701
v -1.41525252 -0.48154947 2.48974701
v -1.41525252 -0.48154947 2.96474701
v -1.41839804 -0.00155978 2.48974701
v -1.41839804 -0.00155978 2.96474701
f 114 116 113
f 117 114 113
f 113 116 115
f 115 117 113
f 114 120 116
f 118 114 117
f 118 120 114
f 116 120 115
f 119 117 115
f 115 120 119
f 119 118 117
f 120 118 119

o geometry_15
v -1.39878008 -0.49147763 2.53653179
v -1.39878008 -0.49147763 3.01153179
v -1.39885814 -0.01147764 2.53653179
v -1.39885814 -0.01147764 3.01153179
v -0.77800004 -0.49137668 2.53653179
v -0.77800004 -0.49137668 3.01153179
v -0.77807810 -0.01137669 2.53653179
v -0.77807810 -0.01137669 3.01153179
f 122 124 121
f 125 122 121
f 121 124 123
f 123 125 121
f 122 128 124
f 126 122 125
f 126 128 122
f 124 128 123
f 127 125 123
f 123 128 127
f 127 126 125
f 128 126 127

o geometry_16
v -0.75931914 -0.47538032 2.49134854
v -0.75931914 -0.47538032 2.96634854
v -0.76075572 0.00461753 2.49134854
v -0.76075572 0.00461753 2.96634854
v -0.03006470 -0.47319774 2.49134854
v -0.03006470 -0.47319774 2.96634854
v -0.03150129 0.00680011 2.49134854
v -0.03150129 0.00680011 2.96634854
f 130 132 129
f 133 130 129
f 129 132 131
f 131 133 129
f 130 136 132
f 134 130 133
f 134 136 130
f 132 136 131
f 135 133 131
f 131 136 135
f 135 134 133
f 136 134 135

o geometry_17
v -0.01198443 -0.47186820 2.50789681
v -0.01198443 -0.47186820 2.98289681
v -0.01357515 0.00812917 2.50789681
v -0.01357515 0.00812917 2.98289681
v 0.56011131 -0.46997226 2.50789681
v 0.56011131 -0.46997226 2.98289681
v 0.55852059 0.01002511 2.50789681
v 0.55852059 0.01002511 2.98289681
f 138 140 137
f 141 138 137
f 137 140 139
f 139 141 137
f 138 144 140
f 142 138 141
f 142 144 138
f 140 144 139
f 143 141 139
f 139 144 143
f 143 142 141
f 144 142 143

o geometry_18
v 0.57598173 -0.46461509 2.53088895
v 0.57598173 -0.46461509 3.00588895
v 0.57866256 0.01537743 2.53088895
v 0.57866256 0.01537743 3.00588895
v 1.16835483 -0.46792358 2.53088895
v 1.16835483 -0.46792358 3.00588895
v 1.17103565 0.01206894 2.53088895
v 1.17103565 0.01206894 3.00588895
f 146 148 145
f 149 146 145
f 145 148 147
f 147 149 145
f 146 152 148
f 150 146 149
f 150 152 146
f 148 152 147
f 151 149 147
f 147 152 151
f 151 150 149
f 152 150 151

o geometry_19
v 1.18741506 -0.49147039 2.50638946
v 1.18741506 -0.49147039 2.98138946
v 1.18798517 -0.01147073 2.50638946
v 1.18798517 -0.01147073 2.98138946
v 1.91019671 -0.49232885 2.50638946
v 1.91019671 -0.49232885 2.98138946
v 1.91076681 -0.01232919 2.50638946
v 1.91076681 -0.01232919 2.98138946
f 154 156 153
f 157 154 153
f 153 156 155
f 155 157 153
f 154 160 156
f 158 154 157
f 158 160 154
f 156 160 155
f 159 157 155
f 155 160 159
f 159 158 157
f 160 158 159

o geometry_20
v 1.92890875 -0.48437186 2.51728251
v 1.92890875 -0.48437186 2.99228251
v 1.92805539 -0.00437261 2.51728251
v 1.92805539 -0.00437261 2.99228251
v 1.99142663 -0.48426071 2.51728251
v 1.99142663 -0.48426071 2.99228251
v 1.99057327 -0.00426147 2.51728251
v 1.99057327 -0.00426147 2.99228251
f 162 164 161
f 165 162 161
f 161 164 163
f 163 165 161
f 162 168 164
f 166 162 165
f 166 168 162
f 164 168 163
f 167 165 163
f 163 168 167
f 167 166 165
f 168 166 167

o geometry_21
v -1.99149486 -0.49267046 3.01285134
v -1.99149486 -0.49267046 3.48785134
v -1.99050401 -0.01267149 3.01285134
v -1.99050401 -0.01267149 3.48785134
v -1.46087959 -0.49376579 3.01285134
v -1.46087959 -0.49376579 3.48785134
v -1.45988875 -0.01376681 3.01285134
v -1.45988875 -0.01376681 3.48785134
f 170 172 169
f 173 170 169
f 169 172 171
f 171 173 169
f 170 176 172
f 174 170 173
f 174 176 170
f 172 176 171
f 175 173 171
f 171 176 175
f 175 174 173
f 176 174 175

o geometry_22
v -1.43891566 -0.47600053 3.00255434
v -1.43891566 -0.47600053 3.47755434
v -1.44579570 0.00395016 3.00255434
v -1.44579570 0.00395016 3.47755434
v -0.89533104 -0.46820830 3.00255434
v -0.89533104 -0.46820830 3.47755434
v -0.90221109 0.01174239 3.00255434
v -0.90221109 0.01174239 3.47755434
f 178 180 177
f 181 178 177
f 177 180 179
f 179 181 177
f 178 184 180
f 182 178 181
f 182 184 178
f 180 184 179
f 183 181 179
f 179 184 183
f 183 182 181
f 184 182 183

o geometry_23
v -0.88135279 -0.48079365 2.98807287
v -0.88135279 -0.48079365 3.46307287
v -0.88013182 -0.00079520 2.98807287
v -0.88013182 -0.00079520 3.46307287
v -0.36360791 -0.48211063 2.98807287
v -0.36360791 -0.48211063 3.46307287
v -0.36238694 -0.00211218 2.98807287
v -0.36238694 -0.00211218 3.46307287
f 186 188 185
f 189 186 185
f 185 188 187
f 187 189 185
f 186 192 188
f 190 186 189
f 190 192 186
f 188 192 187
f 191 189 187
f 187 192 191
f 191 190 189
f 192 190 191

o geometry_24
v -0.34404283 -0.46664140 3.01828990
v -0.34404283 -0.46664140 3.49328990
v -0.34594622 0.01335482 3.01828990
v -0.34594622 0.01335482 3.49328990
v 0.18134852 -0.46455800 3.01828990
v 0.18134852 -0.46455800 3.49328990
v 0.17944512 0.01543823 3.01828990
v 0.17944512 0.01543823 3.49328990
f 194 196 193
f 197 194 193
f 193 196 195
f 195 197 193
f 194 200 196
f 198 194 197
f 198 200 194
f 196 200 195
f 199 197 195
f 195 200 199
f 199 198 197
f 200 198 199

o geometry_25
v 0.19969302 -0.48504791 3.01081252
v 0.19969302 -0.48504791 3.48581252
v 0.19711138 -0.00505485 3.01081252
v 0.19711138 -0.00505485 3.48581252
v 0.65749686 -0.48258561 3.01081252
v 0.65749686 -0.48258561 3.48581252
v 0.65491522 -0.00259256 3.01081252
v 0.65491522 -0.00259256 3.48581252
f 202 204 201
f 205 202 201
f 201 204 203
f 203 205 201
f 202 208 204
f 206 202 205
f 206 208 202
f 204 208 203
f 207 205 203
f 203 208 207
f 207 206 205
f 208 206 207

o geometry_26
v 0.67079465 -0.48263019 3.02440171
v 0.67079465 -0.48263019 3.49940171
v 0.67767499 -0.00267951 3.02440171
v 0.67767499 -0.00267951 3.49940171
v 1.16657872 -0.48973751 3.02440171
v 1.16657872 -0.48973751 3.49940171
v 1.17345906 -0.00978682 3.02440171
v 1.17345906 -0.00978682 3.49940171
f 210 212 209
f 213 210 209
f 209 212 211
f 211 213 209
f 210 216 212
f 214 210 213
f 214 216 210
f 212 216 211
f 215 213 211
f 211 216 215
f 215 214 213
f 216 214 215

o geometry_27
v 1.18625884 -0.48356461 3.03566528
v 1.18625884 -0.48356461 3.51066528
v 1.18984264 -0.00357799 3.03566528
v 1.18984264 -0.00357799 3.51066528
v 1.64412106 -0.48698323 3.03566528
v 1.64412106 -0.48698323 3.51066528
v 1.64770487 -0.00699661 3.03566528
v 1.64770487 -0.00699661 3.51066528
f 218 220 217
f 221 218 217
f 217 220 219
f 219 221 217
f 218 224 220
f 222 218 221
f 222 224 218
f 220 224 219
f 223 221 219
f 219 224 223
f 223 222 221
f 224 222 223

o geometry_28
v 1.66294119 -0.48211069 3.00350127
v 1.66294119 -0.48211069 3.47850127
v 1.66490023 -0.00211469 3.00350127
v 1.66490023 -0.00211469 3.47850127
v 1.99001912 -0.48344562 3.00350127
v 1.99001912 -0.48344562 3.47850127
v 1.99197816 -0.00344962 3.00350127
v 1.99197816 -0.00344962 3.47850127
f 226 228 225
f 229 226 225
f 225 228 227
f 227 229 225
f 226 232 228
f 230 226 229
f 230 232 226
f 228 232 227
f 231 229 227
f 227 232 231
f 231 230 229
f 232 230 231

o geometry_29
v -0.79500000 -0.60000000 0.02000000
v -0.79500000 -0.60000000 2.13000000
v -0.79500000 -0.48000000 0.02000000
v -0.79500000 -0.48000000 2.13000000
v 0.79500000 -0.60000000 0.02000000
v 0.79500000 -0.60000000 2.13000000
v 0.79500000 -0.48000000 0.02000000
v 0.79500000 -0.48000000 2.13000000
f 234 236 233
f 237 234 233
f 233 236 235
f 235 237 233
f 234 240 236
f 238 234 237
f 238 240 234
f 236 240 235
f 239 237 235
f 235 240 239
f 239 238 237
f 240 238 239

o geometry_30
v -1.04500000 -0.64000000 0.00000000
v -1.04500000 -0.64000000 2.15000000
v -1.04500000 0.02000000 0.00000000
v -1.04500000 0.02000000 2.15000000
v -0.82500000 -0.64000000 0.00000000
v -0.82500000 -0.64000000 2.15000000
v -0.82500000 0.02000000 0.00000000
v -0.82500000 0.02000000 2.15000000
f 242 244 241
f 245 242 241
f 241 244 243
f 243 245 241
f 242 248 244
f 246 242 245
f 246 248 242
f 244 248 243
f 247 245 243
f 243 248 247
f 247 246 245
f 248 246 247

o geometry_31
v 0.82500000 -0.64000000 0.00000000
v 0.82500000 -0.64000000 2.15000000
v 0.82500000 0.02000000 0.00000000
v 0.82500000 0.02000000 2.15000000
v 1.04500000 -0.64000000 0.00000000
v 1.04500000 -0.64000000 2.15000000
v 1.04500000 0.02000000 0.00000000
v 1.04500000 0.02000000 2.15000000
f 250 252 249
f 253 250 249
f 249 252 251
f 251 253 249
f 250 256 252
f 254 250 253
f 254 256 250
f 252 256 251
f 255 253 251
f 251 256 255
f 255 254 253
f 256 254 255

o geometry_32
v 1.02172029 -0.66000000 2.07046707
v 0.80332434 -0.66000000 2.09698513
v 1.02172029 0.00000000 2.07046707
v 0.80332434 0.00000000 2.09698513
v 1.05304126 -0.66000000 2.32841846
v 0.83464531 -0.66000000 2.35493653
v 1.05304126 0.00000000 2.32841846
v 0.83464531 0.00000000 2.35493653
f 258 260 257
f 261 258 257
f 257 260 259
f 259 261 257
f 258 264 260
f 262 258 261
f 262 264 258
f 260 264 259
f 263 261 259
f 259 264 263
f 263 262 261
f 264 262 263

o geometry_33
v 0.93102065 -0.66000000 2.27106893
v 0.72531708 -0.66000000 2.34908201
v 0.93102065 0.00000000 2.27106893
v 0.72531708 0.00000000 2.34908201
v 1.02316330 -0.66000000 2.51402913
v 0.81745972 -0.66000000 2.59204220
v 1.02316330 0.00000000 2.51402913
v 0.81745972 0.00000000 2.59204220
f 266 268 265
f 269 266 265
f 265 268 267
f 267 269 265
f 266 272 268
f 270 266 269
f 270 272 266
f 268 272 267
f 271 269 267
f 267 272 271
f 271 270 269
f 272 270 271

o geometry_34
v 0.78621347 -0.66000000 2.46172890
v 0.60515702 -0.66000000 2.58670314
v 0.78621347 0.00000000 2.46172890
v 0.60515702 0.00000000 2.58670314
v 0.93382281 -0.66000000 2.67557793
v 0.75276635 -0.66000000 2.80055218
v 0.93382281 0.00000000 2.67557793
v 0.75276635 0.00000000 2.80055218
f 274 276 273
f 277 274 273
f 273 276 275
f 275 277 273
f 274 280 276
f 278 274 277
f 278 280 274
f 276 280 275
f 279 277 275
f 275 280 279
f 279 278 277
f 280 278 279

o geometry_35
v 0.59571443 -0.66000000 2.63136649
v 0.44982745 -0.66000000 2.79603886
v 0.59571443 0.00000000 2.63136649
v 0.44982745 0.00000000 2.79603886
v 0.79021193 -0.66000000 2.80367624
v 0.64432494 -0.66000000 2.96834860
v 0.79021193 0.00000000 2.80367624
v 0.64432494 0.00000000 2.96834860
f 282 284 281
f 285 282 281
f 281 284 283
f 283 285 281
f 282 288 284
f 286 282 285
f 286 288 282
f 284 288 283
f 287 285 283
f 283 288 287
f 287 286 285
f 288 286 287

o geometry_36
v 0.37059463 -0.66000000 2.77012300
v 0.26835553 -0.66000000 2.96492333
v 0.37059463 0.00000000 2.77012300
v 0.26835553 0.00000000 2.96492333
v 0.60067680 -0.66000000 2.89087944
v 0.49843770 -0.66000000 3.08567977
v 0.60067680 0.00000000 2.89087944
v 0.49843770 0.00000000 3.08567977
f 290 292 289
f 293 290 289
f 289 292 291
f 291 293 289
f 290 296 292
f 294 290 293
f 294 296 290
f 292 296 291
f 295 293 291
f 291 296 295
f 295 294 293
f 296 294 295

o geometry_37
v 0.12393721 -0.66000000 2.86993439
v 0.07128777 -0.66000000 3.08354159
v 0.12393721 0.00000000 2.86993439
v 0.07128777 0.00000000 3.08354159
v 0.37623252 -0.66000000 2.93211960
v 0.32358308 -0.66000000 3.14572680
v 0.37623252 0.00000000 2.93211960
v 0.32358308 0.00000000 3.14572680
f 298 300 297
f 301 298 297
f 297 300 299
f 299 301 297
f 298 304 300
f 302 298 301
f 302 304 298
f 300 304 299
f 303 301 299
f 299 304 303
f 303 302 301
f 304 302 303

o geometry_38
v -0.12992298 -0.66000000 2.92500000
v -0.12992298 -0.66000000 3.14500000
v -0.12992298 0.00000000 2.92500000
v -0.12992298 0.00000000 3.14500000
v 0.12992298 -0.66000000 2.92500000
v 0.12992298 -0.66000000 3.14500000
v 0.12992298 0.00000000 2.92500000
v 0.12992298 0.00000000 3.14500000
f 306 308 305
f 309 306 305
f 305 308 307
f 307 309 305
f 306 312 308
f 310 306 309
f 310 312 306
f 308 312 307
f 311 309 307
f 307 312 311
f 311 310 309
f 312 310 311

o geometry_39
v -0.37623252 -0.66000000 2.93211960
v -0.32358308 -0.66000000 3.14572680
v -0.37623252 0.00000000 2.93211960
v -0.32358308 0.00000000 3.14572680
v -0.12393721 -0.66000000 2.86993439
v -0.07128777 -0.66000000 3.08354159
v -0.12393721 0.00000000 2.86993439
v -0.07128777 0.00000000 3.08354159
f 314 316 313
f 317 314 313
f 313 316 315
f 315 317 313
f 314 320 316
f 318 314 317
f 318 320 314
f 316 320 315
f 319 317 315
f 315 320 319
f 319 318 317
f 320 318 319

o geometry_40
v -0.60067680 -0.66000000 2.89087944
v -0.49843770 -0.66000000 3.08567977
v -0.60067680 0.00000000 2.89087944
v -0.49843770 0.00000000 3.08567977
v -0.37059463 -0.66000000 2.77012300
v -0.26835553 -0.66000000 2.96492333
v -0.37059463 0.00000000 2.77012300
v -0.26835553 0.00000000 2.96492333
f 322 324 321
f 325 322 321
f 321 324 323
f 323 325 321
f 322 328 324
f 326 322 325
f 326 328 322
f 324 328 323
f 327 325 323
f 323 328 327
f 327 326 325
f 328 326 327

o geometry_41
v -0.79021193 -0.66000000 2.80367624
v -0.64432494 -0.66000000 2.96834860
v -0.79021193 0.00000000 2.80367624
v -0.64432494 0.00000000 2.96834860
v -0.59571443 -0.66000000 2.63136649
v -0.44982745 -0.66000000 2.79603886
v -0.59571443 0.00000000 2.63136649
v -0.44982745 0.00000000 2.79603886
f 330 332 329
f 333 330 329
f 329 332 331
f 331 333 329
f 330 336 332
f 334 330 333
f 334 336 330
f 332 336 331
f 335 333 331
f 331 336 335
f 335 334 333
f 336 334 335

o geometry_42
v -0.93382281 -0.66000000 2.67557793
v -0.75276635 -0.66000000 2.80055218
v -0.93382281 0.00000000 2.67557793
v -0.75276635 0.00000000 2.80055218
v -0.78621347 -0.66000000 2.46172890
v -0.60515702 -0.66000000 2.58670314
v -0.78621347 0.00000000 2.46172890
v -0.60515702 0.00000000 2.58670314
f 338 340 337
f 341 338 337
f 337 340 339
f 339 341 337
f 338 344 340
f 342 338 341
f 342 344 338
f 340 344 339
f 343 341 339
f 339 344 343
f 343 342 341
f 344 342 343

o geometry_43
v -1.02316330 -0.66000000 2.51402913
v -0.81745972 -0.66000000 2.59204220
v -1.02316330 0.00000000 2.51402913
v -0.81745972 0.00000000 2.59204220
v -0.93102065 -0.66000000 2.27106893
v -0.72531708 -0.66000000 2.34908201
v -0.93102065 0.00000000 2.27106893
v -0.72531708 0.00000000 2.34908201
f 346 348 345
f 349 346 345
f 345 348 347
f 347 349 345
f 346 352 348
f 350 346 349
f 350 352 346
f 348 352 347
f 351 349 347
f 347 352 351
f 351 350 349
f 352 350 351

o geometry_44
v -1.05304126 -0.66000000 2.32841846
v -0.83464531 -0.66000000 2.35493653
v -1.05304126 0.00000000 2.32841846
v -0.83464531 0.00000000 2.35493653
v -1.02172029 -0.66000000 2.07046707
v -0.80332434 -0.66000000 2.09698513
v -1.02172029 0.00000000 2.07046707
v -0.80332434 0.00000000 2.09698513
f 354 356 353
f 357 354 353
f 353 356 355
f 355 357 353
f 354 360 356
f 358 354 357
f 358 360 354
f 356 360 355
f 359 357 355
f 355 360 359
f 359 358 357
f 360 358 359

o geometry_45
v -1.65000000 -0.32000000 0.10000000
v -1.42000000 -0.32000000 0.10000000
v -1.42000000 -0.32000000 3.35000000
v -1.65000000 -0.32000000 3.35000000
v -1.42783706 -0.26047162 0.10000000
v -1.42783706 -0.26047162 3.35000000
v -1.45081416 -0.20500000 0.10000000
v -1.45081416 -0.20500000 3.35000000
v -1.48736544 -0.15736544 0.10000000
v -1.48736544 -0.15736544 3.35000000
v -1.53500000 -0.12081416 0.10000000
v -1.53500000 -0.12081416 3.35000000
v -1.59047162 -0.09783706 0.10000000
v -1.59047162 -0.09783706 3.35000000
v -1.65000000 -0.09000000 0.10000000
v -1.65000000 -0.09000000 3.35000000
v -1.70952838 -0.09783706 0.10000000
v -1.70952838 -0.09783706 3.35000000
v -1.76500000 -0.12081416 0.10000000
v -1.76500000 -0.12081416 3.35000000
v -1.81263456 -0.15736544 0.10000000
v -1.81263456 -0.15736544 3.35000000
v -1.84918584 -0.20500000 0.10000000
v -1.84918584 -0.20500000 3.35000000
v -1.87216294 -0.26047162 0.10000000
v -1.87216294 -0.26047162 3.35000000
v -1.88000000 -0.32000000 0.10000000
v -1.88000000 -0.32000000 3.35000000
v -1.87216294 -0.37952838 0.10000000
v -1.87216294 -0.37952838 3.35000000
v -1.84918584 -0.43500000 0.10000000
v -1.84918584 -0.43500000 3.35000000
v -1.81263456 -0.48263456 0.10000000
v -1.81263456 -0.48263456 3.35000000
v -1.76500000 -0.51918584 0.10000000
v -1.76500000 -0.51918584 3.35000000
v -1.70952838 -0.54216294 0.10000000
v -1.70952838 -0.54216294 3.35000000
v -1.65000000 -0.55000000 0.10000000
v -1.65000000 -0.55000000 3.35000000
v -1.59047162 -0.54216294 0.10000000
v -1.59047162 -0.54216294 3.35000000
v -1.53500000 -0.51918584 0.10000000
v -1.53500000 -0.51918584 3.35000000
v -1.48736544 -0.48263456 0.10000000
v -1.48736544 -0.48263456 3.35000000
v -1.45081416 -0.43500000 0.10000000
v -1.45081416 -0.43500000 3.35000000
v -1.42783706 -0.37952838 0.10000000
v -1.42783706 -0.37952838 3.35000000
f 362 361 365
f 362 365 363
f 363 365 366
f 363 366 364
f 365 361 367
f 365 367 366
f 366 367 368
f 366 368 364
f 367 361 369
f 367 369 368
f 368 369 370
f 368 370 364
f 369 361 371
f 369 371 370
f 370 371 372
f 370 372 364
f 371 361 373
f 371 373 372
f 372 373 374
f 372 374 364
f 373 361 375
f 373 375 374
f 374 375 376
f 374 376 364
f 375 361 377
f 375 377 376
f 376 377 378
f 376 378 364
f 377 361 379
f 377 379 378
f 378 379 380
f 378 380 364
f 379 361 381
f 379 381 380
f 380 381 382
f 380 382 364
f 381 361 383
f 381 383 382
f 382 383 384
f 382 384 364
f 383 361 385
f 383 385 384
f 384 385 386
f 384 386 364
f 385 361 387
f 385 387 386
f 386 387 388
f 386 388 364
f 387 361 389
f 387 389 388
f 388 389 390
f 388 390 364
f 389 361 391
f 389 391 390
f 390 391 392
f 390 392 364
f 391 361 393
f 391 393 392
f 392 393 394
f 392 394 364
f 393 361 395
f 393 395 394
f 394 395 396
f 394 396 364
f 395 361 397
f 395 397 396
f 396 397 398
f 396 398 364
f 397 361 399
f 397 399 398
f 398 399 400
f 398 400 364
f 399 361 401
f 399 401 400
f 400 401 402
f 400 402 364
f 401 361 403
f 401 403 402
f 402 403 404
f 402 404 364
f 403 361 405
f 403 405 404
f 404 405 406
f 404 406 364
f 405 361 407
f 405 407 406
f 406 407 408
f 406 408 364
f 407 361 409
f 407 409 408
f 408 409 410
f 408 410 364
f 409 361 362
f 409 362 410
f 410 362 363
f 410 363 364

o geometry_46
v -1.65000000 -0.32000000 0.10000000
v -1.35560000 -0.32000000 0.10000000
v -1.35560000 -0.32000000 0.26000000
v -1.65000000 -0.32000000 0.26000000
v -1.36563144 -0.24380367 0.10000000
v -1.36563144 -0.24380367 0.26000000
v -1.39504212 -0.17280000 0.10000000
v -1.39504212 -0.17280000 0.26000000
v -1.44182776 -0.11182776 0.10000000
v -1.44182776 -0.11182776 0.26000000
v -1.50280000 -0.06504212 0.10000000
v -1.50280000 -0.06504212 0.26000000
v -1.57380367 -0.03563144 0.10000000
v -1.57380367 -0.03563144 0.26000000
v -1.65000000 -0.02560000 0.10000000
v -1.65000000 -0.02560000 0.26000000
v -1.72619633 -0.03563144 0.10000000
v -1.72619633 -0.03563144 0.26000000
v -1.79720000 -0.06504212 0.10000000
v -1.79720000 -0.06504212 0.26000000
v -1.85817224 -0.11182776 0.10000000
v -1.85817224 -0.11182776 0.26000000
v -1.90495788 -0.17280000 0.10000000
v -1.90495788 -0.17280000 0.26000000
v -1.93436856 -0.24380367 0.10000000
v -1.93436856 -0.24380367 0.26000000
v -1.94440000 -0.32000000 0.10000000
v -1.94440000 -0.32000000 0.26000000
v -1.93436856 -0.39619633 0.10000000
v -1.93436856 -0.39619633 0.26000000
v -1.90495788 -0.46720000 0.10000000
v -1.90495788 -0.46720000 0.26000000
v -1.85817224 -0.52817224 0.10000000
v -1.85817224 -0.52817224 0.26000000
v -1.79720000 -0.57495788 0.10000000
v -1.79720000 -0.57495788 0.26000000
v -1.72619633 -0.60436856 0.10000000
v -1.72619633 -0.60436856 0.26000000
v -1.65000000 -0.61440000 0.10000000
v -1.65000000 -0.61440000 0.26000000
v -1.57380367 -0.60436856 0.10000000
v -1.57380367 -0.60436856 0.26000000
v -1.50280000 -0.57495788 0.10000000
v -1.50280000 -0.57495788 0.26000000
v -1.44182776 -0.52817224 0.10000000
v -1.44182776 -0.52817224 0.26000000
v -1.39504212 -0.46720000 0.10000000
v -1.39504212 -0.46720000 0.26000000
v -1.36563144 -0.39619633 0.10000000
v -1.36563144 -0.39619633 0.26000000
f 412 411 415
f 412 415 413
f 413 415 416
f 413 416 414
f 415 411 417
f 415 417 416
f 416 417 418
f 416 418 414
f 417 411 419
f 417 419 418
f 418 419 420
f 418 420 414
f 419 411 421
f 419 421 420
f 420 421 422
f 420 422 414
f 421 411 423
f 421 423 422
f 422 423 424
f 422 424 414
f 423 411 425
f 423 425 424
f 424 425 426
f 424 426 414
f 425 411 427
f 425 427 426
f 426 427 428
f 426 428 414
f 427 411 429
f 427 429 428
f 428 429 430
f 428 430 414
f 429 411 431
f 429 431 430
f 430 431 432
f 430 432 414
f 431 411 433
f 431 433 432
f 432 433 434
f 432 434 414
f 433 411 435
f 433 435 434
f 434 435 436
f 434 436 414
f 435 411 437
f 435 437 436
f 436 437 438
f 436 438 414
f 437 411 439
f 437 439 438
f 438 439 440
f 438 440 414
f 439 411 441
f 439 441 440
f 440 441 442
f 440 442 414
f 441 411 443
f 441 443 442
f 442 443 444
f 442 444 414
f 443 411 445
f 443 445 444
f 444 445 446
f 444 446 414
f 445 411 447
f 445 447 446
f 446 447 448
f 446 448 414
f 447 411 449
f 447 449 448
f 448 449 450
f 448 450 414
f 449 411 451
f 449 451 450
f 450 451 452
f 450 452 414
f 451 411 453
f 451 453 452
f 452 453 454
f 452 454 414
f 453 411 455
f 453 455 454
f 454 455 456
f 454 456 414
f 455 411 457
f 455 457 456
f 456 457 458
f 456 458 414
f 457 411 459
f 457 459 458
f 458 459 460
f 458 460 414
f 459 411 412
f 459 412 460
f 460 412 413
f 460 413 414

o geometry_47
v -1.65000000 -0.32000000 3.18000000
v -1.36940000 -0.32000000 3.18000000
v -1.36940000 -0.32000000 3.36000000
v -1.65000000 -0.32000000 3.36000000
v -1.37896121 -0.24737538 3.18000000
v -1.37896121 -0.24737538 3.36000000
v -1.40699327 -0.17970000 3.18000000
v -1.40699327 -0.17970000 3.36000000
v -1.45158584 -0.12158584 3.18000000
v -1.45158584 -0.12158584 3.36000000
v -1.50970000 -0.07699327 3.18000000
v -1.50970000 -0.07699327 3.36000000
v -1.57737538 -0.04896121 3.18000000
v -1.57737538 -0.04896121 3.36000000
v -1.65000000 -0.03940000 3.18000000
v -1.65000000 -0.03940000 3.36000000
v -1.72262462 -0.04896121 3.18000000
v -1.72262462 -0.04896121 3.36000000
v -1.79030000 -0.07699327 3.18000000
v -1.79030000 -0.07699327 3.36000000
v -1.84841416 -0.12158584 3.18000000
v -1.84841416 -0.12158584 3.36000000
v -1.89300673 -0.17970000 3.18000000
v -1.89300673 -0.17970000 3.36000000
v -1.92103879 -0.24737538 3.18000000
v -1.92103879 -0.24737538 3.36000000
v -1.93060000 -0.32000000 3.18000000
v -1.93060000 -0.32000000 3.36000000
v -1.92103879 -0.39262462 3.18000000
v -1.92103879 -0.39262462 3.36000000
v -1.89300673 -0.46030000 3.18000000
v -1.89300673 -0.46030000 3.36000000
v -1.84841416 -0.51841416 3.18000000
v -1.84841416 -0.51841416 3.36000000
v -1.79030000 -0.56300673 3.18000000
v -1.79030000 -0.56300673 3.36000000
v -1.72262462 -0.59103879 3.18000000
v -1.72262462 -0.59103879 3.36000000
v -1.65000000 -0.60060000 3.18000000
v -1.65000000 -0.60060000 3.36000000
v -1.57737538 -0.59103879 3.18000000
v -1.57737538 -0.59103879 3.36000000
v -1.50970000 -0.56300673 3.18000000
v -1.50970000 -0.56300673 3.36000000
v -1.45158584 -0.51841416 3.18000000
v -1.45158584 -0.51841416 3.36000000
v -1.40699327 -0.46030000 3.18000000
v -1.40699327 -0.46030000 3.36000000
v -1.37896121 -0.39262462 3.18000000
v -1.37896121 -0.39262462 3.36000000
f 462 461 465
f 462 465 463
f 463 465 466
f 463 466 464
f 465 461 467
f 465 467 466
f 466 467 468
f 466 468 464
f 467 461 469
f 467 469 468
f 468 469 470
f 468 470 464
f 469 461 471
f 469 471 470
f 470 471 472
f 470 472 464
f 471 461 473
f 471 473 472
f 472 473 474
f 472 474 464
f 473 461 475
f 473 475 474
f 474 475 476
f 474 476 464
f 475 461 477
f 475 477 476
f 476 477 478
f 476 478 464
f 477 461 479
f 477 479 478
f 478 479 480
f 478 480 464
f 479 461 481
f 479 481 480
f 480 481 482
f 480 482 464
f 481 461 483
f 481 483 482
f 482 483 484
f 482 484 464
f 483 461 485
f 483 485 484
f 484 485 486
f 484 486 464
f 485 461 487
f 485 487 486
f 486 487 488
f 486 488 464
f 487 461 489
f 487 489 488
f 488 489 490
f 488 490 464
f 489 461 491
f 489 491 490
f 490 491 492
f 490 492 464
f 491 461 493
f 491 493 492
f 492 493 494
f 492 494 464
f 493 461 495
f 493 495 494
f 494 495 496
f 494 496 464
f 495 461 497
f 495 497 496
f 496 497 498
f 496 498 464
f 497 461 499
f 497 499 498
f 498 499 500
f 498 500 464
f 499 461 501
f 499 501 500
f 500 501 502
f 500 502 464
f 501 461 503
f 501 503 502
f 502 503 504
f 502 504 464
f 503 461 505
f 503 505 504
f 504 505 506
f 504 506 464
f 505 461 507
f 505 507 506
f 506 507 508
f 506 508 464
f 507 461 509
f 507 509 508
f 508 509 510
f 508 510 464
f 509 461 462
f 509 462 510
f 510 462 463
f 510 463 464

o geometry_48
v -1.93750000 -0.67000000 3.11000000
v -1.93750000 -0.67000000 3.27000000
v -1.93750000 0.03000000 3.11000000
v -1.93750000 0.03000000 3.27000000
v -1.36250000 -0.67000000 3.11000000
v -1.36250000 -0.67000000 3.27000000
v -1.36250000 0.03000000 3.11000000
v -1.36250000 0.03000000 3.27000000
f 512 514 511
f 515 512 511
f 511 514 513
f 513 515 511
f 512 518 514
f 516 512 515
f 516 518 512
f 514 518 513
f 517 515 513
f 513 518 517
f 517 516 515
f 518 516 517

o geometry_49
v 1.65000000 -0.32000000 0.10000000
v 1.88000000 -0.32000000 0.10000000
v 1.88000000 -0.32000000 3.35000000
v 1.65000000 -0.32000000 3.35000000
v 1.87216294 -0.26047162 0.10000000
v 1.87216294 -0.26047162 3.35000000
v 1.84918584 -0.20500000 0.10000000
v 1.84918584 -0.20500000 3.35000000
v 1.81263456 -0.15736544 0.10000000
v 1.81263456 -0.15736544 3.35000000
v 1.76500000 -0.12081416 0.10000000
v 1.76500000 -0.12081416 3.35000000
v 1.70952838 -0.09783706 0.10000000
v 1.70952838 -0.09783706 3.35000000
v 1.65000000 -0.09000000 0.10000000
v 1.65000000 -0.09000000 3.35000000
v 1.59047162 -0.09783706 0.10000000
v 1.59047162 -0.09783706 3.35000000
v 1.53500000 -0.12081416 0.10000000
v 1.53500000 -0.12081416 3.35000000
v 1.48736544 -0.15736544 0.10000000
v 1.48736544 -0.15736544 3.35000000
v 1.45081416 -0.20500000 0.10000000
v 1.45081416 -0.20500000 3.35000000
v 1.42783706 -0.26047162 0.10000000
v 1.42783706 -0.26047162 3.35000000
v 1.42000000 -0.32000000 0.10000000
v 1.42000000 -0.32000000 3.35000000
v 1.42783706 -0.37952838 0.10000000
v 1.42783706 -0.37952838 3.35000000
v 1.45081416 -0.43500000 0.10000000
v 1.45081416 -0.43500000 3.35000000
v 1.48736544 -0.48263456 0.10000000
v 1.48736544 -0.48263456 3.35000000
v 1.53500000 -0.51918584 0.10000000
v 1.53500000 -0.51918584 3.35000000
v 1.59047162 -0.54216294 0.10000000
v 1.59047162 -0.54216294 3.35000000
v 1.65000000 -0.55000000 0.10000000
v 1.65000000 -0.55000000 3.35000000
v 1.70952838 -0.54216294 0.10000000
v 1.70952838 -0.54216294 3.35000000
v 1.76500000 -0.51918584 0.10000000
v 1.76500000 -0.51918584 3.35000000
v 1.81263456 -0.48263456 0.10000000
v 1.81263456 -0.48263456 3.35000000
v 1.84918584 -0.43500000 0.10000000
v 1.84918584 -0.43500000 3.35000000
v 1.87216294 -0.37952838 0.10000000
v 1.87216294 -0.37952838 3.35000000
f 520 519 523
f 520 523 521
f 521 523 524
f 521 524 522
f 523 519 525
f 523 525 524
f 524 525 526
f 524 526 522
f 525 519 527
f 525 527 526
f 526 527 528
f 526 528 522
f 527 519 529
f 527 529 528
f 528 529 530
f 528 530 522
f 529 519 531
f 529 531 530
f 530 531 532
f 530 532 522
f 531 519 533
f 531 533 532
f 532 533 534
f 532 534 522
f 533 519 535
f 533 535 534
f 534 535 536
f 534 536 522
f 535 519 537
f 535 537 536
f 536 537 538
f 536 538 522
f 537 519 539
f 537 539 538
f 538 539 540
f 538 540 522
f 539 519 541
f 539 541 540
f 540 541 542
f 540 542 522
f 541 519 543
f 541 543 542
f 542 543 544
f 542 544 522
f 543 519 545
f 543 545 544
f 544 545 546
f 544 546 522
f 545 519 547
f 545 547 546
f 546 547 548
f 546 548 522
f 547 519 549
f 547 549 548
f 548 549 550
f 548 550 522
f 549 519 551
f 549 551 550
f 550 551 552
f 550 552 522
f 551 519 553
f 551 553 552
f 552 553 554
f 552 554 522
f 553 519 555
f 553 555 554
f 554 555 556
f 554 556 522
f 555 519 557
f 555 557 556
f 556 557 558
f 556 558 522
f 557 519 559
f 557 559 558
f 558 559 560
f 558 560 522
f 559 519 561
f 559 561 560
f 560 561 562
f 560 562 522
f 561 519 563
f 561 563 562
f 562 563 564
f 562 564 522
f 563 519 565
f 563 565 564
f 564 565 566
f 564 566 522
f 565 519 567
f 565 567 566
f 566 567 568
f 566 568 522
f 567 519 520
f 567 520 568
f 568 520 521
f 568 521 522

o geometry_50
v 1.65000000 -0.32000000 0.10000000
v 1.94440000 -0.32000000 0.10000000
v 1.94440000 -0.32000000 0.26000000
v 1.65000000 -0.32000000 0.26000000
v 1.93436856 -0.24380367 0.10000000
v 1.93436856 -0.24380367 0.26000000
v 1.90495788 -0.17280000 0.10000000
v 1.90495788 -0.17280000 0.26000000
v 1.85817224 -0.11182776 0.10000000
v 1.85817224 -0.11182776 0.26000000
v 1.79720000 -0.06504212 0.10000000
v 1.79720000 -0.06504212 0.26000000
v 1.72619633 -0.03563144 0.10000000
v 1.72619633 -0.03563144 0.26000000
v 1.65000000 -0.02560000 0.10000000
v 1.65000000 -0.02560000 0.26000000
v 1.57380367 -0.03563144 0.10000000
v 1.57380367 -0.03563144 0.26000000
v 1.50280000 -0.06504212 0.10000000
v 1.50280000 -0.06504212 0.26000000
v 1.44182776 -0.11182776 0.10000000
v 1.44182776 -0.11182776 0.26000000
v 1.39504212 -0.17280000 0.10000000
v 1.39504212 -0.17280000 0.26000000
v 1.36563144 -0.24380367 0.10000000
v 1.36563144 -0.24380367 0.26000000
v 1.35560000 -0.32000000 0.10000000
v 1.35560000 -0.32000000 0.26000000
v 1.36563144 -0.39619633 0.10000000
v 1.36563144 -0.39619633 0.26000000
v 1.39504212 -0.46720000 0.10000000
v 1.39504212 -0.46720000 0.26000000
v 1.44182776 -0.52817224 0.10000000
v 1.44182776 -0.52817224 0.26000000
v 1.50280000 -0.57495788 0.10000000
v 1.50280000 -0.57495788 0.26000000
v 1.57380367 -0.60436856 0.10000000
v 1.57380367 -0.60436856 0.26000000
v 1.65000000 -0.61440000 0.10000000
v 1.65000000 -0.61440000 0.26000000
v 1.72619633 -0.60436856 0.10000000
v 1.72619633 -0.60436856 0.26000000
v 1.79720000 -0.57495788 0.10000000
v 1.79720000 -0.57495788 0.26000000
v 1.85817224 -0.52817224 0.10000000
v 1.85817224 -0.52817224 0.26000000
v 1.90495788 -0.46720000 0.10000000
v 1.90495788 -0.46720000 0.26000000
v 1.93436856 -0.39619633 0.10000000
v 1.93436856 -0.39619633 0.26000000
f 570 569 573
f 570 573 571
f 571 573 574
f 571 574 572
f 573 569 575
f 573 575 574
f 574 575 576
f 574 576 572
f 575 569 577
f 575 577 576
f 576 577 578
f 576 578 572
f 577 569 579
f 577 579 578
f 578 579 580
f 578 580 572
f 579 569 581
f 579 581 580
f 580 581 582
f 580 582 572
f 581 569 583
f 581 583 582
f 582 583 584
f 582 584 572
f 583 569 585
f 583 585 584
f 584 585 586
f 584 586 572
f 585 569 587
f 585 587 586
f 586 587 588
f 586 588 572
f 587 569 589
f 587 589 588
f 588 589 590
f 588 590 572
f 589 569 591
f 589 591 590
f 590 591 592
f 590 592 572
f 591 569 593
f 591 593 592
f 592 593 594
f 592 594 572
f 593 569 595
f 593 595 594
f 594 595 596
f 594 596 572
f 595 569 597
f 595 597 596
f 596 597 598
f 596 598 572
f 597 569 599
f 597 599 598
f 598 599 600
f 598 600 572
f 599 569 601
f 599 601 600
f 600 601 602
f 600 602 572
f 601 569 603
f 601 603 602
f 602 603 604
f 602 604 572
f 603 569 605
f 603 605 604
f 604 605 606
f 604 606 572
f 605 569 607
f 605 607 606
f 606 607 608
f 606 608 572
f 607 569 609
f 607 609 608
f 608 609 610
f 608 610 572
f 609 569 611
f 609 611 610
f 610 611 612
f 610 612 572
f 611 569 613
f 611 613 612
f 612 613 614
f 612 614 572
f 613 569 615
f 613 615 614
f 614 615 616
f 614 616 572
f 615 569 617
f 615 617 616
f 616 617 618
f 616 618 572
f 617 569 570
f 617 570 618
f 618 570 571
f 618 571 572

o geometry_51
v 1.65000000 -0.32000000 3.18000000
v 1.93060000 -0.32000000 3.18000000
v 1.93060000 -0.32000000 3.36000000
v 1.65000000 -0.32000000 3.36000000
v 1.92103879 -0.24737538 3.18000000
v 1.92103879 -0.24737538 3.36000000
v 1.89300673 -0.17970000 3.18000000
v 1.89300673 -0.17970000 3.36000000
v 1.84841416 -0.12158584 3.18000000
v 1.84841416 -0.12158584 3.36000000
v 1.79030000 -0.07699327 3.18000000
v 1.79030000 -0.07699327 3.36000000
v 1.72262462 -0.04896121 3.18000000
v 1.72262462 -0.04896121 3.36000000
v 1.65000000 -0.03940000 3.18000000
v 1.65000000 -0.03940000 3.36000000
v 1.57737538 -0.04896121 3.18000000
v 1.57737538 -0.04896121 3.36000000
v 1.50970000 -0.07699327 3.18000000
v 1.50970000 -0.07699327 3.36000000
v 1.45158584 -0.12158584 3.18000000
v 1.45158584 -0.12158584 3.36000000
v 1.40699327 -0.17970000 3.18000000
v 1.40699327 -0.17970000 3.36000000
v 1.37896121 -0.24737538 3.18000000
v 1.37896121 -0.24737538 3.36000000
v 1.36940000 -0.32000000 3.18000000
v 1.36940000 -0.32000000 3.36000000
v 1.37896121 -0.39262462 3.18000000
v 1.37896121 -0.39262462 3.36000000
v 1.40699327 -0.46030000 3.18000000
v 1.40699327 -0.46030000 3.36000000
v 1.45158584 -0.51841416 3.18000000
v 1.45158584 -0.51841416 3.36000000
v 1.50970000 -0.56300673 3.18000000
v 1.50970000 -0.56300673 3.36000000
v 1.57737538 -0.59103879 3.18000000
v 1.57737538 -0.59103879 3.36000000
v 1.65000000 -0.60060000 3.18000000
v 1.65000000 -0.60060000 3.36000000
v 1.72262462 -0.59103879 3.18000000
v 1.72262462 -0.59103879 3.36000000
v 1.79030000 -0.56300673 3.18000000
v 1.79030000 -0.56300673 3.36000000
v 1.84841416 -0.51841416 3.18000000
v 1.84841416 -0.51841416 3.36000000
v 1.89300673 -0.46030000 3.18000000
v 1.89300673 -0.46030000 3.36000000
v 1.92103879 -0.39262462 3.18000000
v 1.92103879 -0.39262462 3.36000000
f 620 619 623
f 620 623 621
f 621 623 624
f 621 624 622
f 623 619 625
f 623 625 624
f 624 625 626
f 624 626 622
f 625 619 627
f 625 627 626
f 626 627 628
f 626 628 622
f 627 619 629
f 627 629 628
f 628 629 630
f 628 630 622
f 629 619 631
f 629 631 630
f 630 631 632
f 630 632 622
f 631 619 633
f 631 633 632
f 632 633 634
f 632 634 622
f 633 619 635
f 633 635 634
f 634 635 636
f 634 636 622
f 635 619 637
f 635 637 636
f 636 637 638
f 636 638 622
f 637 619 639
f 637 639 638
f 638 639 640
f 638 640 622
f 639 619 641
f 639 641 640
f 640 641 642
f 640 642 622
f 641 619 643
f 641 643 642
f 642 643 644
f 642 644 622
f 643 619 645
f 643 645 644
f 644 645 646
f 644 646 622
f 645 619 647
f 645 647 646
f 646 647 648
f 646 648 622
f 647 619 649
f 647 649 648
f 648 649 650
f 648 650 622
f 649 619 651
f 649 651 650
f 650 651 652
f 650 652 622
f 651 619 653
f 651 653 652
f 652 653 654
f 652 654 622
f 653 619 655
f 653 655 654
f 654 655 656
f 654 656 622
f 655 619 657
f 655 657 656
f 656 657 658
f 656 658 622
f 657 619 659
f 657 659 658
f 658 659 660
f 658 660 622
f 659 619 661
f 659 661 660
f 660 661 662
f 660 662 622
f 661 619 663
f 661 663 662
f 662 663 664
f 662 664 622
f 663 619 665
f 663 665 664
f 664 665 666
f 664 666 622
f 665 619 667
f 665 667 666
f 666 667 668
f 666 668 622
f 667 619 620
f 667 620 668
f 668 620 621
f 668 621 622

o geometry_52
v 1.36250000 -0.67000000 3.11000000
v 1.36250000 -0.67000000 3.27000000
v 1.36250000 0.03000000 3.11000000
v 1.36250000 0.03000000 3.27000000
v 1.93750000 -0.67000000 3.11000000
v 1.93750000 -0.67000000 3.27000000
v 1.93750000 0.03000000 3.11000000
v 1.93750000 0.03000000 3.27000000
f 670 672 669
f 673 670 669
f 669 672 671
f 671 673 669
f 670 676 672
f 674 670 673
f 674 676 670
f 672 676 671
f 675 673 671
f 671 676 675
f 675 674 673
f 676 674 675

o geometry_53
v -1.99000000 -0.66000000 2.63000000
v -1.99000000 -0.66000000 2.81000000
v -1.99000000 -0.58000000 2.63000000
v -1.99000000 -0.58000000 2.81000000
v -1.57000000 -0.66000000 2.63000000
v -1.57000000 -0.66000000 2.81000000
v -1.57000000 -0.58000000 2.63000000
v -1.57000000 -0.58000000 2.81000000
f 678 680 677
f 681 678 677
f 677 680 679
f 679 681 677
f 678 684 680
f 682 678 681
f 682 684 678
f 680 684 679
f 683 681 679
f 679 684 683
f 683 682 681
f 684 682 683

o geometry_54
v -1.89550000 -0.73000000 2.76000000
v -1.89550000 -0.73000000 2.84000000
v -1.89550000 -0.63000000 2.76000000
v -1.89550000 -0.63000000 2.84000000
v -1.66450000 -0.73000000 2.76000000
v -1.66450000 -0.73000000 2.84000000
v -1.66450000 -0.63000000 2.76000000
v -1.66450000 -0.63000000 2.84000000
f 686 688 685
f 689 686 685
f 685 688 687
f 687 689 685
f 686 692 688
f 690 686 689
f 690 692 686
f 688 692 687
f 691 689 687
f 687 692 691
f 691 690 689
f 692 690 691

o geometry_55
v -1.57000000 -0.66000000 2.63000000
v -1.57000000 -0.66000000 2.81000000
v -1.57000000 -0.58000000 2.63000000
v -1.57000000 -0.58000000 2.81000000
v -1.15000000 -0.66000000 2.63000000
v -1.15000000 -0.66000000 2.81000000
v -1.15000000 -0.58000000 2.63000000
v -1.15000000 -0.58000000 2.81000000
f 694 696 693
f 697 694 693
f 693 696 695
f 695 697 693
f 694 700 696
f 698 694 697
f 698 700 694
f 696 700 695
f 699 697 695
f 695 700 699
f 699 698 697
f 700 698 699

o geometry_56
v -1.47550000 -0.73000000 2.60000000
v -1.47550000 -0.73000000 2.68000000
v -1.47550000 -0.63000000 2.60000000
v -1.47550000 -0.63000000 2.68000000
v -1.24450000 -0.73000000 2.60000000
v -1.24450000 -0.73000000 2.68000000
v -1.24450000 -0.63000000 2.60000000
v -1.24450000 -0.63000000 2.68000000
f 702 704 701
f 705 702 701
f 701 704 703
f 703 705 701
f 702 708 704
f 706 702 705
f 706 708 702
f 704 708 703
f 707 705 703
f 703 708 707
f 707 706 705
f 708 706 707

o geometry_57
v -1.15000000 -0.66000000 2.63000000
v -1.15000000 -0.66000000 2.81000000
v -1.15000000 -0.58000000 2.63000000
v -1.15000000 -0.58000000 2.81000000
v -0.73000000 -0.66000000 2.63000000
v -0.73000000 -0.66000000 2.81000000
v -0.73000000 -0.58000000 2.63000000
v -0.73000000 -0.58000000 2.81000000
f 710 712 709
f 713 710 709
f 709 712 711
f 711 713 709
f 710 716 712
f 714 710 713
f 714 716 710
f 712 716 711
f 715 713 711
f 711 716 715
f 715 714 713
f 716 714 715

o geometry_58
v -1.05550000 -0.73000000 2.76000000
v -1.05550000 -0.73000000 2.84000000
v -1.05550000 -0.63000000 2.76000000
v -1.05550000 -0.63000000 2.84000000
v -0.82450000 -0.73000000 2.76000000
v -0.82450000 -0.73000000 2.84000000
v -0.82450000 -0.63000000 2.76000000
v -0.82450000 -0.63000000 2.84000000
f 718 720 717
f 721 718 717
f 717 720 719
f 719 721 717
f 718 724 720
f 722 718 721
f 722 724 718
f 720 724 719
f 723 721 719
f 719 724 723
f 723 722 721
f 724 722 723

o geometry_59
v -0.73000000 -0.66000000 2.63000000
v -0.73000000 -0.66000000 2.81000000
v -0.73000000 -0.58000000 2.63000000
v -0.73000000 -0.58000000 2.81000000
v -0.31000000 -0.66000000 2.63000000
v -0.31000000 -0.66000000 2.81000000
v -0.31000000 -0.58000000 2.63000000
v -0.31000000 -0.58000000 2.81000000
f 726 728 725
f 729 726 725
f 725 728 727
f 727 729 725
f 726 732 728
f 730 726 729
f 730 732 726
f 728 732 727
f 731 729 727
f 727 732 731
f 731 730 729
f 732 730 731

o geometry_60
v -0.63550000 -0.73000000 2.60000000
v -0.63550000 -0.73000000 2.68000000
v -0.63550000 -0.63000000 2.60000000
v -0.63550000 -0.63000000 2.68000000
v -0.40450000 -0.73000000 2.60000000
v -0.40450000 -0.73000000 2.68000000
v -0.40450000 -0.63000000 2.60000000
v -0.40450000 -0.63000000 2.68000000
f 734 736 733
f 737 734 733
f 733 736 735
f 735 737 733
f 734 740 736
f 738 734 737
f 738 740 734
f 736 740 735
f 739 737 735
f 735 740 739
f 739 738 737
f 740 738 739

o geometry_61
v -0.31000000 -0.66000000 2.63000000
v -0.31000000 -0.66000000 2.81000000
v -0.31000000 -0.58000000 2.63000000
v -0.31000000 -0.58000000 2.81000000
v 0.11000000 -0.66000000 2.63000000
v 0.11000000 -0.66000000 2.81000000
v 0.11000000 -0.58000000 2.63000000
v 0.11000000 -0.58000000 2.81000000
f 742 744 741
f 745 742 741
f 741 744 743
f 743 745 741
f 742 748 744
f 746 742 745
f 746 748 742
f 744 748 743
f 747 745 743
f 743 748 747
f 747 746 745
f 748 746 747

o geometry_62
v -0.21550000 -0.73000000 2.76000000
v -0.21550000 -0.73000000 2.84000000
v -0.21550000 -0.63000000 2.76000000
v -0.21550000 -0.63000000 2.84000000
v 0.01550000 -0.73000000 2.76000000
v 0.01550000 -0.73000000 2.84000000
v 0.01550000 -0.63000000 2.76000000
v 0.01550000 -0.63000000 2.84000000
f 750 752 749
f 753 750 749
f 749 752 751
f 751 753 749
f 750 756 752
f 754 750 753
f 754 756 750
f 752 756 751
f 755 753 751
f 751 756 755
f 755 754 753
f 756 754 755

o geometry_63
v 0.11000000 -0.66000000 2.63000000
v 0.11000000 -0.66000000 2.81000000
v 0.11000000 -0.58000000 2.63000000
v 0.11000000 -0.58000000 2.81000000
v 0.53000000 -0.66000000 2.63000000
v 0.53000000 -0.66000000 2.81000000
v 0.53000000 -0.58000000 2.63000000
v 0.53000000 -0.58000000 2.81000000
f 758 760 757
f 761 758 757
f 757 760 759
f 759 761 757
f 758 764 760
f 762 758 761
f 762 764 758
f 760 764 759
f 763 761 759
f 759 764 763
f 763 762 761
f 764 762 763

o geometry_64
v 0.20450000 -0.73000000 2.60000000
v 0.20450000 -0.73000000 2.68000000
v 0.20450000 -0.63000000 2.60000000
v 0.20450000 -0.63000000 2.68000000
v 0.43550000 -0.73000000 2.60000000
v 0.43550000 -0.73000000 2.68000000
v 0.43550000 -0.63000000 2.60000000
v 0.43550000 -0.63000000 2.68000000
f 766 768 765
f 769 766 765
f 765 768 767
f 767 769 765
f 766 772 768
f 770 766 769
f 770 772 766
f 768 772 767
f 771 769 767
f 767 772 771
f 771 770 769
f 772 770 771

o geometry_65
v 0.53000000 -0.66000000 2.63000000
v 0.53000000 -0.66000000 2.81000000
v 0.53000000 -0.58000000 2.63000000
v 0.53000000 -0.58000000 2.81000000
v 0.95000000 -0.66000000 2.63000000
v 0.95000000 -0.66000000 2.81000000
v 0.95000000 -0.58000000 2.63000000
v 0.95000000 -0.58000000 2.81000000
f 774 776 773
f 777 774 773
f 773 776 775
f 775 777 773
f 774 780 776
f 778 774 777
f 778 780 774
f 776 780 775
f 779 777 775
f 775 780 779
f 779 778 777
f 780 778 779

o geometry_66
v 0.62450000 -0.73000000 2.76000000
v 0.62450000 -0.73000000 2.84000000
v 0.62450000 -0.63000000 2.76000000
v 0.62450000 -0.63000000 2.84000000
v 0.85550000 -0.73000000 2.76000000
v 0.85550000 -0.73000000 2.84000000
v 0.85550000 -0.63000000 2.76000000
v 0.85550000 -0.63000000 2.84000000
f 782 784 781
f 785 782 781
f 781 784 783
f 783 785 781
f 782 788 784
f 786 782 785
f 786 788 782
f 784 788 783
f 787 785 783
f 783 788 787
f 787 786 785
f 788 786 787

o geometry_67
v 0.95000000 -0.66000000 2.63000000
v 0.95000000 -0.66000000 2.81000000
v 0.95000000 -0.58000000 2.63000000
v 0.95000000 -0.58000000 2.81000000
v 1.37000000 -0.66000000 2.63000000
v 1.37000000 -0.66000000 2.81000000
v 1.37000000 -0.58000000 2.63000000
v 1.37000000 -0.58000000 2.81000000
f 790 792 789
f 793 790 789
f 789 792 791
f 791 793 789
f 790 796 792
f 794 790 793
f 794 796 790
f 792 796 791
f 795 793 791
f 791 796 795
f 795 794 793
f 796 794 795

o geometry_68
v 1.04450000 -0.73000000 2.60000000
v 1.04450000 -0.73000000 2.68000000
v 1.04450000 -0.63000000 2.60000000
v 1.04450000 -0.63000000 2.68000000
v 1.27550000 -0.73000000 2.60000000
v 1.27550000 -0.73000000 2.68000000
v 1.27550000 -0.63000000 2.60000000
v 1.27550000 -0.63000000 2.68000000
f 798 800 797
f 801 798 797
f 797 800 799
f 799 801 797
f 798 804 800
f 802 798 801
f 802 804 798
f 800 804 799
f 803 801 799
f 799 804 803
f 803 802 801
f 804 802 803

o geometry_69
v 1.37000000 -0.66000000 2.63000000
v 1.37000000 -0.66000000 2.81000000
v 1.37000000 -0.58000000 2.63000000
v 1.37000000 -0.58000000 2.81000000
v 1.79000000 -0.66000000 2.63000000
v 1.79000000 -0.66000000 2.81000000
v 1.79000000 -0.58000000 2.63000000
v 1.79000000 -0.58000000 2.81000000
f 806 808 805
f 809 806 805
f 805 808 807
f 807 809 805
f 806 812 808
f 810 806 809
f 810 812 806
f 808 812 807
f 811 809 807
f 807 812 811
f 811 810 809
f 812 810 811

o geometry_70
v 1.46450000 -0.73000000 2.76000000
v 1.46450000 -0.73000000 2.84000000
v 1.46450000 -0.63000000 2.76000000
v 1.46450000 -0.63000000 2.84000000
v 1.69550000 -0.73000000 2.76000000
v 1.69550000 -0.73000000 2.84000000
v 1.69550000 -0.63000000 2.76000000
v 1.69550000 -0.63000000 2.84000000
f 814 816 813
f 817 814 813
f 813 816 815
f 815 817 813
f 814 820 816
f 818 814 817
f 818 820 814
f 816 820 815
f 819 817 815
f 815 820 819
f 819 818 817
f 820 818 819

o geometry_71
v -1.46814140 -0.33494892 0.09284186
v -1.31795723 -0.33494892 0.09284186
v -1.46814140 -0.50505108 0.09284186
v -1.31795723 -0.50505108 0.09284186
v -1.39304932 -0.47256446 0.21203007
v -1.39304932 -0.36743554 0.21203007
v -1.39304932 -0.47256446 -0.02634635
v -1.39304932 -0.36743554 -0.02634635
v -1.27154777 -0.42000000 0.01917950
v -1.27154777 -0.42000000 0.16650423
v -1.51455086 -0.42000000 0.01917950
v -1.51455086 -0.42000000 0.16650423
v -1.39304932 -0.32001646 0.09284186
v -1.39304932 -0.51998354 0.09284186
v -1.43718734 -0.50088839 0.16289893
v -1.34891130 -0.50088839 0.16289893
v -1.43718734 -0.33911161 0.16289893
v -1.34891130 -0.33911161 0.16289893
v -1.39304932 -0.42000000 0.23295601
v -1.43718734 -0.50088839 0.02278479
v -1.34891130 -0.50088839 0.02278479
v -1.43718734 -0.33911161 0.02278479
v -1.34891130 -0.33911161 0.02278479
v -1.39304932 -0.42000000 -0.04727228
v -1.27749448 -0.37000823 0.04954421
v -1.27749448 -0.46999177 0.04954421
v -1.32163250 -0.45089661 -0.02051286
v -1.32163250 -0.38910339 -0.02051286
v -1.27749448 -0.37000823 0.13613951
v -1.27749448 -0.46999177 0.13613951
v -1.32163250 -0.45089661 0.20619659
v -1.32163250 -0.38910339 0.20619659
v -1.25021568 -0.42000000 0.09284186
v -1.50860415 -0.37000823 0.04954421
v -1.50860415 -0.46999177 0.04954421
v -1.46446613 -0.45089661 -0.02051286
v -1.46446613 -0.38910339 -0.02051286
v -1.50860415 -0.37000823 0.13613951
v -1.50860415 -0.46999177 0.13613951
v -1.46446613 -0.45089661 0.20619659
v -1.46446613 -0.38910339 0.20619659
v -1.53588295 -0.42000000 0.09284186
f 821 858 837
f 858 832 861
f 837 861 826
f 858 861 837
f 821 837 833
f 837 826 838
f 833 838 822
f 837 838 833
f 821 833 842
f 833 822 843
f 842 843 828
f 833 843 842
f 821 842 854
f 842 828 857
f 854 857 831
f 842 857 854
f 821 854 858
f 854 831 862
f 858 862 832
f 854 862 858
f 822 838 849
f 838 826 852
f 849 852 830
f 838 852 849
f 826 861 839
f 861 832 860
f 839 860 825
f 861 860 839
f 832 862 859
f 862 831 855
f 859 855 823
f 862 855 859
f 831 857 856
f 857 828 844
f 856 844 827
f 857 844 856
f 828 843 848
f 843 822 845
f 848 845 829
f 843 845 848
f 824 850 836
f 850 830 851
f 836 851 825
f 850 851 836
f 824 836 834
f 836 825 835
f 834 835 823
f 836 835 834
f 824 834 841
f 834 823 840
f 841 840 827
f 834 840 841
f 824 841 846
f 841 827 847
f 846 847 829
f 841 847 846
f 824 846 850
f 846 829 853
f 850 853 830
f 846 853 850
f 825 851 839
f 851 830 852
f 839 852 826
f 851 852 839
f 823 835 859
f 835 825 860
f 859 860 832
f 835 860 859
f 827 840 856
f 840 823 855
f 856 855 831
f 840 855 856
f 829 847 848
f 847 827 844
f 848 844 828
f 847 844 848
f 830 853 849
f 853 829 845
f 849 845 822
f 853 845 849

o geometry_72
v -1.83764129 -0.29572508 0.13565864
v -1.61819522 -0.29572508 0.13565864
v -1.83764129 -0.54427492 0.13565864
v -1.61819522 -0.54427492 0.13565864
v -1.72791825 -0.49680612 0.31994134
v -1.72791825 -0.34319388 0.31994134
v -1.72791825 -0.49680612 -0.04862405
v -1.72791825 -0.34319388 -0.04862405
v -1.55038266 -0.42000000 0.02176568
v -1.55038266 -0.42000000 0.24955161
v -1.90545385 -0.42000000 0.02176568
v -1.90545385 -0.42000000 0.24955161
v -1.72791825 -0.27390608 0.13565864
v -1.72791825 -0.56609392 0.13565864
v -1.79241183 -0.53819247 0.24397729
v -1.66342468 -0.53819247 0.24397729
v -1.79241183 -0.30180753 0.24397729
v -1.66342468 -0.30180753 0.24397729
v -1.72791825 -0.42000000 0.35229594
v -1.79241183 -0.53819247 0.02733999
v -1.66342468 -0.53819247 0.02733999
v -1.79241183 -0.30180753 0.02733999
v -1.66342468 -0.30180753 0.02733999
v -1.72791825 -0.42000000 -0.08097865
v -1.55907187 -0.34695304 0.06871404
v -1.55907187 -0.49304696 0.06871404
v -1.62356545 -0.46514551 -0.03960461
v -1.62356545 -0.37485449 -0.03960461
v -1.55907187 -0.34695304 0.20260325
v -1.55907187 -0.49304696 0.20260325
v -1.62356545 -0.46514551 0.31092190
v -1.62356545 -0.37485449 0.31092190
v -1.51921265 -0.42000000 0.13565864
v -1.89676464 -0.34695304 0.06871404
v -1.89676464 -0.49304696 0.06871404
v -1.83227106 -0.46514551 -0.03960461
v -1.83227106 -0.37485449 -0.03960461
v -1.89676464 -0.34695304 0.20260325
v -1.89676464 -0.49304696 0.20260325
v -1.83227106 -0.46514551 0.31092190
v -1.83227106 -0.37485449 0.31092190
v -1.93662386 -0.42000000 0.13565864
f 863 900 879
f 900 874 903
f 879 903 868
f 900 903 879
f 863 879 875
f 879 868 880
f 875 880 864
f 879 880 875
f 863 875 884
f 875 864 885
f 884 885 870
f 875 885 884
f 863 884 896
f 884 870 899
f 896 899 873
f 884 899 896
f 863 896 900
f 896 873 904
f 900 904 874
f 896 904 900
f 864 880 891
f 880 868 894
f 891 894 872
f 880 894 891
f 868 903 881
f 903 874 902
f 881 902 867
f 903 902 881
f 874 904 901
f 904 873 897
f 901 897 865
f 904 897 901
f 873 899 898
f 899 870 886
f 898 886 869
f 899 886 898
f 870 885 890
f 885 864 887
f 890 887 871
f 885 887 890
f 866 892 878
f 892 872 893
f 878 893 867
f 892 893 878
f 866 878 876
f 878 867 877
f 876 877 865
f 878 877 876
f 866 876 883
f 876 865 882
f 883 882 869
f 876 882 883
f 866 883 888
f 883 869 889
f 888 889 871
f 883 889 888
f 866 888 892
f 888 871 895
f 892 895 872
f 888 895 892
f 867 893 881
f 893 872 894
f 881 894 868
f 893 894 881
f 865 877 901
f 877 867 902
f 901 902 874
f 877 902 901
f 869 882 898
f 882 865 897
f 898 897 873
f 882 897 898
f 871 889 890
f 889 869 886
f 890 886 870
f 889 886 890
f 872 895 891
f 895 871 887
f 891 887 864
f 895 887 891

o geometry_73
v -1.56852980 -0.35904307 0.06654066
v -1.46089136 -0.35904307 0.06654066
v -1.56852980 -0.48095693 0.06654066
v -1.46089136 -0.48095693 0.06654066
v -1.51471058 -0.45767345 0.16983899
v -1.51471058 -0.38232655 0.16983899
v -1.51471058 -0.45767345 -0.03675768
v -1.51471058 -0.38232655 -0.03675768
v -1.42762926 -0.42000000 0.00269877
v -1.42762926 -0.42000000 0.13038254
v -1.60179191 -0.42000000 0.00269877
v -1.60179191 -0.42000000 0.13038254
v -1.51471058 -0.34834083 0.06654066
v -1.51471058 -0.49165917 0.06654066
v -1.54634473 -0.47797348 0.12725789
v -1.48307644 -0.47797348 0.12725789
v -1.54634473 -0.36202652 0.12725789
v -1.48307644 -0.36202652 0.12725789
v -1.51471058 -0.42000000 0.18797513
v -1.54634473 -0.47797348 0.00582342
v -1.48307644 -0.47797348 0.00582342
v -1.54634473 -0.36202652 0.00582342
v -1.48307644 -0.36202652 0.00582342
v -1.51471058 -0.42000000 -0.05489382
v -1.43189132 -0.38417042 0.02901534
v -1.43189132 -0.45582958 0.02901534
v -1.46352546 -0.44214390 -0.03170190
v -1.46352546 -0.39785610 -0.03170190
v -1.43189132 -0.38417042 0.10406597
v -1.43189132 -0.45582958 0.10406597
v -1.46352546 -0.44214390 0.16478321
v -1.46352546 -0.39785610 0.16478321
v -1.41234035 -0.42000000 0.06654066
v -1.59752985 -0.38417042 0.02901534
v -1.59752985 -0.45582958 0.02901534
v -1.56589570 -0.44214390 -0.03170190
v -1.56589570 -0.39785610 -0.03170190
v -1.59752985 -0.38417042 0.10406597
v -1.59752985 -0.45582958 0.10406597
v -1.56589570 -0.44214390 0.16478321
v -1.56589570 -0.39785610 0.16478321
v -1.61708082 -0.42000000 0.06654066
f 905 942 921
f 942 916 945
f 921 945 910
f 942 945 921
f 905 921 917
f 921 910 922
f 917 922 906
f 921 922 917
f 905 917 926
f 917 906 927
f 926 927 912
f 917 927 926
f 905 926 938
f 926 912 941
f 938 941 915
f 926 941 938
f 905 938 942
f 938 915 946
f 942 946 916
f 938 946 942
f 906 922 933
f 922 910 936
f 933 936 914
f 922 936 933
f 910 945 923
f 945 916 944
f 923 944 909
f 945 944 923
f 916 946 943
f 946 915 939
f 943 939 907
f 946 939 943
f 915 941 940
f 941 912 928
f 940 928 911
f 941 928 940
f 912 927 932
f 927 906 929
f 932 929 913
f 927 929 932
f 908 934 920
f 934 914 935
f 920 935 909
f 934 935 920
f 908 920 918
f 920 909 919
f 918 919 907
f 920 919 918
f 908 918 925
f 918 907 924
f 925 924 911
f 918 924 925
f 908 925 930
f 925 911 931
f 930 931 913
f 925 931 930
f 908 930 934
f 930 913 937
f 934 937 914
f 930 937 934
f 909 935 923
f 935 914 936
f 923 936 910
f 935 936 923
f 907 919 943
f 919 909 944
f 943 944 916
f 919 944 943
f 911 924 940
f 924 907 939
f 940 939 915
f 924 939 940
f 913 931 932
f 931 911 928
f 932 928 912
f 931 928 932
f 914 937 933
f 937 913 929
f 933 929 906
f 937 929 933

o geometry_74
v -1.35745837 -0.33533838 0.09241672
v -1.20796192 -0.33533838 0.09241672
v -1.35745837 -0.50466162 0.09241672
v -1.20796192 -0.50466162 0.09241672
v -1.28271014 -0.47232376 0.24927673
v -1.28271014 -0.36767624 0.24927673
v -1.28271014 -0.47232376 -0.06444328
v -1.28271014 -0.36767624 -0.06444328
v -1.16176497 -0.42000000 -0.00452809
v -1.16176497 -0.42000000 0.18936154
v -1.40365531 -0.42000000 -0.00452809
v -1.40365531 -0.42000000 0.18936154
v -1.28271014 -0.32047430 0.09241672
v -1.28271014 -0.51952570 0.09241672
v -1.32664605 -0.50051798 0.18461672
v -1.23877424 -0.50051798 0.18461672
v -1.32664605 -0.33948202 0.18461672
v -1.23877424 -0.33948202 0.18461672
v -1.28271014 -0.42000000 0.27681672
v -1.32664605 -0.50051798 0.00021673
v -1.23877424 -0.50051798 0.00021673
v -1.32664605 -0.33948202 0.00021673
v -1.23877424 -0.33948202 0.00021673
v -1.28271014 -0.42000000 -0.09198327
v -1.16768445 -0.37023715 0.03543399
v -1.16768445 -0.46976285 0.03543399
v -1.21162036 -0.45075513 -0.05676601
v -1.21162036 -0.38924487 -0.05676601
v -1.16768445 -0.37023715 0.14939945
v -1.16768445 -0.46976285 0.14939945
v -1.21162036 -0.45075513 0.24159945
v -1.21162036 -0.38924487 0.24159945
v -1.14053057 -0.42000000 0.09241672
v -1.39773583 -0.37023715 0.03543399
v -1.39773583 -0.46976285 0.03543399
v -1.35379993 -0.45075513 -0.05676601
v -1.35379993 -0.38924487 -0.05676601
v -1.39773583 -0.37023715 0.14939945
v -1.39773583 -0.46976285 0.14939945
v -1.35379993 -0.45075513 0.24159945
v -1.35379993 -0.38924487 0.24159945
v -1.42488971 -0.42000000 0.09241672
f 947 984 963
f 984 958 987
f 963 987 952
f 984 987 963
f 947 963 959
f 963 952 964
f 959 964 948
f 963 964 959
f 947 959 968
f 959 948 969
f 968 969 954
f 959 969 968
f 947 968 980
f 968 954 983
f 980 983 957
f 968 983 980
f 947 980 984
f 980 957 988
f 984 988 958
f 980 988 984
f 948 964 975
f 964 952 978
f 975 978 956
f 964 978 975
f 952 987 965
f 987 958 986
f 965 986 951
f 987 986 965
f 958 988 985
f 988 957 981
f 985 981 949
f 988 981 985
f 957 983 982
f 983 954 970
f 982 970 953
f 983 970 982
f 954 969 974
f 969 948 971
f 974 971 955
f 969 971 974
f 950 976 962
f 976 956 977
f 962 977 951
f 976 977 962
f 950 962 960
f 962 951 961
f 960 961 949
f 962 961 960
f 950 960 967
f 960 949 966
f 967 966 953
f 960 966 967
f 950 967 972
f 967 953 973
f 972 973 955
f 967 973 972
f 950 972 976
f 972 955 979
f 976 979 956
f 972 979 976
f 951 977 965
f 977 956 978
f 965 978 952
f 977 978 965
f 949 961 985
f 961 951 986
f 985 986 958
f 961 986 985
f 953 966 982
f 966 949 981
f 982 981 957
f 966 981 982
f 955 973 974
f 973 953 970
f 974 970 954
f 973 970 974
f 956 979 975
f 979 955 971
f 975 971 948
f 979 971 975

o geometry_75
v -1.22875384 -0.27080083 0.16286599
v -0.96529625 -0.27080083 0.16286599
v -1.22875384 -0.56919917 0.16286599
v -0.96529625 -0.56919917 0.16286599
v -1.09702505 -0.51221016 0.36182250
v -1.09702505 -0.32778984 0.36182250
v -1.09702505 -0.51221016 -0.03609052
v -1.09702505 -0.32778984 -0.03609052
v -0.88388337 -0.42000000 0.03990411
v -0.88388337 -0.42000000 0.28582787
v -1.31016672 -0.42000000 0.03990411
v -1.31016672 -0.42000000 0.28582787
v -1.09702505 -0.24460586 0.16286599
v -1.09702505 -0.59539414 0.16286599
v -1.17445329 -0.56189684 0.27980969
v -1.01959680 -0.56189684 0.27980969
v -1.17445329 -0.27810316 0.27980969
v -1.01959680 -0.27810316 0.27980969
v -1.09702505 -0.42000000 0.39675339
v -1.17445329 -0.56189684 0.04592229
v -1.01959680 -0.56189684 0.04592229
v -1.17445329 -0.27810316 0.04592229
v -1.01959680 -0.27810316 0.04592229
v -1.09702505 -0.42000000 -0.07102141
v -0.89431527 -0.33230293 0.09059081
v -0.89431527 -0.50769707 0.09059081
v -0.97174351 -0.47419977 -0.02635289
v -0.97174351 -0.36580023 -0.02635289
v -0.89431527 -0.33230293 0.23514117
v -0.89431527 -0.50769707 0.23514117
v -0.97174351 -0.47419977 0.35208487
v -0.97174351 -0.36580023 0.35208487
v -0.84646198 -0.42000000 0.16286599
v -1.29973482 -0.33230293 0.09059081
v -1.29973482 -0.50769707 0.09059081
v -1.22230658 -0.47419977 -0.02635289
v -1.22230658 -0.36580023 -0.02635289
v -1.29973482 -0.33230293 0.23514117
v -1.29973482 -0.50769707 0.23514117
v -1.22230658 -0.47419977 0.35208487
v -1.22230658 -0.36580023 0.35208487
v -1.34758811 -0.42000000 0.16286599
f 989 1026 1005
f 1026 1000 1029
f 1005 1029 994
f 1026 1029 1005
f 989 1005 1001
f 1005 994 1006
f 1001 1006 990
f 1005 1006 1001
f 989 1001 1010
f 1001 990 1011
f 1010 1011 996
f 1001 1011 1010
f 989 1010 1022
f 1010 996 1025
f 1022 1025 999
f 1010 1025 1022
f 989 1022 1026
f 1022 999 1030
f 1026 1030 1000
f 1022 1030 1026
f 990 1006 1017
f 1006 994 1020
f 1017 1020 998
f 1006 1020 1017
f 994 1029 1007
f 1029 1000 1028
f 1007 1028 993
f 1029 1028 1007
f 1000 1030 1027
f 1030 999 1023
f 1027 1023 991
f 1030 1023 1027
f 999 1025 1024
f 1025 996 1012
f 1024 1012 995
f 1025 1012 1024
f 996 1011 1016
f 1011 990 1013
f 1016 1013 997
f 1011 1013 1016
f 992 1018 1004
f 1018 998 1019
f 1004 1019 993
f 1018 1019 1004
f 992 1004 1002
f 1004 993 1003
f 1002 1003 991
f 1004 1003 1002
f 992 1002 1009
f 1002 991 1008
f 1009 1008 995
f 1002 1008 1009
f 992 1009 1014
f 1009 995 1015
f 1014 1015 997
f 1009 1015 1014
f 992 1014 1018
f 1014 997 1021
f 1018 1021 998
f 1014 1021 1018
f 993 1019 1007
f 1019 998 1020
f 1007 1020 994
f 1019 1020 1007
f 991 1003 1027
f 1003 993 1028
f 1027 1028 1000
f 1003 1028 1027
f 995 1008 1024
f 1008 991 1023
f 1024 1023 999
f 1008 1023 1024
f 997 1015 1016
f 1015 995 1012
f 1016 1012 996
f 1015 1012 1016
f 998 1021 1017
f 1021 997 1013
f 1017 1013 990
f 1021 1013 1017

o geometry_76
v -2.00000000 -0.29500000 0.00000000
v -2.00000000 -0.29500000 0.18000000
v -2.00000000 0.25500000 0.00000000
v -2.00000000 0.25500000 0.18000000
v 2.00000000 -0.29500000 0.00000000
v 2.00000000 -0.29500000 0.18000000
v 2.00000000 0.25500000 0.00000000
v 2.00000000 0.25500000 0.18000000
f 1032 1034 1031
f 1035 1032 1031
f 1031 1034 1033
f 1033 1035 1031
f 1032 1038 1034
f 1036 1032 1035
f 1036 1038 1032
f 1034 1038 1033
f 1037 1035 1033
f 1033 1038 1037
f 1037 1036 1035
f 1038 1036 1037

o geometry_77
v -2.00000000 -0.33000000 3.25000000
v -2.00000000 -0.33000000 3.50000000
v -2.00000000 0.29000000 3.25000000
v -2.00000000 0.29000000 3.50000000
v 2.00000000 -0.33000000 3.25000000
v 2.00000000 -0.33000000 3.50000000
v 2.00000000 0.29000000 3.25000000
v 2.00000000 0.29000000 3.50000000
f 1040 1042 1039
f 1043 1040 1039
f 1039 1042 1041
f 1041 1043 1039
f 1040 1046 1042
f 1044 1040 1043
f 1044 1046 1040
f 1042 1046 1041
f 1045 1043 1041
f 1041 1046 1045
f 1045 1044 1043
f 1046 1044 1045

