# https://github.com/mikedh/trimesh

o geometry_0
v -1.98779106 -0.49075633 0.02725968
v -1.98779106 -0.49075633 0.50225968
v -1.99416216 -0.01079861 0.02725968
v -1.99416216 -0.01079861 0.50225968
v -1.45686062 -0.48370861 0.02725968
v -1.45686062 -0.48370861 0.50225968
v -1.46323172 -0.00375089 0.02725968
v -1.46323172 -0.00375089 0.50225968
f 2 4 1
f 5 2 1
f 1 4 3
f 3 5 1
f 2 8 4
f 6 2 5
f 6 8 2
f 4 8 3
f 7 5 3
f 3 8 7
f 7 6 5
f 8 6 7

o geometry_1
v -1.44227015 -0.49238798 -0.01104974
v -1.44227015 -0.49238798 0.46395026
v -1.44177512 -0.01238823 -0.01104974
v -1.44177512 -0.01238823 0.46395026
v -0.89608363 -0.49295127 -0.01104974
v -0.89608363 -0.49295127 0.46395026
v -0.89558859 -0.01295152 -0.01104974
v -0.89558859 -0.01295152 0.46395026
f 10 12 9
f 13 10 9
f 9 12 11
f 11 13 9
f 10 16 12
f 14 10 13
f 14 16 10
f 12 16 11
f 15 13 11
f 11 16 15
f 15 14 13
f 16 14 15

o geometry_2
v -0.88060154 -0.48113077 0.03254502
v -0.88060154 -0.48113077 0.50754502
v -0.87503183 -0.00116308 0.03254502
v -0.87503183 -0.00116308 0.50754502
v -0.30800372 -0.48777539 0.03254502
v -0.30800372 -0.48777539 0.50754502
v -0.30243401 -0.00780770 0.03254502
v -0.30243401 -0.00780770 0.50754502
f 18 20 17
f 21 18 17
f 17 20 19
f 19 21 17
f 18 24 20
f 22 18 21
f 22 24 18
f 20 24 19
f 23 21 19
f 19 24 23
f 23 22 21
f 24 22 23

o geometry_3
v -0.28666659 -0.47296333 0.01468804
v -0.28666659 -0.47296333 0.48968804
v -0.28773134 0.00703549 0.01468804
v -0.28773134 0.00703549 0.48968804
v 0.22431113 -0.47182986 0.01468804
v 0.22431113 -0.47182986 0.48968804
v 0.22324638 0.00816896 0.01468804
v 0.22324638 0.00816896 0.48968804
f 26 28 25
f 29 26 25
f 25 28 27
f 27 29 25
f 26 32 28
f 30 26 29
f 30 32 26
f 28 32 27
f 31 29 27
f 27 32 31
f 31 30 29
f 32 30 31

o geometry_4
v 0.24479461 -0.47430408 0.00147412
v 0.24479461 -0.47430408 0.47647412
v 0.23879939 0.00565848 0.00147412
v 0.23879939 0.00565848 0.47647412
v 0.69646422 -0.46866227 0.00147412
v 0.69646422 -0.46866227 0.47647412
v 0.69046900 0.01130029 0.00147412
v 0.69046900 0.01130029 0.47647412
f 34 36 33
f 37 34 33
f 33 36 35
f 35 37 33
f 34 40 36
f 38 34 37
f 38 40 34
f 36 40 35
f 39 37 35
f 35 40 39
f 39 38 37
f 40 38 39

o geometry_5
v 0.70889954 -0.46679639 0.02735735
v 0.70889954 -0.46679639 0.50235735
v 0.71410119 0.01317542 0.02735735
v 0.71410119 0.01317542 0.50235735
v 1.25841158 -0.47275168 0.02735735
v 1.25841158 -0.47275168 0.50235735
v 1.26361323 0.00722014 0.02735735
v 1.26361323 0.00722014 0.50235735
f 42 44 41
f 45 42 41
f 41 44 43
f 43 45 41
f 42 48 44
f 46 42 45
f 46 48 42
f 44 48 43
f 47 45 43
f 43 48 47
f 47 46 45
f 48 46 47

o geometry_6
v 1.28171905 -0.47174018 -0.01241126
v 1.28171905 -0.47174018 0.46258874
v 1.27637094 0.00823002 -0.01241126
v 1.27637094 0.00823002 0.46258874
v 1.81195497 -0.46583198 -0.01241126
v 1.81195497 -0.46583198 0.46258874
v 1.80660685 0.01413823 -0.01241126
v 1.80660685 0.01413823 0.46258874
f 50 52 49
f 53 50 49
f 49 52 51
f 51 53 49
f 50 56 52
f 54 50 53
f 54 56 50
f 52 56 51
f 55 53 51
f 51 56 55
f 55 54 53
f 56 54 55

o geometry_7
v 1.82998375 -0.47236390 0.03662106
v 1.82998375 -0.47236390 0.51162106
v 1.82462119 0.00760614 0.03662106
v 1.82462119 0.00760614 0.51162106
v 1.99367617 -0.47053501 0.03662106
v 1.99367617 -0.47053501 0.51162106
v 1.98831361 0.00943503 0.03662106
v 1.98831361 0.00943503 0.51162106
f 58 60 57
f 61 58 57
f 57 60 59
f 59 61 57
f 58 64 60
f 62 58 61
f 62 64 58
f 60 64 59
f 63 61 59
f 59 64 63
f 63 62 61
f 64 62 63

o geometry_8
v -1.98971526 -0.49547877 0.51446117
v -1.98971526 -0.49547877 0.98946117
v -1.99227600 -0.01548560 0.51446117
v -1.99227600 -0.01548560 0.98946117
v -1.37571191 -0.49220308 0.51446117
v -1.37571191 -0.49220308 0.98946117
v -1.37827265 -0.01220991 0.51446117
v -1.37827265 -0.01220991 0.98946117
f 66 68 65
f 69 66 65
f 65 68 67
f 67 69 65
f 66 72 68
f 70 66 69
f 70 72 66
f 68 72 67
f 71 69 67
f 67 72 71
f 71 70 69
f 72 70 71

o geometry_9
v -1.35559936 -0.49740665 0.52203210
v -1.35559936 -0.49740665 0.99703210
v -1.36231766 -0.01745367 0.52203210
v -1.36231766 -0.01745367 0.99703210
v -0.75538149 -0.48900489 0.52203210
v -0.75538149 -0.48900489 0.99703210
v -0.76209979 -0.00905191 0.52203210
v -0.76209979 -0.00905191 0.99703210
f 74 76 73
f 77 74 73
f 73 76 75
f 75 77 73
f 74 80 76
f 78 74 77
f 78 80 74
f 76 80 75
f 79 77 75
f 75 80 79
f 79 78 77
f 80 78 79

o geometry_10
v -0.74309843 -0.47038292 0.50555950
v -0.74309843 -0.47038292 0.98055950
v -0.73828828 0.00959298 0.50555950
v -0.73828828 0.00959298 0.98055950
v -0.03090117 -0.47752031 0.50555950
v -0.03090117 -0.47752031 0.98055950
v -0.02609102 0.00245558 0.50555950
v -0.02609102 0.00245558 0.98055950
f 82 84 81
f 85 82 81
f 81 84 83
f 83 85 81
f 82 88 84
f 86 82 85
f 86 88 82
f 84 88 83
f 87 85 83
f 83 88 87
f 87 86 85
f 88 86 87

o geometry_11
v -0.00973441 -0.46786661 0.50256796
v -0.00973441 -0.46786661 0.97756796
v -0.01121919 0.01213109 0.50256796
v -0.01121919 0.01213109 0.97756796
v 0.58093932 -0.46603947 0.50256796
v 0.58093932 -0.46603947 0.97756796
v 0.57945454 0.01395823 0.50256796
v 0.57945454 0.01395823 0.97756796
f 90 92 89
f 93 90 89
f 89 92 91
f 91 93 89
f 90 96 92
f 94 90 93
f 94 96 90
f 92 96 91
f 95 93 91
f 91 96 95
f 95 94 93
f 96 94 95

o geometry_12
v 0.59683466 -0.48371626 0.50439484
v 0.59683466 -0.48371626 0.97939484
v 0.59957125 -0.00372406 0.50439484
v 0.59957125 -0.00372406 0.97939484
v 1.16437519 -0.48695199 0.50439484
v 1.16437519 -0.48695199 0.97939484
v 1.16711178 -0.00695979 0.50439484
v 1.16711178 -0.00695979 0.97939484
f 98 100 97
f 101 98 97
f 97 100 99
f 99 101 97
f 98 104 100
f 102 98 101
f 102 104 98
f 100 104 99
f 103 101 99
f 99 104 103
f 103 102 101
f 104 102 103

o geometry_13
v 1.18361293 -0.47922511 0.50328966
v 1.18361293 -0.47922511 0.97828966
v 1.18388338 0.00077482 0.50328966
v 1.18388338 0.00077482 0.97828966
v 1.88362200 -0.47961953 0.50328966
v 1.88362200 -0.47961953 0.97828966
v 1.88389246 0.00038040 0.50328966
v 1.88389246 0.00038040 0.97828966
f 106 108 105
f 109 106 105
f 105 108 107
f 107 109 105
f 106 112 108
f 110 106 109
f 110 112 106
f 108 112 107
f 111 109 107
f 107 112 111
f 111 110 109
f 112 110 111

o geometry_14
v 1.89832661 -0.46604675 0.53625498
v 1.89832661 -0.46604675 1.01125498
v 1.90519711 0.01390408 0.53625498
v 1.90519711 0.01390408 1.01125498
v 1.98756018 -0.46732413 0.53625498
v 1.98756018 -0.46732413 1.01125498
v 1.99443068 0.01262670 0.53625498
v 1.99443068 0.01262670 1.01125498
f 114 116 113
f 117 114 113
f 113 116 115
f 115 117 113
f 114 120 116
f 118 114 117
f 118 120 114
f 116 120 115
f 119 117 115
f 115 120 119
f 119 118 117
f 120 118 119

o geometry_15
v -1.98891548 -0.49331054 0.98840338
v -1.98891548 -0.49331054 1.46340338
v -1.99305886 -0.01332842 0.98840338
v -1.99305886 -0.01332842 1.46340338
v -1.30009945 -0.48736443 0.98840338
v -1.30009945 -0.48736443 1.46340338
v -1.30424283 -0.00738231 0.98840338
v -1.30424283 -0.00738231 1.46340338
f 122 124 121
f 125 122 121
f 121 124 123
f 123 125 121
f 122 128 124
f 126 122 125
f 126 128 122
f 124 128 123
f 127 125 123
f 123 128 127
f 127 126 125
f 128 126 127

o geometry_16
v -1.28739281 -0.47807384 0.98795392
v -1.28739281 -0.47807384 1.46295392
v -1.28086588 0.00188178 0.98795392
v -1.28086588 0.00188178 1.46295392
v -0.66094576 -0.48659291 0.98795392
v -0.66094576 -0.48659291 1.46295392
v -0.65441883 -0.00663729 0.98795392
v -0.65441883 -0.00663729 1.46295392
f 130 132 129
f 133 130 129
f 129 132 131
f 131 133 129
f 130 136 132
f 134 130 133
f 134 136 130
f 132 136 131
f 135 133 131
f 131 136 135
f 135 134 133
f 136 134 135

o geometry_17
v -0.63780327 -0.49593613 0.99732608
v -0.63780327 -0.49593613 1.47232608
v -0.64148584 -0.01595025 0.99732608
v -0.64148584 -0.01595025 1.47232608
v -0.04142141 -0.49136054 0.99732608
v -0.04142141 -0.49136054 1.47232608
v -0.04510397 -0.01137467 0.99732608
v -0.04510397 -0.01137467 1.47232608
f 138 140 137
f 141 138 137
f 137 140 139
f 139 141 137
f 138 144 140
f 142 138 141
f 142 144 138
f 140 144 139
f 143 141 139
f 139 144 143
f 143 142 141
f 144 142 143

o geometry_18
v -0.02629599 -0.49169502 1.00471909
v -0.02629599 -0.49169502 1.47971909
v -0.02420502 -0.01169957 1.00471909
v -0.02420502 -0.01169957 1.47971909
v 0.69176618 -0.49482306 1.00471909
v 0.69176618 -0.49482306 1.47971909
v 0.69385715 -0.01482761 1.00471909
v 0.69385715 -0.01482761 1.47971909
f 146 148 145
f 149 146 145
f 145 148 147
f 147 149 145
f 146 152 148
f 150 146 149
f 150 152 146
f 148 152 147
f 151 149 147
f 147 152 151
f 151 150 149
f 152 150 151

o geometry_19
v 0.71261258 -0.49069172 0.99290264
v 0.71261258 -0.49069172 1.46790264
v 0.70903568 -0.01070505 0.99290264
v 0.70903568 -0.01070505 1.46790264
v 1.36485851 -0.48583113 0.99290264
v 1.36485851 -0.48583113 1.46790264
v 1.36128162 -0.00584446 0.99290264
v 1.36128162 -0.00584446 1.46790264
f 154 156 153
f 157 154 153
f 153 156 155
f 155 157 153
f 154 160 156
f 158 154 157
f 158 160 154
f 156 160 155
f 159 157 155
f 155 160 159
f 159 158 157
f 160 158 159

o geometry_20
v 1.38431606 -0.49484779 0.98933158
v 1.38431606 -0.49484779 1.46433158
v 1.37789673 -0.01489071 0.98933158
v 1.37789673 -0.01489071 1.46433158
v 1.99418239 -0.48669095 0.98933158
v 1.99418239 -0.48669095 1.46433158
v 1.98776306 -0.00673387 0.98933158
v 1.98776306 -0.00673387 1.46433158
f 162 164 161
f 165 162 161
f 161 164 163
f 163 165 161
f 162 168 164
f 166 162 165
f 166 168 162
f 164 168 163
f 167 165 163
f 163 168 167
f 167 166 165
f 168 166 167

o geometry_21
v -1.98796697 -0.47885199 1.51804138
v -1.98796697 -0.47885199 1.99304138
v -1.99398727 0.00111025 1.51804138
v -1.99398727 0.00111025 1.99304138
v -1.40619601 -0.47155468 1.51804138
v -1.40619601 -0.47155468 1.99304138
v -1.41221630 0.00840756 1.51804138
v -1.41221630 0.00840756 1.99304138
f 170 172 169
f 173 170 169
f 169 172 171
f 171 173 169
f 170 176 172
f 174 170 173
f 174 176 170
f 172 176 171
f 175 173 171
f 171 176 175
f 175 174 173
f 176 174 175

o geometry_22
v -1.39252870 -0.49097162 1.51475720
v -1.39252870 -0.49097162 1.98975720
v -1.38982800 -0.01097921 1.51475720
v -1.38982800 -0.01097921 1.98975720
v -0.77029512 -0.49447264 1.51475720
v -0.77029512 -0.49447264 1.98975720
v -0.76759442 -0.01448024 1.51475720
v -0.76759442 -0.01448024 1.98975720
f 178 180 177
f 181 178 177
f 177 180 179
f 179 181 177
f 178 184 180
f 182 178 181
f 182 184 178
f 180 184 179
f 183 181 179
f 179 184 183
f 183 182 181
f 184 182 183

o geometry_23
v -0.75345080 -0.46705356 1.49140981
v -0.75345080 -0.46705356 1.96640981
v -0.74839459 0.01291981 1.49140981
v -0.74839459 0.01291981 1.96640981
v -0.13500511 -0.47356848 1.49140981
v -0.13500511 -0.47356848 1.96640981
v -0.12994891 0.00640489 1.49140981
v -0.12994891 0.00640489 1.96640981
f 186 188 185
f 189 186 185
f 185 188 187
f 187 189 185
f 186 192 188
f 190 186 189
f 190 192 186
f 188 192 187
f 191 189 187
f 187 192 191
f 191 190 189
f 192 190 191

o geometry_24
v -0.11767904 -0.49028200 1.49557647
v -0.11767904 -0.49028200 1.97057647
v -0.11117839 -0.01032602 1.49557647
v -0.11117839 -0.01032602 1.97057647
v 0.56124956 -0.49947759 1.49557647
v 0.56124956 -0.49947759 1.97057647
v 0.56775021 -0.01952161 1.49557647
v 0.56775021 -0.01952161 1.97057647
f 194 196 193
f 197 194 193
f 193 196 195
f 195 197 193
f 194 200 196
f 198 194 197
f 198 200 194
f 196 200 195
f 199 197 195
f 195 200 199
f 199 198 197
f 200 198 199

o geometry_25
v 0.58065115 -0.47813282 1.50779440
v 0.58065115 -0.47813282 1.98279440
v 0.58443347 0.00185228 1.50779440
v 0.58443347 0.00185228 1.98279440
v 1.30796718 -0.48386412 1.50779440
v 1.30796718 -0.48386412 1.98279440
v 1.31174949 -0.00387902 1.50779440
v 1.31174949 -0.00387902 1.98279440
f 202 204 201
f 205 202 201
f 201 204 203
f 203 205 201
f 202 208 204
f 206 202 205
f 206 208 202
f 204 208 203
f 207 205 203
f 203 208 207
f 207 206 205
f 208 206 207

o geometry_26
v 1.32730719 -0.48900993 1.51028326
v 1.32730719 -0.48900993 1.98528326
v 1.32843388 -0.00901125 1.51028326
v 1.32843388 -0.00901125 1.98528326
v 1.99043574 -0.49056648 1.51028326
v 1.99043574 -0.49056648 1.98528326
v 1.99156243 -0.01056780 1.51028326
v 1.99156243 -0.01056780 1.98528326
f 210 212 209
f 213 210 209
f 209 212 211
f 211 213 209
f 210 216 212
f 214 210 213
f 214 216 210
f 212 216 211
f 215 213 211
f 211 216 215
f 215 214 213
f 216 214 215

o geometry_27
v -1.99104633 -0.49242647 1.98913606
v -1.99104633 -0.49242647 2.46413606
v -1.99095366 -0.01242647 1.98913606
v -1.99095366 -0.01242647 2.46413606
v -1.41499392 -0.49253769 1.98913606
v -1.41499392 -0.49253769 2.46413606
v -1.41490124 -0.01253770 1.98913606
v -1.41490124 -0.01253770 2.46413606
f 218 220 217
f 221 218 217
f 217 220 219
f 219 221 217
f 218 224 220
f 222 218 221
f 222 224 218
f 220 224 219
f 223 221 219
f 219 224 223
f 223 222 221
f 224 222 223

o geometry_28
v -1.39367711 -0.47363994 2.02408322
v -1.39367711 -0.47363994 2.49908322
v -1.40015401 0.00631636 2.02408322
v -1.40015401 0.00631636 2.49908322
v -0.69049638 -0.46415067 2.02408322
v -0.69049638 -0.46415067 2.49908322
v -0.69697328 0.01580563 2.02408322
v -0.69697328 0.01580563 2.49908322
f 226 228 225
f 229 226 225
f 225 228 227
f 227 229 225
f 226 232 228
f 230 226 229
f 230 232 226
f 228 232 227
f 231 229 227
f 227 232 231
f 231 230 229
f 232 230 231

o geometry_29
v -0.67617337 -0.48798265 1.99283153
v -0.67617337 -0.48798265 2.46783153
v -0.67523097 -0.00798358 1.99283153
v -0.67523097 -0.00798358 2.46783153
v -0.00673478 -0.48929699 1.99283153
v -0.00673478 -0.48929699 2.46783153
v -0.00579237 -0.00929792 1.99283153
v -0.00579237 -0.00929792 2.46783153
f 234 236 233
f 237 234 233
f 233 236 235
f 235 237 233
f 234 240 236
f 238 234 237
f 238 240 234
f 236 240 235
f 239 237 235
f 235 240 239
f 239 238 237
f 240 238 239

o geometry_30
v 0.01140008 -0.48992632 2.00224065
v 0.01140008 -0.48992632 2.47724065
v 0.01207464 -0.00992680 2.00224065
v 0.01207464 -0.00992680 2.47724065
v 0.60265186 -0.49075724 2.00224065
v 0.60265186 -0.49075724 2.47724065
v 0.60332643 -0.01075771 2.00224065
v 0.60332643 -0.01075771 2.47724065
f 242 244 241
f 245 242 241
f 241 244 243
f 243 245 241
f 242 248 244
f 246 242 245
f 246 248 242
f 244 248 243
f 247 245 243
f 243 248 247
f 247 246 245
f 248 246 247

o geometry_31
v 0.62065528 -0.49005904 2.03630038
v 0.62065528 -0.49005904 2.51130038
v 0.62132430 -0.01005950 2.03630038
v 0.62132430 -0.01005950 2.51130038
v 1.35004081 -0.49107566 2.03630038
v 1.35004081 -0.49107566 2.51130038
v 1.35070984 -0.01107612 2.03630038
v 1.35070984 -0.01107612 2.51130038
f 250 252 249
f 253 250 249
f 249 252 251
f 251 253 249
f 250 256 252
f 254 250 253
f 254 256 250
f 252 256 251
f 255 253 251
f 251 256 255
f 255 254 253
f 256 254 255

o geometry_32
v 1.36687717 -0.48492873 2.01145212
v 1.36687717 -0.48492873 2.48645212
v 1.36988642 -0.00493816 2.01145212
v 1.36988642 -0.00493816 2.48645212
v 1.98948925 -0.48883214 2.01145212
v 1.98948925 -0.48883214 2.48645212
v 1.99249851 -0.00884157 2.01145212
v 1.99249851 -0.00884157 2.48645212
f 258 260 257
f 261 258 257
f 257 260 259
f 259 261 257
f 258 264 260
f 262 258 261
f 262 264 258
f 260 264 259
f 263 261 259
f 259 264 263
f 263 262 261
f 264 262 263

o geometry_33
v -1.98744978 -0.47400369 2.50635004
v -1.98744978 -0.47400369 2.98135004
v -1.99448232 0.00594479 2.50635004
v -1.99448232 0.00594479 2.98135004
v -1.35490190 -0.46473517 2.50635004
v -1.35490190 -0.46473517 2.98135004
v -1.36193444 0.01521331 2.50635004
v -1.36193444 0.01521331 2.98135004
f 266 268 265
f 269 266 265
f 265 268 267
f 267 269 265
f 266 272 268
f 270 266 269
f 270 272 266
f 268 272 267
f 271 269 267
f 267 272 271
f 271 270 269
f 272 270 271

o geometry_34
v -1.34154292 -0.48205451 2.51246612
v -1.34154292 -0.48205451 2.98746612
v -1.33921703 -0.00206015 2.51246612
v -1.33921703 -0.00206015 2.98746612
v -0.61858133 -0.48555775 2.51246612
v -0.61858133 -0.48555775 2.98746612
v -0.61625543 -0.00556339 2.51246612
v -0.61625543 -0.00556339 2.98746612
f 274 276 273
f 277 274 273
f 273 276 275
f 275 277 273
f 274 280 276
f 278 274 277
f 278 280 274
f 276 280 275
f 279 277 275
f 275 280 279
f 279 278 277
f 280 278 279

o geometry_35
v -0.59675135 -0.47635911 2.52660095
v -0.59675135 -0.47635911 3.00160095
v -0.60204161 0.00361174 2.52660095
v -0.60204161 0.00361174 3.00160095
v -0.01530184 -0.46995034 2.52660095
v -0.01530184 -0.46995034 3.00160095
v -0.02059210 0.01002050 2.52660095
v -0.02059210 0.01002050 3.00160095
f 282 284 281
f 285 282 281
f 281 284 283
f 283 285 281
f 282 288 284
f 286 282 285
f 286 288 282
f 284 288 283
f 287 285 283
f 283 288 287
f 287 286 285
f 288 286 287

o geometry_36
v 0.00147711 -0.49040301 2.52624490
v 0.00147711 -0.49040301 3.00124490
v -0.00132507 -0.01041119 2.52624490
v -0.00132507 -0.01041119 3.00124490
v 0.62718196 -0.48675016 2.52624490
v 0.62718196 -0.48675016 3.00124490
v 0.62437978 -0.00675834 2.52624490
v 0.62437978 -0.00675834 3.00124490
f 290 292 289
f 293 290 289
f 289 292 291
f 291 293 289
f 290 296 292
f 294 290 293
f 294 296 290
f 292 296 291
f 295 293 291
f 291 296 295
f 295 294 293
f 296 294 295

o geometry_37
v 0.64526472 -0.48985459 2.50567159
v 0.64526472 -0.48985459 2.98067159
v 0.64232038 -0.00986362 2.50567159
v 0.64232038 -0.00986362 2.98067159
v 1.32015502 -0.48571470 2.50567159
v 1.32015502 -0.48571470 2.98067159
v 1.31721068 -0.00572373 2.50567159
v 1.31721068 -0.00572373 2.98067159
f 298 300 297
f 301 298 297
f 297 300 299
f 299 301 297
f 298 304 300
f 302 298 301
f 302 304 298
f 300 304 299
f 303 301 299
f 299 304 303
f 303 302 301
f 304 302 303

o geometry_38
v 1.33806857 -0.48132075 2.52598737
v 1.33806857 -0.48132075 3.00098737
v 1.33531987 -0.00132862 2.52598737
v 1.33531987 -0.00132862 3.00098737
v 1.95069699 -0.47781250 2.52598737
v 1.95069699 -0.47781250 3.00098737
v 1.94794829 0.00217963 2.52598737
v 1.94794829 0.00217963 3.00098737
f 306 308 305
f 309 306 305
f 305 308 307
f 307 309 305
f 306 312 308
f 310 306 309
f 310 312 306
f 308 312 307
f 311 309 307
f 307 312 311
f 311 310 309
f 312 310 311

o geometry_39
v 1.96790845 -0.49339437 2.51998461
v 1.96790845 -0.49339437 2.99498461
v 1.96674694 -0.01339577 2.51998461
v 1.96674694 -0.01339577 2.99498461
v 1.99158072 -0.49333708 2.51998461
v 1.99158072 -0.49333708 2.99498461
v 1.99041921 -0.01333849 2.51998461
v 1.99041921 -0.01333849 2.99498461
f 314 316 313
f 317 314 313
f 313 316 315
f 315 317 313
f 314 320 316
f 318 314 317
f 318 320 314
f 316 320 315
f 319 317 315
f 315 320 319
f 319 318 317
f 320 318 319

o geometry_40
v -1.98976118 -0.48256901 3.00003461
v -1.98976118 -0.48256901 3.47503461
v -1.99223283 -0.00257537 3.00003461
v -1.99223283 -0.00257537 3.47503461
v -1.53826168 -0.48024408 3.00003461
v -1.53826168 -0.48024408 3.47503461
v -1.54073333 -0.00025045 3.00003461
v -1.54073333 -0.00025045 3.47503461
f 322 324 321
f 325 322 321
f 321 324 323
f 323 325 321
f 322 328 324
f 326 322 325
f 326 328 322
f 324 328 323
f 327 325 323
f 323 328 327
f 327 326 325
f 328 326 327

o geometry_41
v -1.51934147 -0.49176844 3.01987185
v -1.51934147 -0.49176844 3.49487185
v -1.52362722 -0.01178758 3.01987185
v -1.52362722 -0.01178758 3.49487185
v -1.00917974 -0.48721320 3.01987185
v -1.00917974 -0.48721320 3.49487185
v -1.01346549 -0.00723234 3.01987185
v -1.01346549 -0.00723234 3.49487185
f 330 332 329
f 333 330 329
f 329 332 331
f 331 333 329
f 330 336 332
f 334 330 333
f 334 336 330
f 332 336 331
f 335 333 331
f 331 336 335
f 335 334 333
f 336 334 335

o geometry_42
v -0.99093752 -0.48674813 3.02439137
v -0.99093752 -0.48674813 3.49939137
v -0.99566336 -0.00677139 3.02439137
v -0.99566336 -0.00677139 3.49939137
v -0.49573654 -0.48187239 3.02439137
v -0.49573654 -0.48187239 3.49939137
v -0.50046238 -0.00189566 3.02439137
v -0.50046238 -0.00189566 3.49939137
f 338 340 337
f 341 338 337
f 337 340 339
f 339 341 337
f 338 344 340
f 342 338 341
f 342 344 338
f 340 344 339
f 343 341 339
f 339 344 343
f 343 342 341
f 344 342 343

o geometry_43
v -0.47872749 -0.49168238 3.03099556
v -0.47872749 -0.49168238 3.50599556
v -0.48143952 -0.01169004 3.03099556
v -0.48143952 -0.01169004 3.50599556
v 0.01677047 -0.48888273 3.03099556
v 0.01677047 -0.48888273 3.50599556
v 0.01405844 -0.00889039 3.03099556
v 0.01405844 -0.00889039 3.50599556
f 346 348 345
f 349 346 345
f 345 348 347
f 347 349 345
f 346 352 348
f 350 346 349
f 350 352 346
f 348 352 347
f 351 349 347
f 347 352 351
f 351 350 349
f 352 350 351

o geometry_44
v 0.03362977 -0.49394929 3.01340697
v 0.03362977 -0.49394929 3.48840697
v 0.03320727 -0.01394948 3.01340697
v 0.03320727 -0.01394948 3.48840697
v 0.61052543 -0.49344151 3.01340697
v 0.61052543 -0.49344151 3.48840697
v 0.61010293 -0.01344169 3.01340697
v 0.61010293 -0.01344169 3.48840697
f 354 356 353
f 357 354 353
f 353 356 355
f 355 357 353
f 354 360 356
f 358 354 357
f 358 360 354
f 356 360 355
f 359 357 355
f 355 360 359
f 359 358 357
f 360 358 359

o geometry_45
v 0.62815047 -0.48993754 3.03436908
v 0.62815047 -0.48993754 3.50936908
v 0.62847823 -0.00993765 3.03436908
v 0.62847823 -0.00993765 3.50936908
v 1.09975280 -0.49025957 3.03436908
v 1.09975280 -0.49025957 3.50936908
v 1.10008056 -0.01025968 3.03436908
v 1.10008056 -0.01025968 3.50936908
f 362 364 361
f 365 362 361
f 361 364 363
f 363 365 361
f 362 368 364
f 366 362 365
f 366 368 362
f 364 368 363
f 367 365 363
f 363 368 367
f 367 366 365
f 368 366 367

o geometry_46
v 1.11556701 -0.48392137 3.02401767
v 1.11556701 -0.48392137 3.49901767
v 1.12029263 -0.00394463 3.02401767
v 1.12029263 -0.00394463 3.49901767
v 1.65542617 -0.48923656 3.02401767
v 1.65542617 -0.48923656 3.49901767
v 1.66015179 -0.00925982 3.02401767
v 1.66015179 -0.00925982 3.49901767
f 370 372 369
f 373 370 369
f 369 372 371
f 371 373 369
f 370 376 372
f 374 370 373
f 374 376 370
f 372 376 371
f 375 373 371
f 371 376 375
f 375 374 373
f 376 374 375

o geometry_47
v 1.67523221 -0.48205019 3.02077781
v 1.67523221 -0.48205019 3.49577781
v 1.67637280 -0.00205154 3.02077781
v 1.67637280 -0.00205154 3.49577781
v 1.99042926 -0.48279917 3.02077781
v 1.99042926 -0.48279917 3.49577781
v 1.99156985 -0.00280053 3.02077781
v 1.99156985 -0.00280053 3.49577781
f 378 380 377
f 381 378 377
f 377 380 379
f 379 381 377
f 378 384 380
f 382 378 381
f 382 384 378
f 380 384 379
f 383 381 379
f 379 384 383
f 383 382 381
f 384 382 383

o geometry_48
v -1.65000000 -0.32000000 0.10000000
v -1.42000000 -0.32000000 0.10000000
v -1.42000000 -0.32000000 3.35000000
v -1.65000000 -0.32000000 3.35000000
v -1.42783706 -0.26047162 0.10000000
v -1.42783706 -0.26047162 3.35000000
v -1.45081416 -0.20500000 0.10000000
v -1.45081416 -0.20500000 3.35000000
v -1.48736544 -0.15736544 0.10000000
v -1.48736544 -0.15736544 3.35000000
v -1.53500000 -0.12081416 0.10000000
v -1.53500000 -0.12081416 3.35000000
v -1.59047162 -0.09783706 0.10000000
v -1.59047162 -0.09783706 3.35000000
v -1.65000000 -0.09000000 0.10000000
v -1.65000000 -0.09000000 3.35000000
v -1.70952838 -0.09783706 0.10000000
v -1.70952838 -0.09783706 3.35000000
v -1.76500000 -0.12081416 0.10000000
v -1.76500000 -0.12081416 3.35000000
v -1.81263456 -0.15736544 0.10000000
v -1.81263456 -0.15736544 3.35000000
v -1.84918584 -0.20500000 0.10000000
v -1.84918584 -0.20500000 3.35000000
v -1.87216294 -0.26047162 0.10000000
v -1.87216294 -0.26047162 3.35000000
v -1.88000000 -0.32000000 0.10000000
v -1.88000000 -0.32000000 3.35000000
v -1.87216294 -0.37952838 0.10000000
v -1.87216294 -0.37952838 3.35000000
v -1.84918584 -0.43500000 0.10000000
v -1.84918584 -0.43500000 3.35000000
v -1.81263456 -0.48263456 0.10000000
v -1.81263456 -0.48263456 3.35000000
v -1.76500000 -0.51918584 0.10000000
v -1.76500000 -0.51918584 3.35000000
v -1.70952838 -0.54216294 0.10000000
v -1.70952838 -0.54216294 3.35000000
v -1.65000000 -0.55000000 0.10000000
v -1.65000000 -0.55000000 3.35000000
v -1.59047162 -0.54216294 0.10000000
v -1.59047162 -0.54216294 3.35000000
v -1.53500000 -0.51918584 0.10000000
v -1.53500000 -0.51918584 3.35000000
v -1.48736544 -0.48263456 0.10000000
v -1.48736544 -0.48263456 3.35000000
v -1.45081416 -0.43500000 0.10000000
v -1.45081416 -0.43500000 3.35000000
v -1.42783706 -0.37952838 0.10000000
v -1.42783706 -0.37952838 3.35000000
f 386 385 389
f 386 389 387
f 387 389 390
f 387 390 388
f 389 385 391
f 389 391 390
f 390 391 392
f 390 392 388
f 391 385 393
f 391 393 392
f 392 393 394
f 392 394 388
f 393 385 395
f 393 395 394
f 394 395 396
f 394 396 388
f 395 385 397
f 395 397 396
f 396 397 398
f 396 398 388
f 397 385 399
f 397 399 398
f 398 399 400
f 398 400 388
f 399 385 401
f 399 401 400
f 400 401 402
f 400 402 388
f 401 385 403
f 401 403 402
f 402 403 404
f 402 404 388
f 403 385 405
f 403 405 404
f 404 405 406
f 404 406 388
f 405 385 407
f 405 407 406
f 406 407 408
f 406 408 388
f 407 385 409
f 407 409 408
f 408 409 410
f 408 410 388
f 409 385 411
f 409 411 410
f 410 411 412
f 410 412 388
f 411 385 413
f 411 413 412
f 412 413 414
f 412 414 388
f 413 385 415
f 413 415 414
f 414 415 416
f 414 416 388
f 415 385 417
f 415 417 416
f 416 417 418
f 416 418 388
f 417 385 419
f 417 419 418
f 418 419 420
f 418 420 388
f 419 385 421
f 419 421 420
f 420 421 422
f 420 422 388
f 421 385 423
f 421 423 422
f 422 423 424
f 422 424 388
f 423 385 425
f 423 425 424
f 424 425 426
f 424 426 388
f 425 385 427
f 425 427 426
f 426 427 428
f 426 428 388
f 427 385 429
f 427 429 428
f 428 429 430
f 428 430 388
f 429 385 431
f 429 431 430
f 430 431 432
f 430 432 388
f 431 385 433
f 431 433 432
f 432 433 434
f 432 434 388
f 433 385 386
f 433 386 434
f 434 386 387
f 434 387 388

o geometry_49
v -1.65000000 -0.32000000 0.10000000
v -1.35560000 -0.32000000 0.10000000
v -1.35560000 -0.32000000 0.26000000
v -1.65000000 -0.32000000 0.26000000
v -1.36563144 -0.24380367 0.10000000
v -1.36563144 -0.24380367 0.26000000
v -1.39504212 -0.17280000 0.10000000
v -1.39504212 -0.17280000 0.26000000
v -1.44182776 -0.11182776 0.10000000
v -1.44182776 -0.11182776 0.26000000
v -1.50280000 -0.06504212 0.10000000
v -1.50280000 -0.06504212 0.26000000
v -1.57380367 -0.03563144 0.10000000
v -1.57380367 -0.03563144 0.26000000
v -1.65000000 -0.02560000 0.10000000
v -1.65000000 -0.02560000 0.26000000
v -1.72619633 -0.03563144 0.10000000
v -1.72619633 -0.03563144 0.26000000
v -1.79720000 -0.06504212 0.10000000
v -1.79720000 -0.06504212 0.26000000
v -1.85817224 -0.11182776 0.10000000
v -1.85817224 -0.11182776 0.26000000
v -1.90495788 -0.17280000 0.10000000
v -1.90495788 -0.17280000 0.26000000
v -1.93436856 -0.24380367 0.10000000
v -1.93436856 -0.24380367 0.26000000
v -1.94440000 -0.32000000 0.10000000
v -1.94440000 -0.32000000 0.26000000
v -1.93436856 -0.39619633 0.10000000
v -1.93436856 -0.39619633 0.26000000
v -1.90495788 -0.46720000 0.10000000
v -1.90495788 -0.46720000 0.26000000
v -1.85817224 -0.52817224 0.10000000
v -1.85817224 -0.52817224 0.26000000
v -1.79720000 -0.57495788 0.10000000
v -1.79720000 -0.57495788 0.26000000
v -1.72619633 -0.60436856 0.10000000
v -1.72619633 -0.60436856 0.26000000
v -1.65000000 -0.61440000 0.10000000
v -1.65000000 -0.61440000 0.26000000
v -1.57380367 -0.60436856 0.10000000
v -1.57380367 -0.60436856 0.26000000
v -1.50280000 -0.57495788 0.10000000
v -1.50280000 -0.57495788 0.26000000
v -1.44182776 -0.52817224 0.10000000
v -1.44182776 -0.52817224 0.26000000
v -1.39504212 -0.46720000 0.10000000
v -1.39504212 -0.46720000 0.26000000
v -1.36563144 -0.39619633 0.10000000
v -1.36563144 -0.39619633 0.26000000
f 436 435 439
f 436 439 437
f 437 439 440
f 437 440 438
f 439 435 441
f 439 441 440
f 440 441 442
f 440 442 438
f 441 435 443
f 441 443 442
f 442 443 444
f 442 444 438
f 443 435 445
f 443 445 444
f 444 445 446
f 444 446 438
f 445 435 447
f 445 447 446
f 446 447 448
f 446 448 438
f 447 435 449
f 447 449 448
f 448 449 450
f 448 450 438
f 449 435 451
f 449 451 450
f 450 451 452
f 450 452 438
f 451 435 453
f 451 453 452
f 452 453 454
f 452 454 438
f 453 435 455
f 453 455 454
f 454 455 456
f 454 456 438
f 455 435 457
f 455 457 456
f 456 457 458
f 456 458 438
f 457 435 459
f 457 459 458
f 458 459 460
f 458 460 438
f 459 435 461
f 459 461 460
f 460 461 462
f 460 462 438
f 461 435 463
f 461 463 462
f 462 463 464
f 462 464 438
f 463 435 465
f 463 465 464
f 464 465 466
f 464 466 438
f 465 435 467
f 465 467 466
f 466 467 468
f 466 468 438
f 467 435 469
f 467 469 468
f 468 469 470
f 468 470 438
f 469 435 471
f 469 471 470
f 470 471 472
f 470 472 438
f 471 435 473
f 471 473 472
f 472 473 474
f 472 474 438
f 473 435 475
f 473 475 474
f 474 475 476
f 474 476 438
f 475 435 477
f 475 477 476
f 476 477 478
f 476 478 438
f 477 435 479
f 477 479 478
f 478 479 480
f 478 480 438
f 479 435 481
f 479 481 480
f 480 481 482
f 480 482 438
f 481 435 483
f 481 483 482
f 482 483 484
f 482 484 438
f 483 435 436
f 483 436 484
f 484 436 437
f 484 437 438

o geometry_50
v -1.65000000 -0.32000000 3.18000000
v -1.36940000 -0.32000000 3.18000000
v -1.36940000 -0.32000000 3.36000000
v -1.65000000 -0.32000000 3.36000000
v -1.37896121 -0.24737538 3.18000000
v -1.37896121 -0.24737538 3.36000000
v -1.40699327 -0.17970000 3.18000000
v -1.40699327 -0.17970000 3.36000000
v -1.45158584 -0.12158584 3.18000000
v -1.45158584 -0.12158584 3.36000000
v -1.50970000 -0.07699327 3.18000000
v -1.50970000 -0.07699327 3.36000000
v -1.57737538 -0.04896121 3.18000000
v -1.57737538 -0.04896121 3.36000000
v -1.65000000 -0.03940000 3.18000000
v -1.65000000 -0.03940000 3.36000000
v -1.72262462 -0.04896121 3.18000000
v -1.72262462 -0.04896121 3.36000000
v -1.79030000 -0.07699327 3.18000000
v -1.79030000 -0.07699327 3.36000000
v -1.84841416 -0.12158584 3.18000000
v -1.84841416 -0.12158584 3.36000000
v -1.89300673 -0.17970000 3.18000000
v -1.89300673 -0.17970000 3.36000000
v -1.92103879 -0.24737538 3.18000000
v -1.92103879 -0.24737538 3.36000000
v -1.93060000 -0.32000000 3.18000000
v -1.93060000 -0.32000000 3.36000000
v -1.92103879 -0.39262462 3.18000000
v -1.92103879 -0.39262462 3.36000000
v -1.89300673 -0.46030000 3.18000000
v -1.89300673 -0.46030000 3.36000000
v -1.84841416 -0.51841416 3.18000000
v -1.84841416 -0.51841416 3.36000000
v -1.79030000 -0.56300673 3.18000000
v -1.79030000 -0.56300673 3.36000000
v -1.72262462 -0.59103879 3.18000000
v -1.72262462 -0.59103879 3.36000000
v -1.65000000 -0.60060000 3.18000000
v -1.65000000 -0.60060000 3.36000000
v -1.57737538 -0.59103879 3.18000000
v -1.57737538 -0.59103879 3.36000000
v -1.50970000 -0.56300673 3.18000000
v -1.50970000 -0.56300673 3.36000000
v -1.45158584 -0.51841416 3.18000000
v -1.45158584 -0.51841416 3.36000000
v -1.40699327 -0.46030000 3.18000000
v -1.40699327 -0.46030000 3.36000000
v -1.37896121 -0.39262462 3.18000000
v -1.37896121 -0.39262462 3.36000000
f 486 485 489
f 486 489 487
f 487 489 490
f 487 490 488
f 489 485 491
f 489 491 490
f 490 491 492
f 490 492 488
f 491 485 493
f 491 493 492
f 492 493 494
f 492 494 488
f 493 485 495
f 493 495 494
f 494 495 496
f 494 496 488
f 495 485 497
f 495 497 496
f 496 497 498
f 496 498 488
f 497 485 499
f 497 499 498
f 498 499 500
f 498 500 488
f 499 485 501
f 499 501 500
f 500 501 502
f 500 502 488
f 501 485 503
f 501 503 502
f 502 503 504
f 502 504 488
f 503 485 505
f 503 505 504
f 504 505 506
f 504 506 488
f 505 485 507
f 505 507 506
f 506 507 508
f 506 508 488
f 507 485 509
f 507 509 508
f 508 509 510
f 508 510 488
f 509 485 511
f 509 511 510
f 510 511 512
f 510 512 488
f 511 485 513
f 511 513 512
f 512 513 514
f 512 514 488
f 513 485 515
f 513 515 514
f 514 515 516
f 514 516 488
f 515 485 517
f 515 517 516
f 516 517 518
f 516 518 488
f 517 485 519
f 517 519 518
f 518 519 520
f 518 520 488
f 519 485 521
f 519 521 520
f 520 521 522
f 520 522 488
f 521 485 523
f 521 523 522
f 522 523 524
f 522 524 488
f 523 485 525
f 523 525 524
f 524 525 526
f 524 526 488
f 525 485 527
f 525 527 526
f 526 527 528
f 526 528 488
f 527 485 529
f 527 529 528
f 528 529 530
f 528 530 488
f 529 485 531
f 529 531 530
f 530 531 532
f 530 532 488
f 531 485 533
f 531 533 532
f 532 533 534
f 532 534 488
f 533 485 486
f 533 486 534
f 534 486 487
f 534 487 488

o geometry_51
v -1.93750000 -0.67000000 3.11000000
v -1.93750000 -0.67000000 3.27000000
v -1.93750000 0.03000000 3.11000000
v -1.93750000 0.03000000 3.27000000
v -1.36250000 -0.67000000 3.11000000
v -1.36250000 -0.67000000 3.27000000
v -1.36250000 0.03000000 3.11000000
v -1.36250000 0.03000000 3.27000000
f 536 538 535
f 539 536 535
f 535 538 537
f 537 539 535
f 536 542 538
f 540 536 539
f 540 542 536
f 538 542 537
f 541 539 537
f 537 542 541
f 541 540 539
f 542 540 541

o geometry_52
v 1.65000000 -0.32000000 0.10000000
v 1.88000000 -0.32000000 0.10000000
v 1.88000000 -0.32000000 3.35000000
v 1.65000000 -0.32000000 3.35000000
v 1.87216294 -0.26047162 0.10000000
v 1.87216294 -0.26047162 3.35000000
v 1.84918584 -0.20500000 0.10000000
v 1.84918584 -0.20500000 3.35000000
v 1.81263456 -0.15736544 0.10000000
v 1.81263456 -0.15736544 3.35000000
v 1.76500000 -0.12081416 0.10000000
v 1.76500000 -0.12081416 3.35000000
v 1.70952838 -0.09783706 0.10000000
v 1.70952838 -0.09783706 3.35000000
v 1.65000000 -0.09000000 0.10000000
v 1.65000000 -0.09000000 3.35000000
v 1.59047162 -0.09783706 0.10000000
v 1.59047162 -0.09783706 3.35000000
v 1.53500000 -0.12081416 0.10000000
v 1.53500000 -0.12081416 3.35000000
v 1.48736544 -0.15736544 0.10000000
v 1.48736544 -0.15736544 3.35000000
v 1.45081416 -0.20500000 0.10000000
v 1.45081416 -0.20500000 3.35000000
v 1.42783706 -0.26047162 0.10000000
v 1.42783706 -0.26047162 3.35000000
v 1.42000000 -0.32000000 0.10000000
v 1.42000000 -0.32000000 3.35000000
v 1.42783706 -0.37952838 0.10000000
v 1.42783706 -0.37952838 3.35000000
v 1.45081416 -0.43500000 0.10000000
v 1.45081416 -0.43500000 3.35000000
v 1.48736544 -0.48263456 0.10000000
v 1.48736544 -0.48263456 3.35000000
v 1.53500000 -0.51918584 0.10000000
v 1.53500000 -0.51918584 3.35000000
v 1.59047162 -0.54216294 0.10000000
v 1.59047162 -0.54216294 3.35000000
v 1.65000000 -0.55000000 0.10000000
v 1.65000000 -0.55000000 3.35000000
v 1.70952838 -0.54216294 0.10000000
v 1.70952838 -0.54216294 3.35000000
v 1.76500000 -0.51918584 0.10000000
v 1.76500000 -0.51918584 3.35000000
v 1.81263456 -0.48263456 0.10000000
v 1.81263456 -0.48263456 3.35000000
v 1.84918584 -0.43500000 0.10000000
v 1.84918584 -0.43500000 3.35000000
v 1.87216294 -0.37952838 0.10000000
v 1.87216294 -0.37952838 3.35000000
f 544 543 547
f 544 547 545
f 545 547 548
f 545 548 546
f 547 543 549
f 547 549 548
f 548 549 550
f 548 550 546
f 549 543 551
f 549 551 550
f 550 551 552
f 550 552 546
f 551 543 553
f 551 553 552
f 552 553 554
f 552 554 546
f 553 543 555
f 553 555 554
f 554 555 556
f 554 556 546
f 555 543 557
f 555 557 556
f 556 557 558
f 556 558 546
f 557 543 559
f 557 559 558
f 558 559 560
f 558 560 546
f 559 543 561
f 559 561 560
f 560 561 562
f 560 562 546
f 561 543 563
f 561 563 562
f 562 563 564
f 562 564 546
f 563 543 565
f 563 565 564
f 564 565 566
f 564 566 546
f 565 543 567
f 565 567 566
f 566 567 568
f 566 568 546
f 567 543 569
f 567 569 568
f 568 569 570
f 568 570 546
f 569 543 571
f 569 571 570
f 570 571 572
f 570 572 546
f 571 543 573
f 571 573 572
f 572 573 574
f 572 574 546
f 573 543 575
f 573 575 574
f 574 575 576
f 574 576 546
f 575 543 577
f 575 577 576
f 576 577 578
f 576 578 546
f 577 543 579
f 577 579 578
f 578 579 580
f 578 580 546
f 579 543 581
f 579 581 580
f 580 581 582
f 580 582 546
f 581 543 583
f 581 583 582
f 582 583 584
f 582 584 546
f 583 543 585
f 583 585 584
f 584 585 586
f 584 586 546
f 585 543 587
f 585 587 586
f 586 587 588
f 586 588 546
f 587 543 589
f 587 589 588
f 588 589 590
f 588 590 546
f 589 543 591
f 589 591 590
f 590 591 592
f 590 592 546
f 591 543 544
f 591 544 592
f 592 544 545
f 592 545 546

o geometry_53
v 1.65000000 -0.32000000 0.10000000
v 1.94440000 -0.32000000 0.10000000
v 1.94440000 -0.32000000 0.26000000
v 1.65000000 -0.32000000 0.26000000
v 1.93436856 -0.24380367 0.10000000
v 1.93436856 -0.24380367 0.26000000
v 1.90495788 -0.17280000 0.10000000
v 1.90495788 -0.17280000 0.26000000
v 1.85817224 -0.11182776 0.10000000
v 1.85817224 -0.11182776 0.26000000
v 1.79720000 -0.06504212 0.10000000
v 1.79720000 -0.06504212 0.26000000
v 1.72619633 -0.03563144 0.10000000
v 1.72619633 -0.03563144 0.26000000
v 1.65000000 -0.02560000 0.10000000
v 1.65000000 -0.02560000 0.26000000
v 1.57380367 -0.03563144 0.10000000
v 1.57380367 -0.03563144 0.26000000
v 1.50280000 -0.06504212 0.10000000
v 1.50280000 -0.06504212 0.26000000
v 1.44182776 -0.11182776 0.10000000
v 1.44182776 -0.11182776 0.26000000
v 1.39504212 -0.17280000 0.10000000
v 1.39504212 -0.17280000 0.26000000
v 1.36563144 -0.24380367 0.10000000
v 1.36563144 -0.24380367 0.26000000
v 1.35560000 -0.32000000 0.10000000
v 1.35560000 -0.32000000 0.26000000
v 1.36563144 -0.39619633 0.10000000
v 1.36563144 -0.39619633 0.26000000
v 1.39504212 -0.46720000 0.10000000
v 1.39504212 -0.46720000 0.26000000
v 1.44182776 -0.52817224 0.10000000
v 1.44182776 -0.52817224 0.26000000
v 1.50280000 -0.57495788 0.10000000
v 1.50280000 -0.57495788 0.26000000
v 1.57380367 -0.60436856 0.10000000
v 1.57380367 -0.60436856 0.26000000
v 1.65000000 -0.61440000 0.10000000
v 1.65000000 -0.61440000 0.26000000
v 1.72619633 -0.60436856 0.10000000
v 1.72619633 -0.60436856 0.26000000
v 1.79720000 -0.57495788 0.10000000
v 1.79720000 -0.57495788 0.26000000
v 1.85817224 -0.52817224 0.10000000
v 1.85817224 -0.52817224 0.26000000
v 1.90495788 -0.46720000 0.10000000
v 1.90495788 -0.46720000 0.26000000
v 1.93436856 -0.39619633 0.10000000
v 1.93436856 -0.39619633 0.26000000
f 594 593 597
f 594 597 595
f 595 597 598
f 595 598 596
f 597 593 599
f 597 599 598
f 598 599 600
f 598 600 596
f 599 593 601
f 599 601 600
f 600 601 602
f 600 602 596
f 601 593 603
f 601 603 602
f 602 603 604
f 602 604 596
f 603 593 605
f 603 605 604
f 604 605 606
f 604 606 596
f 605 593 607
f 605 607 606
f 606 607 608
f 606 608 596
f 607 593 609
f 607 609 608
f 608 609 610
f 608 610 596
f 609 593 611
f 609 611 610
f 610 611 612
f 610 612 596
f 611 593 613
f 611 613 612
f 612 613 614
f 612 614 596
f 613 593 615
f 613 615 614
f 614 615 616
f 614 616 596
f 615 593 617
f 615 617 616
f 616 617 618
f 616 618 596
f 617 593 619
f 617 619 618
f 618 619 620
f 618 620 596
f 619 593 621
f 619 621 620
f 620 621 622
f 620 622 596
f 621 593 623
f 621 623 622
f 622 623 624
f 622 624 596
f 623 593 625
f 623 625 624
f 624 625 626
f 624 626 596
f 625 593 627
f 625 627 626
f 626 627 628
f 626 628 596
f 627 593 629
f 627 629 628
f 628 629 630
f 628 630 596
f 629 593 631
f 629 631 630
f 630 631 632
f 630 632 596
f 631 593 633
f 631 633 632
f 632 633 634
f 632 634 596
f 633 593 635
f 633 635 634
f 634 635 636
f 634 636 596
f 635 593 637
f 635 637 636
f 636 637 638
f 636 638 596
f 637 593 639
f 637 639 638
f 638 639 640
f 638 640 596
f 639 593 641
f 639 641 640
f 640 641 642
f 640 642 596
f 641 593 594
f 641 594 642
f 642 594 595
f 642 595 596

o geometry_54
v 1.65000000 -0.32000000 3.18000000
v 1.93060000 -0.32000000 3.18000000
v 1.93060000 -0.32000000 3.36000000
v 1.65000000 -0.32000000 3.36000000
v 1.92103879 -0.24737538 3.18000000
v 1.92103879 -0.24737538 3.36000000
v 1.89300673 -0.17970000 3.18000000
v 1.89300673 -0.17970000 3.36000000
v 1.84841416 -0.12158584 3.18000000
v 1.84841416 -0.12158584 3.36000000
v 1.79030000 -0.07699327 3.18000000
v 1.79030000 -0.07699327 3.36000000
v 1.72262462 -0.04896121 3.18000000
v 1.72262462 -0.04896121 3.36000000
v 1.65000000 -0.03940000 3.18000000
v 1.65000000 -0.03940000 3.36000000
v 1.57737538 -0.04896121 3.18000000
v 1.57737538 -0.04896121 3.36000000
v 1.50970000 -0.07699327 3.18000000
v 1.50970000 -0.07699327 3.36000000
v 1.45158584 -0.12158584 3.18000000
v 1.45158584 -0.12158584 3.36000000
v 1.40699327 -0.17970000 3.18000000
v 1.40699327 -0.17970000 3.36000000
v 1.37896121 -0.24737538 3.18000000
v 1.37896121 -0.24737538 3.36000000
v 1.36940000 -0.32000000 3.18000000
v 1.36940000 -0.32000000 3.36000000
v 1.37896121 -0.39262462 3.18000000
v 1.37896121 -0.39262462 3.36000000
v 1.40699327 -0.46030000 3.18000000
v 1.40699327 -0.46030000 3.36000000
v 1.45158584 -0.51841416 3.18000000
v 1.45158584 -0.51841416 3.36000000
v 1.50970000 -0.56300673 3.18000000
v 1.50970000 -0.56300673 3.36000000
v 1.57737538 -0.59103879 3.18000000
v 1.57737538 -0.59103879 3.36000000
v 1.65000000 -0.60060000 3.18000000
v 1.65000000 -0.60060000 3.36000000
v 1.72262462 -0.59103879 3.18000000
v 1.72262462 -0.59103879 3.36000000
v 1.79030000 -0.56300673 3.18000000
v 1.79030000 -0.56300673 3.36000000
v 1.84841416 -0.51841416 3.18000000
v 1.84841416 -0.51841416 3.36000000
v 1.89300673 -0.46030000 3.18000000
v 1.89300673 -0.46030000 3.36000000
v 1.92103879 -0.39262462 3.18000000
v 1.92103879 -0.39262462 3.36000000
f 644 643 647
f 644 647 645
f 645 647 648
f 645 648 646
f 647 643 649
f 647 649 648
f 648 649 650
f 648 650 646
f 649 643 651
f 649 651 650
f 650 651 652
f 650 652 646
f 651 643 653
f 651 653 652
f 652 653 654
f 652 654 646
f 653 643 655
f 653 655 654
f 654 655 656
f 654 656 646
f 655 643 657
f 655 657 656
f 656 657 658
f 656 658 646
f 657 643 659
f 657 659 658
f 658 659 660
f 658 660 646
f 659 643 661
f 659 661 660
f 660 661 662
f 660 662 646
f 661 643 663
f 661 663 662
f 662 663 664
f 662 664 646
f 663 643 665
f 663 665 664
f 664 665 666
f 664 666 646
f 665 643 667
f 665 667 666
f 666 667 668
f 666 668 646
f 667 643 669
f 667 669 668
f 668 669 670
f 668 670 646
f 669 643 671
f 669 671 670
f 670 671 672
f 670 672 646
f 671 643 673
f 671 673 672
f 672 673 674
f 672 674 646
f 673 643 675
f 673 675 674
f 674 675 676
f 674 676 646
f 675 643 677
f 675 677 676
f 676 677 678
f 676 678 646
f 677 643 679
f 677 679 678
f 678 679 680
f 678 680 646
f 679 643 681
f 679 681 680
f 680 681 682
f 680 682 646
f 681 643 683
f 681 683 682
f 682 683 684
f 682 684 646
f 683 643 685
f 683 685 684
f 684 685 686
f 684 686 646
f 685 643 687
f 685 687 686
f 686 687 688
f 686 688 646
f 687 643 689
f 687 689 688
f 688 689 690
f 688 690 646
f 689 643 691
f 689 691 690
f 690 691 692
f 690 692 646
f 691 643 644
f 691 644 692
f 692 644 645
f 692 645 646

o geometry_55
v 1.36250000 -0.67000000 3.11000000
v 1.36250000 -0.67000000 3.27000000
v 1.36250000 0.03000000 3.11000000
v 1.36250000 0.03000000 3.27000000
v 1.93750000 -0.67000000 3.11000000
v 1.93750000 -0.67000000 3.27000000
v 1.93750000 0.03000000 3.11000000
v 1.93750000 0.03000000 3.27000000
f 694 696 693
f 697 694 693
f 693 696 695
f 695 697 693
f 694 700 696
f 698 694 697
f 698 700 694
f 696 700 695
f 699 697 695
f 695 700 699
f 699 698 697
f 700 698 699

o geometry_56
v -0.72500000 -0.94000000 0.59000000
v -0.72500000 -0.94000000 0.81000000
v -0.72500000 -0.22000000 0.59000000
v -0.72500000 -0.22000000 0.81000000
v 0.72500000 -0.94000000 0.59000000
v 0.72500000 -0.94000000 0.81000000
v 0.72500000 -0.22000000 0.59000000
v 0.72500000 -0.22000000 0.81000000
f 702 704 701
f 705 702 701
f 701 704 703
f 703 705 701
f 702 708 704
f 706 702 705
f 706 708 702
f 704 708 703
f 707 705 703
f 703 708 707
f 707 706 705
f 708 706 707

o geometry_57
v -0.60000000 -0.85000000 0.10500000
v -0.60000000 -0.85000000 0.65500000
v -0.60000000 -0.27000000 0.10500000
v -0.60000000 -0.27000000 0.65500000
v 0.60000000 -0.85000000 0.10500000
v 0.60000000 -0.85000000 0.65500000
v 0.60000000 -0.27000000 0.10500000
v 0.60000000 -0.27000000 0.65500000
f 710 712 709
f 713 710 709
f 709 712 711
f 711 713 709
f 710 716 712
f 714 710 713
f 714 716 710
f 712 716 711
f 715 713 711
f 711 716 715
f 715 714 713
f 716 714 715

o geometry_58
v -0.75000000 -0.95500000 0.74000000
v -0.75000000 -0.95500000 0.90000000
v -0.75000000 -0.20500000 0.74000000
v -0.75000000 -0.20500000 0.90000000
v 0.75000000 -0.95500000 0.74000000
v 0.75000000 -0.95500000 0.90000000
v 0.75000000 -0.20500000 0.74000000
v 0.75000000 -0.20500000 0.90000000
f 718 720 717
f 721 718 717
f 717 720 719
f 719 721 717
f 718 724 720
f 722 718 721
f 722 724 718
f 720 724 719
f 723 721 719
f 719 724 723
f 723 722 721
f 724 722 723

o geometry_59
v -0.37500000 -0.85000000 0.86000000
v -0.37500000 -0.85000000 1.14000000
v -0.37500000 -0.39000000 0.86000000
v -0.37500000 -0.39000000 1.14000000
v 0.37500000 -0.85000000 0.86000000
v 0.37500000 -0.85000000 1.14000000
v 0.37500000 -0.39000000 0.86000000
v 0.37500000 -0.39000000 1.14000000
f 726 728 725
f 729 726 725
f 725 728 727
f 727 729 725
f 726 732 728
f 730 726 729
f 730 732 726
f 728 732 727
f 731 729 727
f 727 732 731
f 731 730 729
f 732 730 731

o geometry_60
v 0.00000000 -0.63000000 1.13000000
v 0.16000000 -0.63000000 1.13000000
v 0.16000000 -0.63000000 1.43000000
v 0.00000000 -0.63000000 1.43000000
v 0.14782073 -0.56877065 1.13000000
v 0.14782073 -0.56877065 1.43000000
v 0.11313708 -0.51686292 1.13000000
v 0.11313708 -0.51686292 1.43000000
v 0.06122935 -0.48217927 1.13000000
v 0.06122935 -0.48217927 1.43000000
v 0.00000000 -0.47000000 1.13000000
v 0.00000000 -0.47000000 1.43000000
v -0.06122935 -0.48217927 1.13000000
v -0.06122935 -0.48217927 1.43000000
v -0.11313708 -0.51686292 1.13000000
v -0.11313708 -0.51686292 1.43000000
v -0.14782073 -0.56877065 1.13000000
v -0.14782073 -0.56877065 1.43000000
v -0.16000000 -0.63000000 1.13000000
v -0.16000000 -0.63000000 1.43000000
v -0.14782073 -0.69122935 1.13000000
v -0.14782073 -0.69122935 1.43000000
v -0.11313708 -0.74313708 1.13000000
v -0.11313708 -0.74313708 1.43000000
v -0.06122935 -0.77782073 1.13000000
v -0.06122935 -0.77782073 1.43000000
v -0.00000000 -0.79000000 1.13000000
v -0.00000000 -0.79000000 1.43000000
v 0.06122935 -0.77782073 1.13000000
v 0.06122935 -0.77782073 1.43000000
v 0.11313708 -0.74313708 1.13000000
v 0.11313708 -0.74313708 1.43000000
v 0.14782073 -0.69122935 1.13000000
v 0.14782073 -0.69122935 1.43000000
f 734 733 737
f 734 737 735
f 735 737 738
f 735 738 736
f 737 733 739
f 737 739 738
f 738 739 740
f 738 740 736
f 739 733 741
f 739 741 740
f 740 741 742
f 740 742 736
f 741 733 743
f 741 743 742
f 742 743 744
f 742 744 736
f 743 733 745
f 743 745 744
f 744 745 746
f 744 746 736
f 745 733 747
f 745 747 746
f 746 747 748
f 746 748 736
f 747 733 749
f 747 749 748
f 748 749 750
f 748 750 736
f 749 733 751
f 749 751 750
f 750 751 752
f 750 752 736
f 751 733 753
f 751 753 752
f 752 753 754
f 752 754 736
f 753 733 755
f 753 755 754
f 754 755 756
f 754 756 736
f 755 733 757
f 755 757 756
f 756 757 758
f 756 758 736
f 757 733 759
f 757 759 758
f 758 759 760
f 758 760 736
f 759 733 761
f 759 761 760
f 760 761 762
f 760 762 736
f 761 733 763
f 761 763 762
f 762 763 764
f 762 764 736
f 763 733 765
f 763 765 764
f 764 765 766
f 764 766 736
f 765 733 734
f 765 734 766
f 766 734 735
f 766 735 736

o geometry_61
v -1.99000000 -0.66000000 2.63000000
v -1.99000000 -0.66000000 2.81000000
v -1.99000000 -0.58000000 2.63000000
v -1.99000000 -0.58000000 2.81000000
v -1.57000000 -0.66000000 2.63000000
v -1.57000000 -0.66000000 2.81000000
v -1.57000000 -0.58000000 2.63000000
v -1.57000000 -0.58000000 2.81000000
f 768 770 767
f 771 768 767
f 767 770 769
f 769 771 767
f 768 774 770
f 772 768 771
f 772 774 768
f 770 774 769
f 773 771 769
f 769 774 773
f 773 772 771
f 774 772 773

o geometry_62
v -1.89550000 -0.73000000 2.76000000
v -1.89550000 -0.73000000 2.84000000
v -1.89550000 -0.63000000 2.76000000
v -1.89550000 -0.63000000 2.84000000
v -1.66450000 -0.73000000 2.76000000
v -1.66450000 -0.73000000 2.84000000
v -1.66450000 -0.63000000 2.76000000
v -1.66450000 -0.63000000 2.84000000
f 776 778 775
f 779 776 775
f 775 778 777
f 777 779 775
f 776 782 778
f 780 776 779
f 780 782 776
f 778 782 777
f 781 779 777
f 777 782 781
f 781 780 779
f 782 780 781

o geometry_63
v -1.57000000 -0.66000000 2.63000000
v -1.57000000 -0.66000000 2.81000000
v -1.57000000 -0.58000000 2.63000000
v -1.57000000 -0.58000000 2.81000000
v -1.15000000 -0.66000000 2.63000000
v -1.15000000 -0.66000000 2.81000000
v -1.15000000 -0.58000000 2.63000000
v -1.15000000 -0.58000000 2.81000000
f 784 786 783
f 787 784 783
f 783 786 785
f 785 787 783
f 784 790 786
f 788 784 787
f 788 790 784
f 786 790 785
f 789 787 785
f 785 790 789
f 789 788 787
f 790 788 789

o geometry_64
v -1.47550000 -0.73000000 2.60000000
v -1.47550000 -0.73000000 2.68000000
v -1.47550000 -0.63000000 2.60000000
v -1.47550000 -0.63000000 2.68000000
v -1.24450000 -0.73000000 2.60000000
v -1.24450000 -0.73000000 2.68000000
v -1.24450000 -0.63000000 2.60000000
v -1.24450000 -0.63000000 2.68000000
f 792 794 791
f 795 792 791
f 791 794 793
f 793 795 791
f 792 798 794
f 796 792 795
f 796 798 792
f 794 798 793
f 797 795 793
f 793 798 797
f 797 796 795
f 798 796 797

o geometry_65
v -1.15000000 -0.66000000 2.63000000
v -1.15000000 -0.66000000 2.81000000
v -1.15000000 -0.58000000 2.63000000
v -1.15000000 -0.58000000 2.81000000
v -0.73000000 -0.66000000 2.63000000
v -0.73000000 -0.66000000 2.81000000
v -0.73000000 -0.58000000 2.63000000
v -0.73000000 -0.58000000 2.81000000
f 800 802 799
f 803 800 799
f 799 802 801
f 801 803 799
f 800 806 802
f 804 800 803
f 804 806 800
f 802 806 801
f 805 803 801
f 801 806 805
f 805 804 803
f 806 804 805

o geometry_66
v -1.05550000 -0.73000000 2.76000000
v -1.05550000 -0.73000000 2.84000000
v -1.05550000 -0.63000000 2.76000000
v -1.05550000 -0.63000000 2.84000000
v -0.82450000 -0.73000000 2.76000000
v -0.82450000 -0.73000000 2.84000000
v -0.82450000 -0.63000000 2.76000000
v -0.82450000 -0.63000000 2.84000000
f 808 810 807
f 811 808 807
f 807 810 809
f 809 811 807
f 808 814 810
f 812 808 811
f 812 814 808
f 810 814 809
f 813 811 809
f 809 814 813
f 813 812 811
f 814 812 813

o geometry_67
v -0.73000000 -0.66000000 2.63000000
v -0.73000000 -0.66000000 2.81000000
v -0.73000000 -0.58000000 2.63000000
v -0.73000000 -0.58000000 2.81000000
v -0.31000000 -0.66000000 2.63000000
v -0.31000000 -0.66000000 2.81000000
v -0.31000000 -0.58000000 2.63000000
v -0.31000000 -0.58000000 2.81000000
f 816 818 815
f 819 816 815
f 815 818 817
f 817 819 815
f 816 822 818
f 820 816 819
f 820 822 816
f 818 822 817
f 821 819 817
f 817 822 821
f 821 820 819
f 822 820 821

o geometry_68
v -0.63550000 -0.73000000 2.60000000
v -0.63550000 -0.73000000 2.68000000
v -0.63550000 -0.63000000 2.60000000
v -0.63550000 -0.63000000 2.68000000
v -0.40450000 -0.73000000 2.60000000
v -0.40450000 -0.73000000 2.68000000
v -0.40450000 -0.63000000 2.60000000
v -0.40450000 -0.63000000 2.68000000
f 824 826 823
f 827 824 823
f 823 826 825
f 825 827 823
f 824 830 826
f 828 824 827
f 828 830 824
f 826 830 825
f 829 827 825
f 825 830 829
f 829 828 827
f 830 828 829

o geometry_69
v -0.31000000 -0.66000000 2.63000000
v -0.31000000 -0.66000000 2.81000000
v -0.31000000 -0.58000000 2.63000000
v -0.31000000 -0.58000000 2.81000000
v 0.11000000 -0.66000000 2.63000000
v 0.11000000 -0.66000000 2.81000000
v 0.11000000 -0.58000000 2.63000000
v 0.11000000 -0.58000000 2.81000000
f 832 834 831
f 835 832 831
f 831 834 833
f 833 835 831
f 832 838 834
f 836 832 835
f 836 838 832
f 834 838 833
f 837 835 833
f 833 838 837
f 837 836 835
f 838 836 837

o geometry_70
v -0.21550000 -0.73000000 2.76000000
v -0.21550000 -0.73000000 2.84000000
v -0.21550000 -0.63000000 2.76000000
v -0.21550000 -0.63000000 2.84000000
v 0.01550000 -0.73000000 2.76000000
v 0.01550000 -0.73000000 2.84000000
v 0.01550000 -0.63000000 2.76000000
v 0.01550000 -0.63000000 2.84000000
f 840 842 839
f 843 840 839
f 839 842 841
f 841 843 839
f 840 846 842
f 844 840 843
f 844 846 840
f 842 846 841
f 845 843 841
f 841 846 845
f 845 844 843
f 846 844 845

o geometry_71
v 0.11000000 -0.66000000 2.63000000
v 0.11000000 -0.66000000 2.81000000
v 0.11000000 -0.58000000 2.63000000
v 0.11000000 -0.58000000 2.81000000
v 0.53000000 -0.66000000 2.63000000
v 0.53000000 -0.66000000 2.81000000
v 0.53000000 -0.58000000 2.63000000
v 0.53000000 -0.58000000 2.81000000
f 848 850 847
f 851 848 847
f 847 850 849
f 849 851 847
f 848 854 850
f 852 848 851
f 852 854 848
f 850 854 849
f 853 851 849
f 849 854 853
f 853 852 851
f 854 852 853

o geometry_72
v 0.20450000 -0.73000000 2.60000000
v 0.20450000 -0.73000000 2.68000000
v 0.20450000 -0.63000000 2.60000000
v 0.20450000 -0.63000000 2.68000000
v 0.43550000 -0.73000000 2.60000000
v 0.43550000 -0.73000000 2.68000000
v 0.43550000 -0.63000000 2.60000000
v 0.43550000 -0.63000000 2.68000000
f 856 858 855
f 859 856 855
f 855 858 857
f 857 859 855
f 856 862 858
f 860 856 859
f 860 862 856
f 858 862 857
f 861 859 857
f 857 862 861
f 861 860 859
f 862 860 861

o geometry_73
v 0.53000000 -0.66000000 2.63000000
v 0.53000000 -0.66000000 2.81000000
v 0.53000000 -0.58000000 2.63000000
v 0.53000000 -0.58000000 2.81000000
v 0.95000000 -0.66000000 2.63000000
v 0.95000000 -0.66000000 2.81000000
v 0.95000000 -0.58000000 2.63000000
v 0.95000000 -0.58000000 2.81000000
f 864 866 863
f 867 864 863
f 863 866 865
f 865 867 863
f 864 870 866
f 868 864 867
f 868 870 864
f 866 870 865
f 869 867 865
f 865 870 869
f 869 868 867
f 870 868 869

o geometry_74
v 0.62450000 -0.73000000 2.76000000
v 0.62450000 -0.73000000 2.84000000
v 0.62450000 -0.63000000 2.76000000
v 0.62450000 -0.63000000 2.84000000
v 0.85550000 -0.73000000 2.76000000
v 0.85550000 -0.73000000 2.84000000
v 0.85550000 -0.63000000 2.76000000
v 0.85550000 -0.63000000 2.84000000
f 872 874 871
f 875 872 871
f 871 874 873
f 873 875 871
f 872 878 874
f 876 872 875
f 876 878 872
f 874 878 873
f 877 875 873
f 873 878 877
f 877 876 875
f 878 876 877

o geometry_75
v 0.95000000 -0.66000000 2.63000000
v 0.95000000 -0.66000000 2.81000000
v 0.95000000 -0.58000000 2.63000000
v 0.95000000 -0.58000000 2.81000000
v 1.37000000 -0.66000000 2.63000000
v 1.37000000 -0.66000000 2.81000000
v 1.37000000 -0.58000000 2.63000000
v 1.37000000 -0.58000000 2.81000000
f 880 882 879
f 883 880 879
f 879 882 881
f 881 883 879
f 880 886 882
f 884 880 883
f 884 886 880
f 882 886 881
f 885 883 881
f 881 886 885
f 885 884 883
f 886 884 885

o geometry_76
v 1.04450000 -0.73000000 2.60000000
v 1.04450000 -0.73000000 2.68000000
v 1.04450000 -0.63000000 2.60000000
v 1.04450000 -0.63000000 2.68000000
v 1.27550000 -0.73000000 2.60000000
v 1.27550000 -0.73000000 2.68000000
v 1.27550000 -0.63000000 2.60000000
v 1.27550000 -0.63000000 2.68000000
f 888 890 887
f 891 888 887
f 887 890 889
f 889 891 887
f 888 894 890
f 892 888 891
f 892 894 888
f 890 894 889
f 893 891 889
f 889 894 893
f 893 892 891
f 894 892 893

o geometry_77
v 1.37000000 -0.66000000 2.63000000
v 1.37000000 -0.66000000 2.81000000
v 1.37000000 -0.58000000 2.63000000
v 1.37000000 -0.58000000 2.81000000
v 1.79000000 -0.66000000 2.63000000
v 1.79000000 -0.66000000 2.81000000
v 1.79000000 -0.58000000 2.63000000
v 1.79000000 -0.58000000 2.81000000
f 896 898 895
f 899 896 895
f 895 898 897
f 897 899 895
f 896 902 898
f 900 896 899
f 900 902 896
f 898 902 897
f 901 899 897
f 897 902 901
f 901 900 899
f 902 900 901

o geometry_78
v 1.46450000 -0.73000000 2.76000000
v 1.46450000 -0.73000000 2.84000000
v 1.46450000 -0.63000000 2.76000000
v 1.46450000 -0.63000000 2.84000000
v 1.69550000 -0.73000000 2.76000000
v 1.69550000 -0.73000000 2.84000000
v 1.69550000 -0.63000000 2.76000000
v 1.69550000 -0.63000000 2.84000000
f 904 906 903
f 907 904 903
f 903 906 905
f 905 907 903
f 904 910 906
f 908 904 907
f 908 910 904
f 906 910 905
f 909 907 905
f 905 910 909
f 909 908 907
f 910 908 909

o geometry_79
v -0.95000000 -0.72000000 1.38000000
v -0.90500000 -0.72000000 1.38000000
v -0.90500000 -0.72000000 1.72000000
v -0.95000000 -0.72000000 1.72000000
v -0.91102886 -0.69750000 1.38000000
v -0.91102886 -0.69750000 1.72000000
v -0.92750000 -0.68102886 1.38000000
v -0.92750000 -0.68102886 1.72000000
v -0.95000000 -0.67500000 1.38000000
v -0.95000000 -0.67500000 1.72000000
v -0.97250000 -0.68102886 1.38000000
v -0.97250000 -0.68102886 1.72000000
v -0.98897114 -0.69750000 1.38000000
v -0.98897114 -0.69750000 1.72000000
v -0.99500000 -0.72000000 1.38000000
v -0.99500000 -0.72000000 1.72000000
v -0.98897114 -0.74250000 1.38000000
v -0.98897114 -0.74250000 1.72000000
v -0.97250000 -0.75897114 1.38000000
v -0.97250000 -0.75897114 1.72000000
v -0.95000000 -0.76500000 1.38000000
v -0.95000000 -0.76500000 1.72000000
v -0.92750000 -0.75897114 1.38000000
v -0.92750000 -0.75897114 1.72000000
v -0.91102886 -0.74250000 1.38000000
v -0.91102886 -0.74250000 1.72000000
f 912 911 915
f 912 915 913
f 913 915 916
f 913 916 914
f 915 911 917
f 915 917 916
f 916 917 918
f 916 918 914
f 917 911 919
f 917 919 918
f 918 919 920
f 918 920 914
f 919 911 921
f 919 921 920
f 920 921 922
f 920 922 914
f 921 911 923
f 921 923 922
f 922 923 924
f 922 924 914
f 923 911 925
f 923 925 924
f 924 925 926
f 924 926 914
f 925 911 927
f 925 927 926
f 926 927 928
f 926 928 914
f 927 911 929
f 927 929 928
f 928 929 930
f 928 930 914
f 929 911 931
f 929 931 930
f 930 931 932
f 930 932 914
f 931 911 933
f 931 933 932
f 932 933 934
f 932 934 914
f 933 911 935
f 933 935 934
f 934 935 936
f 934 936 914
f 935 911 912
f 935 912 936
f 936 912 913
f 936 913 914

o geometry_80
v -1.04000000 -0.70000000 1.39000000
v -1.04000000 -0.70000000 1.63000000
v -1.04000000 -0.64000000 1.39000000
v -1.04000000 -0.64000000 1.63000000
v -0.86000000 -0.70000000 1.39000000
v -0.86000000 -0.70000000 1.63000000
v -0.86000000 -0.64000000 1.39000000
v -0.86000000 -0.64000000 1.63000000
f 938 940 937
f 941 938 937
f 937 940 939
f 939 941 937
f 938 944 940
f 942 938 941
f 942 944 938
f 940 944 939
f 943 941 939
f 939 944 943
f 943 942 941
f 944 942 943

o geometry_81
v -0.95000000 -0.73000000 1.78000000
v -0.85000000 -0.73000000 1.78000000
v -0.95000000 -0.73000000 1.98000000
v -0.86339746 -0.68000000 1.78000000
v -0.90000000 -0.64339746 1.78000000
v -0.95000000 -0.63000000 1.78000000
v -1.00000000 -0.64339746 1.78000000
v -1.03660254 -0.68000000 1.78000000
v -1.05000000 -0.73000000 1.78000000
v -1.03660254 -0.78000000 1.78000000
v -1.00000000 -0.81660254 1.78000000
v -0.95000000 -0.83000000 1.78000000
v -0.90000000 -0.81660254 1.78000000
v -0.86339746 -0.78000000 1.78000000
f 946 945 948
f 946 948 947
f 948 945 949
f 948 949 947
f 949 945 950
f 949 950 947
f 950 945 951
f 950 951 947
f 951 945 952
f 951 952 947
f 952 945 953
f 952 953 947
f 953 945 954
f 953 954 947
f 954 945 955
f 954 955 947
f 955 945 956
f 955 956 947
f 956 945 957
f 956 957 947
f 957 945 958
f 957 958 947
f 958 945 946
f 958 946 947

o geometry_82
v 0.95000000 -0.72000000 1.38000000
v 0.99500000 -0.72000000 1.38000000
v 0.99500000 -0.72000000 1.72000000
v 0.95000000 -0.72000000 1.72000000
v 0.98897114 -0.69750000 1.38000000
v 0.98897114 -0.69750000 1.72000000
v 0.97250000 -0.68102886 1.38000000
v 0.97250000 -0.68102886 1.72000000
v 0.95000000 -0.67500000 1.38000000
v 0.95000000 -0.67500000 1.72000000
v 0.92750000 -0.68102886 1.38000000
v 0.92750000 -0.68102886 1.72000000
v 0.91102886 -0.69750000 1.38000000
v 0.91102886 -0.69750000 1.72000000
v 0.90500000 -0.72000000 1.38000000
v 0.90500000 -0.72000000 1.72000000
v 0.91102886 -0.74250000 1.38000000
v 0.91102886 -0.74250000 1.72000000
v 0.92750000 -0.75897114 1.38000000
v 0.92750000 -0.75897114 1.72000000
v 0.95000000 -0.76500000 1.38000000
v 0.95000000 -0.76500000 1.72000000
v 0.97250000 -0.75897114 1.38000000
v 0.97250000 -0.75897114 1.72000000
v 0.98897114 -0.74250000 1.38000000
v 0.98897114 -0.74250000 1.72000000
f 960 959 963
f 960 963 961
f 961 963 964
f 961 964 962
f 963 959 965
f 963 965 964
f 964 965 966
f 964 966 962
f 965 959 967
f 965 967 966
f 966 967 968
f 966 968 962
f 967 959 969
f 967 969 968
f 968 969 970
f 968 970 962
f 969 959 971
f 969 971 970
f 970 971 972
f 970 972 962
f 971 959 973
f 971 973 972
f 972 973 974
f 972 974 962
f 973 959 975
f 973 975 974
f 974 975 976
f 974 976 962
f 975 959 977
f 975 977 976
f 976 977 978
f 976 978 962
f 977 959 979
f 977 979 978
f 978 979 980
f 978 980 962
f 979 959 981
f 979 981 980
f 980 981 982
f 980 982 962
f 981 959 983
f 981 983 982
f 982 983 984
f 982 984 962
f 983 959 960
f 983 960 984
f 984 960 961
f 984 961 962

o geometry_83
v 0.86000000 -0.70000000 1.39000000
v 0.86000000 -0.70000000 1.63000000
v 0.86000000 -0.64000000 1.39000000
v 0.86000000 -0.64000000 1.63000000
v 1.04000000 -0.70000000 1.39000000
v 1.04000000 -0.70000000 1.63000000
v 1.04000000 -0.64000000 1.39000000
v 1.04000000 -0.64000000 1.63000000
f 986 988 985
f 989 986 985
f 985 988 987
f 987 989 985
f 986 992 988
f 990 986 989
f 990 992 986
f 988 992 987
f 991 989 987
f 987 992 991
f 991 990 989
f 992 990 991

o geometry_84
v 0.95000000 -0.73000000 1.78000000
v 1.05000000 -0.73000000 1.78000000
v 0.95000000 -0.73000000 1.98000000
v 1.03660254 -0.68000000 1.78000000
v 1.00000000 -0.64339746 1.78000000
v 0.95000000 -0.63000000 1.78000000
v 0.90000000 -0.64339746 1.78000000
v 0.86339746 -0.68000000 1.78000000
v 0.85000000 -0.73000000 1.78000000
v 0.86339746 -0.78000000 1.78000000
v 0.90000000 -0.81660254 1.78000000
v 0.95000000 -0.83000000 1.78000000
v 1.00000000 -0.81660254 1.78000000
v 1.03660254 -0.78000000 1.78000000
f 994 993 996
f 994 996 995
f 996 993 997
f 996 997 995
f 997 993 998
f 997 998 995
f 998 993 999
f 998 999 995
f 999 993 1000
f 999 1000 995
f 1000 993 1001
f 1000 1001 995
f 1001 993 1002
f 1001 1002 995
f 1002 993 1003
f 1002 1003 995
f 1003 993 1004
f 1003 1004 995
f 1004 993 1005
f 1004 1005 995
f 1005 993 1006
f 1005 1006 995
f 1006 993 994
f 1006 994 995

o geometry_85
v -0.98680637 -0.29369059 0.13787950
v -0.76376778 -0.29369059 0.13787950
v -0.98680637 -0.54630941 0.13787950
v -0.76376778 -0.54630941 0.13787950
v -0.87528708 -0.49806351 0.33983938
v -0.87528708 -0.34193649 0.33983938
v -0.87528708 -0.49806351 -0.06408038
v -0.87528708 -0.34193649 -0.06408038
v -0.69484507 -0.42000000 0.01306143
v -0.69484507 -0.42000000 0.26269757
v -1.05572909 -0.42000000 0.01306143
v -1.05572909 -0.42000000 0.26269757
v -0.87528708 -0.27151439 0.13787950
v -0.87528708 -0.56848561 0.13787950
v -0.94083648 -0.54012738 0.25658854
v -0.80973768 -0.54012738 0.25658854
v -0.94083648 -0.29987262 0.25658854
v -0.80973768 -0.29987262 0.25658854
v -0.87528708 -0.42000000 0.37529758
v -0.94083648 -0.54012738 0.01917046
v -0.80973768 -0.54012738 0.01917046
v -0.94083648 -0.29987262 0.01917046
v -0.80973768 -0.29987262 0.01917046
v -0.87528708 -0.42000000 -0.09953858
v -0.70367653 -0.34575719 0.06451328
v -0.70367653 -0.49424281 0.06451328
v -0.76922593 -0.46588458 -0.05419576
v -0.76922593 -0.37411542 -0.05419576
v -0.70367653 -0.34575719 0.21124572
v -0.70367653 -0.49424281 0.21124572
v -0.76922593 -0.46588458 0.32995476
v -0.76922593 -0.37411542 0.32995476
v -0.66316477 -0.42000000 0.13787950
v -1.04689763 -0.34575719 0.06451328
v -1.04689763 -0.49424281 0.06451328
v -0.98134823 -0.46588458 -0.05419576
v -0.98134823 -0.37411542 -0.05419576
v -1.04689763 -0.34575719 0.21124572
v -1.04689763 -0.49424281 0.21124572
v -0.98134823 -0.46588458 0.32995476
v -0.98134823 -0.37411542 0.32995476
v -1.08740938 -0.42000000 0.13787950
f 1007 1044 1023
f 1044 1018 1047
f 1023 1047 1012
f 1044 1047 1023
f 1007 1023 1019
f 1023 1012 1024
f 1019 1024 1008
f 1023 1024 1019
f 1007 1019 1028
f 1019 1008 1029
f 1028 1029 1014
f 1019 1029 1028
f 1007 1028 1040
f 1028 1014 1043
f 1040 1043 1017
f 1028 1043 1040
f 1007 1040 1044
f 1040 1017 1048
f 1044 1048 1018
f 1040 1048 1044
f 1008 1024 1035
f 1024 1012 1038
f 1035 1038 1016
f 1024 1038 1035
f 1012 1047 1025
f 1047 1018 1046
f 1025 1046 1011
f 1047 1046 1025
f 1018 1048 1045
f 1048 1017 1041
f 1045 1041 1009
f 1048 1041 1045
f 1017 1043 1042
f 1043 1014 1030
f 1042 1030 1013
f 1043 1030 1042
f 1014 1029 1034
f 1029 1008 1031
f 1034 1031 1015
f 1029 1031 1034
f 1010 1036 1022
f 1036 1016 1037
f 1022 1037 1011
f 1036 1037 1022
f 1010 1022 1020
f 1022 1011 1021
f 1020 1021 1009
f 1022 1021 1020
f 1010 1020 1027
f 1020 1009 1026
f 1027 1026 1013
f 1020 1026 1027
f 1010 1027 1032
f 1027 1013 1033
f 1032 1033 1015
f 1027 1033 1032
f 1010 1032 1036
f 1032 1015 1039
f 1036 1039 1016
f 1032 1039 1036
f 1011 1037 1025
f 1037 1016 1038
f 1025 1038 1012
f 1037 1038 1025
f 1009 1021 1045
f 1021 1011 1046
f 1045 1046 1018
f 1021 1046 1045
f 1013 1026 1042
f 1026 1009 1041
f 1042 1041 1017
f 1026 1041 1042
f 1015 1033 1034
f 1033 1013 1030
f 1034 1030 1014
f 1033 1030 1034
f 1016 1039 1035
f 1039 1015 1031
f 1035 1031 1008
f 1039 1031 1035

o geometry_86
v -0.87720119 -0.25944074 0.17526668
v -0.59368381 -0.25944074 0.17526668
v -0.87720119 -0.58055926 0.17526668
v -0.59368381 -0.58055926 0.17526668
v -0.73544250 -0.51923108 0.43168648
v -0.73544250 -0.32076892 0.43168648
v -0.73544250 -0.51923108 -0.08115311
v -0.73544250 -0.32076892 -0.08115311
v -0.50607213 -0.42000000 0.01679053
v -0.50607213 -0.42000000 0.33374283
v -0.96481288 -0.42000000 0.01679053
v -0.96481288 -0.42000000 0.33374283
v -0.73544250 -0.23125126 0.17526668
v -0.73544250 -0.60874874 0.17526668
v -0.81876617 -0.57270093 0.32598646
v -0.65211884 -0.57270093 0.32598646
v -0.81876617 -0.26729907 0.32598646
v -0.65211884 -0.26729907 0.32598646
v -0.73544250 -0.42000000 0.47670623
v -0.81876617 -0.57270093 0.02454691
v -0.65211884 -0.57270093 0.02454691
v -0.81876617 -0.26729907 0.02454691
v -0.65211884 -0.26729907 0.02454691
v -0.73544250 -0.42000000 -0.12617287
v -0.51729831 -0.32562563 0.08211674
v -0.51729831 -0.51437437 0.08211674
v -0.60062198 -0.47832657 -0.06860304
v -0.60062198 -0.36167343 -0.06860304
v -0.51729831 -0.32562563 0.26841663
v -0.51729831 -0.51437437 0.26841663
v -0.60062198 -0.47832657 0.41913640
v -0.60062198 -0.36167343 0.41913640
v -0.46580145 -0.42000000 0.17526668
v -0.95358670 -0.32562563 0.08211674
v -0.95358670 -0.51437437 0.08211674
v -0.87026303 -0.47832657 -0.06860304
v -0.87026303 -0.36167343 -0.06860304
v -0.95358670 -0.32562563 0.26841663
v -0.95358670 -0.51437437 0.26841663
v -0.87026303 -0.47832657 0.41913640
v -0.87026303 -0.36167343 0.41913640
v -1.00508355 -0.42000000 0.17526668
f 1049 1086 1065
f 1086 1060 1089
f 1065 1089 1054
f 1086 1089 1065
f 1049 1065 1061
f 1065 1054 1066
f 1061 1066 1050
f 1065 1066 1061
f 1049 1061 1070
f 1061 1050 1071
f 1070 1071 1056
f 1061 1071 1070
f 1049 1070 1082
f 1070 1056 1085
f 1082 1085 1059
f 1070 1085 1082
f 1049 1082 1086
f 1082 1059 1090
f 1086 1090 1060
f 1082 1090 1086
f 1050 1066 1077
f 1066 1054 1080
f 1077 1080 1058
f 1066 1080 1077
f 1054 1089 1067
f 1089 1060 1088
f 1067 1088 1053
f 1089 1088 1067
f 1060 1090 1087
f 1090 1059 1083
f 1087 1083 1051
f 1090 1083 1087
f 1059 1085 1084
f 1085 1056 1072
f 1084 1072 1055
f 1085 1072 1084
f 1056 1071 1076
f 1071 1050 1073
f 1076 1073 1057
f 1071 1073 1076
f 1052 1078 1064
f 1078 1058 1079
f 1064 1079 1053
f 1078 1079 1064
f 1052 1064 1062
f 1064 1053 1063
f 1062 1063 1051
f 1064 1063 1062
f 1052 1062 1069
f 1062 1051 1068
f 1069 1068 1055
f 1062 1068 1069
f 1052 1069 1074
f 1069 1055 1075
f 1074 1075 1057
f 1069 1075 1074
f 1052 1074 1078
f 1074 1057 1081
f 1078 1081 1058
f 1074 1081 1078
f 1053 1079 1067
f 1079 1058 1080
f 1067 1080 1054
f 1079 1080 1067
f 1051 1063 1087
f 1063 1053 1088
f 1087 1088 1060
f 1063 1088 1087
f 1055 1068 1084
f 1068 1051 1083
f 1084 1083 1059
f 1068 1083 1084
f 1057 1075 1076
f 1075 1055 1072
f 1076 1072 1056
f 1075 1072 1076
f 1058 1081 1077
f 1081 1057 1073
f 1077 1073 1050
f 1081 1073 1077

o geometry_87
v -0.76762553 -0.35734560 0.06839361
v -0.65698969 -0.35734560 0.06839361
v -0.76762553 -0.48265440 0.06839361
v -0.65698969 -0.48265440 0.06839361
v -0.71230761 -0.45872255 0.15127068
v -0.71230761 -0.38127745 0.15127068
v -0.71230761 -0.45872255 -0.01448346
v -0.71230761 -0.38127745 -0.01448346
v -0.62280133 -0.42000000 0.01717276
v -0.62280133 -0.42000000 0.11961446
v -0.80181389 -0.42000000 0.01717276
v -0.80181389 -0.42000000 0.11961446
v -0.71230761 -0.34634534 0.06839361
v -0.71230761 -0.49365466 0.06839361
v -0.74482267 -0.47958787 0.11710753
v -0.67979255 -0.47958787 0.11710753
v -0.74482267 -0.36041213 0.11710753
v -0.67979255 -0.36041213 0.11710753
v -0.71230761 -0.42000000 0.16582145
v -0.74482267 -0.47958787 0.01967969
v -0.67979255 -0.47958787 0.01967969
v -0.74482267 -0.36041213 0.01967969
v -0.67979255 -0.36041213 0.01967969
v -0.71230761 -0.42000000 -0.02903423
v -0.62718208 -0.38317267 0.03828675
v -0.62718208 -0.45682733 0.03828675
v -0.65969714 -0.44276054 -0.01042717
v -0.65969714 -0.39723946 -0.01042717
v -0.62718208 -0.38317267 0.09850047
v -0.62718208 -0.45682733 0.09850047
v -0.65969714 -0.44276054 0.14721439
v -0.65969714 -0.39723946 0.14721439
v -0.60708667 -0.42000000 0.06839361
v -0.79743314 -0.38317267 0.03828675
v -0.79743314 -0.45682733 0.03828675
v -0.76491808 -0.44276054 -0.01042717
v -0.76491808 -0.39723946 -0.01042717
v -0.79743314 -0.38317267 0.09850047
v -0.79743314 -0.45682733 0.09850047
v -0.76491808 -0.44276054 0.14721439
v -0.76491808 -0.39723946 0.14721439
v -0.81752855 -0.42000000 0.06839361
f 1091 1128 1107
f 1128 1102 1131
f 1107 1131 1096
f 1128 1131 1107
f 1091 1107 1103
f 1107 1096 1108
f 1103 1108 1092
f 1107 1108 1103
f 1091 1103 1112
f 1103 1092 1113
f 1112 1113 1098
f 1103 1113 1112
f 1091 1112 1124
f 1112 1098 1127
f 1124 1127 1101
f 1112 1127 1124
f 1091 1124 1128
f 1124 1101 1132
f 1128 1132 1102
f 1124 1132 1128
f 1092 1108 1119
f 1108 1096 1122
f 1119 1122 1100
f 1108 1122 1119
f 1096 1131 1109
f 1131 1102 1130
f 1109 1130 1095
f 1131 1130 1109
f 1102 1132 1129
f 1132 1101 1125
f 1129 1125 1093
f 1132 1125 1129
f 1101 1127 1126
f 1127 1098 1114
f 1126 1114 1097
f 1127 1114 1126
f 1098 1113 1118
f 1113 1092 1115
f 1118 1115 1099
f 1113 1115 1118
f 1094 1120 1106
f 1120 1100 1121
f 1106 1121 1095
f 1120 1121 1106
f 1094 1106 1104
f 1106 1095 1105
f 1104 1105 1093
f 1106 1105 1104
f 1094 1104 1111
f 1104 1093 1110
f 1111 1110 1097
f 1104 1110 1111
f 1094 1111 1116
f 1111 1097 1117
f 1116 1117 1099
f 1111 1117 1116
f 1094 1116 1120
f 1116 1099 1123
f 1120 1123 1100
f 1116 1123 1120
f 1095 1121 1109
f 1121 1100 1122
f 1109 1122 1096
f 1121 1122 1109
f 1093 1105 1129
f 1105 1095 1130
f 1129 1130 1102
f 1105 1130 1129
f 1097 1110 1126
f 1110 1093 1125
f 1126 1125 1101
f 1110 1125 1126
f 1099 1117 1118
f 1117 1097 1114
f 1118 1114 1098
f 1117 1114 1118
f 1100 1123 1119
f 1123 1099 1115
f 1119 1115 1092
f 1123 1115 1119

o geometry_88
v -1.73946005 -0.29089605 0.14093002
v -1.51148683 -0.29089605 0.14093002
v -1.73946005 -0.54910395 0.14093002
v -1.51148683 -0.54910395 0.14093002
v -1.62547344 -0.49979063 0.36790036
v -1.62547344 -0.34020937 0.36790036
v -1.62547344 -0.49979063 -0.08604031
v -1.62547344 -0.34020937 -0.08604031
v -1.44103923 -0.42000000 0.00065464
v -1.44103923 -0.42000000 0.28120541
v -1.80990765 -0.42000000 0.00065464
v -1.80990765 -0.42000000 0.28120541
v -1.62547344 -0.26822921 0.14093002
v -1.62547344 -0.57177079 0.14093002
v -1.69247309 -0.54278515 0.27433984
v -1.55847379 -0.54278515 0.27433984
v -1.69247309 -0.29721485 0.27433984
v -1.55847379 -0.29721485 0.27433984
v -1.62547344 -0.42000000 0.40774966
v -1.69247309 -0.54278515 0.00752021
v -1.55847379 -0.54278515 0.00752021
v -1.69247309 -0.29721485 0.00752021
v -1.55847379 -0.29721485 0.00752021
v -1.62547344 -0.42000000 -0.12588961
v -1.45006608 -0.34411460 0.05847822
v -1.45006608 -0.49588540 0.05847822
v -1.51706573 -0.46689975 -0.07493160
v -1.51706573 -0.37310025 -0.07493160
v -1.45006608 -0.34411460 0.22338182
v -1.45006608 -0.49588540 0.22338182
v -1.51706573 -0.46689975 0.35679164
v -1.51706573 -0.37310025 0.35679164
v -1.40865802 -0.42000000 0.14093002
v -1.80088080 -0.34411460 0.05847822
v -1.80088080 -0.49588540 0.05847822
v -1.73388115 -0.46689975 -0.07493160
v -1.73388115 -0.37310025 -0.07493160
v -1.80088080 -0.34411460 0.22338182
v -1.80088080 -0.49588540 0.22338182
v -1.73388115 -0.46689975 0.35679164
v -1.73388115 -0.37310025 0.35679164
v -1.84228886 -0.42000000 0.14093002
f 1133 1170 1149
f 1170 1144 1173
f 1149 1173 1138
f 1170 1173 1149
f 1133 1149 1145
f 1149 1138 1150
f 1145 1150 1134
f 1149 1150 1145
f 1133 1145 1154
f 1145 1134 1155
f 1154 1155 1140
f 1145 1155 1154
f 1133 1154 1166
f 1154 1140 1169
f 1166 1169 1143
f 1154 1169 1166
f 1133 1166 1170
f 1166 1143 1174
f 1170 1174 1144
f 1166 1174 1170
f 1134 1150 1161
f 1150 1138 1164
f 1161 1164 1142
f 1150 1164 1161
f 1138 1173 1151
f 1173 1144 1172
f 1151 1172 1137
f 1173 1172 1151
f 1144 1174 1171
f 1174 1143 1167
f 1171 1167 1135
f 1174 1167 1171
f 1143 1169 1168
f 1169 1140 1156
f 1168 1156 1139
f 1169 1156 1168
f 1140 1155 1160
f 1155 1134 1157
f 1160 1157 1141
f 1155 1157 1160
f 1136 1162 1148
f 1162 1142 1163
f 1148 1163 1137
f 1162 1163 1148
f 1136 1148 1146
f 1148 1137 1147
f 1146 1147 1135
f 1148 1147 1146
f 1136 1146 1153
f 1146 1135 1152
f 1153 1152 1139
f 1146 1152 1153
f 1136 1153 1158
f 1153 1139 1159
f 1158 1159 1141
f 1153 1159 1158
f 1136 1158 1162
f 1158 1141 1165
f 1162 1165 1142
f 1158 1165 1162
f 1137 1163 1151
f 1163 1142 1164
f 1151 1164 1138
f 1163 1164 1151
f 1135 1147 1171
f 1147 1137 1172
f 1171 1172 1144
f 1147 1172 1171
f 1139 1152 1168
f 1152 1135 1167
f 1168 1167 1143
f 1152 1167 1168
f 1141 1159 1160
f 1159 1139 1156
f 1160 1156 1140
f 1159 1156 1160
f 1142 1165 1161
f 1165 1141 1157
f 1161 1157 1134
f 1165 1157 1161

o geometry_89
v -1.24882492 -0.31017868 0.11988108
v -1.05490119 -0.31017868 0.11988108
v -1.24882492 -0.52982132 0.11988108
v -1.05490119 -0.52982132 0.11988108
v -1.15186305 -0.48787331 0.24109259
v -1.15186305 -0.35212669 0.24109259
v -1.15186305 -0.48787331 -0.00133043
v -1.15186305 -0.35212669 -0.00133043
v -0.99497546 -0.42000000 0.04496825
v -0.99497546 -0.42000000 0.19479391
v -1.30875065 -0.42000000 0.04496825
v -1.30875065 -0.42000000 0.19479391
v -1.15186305 -0.29089730 0.11988108
v -1.15186305 -0.54910270 0.11988108
v -1.20885581 -0.52444628 0.19112742
v -1.09487030 -0.52444628 0.19112742
v -1.20885581 -0.31555372 0.19112742
v -1.09487030 -0.31555372 0.19112742
v -1.15186305 -0.42000000 0.26237375
v -1.20885581 -0.52444628 0.04863474
v -1.09487030 -0.52444628 0.04863474
v -1.20885581 -0.31555372 0.04863474
v -1.09487030 -0.31555372 0.04863474
v -1.15186305 -0.42000000 -0.02261160
v -1.00265409 -0.35544865 0.07584842
v -1.00265409 -0.48455135 0.07584842
v -1.05964684 -0.45989493 0.00460208
v -1.05964684 -0.38010507 0.00460208
v -1.00265409 -0.35544865 0.16391374
v -1.00265409 -0.48455135 0.16391374
v -1.05964684 -0.45989493 0.23516007
v -1.05964684 -0.38010507 0.23516007
v -0.96743063 -0.42000000 0.11988108
v -1.30107202 -0.35544865 0.07584842
v -1.30107202 -0.48455135 0.07584842
v -1.24407927 -0.45989493 0.00460208
v -1.24407927 -0.38010507 0.00460208
v -1.30107202 -0.35544865 0.16391374
v -1.30107202 -0.48455135 0.16391374
v -1.24407927 -0.45989493 0.23516007
v -1.24407927 -0.38010507 0.23516007
v -1.33629548 -0.42000000 0.11988108
f 1175 1212 1191
f 1212 1186 1215
f 1191 1215 1180
f 1212 1215 1191
f 1175 1191 1187
f 1191 1180 1192
f 1187 1192 1176
f 1191 1192 1187
f 1175 1187 1196
f 1187 1176 1197
f 1196 1197 1182
f 1187 1197 1196
f 1175 1196 1208
f 1196 1182 1211
f 1208 1211 1185
f 1196 1211 1208
f 1175 1208 1212
f 1208 1185 1216
f 1212 1216 1186
f 1208 1216 1212
f 1176 1192 1203
f 1192 1180 1206
f 1203 1206 1184
f 1192 1206 1203
f 1180 1215 1193
f 1215 1186 1214
f 1193 1214 1179
f 1215 1214 1193
f 1186 1216 1213
f 1216 1185 1209
f 1213 1209 1177
f 1216 1209 1213
f 1185 1211 1210
f 1211 1182 1198
f 1210 1198 1181
f 1211 1198 1210
f 1182 1197 1202
f 1197 1176 1199
f 1202 1199 1183
f 1197 1199 1202
f 1178 1204 1190
f 1204 1184 1205
f 1190 1205 1179
f 1204 1205 1190
f 1178 1190 1188
f 1190 1179 1189
f 1188 1189 1177
f 1190 1189 1188
f 1178 1188 1195
f 1188 1177 1194
f 1195 1194 1181
f 1188 1194 1195
f 1178 1195 1200
f 1195 1181 1201
f 1200 1201 1183
f 1195 1201 1200
f 1178 1200 1204
f 1200 1183 1207
f 1204 1207 1184
f 1200 1207 1204
f 1179 1205 1193
f 1205 1184 1206
f 1193 1206 1180
f 1205 1206 1193
f 1177 1189 1213
f 1189 1179 1214
f 1213 1214 1186
f 1189 1214 1213
f 1181 1194 1210
f 1194 1177 1209
f 1210 1209 1185
f 1194 1209 1210
f 1183 1201 1202
f 1201 1181 1198
f 1202 1198 1182
f 1201 1198 1202
f 1184 1207 1203
f 1207 1183 1199
f 1203 1199 1176
f 1207 1199 1203

o geometry_90
v -1.61848330 -0.29893828 0.13215112
v -1.40471114 -0.29893828 0.13215112
v -1.61848330 -0.54106172 0.13215112
v -1.40471114 -0.54106172 0.13215112
v -1.51159722 -0.49482026 0.23750594
v -1.51159722 -0.34517974 0.23750594
v -1.51159722 -0.49482026 0.02679630
v -1.51159722 -0.34517974 0.02679630
v -1.33865190 -0.42000000 0.06703826
v -1.33865190 -0.42000000 0.19726398
v -1.68454254 -0.42000000 0.06703826
v -1.68454254 -0.42000000 0.19726398
v -1.51159722 -0.27768341 0.13215112
v -1.51159722 -0.56231659 0.13215112
v -1.57442328 -0.53513654 0.19407713
v -1.44877116 -0.53513654 0.19407713
v -1.57442328 -0.30486346 0.19407713
v -1.44877116 -0.30486346 0.19407713
v -1.51159722 -0.42000000 0.25600313
v -1.57442328 -0.53513654 0.07022511
v -1.44877116 -0.53513654 0.07022511
v -1.57442328 -0.30486346 0.07022511
v -1.44877116 -0.30486346 0.07022511
v -1.51159722 -0.42000000 0.00829910
v -1.34711645 -0.34884171 0.09387874
v -1.34711645 -0.49115829 0.09387874
v -1.40994251 -0.46397824 0.03195273
v -1.40994251 -0.37602176 0.03195273
v -1.34711645 -0.34884171 0.17042350
v -1.34711645 -0.49115829 0.17042350
v -1.40994251 -0.46397824 0.23234950
v -1.40994251 -0.37602176 0.23234950
v -1.30828781 -0.42000000 0.13215112
v -1.67607799 -0.34884171 0.09387874
v -1.67607799 -0.49115829 0.09387874
v -1.61325193 -0.46397824 0.03195273
v -1.61325193 -0.37602176 0.03195273
v -1.67607799 -0.34884171 0.17042350
v -1.67607799 -0.49115829 0.17042350
v -1.61325193 -0.46397824 0.23234950
v -1.61325193 -0.37602176 0.23234950
v -1.71490663 -0.42000000 0.13215112
f 1217 1254 1233
f 1254 1228 1257
f 1233 1257 1222
f 1254 1257 1233
f 1217 1233 1229
f 1233 1222 1234
f 1229 1234 1218
f 1233 1234 1229
f 1217 1229 1238
f 1229 1218 1239
f 1238 1239 1224
f 1229 1239 1238
f 1217 1238 1250
f 1238 1224 1253
f 1250 1253 1227
f 1238 1253 1250
f 1217 1250 1254
f 1250 1227 1258
f 1254 1258 1228
f 1250 1258 1254
f 1218 1234 1245
f 1234 1222 1248
f 1245 1248 1226
f 1234 1248 1245
f 1222 1257 1235
f 1257 1228 1256
f 1235 1256 1221
f 1257 1256 1235
f 1228 1258 1255
f 1258 1227 1251
f 1255 1251 1219
f 1258 1251 1255
f 1227 1253 1252
f 1253 1224 1240
f 1252 1240 1223
f 1253 1240 1252
f 1224 1239 1244
f 1239 1218 1241
f 1244 1241 1225
f 1239 1241 1244
f 1220 1246 1232
f 1246 1226 1247
f 1232 1247 1221
f 1246 1247 1232
f 1220 1232 1230
f 1232 1221 1231
f 1230 1231 1219
f 1232 1231 1230
f 1220 1230 1237
f 1230 1219 1236
f 1237 1236 1223
f 1230 1236 1237
f 1220 1237 1242
f 1237 1223 1243
f 1242 1243 1225
f 1237 1243 1242
f 1220 1242 1246
f 1242 1225 1249
f 1246 1249 1226
f 1242 1249 1246
f 1221 1247 1235
f 1247 1226 1248
f 1235 1248 1222
f 1247 1248 1235
f 1219 1231 1255
f 1231 1221 1256
f 1255 1256 1228
f 1231 1256 1255
f 1223 1236 1252
f 1236 1219 1251
f 1252 1251 1227
f 1236 1251 1252
f 1225 1243 1244
f 1243 1223 1240
f 1244 1240 1224
f 1243 1240 1244
f 1226 1249 1245
f 1249 1225 1241
f 1245 1241 1218
f 1249 1241 1245

o geometry_91
v -2.00000000 -0.29500000 0.00000000
v -2.00000000 -0.29500000 0.18000000
v -2.00000000 0.25500000 0.00000000
v -2.00000000 0.25500000 0.18000000
v 2.00000000 -0.29500000 0.00000000
v 2.00000000 -0.29500000 0.18000000
v 2.00000000 0.25500000 0.00000000
v 2.00000000 0.25500000 0.18000000
f 1260 1262 1259
f 1263 1260 1259
f 1259 1262 1261
f 1261 1263 1259
f 1260 1266 1262
f 1264 1260 1263
f 1264 1266 1260
f 1262 1266 1261
f 1265 1263 1261
f 1261 1266 1265
f 1265 1264 1263
f 1266 1264 1265

o geometry_92
v -2.00000000 -0.33000000 3.25000000
v -2.00000000 -0.33000000 3.50000000
v -2.00000000 0.29000000 3.25000000
v -2.00000000 0.29000000 3.50000000
v 2.00000000 -0.33000000 3.25000000
v 2.00000000 -0.33000000 3.50000000
v 2.00000000 0.29000000 3.25000000
v 2.00000000 0.29000000 3.50000000
f 1268 1270 1267
f 1271 1268 1267
f 1267 1270 1269
f 1269 1271 1267
f 1268 1274 1270
f 1272 1268 1271
f 1272 1274 1268
f 1270 1274 1269
f 1273 1271 1269
f 1269 1274 1273
f 1273 1272 1271
f 1274 1272 1273

