# https://github.com/mikedh/trimesh

o geometry_0
v -1.99270924 -0.48767467 0.01175173
v -1.99270924 -0.48767467 0.48675173
v -1.98927662 -0.00768695 0.01175173
v -1.98927662 -0.00768695 0.48675173
v -1.43958917 -0.49163030 0.01175173
v -1.43958917 -0.49163030 0.48675173
v -1.43615655 -0.01164257 0.01175173
v -1.43615655 -0.01164257 0.48675173
f 2 4 1
f 5 2 1
f 1 4 3
f 3 5 1
f 2 8 4
f 6 2 5
f 6 8 2
f 4 8 3
f 7 5 3
f 3 8 7
f 7 6 5
f 8 6 7

o geometry_1
v -1.41798892 -0.48663066 0.01101271
v -1.41798892 -0.48663066 0.48601271
v -1.42172900 -0.00664524 0.01101271
v -1.42172900 -0.00664524 0.48601271
v -0.96794386 -0.48312388 0.01101271
v -0.96794386 -0.48312388 0.48601271
v -0.97168394 -0.00313845 0.01101271
v -0.97168394 -0.00313845 0.48601271
f 10 12 9
f 13 10 9
f 9 12 11
f 11 13 9
f 10 16 12
f 14 10 13
f 14 16 10
f 12 16 11
f 15 13 11
f 11 16 15
f 15 14 13
f 16 14 15

o geometry_2
v -0.94962308 -0.49035194 0.00113490
v -0.94962308 -0.49035194 0.47613490
v -0.95397060 -0.01037163 0.00113490
v -0.95397060 -0.01037163 0.47613490
v -0.45113268 -0.48583676 0.00113490
v -0.45113268 -0.48583676 0.47613490
v -0.45548020 -0.00585645 0.00113490
v -0.45548020 -0.00585645 0.47613490
f 18 20 17
f 21 18 17
f 17 20 19
f 19 21 17
f 18 24 20
f 22 18 21
f 22 24 18
f 20 24 19
f 23 21 19
f 19 24 23
f 23 22 21
f 24 22 23

o geometry_3
v -0.43398139 -0.47890454 0.01441526
v -0.43398139 -0.47890454 0.48941526
v -0.43660292 0.00108830 0.01441526
v -0.43660292 0.00108830 0.48941526
v 0.11088771 -0.47592868 0.01441526
v 0.11088771 -0.47592868 0.48941526
v 0.10826618 0.00406416 0.01441526
v 0.10826618 0.00406416 0.48941526
f 26 28 25
f 29 26 25
f 25 28 27
f 27 29 25
f 26 32 28
f 30 26 29
f 30 32 26
f 28 32 27
f 31 29 27
f 27 32 31
f 31 30 29
f 32 30 31

o geometry_4
v 0.12589865 -0.47993156 0.02775620
v 0.12589865 -0.47993156 0.50275620
v 0.12927512 0.00005657 0.02775620
v 0.12927512 0.00005657 0.50275620
v 0.60097493 -0.48327348 0.02775620
v 0.60097493 -0.48327348 0.50275620
v 0.60435140 -0.00328535 0.02775620
v 0.60435140 -0.00328535 0.50275620
f 34 36 33
f 37 34 33
f 33 36 35
f 35 37 33
f 34 40 36
f 38 34 37
f 38 40 34
f 36 40 35
f 39 37 35
f 35 40 39
f 39 38 37
f 40 38 39

o geometry_5
v 0.61948861 -0.48420039 0.02971412
v 0.61948861 -0.48420039 0.50471412
v 0.62185622 -0.00420623 0.02971412
v 0.62185622 -0.00420623 0.50471412
v 1.17391936 -0.48693516 0.02971412
v 1.17391936 -0.48693516 0.50471412
v 1.17628697 -0.00694100 0.02971412
v 1.17628697 -0.00694100 0.50471412
f 42 44 41
f 45 42 41
f 41 44 43
f 43 45 41
f 42 48 44
f 46 42 45
f 46 48 42
f 44 48 43
f 47 45 43
f 43 48 47
f 47 46 45
f 48 46 47

o geometry_6
v 1.19271238 -0.48862839 0.02773908
v 1.19271238 -0.48862839 0.50273908
v 1.19350132 -0.00862904 0.02773908
v 1.19350132 -0.00862904 0.50273908
v 1.65481925 -0.48938792 0.02773908
v 1.65481925 -0.48938792 0.50273908
v 1.65560819 -0.00938857 0.02773908
v 1.65560819 -0.00938857 0.50273908
f 50 52 49
f 53 50 49
f 49 52 51
f 51 53 49
f 50 56 52
f 54 50 53
f 54 56 50
f 52 56 51
f 55 53 51
f 51 56 55
f 55 54 53
f 56 54 55

o geometry_7
v 1.67171368 -0.46991477 0.01924594
v 1.67171368 -0.46991477 0.49424594
v 1.67472062 0.01007581 0.01924594
v 1.67472062 0.01007581 0.49424594
v 1.98949341 -0.47190553 0.01924594
v 1.98949341 -0.47190553 0.49424594
v 1.99250035 0.00808505 0.01924594
v 1.99250035 0.00808505 0.49424594
f 58 60 57
f 61 58 57
f 57 60 59
f 59 61 57
f 58 64 60
f 62 58 61
f 62 64 58
f 60 64 59
f 63 61 59
f 59 64 63
f 63 62 61
f 64 62 63

o geometry_8
v -1.98987717 -0.48433657 0.49754372
v -1.98987717 -0.48433657 0.97254372
v -1.99211498 -0.00434178 0.49754372
v -1.99211498 -0.00434178 0.97254372
v -1.26828690 -0.48097240 0.49754372
v -1.26828690 -0.48097240 0.97254372
v -1.27052471 -0.00097762 0.49754372
v -1.27052471 -0.00097762 0.97254372
f 66 68 65
f 69 66 65
f 65 68 67
f 67 69 65
f 66 72 68
f 70 66 69
f 70 72 66
f 68 72 67
f 71 69 67
f 67 72 71
f 71 70 69
f 72 70 71

o geometry_9
v -1.25129637 -0.49311957 0.53297556
v -1.25129637 -0.49311957 1.00797556
v -1.25150735 -0.01311962 0.53297556
v -1.25150735 -0.01311962 1.00797556
v -0.62573475 -0.49284462 0.53297556
v -0.62573475 -0.49284462 1.00797556
v -0.62594573 -0.01284466 0.53297556
v -0.62594573 -0.01284466 1.00797556
f 74 76 73
f 77 74 73
f 73 76 75
f 75 77 73
f 74 80 76
f 78 74 77
f 78 80 74
f 76 80 75
f 79 77 75
f 75 80 79
f 79 78 77
f 80 78 79

o geometry_10
v -0.60437613 -0.49071266 0.52777525
v -0.60437613 -0.49071266 1.00277525
v -0.61123569 -0.01076168 0.52777525
v -0.61123569 -0.01076168 1.00277525
v 0.06729820 -0.48111294 0.52777525
v 0.06729820 -0.48111294 1.00277525
v 0.06043863 -0.00116196 0.52777525
v 0.06043863 -0.00116196 1.00277525
f 82 84 81
f 85 82 81
f 81 84 83
f 83 85 81
f 82 88 84
f 86 82 85
f 86 88 82
f 84 88 83
f 87 85 83
f 83 88 87
f 87 86 85
f 88 86 87

o geometry_11
v 0.08049878 -0.47415939 0.51758736
v 0.08049878 -0.47415939 0.99258736
v 0.08331649 0.00583234 0.51758736
v 0.08331649 0.00583234 0.99258736
v 0.65210750 -0.47751492 0.51758736
v 0.65210750 -0.47751492 0.99258736
v 0.65492522 0.00247680 0.51758736
v 0.65492522 0.00247680 0.99258736
f 90 92 89
f 93 90 89
f 89 92 91
f 91 93 89
f 90 96 92
f 94 90 93
f 94 96 90
f 92 96 91
f 95 93 91
f 91 96 95
f 95 94 93
f 96 94 95

o geometry_12
v 0.67170327 -0.46794170 0.53150394
v 0.67170327 -0.46794170 1.00650394
v 0.67133948 0.01205816 0.53150394
v 0.67133948 0.01205816 1.00650394
v 1.33444105 -0.46743941 0.53150394
v 1.33444105 -0.46743941 1.00650394
v 1.33407726 0.01256045 0.53150394
v 1.33407726 0.01256045 1.00650394
f 98 100 97
f 101 98 97
f 97 100 99
f 99 101 97
f 98 104 100
f 102 98 101
f 102 104 98
f 100 104 99
f 103 101 99
f 99 104 103
f 103 102 101
f 104 102 103

o geometry_13
v 1.35008426 -0.48220219 0.50311403
v 1.35008426 -0.48220219 0.97811403
v 1.35445858 -0.00222212 0.50311403
v 1.35445858 -0.00222212 0.97811403
v 1.93604390 -0.48754235 0.50311403
v 1.93604390 -0.48754235 0.97811403
v 1.94041821 -0.00756228 0.50311403
v 1.94041821 -0.00756228 0.97811403
f 106 108 105
f 109 106 105
f 105 108 107
f 107 109 105
f 106 112 108
f 110 106 109
f 110 112 106
f 108 112 107
f 111 109 107
f 107 112 111
f 111 110 109
f 112 110 111

o geometry_14
v 1.95887609 -0.46931931 0.49799426
v 1.95887609 -0.46931931 0.97299426
v 1.95361243 0.01065183 0.49799426
v 1.95361243 0.01065183 0.97299426
v 1.99363078 -0.46893817 0.49799426
v 1.99363078 -0.46893817 0.97299426
v 1.98836713 0.01103297 0.49799426
v 1.98836713 0.01103297 0.97299426
f 114 116 113
f 117 114 113
f 113 116 115
f 115 117 113
f 114 120 116
f 118 114 117
f 118 120 114
f 116 120 115
f 119 117 115
f 115 120 119
f 119 118 117
f 120 118 119

o geometry_15
v -1.99444135 -0.46042132 1.02640288
v -1.99444135 -0.46042132 1.50140288
v -1.98748724 0.01952830 1.02640288
v -1.98748724 0.01952830 1.50140288
v -1.31405141 -0.47027966 1.02640288
v -1.31405141 -0.47027966 1.50140288
v -1.30709729 0.00966996 1.02640288
v -1.30709729 0.00966996 1.50140288
f 122 124 121
f 125 122 121
f 121 124 123
f 123 125 121
f 122 128 124
f 126 122 125
f 126 128 122
f 124 128 123
f 127 125 123
f 123 128 127
f 127 126 125
f 128 126 127

o geometry_16
v -1.29392928 -0.49032285 1.01851326
v -1.29392928 -0.49032285 1.49351326
v -1.29113749 -0.01033097 1.01851326
v -1.29113749 -0.01033097 1.49351326
v -0.67284158 -0.49393530 1.01851326
v -0.67284158 -0.49393530 1.49351326
v -0.67004979 -0.01394342 1.01851326
v -0.67004979 -0.01394342 1.49351326
f 130 132 129
f 133 130 129
f 129 132 131
f 131 133 129
f 130 136 132
f 134 130 133
f 134 136 130
f 132 136 131
f 135 133 131
f 131 136 135
f 135 134 133
f 136 134 135

o geometry_17
v -0.64980611 -0.48135912 0.99384174
v -0.64980611 -0.48135912 1.46884174
v -0.65700410 -0.00141310 0.99384174
v -0.65700410 -0.00141310 1.46884174
v -0.02154849 -0.47193684 0.99384174
v -0.02154849 -0.47193684 1.46884174
v -0.02874647 0.00800919 0.99384174
v -0.02874647 0.00800919 1.46884174
f 138 140 137
f 141 138 137
f 137 140 139
f 139 141 137
f 138 144 140
f 142 138 141
f 142 144 138
f 140 144 139
f 143 141 139
f 139 144 143
f 143 142 141
f 144 142 143

o geometry_18
v -0.00784689 -0.47680261 1.02481565
v -0.00784689 -0.47680261 1.49981565
v -0.00637470 0.00319514 1.02481565
v -0.00637470 0.00319514 1.49981565
v 0.56789650 -0.47856846 1.02481565
v 0.56789650 -0.47856846 1.49981565
v 0.56936869 0.00142929 1.02481565
v 0.56936869 0.00142929 1.49981565
f 146 148 145
f 149 146 145
f 145 148 147
f 147 149 145
f 146 152 148
f 150 146 149
f 150 152 146
f 148 152 147
f 151 149 147
f 147 152 151
f 151 150 149
f 152 150 151

o geometry_19
v 0.58948328 -0.47661670 1.03646280
v 0.58948328 -0.47661670 1.51146280
v 0.58383491 0.00335007 1.03646280
v 0.58383491 0.00335007 1.51146280
v 1.31584118 -0.46806873 1.03646280
v 1.31584118 -0.46806873 1.51146280
v 1.31019281 0.01189803 1.03646280
v 1.31019281 0.01189803 1.51146280
f 154 156 153
f 157 154 153
f 153 156 155
f 155 157 153
f 154 160 156
f 158 154 157
f 158 160 154
f 156 160 155
f 159 157 155
f 155 160 159
f 159 158 157
f 160 158 159

o geometry_20
v 1.33344347 -0.49495273 1.00985971
v 1.33344347 -0.49495273 1.48485971
v 1.32867341 -0.01497643 1.00985971
v 1.32867341 -0.01497643 1.48485971
v 1.99336874 -0.48839432 1.00985971
v 1.99336874 -0.48839432 1.48485971
v 1.98859868 -0.00841802 1.00985971
v 1.98859868 -0.00841802 1.48485971
f 162 164 161
f 165 162 161
f 161 164 163
f 163 165 161
f 162 168 164
f 166 162 165
f 166 168 162
f 164 168 163
f 167 165 163
f 163 168 167
f 167 166 165
f 168 166 167

o geometry_21
v -1.98951254 -0.48264437 1.51104649
v -1.98951254 -0.48264437 1.98604649
v -1.99247421 -0.00265351 1.51104649
v -1.99247421 -0.00265351 1.98604649
v -1.29315973 -0.47834769 1.51104649
v -1.29315973 -0.47834769 1.98604649
v -1.29612140 0.00164317 1.51104649
v -1.29612140 0.00164317 1.98604649
f 170 172 169
f 173 170 169
f 169 172 171
f 171 173 169
f 170 176 172
f 174 170 173
f 174 176 170
f 172 176 171
f 175 173 171
f 171 176 175
f 175 174 173
f 176 174 175

o geometry_22
v -1.27831221 -0.46534682 1.52482579
v -1.27831221 -0.46534682 1.99982579
v -1.27494004 0.01464134 1.52482579
v -1.27494004 0.01464134 1.99982579
v -0.64485498 -0.46979719 1.52482579
v -0.64485498 -0.46979719 1.99982579
v -0.64148281 0.01019097 1.52482579
v -0.64148281 0.01019097 1.99982579
f 178 180 177
f 181 178 177
f 177 180 179
f 179 181 177
f 178 184 180
f 182 178 181
f 182 184 178
f 180 184 179
f 183 181 179
f 179 184 183
f 183 182 181
f 184 182 183

o geometry_23
v -0.62857023 -0.48386154 1.49610641
v -0.62857023 -0.48386154 1.97110641
v -0.62168544 -0.00391092 1.49610641
v -0.62168544 -0.00391092 1.97110641
v 0.01760869 -0.49313084 1.49610641
v 0.01760869 -0.49313084 1.97110641
v 0.02449348 -0.01318022 1.49610641
v 0.02449348 -0.01318022 1.97110641
f 186 188 185
f 189 186 185
f 185 188 187
f 187 189 185
f 186 192 188
f 190 186 189
f 190 192 186
f 188 192 187
f 191 189 187
f 187 192 191
f 191 190 189
f 192 190 191

o geometry_24
v 0.03733763 -0.48053015 1.50555246
v 0.03733763 -0.48053015 1.98055246
v 0.04084670 -0.00054298 1.50555246
v 0.04084670 -0.00054298 1.98055246
v 0.62438993 -0.48482195 1.50555246
v 0.62438993 -0.48482195 1.98055246
v 0.62789900 -0.00483478 1.50555246
v 0.62789900 -0.00483478 1.98055246
f 194 196 193
f 197 194 193
f 193 196 195
f 195 197 193
f 194 200 196
f 198 194 197
f 198 200 194
f 196 200 195
f 199 197 195
f 195 200 199
f 199 198 197
f 200 198 199

o geometry_25
v 0.64350958 -0.49196804 1.50023817
v 0.64350958 -0.49196804 1.97523817
v 0.64479735 -0.01196976 1.50023817
v 0.64479735 -0.01196976 1.97523817
v 1.28388143 -0.49368606 1.50023817
v 1.28388143 -0.49368606 1.97523817
v 1.28516919 -0.01368779 1.50023817
v 1.28516919 -0.01368779 1.97523817
f 202 204 201
f 205 202 201
f 201 204 203
f 203 205 201
f 202 208 204
f 206 202 205
f 206 208 202
f 204 208 203
f 207 205 203
f 203 208 207
f 207 206 205
f 208 206 207

o geometry_26
v 1.30234447 -0.48310406 1.50089688
v 1.30234447 -0.48310406 1.97589688
v 1.30270866 -0.00310420 1.50089688
v 1.30270866 -0.00310420 1.97589688
v 1.99081781 -0.48362643 1.50089688
v 1.99081781 -0.48362643 1.97589688
v 1.99118200 -0.00362657 1.50089688
v 1.99118200 -0.00362657 1.97589688
f 210 212 209
f 213 210 209
f 209 212 211
f 211 213 209
f 210 216 212
f 214 210 213
f 214 216 210
f 212 216 211
f 215 213 211
f 211 216 215
f 215 214 213
f 216 214 215

o geometry_27
v -1.99239366 -0.46738207 2.00637391
v -1.99239366 -0.46738207 2.48137391
v -1.98959538 0.01260978 2.00637391
v -1.98959538 0.01260978 2.48137391
v -1.34764204 -0.47114088 2.00637391
v -1.34764204 -0.47114088 2.48137391
v -1.34484375 0.00885097 2.00637391
v -1.34484375 0.00885097 2.48137391
f 218 220 217
f 221 218 217
f 217 220 219
f 219 221 217
f 218 224 220
f 222 218 221
f 222 224 218
f 220 224 219
f 223 221 219
f 219 224 223
f 223 222 221
f 224 222 223

o geometry_28
v -1.32481322 -0.47960491 2.02046216
v -1.32481322 -0.47960491 2.49546216
v -1.33159202 0.00034722 2.02046216
v -1.33159202 0.00034722 2.49546216
v -0.62711240 -0.46975064 2.02046216
v -0.62711240 -0.46975064 2.49546216
v -0.63389120 0.01020149 2.02046216
v -0.63389120 0.01020149 2.49546216
f 226 228 225
f 229 226 225
f 225 228 227
f 227 229 225
f 226 232 228
f 230 226 229
f 230 232 226
f 228 232 227
f 231 229 227
f 227 232 231
f 231 230 229
f 232 230 231

o geometry_29
v -0.61375696 -0.47434311 2.01765157
v -0.61375696 -0.47434311 2.49265157
v -0.61116660 0.00564990 2.01765157
v -0.61116660 0.00564990 2.49265157
v 0.10323283 -0.47821246 2.01765157
v 0.10323283 -0.47821246 2.49265157
v 0.10582319 0.00178055 2.01765157
v 0.10582319 0.00178055 2.49265157
f 234 236 233
f 237 234 233
f 233 236 235
f 235 237 233
f 234 240 236
f 238 234 237
f 238 240 234
f 236 240 235
f 239 237 235
f 235 240 239
f 239 238 237
f 240 238 239

o geometry_30
v 0.12570385 -0.48375651 2.02717195
v 0.12570385 -0.48375651 2.50217195
v 0.11941681 -0.00379769 2.02717195
v 0.11941681 -0.00379769 2.50217195
v 0.75737041 -0.47548224 2.02717195
v 0.75737041 -0.47548224 2.50217195
v 0.75108337 0.00447659 2.02717195
v 0.75108337 0.00447659 2.50217195
f 242 244 241
f 245 242 241
f 241 244 243
f 243 245 241
f 242 248 244
f 246 242 245
f 246 248 242
f 244 248 243
f 247 245 243
f 243 248 247
f 247 246 245
f 248 246 247

o geometry_31
v 0.76909235 -0.46108396 2.00996786
v 0.76909235 -0.46108396 2.48496786
v 0.77546985 0.01887367 2.00996786
v 0.77546985 0.01887367 2.48496786
v 1.38329146 -0.46924521 2.00996786
v 1.38329146 -0.46924521 2.48496786
v 1.38966896 0.01071242 2.00996786
v 1.38966896 0.01071242 2.48496786
f 250 252 249
f 253 250 249
f 249 252 251
f 251 253 249
f 250 256 252
f 254 250 253
f 254 256 250
f 252 256 251
f 255 253 251
f 251 256 255
f 255 254 253
f 256 254 255

o geometry_32
v 1.40608671 -0.49007646 1.99310708
v 1.40608671 -0.49007646 2.46810708
v 1.40294023 -0.01008677 1.99310708
v 1.40294023 -0.01008677 2.46810708
v 1.97796773 -0.48632760 1.99310708
v 1.97796773 -0.48632760 2.46810708
v 1.97482125 -0.00633791 1.99310708
v 1.97482125 -0.00633791 2.46810708
f 258 260 257
f 261 258 257
f 257 260 259
f 259 261 257
f 258 264 260
f 262 258 261
f 262 264 258
f 260 264 259
f 263 261 259
f 259 264 263
f 263 262 261
f 264 262 263

o geometry_33
v -1.99412455 -0.48902354 2.53017458
v -1.99412455 -0.48902354 3.00517458
v -1.98782149 -0.00906492 2.53017458
v -1.98782149 -0.00906492 3.00517458
v -1.36835167 -0.49724151 2.53017458
v -1.36835167 -0.49724151 3.00517458
v -1.36204861 -0.01728289 2.53017458
v -1.36204861 -0.01728289 3.00517458
f 266 268 265
f 269 266 265
f 265 268 267
f 267 269 265
f 266 272 268
f 270 266 269
f 270 272 266
f 268 272 267
f 271 269 267
f 267 272 271
f 271 270 269
f 272 270 271

o geometry_34
v -1.34773314 -0.49272207 2.51817162
v -1.34773314 -0.49272207 2.99317162
v -1.34661155 -0.01272339 2.51817162
v -1.34661155 -0.01272339 2.99317162
v -0.74943213 -0.49412010 2.51817162
v -0.74943213 -0.49412010 2.99317162
v -0.74831054 -0.01412141 2.51817162
v -0.74831054 -0.01412141 2.99317162
f 274 276 273
f 277 274 273
f 273 276 275
f 275 277 273
f 274 280 276
f 278 274 277
f 278 280 274
f 276 280 275
f 279 277 275
f 275 280 279
f 279 278 277
f 280 278 279

o geometry_35
v -0.73109429 -0.48908149 2.51208470
v -0.73109429 -0.48908149 2.98708470
v -0.73064644 -0.00908170 2.51208470
v -0.73064644 -0.00908170 2.98708470
v -0.03697225 -0.48972913 2.51208470
v -0.03697225 -0.48972913 2.98708470
v -0.03652440 -0.00972934 2.51208470
v -0.03652440 -0.00972934 2.98708470
f 282 284 281
f 285 282 281
f 281 284 283
f 283 285 281
f 282 288 284
f 286 282 285
f 286 288 282
f 284 288 283
f 287 285 283
f 283 288 287
f 287 286 285
f 288 286 287

o geometry_36
v -0.01784183 -0.47695629 2.49474793
v -0.01784183 -0.47695629 2.96974793
v -0.01965037 0.00304030 2.49474793
v -0.01965037 0.00304030 2.96974793
v 0.56542922 -0.47475863 2.49474793
v 0.56542922 -0.47475863 2.96974793
v 0.56362068 0.00523797 2.49474793
v 0.56362068 0.00523797 2.96974793
f 290 292 289
f 293 290 289
f 289 292 291
f 291 293 289
f 290 296 292
f 294 290 293
f 294 296 290
f 292 296 291
f 295 293 291
f 291 296 295
f 295 294 293
f 296 294 295

o geometry_37
v 0.57965209 -0.46529073 2.51890037
v 0.57965209 -0.46529073 2.99390037
v 0.58545051 0.01467425 2.51890037
v 0.58545051 0.01467425 2.99390037
v 1.24517280 -0.47333083 2.51890037
v 1.24517280 -0.47333083 2.99390037
v 1.25097122 0.00663415 2.51890037
v 1.25097122 0.00663415 2.99390037
f 298 300 297
f 301 298 297
f 297 300 299
f 299 301 297
f 298 304 300
f 302 298 301
f 302 304 298
f 300 304 299
f 303 301 299
f 299 304 303
f 303 302 301
f 304 302 303

o geometry_38
v 1.26899423 -0.48785094 2.51063566
v 1.26899423 -0.48785094 2.98563566
v 1.26324033 -0.00788543 2.51063566
v 1.26324033 -0.00788543 2.98563566
v 1.85308487 -0.48084878 2.51063566
v 1.85308487 -0.48084878 2.98563566
v 1.84733098 -0.00088327 2.51063566
v 1.84733098 -0.00088327 2.98563566
f 306 308 305
f 309 306 305
f 305 308 307
f 307 309 305
f 306 312 308
f 310 306 309
f 310 312 306
f 308 312 307
f 311 309 307
f 307 312 311
f 311 310 309
f 312 310 311

o geometry_39
v 1.87062710 -0.48664177 2.49385033
v 1.87062710 -0.48664177 2.96885033
v 1.86583683 -0.00666568 2.49385033
v 1.86583683 -0.00666568 2.96885033
v 1.99339208 -0.48541655 2.49385033
v 1.99339208 -0.48541655 2.96885033
v 1.98860181 -0.00544045 2.49385033
v 1.98860181 -0.00544045 2.96885033
f 314 316 313
f 317 314 313
f 313 316 315
f 315 317 313
f 314 320 316
f 318 314 317
f 318 320 314
f 316 320 315
f 319 317 315
f 315 320 319
f 319 318 317
f 320 318 319

o geometry_40
v -1.98804718 -0.48634422 3.03306992
v -1.98804718 -0.48634422 3.50806992
v -1.99391834 -0.00638013 3.03306992
v -1.99391834 -0.00638013 3.50806992
v -1.52722099 -0.48070717 3.03306992
v -1.52722099 -0.48070717 3.50806992
v -1.53309215 -0.00074308 3.03306992
v -1.53309215 -0.00074308 3.50806992
f 322 324 321
f 325 322 321
f 321 324 323
f 323 325 321
f 322 328 324
f 326 322 325
f 326 328 322
f 324 328 323
f 327 325 323
f 323 328 327
f 327 326 325
f 328 326 327

o geometry_41
v -1.51003096 -0.48102429 3.02219002
v -1.51003096 -0.48102429 3.49719002
v -1.51422609 -0.00104262 3.02219002
v -1.51422609 -0.00104262 3.49719002
v -0.94392428 -0.47607641 3.02219002
v -0.94392428 -0.47607641 3.49719002
v -0.94811941 0.00390526 3.02219002
v -0.94811941 0.00390526 3.49719002
f 330 332 329
f 333 330 329
f 329 332 331
f 331 333 329
f 330 336 332
f 334 330 333
f 334 336 330
f 332 336 331
f 335 333 331
f 331 336 335
f 335 334 333
f 336 334 335

o geometry_42
v -0.92843628 -0.49288686 3.03293872
v -0.92843628 -0.49288686 3.50793872
v -0.92758505 -0.01288762 3.03293872
v -0.92758505 -0.01288762 3.50793872
v -0.46061765 -0.49371649 3.03293872
v -0.46061765 -0.49371649 3.50793872
v -0.45976642 -0.01371725 3.03293872
v -0.45976642 -0.01371725 3.50793872
f 338 340 337
f 341 338 337
f 337 340 339
f 339 341 337
f 338 344 340
f 342 338 341
f 342 344 338
f 340 344 339
f 343 341 339
f 339 344 343
f 343 342 341
f 344 342 343

o geometry_43
v -0.44065623 -0.48016426 3.00132035
v -0.44065623 -0.48016426 3.47632035
v -0.44371591 -0.00017401 3.00132035
v -0.44371591 -0.00017401 3.47632035
v 0.11053731 -0.47665071 3.00132035
v 0.11053731 -0.47665071 3.47632035
v 0.10747764 0.00333954 3.00132035
v 0.10747764 0.00333954 3.47632035
f 346 348 345
f 349 346 345
f 345 348 347
f 347 349 345
f 346 352 348
f 350 346 349
f 350 352 346
f 348 352 347
f 351 349 347
f 347 352 351
f 351 350 349
f 352 350 351

o geometry_44
v 0.12547751 -0.48753045 3.03640385
v 0.12547751 -0.48753045 3.51140385
v 0.12855807 -0.00754033 3.03640385
v 0.12855807 -0.00754033 3.51140385
v 0.58374519 -0.49047159 3.03640385
v 0.58374519 -0.49047159 3.51140385
v 0.58682575 -0.01048148 3.03640385
v 0.58682575 -0.01048148 3.51140385
f 354 356 353
f 357 354 353
f 353 356 355
f 355 357 353
f 354 360 356
f 358 354 357
f 358 360 354
f 356 360 355
f 359 357 355
f 355 360 359
f 359 358 357
f 360 358 359

o geometry_45
v 0.60171106 -0.46561546 3.03040394
v 0.60171106 -0.46561546 3.50540394
v 0.60488180 0.01437406 3.03040394
v 0.60488180 0.01437406 3.50540394
v 1.17385586 -0.46939497 3.03040394
v 1.17385586 -0.46939497 3.50540394
v 1.17702660 0.01059456 3.03040394
v 1.17702660 0.01059456 3.50540394
f 362 364 361
f 365 362 361
f 361 364 363
f 363 365 361
f 362 368 364
f 366 362 365
f 366 368 362
f 364 368 363
f 367 365 363
f 363 368 367
f 367 366 365
f 368 366 367

o geometry_46
v 1.19010573 -0.47385585 3.03360815
v 1.19010573 -0.47385585 3.50860815
v 1.19684596 0.00609683 3.03360815
v 1.19684596 0.00609683 3.50860815
v 1.76565765 -0.48193863 3.03360815
v 1.76565765 -0.48193863 3.50860815
v 1.77239788 -0.00198595 3.03360815
v 1.77239788 -0.00198595 3.50860815
f 370 372 369
f 373 370 369
f 369 372 371
f 371 373 369
f 370 376 372
f 374 370 373
f 374 376 370
f 372 376 371
f 375 373 371
f 371 376 375
f 375 374 373
f 376 374 375

o geometry_47
v 1.78731181 -0.48959962 3.01942863
v 1.78731181 -0.48959962 3.49442863
v 1.78680059 -0.00959989 3.01942863
v 1.78680059 -0.00959989 3.49442863
v 1.99125555 -0.48938241 3.01942863
v 1.99125555 -0.48938241 3.49442863
v 1.99074433 -0.00938268 3.01942863
v 1.99074433 -0.00938268 3.49442863
f 378 380 377
f 381 378 377
f 377 380 379
f 379 381 377
f 378 384 380
f 382 378 381
f 382 384 378
f 380 384 379
f 383 381 379
f 379 384 383
f 383 382 381
f 384 382 383

o geometry_48
v -1.65000000 -0.32000000 0.10000000
v -1.42000000 -0.32000000 0.10000000
v -1.42000000 -0.32000000 3.35000000
v -1.65000000 -0.32000000 3.35000000
v -1.42783706 -0.26047162 0.10000000
v -1.42783706 -0.26047162 3.35000000
v -1.45081416 -0.20500000 0.10000000
v -1.45081416 -0.20500000 3.35000000
v -1.48736544 -0.15736544 0.10000000
v -1.48736544 -0.15736544 3.35000000
v -1.53500000 -0.12081416 0.10000000
v -1.53500000 -0.12081416 3.35000000
v -1.59047162 -0.09783706 0.10000000
v -1.59047162 -0.09783706 3.35000000
v -1.65000000 -0.09000000 0.10000000
v -1.65000000 -0.09000000 3.35000000
v -1.70952838 -0.09783706 0.10000000
v -1.70952838 -0.09783706 3.35000000
v -1.76500000 -0.12081416 0.10000000
v -1.76500000 -0.12081416 3.35000000
v -1.81263456 -0.15736544 0.10000000
v -1.81263456 -0.15736544 3.35000000
v -1.84918584 -0.20500000 0.10000000
v -1.84918584 -0.20500000 3.35000000
v -1.87216294 -0.26047162 0.10000000
v -1.87216294 -0.26047162 3.35000000
v -1.88000000 -0.32000000 0.10000000
v -1.88000000 -0.32000000 3.35000000
v -1.87216294 -0.37952838 0.10000000
v -1.87216294 -0.37952838 3.35000000
v -1.84918584 -0.43500000 0.10000000
v -1.84918584 -0.43500000 3.35000000
v -1.81263456 -0.48263456 0.10000000
v -1.81263456 -0.48263456 3.35000000
v -1.76500000 -0.51918584 0.10000000
v -1.76500000 -0.51918584 3.35000000
v -1.70952838 -0.54216294 0.10000000
v -1.70952838 -0.54216294 3.35000000
v -1.65000000 -0.55000000 0.10000000
v -1.65000000 -0.55000000 3.35000000
v -1.59047162 -0.54216294 0.10000000
v -1.59047162 -0.54216294 3.35000000
v -1.53500000 -0.51918584 0.10000000
v -1.53500000 -0.51918584 3.35000000
v -1.48736544 -0.48263456 0.10000000
v -1.48736544 -0.48263456 3.35000000
v -1.45081416 -0.43500000 0.10000000
v -1.45081416 -0.43500000 3.35000000
v -1.42783706 -0.37952838 0.10000000
v -1.42783706 -0.37952838 3.35000000
f 386 385 389
f 386 389 387
f 387 389 390
f 387 390 388
f 389 385 391
f 389 391 390
f 390 391 392
f 390 392 388
f 391 385 393
f 391 393 392
f 392 393 394
f 392 394 388
f 393 385 395
f 393 395 394
f 394 395 396
f 394 396 388
f 395 385 397
f 395 397 396
f 396 397 398
f 396 398 388
f 397 385 399
f 397 399 398
f 398 399 400
f 398 400 388
f 399 385 401
f 399 401 400
f 400 401 402
f 400 402 388
f 401 385 403
f 401 403 402
f 402 403 404
f 402 404 388
f 403 385 405
f 403 405 404
f 404 405 406
f 404 406 388
f 405 385 407
f 405 407 406
f 406 407 408
f 406 408 388
f 407 385 409
f 407 409 408
f 408 409 410
f 408 410 388
f 409 385 411
f 409 411 410
f 410 411 412
f 410 412 388
f 411 385 413
f 411 413 412
f 412 413 414
f 412 414 388
f 413 385 415
f 413 415 414
f 414 415 416
f 414 416 388
f 415 385 417
f 415 417 416
f 416 417 418
f 416 418 388
f 417 385 419
f 417 419 418
f 418 419 420
f 418 420 388
f 419 385 421
f 419 421 420
f 420 421 422
f 420 422 388
f 421 385 423
f 421 423 422
f 422 423 424
f 422 424 388
f 423 385 425
f 423 425 424
f 424 425 426
f 424 426 388
f 425 385 427
f 425 427 426
f 426 427 428
f 426 428 388
f 427 385 429
f 427 429 428
f 428 429 430
f 428 430 388
f 429 385 431
f 429 431 430
f 430 431 432
f 430 432 388
f 431 385 433
f 431 433 432
f 432 433 434
f 432 434 388
f 433 385 386
f 433 386 434
f 434 386 387
f 434 387 388

o geometry_49
v -1.65000000 -0.32000000 0.10000000
v -1.35560000 -0.32000000 0.10000000
v -1.35560000 -0.32000000 0.26000000
v -1.65000000 -0.32000000 0.26000000
v -1.36563144 -0.24380367 0.10000000
v -1.36563144 -0.24380367 0.26000000
v -1.39504212 -0.17280000 0.10000000
v -1.39504212 -0.17280000 0.26000000
v -1.44182776 -0.11182776 0.10000000
v -1.44182776 -0.11182776 0.26000000
v -1.50280000 -0.06504212 0.10000000
v -1.50280000 -0.06504212 0.26000000
v -1.57380367 -0.03563144 0.10000000
v -1.57380367 -0.03563144 0.26000000
v -1.65000000 -0.02560000 0.10000000
v -1.65000000 -0.02560000 0.26000000
v -1.72619633 -0.03563144 0.10000000
v -1.72619633 -0.03563144 0.26000000
v -1.79720000 -0.06504212 0.10000000
v -1.79720000 -0.06504212 0.26000000
v -1.85817224 -0.11182776 0.10000000
v -1.85817224 -0.11182776 0.26000000
v -1.90495788 -0.17280000 0.10000000
v -1.90495788 -0.17280000 0.26000000
v -1.93436856 -0.24380367 0.10000000
v -1.93436856 -0.24380367 0.26000000
v -1.94440000 -0.32000000 0.10000000
v -1.94440000 -0.32000000 0.26000000
v -1.93436856 -0.39619633 0.10000000
v -1.93436856 -0.39619633 0.26000000
v -1.90495788 -0.46720000 0.10000000
v -1.90495788 -0.46720000 0.26000000
v -1.85817224 -0.52817224 0.10000000
v -1.85817224 -0.52817224 0.26000000
v -1.79720000 -0.57495788 0.10000000
v -1.79720000 -0.57495788 0.26000000
v -1.72619633 -0.60436856 0.10000000
v -1.72619633 -0.60436856 0.26000000
v -1.65000000 -0.61440000 0.10000000
v -1.65000000 -0.61440000 0.26000000
v -1.57380367 -0.60436856 0.10000000
v -1.57380367 -0.60436856 0.26000000
v -1.50280000 -0.57495788 0.10000000
v -1.50280000 -0.57495788 0.26000000
v -1.44182776 -0.52817224 0.10000000
v -1.44182776 -0.52817224 0.26000000
v -1.39504212 -0.46720000 0.10000000
v -1.39504212 -0.46720000 0.26000000
v -1.36563144 -0.39619633 0.10000000
v -1.36563144 -0.39619633 0.26000000
f 436 435 439
f 436 439 437
f 437 439 440
f 437 440 438
f 439 435 441
f 439 441 440
f 440 441 442
f 440 442 438
f 441 435 443
f 441 443 442
f 442 443 444
f 442 444 438
f 443 435 445
f 443 445 444
f 444 445 446
f 444 446 438
f 445 435 447
f 445 447 446
f 446 447 448
f 446 448 438
f 447 435 449
f 447 449 448
f 448 449 450
f 448 450 438
f 449 435 451
f 449 451 450
f 450 451 452
f 450 452 438
f 451 435 453
f 451 453 452
f 452 453 454
f 452 454 438
f 453 435 455
f 453 455 454
f 454 455 456
f 454 456 438
f 455 435 457
f 455 457 456
f 456 457 458
f 456 458 438
f 457 435 459
f 457 459 458
f 458 459 460
f 458 460 438
f 459 435 461
f 459 461 460
f 460 461 462
f 460 462 438
f 461 435 463
f 461 463 462
f 462 463 464
f 462 464 438
f 463 435 465
f 463 465 464
f 464 465 466
f 464 466 438
f 465 435 467
f 465 467 466
f 466 467 468
f 466 468 438
f 467 435 469
f 467 469 468
f 468 469 470
f 468 470 438
f 469 435 471
f 469 471 470
f 470 471 472
f 470 472 438
f 471 435 473
f 471 473 472
f 472 473 474
f 472 474 438
f 473 435 475
f 473 475 474
f 474 475 476
f 474 476 438
f 475 435 477
f 475 477 476
f 476 477 478
f 476 478 438
f 477 435 479
f 477 479 478
f 478 479 480
f 478 480 438
f 479 435 481
f 479 481 480
f 480 481 482
f 480 482 438
f 481 435 483
f 481 483 482
f 482 483 484
f 482 484 438
f 483 435 436
f 483 436 484
f 484 436 437
f 484 437 438

o geometry_50
v -1.65000000 -0.32000000 3.18000000
v -1.36940000 -0.32000000 3.18000000
v -1.36940000 -0.32000000 3.36000000
v -1.65000000 -0.32000000 3.36000000
v -1.37896121 -0.24737538 3.18000000
v -1.37896121 -0.24737538 3.36000000
v -1.40699327 -0.17970000 3.18000000
v -1.40699327 -0.17970000 3.36000000
v -1.45158584 -0.12158584 3.18000000
v -1.45158584 -0.12158584 3.36000000
v -1.50970000 -0.07699327 3.18000000
v -1.50970000 -0.07699327 3.36000000
v -1.57737538 -0.04896121 3.18000000
v -1.57737538 -0.04896121 3.36000000
v -1.65000000 -0.03940000 3.18000000
v -1.65000000 -0.03940000 3.36000000
v -1.72262462 -0.04896121 3.18000000
v -1.72262462 -0.04896121 3.36000000
v -1.79030000 -0.07699327 3.18000000
v -1.79030000 -0.07699327 3.36000000
v -1.84841416 -0.12158584 3.18000000
v -1.84841416 -0.12158584 3.36000000
v -1.89300673 -0.17970000 3.18000000
v -1.89300673 -0.17970000 3.36000000
v -1.92103879 -0.24737538 3.18000000
v -1.92103879 -0.24737538 3.36000000
v -1.93060000 -0.32000000 3.18000000
v -1.93060000 -0.32000000 3.36000000
v -1.92103879 -0.39262462 3.18000000
v -1.92103879 -0.39262462 3.36000000
v -1.89300673 -0.46030000 3.18000000
v -1.89300673 -0.46030000 3.36000000
v -1.84841416 -0.51841416 3.18000000
v -1.84841416 -0.51841416 3.36000000
v -1.79030000 -0.56300673 3.18000000
v -1.79030000 -0.56300673 3.36000000
v -1.72262462 -0.59103879 3.18000000
v -1.72262462 -0.59103879 3.36000000
v -1.65000000 -0.60060000 3.18000000
v -1.65000000 -0.60060000 3.36000000
v -1.57737538 -0.59103879 3.18000000
v -1.57737538 -0.59103879 3.36000000
v -1.50970000 -0.56300673 3.18000000
v -1.50970000 -0.56300673 3.36000000
v -1.45158584 -0.51841416 3.18000000
v -1.45158584 -0.51841416 3.36000000
v -1.40699327 -0.46030000 3.18000000
v -1.40699327 -0.46030000 3.36000000
v -1.37896121 -0.39262462 3.18000000
v -1.37896121 -0.39262462 3.36000000
f 486 485 489
f 486 489 487
f 487 489 490
f 487 490 488
f 489 485 491
f 489 491 490
f 490 491 492
f 490 492 488
f 491 485 493
f 491 493 492
f 492 493 494
f 492 494 488
f 493 485 495
f 493 495 494
f 494 495 496
f 494 496 488
f 495 485 497
f 495 497 496
f 496 497 498
f 496 498 488
f 497 485 499
f 497 499 498
f 498 499 500
f 498 500 488
f 499 485 501
f 499 501 500
f 500 501 502
f 500 502 488
f 501 485 503
f 501 503 502
f 502 503 504
f 502 504 488
f 503 485 505
f 503 505 504
f 504 505 506
f 504 506 488
f 505 485 507
f 505 507 506
f 506 507 508
f 506 508 488
f 507 485 509
f 507 509 508
f 508 509 510
f 508 510 488
f 509 485 511
f 509 511 510
f 510 511 512
f 510 512 488
f 511 485 513
f 511 513 512
f 512 513 514
f 512 514 488
f 513 485 515
f 513 515 514
f 514 515 516
f 514 516 488
f 515 485 517
f 515 517 516
f 516 517 518
f 516 518 488
f 517 485 519
f 517 519 518
f 518 519 520
f 518 520 488
f 519 485 521
f 519 521 520
f 520 521 522
f 520 522 488
f 521 485 523
f 521 523 522
f 522 523 524
f 522 524 488
f 523 485 525
f 523 525 524
f 524 525 526
f 524 526 488
f 525 485 527
f 525 527 526
f 526 527 528
f 526 528 488
f 527 485 529
f 527 529 528
f 528 529 530
f 528 530 488
f 529 485 531
f 529 531 530
f 530 531 532
f 530 532 488
f 531 485 533
f 531 533 532
f 532 533 534
f 532 534 488
f 533 485 486
f 533 486 534
f 534 486 487
f 534 487 488

o geometry_51
v -1.93750000 -0.67000000 3.11000000
v -1.93750000 -0.67000000 3.27000000
v -1.93750000 0.03000000 3.11000000
v -1.93750000 0.03000000 3.27000000
v -1.36250000 -0.67000000 3.11000000
v -1.36250000 -0.67000000 3.27000000
v -1.36250000 0.03000000 3.11000000
v -1.36250000 0.03000000 3.27000000
f 536 538 535
f 539 536 535
f 535 538 537
f 537 539 535
f 536 542 538
f 540 536 539
f 540 542 536
f 538 542 537
f 541 539 537
f 537 542 541
f 541 540 539
f 542 540 541

o geometry_52
v 1.65000000 -0.32000000 0.10000000
v 1.88000000 -0.32000000 0.10000000
v 1.88000000 -0.32000000 3.35000000
v 1.65000000 -0.32000000 3.35000000
v 1.87216294 -0.26047162 0.10000000
v 1.87216294 -0.26047162 3.35000000
v 1.84918584 -0.20500000 0.10000000
v 1.84918584 -0.20500000 3.35000000
v 1.81263456 -0.15736544 0.10000000
v 1.81263456 -0.15736544 3.35000000
v 1.76500000 -0.12081416 0.10000000
v 1.76500000 -0.12081416 3.35000000
v 1.70952838 -0.09783706 0.10000000
v 1.70952838 -0.09783706 3.35000000
v 1.65000000 -0.09000000 0.10000000
v 1.65000000 -0.09000000 3.35000000
v 1.59047162 -0.09783706 0.10000000
v 1.59047162 -0.09783706 3.35000000
v 1.53500000 -0.12081416 0.10000000
v 1.53500000 -0.12081416 3.35000000
v 1.48736544 -0.15736544 0.10000000
v 1.48736544 -0.15736544 3.35000000
v 1.45081416 -0.20500000 0.10000000
v 1.45081416 -0.20500000 3.35000000
v 1.42783706 -0.26047162 0.10000000
v 1.42783706 -0.26047162 3.35000000
v 1.42000000 -0.32000000 0.10000000
v 1.42000000 -0.32000000 3.35000000
v 1.42783706 -0.37952838 0.10000000
v 1.42783706 -0.37952838 3.35000000
v 1.45081416 -0.43500000 0.10000000
v 1.45081416 -0.43500000 3.35000000
v 1.48736544 -0.48263456 0.10000000
v 1.48736544 -0.48263456 3.35000000
v 1.53500000 -0.51918584 0.10000000
v 1.53500000 -0.51918584 3.35000000
v 1.59047162 -0.54216294 0.10000000
v 1.59047162 -0.54216294 3.35000000
v 1.65000000 -0.55000000 0.10000000
v 1.65000000 -0.55000000 3.35000000
v 1.70952838 -0.54216294 0.10000000
v 1.70952838 -0.54216294 3.35000000
v 1.76500000 -0.51918584 0.10000000
v 1.76500000 -0.51918584 3.35000000
v 1.81263456 -0.48263456 0.10000000
v 1.81263456 -0.48263456 3.35000000
v 1.84918584 -0.43500000 0.10000000
v 1.84918584 -0.43500000 3.35000000
v 1.87216294 -0.37952838 0.10000000
v 1.87216294 -0.37952838 3.35000000
f 544 543 547
f 544 547 545
f 545 547 548
f 545 548 546
f 547 543 549
f 547 549 548
f 548 549 550
f 548 550 546
f 549 543 551
f 549 551 550
f 550 551 552
f 550 552 546
f 551 543 553
f 551 553 552
f 552 553 554
f 552 554 546
f 553 543 555
f 553 555 554
f 554 555 556
f 554 556 546
f 555 543 557
f 555 557 556
f 556 557 558
f 556 558 546
f 557 543 559
f 557 559 558
f 558 559 560
f 558 560 546
f 559 543 561
f 559 561 560
f 560 561 562
f 560 562 546
f 561 543 563
f 561 563 562
f 562 563 564
f 562 564 546
f 563 543 565
f 563 565 564
f 564 565 566
f 564 566 546
f 565 543 567
f 565 567 566
f 566 567 568
f 566 568 546
f 567 543 569
f 567 569 568
f 568 569 570
f 568 570 546
f 569 543 571
f 569 571 570
f 570 571 572
f 570 572 546
f 571 543 573
f 571 573 572
f 572 573 574
f 572 574 546
f 573 543 575
f 573 575 574
f 574 575 576
f 574 576 546
f 575 543 577
f 575 577 576
f 576 577 578
f 576 578 546
f 577 543 579
f 577 579 578
f 578 579 580
f 578 580 546
f 579 543 581
f 579 581 580
f 580 581 582
f 580 582 546
f 581 543 583
f 581 583 582
f 582 583 584
f 582 584 546
f 583 543 585
f 583 585 584
f 584 585 586
f 584 586 546
f 585 543 587
f 585 587 586
f 586 587 588
f 586 588 546
f 587 543 589
f 587 589 588
f 588 589 590
f 588 590 546
f 589 543 591
f 589 591 590
f 590 591 592
f 590 592 546
f 591 543 544
f 591 544 592
f 592 544 545
f 592 545 546

o geometry_53
v 1.65000000 -0.32000000 0.10000000
v 1.94440000 -0.32000000 0.10000000
v 1.94440000 -0.32000000 0.26000000
v 1.65000000 -0.32000000 0.26000000
v 1.93436856 -0.24380367 0.10000000
v 1.93436856 -0.24380367 0.26000000
v 1.90495788 -0.17280000 0.10000000
v 1.90495788 -0.17280000 0.26000000
v 1.85817224 -0.11182776 0.10000000
v 1.85817224 -0.11182776 0.26000000
v 1.79720000 -0.06504212 0.10000000
v 1.79720000 -0.06504212 0.26000000
v 1.72619633 -0.03563144 0.10000000
v 1.72619633 -0.03563144 0.26000000
v 1.65000000 -0.02560000 0.10000000
v 1.65000000 -0.02560000 0.26000000
v 1.57380367 -0.03563144 0.10000000
v 1.57380367 -0.03563144 0.26000000
v 1.50280000 -0.06504212 0.10000000
v 1.50280000 -0.06504212 0.26000000
v 1.44182776 -0.11182776 0.10000000
v 1.44182776 -0.11182776 0.26000000
v 1.39504212 -0.17280000 0.10000000
v 1.39504212 -0.17280000 0.26000000
v 1.36563144 -0.24380367 0.10000000
v 1.36563144 -0.24380367 0.26000000
v 1.35560000 -0.32000000 0.10000000
v 1.35560000 -0.32000000 0.26000000
v 1.36563144 -0.39619633 0.10000000
v 1.36563144 -0.39619633 0.26000000
v 1.39504212 -0.46720000 0.10000000
v 1.39504212 -0.46720000 0.26000000
v 1.44182776 -0.52817224 0.10000000
v 1.44182776 -0.52817224 0.26000000
v 1.50280000 -0.57495788 0.10000000
v 1.50280000 -0.57495788 0.26000000
v 1.57380367 -0.60436856 0.10000000
v 1.57380367 -0.60436856 0.26000000
v 1.65000000 -0.61440000 0.10000000
v 1.65000000 -0.61440000 0.26000000
v 1.72619633 -0.60436856 0.10000000
v 1.72619633 -0.60436856 0.26000000
v 1.79720000 -0.57495788 0.10000000
v 1.79720000 -0.57495788 0.26000000
v 1.85817224 -0.52817224 0.10000000
v 1.85817224 -0.52817224 0.26000000
v 1.90495788 -0.46720000 0.10000000
v 1.90495788 -0.46720000 0.26000000
v 1.93436856 -0.39619633 0.10000000
v 1.93436856 -0.39619633 0.26000000
f 594 593 597
f 594 597 595
f 595 597 598
f 595 598 596
f 597 593 599
f 597 599 598
f 598 599 600
f 598 600 596
f 599 593 601
f 599 601 600
f 600 601 602
f 600 602 596
f 601 593 603
f 601 603 602
f 602 603 604
f 602 604 596
f 603 593 605
f 603 605 604
f 604 605 606
f 604 606 596
f 605 593 607
f 605 607 606
f 606 607 608
f 606 608 596
f 607 593 609
f 607 609 608
f 608 609 610
f 608 610 596
f 609 593 611
f 609 611 610
f 610 611 612
f 610 612 596
f 611 593 613
f 611 613 612
f 612 613 614
f 612 614 596
f 613 593 615
f 613 615 614
f 614 615 616
f 614 616 596
f 615 593 617
f 615 617 616
f 616 617 618
f 616 618 596
f 617 593 619
f 617 619 618
f 618 619 620
f 618 620 596
f 619 593 621
f 619 621 620
f 620 621 622
f 620 622 596
f 621 593 623
f 621 623 622
f 622 623 624
f 622 624 596
f 623 593 625
f 623 625 624
f 624 625 626
f 624 626 596
f 625 593 627
f 625 627 626
f 626 627 628
f 626 628 596
f 627 593 629
f 627 629 628
f 628 629 630
f 628 630 596
f 629 593 631
f 629 631 630
f 630 631 632
f 630 632 596
f 631 593 633
f 631 633 632
f 632 633 634
f 632 634 596
f 633 593 635
f 633 635 634
f 634 635 636
f 634 636 596
f 635 593 637
f 635 637 636
f 636 637 638
f 636 638 596
f 637 593 639
f 637 639 638
f 638 639 640
f 638 640 596
f 639 593 641
f 639 641 640
f 640 641 642
f 640 642 596
f 641 593 594
f 641 594 642
f 642 594 595
f 642 595 596

o geometry_54
v 1.65000000 -0.32000000 3.18000000
v 1.93060000 -0.32000000 3.18000000
v 1.93060000 -0.32000000 3.36000000
v 1.65000000 -0.32000000 3.36000000
v 1.92103879 -0.24737538 3.18000000
v 1.92103879 -0.24737538 3.36000000
v 1.89300673 -0.17970000 3.18000000
v 1.89300673 -0.17970000 3.36000000
v 1.84841416 -0.12158584 3.18000000
v 1.84841416 -0.12158584 3.36000000
v 1.79030000 -0.07699327 3.18000000
v 1.79030000 -0.07699327 3.36000000
v 1.72262462 -0.04896121 3.18000000
v 1.72262462 -0.04896121 3.36000000
v 1.65000000 -0.03940000 3.18000000
v 1.65000000 -0.03940000 3.36000000
v 1.57737538 -0.04896121 3.18000000
v 1.57737538 -0.04896121 3.36000000
v 1.50970000 -0.07699327 3.18000000
v 1.50970000 -0.07699327 3.36000000
v 1.45158584 -0.12158584 3.18000000
v 1.45158584 -0.12158584 3.36000000
v 1.40699327 -0.17970000 3.18000000
v 1.40699327 -0.17970000 3.36000000
v 1.37896121 -0.24737538 3.18000000
v 1.37896121 -0.24737538 3.36000000
v 1.36940000 -0.32000000 3.18000000
v 1.36940000 -0.32000000 3.36000000
v 1.37896121 -0.39262462 3.18000000
v 1.37896121 -0.39262462 3.36000000
v 1.40699327 -0.46030000 3.18000000
v 1.40699327 -0.46030000 3.36000000
v 1.45158584 -0.51841416 3.18000000
v 1.45158584 -0.51841416 3.36000000
v 1.50970000 -0.56300673 3.18000000
v 1.50970000 -0.56300673 3.36000000
v 1.57737538 -0.59103879 3.18000000
v 1.57737538 -0.59103879 3.36000000
v 1.65000000 -0.60060000 3.18000000
v 1.65000000 -0.60060000 3.36000000
v 1.72262462 -0.59103879 3.18000000
v 1.72262462 -0.59103879 3.36000000
v 1.79030000 -0.56300673 3.18000000
v 1.79030000 -0.56300673 3.36000000
v 1.84841416 -0.51841416 3.18000000
v 1.84841416 -0.51841416 3.36000000
v 1.89300673 -0.46030000 3.18000000
v 1.89300673 -0.46030000 3.36000000
v 1.92103879 -0.39262462 3.18000000
v 1.92103879 -0.39262462 3.36000000
f 644 643 647
f 644 647 645
f 645 647 648
f 645 648 646
f 647 643 649
f 647 649 648
f 648 649 650
f 648 650 646
f 649 643 651
f 649 651 650
f 650 651 652
f 650 652 646
f 651 643 653
f 651 653 652
f 652 653 654
f 652 654 646
f 653 643 655
f 653 655 654
f 654 655 656
f 654 656 646
f 655 643 657
f 655 657 656
f 656 657 658
f 656 658 646
f 657 643 659
f 657 659 658
f 658 659 660
f 658 660 646
f 659 643 661
f 659 661 660
f 660 661 662
f 660 662 646
f 661 643 663
f 661 663 662
f 662 663 664
f 662 664 646
f 663 643 665
f 663 665 664
f 664 665 666
f 664 666 646
f 665 643 667
f 665 667 666
f 666 667 668
f 666 668 646
f 667 643 669
f 667 669 668
f 668 669 670
f 668 670 646
f 669 643 671
f 669 671 670
f 670 671 672
f 670 672 646
f 671 643 673
f 671 673 672
f 672 673 674
f 672 674 646
f 673 643 675
f 673 675 674
f 674 675 676
f 674 676 646
f 675 643 677
f 675 677 676
f 676 677 678
f 676 678 646
f 677 643 679
f 677 679 678
f 678 679 680
f 678 680 646
f 679 643 681
f 679 681 680
f 680 681 682
f 680 682 646
f 681 643 683
f 681 683 682
f 682 683 684
f 682 684 646
f 683 643 685
f 683 685 684
f 684 685 686
f 684 686 646
f 685 643 687
f 685 687 686
f 686 687 688
f 686 688 646
f 687 643 689
f 687 689 688
f 688 689 690
f 688 690 646
f 689 643 691
f 689 691 690
f 690 691 692
f 690 692 646
f 691 643 644
f 691 644 692
f 692 644 645
f 692 645 646

o geometry_55
v 1.36250000 -0.67000000 3.11000000
v 1.36250000 -0.67000000 3.27000000
v 1.36250000 0.03000000 3.11000000
v 1.36250000 0.03000000 3.27000000
v 1.93750000 -0.67000000 3.11000000
v 1.93750000 -0.67000000 3.27000000
v 1.93750000 0.03000000 3.11000000
v 1.93750000 0.03000000 3.27000000
f 694 696 693
f 697 694 693
f 693 696 695
f 695 697 693
f 694 700 696
f 698 694 697
f 698 700 694
f 696 700 695
f 699 697 695
f 695 700 699
f 699 698 697
f 700 698 699

o geometry_56
v -0.50000000 -0.93500000 0.17500000
v -0.50000000 -0.93500000 0.72500000
v -0.50000000 -0.38500000 0.17500000
v -0.50000000 -0.38500000 0.72500000
v 0.50000000 -0.93500000 0.17500000
v 0.50000000 -0.93500000 0.72500000
v 0.50000000 -0.38500000 0.17500000
v 0.50000000 -0.38500000 0.72500000
f 702 704 701
f 705 702 701
f 701 704 703
f 703 705 701
f 702 708 704
f 706 702 705
f 706 708 702
f 704 708 703
f 707 705 703
f 703 708 707
f 707 706 705
f 708 706 707

o geometry_57
v 0.69000000 -0.66000000 0.35000000
v 0.69000000 -0.66000000 0.04000000
v 0.75000000 -0.66000000 0.04000000
v 0.75000000 -0.66000000 0.35000000
v 0.69000000 -0.55397376 0.05869529
v 0.75000000 -0.55397376 0.05869529
v 0.69000000 -0.46073584 0.11252622
v 0.75000000 -0.46073584 0.11252622
v 0.69000000 -0.39153212 0.19500000
v 0.75000000 -0.39153212 0.19500000
v 0.69000000 -0.35470960 0.29616906
v 0.75000000 -0.35470960 0.29616906
v 0.69000000 -0.35470960 0.40383094
v 0.75000000 -0.35470960 0.40383094
v 0.69000000 -0.39153212 0.50500000
v 0.75000000 -0.39153212 0.50500000
v 0.69000000 -0.46073584 0.58747378
v 0.75000000 -0.46073584 0.58747378
v 0.69000000 -0.55397376 0.64130471
v 0.75000000 -0.55397376 0.64130471
v 0.69000000 -0.66000000 0.66000000
v 0.75000000 -0.66000000 0.66000000
v 0.69000000 -0.76602624 0.64130471
v 0.75000000 -0.76602624 0.64130471
v 0.69000000 -0.85926416 0.58747378
v 0.75000000 -0.85926416 0.58747378
v 0.69000000 -0.92846788 0.50500000
v 0.75000000 -0.92846788 0.50500000
v 0.69000000 -0.96529040 0.40383094
v 0.75000000 -0.96529040 0.40383094
v 0.69000000 -0.96529040 0.29616906
v 0.75000000 -0.96529040 0.29616906
v 0.69000000 -0.92846788 0.19500000
v 0.75000000 -0.92846788 0.19500000
v 0.69000000 -0.85926416 0.11252622
v 0.75000000 -0.85926416 0.11252622
v 0.69000000 -0.76602624 0.05869529
v 0.75000000 -0.76602624 0.05869529
f 710 709 713
f 710 713 711
f 711 713 714
f 711 714 712
f 713 709 715
f 713 715 714
f 714 715 716
f 714 716 712
f 715 709 717
f 715 717 716
f 716 717 718
f 716 718 712
f 717 709 719
f 717 719 718
f 718 719 720
f 718 720 712
f 719 709 721
f 719 721 720
f 720 721 722
f 720 722 712
f 721 709 723
f 721 723 722
f 722 723 724
f 722 724 712
f 723 709 725
f 723 725 724
f 724 725 726
f 724 726 712
f 725 709 727
f 725 727 726
f 726 727 728
f 726 728 712
f 727 709 729
f 727 729 728
f 728 729 730
f 728 730 712
f 729 709 731
f 729 731 730
f 730 731 732
f 730 732 712
f 731 709 733
f 731 733 732
f 732 733 734
f 732 734 712
f 733 709 735
f 733 735 734
f 734 735 736
f 734 736 712
f 735 709 737
f 735 737 736
f 736 737 738
f 736 738 712
f 737 709 739
f 737 739 738
f 738 739 740
f 738 740 712
f 739 709 741
f 739 741 740
f 740 741 742
f 740 742 712
f 741 709 743
f 741 743 742
f 742 743 744
f 742 744 712
f 743 709 745
f 743 745 744
f 744 745 746
f 744 746 712
f 745 709 710
f 745 710 746
f 746 710 711
f 746 711 712

o geometry_58
v 0.69000000 -0.66000000 0.00000000
v 0.69000000 -0.66000000 -0.31000000
v 0.75000000 -0.66000000 -0.31000000
v 0.75000000 -0.66000000 0.00000000
v 0.69000000 -0.55397376 -0.29130471
v 0.75000000 -0.55397376 -0.29130471
v 0.69000000 -0.46073584 -0.23747378
v 0.75000000 -0.46073584 -0.23747378
v 0.69000000 -0.39153212 -0.15500000
v 0.75000000 -0.39153212 -0.15500000
v 0.69000000 -0.35470960 -0.05383094
v 0.75000000 -0.35470960 -0.05383094
v 0.69000000 -0.35470960 0.05383094
v 0.75000000 -0.35470960 0.05383094
v 0.69000000 -0.39153212 0.15500000
v 0.75000000 -0.39153212 0.15500000
v 0.69000000 -0.46073584 0.23747378
v 0.75000000 -0.46073584 0.23747378
v 0.69000000 -0.55397376 0.29130471
v 0.75000000 -0.55397376 0.29130471
v 0.69000000 -0.66000000 0.31000000
v 0.75000000 -0.66000000 0.31000000
v 0.69000000 -0.76602624 0.29130471
v 0.75000000 -0.76602624 0.29130471
v 0.69000000 -0.85926416 0.23747378
v 0.75000000 -0.85926416 0.23747378
v 0.69000000 -0.92846788 0.15500000
v 0.75000000 -0.92846788 0.15500000
v 0.69000000 -0.96529040 0.05383094
v 0.75000000 -0.96529040 0.05383094
v 0.69000000 -0.96529040 -0.05383094
v 0.75000000 -0.96529040 -0.05383094
v 0.69000000 -0.92846788 -0.15500000
v 0.75000000 -0.92846788 -0.15500000
v 0.69000000 -0.85926416 -0.23747378
v 0.75000000 -0.85926416 -0.23747378
v 0.69000000 -0.76602624 -0.29130471
v 0.75000000 -0.76602624 -0.29130471
f 748 747 751
f 748 751 749
f 749 751 752
f 749 752 750
f 751 747 753
f 751 753 752
f 752 753 754
f 752 754 750
f 753 747 755
f 753 755 754
f 754 755 756
f 754 756 750
f 755 747 757
f 755 757 756
f 756 757 758
f 756 758 750
f 757 747 759
f 757 759 758
f 758 759 760
f 758 760 750
f 759 747 761
f 759 761 760
f 760 761 762
f 760 762 750
f 761 747 763
f 761 763 762
f 762 763 764
f 762 764 750
f 763 747 765
f 763 765 764
f 764 765 766
f 764 766 750
f 765 747 767
f 765 767 766
f 766 767 768
f 766 768 750
f 767 747 769
f 767 769 768
f 768 769 770
f 768 770 750
f 769 747 771
f 769 771 770
f 770 771 772
f 770 772 750
f 771 747 773
f 771 773 772
f 772 773 774
f 772 774 750
f 773 747 775
f 773 775 774
f 774 775 776
f 774 776 750
f 775 747 777
f 775 777 776
f 776 777 778
f 776 778 750
f 777 747 779
f 777 779 778
f 778 779 780
f 778 780 750
f 779 747 781
f 779 781 780
f 780 781 782
f 780 782 750
f 781 747 783
f 781 783 782
f 782 783 784
f 782 784 750
f 783 747 748
f 783 748 784
f 784 748 749
f 784 749 750

o geometry_59
v 0.69000000 -0.66000000 -0.35000000
v 0.69000000 -0.66000000 -0.66000000
v 0.75000000 -0.66000000 -0.66000000
v 0.75000000 -0.66000000 -0.35000000
v 0.69000000 -0.55397376 -0.64130471
v 0.75000000 -0.55397376 -0.64130471
v 0.69000000 -0.46073584 -0.58747378
v 0.75000000 -0.46073584 -0.58747378
v 0.69000000 -0.39153212 -0.50500000
v 0.75000000 -0.39153212 -0.50500000
v 0.69000000 -0.35470960 -0.40383094
v 0.75000000 -0.35470960 -0.40383094
v 0.69000000 -0.35470960 -0.29616906
v 0.75000000 -0.35470960 -0.29616906
v 0.69000000 -0.39153212 -0.19500000
v 0.75000000 -0.39153212 -0.19500000
v 0.69000000 -0.46073584 -0.11252622
v 0.75000000 -0.46073584 -0.11252622
v 0.69000000 -0.55397376 -0.05869529
v 0.75000000 -0.55397376 -0.05869529
v 0.69000000 -0.66000000 -0.04000000
v 0.75000000 -0.66000000 -0.04000000
v 0.69000000 -0.76602624 -0.05869529
v 0.75000000 -0.76602624 -0.05869529
v 0.69000000 -0.85926416 -0.11252622
v 0.75000000 -0.85926416 -0.11252622
v 0.69000000 -0.92846788 -0.19500000
v 0.75000000 -0.92846788 -0.19500000
v 0.69000000 -0.96529040 -0.29616906
v 0.75000000 -0.96529040 -0.29616906
v 0.69000000 -0.96529040 -0.40383094
v 0.75000000 -0.96529040 -0.40383094
v 0.69000000 -0.92846788 -0.50500000
v 0.75000000 -0.92846788 -0.50500000
v 0.69000000 -0.85926416 -0.58747378
v 0.75000000 -0.85926416 -0.58747378
v 0.69000000 -0.76602624 -0.64130471
v 0.75000000 -0.76602624 -0.64130471
f 786 785 789
f 786 789 787
f 787 789 790
f 787 790 788
f 789 785 791
f 789 791 790
f 790 791 792
f 790 792 788
f 791 785 793
f 791 793 792
f 792 793 794
f 792 794 788
f 793 785 795
f 793 795 794
f 794 795 796
f 794 796 788
f 795 785 797
f 795 797 796
f 796 797 798
f 796 798 788
f 797 785 799
f 797 799 798
f 798 799 800
f 798 800 788
f 799 785 801
f 799 801 800
f 800 801 802
f 800 802 788
f 801 785 803
f 801 803 802
f 802 803 804
f 802 804 788
f 803 785 805
f 803 805 804
f 804 805 806
f 804 806 788
f 805 785 807
f 805 807 806
f 806 807 808
f 806 808 788
f 807 785 809
f 807 809 808
f 808 809 810
f 808 810 788
f 809 785 811
f 809 811 810
f 810 811 812
f 810 812 788
f 811 785 813
f 811 813 812
f 812 813 814
f 812 814 788
f 813 785 815
f 813 815 814
f 814 815 816
f 814 816 788
f 815 785 817
f 815 817 816
f 816 817 818
f 816 818 788
f 817 785 819
f 817 819 818
f 818 819 820
f 818 820 788
f 819 785 821
f 819 821 820
f 820 821 822
f 820 822 788
f 821 785 786
f 821 786 822
f 822 786 787
f 822 787 788

o geometry_60
v -0.06000000 -1.02000000 0.36000000
v -0.06000000 -1.02000000 0.58000000
v -0.06000000 -0.94000000 0.36000000
v -0.06000000 -0.94000000 0.58000000
v 0.06000000 -1.02000000 0.36000000
v 0.06000000 -1.02000000 0.58000000
v 0.06000000 -0.94000000 0.36000000
v 0.06000000 -0.94000000 0.58000000
f 824 826 823
f 827 824 823
f 823 826 825
f 825 827 823
f 824 830 826
f 828 824 827
f 828 830 824
f 826 830 825
f 829 827 825
f 825 830 829
f 829 828 827
f 830 828 829

o geometry_61
v -1.99000000 -0.66000000 2.63000000
v -1.99000000 -0.66000000 2.81000000
v -1.99000000 -0.58000000 2.63000000
v -1.99000000 -0.58000000 2.81000000
v -1.57000000 -0.66000000 2.63000000
v -1.57000000 -0.66000000 2.81000000
v -1.57000000 -0.58000000 2.63000000
v -1.57000000 -0.58000000 2.81000000
f 832 834 831
f 835 832 831
f 831 834 833
f 833 835 831
f 832 838 834
f 836 832 835
f 836 838 832
f 834 838 833
f 837 835 833
f 833 838 837
f 837 836 835
f 838 836 837

o geometry_62
v -1.89550000 -0.73000000 2.76000000
v -1.89550000 -0.73000000 2.84000000
v -1.89550000 -0.63000000 2.76000000
v -1.89550000 -0.63000000 2.84000000
v -1.66450000 -0.73000000 2.76000000
v -1.66450000 -0.73000000 2.84000000
v -1.66450000 -0.63000000 2.76000000
v -1.66450000 -0.63000000 2.84000000
f 840 842 839
f 843 840 839
f 839 842 841
f 841 843 839
f 840 846 842
f 844 840 843
f 844 846 840
f 842 846 841
f 845 843 841
f 841 846 845
f 845 844 843
f 846 844 845

o geometry_63
v -1.57000000 -0.66000000 2.63000000
v -1.57000000 -0.66000000 2.81000000
v -1.57000000 -0.58000000 2.63000000
v -1.57000000 -0.58000000 2.81000000
v -1.15000000 -0.66000000 2.63000000
v -1.15000000 -0.66000000 2.81000000
v -1.15000000 -0.58000000 2.63000000
v -1.15000000 -0.58000000 2.81000000
f 848 850 847
f 851 848 847
f 847 850 849
f 849 851 847
f 848 854 850
f 852 848 851
f 852 854 848
f 850 854 849
f 853 851 849
f 849 854 853
f 853 852 851
f 854 852 853

o geometry_64
v -1.47550000 -0.73000000 2.60000000
v -1.47550000 -0.73000000 2.68000000
v -1.47550000 -0.63000000 2.60000000
v -1.47550000 -0.63000000 2.68000000
v -1.24450000 -0.73000000 2.60000000
v -1.24450000 -0.73000000 2.68000000
v -1.24450000 -0.63000000 2.60000000
v -1.24450000 -0.63000000 2.68000000
f 856 858 855
f 859 856 855
f 855 858 857
f 857 859 855
f 856 862 858
f 860 856 859
f 860 862 856
f 858 862 857
f 861 859 857
f 857 862 861
f 861 860 859
f 862 860 861

o geometry_65
v -1.15000000 -0.66000000 2.63000000
v -1.15000000 -0.66000000 2.81000000
v -1.15000000 -0.58000000 2.63000000
v -1.15000000 -0.58000000 2.81000000
v -0.73000000 -0.66000000 2.63000000
v -0.73000000 -0.66000000 2.81000000
v -0.73000000 -0.58000000 2.63000000
v -0.73000000 -0.58000000 2.81000000
f 864 866 863
f 867 864 863
f 863 866 865
f 865 867 863
f 864 870 866
f 868 864 867
f 868 870 864
f 866 870 865
f 869 867 865
f 865 870 869
f 869 868 867
f 870 868 869

o geometry_66
v -1.05550000 -0.73000000 2.76000000
v -1.05550000 -0.73000000 2.84000000
v -1.05550000 -0.63000000 2.76000000
v -1.05550000 -0.63000000 2.84000000
v -0.82450000 -0.73000000 2.76000000
v -0.82450000 -0.73000000 2.84000000
v -0.82450000 -0.63000000 2.76000000
v -0.82450000 -0.63000000 2.84000000
f 872 874 871
f 875 872 871
f 871 874 873
f 873 875 871
f 872 878 874
f 876 872 875
f 876 878 872
f 874 878 873
f 877 875 873
f 873 878 877
f 877 876 875
f 878 876 877

o geometry_67
v -0.73000000 -0.66000000 2.63000000
v -0.73000000 -0.66000000 2.81000000
v -0.73000000 -0.58000000 2.63000000
v -0.73000000 -0.58000000 2.81000000
v -0.31000000 -0.66000000 2.63000000
v -0.31000000 -0.66000000 2.81000000
v -0.31000000 -0.58000000 2.63000000
v -0.31000000 -0.58000000 2.81000000
f 880 882 879
f 883 880 879
f 879 882 881
f 881 883 879
f 880 886 882
f 884 880 883
f 884 886 880
f 882 886 881
f 885 883 881
f 881 886 885
f 885 884 883
f 886 884 885

o geometry_68
v -0.63550000 -0.73000000 2.60000000
v -0.63550000 -0.73000000 2.68000000
v -0.63550000 -0.63000000 2.60000000
v -0.63550000 -0.63000000 2.68000000
v -0.40450000 -0.73000000 2.60000000
v -0.40450000 -0.73000000 2.68000000
v -0.40450000 -0.63000000 2.60000000
v -0.40450000 -0.63000000 2.68000000
f 888 890 887
f 891 888 887
f 887 890 889
f 889 891 887
f 888 894 890
f 892 888 891
f 892 894 888
f 890 894 889
f 893 891 889
f 889 894 893
f 893 892 891
f 894 892 893

o geometry_69
v -0.31000000 -0.66000000 2.63000000
v -0.31000000 -0.66000000 2.81000000
v -0.31000000 -0.58000000 2.63000000
v -0.31000000 -0.58000000 2.81000000
v 0.11000000 -0.66000000 2.63000000
v 0.11000000 -0.66000000 2.81000000
v 0.11000000 -0.58000000 2.63000000
v 0.11000000 -0.58000000 2.81000000
f 896 898 895
f 899 896 895
f 895 898 897
f 897 899 895
f 896 902 898
f 900 896 899
f 900 902 896
f 898 902 897
f 901 899 897
f 897 902 901
f 901 900 899
f 902 900 901

o geometry_70
v -0.21550000 -0.73000000 2.76000000
v -0.21550000 -0.73000000 2.84000000
v -0.21550000 -0.63000000 2.76000000
v -0.21550000 -0.63000000 2.84000000
v 0.01550000 -0.73000000 2.76000000
v 0.01550000 -0.73000000 2.84000000
v 0.01550000 -0.63000000 2.76000000
v 0.01550000 -0.63000000 2.84000000
f 904 906 903
f 907 904 903
f 903 906 905
f 905 907 903
f 904 910 906
f 908 904 907
f 908 910 904
f 906 910 905
f 909 907 905
f 905 910 909
f 909 908 907
f 910 908 909

o geometry_71
v 0.11000000 -0.66000000 2.63000000
v 0.11000000 -0.66000000 2.81000000
v 0.11000000 -0.58000000 2.63000000
v 0.11000000 -0.58000000 2.81000000
v 0.53000000 -0.66000000 2.63000000
v 0.53000000 -0.66000000 2.81000000
v 0.53000000 -0.58000000 2.63000000
v 0.53000000 -0.58000000 2.81000000
f 912 914 911
f 915 912 911
f 911 914 913
f 913 915 911
f 912 918 914
f 916 912 915
f 916 918 912
f 914 918 913
f 917 915 913
f 913 918 917
f 917 916 915
f 918 916 917

o geometry_72
v 0.20450000 -0.73000000 2.60000000
v 0.20450000 -0.73000000 2.68000000
v 0.20450000 -0.63000000 2.60000000
v 0.20450000 -0.63000000 2.68000000
v 0.43550000 -0.73000000 2.60000000
v 0.43550000 -0.73000000 2.68000000
v 0.43550000 -0.63000000 2.60000000
v 0.43550000 -0.63000000 2.68000000
f 920 922 919
f 923 920 919
f 919 922 921
f 921 923 919
f 920 926 922
f 924 920 923
f 924 926 920
f 922 926 921
f 925 923 921
f 921 926 925
f 925 924 923
f 926 924 925

o geometry_73
v 0.53000000 -0.66000000 2.63000000
v 0.53000000 -0.66000000 2.81000000
v 0.53000000 -0.58000000 2.63000000
v 0.53000000 -0.58000000 2.81000000
v 0.95000000 -0.66000000 2.63000000
v 0.95000000 -0.66000000 2.81000000
v 0.95000000 -0.58000000 2.63000000
v 0.95000000 -0.58000000 2.81000000
f 928 930 927
f 931 928 927
f 927 930 929
f 929 931 927
f 928 934 930
f 932 928 931
f 932 934 928
f 930 934 929
f 933 931 929
f 929 934 933
f 933 932 931
f 934 932 933

o geometry_74
v 0.62450000 -0.73000000 2.76000000
v 0.62450000 -0.73000000 2.84000000
v 0.62450000 -0.63000000 2.76000000
v 0.62450000 -0.63000000 2.84000000
v 0.85550000 -0.73000000 2.76000000
v 0.85550000 -0.73000000 2.84000000
v 0.85550000 -0.63000000 2.76000000
v 0.85550000 -0.63000000 2.84000000
f 936 938 935
f 939 936 935
f 935 938 937
f 937 939 935
f 936 942 938
f 940 936 939
f 940 942 936
f 938 942 937
f 941 939 937
f 937 942 941
f 941 940 939
f 942 940 941

o geometry_75
v 0.95000000 -0.66000000 2.63000000
v 0.95000000 -0.66000000 2.81000000
v 0.95000000 -0.58000000 2.63000000
v 0.95000000 -0.58000000 2.81000000
v 1.37000000 -0.66000000 2.63000000
v 1.37000000 -0.66000000 2.81000000
v 1.37000000 -0.58000000 2.63000000
v 1.37000000 -0.58000000 2.81000000
f 944 946 943
f 947 944 943
f 943 946 945
f 945 947 943
f 944 950 946
f 948 944 947
f 948 950 944
f 946 950 945
f 949 947 945
f 945 950 949
f 949 948 947
f 950 948 949

o geometry_76
v 1.04450000 -0.73000000 2.60000000
v 1.04450000 -0.73000000 2.68000000
v 1.04450000 -0.63000000 2.60000000
v 1.04450000 -0.63000000 2.68000000
v 1.27550000 -0.73000000 2.60000000
v 1.27550000 -0.73000000 2.68000000
v 1.27550000 -0.63000000 2.60000000
v 1.27550000 -0.63000000 2.68000000
f 952 954 951
f 955 952 951
f 951 954 953
f 953 955 951
f 952 958 954
f 956 952 955
f 956 958 952
f 954 958 953
f 957 955 953
f 953 958 957
f 957 956 955
f 958 956 957

o geometry_77
v 1.37000000 -0.66000000 2.63000000
v 1.37000000 -0.66000000 2.81000000
v 1.37000000 -0.58000000 2.63000000
v 1.37000000 -0.58000000 2.81000000
v 1.79000000 -0.66000000 2.63000000
v 1.79000000 -0.66000000 2.81000000
v 1.79000000 -0.58000000 2.63000000
v 1.79000000 -0.58000000 2.81000000
f 960 962 959
f 963 960 959
f 959 962 961
f 961 963 959
f 960 966 962
f 964 960 963
f 964 966 960
f 962 966 961
f 965 963 961
f 961 966 965
f 965 964 963
f 966 964 965

o geometry_78
v 1.46450000 -0.73000000 2.76000000
v 1.46450000 -0.73000000 2.84000000
v 1.46450000 -0.63000000 2.76000000
v 1.46450000 -0.63000000 2.84000000
v 1.69550000 -0.73000000 2.76000000
v 1.69550000 -0.73000000 2.84000000
v 1.69550000 -0.63000000 2.76000000
v 1.69550000 -0.63000000 2.84000000
f 968 970 967
f 971 968 967
f 967 970 969
f 969 971 967
f 968 974 970
f 972 968 971
f 972 974 968
f 970 974 969
f 973 971 969
f 969 974 973
f 973 972 971
f 974 972 973

o geometry_79
v -1.05000000 -0.72000000 1.53000000
v -1.00500000 -0.72000000 1.53000000
v -1.00500000 -0.72000000 1.87000000
v -1.05000000 -0.72000000 1.87000000
v -1.01102886 -0.69750000 1.53000000
v -1.01102886 -0.69750000 1.87000000
v -1.02750000 -0.68102886 1.53000000
v -1.02750000 -0.68102886 1.87000000
v -1.05000000 -0.67500000 1.53000000
v -1.05000000 -0.67500000 1.87000000
v -1.07250000 -0.68102886 1.53000000
v -1.07250000 -0.68102886 1.87000000
v -1.08897114 -0.69750000 1.53000000
v -1.08897114 -0.69750000 1.87000000
v -1.09500000 -0.72000000 1.53000000
v -1.09500000 -0.72000000 1.87000000
v -1.08897114 -0.74250000 1.53000000
v -1.08897114 -0.74250000 1.87000000
v -1.07250000 -0.75897114 1.53000000
v -1.07250000 -0.75897114 1.87000000
v -1.05000000 -0.76500000 1.53000000
v -1.05000000 -0.76500000 1.87000000
v -1.02750000 -0.75897114 1.53000000
v -1.02750000 -0.75897114 1.87000000
v -1.01102886 -0.74250000 1.53000000
v -1.01102886 -0.74250000 1.87000000
f 976 975 979
f 976 979 977
f 977 979 980
f 977 980 978
f 979 975 981
f 979 981 980
f 980 981 982
f 980 982 978
f 981 975 983
f 981 983 982
f 982 983 984
f 982 984 978
f 983 975 985
f 983 985 984
f 984 985 986
f 984 986 978
f 985 975 987
f 985 987 986
f 986 987 988
f 986 988 978
f 987 975 989
f 987 989 988
f 988 989 990
f 988 990 978
f 989 975 991
f 989 991 990
f 990 991 992
f 990 992 978
f 991 975 993
f 991 993 992
f 992 993 994
f 992 994 978
f 993 975 995
f 993 995 994
f 994 995 996
f 994 996 978
f 995 975 997
f 995 997 996
f 996 997 998
f 996 998 978
f 997 975 999
f 997 999 998
f 998 999 1000
f 998 1000 978
f 999 975 976
f 999 976 1000
f 1000 976 977
f 1000 977 978

o geometry_80
v -1.14000000 -0.70000000 1.54000000
v -1.14000000 -0.70000000 1.78000000
v -1.14000000 -0.64000000 1.54000000
v -1.14000000 -0.64000000 1.78000000
v -0.96000000 -0.70000000 1.54000000
v -0.96000000 -0.70000000 1.78000000
v -0.96000000 -0.64000000 1.54000000
v -0.96000000 -0.64000000 1.78000000
f 1002 1004 1001
f 1005 1002 1001
f 1001 1004 1003
f 1003 1005 1001
f 1002 1008 1004
f 1006 1002 1005
f 1006 1008 1002
f 1004 1008 1003
f 1007 1005 1003
f 1003 1008 1007
f 1007 1006 1005
f 1008 1006 1007

o geometry_81
v -1.05000000 -0.73000000 1.93000000
v -0.95000000 -0.73000000 1.93000000
v -1.05000000 -0.73000000 2.13000000
v -0.96339746 -0.68000000 1.93000000
v -1.00000000 -0.64339746 1.93000000
v -1.05000000 -0.63000000 1.93000000
v -1.10000000 -0.64339746 1.93000000
v -1.13660254 -0.68000000 1.93000000
v -1.15000000 -0.73000000 1.93000000
v -1.13660254 -0.78000000 1.93000000
v -1.10000000 -0.81660254 1.93000000
v -1.05000000 -0.83000000 1.93000000
v -1.00000000 -0.81660254 1.93000000
v -0.96339746 -0.78000000 1.93000000
f 1010 1009 1012
f 1010 1012 1011
f 1012 1009 1013
f 1012 1013 1011
f 1013 1009 1014
f 1013 1014 1011
f 1014 1009 1015
f 1014 1015 1011
f 1015 1009 1016
f 1015 1016 1011
f 1016 1009 1017
f 1016 1017 1011
f 1017 1009 1018
f 1017 1018 1011
f 1018 1009 1019
f 1018 1019 1011
f 1019 1009 1020
f 1019 1020 1011
f 1020 1009 1021
f 1020 1021 1011
f 1021 1009 1022
f 1021 1022 1011
f 1022 1009 1010
f 1022 1010 1011

o geometry_82
v 1.05588994 -0.27542267 0.15782079
v 1.31118624 -0.27542267 0.15782079
v 1.05588994 -0.56457733 0.15782079
v 1.31118624 -0.56457733 0.15782079
v 1.18353809 -0.50935371 0.40058014
v 1.18353809 -0.33064629 0.40058014
v 1.18353809 -0.50935371 -0.08493856
v 1.18353809 -0.33064629 -0.08493856
v 1.39007714 -0.42000000 0.00778726
v 1.39007714 -0.42000000 0.30785432
v 0.97699904 -0.42000000 0.00778726
v 0.97699904 -0.42000000 0.30785432
v 1.18353809 -0.25003915 0.15782079
v 1.18353809 -0.58996085 0.15782079
v 1.10850839 -0.55750122 0.30051116
v 1.25856779 -0.55750122 0.30051116
v 1.10850839 -0.28249878 0.30051116
v 1.25856779 -0.28249878 0.30051116
v 1.18353809 -0.42000000 0.44320153
v 1.10850839 -0.55750122 0.01513042
v 1.25856779 -0.55750122 0.01513042
v 1.10850839 -0.28249878 0.01513042
v 1.25856779 -0.28249878 0.01513042
v 1.18353809 -0.42000000 -0.12755995
v 1.37996840 -0.33501957 0.06963329
v 1.37996840 -0.50498043 0.06963329
v 1.30493870 -0.47252079 -0.07305708
v 1.30493870 -0.36747921 -0.07305708
v 1.37996840 -0.33501957 0.24600829
v 1.37996840 -0.50498043 0.24600829
v 1.30493870 -0.47252079 0.38869866
v 1.30493870 -0.36747921 0.38869866
v 1.42633931 -0.42000000 0.15782079
v 0.98710778 -0.33501957 0.06963329
v 0.98710778 -0.50498043 0.06963329
v 1.06213748 -0.47252079 -0.07305708
v 1.06213748 -0.36747921 -0.07305708
v 0.98710778 -0.33501957 0.24600829
v 0.98710778 -0.50498043 0.24600829
v 1.06213748 -0.47252079 0.38869866
v 1.06213748 -0.36747921 0.38869866
v 0.94073688 -0.42000000 0.15782079
f 1023 1060 1039
f 1060 1034 1063
f 1039 1063 1028
f 1060 1063 1039
f 1023 1039 1035
f 1039 1028 1040
f 1035 1040 1024
f 1039 1040 1035
f 1023 1035 1044
f 1035 1024 1045
f 1044 1045 1030
f 1035 1045 1044
f 1023 1044 1056
f 1044 1030 1059
f 1056 1059 1033
f 1044 1059 1056
f 1023 1056 1060
f 1056 1033 1064
f 1060 1064 1034
f 1056 1064 1060
f 1024 1040 1051
f 1040 1028 1054
f 1051 1054 1032
f 1040 1054 1051
f 1028 1063 1041
f 1063 1034 1062
f 1041 1062 1027
f 1063 1062 1041
f 1034 1064 1061
f 1064 1033 1057
f 1061 1057 1025
f 1064 1057 1061
f 1033 1059 1058
f 1059 1030 1046
f 1058 1046 1029
f 1059 1046 1058
f 1030 1045 1050
f 1045 1024 1047
f 1050 1047 1031
f 1045 1047 1050
f 1026 1052 1038
f 1052 1032 1053
f 1038 1053 1027
f 1052 1053 1038
f 1026 1038 1036
f 1038 1027 1037
f 1036 1037 1025
f 1038 1037 1036
f 1026 1036 1043
f 1036 1025 1042
f 1043 1042 1029
f 1036 1042 1043
f 1026 1043 1048
f 1043 1029 1049
f 1048 1049 1031
f 1043 1049 1048
f 1026 1048 1052
f 1048 1031 1055
f 1052 1055 1032
f 1048 1055 1052
f 1027 1053 1041
f 1053 1032 1054
f 1041 1054 1028
f 1053 1054 1041
f 1025 1037 1061
f 1037 1027 1062
f 1061 1062 1034
f 1037 1062 1061
f 1029 1042 1058
f 1042 1025 1057
f 1058 1057 1033
f 1042 1057 1058
f 1031 1049 1050
f 1049 1029 1046
f 1050 1046 1030
f 1049 1046 1050
f 1032 1055 1051
f 1055 1031 1047
f 1051 1047 1024
f 1055 1047 1051

o geometry_83
v 1.30176965 -0.33241333 0.09560971
v 1.45643119 -0.33241333 0.09560971
v 1.30176965 -0.50758667 0.09560971
v 1.45643119 -0.50758667 0.09560971
v 1.37910042 -0.47413154 0.17072357
v 1.37910042 -0.36586846 0.17072357
v 1.37910042 -0.47413154 0.02049586
v 1.37910042 -0.36586846 0.02049586
v 1.50422423 -0.42000000 0.04918680
v 1.50422423 -0.42000000 0.14203263
v 1.25397660 -0.42000000 0.04918680
v 1.25397660 -0.42000000 0.14203263
v 1.37910042 -0.31703569 0.09560971
v 1.37910042 -0.52296431 0.09560971
v 1.33364653 -0.50329987 0.13976053
v 1.42455431 -0.50329987 0.13976053
v 1.33364653 -0.33670013 0.13976053
v 1.42455431 -0.33670013 0.13976053
v 1.37910042 -0.42000000 0.18391134
v 1.33364653 -0.50329987 0.05145890
v 1.42455431 -0.50329987 0.05145890
v 1.33364653 -0.33670013 0.05145890
v 1.42455431 -0.33670013 0.05145890
v 1.37910042 -0.42000000 0.00730808
v 1.49810024 -0.36851785 0.06832301
v 1.49810024 -0.47148215 0.06832301
v 1.45264635 -0.45181772 0.02417219
v 1.45264635 -0.38818228 0.02417219
v 1.49810024 -0.36851785 0.12289642
v 1.49810024 -0.47148215 0.12289642
v 1.45264635 -0.45181772 0.16704723
v 1.45264635 -0.38818228 0.16704723
v 1.52619229 -0.42000000 0.09560971
v 1.26010060 -0.36851785 0.06832301
v 1.26010060 -0.47148215 0.06832301
v 1.30555449 -0.45181772 0.02417219
v 1.30555449 -0.38818228 0.02417219
v 1.26010060 -0.36851785 0.12289642
v 1.26010060 -0.47148215 0.12289642
v 1.30555449 -0.45181772 0.16704723
v 1.30555449 -0.38818228 0.16704723
v 1.23200855 -0.42000000 0.09560971
f 1065 1102 1081
f 1102 1076 1105
f 1081 1105 1070
f 1102 1105 1081
f 1065 1081 1077
f 1081 1070 1082
f 1077 1082 1066
f 1081 1082 1077
f 1065 1077 1086
f 1077 1066 1087
f 1086 1087 1072
f 1077 1087 1086
f 1065 1086 1098
f 1086 1072 1101
f 1098 1101 1075
f 1086 1101 1098
f 1065 1098 1102
f 1098 1075 1106
f 1102 1106 1076
f 1098 1106 1102
f 1066 1082 1093
f 1082 1070 1096
f 1093 1096 1074
f 1082 1096 1093
f 1070 1105 1083
f 1105 1076 1104
f 1083 1104 1069
f 1105 1104 1083
f 1076 1106 1103
f 1106 1075 1099
f 1103 1099 1067
f 1106 1099 1103
f 1075 1101 1100
f 1101 1072 1088
f 1100 1088 1071
f 1101 1088 1100
f 1072 1087 1092
f 1087 1066 1089
f 1092 1089 1073
f 1087 1089 1092
f 1068 1094 1080
f 1094 1074 1095
f 1080 1095 1069
f 1094 1095 1080
f 1068 1080 1078
f 1080 1069 1079
f 1078 1079 1067
f 1080 1079 1078
f 1068 1078 1085
f 1078 1067 1084
f 1085 1084 1071
f 1078 1084 1085
f 1068 1085 1090
f 1085 1071 1091
f 1090 1091 1073
f 1085 1091 1090
f 1068 1090 1094
f 1090 1073 1097
f 1094 1097 1074
f 1090 1097 1094
f 1069 1095 1083
f 1095 1074 1096
f 1083 1096 1070
f 1095 1096 1083
f 1067 1079 1103
f 1079 1069 1104
f 1103 1104 1076
f 1079 1104 1103
f 1071 1084 1100
f 1084 1067 1099
f 1100 1099 1075
f 1084 1099 1100
f 1073 1091 1092
f 1091 1071 1088
f 1092 1088 1072
f 1091 1088 1092
f 1074 1097 1093
f 1097 1073 1089
f 1093 1089 1066
f 1097 1089 1093

o geometry_84
v 0.96340239 -0.31005165 0.12001975
v 1.15755043 -0.31005165 0.12001975
v 0.96340239 -0.52994835 0.12001975
v 1.15755043 -0.52994835 0.12001975
v 1.06047641 -0.48795182 0.29779232
v 1.06047641 -0.35204818 0.29779232
v 1.06047641 -0.48795182 -0.05775282
v 1.06047641 -0.35204818 -0.05775282
v 1.21754548 -0.42000000 0.01015026
v 1.21754548 -0.42000000 0.22988924
v 0.90340734 -0.42000000 0.01015026
v 0.90340734 -0.42000000 0.22988924
v 1.06047641 -0.29074796 0.12001975
v 1.06047641 -0.54925204 0.12001975
v 1.00341773 -0.52456709 0.22451184
v 1.11753509 -0.52456709 0.22451184
v 1.00341773 -0.31543291 0.22451184
v 1.11753509 -0.31543291 0.22451184
v 1.06047641 -0.42000000 0.32900394
v 1.00341773 -0.52456709 0.01552765
v 1.11753509 -0.52456709 0.01552765
v 1.00341773 -0.31543291 0.01552765
v 1.11753509 -0.31543291 0.01552765
v 1.06047641 -0.42000000 -0.08896444
v 1.20985797 -0.35537398 0.05544008
v 1.20985797 -0.48462602 0.05544008
v 1.15279929 -0.45994108 -0.04905201
v 1.15279929 -0.38005892 -0.04905201
v 1.20985797 -0.35537398 0.18459941
v 1.20985797 -0.48462602 0.18459941
v 1.15279929 -0.45994108 0.28909151
v 1.15279929 -0.38005892 0.28909151
v 1.24512218 -0.42000000 0.12001975
v 0.91109485 -0.35537398 0.05544008
v 0.91109485 -0.48462602 0.05544008
v 0.96815353 -0.45994108 -0.04905201
v 0.96815353 -0.38005892 -0.04905201
v 0.91109485 -0.35537398 0.18459941
v 0.91109485 -0.48462602 0.18459941
v 0.96815353 -0.45994108 0.28909151
v 0.96815353 -0.38005892 0.28909151
v 0.87583064 -0.42000000 0.12001975
f 1107 1144 1123
f 1144 1118 1147
f 1123 1147 1112
f 1144 1147 1123
f 1107 1123 1119
f 1123 1112 1124
f 1119 1124 1108
f 1123 1124 1119
f 1107 1119 1128
f 1119 1108 1129
f 1128 1129 1114
f 1119 1129 1128
f 1107 1128 1140
f 1128 1114 1143
f 1140 1143 1117
f 1128 1143 1140
f 1107 1140 1144
f 1140 1117 1148
f 1144 1148 1118
f 1140 1148 1144
f 1108 1124 1135
f 1124 1112 1138
f 1135 1138 1116
f 1124 1138 1135
f 1112 1147 1125
f 1147 1118 1146
f 1125 1146 1111
f 1147 1146 1125
f 1118 1148 1145
f 1148 1117 1141
f 1145 1141 1109
f 1148 1141 1145
f 1117 1143 1142
f 1143 1114 1130
f 1142 1130 1113
f 1143 1130 1142
f 1114 1129 1134
f 1129 1108 1131
f 1134 1131 1115
f 1129 1131 1134
f 1110 1136 1122
f 1136 1116 1137
f 1122 1137 1111
f 1136 1137 1122
f 1110 1122 1120
f 1122 1111 1121
f 1120 1121 1109
f 1122 1121 1120
f 1110 1120 1127
f 1120 1109 1126
f 1127 1126 1113
f 1120 1126 1127
f 1110 1127 1132
f 1127 1113 1133
f 1132 1133 1115
f 1127 1133 1132
f 1110 1132 1136
f 1132 1115 1139
f 1136 1139 1116
f 1132 1139 1136
f 1111 1137 1125
f 1137 1116 1138
f 1125 1138 1112
f 1137 1138 1125
f 1109 1121 1145
f 1121 1111 1146
f 1145 1146 1118
f 1121 1146 1145
f 1113 1126 1142
f 1126 1109 1141
f 1142 1141 1117
f 1126 1141 1142
f 1115 1133 1134
f 1133 1113 1130
f 1134 1130 1114
f 1133 1130 1134
f 1116 1139 1135
f 1139 1115 1131
f 1135 1131 1108
f 1139 1131 1135

o geometry_85
v 1.40665436 -0.27790931 0.15510636
v 1.65755971 -0.27790931 0.15510636
v 1.40665436 -0.56209069 0.15510636
v 1.65755971 -0.56209069 0.15510636
v 1.53210703 -0.50781687 0.31564624
v 1.53210703 -0.33218313 0.31564624
v 1.53210703 -0.50781687 -0.00543351
v 1.53210703 -0.33218313 -0.00543351
v 1.73509373 -0.42000000 0.05588726
v 1.73509373 -0.42000000 0.25432546
v 1.32912034 -0.42000000 0.05588726
v 1.32912034 -0.42000000 0.25432546
v 1.53210703 -0.25296238 0.15510636
v 1.53210703 -0.58703762 0.15510636
v 1.45836780 -0.55513627 0.24946933
v 1.60584626 -0.55513627 0.24946933
v 1.45836780 -0.28486373 0.24946933
v 1.60584626 -0.28486373 0.24946933
v 1.53210703 -0.42000000 0.34383230
v 1.45836780 -0.55513627 0.06074339
v 1.60584626 -0.55513627 0.06074339
v 1.45836780 -0.28486373 0.06074339
v 1.60584626 -0.28486373 0.06074339
v 1.53210703 -0.42000000 -0.03361958
v 1.72515885 -0.33648119 0.09678684
v 1.72515885 -0.50351881 0.09678684
v 1.65141962 -0.47161746 0.00242387
v 1.65141962 -0.36838254 0.00242387
v 1.72515885 -0.33648119 0.21342588
v 1.72515885 -0.50351881 0.21342588
v 1.65141962 -0.47161746 0.30778885
v 1.65141962 -0.36838254 0.30778885
v 1.77073220 -0.42000000 0.15510636
v 1.33905521 -0.33648119 0.09678684
v 1.33905521 -0.50351881 0.09678684
v 1.41279445 -0.47161746 0.00242387
v 1.41279445 -0.36838254 0.00242387
v 1.33905521 -0.33648119 0.21342588
v 1.33905521 -0.50351881 0.21342588
v 1.41279445 -0.47161746 0.30778885
v 1.41279445 -0.36838254 0.30778885
v 1.29348186 -0.42000000 0.15510636
f 1149 1186 1165
f 1186 1160 1189
f 1165 1189 1154
f 1186 1189 1165
f 1149 1165 1161
f 1165 1154 1166
f 1161 1166 1150
f 1165 1166 1161
f 1149 1161 1170
f 1161 1150 1171
f 1170 1171 1156
f 1161 1171 1170
f 1149 1170 1182
f 1170 1156 1185
f 1182 1185 1159
f 1170 1185 1182
f 1149 1182 1186
f 1182 1159 1190
f 1186 1190 1160
f 1182 1190 1186
f 1150 1166 1177
f 1166 1154 1180
f 1177 1180 1158
f 1166 1180 1177
f 1154 1189 1167
f 1189 1160 1188
f 1167 1188 1153
f 1189 1188 1167
f 1160 1190 1187
f 1190 1159 1183
f 1187 1183 1151
f 1190 1183 1187
f 1159 1185 1184
f 1185 1156 1172
f 1184 1172 1155
f 1185 1172 1184
f 1156 1171 1176
f 1171 1150 1173
f 1176 1173 1157
f 1171 1173 1176
f 1152 1178 1164
f 1178 1158 1179
f 1164 1179 1153
f 1178 1179 1164
f 1152 1164 1162
f 1164 1153 1163
f 1162 1163 1151
f 1164 1163 1162
f 1152 1162 1169
f 1162 1151 1168
f 1169 1168 1155
f 1162 1168 1169
f 1152 1169 1174
f 1169 1155 1175
f 1174 1175 1157
f 1169 1175 1174
f 1152 1174 1178
f 1174 1157 1181
f 1178 1181 1158
f 1174 1181 1178
f 1153 1179 1167
f 1179 1158 1180
f 1167 1180 1154
f 1179 1180 1167
f 1151 1163 1187
f 1163 1153 1188
f 1187 1188 1160
f 1163 1188 1187
f 1155 1168 1184
f 1168 1151 1183
f 1184 1183 1159
f 1168 1183 1184
f 1157 1175 1176
f 1175 1155 1172
f 1176 1172 1156
f 1175 1172 1176
f 1158 1181 1177
f 1181 1157 1173
f 1177 1173 1150
f 1181 1173 1177

o geometry_86
v 1.12049814 -0.28223036 0.15038951
v 1.36377334 -0.28223036 0.15038951
v 1.12049814 -0.55776964 0.15038951
v 1.36377334 -0.55776964 0.15038951
v 1.24213574 -0.50514632 0.32551529
v 1.24213574 -0.33485368 0.32551529
v 1.24213574 -0.50514632 -0.02473628
v 1.24213574 -0.33485368 -0.02473628
v 1.43894952 -0.42000000 0.04215582
v 1.43894952 -0.42000000 0.25862319
v 1.04532197 -0.42000000 0.04215582
v 1.04532197 -0.42000000 0.25862319
v 1.24213574 -0.25804207 0.15038951
v 1.24213574 -0.58195793 0.15038951
v 1.17063895 -0.55102672 0.25332586
v 1.31363253 -0.55102672 0.25332586
v 1.17063895 -0.28897328 0.25332586
v 1.31363253 -0.28897328 0.25332586
v 1.24213574 -0.42000000 0.35626221
v 1.17063895 -0.55102672 0.04745315
v 1.31363253 -0.55102672 0.04745315
v 1.17063895 -0.28897328 0.04745315
v 1.31363253 -0.28897328 0.04745315
v 1.24213574 -0.42000000 -0.05548320
v 1.42931677 -0.33902104 0.08677134
v 1.42931677 -0.50097896 0.08677134
v 1.35781998 -0.47004775 -0.01616501
v 1.35781998 -0.36995225 -0.01616501
v 1.42931677 -0.33902104 0.21400767
v 1.42931677 -0.50097896 0.21400767
v 1.35781998 -0.47004775 0.31694402
v 1.35781998 -0.36995225 0.31694402
v 1.47350421 -0.42000000 0.15038951
v 1.05495472 -0.33902104 0.08677134
v 1.05495472 -0.50097896 0.08677134
v 1.12645151 -0.47004775 -0.01616501
v 1.12645151 -0.36995225 -0.01616501
v 1.05495472 -0.33902104 0.21400767
v 1.05495472 -0.50097896 0.21400767
v 1.12645151 -0.47004775 0.31694402
v 1.12645151 -0.36995225 0.31694402
v 1.01076727 -0.42000000 0.15038951
f 1191 1228 1207
f 1228 1202 1231
f 1207 1231 1196
f 1228 1231 1207
f 1191 1207 1203
f 1207 1196 1208
f 1203 1208 1192
f 1207 1208 1203
f 1191 1203 1212
f 1203 1192 1213
f 1212 1213 1198
f 1203 1213 1212
f 1191 1212 1224
f 1212 1198 1227
f 1224 1227 1201
f 1212 1227 1224
f 1191 1224 1228
f 1224 1201 1232
f 1228 1232 1202
f 1224 1232 1228
f 1192 1208 1219
f 1208 1196 1222
f 1219 1222 1200
f 1208 1222 1219
f 1196 1231 1209
f 1231 1202 1230
f 1209 1230 1195
f 1231 1230 1209
f 1202 1232 1229
f 1232 1201 1225
f 1229 1225 1193
f 1232 1225 1229
f 1201 1227 1226
f 1227 1198 1214
f 1226 1214 1197
f 1227 1214 1226
f 1198 1213 1218
f 1213 1192 1215
f 1218 1215 1199
f 1213 1215 1218
f 1194 1220 1206
f 1220 1200 1221
f 1206 1221 1195
f 1220 1221 1206
f 1194 1206 1204
f 1206 1195 1205
f 1204 1205 1193
f 1206 1205 1204
f 1194 1204 1211
f 1204 1193 1210
f 1211 1210 1197
f 1204 1210 1211
f 1194 1211 1216
f 1211 1197 1217
f 1216 1217 1199
f 1211 1217 1216
f 1194 1216 1220
f 1216 1199 1223
f 1220 1223 1200
f 1216 1223 1220
f 1195 1221 1209
f 1221 1200 1222
f 1209 1222 1196
f 1221 1222 1209
f 1193 1205 1229
f 1205 1195 1230
f 1229 1230 1202
f 1205 1230 1229
f 1197 1210 1226
f 1210 1193 1225
f 1226 1225 1201
f 1210 1225 1226
f 1199 1217 1218
f 1217 1197 1214
f 1218 1214 1198
f 1217 1214 1218
f 1200 1223 1219
f 1223 1199 1215
f 1219 1215 1192
f 1223 1215 1219

o geometry_87
v 1.14185992 -0.28735077 0.14480005
v 1.37609344 -0.28735077 0.14480005
v 1.14185992 -0.55264923 0.14480005
v 1.37609344 -0.55264923 0.14480005
v 1.25897668 -0.50198173 0.28409869
v 1.25897668 -0.33801827 0.28409869
v 1.25897668 -0.50198173 0.00550142
v 1.25897668 -0.33801827 0.00550142
v 1.44847558 -0.42000000 0.05870876
v 1.44847558 -0.42000000 0.23089134
v 1.06947779 -0.42000000 0.05870876
v 1.06947779 -0.42000000 0.23089134
v 1.25897668 -0.26406148 0.14480005
v 1.25897668 -0.57593852 0.14480005
v 1.19013718 -0.54615691 0.22667774
v 1.32781619 -0.54615691 0.22667774
v 1.19013718 -0.29384309 0.22667774
v 1.32781619 -0.29384309 0.22667774
v 1.25897668 -0.42000000 0.30855542
v 1.19013718 -0.54615691 0.06292237
v 1.32781619 -0.54615691 0.06292237
v 1.19013718 -0.29384309 0.06292237
v 1.32781619 -0.29384309 0.06292237
v 1.25897668 -0.42000000 -0.01895531
v 1.43920084 -0.34203074 0.09419686
v 1.43920084 -0.49796926 0.09419686
v 1.37036134 -0.46818765 0.01231918
v 1.37036134 -0.37181235 0.01231918
v 1.43920084 -0.34203074 0.19540324
v 1.43920084 -0.49796926 0.19540324
v 1.37036134 -0.46818765 0.27728093
v 1.37036134 -0.37181235 0.27728093
v 1.48174600 -0.42000000 0.14480005
v 1.07875252 -0.34203074 0.09419686
v 1.07875252 -0.49796926 0.09419686
v 1.14759203 -0.46818765 0.01231918
v 1.14759203 -0.37181235 0.01231918
v 1.07875252 -0.34203074 0.19540324
v 1.07875252 -0.49796926 0.19540324
v 1.14759203 -0.46818765 0.27728093
v 1.14759203 -0.37181235 0.27728093
v 1.03620737 -0.42000000 0.14480005
f 1233 1270 1249
f 1270 1244 1273
f 1249 1273 1238
f 1270 1273 1249
f 1233 1249 1245
f 1249 1238 1250
f 1245 1250 1234
f 1249 1250 1245
f 1233 1245 1254
f 1245 1234 1255
f 1254 1255 1240
f 1245 1255 1254
f 1233 1254 1266
f 1254 1240 1269
f 1266 1269 1243
f 1254 1269 1266
f 1233 1266 1270
f 1266 1243 1274
f 1270 1274 1244
f 1266 1274 1270
f 1234 1250 1261
f 1250 1238 1264
f 1261 1264 1242
f 1250 1264 1261
f 1238 1273 1251
f 1273 1244 1272
f 1251 1272 1237
f 1273 1272 1251
f 1244 1274 1271
f 1274 1243 1267
f 1271 1267 1235
f 1274 1267 1271
f 1243 1269 1268
f 1269 1240 1256
f 1268 1256 1239
f 1269 1256 1268
f 1240 1255 1260
f 1255 1234 1257
f 1260 1257 1241
f 1255 1257 1260
f 1236 1262 1248
f 1262 1242 1263
f 1248 1263 1237
f 1262 1263 1248
f 1236 1248 1246
f 1248 1237 1247
f 1246 1247 1235
f 1248 1247 1246
f 1236 1246 1253
f 1246 1235 1252
f 1253 1252 1239
f 1246 1252 1253
f 1236 1253 1258
f 1253 1239 1259
f 1258 1259 1241
f 1253 1259 1258
f 1236 1258 1262
f 1258 1241 1265
f 1262 1265 1242
f 1258 1265 1262
f 1237 1263 1251
f 1263 1242 1264
f 1251 1264 1238
f 1263 1264 1251
f 1235 1247 1271
f 1247 1237 1272
f 1271 1272 1244
f 1247 1272 1271
f 1239 1252 1268
f 1252 1235 1267
f 1268 1267 1243
f 1252 1267 1268
f 1241 1259 1260
f 1259 1239 1256
f 1260 1256 1240
f 1259 1256 1260
f 1242 1265 1261
f 1265 1241 1257
f 1261 1257 1234
f 1265 1257 1261

o geometry_88
v 1.40493855 -0.27415964 0.15919951
v 1.66246513 -0.27415964 0.15919951
v 1.40493855 -0.56584036 0.15919951
v 1.66246513 -0.56584036 0.15919951
v 1.53370184 -0.51013430 0.32292923
v 1.53370184 -0.32986570 0.32292923
v 1.53370184 -0.51013430 -0.00453020
v 1.53370184 -0.32986570 -0.00453020
v 1.74204522 -0.42000000 0.05800899
v 1.74204522 -0.42000000 0.26039004
v 1.32535846 -0.42000000 0.05800899
v 1.32535846 -0.42000000 0.26039004
v 1.53370184 -0.24855437 0.15919951
v 1.53370184 -0.59144563 0.15919951
v 1.45801668 -0.55870243 0.25543742
v 1.60938700 -0.55870243 0.25543742
v 1.45801668 -0.28129757 0.25543742
v 1.60938700 -0.28129757 0.25543742
v 1.53370184 -0.42000000 0.35167534
v 1.45801668 -0.55870243 0.06296160
v 1.60938700 -0.55870243 0.06296160
v 1.45801668 -0.28129757 0.06296160
v 1.60938700 -0.28129757 0.06296160
v 1.53370184 -0.42000000 -0.03327631
v 1.73184817 -0.33427718 0.09972121
v 1.73184817 -0.50572282 0.09972121
v 1.65616301 -0.47297961 0.00348330
v 1.65616301 -0.36702039 0.00348330
v 1.73184817 -0.33427718 0.21867781
v 1.73184817 -0.50572282 0.21867781
v 1.65616301 -0.47297961 0.31491572
v 1.65616301 -0.36702039 0.31491572
v 1.77862417 -0.42000000 0.15919951
v 1.33555551 -0.33427718 0.09972121
v 1.33555551 -0.50572282 0.09972121
v 1.41124068 -0.47297961 0.00348330
v 1.41124068 -0.36702039 0.00348330
v 1.33555551 -0.33427718 0.21867781
v 1.33555551 -0.50572282 0.21867781
v 1.41124068 -0.47297961 0.31491572
v 1.41124068 -0.36702039 0.31491572
v 1.28877951 -0.42000000 0.15919951
f 1275 1312 1291
f 1312 1286 1315
f 1291 1315 1280
f 1312 1315 1291
f 1275 1291 1287
f 1291 1280 1292
f 1287 1292 1276
f 1291 1292 1287
f 1275 1287 1296
f 1287 1276 1297
f 1296 1297 1282
f 1287 1297 1296
f 1275 1296 1308
f 1296 1282 1311
f 1308 1311 1285
f 1296 1311 1308
f 1275 1308 1312
f 1308 1285 1316
f 1312 1316 1286
f 1308 1316 1312
f 1276 1292 1303
f 1292 1280 1306
f 1303 1306 1284
f 1292 1306 1303
f 1280 1315 1293
f 1315 1286 1314
f 1293 1314 1279
f 1315 1314 1293
f 1286 1316 1313
f 1316 1285 1309
f 1313 1309 1277
f 1316 1309 1313
f 1285 1311 1310
f 1311 1282 1298
f 1310 1298 1281
f 1311 1298 1310
f 1282 1297 1302
f 1297 1276 1299
f 1302 1299 1283
f 1297 1299 1302
f 1278 1304 1290
f 1304 1284 1305
f 1290 1305 1279
f 1304 1305 1290
f 1278 1290 1288
f 1290 1279 1289
f 1288 1289 1277
f 1290 1289 1288
f 1278 1288 1295
f 1288 1277 1294
f 1295 1294 1281
f 1288 1294 1295
f 1278 1295 1300
f 1295 1281 1301
f 1300 1301 1283
f 1295 1301 1300
f 1278 1300 1304
f 1300 1283 1307
f 1304 1307 1284
f 1300 1307 1304
f 1279 1305 1293
f 1305 1284 1306
f 1293 1306 1280
f 1305 1306 1293
f 1277 1289 1313
f 1289 1279 1314
f 1313 1314 1286
f 1289 1314 1313
f 1281 1294 1310
f 1294 1277 1309
f 1310 1309 1285
f 1294 1309 1310
f 1283 1301 1302
f 1301 1281 1298
f 1302 1298 1282
f 1301 1298 1302
f 1284 1307 1303
f 1307 1283 1299
f 1303 1299 1276
f 1307 1299 1303

o geometry_89
v 0.90167918 -0.28696083 0.14522572
v 1.13660126 -0.28696083 0.14522572
v 0.90167918 -0.55303917 0.14522572
v 1.13660126 -0.55303917 0.14522572
v 1.01914022 -0.50222273 0.37158191
v 1.01914022 -0.33777727 0.37158191
v 1.01914022 -0.50222273 -0.08113048
v 1.01914022 -0.33777727 -0.08113048
v 1.20919618 -0.42000000 0.00532989
v 1.20919618 -0.42000000 0.28512154
v 0.82908426 -0.42000000 0.00532989
v 0.82908426 -0.42000000 0.28512154
v 1.01914022 -0.26360307 0.14522572
v 1.01914022 -0.57639693 0.14522572
v 0.95009835 -0.54652777 0.27827455
v 1.08818209 -0.54652777 0.27827455
v 0.95009835 -0.29347223 0.27827455
v 1.08818209 -0.29347223 0.27827455
v 1.01914022 -0.42000000 0.41132338
v 0.95009835 -0.54652777 0.01217688
v 1.08818209 -0.54652777 0.01217688
v 0.95009835 -0.29347223 0.01217688
v 1.08818209 -0.29347223 0.01217688
v 1.01914022 -0.42000000 -0.12087195
v 1.19989418 -0.34180154 0.06299701
v 1.19989418 -0.49819846 0.06299701
v 1.13085231 -0.46832931 -0.07005182
v 1.13085231 -0.37167069 -0.07005182
v 1.19989418 -0.34180154 0.22745442
v 1.19989418 -0.49819846 0.22745442
v 1.13085231 -0.46832931 0.36050325
v 1.13085231 -0.37167069 0.36050325
v 1.24256440 -0.42000000 0.14522572
v 0.83838626 -0.34180154 0.06299701
v 0.83838626 -0.49819846 0.06299701
v 0.90742813 -0.46832931 -0.07005182
v 0.90742813 -0.37167069 -0.07005182
v 0.83838626 -0.34180154 0.22745442
v 0.83838626 -0.49819846 0.22745442
v 0.90742813 -0.46832931 0.36050325
v 0.90742813 -0.37167069 0.36050325
v 0.79571604 -0.42000000 0.14522572
f 1317 1354 1333
f 1354 1328 1357
f 1333 1357 1322
f 1354 1357 1333
f 1317 1333 1329
f 1333 1322 1334
f 1329 1334 1318
f 1333 1334 1329
f 1317 1329 1338
f 1329 1318 1339
f 1338 1339 1324
f 1329 1339 1338
f 1317 1338 1350
f 1338 1324 1353
f 1350 1353 1327
f 1338 1353 1350
f 1317 1350 1354
f 1350 1327 1358
f 1354 1358 1328
f 1350 1358 1354
f 1318 1334 1345
f 1334 1322 1348
f 1345 1348 1326
f 1334 1348 1345
f 1322 1357 1335
f 1357 1328 1356
f 1335 1356 1321
f 1357 1356 1335
f 1328 1358 1355
f 1358 1327 1351
f 1355 1351 1319
f 1358 1351 1355
f 1327 1353 1352
f 1353 1324 1340
f 1352 1340 1323
f 1353 1340 1352
f 1324 1339 1344
f 1339 1318 1341
f 1344 1341 1325
f 1339 1341 1344
f 1320 1346 1332
f 1346 1326 1347
f 1332 1347 1321
f 1346 1347 1332
f 1320 1332 1330
f 1332 1321 1331
f 1330 1331 1319
f 1332 1331 1330
f 1320 1330 1337
f 1330 1319 1336
f 1337 1336 1323
f 1330 1336 1337
f 1320 1337 1342
f 1337 1323 1343
f 1342 1343 1325
f 1337 1343 1342
f 1320 1342 1346
f 1342 1325 1349
f 1346 1349 1326
f 1342 1349 1346
f 1321 1347 1335
f 1347 1326 1348
f 1335 1348 1322
f 1347 1348 1335
f 1319 1331 1355
f 1331 1321 1356
f 1355 1356 1328
f 1331 1356 1355
f 1323 1336 1352
f 1336 1319 1351
f 1352 1351 1327
f 1336 1351 1352
f 1325 1343 1344
f 1343 1323 1340
f 1344 1340 1324
f 1343 1340 1344
f 1326 1349 1345
f 1349 1325 1341
f 1345 1341 1318
f 1349 1341 1345

o geometry_90
v -2.00000000 -0.29500000 0.00000000
v -2.00000000 -0.29500000 0.18000000
v -2.00000000 0.25500000 0.00000000
v -2.00000000 0.25500000 0.18000000
v 2.00000000 -0.29500000 0.00000000
v 2.00000000 -0.29500000 0.18000000
v 2.00000000 0.25500000 0.00000000
v 2.00000000 0.25500000 0.18000000
f 1360 1362 1359
f 1363 1360 1359
f 1359 1362 1361
f 1361 1363 1359
f 1360 1366 1362
f 1364 1360 1363
f 1364 1366 1360
f 1362 1366 1361
f 1365 1363 1361
f 1361 1366 1365
f 1365 1364 1363
f 1366 1364 1365

o geometry_91
v -2.00000000 -0.33000000 3.25000000
v -2.00000000 -0.33000000 3.50000000
v -2.00000000 0.29000000 3.25000000
v -2.00000000 0.29000000 3.50000000
v 2.00000000 -0.33000000 3.25000000
v 2.00000000 -0.33000000 3.50000000
v 2.00000000 0.29000000 3.25000000
v 2.00000000 0.29000000 3.50000000
f 1368 1370 1367
f 1371 1368 1367
f 1367 1370 1369
f 1369 1371 1367
f 1368 1374 1370
f 1372 1368 1371
f 1372 1374 1368
f 1370 1374 1369
f 1373 1371 1369
f 1369 1374 1373
f 1373 1372 1371
f 1374 1372 1373

