# https://github.com/mikedh/trimesh

o geometry_0
v -1.99405813 -0.46634977 0.02004672
v -1.99405813 -0.46634977 0.49504672
v -1.98790138 0.01361075 0.02004672
v -1.98790138 0.01361075 0.49504672
v -1.50200036 -0.47266170 0.02004672
v -1.50200036 -0.47266170 0.49504672
v -1.49584361 0.00729882 0.02004672
v -1.49584361 0.00729882 0.49504672
f 2 4 1
f 5 2 1
f 1 4 3
f 3 5 1
f 2 8 4
f 6 2 5
f 6 8 2
f 4 8 3
f 7 5 3
f 3 8 7
f 7 6 5
f 8 6 7

o geometry_1
v -1.48084820 -0.47602862 -0.00960005
v -1.48084820 -0.47602862 0.46539995
v -1.48095527 0.00397137 -0.00960005
v -1.48095527 0.00397137 0.46539995
v -0.96118355 -0.47591270 -0.00960005
v -0.96118355 -0.47591270 0.46539995
v -0.96129062 0.00408729 -0.00960005
v -0.96129062 0.00408729 0.46539995
f 10 12 9
f 13 10 9
f 9 12 11
f 11 13 9
f 10 16 12
f 14 10 13
f 14 16 10
f 12 16 11
f 15 13 11
f 11 16 15
f 15 14 13
f 16 14 15

o geometry_2
v -0.94616673 -0.47519874 -0.00900723
v -0.94616673 -0.47519874 0.46599277
v -0.94027314 0.00476508 -0.00900723
v -0.94027314 0.00476508 0.46599277
v -0.49132658 -0.48078382 -0.00900723
v -0.49132658 -0.48078382 0.46599277
v -0.48543300 -0.00082000 -0.00900723
v -0.48543300 -0.00082000 0.46599277
f 18 20 17
f 21 18 17
f 17 20 19
f 19 21 17
f 18 24 20
f 22 18 21
f 22 24 18
f 20 24 19
f 23 21 19
f 19 24 23
f 23 22 21
f 24 22 23

o geometry_3
v -0.47234659 -0.48770007 -0.00630990
v -0.47234659 -0.48770007 0.46869010
v -0.46836128 -0.00771662 -0.00630990
v -0.46836128 -0.00771662 0.46869010
v 0.03282349 -0.49189451 -0.00630990
v 0.03282349 -0.49189451 0.46869010
v 0.03680880 -0.01191106 -0.00630990
v 0.03680880 -0.01191106 0.46869010
f 26 28 25
f 29 26 25
f 25 28 27
f 27 29 25
f 26 32 28
f 30 26 29
f 30 32 26
f 28 32 27
f 31 29 27
f 27 32 31
f 31 30 29
f 32 30 31

o geometry_4
v 0.05208223 -0.49260630 0.01635515
v 0.05208223 -0.49260630 0.49135515
v 0.05357003 -0.01260860 0.01635515
v 0.05357003 -0.01260860 0.49135515
v 0.58364599 -0.49425393 0.01635515
v 0.58364599 -0.49425393 0.49135515
v 0.58513379 -0.01425624 0.01635515
v 0.58513379 -0.01425624 0.49135515
f 34 36 33
f 37 34 33
f 33 36 35
f 35 37 33
f 34 40 36
f 38 34 37
f 38 40 34
f 36 40 35
f 39 37 35
f 35 40 39
f 39 38 37
f 40 38 39

o geometry_5
v 0.60088211 -0.46457205 0.03042342
v 0.60088211 -0.46457205 0.50542342
v 0.60391172 0.01541838 0.03042342
v 0.60391172 0.01541838 0.50542342
v 1.17778378 -0.46821335 0.03042342
v 1.17778378 -0.46821335 0.50542342
v 1.18081339 0.01177709 0.03042342
v 1.18081339 0.01177709 0.50542342
f 42 44 41
f 45 42 41
f 41 44 43
f 43 45 41
f 42 48 44
f 46 42 45
f 46 48 42
f 44 48 43
f 47 45 43
f 43 48 47
f 47 46 45
f 48 46 47

o geometry_6
v 1.19959095 -0.47074572 0.00292409
v 1.19959095 -0.47074572 0.47792409
v 1.19503880 0.00923269 0.00292409
v 1.19503880 0.00923269 0.47792409
v 1.66832303 -0.46630023 0.00292409
v 1.66832303 -0.46630023 0.47792409
v 1.66377088 0.01367818 0.00292409
v 1.66377088 0.01367818 0.47792409
f 50 52 49
f 53 50 49
f 49 52 51
f 51 53 49
f 50 56 52
f 54 50 53
f 54 56 50
f 52 56 51
f 55 53 51
f 51 56 55
f 55 54 53
f 56 54 55

o geometry_7
v 1.68313988 -0.48185875 0.01944567
v 1.68313988 -0.48185875 0.49444567
v 1.68497735 -0.00186227 0.01944567
v 1.68497735 -0.00186227 0.49444567
v 1.99008014 -0.48303374 0.01944567
v 1.99008014 -0.48303374 0.49444567
v 1.99191761 -0.00303726 0.01944567
v 1.99191761 -0.00303726 0.49444567
f 58 60 57
f 61 58 57
f 57 60 59
f 59 61 57
f 58 64 60
f 62 58 61
f 62 64 58
f 60 64 59
f 63 61 59
f 59 64 63
f 63 62 61
f 64 62 63

o geometry_8
v -1.99310431 -0.46398097 0.49048006
v -1.99310431 -0.46398097 0.96548006
v -1.98887017 0.01600036 0.49048006
v -1.98887017 0.01600036 0.96548006
v -1.33712136 -0.46976770 0.49048006
v -1.33712136 -0.46976770 0.96548006
v -1.33288722 0.01021363 0.49048006
v -1.33288722 0.01021363 0.96548006
f 66 68 65
f 69 66 65
f 65 68 67
f 67 69 65
f 66 72 68
f 70 66 69
f 70 72 66
f 68 72 67
f 71 69 67
f 67 72 71
f 71 70 69
f 72 70 71

o geometry_9
v -1.31637436 -0.47869658 0.50320736
v -1.31637436 -0.47869658 0.97820736
v -1.31760645 0.00130184 0.50320736
v -1.31760645 0.00130184 0.97820736
v -0.63881160 -0.47695737 0.50320736
v -0.63881160 -0.47695737 0.97820736
v -0.64004369 0.00304105 0.50320736
v -0.64004369 0.00304105 0.97820736
f 74 76 73
f 77 74 73
f 73 76 75
f 75 77 73
f 74 80 76
f 78 74 77
f 78 80 74
f 76 80 75
f 79 77 75
f 75 80 79
f 79 78 77
f 80 78 79

o geometry_10
v -0.61998807 -0.47590099 0.52721897
v -0.61998807 -0.47590099 1.00221897
v -0.62285357 0.00409046 0.52721897
v -0.62285357 0.00409046 1.00221897
v 0.02064298 -0.47207648 0.52721897
v 0.02064298 -0.47207648 1.00221897
v 0.01777747 0.00791497 0.52721897
v 0.01777747 0.00791497 1.00221897
f 82 84 81
f 85 82 81
f 81 84 83
f 83 85 81
f 82 88 84
f 86 82 85
f 86 88 82
f 84 88 83
f 87 85 83
f 83 88 87
f 87 86 85
f 88 86 87

o geometry_11
v 0.03993607 -0.48563119 0.51375983
v 0.03993607 -0.48563119 0.98875983
v 0.03453421 -0.00566158 0.51375983
v 0.03453421 -0.00566158 0.98875983
v 0.64656334 -0.47880384 0.51375983
v 0.64656334 -0.47880384 0.98875983
v 0.64116147 0.00116576 0.51375983
v 0.64116147 0.00116576 0.98875983
f 90 92 89
f 93 90 89
f 89 92 91
f 91 93 89
f 90 96 92
f 94 90 93
f 94 96 90
f 92 96 91
f 95 93 91
f 91 96 95
f 95 94 93
f 96 94 95

o geometry_12
v 0.65915425 -0.46969503 0.53650874
v 0.65915425 -0.46969503 1.01150874
v 0.66465398 0.01027347 0.53650874
v 0.66465398 0.01027347 1.01150874
v 1.34464411 -0.47754973 0.53650874
v 1.34464411 -0.47754973 1.01150874
v 1.35014384 0.00241876 0.53650874
v 1.35014384 0.00241876 1.01150874
f 98 100 97
f 101 98 97
f 97 100 99
f 99 101 97
f 98 104 100
f 102 98 101
f 102 104 98
f 100 104 99
f 103 101 99
f 99 104 103
f 103 102 101
f 104 102 103

o geometry_13
v 1.36533703 -0.48761065 0.49509923
v 1.36533703 -0.48761065 0.97009923
v 1.36549596 -0.00761067 0.49509923
v 1.36549596 -0.00761067 0.97009923
v 1.99092052 -0.48781778 0.49509923
v 1.99092052 -0.48781778 0.97009923
v 1.99107945 -0.00781781 0.49509923
v 1.99107945 -0.00781781 0.97009923
f 106 108 105
f 109 106 105
f 105 108 107
f 107 109 105
f 106 112 108
f 110 106 109
f 110 112 106
f 108 112 107
f 111 109 107
f 107 112 111
f 111 110 109
f 112 110 111

o geometry_14
v -1.99047353 -0.48567396 1.02572854
v -1.99047353 -0.48567396 1.50072854
v -1.99152510 -0.00567512 1.02572854
v -1.99152510 -0.00567512 1.50072854
v -1.41710372 -0.48441784 1.02572854
v -1.41710372 -0.48441784 1.50072854
v -1.41815530 -0.00441899 1.02572854
v -1.41815530 -0.00441899 1.50072854
f 114 116 113
f 117 114 113
f 113 116 115
f 115 117 113
f 114 120 116
f 118 114 117
f 118 120 114
f 116 120 115
f 119 117 115
f 115 120 119
f 119 118 117
f 120 118 119

o geometry_15
v -1.39894794 -0.47541546 1.02226477
v -1.39894794 -0.47541546 1.49726477
v -1.40030686 0.00458262 1.02226477
v -1.40030686 0.00458262 1.49726477
v -0.68968564 -0.47340747 1.02226477
v -0.68968564 -0.47340747 1.49726477
v -0.69104456 0.00659061 1.02226477
v -0.69104456 0.00659061 1.49726477
f 122 124 121
f 125 122 121
f 121 124 123
f 123 125 121
f 122 128 124
f 126 122 125
f 126 128 122
f 124 128 123
f 127 125 123
f 123 128 127
f 127 126 125
f 128 126 127

o geometry_16
v -0.66913265 -0.48307524 1.02949839
v -0.66913265 -0.48307524 1.50449839
v -0.67553587 -0.00311795 1.02949839
v -0.67553587 -0.00311795 1.50449839
v -0.00795852 -0.47425437 1.02949839
v -0.00795852 -0.47425437 1.50449839
v -0.01436173 0.00570292 1.02949839
v -0.01436173 0.00570292 1.50449839
f 130 132 129
f 133 130 129
f 129 132 131
f 131 133 129
f 130 136 132
f 134 130 133
f 134 136 130
f 132 136 131
f 135 133 131
f 131 136 135
f 135 134 133
f 136 134 135

o geometry_17
v 0.00832591 -0.48686671 0.99053347
v 0.00832591 -0.48686671 1.46553347
v 0.00542444 -0.00687548 0.99053347
v 0.00542444 -0.00687548 1.46553347
v 0.65235512 -0.48297366 0.99053347
v 0.65235512 -0.48297366 1.46553347
v 0.64945366 -0.00298243 0.99053347
v 0.64945366 -0.00298243 1.46553347
f 138 140 137
f 141 138 137
f 137 140 139
f 139 141 137
f 138 144 140
f 142 138 141
f 142 144 138
f 140 144 139
f 143 141 139
f 139 144 143
f 143 142 141
f 144 142 143

o geometry_18
v 0.66736639 -0.49261609 1.02859624
v 0.66736639 -0.49261609 1.50359624
v 0.67046819 -0.01262612 1.02859624
v 0.67046819 -0.01262612 1.50359624
v 1.33951079 -0.49695964 1.02859624
v 1.33951079 -0.49695964 1.50359624
v 1.34261260 -0.01696966 1.02859624
v 1.34261260 -0.01696966 1.50359624
f 146 148 145
f 149 146 145
f 145 148 147
f 147 149 145
f 146 152 148
f 150 146 149
f 150 152 146
f 148 152 147
f 151 149 147
f 147 152 151
f 151 150 149
f 152 150 151

o geometry_19
v 1.35879313 -0.48469762 0.98862815
v 1.35879313 -0.48469762 1.46362815
v 1.35934471 -0.00469794 0.98862815
v 1.35934471 -0.00469794 1.46362815
v 1.98848382 -0.48542122 0.98862815
v 1.98848382 -0.48542122 1.46362815
v 1.98903541 -0.00542154 0.98862815
v 1.98903541 -0.00542154 1.46362815
f 154 156 153
f 157 154 153
f 153 156 155
f 155 157 153
f 154 160 156
f 158 154 157
f 158 160 154
f 156 160 155
f 159 157 155
f 155 160 159
f 159 158 157
f 160 158 159

o geometry_20
v -1.98905912 -0.47089627 1.49044772
v -1.98905912 -0.47089627 1.96544772
v -1.99292164 0.00908819 1.49044772
v -1.99292164 0.00908819 1.96544772
v -1.39477050 -0.46611393 1.49044772
v -1.39477050 -0.46611393 1.96544772
v -1.39863302 0.01387052 1.49044772
v -1.39863302 0.01387052 1.96544772
f 162 164 161
f 165 162 161
f 161 164 163
f 163 165 161
f 162 168 164
f 166 162 165
f 166 168 162
f 164 168 163
f 167 165 163
f 163 168 167
f 167 166 165
f 168 166 167

o geometry_21
v -1.37599970 -0.47568952 1.50704749
v -1.37599970 -0.47568952 1.98204749
v -1.38134807 0.00428068 1.50704749
v -1.38134807 0.00428068 1.98204749
v -0.78801842 -0.46913757 1.50704749
v -0.78801842 -0.46913757 1.98204749
v -0.79336679 0.01083263 1.50704749
v -0.79336679 0.01083263 1.98204749
f 170 172 169
f 173 170 169
f 169 172 171
f 171 173 169
f 170 176 172
f 174 170 173
f 174 176 170
f 172 176 171
f 175 173 171
f 171 176 175
f 175 174 173
f 176 174 175

o geometry_22
v -0.76989487 -0.48179566 1.51497200
v -0.76989487 -0.48179566 1.98997200
v -0.77541547 -0.00182740 1.51497200
v -0.77541547 -0.00182740 1.98997200
v -0.18983877 -0.47512384 1.51497200
v -0.18983877 -0.47512384 1.98997200
v -0.19535938 0.00484441 1.51497200
v -0.19535938 0.00484441 1.98997200
f 178 180 177
f 181 178 177
f 177 180 179
f 179 181 177
f 178 184 180
f 182 178 181
f 182 184 178
f 180 184 179
f 183 181 179
f 179 184 183
f 183 182 181
f 184 182 183

o geometry_23
v -0.17518863 -0.49002920 1.50142105
v -0.17518863 -0.49002920 1.97642105
v -0.17396890 -0.01003075 1.50142105
v -0.17396890 -0.01003075 1.97642105
v 0.52494209 -0.49180831 1.50142105
v 0.52494209 -0.49180831 1.97642105
v 0.52616182 -0.01180986 1.50142105
v 0.52616182 -0.01180986 1.97642105
f 186 188 185
f 189 186 185
f 185 188 187
f 187 189 185
f 186 192 188
f 190 186 189
f 190 192 186
f 188 192 187
f 191 189 187
f 187 192 191
f 191 190 189
f 192 190 191

o geometry_24
v 0.54105690 -0.48823850 1.53538656
v 0.54105690 -0.48823850 2.01038656
v 0.54608355 -0.00826482 1.53538656
v 0.54608355 -0.00826482 2.01038656
v 1.16632293 -0.49478675 1.53538656
v 1.16632293 -0.49478675 2.01038656
v 1.17134958 -0.01481307 1.53538656
v 1.17134958 -0.01481307 2.01038656
f 194 196 193
f 197 194 193
f 193 196 195
f 195 197 193
f 194 200 196
f 198 194 197
f 198 200 194
f 196 200 195
f 199 197 195
f 195 200 199
f 199 198 197
f 200 198 199

o geometry_25
v 1.18674516 -0.47182433 1.49916680
v 1.18674516 -0.47182433 1.97416680
v 1.18696170 0.00817562 1.49916680
v 1.18696170 0.00817562 1.97416680
v 1.78238048 -0.47209303 1.49916680
v 1.78238048 -0.47209303 1.97416680
v 1.78259702 0.00790692 1.49916680
v 1.78259702 0.00790692 1.97416680
f 202 204 201
f 205 202 201
f 201 204 203
f 203 205 201
f 202 208 204
f 206 202 205
f 206 208 202
f 204 208 203
f 207 205 203
f 203 208 207
f 207 206 205
f 208 206 207

o geometry_26
v 1.79990547 -0.47265007 1.48770468
v 1.79990547 -0.47265007 1.96270468
v 1.80107264 0.00734852 1.48770468
v 1.80107264 0.00734852 1.96270468
v 1.99041613 -0.47311331 1.48770468
v 1.99041613 -0.47311331 1.96270468
v 1.99158330 0.00688527 1.48770468
v 1.99158330 0.00688527 1.96270468
f 210 212 209
f 213 210 209
f 209 212 211
f 211 213 209
f 210 216 212
f 214 210 213
f 214 216 210
f 212 216 211
f 215 213 211
f 211 216 215
f 215 214 213
f 216 214 215

o geometry_27
v -1.98962333 -0.48377791 2.03515490
v -1.98962333 -0.48377791 2.51015490
v -1.99236643 -0.00378575 2.03515490
v -1.99236643 -0.00378575 2.51015490
v -1.36262987 -0.48019472 2.03515490
v -1.36262987 -0.48019472 2.51015490
v -1.36537296 -0.00020256 2.03515490
v -1.36537296 -0.00020256 2.51015490
f 218 220 217
f 221 218 217
f 217 220 219
f 219 221 217
f 218 224 220
f 222 218 221
f 222 224 218
f 220 224 219
f 223 221 219
f 219 224 223
f 223 222 221
f 224 222 223

o geometry_28
v -1.34917832 -0.47915273 2.02131000
v -1.34917832 -0.47915273 2.49631000
v -1.34275601 0.00080431 2.02131000
v -1.34275601 0.00080431 2.49631000
v -0.69846922 -0.48785987 2.02131000
v -0.69846922 -0.48785987 2.49631000
v -0.69204691 -0.00790284 2.02131000
v -0.69204691 -0.00790284 2.49631000
f 226 228 225
f 229 226 225
f 225 228 227
f 227 229 225
f 226 232 228
f 230 226 229
f 230 232 226
f 228 232 227
f 231 229 227
f 227 232 231
f 231 230 229
f 232 230 231

o geometry_29
v -0.67507004 -0.49157599 2.03122566
v -0.67507004 -0.49157599 2.50622566
v -0.67935936 -0.01159516 2.03122566
v -0.67935936 -0.01159516 2.50622566
v 0.03807560 -0.48520301 2.03122566
v 0.03807560 -0.48520301 2.50622566
v 0.03378628 -0.00522218 2.03122566
v 0.03378628 -0.00522218 2.50622566
f 234 236 233
f 237 234 233
f 233 236 235
f 235 237 233
f 234 240 236
f 238 234 237
f 238 240 234
f 236 240 235
f 239 237 235
f 235 240 239
f 239 238 237
f 240 238 239

o geometry_30
v 0.05491462 -0.47823798 1.99267685
v 0.05491462 -0.47823798 2.46767685
v 0.05298085 0.00175812 1.99267685
v 0.05298085 0.00175812 2.46767685
v 0.68567107 -0.47569685 1.99267685
v 0.68567107 -0.47569685 2.46767685
v 0.68373731 0.00429925 1.99267685
v 0.68373731 0.00429925 2.46767685
f 242 244 241
f 245 242 241
f 241 244 243
f 243 245 241
f 242 248 244
f 246 242 245
f 246 248 242
f 244 248 243
f 247 245 243
f 243 248 247
f 247 246 245
f 248 246 247

o geometry_31
v 0.70029018 -0.46408481 1.99793816
v 0.70029018 -0.46408481 2.47293816
v 0.70515293 0.01589056 1.99793816
v 0.70515293 0.01589056 2.47293816
v 1.27737584 -0.46993141 1.99793816
v 1.27737584 -0.46993141 2.47293816
v 1.28223859 0.01004396 1.99793816
v 1.28223859 0.01004396 2.47293816
f 250 252 249
f 253 250 249
f 249 252 251
f 251 253 249
f 250 256 252
f 254 250 253
f 254 256 250
f 252 256 251
f 255 253 251
f 251 256 255
f 255 254 253
f 256 254 255

o geometry_32
v 1.29532820 -0.46330914 1.98751166
v 1.29532820 -0.46330914 2.46251166
v 1.30034989 0.01666459 1.98751166
v 1.30034989 0.01666459 2.46251166
v 1.91755287 -0.46981913 1.98751166
v 1.91755287 -0.46981913 2.46251166
v 1.92257456 0.01015461 1.98751166
v 1.92257456 0.01015461 2.46251166
f 258 260 257
f 261 258 257
f 257 260 259
f 259 261 257
f 258 264 260
f 262 258 261
f 262 264 258
f 260 264 259
f 263 261 259
f 259 264 263
f 263 262 261
f 264 262 263

o geometry_33
v 1.94077754 -0.47619030 1.98877504
v 1.94077754 -0.47619030 2.46377504
v 1.93538727 0.00377943 1.98877504
v 1.93538727 0.00377943 2.46377504
v 1.99369347 -0.47559603 1.98877504
v 1.99369347 -0.47559603 2.46377504
v 1.98830320 0.00437370 1.98877504
v 1.98830320 0.00437370 2.46377504
f 266 268 265
f 269 266 265
f 265 268 267
f 267 269 265
f 266 272 268
f 270 266 269
f 270 272 266
f 268 272 267
f 271 269 267
f 267 272 271
f 271 270 269
f 272 270 271

o geometry_34
v -1.99209530 -0.46792763 2.50011289
v -1.99209530 -0.46792763 2.97511289
v -1.98989771 0.01206734 2.50011289
v -1.98989771 0.01206734 2.97511289
v -1.32531608 -0.47098037 2.50011289
v -1.32531608 -0.47098037 2.97511289
v -1.32311849 0.00901460 2.50011289
v -1.32311849 0.00901460 2.97511289
f 274 276 273
f 277 274 273
f 273 276 275
f 275 277 273
f 274 280 276
f 278 274 277
f 278 280 274
f 276 280 275
f 279 277 275
f 275 280 279
f 279 278 277
f 280 278 279

o geometry_35
v -1.30262932 -0.47329038 2.52994685
v -1.30262932 -0.47329038 3.00494685
v -1.30972974 0.00665710 2.52994685
v -1.30972974 0.00665710 3.00494685
v -0.67652128 -0.46402764 2.52994685
v -0.67652128 -0.46402764 3.00494685
v -0.68362170 0.01591984 2.52994685
v -0.68362170 0.01591984 3.00494685
f 282 284 281
f 285 282 281
f 281 284 283
f 283 285 281
f 282 288 284
f 286 282 285
f 286 288 282
f 284 288 283
f 287 285 283
f 283 288 287
f 287 286 285
f 288 286 287

o geometry_36
v -0.66487853 -0.47566279 2.49179423
v -0.66487853 -0.47566279 2.96679423
v -0.65915016 0.00430303 2.49179423
v -0.65915016 0.00430303 2.96679423
v -0.02220101 -0.48333311 2.49179423
v -0.02220101 -0.48333311 2.96679423
v -0.01647265 -0.00336729 2.49179423
v -0.01647265 -0.00336729 2.96679423
f 290 292 289
f 293 290 289
f 289 292 291
f 291 293 289
f 290 296 292
f 294 290 293
f 294 296 290
f 292 296 291
f 295 293 291
f 291 296 295
f 295 294 293
f 296 294 295

o geometry_37
v -0.00373548 -0.46976816 2.52894277
v -0.00373548 -0.46976816 3.00394277
v 0.00113972 0.01020708 2.52894277
v 0.00113972 0.01020708 3.00394277
v 0.61891072 -0.47609250 2.52894277
v 0.61891072 -0.47609250 3.00394277
v 0.62378592 0.00388275 2.52894277
v 0.62378592 0.00388275 3.00394277
f 298 300 297
f 301 298 297
f 297 300 299
f 299 301 297
f 298 304 300
f 302 298 301
f 302 304 298
f 300 304 299
f 303 301 299
f 299 304 303
f 303 302 301
f 304 302 303

o geometry_38
v 0.63683600 -0.49049060 2.51391287
v 0.63683600 -0.49049060 2.98891287
v 0.64192483 -0.01051757 2.51391287
v 0.64192483 -0.01051757 2.98891287
v 1.20755698 -0.49654156 2.51391287
v 1.20755698 -0.49654156 2.98891287
v 1.21264581 -0.01656854 2.51391287
v 1.21264581 -0.01656854 2.98891287
f 306 308 305
f 309 306 305
f 305 308 307
f 307 309 305
f 306 312 308
f 310 306 309
f 310 312 306
f 308 312 307
f 311 309 307
f 307 312 311
f 311 310 309
f 312 310 311

o geometry_39
v 1.23159628 -0.47048957 2.51390547
v 1.23159628 -0.47048957 2.98890547
v 1.22470610 0.00946098 2.51390547
v 1.22470610 0.00946098 2.98890547
v 1.88679429 -0.46108353 2.51390547
v 1.88679429 -0.46108353 2.98890547
v 1.87990411 0.01886702 2.51390547
v 1.87990411 0.01886702 2.98890547
f 314 316 313
f 317 314 313
f 313 316 315
f 315 317 313
f 314 320 316
f 318 314 317
f 318 320 314
f 316 320 315
f 319 317 315
f 315 320 319
f 319 318 317
f 320 318 319

o geometry_40
v 1.90042355 -0.48570480 2.50055576
v 1.90042355 -0.48570480 2.97555576
v 1.90234307 -0.00570863 2.50055576
v 1.90234307 -0.00570863 2.97555576
v 1.99003988 -0.48606317 2.50055576
v 1.99003988 -0.48606317 2.97555576
v 1.99195940 -0.00606701 2.50055576
v 1.99195940 -0.00606701 2.97555576
f 322 324 321
f 325 322 321
f 321 324 323
f 323 325 321
f 322 328 324
f 326 322 325
f 326 328 322
f 324 328 323
f 327 325 323
f 323 328 327
f 327 326 325
f 328 326 327

o geometry_41
v -1.98898256 -0.49012422 3.01412962
v -1.98898256 -0.49012422 3.48912962
v -1.99300091 -0.01014104 3.01412962
v -1.99300091 -0.01014104 3.48912962
v -1.51728363 -0.48617523 3.01412962
v -1.51728363 -0.48617523 3.48912962
v -1.52130197 -0.00619205 3.01412962
v -1.52130197 -0.00619205 3.48912962
f 330 332 329
f 333 330 329
f 329 332 331
f 331 333 329
f 330 336 332
f 334 330 333
f 334 336 330
f 332 336 331
f 335 333 331
f 331 336 335
f 335 334 333
f 336 334 335

o geometry_42
v -1.49776711 -0.47525071 3.02807556
v -1.49776711 -0.47525071 3.50307556
v -1.50474980 0.00469850 3.02807556
v -1.50474980 0.00469850 3.50307556
v -1.00496282 -0.46808100 3.02807556
v -1.00496282 -0.46808100 3.50307556
v -1.01194551 0.01186821 3.02807556
v -1.01194551 0.01186821 3.50307556
f 338 340 337
f 341 338 337
f 337 340 339
f 339 341 337
f 338 344 340
f 342 338 341
f 342 344 338
f 340 344 339
f 343 341 339
f 339 344 343
f 343 342 341
f 344 342 343

o geometry_43
v -0.98869375 -0.49119409 3.02841665
v -0.98869375 -0.49119409 3.50341665
v -0.99214790 -0.01120652 3.02841665
v -0.99214790 -0.01120652 3.50341665
v -0.42786653 -0.48715820 3.02841665
v -0.42786653 -0.48715820 3.50341665
v -0.43132067 -0.00717063 3.02841665
v -0.43132067 -0.00717063 3.50341665
f 346 348 345
f 349 346 345
f 345 348 347
f 347 349 345
f 346 352 348
f 350 346 349
f 350 352 346
f 348 352 347
f 351 349 347
f 347 352 351
f 351 350 349
f 352 350 351

o geometry_44
v -0.41495364 -0.47711767 3.00527813
v -0.41495364 -0.47711767 3.48027813
v -0.40817118 0.00283441 3.00527813
v -0.40817118 0.00283441 3.48027813
v 0.06447463 -0.48389273 3.00527813
v 0.06447463 -0.48389273 3.48027813
v 0.07125709 -0.00394065 3.00527813
v 0.07125709 -0.00394065 3.48027813
f 354 356 353
f 357 354 353
f 353 356 355
f 355 357 353
f 354 360 356
f 358 354 357
f 358 360 354
f 356 360 355
f 359 357 355
f 355 360 359
f 359 358 357
f 360 358 359

o geometry_45
v 0.08727972 -0.47468856 3.00045872
v 0.08727972 -0.47468856 3.47545872
v 0.08450742 0.00530344 3.00045872
v 0.08450742 0.00530344 3.47545872
v 0.54090398 -0.47206855 3.00045872
v 0.54090398 -0.47206855 3.47545872
v 0.53813168 0.00792344 3.00045872
v 0.53813168 0.00792344 3.47545872
f 362 364 361
f 365 362 361
f 361 364 363
f 363 365 361
f 362 368 364
f 366 362 365
f 366 368 362
f 364 368 363
f 367 365 363
f 363 368 367
f 367 366 365
f 368 366 367

o geometry_46
v 0.56106614 -0.48259550 3.03435106
v 0.56106614 -0.48259550 3.50935106
v 0.55403864 -0.00264695 3.03435106
v 0.55403864 -0.00264695 3.50935106
v 1.13535154 -0.47418671 3.03435106
v 1.13535154 -0.47418671 3.50935106
v 1.12832404 0.00576184 3.03435106
v 1.12832404 0.00576184 3.50935106
f 370 372 369
f 373 370 369
f 369 372 371
f 371 373 369
f 370 376 372
f 374 370 373
f 374 376 370
f 372 376 371
f 375 373 371
f 371 376 375
f 375 374 373
f 376 374 375

o geometry_47
v 1.14791152 -0.47357857 2.99852312
v 1.14791152 -0.47357857 3.47352312
v 1.15184490 0.00640531 2.99852312
v 1.15184490 0.00640531 3.47352312
v 1.72204233 -0.47828346 2.99852312
v 1.72204233 -0.47828346 3.47352312
v 1.72597570 0.00170042 2.99852312
v 1.72597570 0.00170042 3.47352312
f 378 380 377
f 381 378 377
f 377 380 379
f 379 381 377
f 378 384 380
f 382 378 381
f 382 384 378
f 380 384 379
f 383 381 379
f 379 384 383
f 383 382 381
f 384 382 383

o geometry_48
v 1.74490978 -0.47260890 3.01870332
v 1.74490978 -0.47260890 3.49370332
v 1.73914548 0.00735649 3.01870332
v 1.73914548 0.00735649 3.49370332
v 1.99387317 -0.46961889 3.01870332
v 1.99387317 -0.46961889 3.49370332
v 1.98810887 0.01034650 3.01870332
v 1.98810887 0.01034650 3.49370332
f 386 388 385
f 389 386 385
f 385 388 387
f 387 389 385
f 386 392 388
f 390 386 389
f 390 392 386
f 388 392 387
f 391 389 387
f 387 392 391
f 391 390 389
f 392 390 391

o geometry_49
v 0.27643485 -0.68954963 0.08938537
v 0.27643485 -0.68954963 0.27314152
v 0.36773544 -0.42485320 0.08938537
v 0.36773544 -0.42485320 0.27314152
v 0.52459607 -0.77514680 0.08938537
v 0.52459607 -0.77514680 0.27314152
v 0.61589666 -0.51045037 0.08938537
v 0.61589666 -0.51045037 0.27314152
f 394 396 393
f 397 394 393
f 393 396 395
f 395 397 393
f 394 400 396
f 398 394 397
f 398 400 394
f 396 400 395
f 399 397 395
f 395 400 399
f 399 398 397
f 400 398 399

o geometry_50
v 0.49323145 -0.61669332 0.83919550
v 0.49323145 -0.61669332 1.15255321
v 0.62640621 -0.37039170 0.83919550
v 0.62640621 -0.37039170 1.15255321
v 0.88700956 -0.82960830 0.83919550
v 0.88700956 -0.82960830 1.15255321
v 1.02018432 -0.58330668 0.83919550
v 1.02018432 -0.58330668 1.15255321
f 402 404 401
f 405 402 401
f 401 404 403
f 403 405 401
f 402 408 404
f 406 402 405
f 406 408 402
f 404 408 403
f 407 405 403
f 403 408 407
f 407 406 405
f 408 406 407

o geometry_51
v -0.37174366 -0.74078623 0.10128954
v -0.37174366 -0.74078623 0.27320351
v -0.37354302 -0.46079201 0.10128954
v -0.37354302 -0.46079201 0.27320351
v -0.12615733 -0.73920799 0.10128954
v -0.12615733 -0.73920799 0.27320351
v -0.12795670 -0.45921377 0.10128954
v -0.12795670 -0.45921377 0.27320351
f 410 412 409
f 413 410 409
f 409 412 411
f 411 413 409
f 410 416 412
f 414 410 413
f 414 416 410
f 412 416 411
f 415 413 411
f 411 416 415
f 415 414 413
f 416 414 415

o geometry_52
v -1.69474848 -0.74990246 0.26730920
v -1.69474848 -0.74990246 0.52978493
v -1.70984150 -0.47030954 0.26730920
v -1.70984150 -0.47030954 0.52978493
v -1.32032830 -0.72969046 0.26730920
v -1.32032830 -0.72969046 0.52978493
v -1.33542131 -0.45009754 0.26730920
v -1.33542131 -0.45009754 0.52978493
f 418 420 417
f 421 418 417
f 417 420 419
f 419 421 417
f 418 424 420
f 422 418 421
f 422 424 418
f 420 424 419
f 423 421 419
f 419 424 423
f 423 422 421
f 424 422 423

o geometry_53
v -1.14815006 -0.59815066 0.73859191
v -1.14815006 -0.59815066 1.03457230
v -0.99185715 -0.36583078 0.73859191
v -0.99185715 -0.36583078 1.03457230
v -0.79732287 -0.83416922 0.73859191
v -0.79732287 -0.83416922 1.03457230
v -0.64102996 -0.60184934 0.73859191
v -0.64102996 -0.60184934 1.03457230
f 426 428 425
f 429 426 425
f 425 428 427
f 427 429 425
f 426 432 428
f 430 426 429
f 430 432 426
f 428 432 427
f 431 429 427
f 427 432 431
f 431 430 429
f 432 430 431

o geometry_54
v 0.79322171 -0.67154352 0.92394794
v 0.79322171 -0.67154352 1.12140055
v 0.90571108 -0.41513342 0.92394794
v 0.90571108 -0.41513342 1.12140055
v 1.05153213 -0.78486658 0.92394794
v 1.05153213 -0.78486658 1.12140055
v 1.16402151 -0.52845648 0.92394794
v 1.16402151 -0.52845648 1.12140055
f 434 436 433
f 437 434 433
f 433 436 435
f 435 437 433
f 434 440 436
f 438 434 437
f 438 440 434
f 436 440 435
f 439 437 435
f 435 440 439
f 439 438 437
f 440 438 439

o geometry_55
v 1.30596442 -0.67557644 0.49800487
v 1.30596442 -0.67557644 0.64348149
v 1.43624021 -0.42772927 0.49800487
v 1.43624021 -0.42772927 0.64348149
v 1.48992346 -0.77227073 0.49800487
v 1.48992346 -0.77227073 0.64348149
v 1.62019924 -0.52442356 0.49800487
v 1.62019924 -0.52442356 0.64348149
f 442 444 441
f 445 442 441
f 441 444 443
f 443 445 441
f 442 448 444
f 446 442 445
f 446 448 442
f 444 448 443
f 447 445 443
f 443 448 447
f 447 446 445
f 448 446 447

o geometry_56
v 0.94699047 -0.79216667 0.75690907
v 0.94699047 -0.79216667 1.05240601
v 0.87077460 -0.52273923 0.75690907
v 0.87077460 -0.52273923 1.05240601
v 1.35318935 -0.67726077 0.75690907
v 1.35318935 -0.67726077 1.05240601
v 1.27697348 -0.40783333 0.75690907
v 1.27697348 -0.40783333 1.05240601
f 450 452 449
f 453 450 449
f 449 452 451
f 451 453 449
f 450 456 452
f 454 450 453
f 454 456 450
f 452 456 451
f 455 453 451
f 451 456 455
f 455 454 453
f 456 454 455

o geometry_57
v -0.02182700 -0.74888738 1.26364860
v -0.02182700 -0.74888738 1.46914081
v -0.03930129 -0.46943318 1.26364860
v -0.03930129 -0.46943318 1.46914081
v 0.27116108 -0.73056682 1.26364860
v 0.27116108 -0.73056682 1.46914081
v 0.25368679 -0.45111262 1.26364860
v 0.25368679 -0.45111262 1.46914081
f 458 460 457
f 461 458 457
f 457 460 459
f 459 461 457
f 458 464 460
f 462 458 461
f 462 464 458
f 460 464 459
f 463 461 459
f 459 464 463
f 463 462 461
f 464 462 463

o geometry_58
v 0.84875928 -0.75972001 0.76967047
v 0.84875928 -0.75972001 1.07662891
v 0.82280626 -0.48092539 0.76967047
v 0.82280626 -0.48092539 1.07662891
v 1.28538359 -0.71907461 0.76967047
v 1.28538359 -0.71907461 1.07662891
v 1.25943057 -0.44027999 0.76967047
v 1.25943057 -0.44027999 1.07662891
f 466 468 465
f 469 466 465
f 465 468 467
f 467 469 465
f 466 472 468
f 470 466 469
f 470 472 466
f 468 472 467
f 471 469 467
f 467 472 471
f 471 470 469
f 472 470 471

o geometry_59
v -1.70000000 -0.32000000 0.10000000
v -1.47000000 -0.32000000 0.10000000
v -1.47000000 -0.32000000 3.35000000
v -1.70000000 -0.32000000 3.35000000
v -1.47783706 -0.26047162 0.10000000
v -1.47783706 -0.26047162 3.35000000
v -1.50081416 -0.20500000 0.10000000
v -1.50081416 -0.20500000 3.35000000
v -1.53736544 -0.15736544 0.10000000
v -1.53736544 -0.15736544 3.35000000
v -1.58500000 -0.12081416 0.10000000
v -1.58500000 -0.12081416 3.35000000
v -1.64047162 -0.09783706 0.10000000
v -1.64047162 -0.09783706 3.35000000
v -1.70000000 -0.09000000 0.10000000
v -1.70000000 -0.09000000 3.35000000
v -1.75952838 -0.09783706 0.10000000
v -1.75952838 -0.09783706 3.35000000
v -1.81500000 -0.12081416 0.10000000
v -1.81500000 -0.12081416 3.35000000
v -1.86263456 -0.15736544 0.10000000
v -1.86263456 -0.15736544 3.35000000
v -1.89918584 -0.20500000 0.10000000
v -1.89918584 -0.20500000 3.35000000
v -1.92216294 -0.26047162 0.10000000
v -1.92216294 -0.26047162 3.35000000
v -1.93000000 -0.32000000 0.10000000
v -1.93000000 -0.32000000 3.35000000
v -1.92216294 -0.37952838 0.10000000
v -1.92216294 -0.37952838 3.35000000
v -1.89918584 -0.43500000 0.10000000
v -1.89918584 -0.43500000 3.35000000
v -1.86263456 -0.48263456 0.10000000
v -1.86263456 -0.48263456 3.35000000
v -1.81500000 -0.51918584 0.10000000
v -1.81500000 -0.51918584 3.35000000
v -1.75952838 -0.54216294 0.10000000
v -1.75952838 -0.54216294 3.35000000
v -1.70000000 -0.55000000 0.10000000
v -1.70000000 -0.55000000 3.35000000
v -1.64047162 -0.54216294 0.10000000
v -1.64047162 -0.54216294 3.35000000
v -1.58500000 -0.51918584 0.10000000
v -1.58500000 -0.51918584 3.35000000
v -1.53736544 -0.48263456 0.10000000
v -1.53736544 -0.48263456 3.35000000
v -1.50081416 -0.43500000 0.10000000
v -1.50081416 -0.43500000 3.35000000
v -1.47783706 -0.37952838 0.10000000
v -1.47783706 -0.37952838 3.35000000
f 474 473 477
f 474 477 475
f 475 477 478
f 475 478 476
f 477 473 479
f 477 479 478
f 478 479 480
f 478 480 476
f 479 473 481
f 479 481 480
f 480 481 482
f 480 482 476
f 481 473 483
f 481 483 482
f 482 483 484
f 482 484 476
f 483 473 485
f 483 485 484
f 484 485 486
f 484 486 476
f 485 473 487
f 485 487 486
f 486 487 488
f 486 488 476
f 487 473 489
f 487 489 488
f 488 489 490
f 488 490 476
f 489 473 491
f 489 491 490
f 490 491 492
f 490 492 476
f 491 473 493
f 491 493 492
f 492 493 494
f 492 494 476
f 493 473 495
f 493 495 494
f 494 495 496
f 494 496 476
f 495 473 497
f 495 497 496
f 496 497 498
f 496 498 476
f 497 473 499
f 497 499 498
f 498 499 500
f 498 500 476
f 499 473 501
f 499 501 500
f 500 501 502
f 500 502 476
f 501 473 503
f 501 503 502
f 502 503 504
f 502 504 476
f 503 473 505
f 503 505 504
f 504 505 506
f 504 506 476
f 505 473 507
f 505 507 506
f 506 507 508
f 506 508 476
f 507 473 509
f 507 509 508
f 508 509 510
f 508 510 476
f 509 473 511
f 509 511 510
f 510 511 512
f 510 512 476
f 511 473 513
f 511 513 512
f 512 513 514
f 512 514 476
f 513 473 515
f 513 515 514
f 514 515 516
f 514 516 476
f 515 473 517
f 515 517 516
f 516 517 518
f 516 518 476
f 517 473 519
f 517 519 518
f 518 519 520
f 518 520 476
f 519 473 521
f 519 521 520
f 520 521 522
f 520 522 476
f 521 473 474
f 521 474 522
f 522 474 475
f 522 475 476

o geometry_60
v -1.70000000 -0.32000000 0.10000000
v -1.40560000 -0.32000000 0.10000000
v -1.40560000 -0.32000000 0.26000000
v -1.70000000 -0.32000000 0.26000000
v -1.41563144 -0.24380367 0.10000000
v -1.41563144 -0.24380367 0.26000000
v -1.44504212 -0.17280000 0.10000000
v -1.44504212 -0.17280000 0.26000000
v -1.49182776 -0.11182776 0.10000000
v -1.49182776 -0.11182776 0.26000000
v -1.55280000 -0.06504212 0.10000000
v -1.55280000 -0.06504212 0.26000000
v -1.62380367 -0.03563144 0.10000000
v -1.62380367 -0.03563144 0.26000000
v -1.70000000 -0.02560000 0.10000000
v -1.70000000 -0.02560000 0.26000000
v -1.77619633 -0.03563144 0.10000000
v -1.77619633 -0.03563144 0.26000000
v -1.84720000 -0.06504212 0.10000000
v -1.84720000 -0.06504212 0.26000000
v -1.90817224 -0.11182776 0.10000000
v -1.90817224 -0.11182776 0.26000000
v -1.95495788 -0.17280000 0.10000000
v -1.95495788 -0.17280000 0.26000000
v -1.98436856 -0.24380367 0.10000000
v -1.98436856 -0.24380367 0.26000000
v -1.99440000 -0.32000000 0.10000000
v -1.99440000 -0.32000000 0.26000000
v -1.98436856 -0.39619633 0.10000000
v -1.98436856 -0.39619633 0.26000000
v -1.95495788 -0.46720000 0.10000000
v -1.95495788 -0.46720000 0.26000000
v -1.90817224 -0.52817224 0.10000000
v -1.90817224 -0.52817224 0.26000000
v -1.84720000 -0.57495788 0.10000000
v -1.84720000 -0.57495788 0.26000000
v -1.77619633 -0.60436856 0.10000000
v -1.77619633 -0.60436856 0.26000000
v -1.70000000 -0.61440000 0.10000000
v -1.70000000 -0.61440000 0.26000000
v -1.62380367 -0.60436856 0.10000000
v -1.62380367 -0.60436856 0.26000000
v -1.55280000 -0.57495788 0.10000000
v -1.55280000 -0.57495788 0.26000000
v -1.49182776 -0.52817224 0.10000000
v -1.49182776 -0.52817224 0.26000000
v -1.44504212 -0.46720000 0.10000000
v -1.44504212 -0.46720000 0.26000000
v -1.41563144 -0.39619633 0.10000000
v -1.41563144 -0.39619633 0.26000000
f 524 523 527
f 524 527 525
f 525 527 528
f 525 528 526
f 527 523 529
f 527 529 528
f 528 529 530
f 528 530 526
f 529 523 531
f 529 531 530
f 530 531 532
f 530 532 526
f 531 523 533
f 531 533 532
f 532 533 534
f 532 534 526
f 533 523 535
f 533 535 534
f 534 535 536
f 534 536 526
f 535 523 537
f 535 537 536
f 536 537 538
f 536 538 526
f 537 523 539
f 537 539 538
f 538 539 540
f 538 540 526
f 539 523 541
f 539 541 540
f 540 541 542
f 540 542 526
f 541 523 543
f 541 543 542
f 542 543 544
f 542 544 526
f 543 523 545
f 543 545 544
f 544 545 546
f 544 546 526
f 545 523 547
f 545 547 546
f 546 547 548
f 546 548 526
f 547 523 549
f 547 549 548
f 548 549 550
f 548 550 526
f 549 523 551
f 549 551 550
f 550 551 552
f 550 552 526
f 551 523 553
f 551 553 552
f 552 553 554
f 552 554 526
f 553 523 555
f 553 555 554
f 554 555 556
f 554 556 526
f 555 523 557
f 555 557 556
f 556 557 558
f 556 558 526
f 557 523 559
f 557 559 558
f 558 559 560
f 558 560 526
f 559 523 561
f 559 561 560
f 560 561 562
f 560 562 526
f 561 523 563
f 561 563 562
f 562 563 564
f 562 564 526
f 563 523 565
f 563 565 564
f 564 565 566
f 564 566 526
f 565 523 567
f 565 567 566
f 566 567 568
f 566 568 526
f 567 523 569
f 567 569 568
f 568 569 570
f 568 570 526
f 569 523 571
f 569 571 570
f 570 571 572
f 570 572 526
f 571 523 524
f 571 524 572
f 572 524 525
f 572 525 526

o geometry_61
v -1.70000000 -0.32000000 3.18000000
v -1.41940000 -0.32000000 3.18000000
v -1.41940000 -0.32000000 3.36000000
v -1.70000000 -0.32000000 3.36000000
v -1.42896121 -0.24737538 3.18000000
v -1.42896121 -0.24737538 3.36000000
v -1.45699327 -0.17970000 3.18000000
v -1.45699327 -0.17970000 3.36000000
v -1.50158584 -0.12158584 3.18000000
v -1.50158584 -0.12158584 3.36000000
v -1.55970000 -0.07699327 3.18000000
v -1.55970000 -0.07699327 3.36000000
v -1.62737538 -0.04896121 3.18000000
v -1.62737538 -0.04896121 3.36000000
v -1.70000000 -0.03940000 3.18000000
v -1.70000000 -0.03940000 3.36000000
v -1.77262462 -0.04896121 3.18000000
v -1.77262462 -0.04896121 3.36000000
v -1.84030000 -0.07699327 3.18000000
v -1.84030000 -0.07699327 3.36000000
v -1.89841416 -0.12158584 3.18000000
v -1.89841416 -0.12158584 3.36000000
v -1.94300673 -0.17970000 3.18000000
v -1.94300673 -0.17970000 3.36000000
v -1.97103879 -0.24737538 3.18000000
v -1.97103879 -0.24737538 3.36000000
v -1.98060000 -0.32000000 3.18000000
v -1.98060000 -0.32000000 3.36000000
v -1.97103879 -0.39262462 3.18000000
v -1.97103879 -0.39262462 3.36000000
v -1.94300673 -0.46030000 3.18000000
v -1.94300673 -0.46030000 3.36000000
v -1.89841416 -0.51841416 3.18000000
v -1.89841416 -0.51841416 3.36000000
v -1.84030000 -0.56300673 3.18000000
v -1.84030000 -0.56300673 3.36000000
v -1.77262462 -0.59103879 3.18000000
v -1.77262462 -0.59103879 3.36000000
v -1.70000000 -0.60060000 3.18000000
v -1.70000000 -0.60060000 3.36000000
v -1.62737538 -0.59103879 3.18000000
v -1.62737538 -0.59103879 3.36000000
v -1.55970000 -0.56300673 3.18000000
v -1.55970000 -0.56300673 3.36000000
v -1.50158584 -0.51841416 3.18000000
v -1.50158584 -0.51841416 3.36000000
v -1.45699327 -0.46030000 3.18000000
v -1.45699327 -0.46030000 3.36000000
v -1.42896121 -0.39262462 3.18000000
v -1.42896121 -0.39262462 3.36000000
f 574 573 577
f 574 577 575
f 575 577 578
f 575 578 576
f 577 573 579
f 577 579 578
f 578 579 580
f 578 580 576
f 579 573 581
f 579 581 580
f 580 581 582
f 580 582 576
f 581 573 583
f 581 583 582
f 582 583 584
f 582 584 576
f 583 573 585
f 583 585 584
f 584 585 586
f 584 586 576
f 585 573 587
f 585 587 586
f 586 587 588
f 586 588 576
f 587 573 589
f 587 589 588
f 588 589 590
f 588 590 576
f 589 573 591
f 589 591 590
f 590 591 592
f 590 592 576
f 591 573 593
f 591 593 592
f 592 593 594
f 592 594 576
f 593 573 595
f 593 595 594
f 594 595 596
f 594 596 576
f 595 573 597
f 595 597 596
f 596 597 598
f 596 598 576
f 597 573 599
f 597 599 598
f 598 599 600
f 598 600 576
f 599 573 601
f 599 601 600
f 600 601 602
f 600 602 576
f 601 573 603
f 601 603 602
f 602 603 604
f 602 604 576
f 603 573 605
f 603 605 604
f 604 605 606
f 604 606 576
f 605 573 607
f 605 607 606
f 606 607 608
f 606 608 576
f 607 573 609
f 607 609 608
f 608 609 610
f 608 610 576
f 609 573 611
f 609 611 610
f 610 611 612
f 610 612 576
f 611 573 613
f 611 613 612
f 612 613 614
f 612 614 576
f 613 573 615
f 613 615 614
f 614 615 616
f 614 616 576
f 615 573 617
f 615 617 616
f 616 617 618
f 616 618 576
f 617 573 619
f 617 619 618
f 618 619 620
f 618 620 576
f 619 573 621
f 619 621 620
f 620 621 622
f 620 622 576
f 621 573 574
f 621 574 622
f 622 574 575
f 622 575 576

o geometry_62
v -1.98750000 -0.67000000 3.11000000
v -1.98750000 -0.67000000 3.27000000
v -1.98750000 0.03000000 3.11000000
v -1.98750000 0.03000000 3.27000000
v -1.41250000 -0.67000000 3.11000000
v -1.41250000 -0.67000000 3.27000000
v -1.41250000 0.03000000 3.11000000
v -1.41250000 0.03000000 3.27000000
f 624 626 623
f 627 624 623
f 623 626 625
f 625 627 623
f 624 630 626
f 628 624 627
f 628 630 624
f 626 630 625
f 629 627 625
f 625 630 629
f 629 628 627
f 630 628 629

o geometry_63
v 1.70000000 -0.32000000 0.10000000
v 1.93000000 -0.32000000 0.10000000
v 1.93000000 -0.32000000 3.35000000
v 1.70000000 -0.32000000 3.35000000
v 1.92216294 -0.26047162 0.10000000
v 1.92216294 -0.26047162 3.35000000
v 1.89918584 -0.20500000 0.10000000
v 1.89918584 -0.20500000 3.35000000
v 1.86263456 -0.15736544 0.10000000
v 1.86263456 -0.15736544 3.35000000
v 1.81500000 -0.12081416 0.10000000
v 1.81500000 -0.12081416 3.35000000
v 1.75952838 -0.09783706 0.10000000
v 1.75952838 -0.09783706 3.35000000
v 1.70000000 -0.09000000 0.10000000
v 1.70000000 -0.09000000 3.35000000
v 1.64047162 -0.09783706 0.10000000
v 1.64047162 -0.09783706 3.35000000
v 1.58500000 -0.12081416 0.10000000
v 1.58500000 -0.12081416 3.35000000
v 1.53736544 -0.15736544 0.10000000
v 1.53736544 -0.15736544 3.35000000
v 1.50081416 -0.20500000 0.10000000
v 1.50081416 -0.20500000 3.35000000
v 1.47783706 -0.26047162 0.10000000
v 1.47783706 -0.26047162 3.35000000
v 1.47000000 -0.32000000 0.10000000
v 1.47000000 -0.32000000 3.35000000
v 1.47783706 -0.37952838 0.10000000
v 1.47783706 -0.37952838 3.35000000
v 1.50081416 -0.43500000 0.10000000
v 1.50081416 -0.43500000 3.35000000
v 1.53736544 -0.48263456 0.10000000
v 1.53736544 -0.48263456 3.35000000
v 1.58500000 -0.51918584 0.10000000
v 1.58500000 -0.51918584 3.35000000
v 1.64047162 -0.54216294 0.10000000
v 1.64047162 -0.54216294 3.35000000
v 1.70000000 -0.55000000 0.10000000
v 1.70000000 -0.55000000 3.35000000
v 1.75952838 -0.54216294 0.10000000
v 1.75952838 -0.54216294 3.35000000
v 1.81500000 -0.51918584 0.10000000
v 1.81500000 -0.51918584 3.35000000
v 1.86263456 -0.48263456 0.10000000
v 1.86263456 -0.48263456 3.35000000
v 1.89918584 -0.43500000 0.10000000
v 1.89918584 -0.43500000 3.35000000
v 1.92216294 -0.37952838 0.10000000
v 1.92216294 -0.37952838 3.35000000
f 632 631 635
f 632 635 633
f 633 635 636
f 633 636 634
f 635 631 637
f 635 637 636
f 636 637 638
f 636 638 634
f 637 631 639
f 637 639 638
f 638 639 640
f 638 640 634
f 639 631 641
f 639 641 640
f 640 641 642
f 640 642 634
f 641 631 643
f 641 643 642
f 642 643 644
f 642 644 634
f 643 631 645
f 643 645 644
f 644 645 646
f 644 646 634
f 645 631 647
f 645 647 646
f 646 647 648
f 646 648 634
f 647 631 649
f 647 649 648
f 648 649 650
f 648 650 634
f 649 631 651
f 649 651 650
f 650 651 652
f 650 652 634
f 651 631 653
f 651 653 652
f 652 653 654
f 652 654 634
f 653 631 655
f 653 655 654
f 654 655 656
f 654 656 634
f 655 631 657
f 655 657 656
f 656 657 658
f 656 658 634
f 657 631 659
f 657 659 658
f 658 659 660
f 658 660 634
f 659 631 661
f 659 661 660
f 660 661 662
f 660 662 634
f 661 631 663
f 661 663 662
f 662 663 664
f 662 664 634
f 663 631 665
f 663 665 664
f 664 665 666
f 664 666 634
f 665 631 667
f 665 667 666
f 666 667 668
f 666 668 634
f 667 631 669
f 667 669 668
f 668 669 670
f 668 670 634
f 669 631 671
f 669 671 670
f 670 671 672
f 670 672 634
f 671 631 673
f 671 673 672
f 672 673 674
f 672 674 634
f 673 631 675
f 673 675 674
f 674 675 676
f 674 676 634
f 675 631 677
f 675 677 676
f 676 677 678
f 676 678 634
f 677 631 679
f 677 679 678
f 678 679 680
f 678 680 634
f 679 631 632
f 679 632 680
f 680 632 633
f 680 633 634

o geometry_64
v 1.70000000 -0.32000000 0.10000000
v 1.99440000 -0.32000000 0.10000000
v 1.99440000 -0.32000000 0.26000000
v 1.70000000 -0.32000000 0.26000000
v 1.98436856 -0.24380367 0.10000000
v 1.98436856 -0.24380367 0.26000000
v 1.95495788 -0.17280000 0.10000000
v 1.95495788 -0.17280000 0.26000000
v 1.90817224 -0.11182776 0.10000000
v 1.90817224 -0.11182776 0.26000000
v 1.84720000 -0.06504212 0.10000000
v 1.84720000 -0.06504212 0.26000000
v 1.77619633 -0.03563144 0.10000000
v 1.77619633 -0.03563144 0.26000000
v 1.70000000 -0.02560000 0.10000000
v 1.70000000 -0.02560000 0.26000000
v 1.62380367 -0.03563144 0.10000000
v 1.62380367 -0.03563144 0.26000000
v 1.55280000 -0.06504212 0.10000000
v 1.55280000 -0.06504212 0.26000000
v 1.49182776 -0.11182776 0.10000000
v 1.49182776 -0.11182776 0.26000000
v 1.44504212 -0.17280000 0.10000000
v 1.44504212 -0.17280000 0.26000000
v 1.41563144 -0.24380367 0.10000000
v 1.41563144 -0.24380367 0.26000000
v 1.40560000 -0.32000000 0.10000000
v 1.40560000 -0.32000000 0.26000000
v 1.41563144 -0.39619633 0.10000000
v 1.41563144 -0.39619633 0.26000000
v 1.44504212 -0.46720000 0.10000000
v 1.44504212 -0.46720000 0.26000000
v 1.49182776 -0.52817224 0.10000000
v 1.49182776 -0.52817224 0.26000000
v 1.55280000 -0.57495788 0.10000000
v 1.55280000 -0.57495788 0.26000000
v 1.62380367 -0.60436856 0.10000000
v 1.62380367 -0.60436856 0.26000000
v 1.70000000 -0.61440000 0.10000000
v 1.70000000 -0.61440000 0.26000000
v 1.77619633 -0.60436856 0.10000000
v 1.77619633 -0.60436856 0.26000000
v 1.84720000 -0.57495788 0.10000000
v 1.84720000 -0.57495788 0.26000000
v 1.90817224 -0.52817224 0.10000000
v 1.90817224 -0.52817224 0.26000000
v 1.95495788 -0.46720000 0.10000000
v 1.95495788 -0.46720000 0.26000000
v 1.98436856 -0.39619633 0.10000000
v 1.98436856 -0.39619633 0.26000000
f 682 681 685
f 682 685 683
f 683 685 686
f 683 686 684
f 685 681 687
f 685 687 686
f 686 687 688
f 686 688 684
f 687 681 689
f 687 689 688
f 688 689 690
f 688 690 684
f 689 681 691
f 689 691 690
f 690 691 692
f 690 692 684
f 691 681 693
f 691 693 692
f 692 693 694
f 692 694 684
f 693 681 695
f 693 695 694
f 694 695 696
f 694 696 684
f 695 681 697
f 695 697 696
f 696 697 698
f 696 698 684
f 697 681 699
f 697 699 698
f 698 699 700
f 698 700 684
f 699 681 701
f 699 701 700
f 700 701 702
f 700 702 684
f 701 681 703
f 701 703 702
f 702 703 704
f 702 704 684
f 703 681 705
f 703 705 704
f 704 705 706
f 704 706 684
f 705 681 707
f 705 707 706
f 706 707 708
f 706 708 684
f 707 681 709
f 707 709 708
f 708 709 710
f 708 710 684
f 709 681 711
f 709 711 710
f 710 711 712
f 710 712 684
f 711 681 713
f 711 713 712
f 712 713 714
f 712 714 684
f 713 681 715
f 713 715 714
f 714 715 716
f 714 716 684
f 715 681 717
f 715 717 716
f 716 717 718
f 716 718 684
f 717 681 719
f 717 719 718
f 718 719 720
f 718 720 684
f 719 681 721
f 719 721 720
f 720 721 722
f 720 722 684
f 721 681 723
f 721 723 722
f 722 723 724
f 722 724 684
f 723 681 725
f 723 725 724
f 724 725 726
f 724 726 684
f 725 681 727
f 725 727 726
f 726 727 728
f 726 728 684
f 727 681 729
f 727 729 728
f 728 729 730
f 728 730 684
f 729 681 682
f 729 682 730
f 730 682 683
f 730 683 684

o geometry_65
v 1.70000000 -0.32000000 3.18000000
v 1.98060000 -0.32000000 3.18000000
v 1.98060000 -0.32000000 3.36000000
v 1.70000000 -0.32000000 3.36000000
v 1.97103879 -0.24737538 3.18000000
v 1.97103879 -0.24737538 3.36000000
v 1.94300673 -0.17970000 3.18000000
v 1.94300673 -0.17970000 3.36000000
v 1.89841416 -0.12158584 3.18000000
v 1.89841416 -0.12158584 3.36000000
v 1.84030000 -0.07699327 3.18000000
v 1.84030000 -0.07699327 3.36000000
v 1.77262462 -0.04896121 3.18000000
v 1.77262462 -0.04896121 3.36000000
v 1.70000000 -0.03940000 3.18000000
v 1.70000000 -0.03940000 3.36000000
v 1.62737538 -0.04896121 3.18000000
v 1.62737538 -0.04896121 3.36000000
v 1.55970000 -0.07699327 3.18000000
v 1.55970000 -0.07699327 3.36000000
v 1.50158584 -0.12158584 3.18000000
v 1.50158584 -0.12158584 3.36000000
v 1.45699327 -0.17970000 3.18000000
v 1.45699327 -0.17970000 3.36000000
v 1.42896121 -0.24737538 3.18000000
v 1.42896121 -0.24737538 3.36000000
v 1.41940000 -0.32000000 3.18000000
v 1.41940000 -0.32000000 3.36000000
v 1.42896121 -0.39262462 3.18000000
v 1.42896121 -0.39262462 3.36000000
v 1.45699327 -0.46030000 3.18000000
v 1.45699327 -0.46030000 3.36000000
v 1.50158584 -0.51841416 3.18000000
v 1.50158584 -0.51841416 3.36000000
v 1.55970000 -0.56300673 3.18000000
v 1.55970000 -0.56300673 3.36000000
v 1.62737538 -0.59103879 3.18000000
v 1.62737538 -0.59103879 3.36000000
v 1.70000000 -0.60060000 3.18000000
v 1.70000000 -0.60060000 3.36000000
v 1.77262462 -0.59103879 3.18000000
v 1.77262462 -0.59103879 3.36000000
v 1.84030000 -0.56300673 3.18000000
v 1.84030000 -0.56300673 3.36000000
v 1.89841416 -0.51841416 3.18000000
v 1.89841416 -0.51841416 3.36000000
v 1.94300673 -0.46030000 3.18000000
v 1.94300673 -0.46030000 3.36000000
v 1.97103879 -0.39262462 3.18000000
v 1.97103879 -0.39262462 3.36000000
f 732 731 735
f 732 735 733
f 733 735 736
f 733 736 734
f 735 731 737
f 735 737 736
f 736 737 738
f 736 738 734
f 737 731 739
f 737 739 738
f 738 739 740
f 738 740 734
f 739 731 741
f 739 741 740
f 740 741 742
f 740 742 734
f 741 731 743
f 741 743 742
f 742 743 744
f 742 744 734
f 743 731 745
f 743 745 744
f 744 745 746
f 744 746 734
f 745 731 747
f 745 747 746
f 746 747 748
f 746 748 734
f 747 731 749
f 747 749 748
f 748 749 750
f 748 750 734
f 749 731 751
f 749 751 750
f 750 751 752
f 750 752 734
f 751 731 753
f 751 753 752
f 752 753 754
f 752 754 734
f 753 731 755
f 753 755 754
f 754 755 756
f 754 756 734
f 755 731 757
f 755 757 756
f 756 757 758
f 756 758 734
f 757 731 759
f 757 759 758
f 758 759 760
f 758 760 734
f 759 731 761
f 759 761 760
f 760 761 762
f 760 762 734
f 761 731 763
f 761 763 762
f 762 763 764
f 762 764 734
f 763 731 765
f 763 765 764
f 764 765 766
f 764 766 734
f 765 731 767
f 765 767 766
f 766 767 768
f 766 768 734
f 767 731 769
f 767 769 768
f 768 769 770
f 768 770 734
f 769 731 771
f 769 771 770
f 770 771 772
f 770 772 734
f 771 731 773
f 771 773 772
f 772 773 774
f 772 774 734
f 773 731 775
f 773 775 774
f 774 775 776
f 774 776 734
f 775 731 777
f 775 777 776
f 776 777 778
f 776 778 734
f 777 731 779
f 777 779 778
f 778 779 780
f 778 780 734
f 779 731 732
f 779 732 780
f 780 732 733
f 780 733 734

o geometry_66
v 1.41250000 -0.67000000 3.11000000
v 1.41250000 -0.67000000 3.27000000
v 1.41250000 0.03000000 3.11000000
v 1.41250000 0.03000000 3.27000000
v 1.98750000 -0.67000000 3.11000000
v 1.98750000 -0.67000000 3.27000000
v 1.98750000 0.03000000 3.11000000
v 1.98750000 0.03000000 3.27000000
f 782 784 781
f 785 782 781
f 781 784 783
f 783 785 781
f 782 788 784
f 786 782 785
f 786 788 782
f 784 788 783
f 787 785 783
f 783 788 787
f 787 786 785
f 788 786 787

o geometry_67
v -1.99000000 -0.66000000 2.63000000
v -1.99000000 -0.66000000 2.81000000
v -1.99000000 -0.58000000 2.63000000
v -1.99000000 -0.58000000 2.81000000
v -1.57000000 -0.66000000 2.63000000
v -1.57000000 -0.66000000 2.81000000
v -1.57000000 -0.58000000 2.63000000
v -1.57000000 -0.58000000 2.81000000
f 790 792 789
f 793 790 789
f 789 792 791
f 791 793 789
f 790 796 792
f 794 790 793
f 794 796 790
f 792 796 791
f 795 793 791
f 791 796 795
f 795 794 793
f 796 794 795

o geometry_68
v -1.89550000 -0.73000000 2.76000000
v -1.89550000 -0.73000000 2.84000000
v -1.89550000 -0.63000000 2.76000000
v -1.89550000 -0.63000000 2.84000000
v -1.66450000 -0.73000000 2.76000000
v -1.66450000 -0.73000000 2.84000000
v -1.66450000 -0.63000000 2.76000000
v -1.66450000 -0.63000000 2.84000000
f 798 800 797
f 801 798 797
f 797 800 799
f 799 801 797
f 798 804 800
f 802 798 801
f 802 804 798
f 800 804 799
f 803 801 799
f 799 804 803
f 803 802 801
f 804 802 803

o geometry_69
v -1.57000000 -0.66000000 2.63000000
v -1.57000000 -0.66000000 2.81000000
v -1.57000000 -0.58000000 2.63000000
v -1.57000000 -0.58000000 2.81000000
v -1.15000000 -0.66000000 2.63000000
v -1.15000000 -0.66000000 2.81000000
v -1.15000000 -0.58000000 2.63000000
v -1.15000000 -0.58000000 2.81000000
f 806 808 805
f 809 806 805
f 805 808 807
f 807 809 805
f 806 812 808
f 810 806 809
f 810 812 806
f 808 812 807
f 811 809 807
f 807 812 811
f 811 810 809
f 812 810 811

o geometry_70
v -1.47550000 -0.73000000 2.60000000
v -1.47550000 -0.73000000 2.68000000
v -1.47550000 -0.63000000 2.60000000
v -1.47550000 -0.63000000 2.68000000
v -1.24450000 -0.73000000 2.60000000
v -1.24450000 -0.73000000 2.68000000
v -1.24450000 -0.63000000 2.60000000
v -1.24450000 -0.63000000 2.68000000
f 814 816 813
f 817 814 813
f 813 816 815
f 815 817 813
f 814 820 816
f 818 814 817
f 818 820 814
f 816 820 815
f 819 817 815
f 815 820 819
f 819 818 817
f 820 818 819

o geometry_71
v -1.15000000 -0.66000000 2.63000000
v -1.15000000 -0.66000000 2.81000000
v -1.15000000 -0.58000000 2.63000000
v -1.15000000 -0.58000000 2.81000000
v -0.73000000 -0.66000000 2.63000000
v -0.73000000 -0.66000000 2.81000000
v -0.73000000 -0.58000000 2.63000000
v -0.73000000 -0.58000000 2.81000000
f 822 824 821
f 825 822 821
f 821 824 823
f 823 825 821
f 822 828 824
f 826 822 825
f 826 828 822
f 824 828 823
f 827 825 823
f 823 828 827
f 827 826 825
f 828 826 827

o geometry_72
v -1.05550000 -0.73000000 2.76000000
v -1.05550000 -0.73000000 2.84000000
v -1.05550000 -0.63000000 2.76000000
v -1.05550000 -0.63000000 2.84000000
v -0.82450000 -0.73000000 2.76000000
v -0.82450000 -0.73000000 2.84000000
v -0.82450000 -0.63000000 2.76000000
v -0.82450000 -0.63000000 2.84000000
f 830 832 829
f 833 830 829
f 829 832 831
f 831 833 829
f 830 836 832
f 834 830 833
f 834 836 830
f 832 836 831
f 835 833 831
f 831 836 835
f 835 834 833
f 836 834 835

o geometry_73
v -0.73000000 -0.66000000 2.63000000
v -0.73000000 -0.66000000 2.81000000
v -0.73000000 -0.58000000 2.63000000
v -0.73000000 -0.58000000 2.81000000
v -0.31000000 -0.66000000 2.63000000
v -0.31000000 -0.66000000 2.81000000
v -0.31000000 -0.58000000 2.63000000
v -0.31000000 -0.58000000 2.81000000
f 838 840 837
f 841 838 837
f 837 840 839
f 839 841 837
f 838 844 840
f 842 838 841
f 842 844 838
f 840 844 839
f 843 841 839
f 839 844 843
f 843 842 841
f 844 842 843

o geometry_74
v -0.63550000 -0.73000000 2.60000000
v -0.63550000 -0.73000000 2.68000000
v -0.63550000 -0.63000000 2.60000000
v -0.63550000 -0.63000000 2.68000000
v -0.40450000 -0.73000000 2.60000000
v -0.40450000 -0.73000000 2.68000000
v -0.40450000 -0.63000000 2.60000000
v -0.40450000 -0.63000000 2.68000000
f 846 848 845
f 849 846 845
f 845 848 847
f 847 849 845
f 846 852 848
f 850 846 849
f 850 852 846
f 848 852 847
f 851 849 847
f 847 852 851
f 851 850 849
f 852 850 851

o geometry_75
v -0.31000000 -0.66000000 2.63000000
v -0.31000000 -0.66000000 2.81000000
v -0.31000000 -0.58000000 2.63000000
v -0.31000000 -0.58000000 2.81000000
v 0.11000000 -0.66000000 2.63000000
v 0.11000000 -0.66000000 2.81000000
v 0.11000000 -0.58000000 2.63000000
v 0.11000000 -0.58000000 2.81000000
f 854 856 853
f 857 854 853
f 853 856 855
f 855 857 853
f 854 860 856
f 858 854 857
f 858 860 854
f 856 860 855
f 859 857 855
f 855 860 859
f 859 858 857
f 860 858 859

o geometry_76
v -0.21550000 -0.73000000 2.76000000
v -0.21550000 -0.73000000 2.84000000
v -0.21550000 -0.63000000 2.76000000
v -0.21550000 -0.63000000 2.84000000
v 0.01550000 -0.73000000 2.76000000
v 0.01550000 -0.73000000 2.84000000
v 0.01550000 -0.63000000 2.76000000
v 0.01550000 -0.63000000 2.84000000
f 862 864 861
f 865 862 861
f 861 864 863
f 863 865 861
f 862 868 864
f 866 862 865
f 866 868 862
f 864 868 863
f 867 865 863
f 863 868 867
f 867 866 865
f 868 866 867

o geometry_77
v 0.11000000 -0.66000000 2.63000000
v 0.11000000 -0.66000000 2.81000000
v 0.11000000 -0.58000000 2.63000000
v 0.11000000 -0.58000000 2.81000000
v 0.53000000 -0.66000000 2.63000000
v 0.53000000 -0.66000000 2.81000000
v 0.53000000 -0.58000000 2.63000000
v 0.53000000 -0.58000000 2.81000000
f 870 872 869
f 873 870 869
f 869 872 871
f 871 873 869
f 870 876 872
f 874 870 873
f 874 876 870
f 872 876 871
f 875 873 871
f 871 876 875
f 875 874 873
f 876 874 875

o geometry_78
v 0.20450000 -0.73000000 2.60000000
v 0.20450000 -0.73000000 2.68000000
v 0.20450000 -0.63000000 2.60000000
v 0.20450000 -0.63000000 2.68000000
v 0.43550000 -0.73000000 2.60000000
v 0.43550000 -0.73000000 2.68000000
v 0.43550000 -0.63000000 2.60000000
v 0.43550000 -0.63000000 2.68000000
f 878 880 877
f 881 878 877
f 877 880 879
f 879 881 877
f 878 884 880
f 882 878 881
f 882 884 878
f 880 884 879
f 883 881 879
f 879 884 883
f 883 882 881
f 884 882 883

o geometry_79
v 0.53000000 -0.66000000 2.63000000
v 0.53000000 -0.66000000 2.81000000
v 0.53000000 -0.58000000 2.63000000
v 0.53000000 -0.58000000 2.81000000
v 0.95000000 -0.66000000 2.63000000
v 0.95000000 -0.66000000 2.81000000
v 0.95000000 -0.58000000 2.63000000
v 0.95000000 -0.58000000 2.81000000
f 886 888 885
f 889 886 885
f 885 888 887
f 887 889 885
f 886 892 888
f 890 886 889
f 890 892 886
f 888 892 887
f 891 889 887
f 887 892 891
f 891 890 889
f 892 890 891

o geometry_80
v 0.62450000 -0.73000000 2.76000000
v 0.62450000 -0.73000000 2.84000000
v 0.62450000 -0.63000000 2.76000000
v 0.62450000 -0.63000000 2.84000000
v 0.85550000 -0.73000000 2.76000000
v 0.85550000 -0.73000000 2.84000000
v 0.85550000 -0.63000000 2.76000000
v 0.85550000 -0.63000000 2.84000000
f 894 896 893
f 897 894 893
f 893 896 895
f 895 897 893
f 894 900 896
f 898 894 897
f 898 900 894
f 896 900 895
f 899 897 895
f 895 900 899
f 899 898 897
f 900 898 899

o geometry_81
v 0.95000000 -0.66000000 2.63000000
v 0.95000000 -0.66000000 2.81000000
v 0.95000000 -0.58000000 2.63000000
v 0.95000000 -0.58000000 2.81000000
v 1.37000000 -0.66000000 2.63000000
v 1.37000000 -0.66000000 2.81000000
v 1.37000000 -0.58000000 2.63000000
v 1.37000000 -0.58000000 2.81000000
f 902 904 901
f 905 902 901
f 901 904 903
f 903 905 901
f 902 908 904
f 906 902 905
f 906 908 902
f 904 908 903
f 907 905 903
f 903 908 907
f 907 906 905
f 908 906 907

o geometry_82
v 1.04450000 -0.73000000 2.60000000
v 1.04450000 -0.73000000 2.68000000
v 1.04450000 -0.63000000 2.60000000
v 1.04450000 -0.63000000 2.68000000
v 1.27550000 -0.73000000 2.60000000
v 1.27550000 -0.73000000 2.68000000
v 1.27550000 -0.63000000 2.60000000
v 1.27550000 -0.63000000 2.68000000
f 910 912 909
f 913 910 909
f 909 912 911
f 911 913 909
f 910 916 912
f 914 910 913
f 914 916 910
f 912 916 911
f 915 913 911
f 911 916 915
f 915 914 913
f 916 914 915

o geometry_83
v 1.37000000 -0.66000000 2.63000000
v 1.37000000 -0.66000000 2.81000000
v 1.37000000 -0.58000000 2.63000000
v 1.37000000 -0.58000000 2.81000000
v 1.79000000 -0.66000000 2.63000000
v 1.79000000 -0.66000000 2.81000000
v 1.79000000 -0.58000000 2.63000000
v 1.79000000 -0.58000000 2.81000000
f 918 920 917
f 921 918 917
f 917 920 919
f 919 921 917
f 918 924 920
f 922 918 921
f 922 924 918
f 920 924 919
f 923 921 919
f 919 924 923
f 923 922 921
f 924 922 923

o geometry_84
v 1.46450000 -0.73000000 2.76000000
v 1.46450000 -0.73000000 2.84000000
v 1.46450000 -0.63000000 2.76000000
v 1.46450000 -0.63000000 2.84000000
v 1.69550000 -0.73000000 2.76000000
v 1.69550000 -0.73000000 2.84000000
v 1.69550000 -0.63000000 2.76000000
v 1.69550000 -0.63000000 2.84000000
f 926 928 925
f 929 926 925
f 925 928 927
f 927 929 925
f 926 932 928
f 930 926 929
f 930 932 926
f 928 932 927
f 931 929 927
f 927 932 931
f 931 930 929
f 932 930 931

o geometry_85
v 0.08281000 -0.32574540 0.10288843
v 0.24924584 -0.32574540 0.10288843
v 0.08281000 -0.51425460 0.10288843
v 0.24924584 -0.51425460 0.10288843
v 0.16602792 -0.47825255 0.19789632
v 0.16602792 -0.36174745 0.19789632
v 0.16602792 -0.47825255 0.00788055
v 0.16602792 -0.36174745 0.00788055
v 0.30067735 -0.42000000 0.04417033
v 0.30067735 -0.42000000 0.16160654
v 0.03137849 -0.42000000 0.04417033
v 0.03137849 -0.42000000 0.16160654
v 0.16602792 -0.30919707 0.10288843
v 0.16602792 -0.53080293 0.10288843
v 0.11711365 -0.50964145 0.15873267
v 0.21494219 -0.50964145 0.15873267
v 0.11711365 -0.33035855 0.15873267
v 0.21494219 -0.33035855 0.15873267
v 0.16602792 -0.42000000 0.21457690
v 0.11711365 -0.50964145 0.04704420
v 0.21494219 -0.50964145 0.04704420
v 0.11711365 -0.33035855 0.04704420
v 0.21494219 -0.33035855 0.04704420
v 0.16602792 -0.42000000 -0.00880004
v 0.29408714 -0.36459854 0.06837480
v 0.29408714 -0.47540146 0.06837480
v 0.24517287 -0.45423999 0.01253056
v 0.24517287 -0.38576001 0.01253056
v 0.29408714 -0.36459854 0.13740207
v 0.29408714 -0.47540146 0.13740207
v 0.24517287 -0.45423999 0.19324630
v 0.24517287 -0.38576001 0.19324630
v 0.32431782 -0.42000000 0.10288843
v 0.03796870 -0.36459854 0.06837480
v 0.03796870 -0.47540146 0.06837480
v 0.08688297 -0.45423999 0.01253056
v 0.08688297 -0.38576001 0.01253056
v 0.03796870 -0.36459854 0.13740207
v 0.03796870 -0.47540146 0.13740207
v 0.08688297 -0.45423999 0.19324630
v 0.08688297 -0.38576001 0.19324630
v 0.00773802 -0.42000000 0.10288843
f 933 970 949
f 970 944 973
f 949 973 938
f 970 973 949
f 933 949 945
f 949 938 950
f 945 950 934
f 949 950 945
f 933 945 954
f 945 934 955
f 954 955 940
f 945 955 954
f 933 954 966
f 954 940 969
f 966 969 943
f 954 969 966
f 933 966 970
f 966 943 974
f 970 974 944
f 966 974 970
f 934 950 961
f 950 938 964
f 961 964 942
f 950 964 961
f 938 973 951
f 973 944 972
f 951 972 937
f 973 972 951
f 944 974 971
f 974 943 967
f 971 967 935
f 974 967 971
f 943 969 968
f 969 940 956
f 968 956 939
f 969 956 968
f 940 955 960
f 955 934 957
f 960 957 941
f 955 957 960
f 936 962 948
f 962 942 963
f 948 963 937
f 962 963 948
f 936 948 946
f 948 937 947
f 946 947 935
f 948 947 946
f 936 946 953
f 946 935 952
f 953 952 939
f 946 952 953
f 936 953 958
f 953 939 959
f 958 959 941
f 953 959 958
f 936 958 962
f 958 941 965
f 962 965 942
f 958 965 962
f 937 963 951
f 963 942 964
f 951 964 938
f 963 964 951
f 935 947 971
f 947 937 972
f 971 972 944
f 947 972 971
f 939 952 968
f 952 935 967
f 968 967 943
f 952 967 968
f 941 959 960
f 959 939 956
f 960 956 940
f 959 956 960
f 942 965 961
f 965 941 957
f 961 957 934
f 965 957 961

o geometry_86
v -0.20717006 -0.35269058 0.07347505
v -0.08831432 -0.35269058 0.07347505
v -0.20717006 -0.48730942 0.07347505
v -0.08831432 -0.48730942 0.07347505
v -0.14774219 -0.46159951 0.16723874
v -0.14774219 -0.37840049 0.16723874
v -0.14774219 -0.46159951 -0.02028865
v -0.14774219 -0.37840049 -0.02028865
v -0.05158587 -0.42000000 0.01552589
v -0.05158587 -0.42000000 0.13142420
v -0.24389851 -0.42000000 0.01552589
v -0.24389851 -0.42000000 0.13142420
v -0.14774219 -0.34087303 0.07347505
v -0.14774219 -0.49912697 0.07347505
v -0.18267302 -0.48401507 0.12858797
v -0.11281136 -0.48401507 0.12858797
v -0.18267302 -0.35598493 0.12858797
v -0.11281136 -0.35598493 0.12858797
v -0.14774219 -0.42000000 0.18370088
v -0.18267302 -0.48401507 0.01836213
v -0.11281136 -0.48401507 0.01836213
v -0.18267302 -0.35598493 0.01836213
v -0.11281136 -0.35598493 0.01836213
v -0.14774219 -0.42000000 -0.03675079
v -0.05629210 -0.38043651 0.03941339
v -0.05629210 -0.45956349 0.03941339
v -0.09122293 -0.44445158 -0.01569953
v -0.09122293 -0.39554842 -0.01569953
v -0.05629210 -0.38043651 0.10753670
v -0.05629210 -0.45956349 0.10753670
v -0.09122293 -0.44445158 0.16264962
v -0.09122293 -0.39554842 0.16264962
v -0.03470366 -0.42000000 0.07347505
v -0.23919228 -0.38043651 0.03941339
v -0.23919228 -0.45956349 0.03941339
v -0.20426146 -0.44445158 -0.01569953
v -0.20426146 -0.39554842 -0.01569953
v -0.23919228 -0.38043651 0.10753670
v -0.23919228 -0.45956349 0.10753670
v -0.20426146 -0.44445158 0.16264962
v -0.20426146 -0.39554842 0.16264962
v -0.26078072 -0.42000000 0.07347505
f 975 1012 991
f 1012 986 1015
f 991 1015 980
f 1012 1015 991
f 975 991 987
f 991 980 992
f 987 992 976
f 991 992 987
f 975 987 996
f 987 976 997
f 996 997 982
f 987 997 996
f 975 996 1008
f 996 982 1011
f 1008 1011 985
f 996 1011 1008
f 975 1008 1012
f 1008 985 1016
f 1012 1016 986
f 1008 1016 1012
f 976 992 1003
f 992 980 1006
f 1003 1006 984
f 992 1006 1003
f 980 1015 993
f 1015 986 1014
f 993 1014 979
f 1015 1014 993
f 986 1016 1013
f 1016 985 1009
f 1013 1009 977
f 1016 1009 1013
f 985 1011 1010
f 1011 982 998
f 1010 998 981
f 1011 998 1010
f 982 997 1002
f 997 976 999
f 1002 999 983
f 997 999 1002
f 978 1004 990
f 1004 984 1005
f 990 1005 979
f 1004 1005 990
f 978 990 988
f 990 979 989
f 988 989 977
f 990 989 988
f 978 988 995
f 988 977 994
f 995 994 981
f 988 994 995
f 978 995 1000
f 995 981 1001
f 1000 1001 983
f 995 1001 1000
f 978 1000 1004
f 1000 983 1007
f 1004 1007 984
f 1000 1007 1004
f 979 1005 993
f 1005 984 1006
f 993 1006 980
f 1005 1006 993
f 977 989 1013
f 989 979 1014
f 1013 1014 986
f 989 1014 1013
f 981 994 1010
f 994 977 1009
f 1010 1009 985
f 994 1009 1010
f 983 1001 1002
f 1001 981 998
f 1002 998 982
f 1001 998 1002
f 984 1007 1003
f 1007 983 999
f 1003 999 976
f 1007 999 1003

o geometry_87
v -0.56681642 -0.35423800 0.07178587
v -0.45069313 -0.35423800 0.07178587
v -0.56681642 -0.48576200 0.07178587
v -0.45069313 -0.48576200 0.07178587
v -0.50875478 -0.46064315 0.16152329
v -0.50875478 -0.37935685 0.16152329
v -0.50875478 -0.46064315 -0.01795154
v -0.50875478 -0.37935685 -0.01795154
v -0.41480907 -0.42000000 0.01632510
v -0.41480907 -0.42000000 0.12724665
v -0.60270049 -0.42000000 0.01632510
v -0.60270049 -0.42000000 0.12724665
v -0.50875478 -0.34269214 0.07178587
v -0.50875478 -0.49730786 0.07178587
v -0.54288255 -0.48254338 0.12453220
v -0.47462700 -0.48254338 0.12453220
v -0.54288255 -0.35745662 0.12453220
v -0.47462700 -0.35745662 0.12453220
v -0.50875478 -0.42000000 0.17727853
v -0.54288255 -0.48254338 0.01903955
v -0.47462700 -0.48254338 0.01903955
v -0.54288255 -0.35745662 0.01903955
v -0.47462700 -0.35745662 0.01903955
v -0.50875478 -0.42000000 -0.03370678
v -0.41940710 -0.38134607 0.03918685
v -0.41940710 -0.45865393 0.03918685
v -0.45353487 -0.44388944 -0.01355948
v -0.45353487 -0.39611056 -0.01355948
v -0.41940710 -0.38134607 0.10438490
v -0.41940710 -0.45865393 0.10438490
v -0.45353487 -0.44388944 0.15713123
v -0.45353487 -0.39611056 0.15713123
v -0.39831497 -0.42000000 0.07178587
v -0.59810246 -0.38134607 0.03918685
v -0.59810246 -0.45865393 0.03918685
v -0.56397468 -0.44388944 -0.01355948
v -0.56397468 -0.39611056 -0.01355948
v -0.59810246 -0.38134607 0.10438490
v -0.59810246 -0.45865393 0.10438490
v -0.56397468 -0.44388944 0.15713123
v -0.56397468 -0.39611056 0.15713123
v -0.61919458 -0.42000000 0.07178587
f 1017 1054 1033
f 1054 1028 1057
f 1033 1057 1022
f 1054 1057 1033
f 1017 1033 1029
f 1033 1022 1034
f 1029 1034 1018
f 1033 1034 1029
f 1017 1029 1038
f 1029 1018 1039
f 1038 1039 1024
f 1029 1039 1038
f 1017 1038 1050
f 1038 1024 1053
f 1050 1053 1027
f 1038 1053 1050
f 1017 1050 1054
f 1050 1027 1058
f 1054 1058 1028
f 1050 1058 1054
f 1018 1034 1045
f 1034 1022 1048
f 1045 1048 1026
f 1034 1048 1045
f 1022 1057 1035
f 1057 1028 1056
f 1035 1056 1021
f 1057 1056 1035
f 1028 1058 1055
f 1058 1027 1051
f 1055 1051 1019
f 1058 1051 1055
f 1027 1053 1052
f 1053 1024 1040
f 1052 1040 1023
f 1053 1040 1052
f 1024 1039 1044
f 1039 1018 1041
f 1044 1041 1025
f 1039 1041 1044
f 1020 1046 1032
f 1046 1026 1047
f 1032 1047 1021
f 1046 1047 1032
f 1020 1032 1030
f 1032 1021 1031
f 1030 1031 1019
f 1032 1031 1030
f 1020 1030 1037
f 1030 1019 1036
f 1037 1036 1023
f 1030 1036 1037
f 1020 1037 1042
f 1037 1023 1043
f 1042 1043 1025
f 1037 1043 1042
f 1020 1042 1046
f 1042 1025 1049
f 1046 1049 1026
f 1042 1049 1046
f 1021 1047 1035
f 1047 1026 1048
f 1035 1048 1022
f 1047 1048 1035
f 1019 1031 1055
f 1031 1021 1056
f 1055 1056 1028
f 1031 1056 1055
f 1023 1036 1052
f 1036 1019 1051
f 1052 1051 1027
f 1036 1051 1052
f 1025 1043 1044
f 1043 1023 1040
f 1044 1040 1024
f 1043 1040 1044
f 1026 1049 1045
f 1049 1025 1041
f 1045 1041 1018
f 1049 1041 1045

o geometry_88
v -0.54382538 -0.31397543 0.11573654
v -0.35660599 -0.31397543 0.11573654
v -0.54382538 -0.52602457 0.11573654
v -0.35660599 -0.52602457 0.11573654
v -0.45021569 -0.48552679 0.21402114
v -0.45021569 -0.35447321 0.21402114
v -0.45021569 -0.48552679 0.01745195
v -0.45021569 -0.35447321 0.01745195
v -0.29875202 -0.42000000 0.05499333
v -0.29875202 -0.42000000 0.17647976
v -0.60167936 -0.42000000 0.05499333
v -0.60167936 -0.42000000 0.17647976
v -0.45021569 -0.29536064 0.11573654
v -0.45021569 -0.54463936 0.11573654
v -0.50523808 -0.52083536 0.17350678
v -0.39519329 -0.52083536 0.17350678
v -0.50523808 -0.31916464 0.17350678
v -0.39519329 -0.31916464 0.17350678
v -0.45021569 -0.42000000 0.23127701
v -0.50523808 -0.52083536 0.05796631
v -0.39519329 -0.52083536 0.05796631
v -0.50523808 -0.31916464 0.05796631
v -0.39519329 -0.31916464 0.05796631
v -0.45021569 -0.42000000 0.00019608
v -0.30616517 -0.35768032 0.08003258
v -0.30616517 -0.48231968 0.08003258
v -0.36118757 -0.45851568 0.02226234
v -0.36118757 -0.38148432 0.02226234
v -0.30616517 -0.35768032 0.15144051
v -0.30616517 -0.48231968 0.15144051
v -0.36118757 -0.45851568 0.20921075
v -0.36118757 -0.38148432 0.20921075
v -0.27215946 -0.42000000 0.11573654
v -0.59426620 -0.35768032 0.08003258
v -0.59426620 -0.48231968 0.08003258
v -0.53924380 -0.45851568 0.02226234
v -0.53924380 -0.38148432 0.02226234
v -0.59426620 -0.35768032 0.15144051
v -0.59426620 -0.48231968 0.15144051
v -0.53924380 -0.45851568 0.20921075
v -0.53924380 -0.38148432 0.20921075
v -0.62827191 -0.42000000 0.11573654
f 1059 1096 1075
f 1096 1070 1099
f 1075 1099 1064
f 1096 1099 1075
f 1059 1075 1071
f 1075 1064 1076
f 1071 1076 1060
f 1075 1076 1071
f 1059 1071 1080
f 1071 1060 1081
f 1080 1081 1066
f 1071 1081 1080
f 1059 1080 1092
f 1080 1066 1095
f 1092 1095 1069
f 1080 1095 1092
f 1059 1092 1096
f 1092 1069 1100
f 1096 1100 1070
f 1092 1100 1096
f 1060 1076 1087
f 1076 1064 1090
f 1087 1090 1068
f 1076 1090 1087
f 1064 1099 1077
f 1099 1070 1098
f 1077 1098 1063
f 1099 1098 1077
f 1070 1100 1097
f 1100 1069 1093
f 1097 1093 1061
f 1100 1093 1097
f 1069 1095 1094
f 1095 1066 1082
f 1094 1082 1065
f 1095 1082 1094
f 1066 1081 1086
f 1081 1060 1083
f 1086 1083 1067
f 1081 1083 1086
f 1062 1088 1074
f 1088 1068 1089
f 1074 1089 1063
f 1088 1089 1074
f 1062 1074 1072
f 1074 1063 1073
f 1072 1073 1061
f 1074 1073 1072
f 1062 1072 1079
f 1072 1061 1078
f 1079 1078 1065
f 1072 1078 1079
f 1062 1079 1084
f 1079 1065 1085
f 1084 1085 1067
f 1079 1085 1084
f 1062 1084 1088
f 1084 1067 1091
f 1088 1091 1068
f 1084 1091 1088
f 1063 1089 1077
f 1089 1068 1090
f 1077 1090 1064
f 1089 1090 1077
f 1061 1073 1097
f 1073 1063 1098
f 1097 1098 1070
f 1073 1098 1097
f 1065 1078 1094
f 1078 1061 1093
f 1094 1093 1069
f 1078 1093 1094
f 1067 1085 1086
f 1085 1065 1082
f 1086 1082 1066
f 1085 1082 1086
f 1068 1091 1087
f 1091 1067 1083
f 1087 1083 1060
f 1091 1083 1087

o geometry_89
v -0.50656388 -0.31495363 0.11466875
v -0.32107180 -0.31495363 0.11466875
v -0.50656388 -0.52504637 0.11466875
v -0.32107180 -0.52504637 0.11466875
v -0.41381784 -0.48492223 0.29156631
v -0.41381784 -0.35507777 0.29156631
v -0.41381784 -0.48492223 -0.06222882
v -0.41381784 -0.35507777 -0.06222882
v -0.26375160 -0.42000000 0.00534004
v -0.26375160 -0.42000000 0.22399745
v -0.56388409 -0.42000000 0.00534004
v -0.56388409 -0.42000000 0.22399745
v -0.41381784 -0.29651058 0.11466875
v -0.41381784 -0.54348942 0.11466875
v -0.46833260 -0.51990504 0.21864653
v -0.35930309 -0.51990504 0.21864653
v -0.46833260 -0.32009496 0.21864653
v -0.35930309 -0.32009496 0.21864653
v -0.41381784 -0.42000000 0.32262431
v -0.46833260 -0.51990504 0.01069097
v -0.35930309 -0.51990504 0.01069097
v -0.46833260 -0.32009496 0.01069097
v -0.35930309 -0.32009496 0.01069097
v -0.41381784 -0.42000000 -0.09328681
v -0.27109636 -0.35825529 0.05040694
v -0.27109636 -0.48174471 0.05040694
v -0.32561112 -0.45816033 -0.05357084
v -0.32561112 -0.38183967 -0.05357084
v -0.27109636 -0.35825529 0.17893055
v -0.27109636 -0.48174471 0.17893055
v -0.32561112 -0.45816033 0.28290833
v -0.32561112 -0.38183967 0.28290833
v -0.23740439 -0.42000000 0.11466875
v -0.55653933 -0.35825529 0.05040694
v -0.55653933 -0.48174471 0.05040694
v -0.50202457 -0.45816033 -0.05357084
v -0.50202457 -0.38183967 -0.05357084
v -0.55653933 -0.35825529 0.17893055
v -0.55653933 -0.48174471 0.17893055
v -0.50202457 -0.45816033 0.28290833
v -0.50202457 -0.38183967 0.28290833
v -0.59023130 -0.42000000 0.11466875
f 1101 1138 1117
f 1138 1112 1141
f 1117 1141 1106
f 1138 1141 1117
f 1101 1117 1113
f 1117 1106 1118
f 1113 1118 1102
f 1117 1118 1113
f 1101 1113 1122
f 1113 1102 1123
f 1122 1123 1108
f 1113 1123 1122
f 1101 1122 1134
f 1122 1108 1137
f 1134 1137 1111
f 1122 1137 1134
f 1101 1134 1138
f 1134 1111 1142
f 1138 1142 1112
f 1134 1142 1138
f 1102 1118 1129
f 1118 1106 1132
f 1129 1132 1110
f 1118 1132 1129
f 1106 1141 1119
f 1141 1112 1140
f 1119 1140 1105
f 1141 1140 1119
f 1112 1142 1139
f 1142 1111 1135
f 1139 1135 1103
f 1142 1135 1139
f 1111 1137 1136
f 1137 1108 1124
f 1136 1124 1107
f 1137 1124 1136
f 1108 1123 1128
f 1123 1102 1125
f 1128 1125 1109
f 1123 1125 1128
f 1104 1130 1116
f 1130 1110 1131
f 1116 1131 1105
f 1130 1131 1116
f 1104 1116 1114
f 1116 1105 1115
f 1114 1115 1103
f 1116 1115 1114
f 1104 1114 1121
f 1114 1103 1120
f 1121 1120 1107
f 1114 1120 1121
f 1104 1121 1126
f 1121 1107 1127
f 1126 1127 1109
f 1121 1127 1126
f 1104 1126 1130
f 1126 1109 1133
f 1130 1133 1110
f 1126 1133 1130
f 1105 1131 1119
f 1131 1110 1132
f 1119 1132 1106
f 1131 1132 1119
f 1103 1115 1139
f 1115 1105 1140
f 1139 1140 1112
f 1115 1140 1139
f 1107 1120 1136
f 1120 1103 1135
f 1136 1135 1111
f 1120 1135 1136
f 1109 1127 1128
f 1127 1107 1124
f 1128 1124 1108
f 1127 1124 1128
f 1110 1133 1129
f 1133 1109 1125
f 1129 1125 1102
f 1133 1125 1129

o geometry_90
v 0.41878127 -0.33652724 0.09111896
v 0.56617841 -0.33652724 0.09111896
v 0.41878127 -0.50347276 0.09111896
v 0.56617841 -0.50347276 0.09111896
v 0.49247984 -0.47158900 0.21504062
v 0.49247984 -0.36841100 0.21504062
v 0.49247984 -0.47158900 -0.03280270
v 0.49247984 -0.36841100 -0.03280270
v 0.61172663 -0.42000000 0.01453116
v 0.61172663 -0.42000000 0.16770675
v 0.37323304 -0.42000000 0.01453116
v 0.37323304 -0.42000000 0.16770675
v 0.49247984 -0.32187189 0.09111896
v 0.49247984 -0.51812811 0.09111896
v 0.44916090 -0.49938731 0.16395828
v 0.53579877 -0.49938731 0.16395828
v 0.44916090 -0.34061269 0.16395828
v 0.53579877 -0.34061269 0.16395828
v 0.49247984 -0.42000000 0.23679760
v 0.44916090 -0.49938731 0.01827964
v 0.53579877 -0.49938731 0.01827964
v 0.44916090 -0.34061269 0.01827964
v 0.53579877 -0.34061269 0.01827964
v 0.49247984 -0.42000000 -0.05455969
v 0.60589028 -0.37093595 0.04610178
v 0.60589028 -0.46906405 0.04610178
v 0.56257134 -0.45032325 -0.02673754
v 0.56257134 -0.38967675 -0.02673754
v 0.60589028 -0.37093595 0.13613614
v 0.60589028 -0.46906405 0.13613614
v 0.56257134 -0.45032325 0.20897546
v 0.56257134 -0.38967675 0.20897546
v 0.63266285 -0.42000000 0.09111896
v 0.37906940 -0.37093595 0.04610178
v 0.37906940 -0.46906405 0.04610178
v 0.42238833 -0.45032325 -0.02673754
v 0.42238833 -0.38967675 -0.02673754
v 0.37906940 -0.37093595 0.13613614
v 0.37906940 -0.46906405 0.13613614
v 0.42238833 -0.45032325 0.20897546
v 0.42238833 -0.38967675 0.20897546
v 0.35229682 -0.42000000 0.09111896
f 1143 1180 1159
f 1180 1154 1183
f 1159 1183 1148
f 1180 1183 1159
f 1143 1159 1155
f 1159 1148 1160
f 1155 1160 1144
f 1159 1160 1155
f 1143 1155 1164
f 1155 1144 1165
f 1164 1165 1150
f 1155 1165 1164
f 1143 1164 1176
f 1164 1150 1179
f 1176 1179 1153
f 1164 1179 1176
f 1143 1176 1180
f 1176 1153 1184
f 1180 1184 1154
f 1176 1184 1180
f 1144 1160 1171
f 1160 1148 1174
f 1171 1174 1152
f 1160 1174 1171
f 1148 1183 1161
f 1183 1154 1182
f 1161 1182 1147
f 1183 1182 1161
f 1154 1184 1181
f 1184 1153 1177
f 1181 1177 1145
f 1184 1177 1181
f 1153 1179 1178
f 1179 1150 1166
f 1178 1166 1149
f 1179 1166 1178
f 1150 1165 1170
f 1165 1144 1167
f 1170 1167 1151
f 1165 1167 1170
f 1146 1172 1158
f 1172 1152 1173
f 1158 1173 1147
f 1172 1173 1158
f 1146 1158 1156
f 1158 1147 1157
f 1156 1157 1145
f 1158 1157 1156
f 1146 1156 1163
f 1156 1145 1162
f 1163 1162 1149
f 1156 1162 1163
f 1146 1163 1168
f 1163 1149 1169
f 1168 1169 1151
f 1163 1169 1168
f 1146 1168 1172
f 1168 1151 1175
f 1172 1175 1152
f 1168 1175 1172
f 1147 1173 1161
f 1173 1152 1174
f 1161 1174 1148
f 1173 1174 1161
f 1145 1157 1181
f 1157 1147 1182
f 1181 1182 1154
f 1157 1182 1181
f 1149 1162 1178
f 1162 1145 1177
f 1178 1177 1153
f 1162 1177 1178
f 1151 1169 1170
f 1169 1149 1166
f 1170 1166 1150
f 1169 1166 1170
f 1152 1175 1171
f 1175 1151 1167
f 1171 1167 1144
f 1175 1167 1171

o geometry_91
v 0.41669533 -0.29859939 0.13252104
v 0.63106590 -0.29859939 0.13252104
v 0.41669533 -0.54140061 0.13252104
v 0.63106590 -0.54140061 0.13252104
v 0.52388062 -0.49502970 0.28473596
v 0.52388062 -0.34497030 0.28473596
v 0.52388062 -0.49502970 -0.01969387
v 0.52388062 -0.34497030 -0.01969387
v 0.69731005 -0.42000000 0.03844706
v 0.69731005 -0.42000000 0.22659503
v 0.35045118 -0.42000000 0.03844706
v 0.35045118 -0.42000000 0.22659503
v 0.52388062 -0.27728503 0.13252104
v 0.52388062 -0.56271497 0.13252104
v 0.46087869 -0.53545884 0.22199073
v 0.58688255 -0.53545884 0.22199073
v 0.46087869 -0.30454116 0.22199073
v 0.58688255 -0.30454116 0.22199073
v 0.52388062 -0.42000000 0.31146041
v 0.46087869 -0.53545884 0.04305136
v 0.58688255 -0.53545884 0.04305136
v 0.46087869 -0.30454116 0.04305136
v 0.58688255 -0.30454116 0.04305136
v 0.52388062 -0.42000000 -0.04641832
v 0.68882181 -0.34864251 0.07722574
v 0.68882181 -0.49135749 0.07722574
v 0.62581988 -0.46410135 -0.01224394
v 0.62581988 -0.37589865 -0.01224394
v 0.68882181 -0.34864251 0.18781635
v 0.68882181 -0.49135749 0.18781635
v 0.62581988 -0.46410135 0.27728603
v 0.62581988 -0.37589865 0.27728603
v 0.72775915 -0.42000000 0.13252104
v 0.35893942 -0.34864251 0.07722574
v 0.35893942 -0.49135749 0.07722574
v 0.42194135 -0.46410135 -0.01224394
v 0.42194135 -0.37589865 -0.01224394
v 0.35893942 -0.34864251 0.18781635
v 0.35893942 -0.49135749 0.18781635
v 0.42194135 -0.46410135 0.27728603
v 0.42194135 -0.37589865 0.27728603
v 0.32000209 -0.42000000 0.13252104
f 1185 1222 1201
f 1222 1196 1225
f 1201 1225 1190
f 1222 1225 1201
f 1185 1201 1197
f 1201 1190 1202
f 1197 1202 1186
f 1201 1202 1197
f 1185 1197 1206
f 1197 1186 1207
f 1206 1207 1192
f 1197 1207 1206
f 1185 1206 1218
f 1206 1192 1221
f 1218 1221 1195
f 1206 1221 1218
f 1185 1218 1222
f 1218 1195 1226
f 1222 1226 1196
f 1218 1226 1222
f 1186 1202 1213
f 1202 1190 1216
f 1213 1216 1194
f 1202 1216 1213
f 1190 1225 1203
f 1225 1196 1224
f 1203 1224 1189
f 1225 1224 1203
f 1196 1226 1223
f 1226 1195 1219
f 1223 1219 1187
f 1226 1219 1223
f 1195 1221 1220
f 1221 1192 1208
f 1220 1208 1191
f 1221 1208 1220
f 1192 1207 1212
f 1207 1186 1209
f 1212 1209 1193
f 1207 1209 1212
f 1188 1214 1200
f 1214 1194 1215
f 1200 1215 1189
f 1214 1215 1200
f 1188 1200 1198
f 1200 1189 1199
f 1198 1199 1187
f 1200 1199 1198
f 1188 1198 1205
f 1198 1187 1204
f 1205 1204 1191
f 1198 1204 1205
f 1188 1205 1210
f 1205 1191 1211
f 1210 1211 1193
f 1205 1211 1210
f 1188 1210 1214
f 1210 1193 1217
f 1214 1217 1194
f 1210 1217 1214
f 1189 1215 1203
f 1215 1194 1216
f 1203 1216 1190
f 1215 1216 1203
f 1187 1199 1223
f 1199 1189 1224
f 1223 1224 1196
f 1199 1224 1223
f 1191 1204 1220
f 1204 1187 1219
f 1220 1219 1195
f 1204 1219 1220
f 1193 1211 1212
f 1211 1191 1208
f 1212 1208 1192
f 1211 1208 1212
f 1194 1217 1213
f 1217 1193 1209
f 1213 1209 1186
f 1217 1209 1213

o geometry_92
v -0.28841109 -0.35546162 0.07045017
v -0.17444848 -0.35546162 0.07045017
v -0.28841109 -0.48453838 0.07045017
v -0.17444848 -0.48453838 0.07045017
v -0.23142979 -0.45988691 0.18117295
v -0.23142979 -0.38011309 0.18117295
v -0.23142979 -0.45988691 -0.04027260
v -0.23142979 -0.38011309 -0.04027260
v -0.13923210 -0.42000000 0.00201973
v -0.13923210 -0.42000000 0.13888061
v -0.32362747 -0.42000000 0.00201973
v -0.32362747 -0.42000000 0.13888061
v -0.23142979 -0.34413058 0.07045017
v -0.23142979 -0.49586942 0.07045017
v -0.26492256 -0.48137965 0.13553139
v -0.19793701 -0.48137965 0.13553139
v -0.26492256 -0.35862035 0.13553139
v -0.19793701 -0.35862035 0.13553139
v -0.23142979 -0.42000000 0.20061261
v -0.26492256 -0.48137965 0.00536896
v -0.19793701 -0.48137965 0.00536896
v -0.26492256 -0.35862035 0.00536896
v -0.19793701 -0.35862035 0.00536896
v -0.23142979 -0.42000000 -0.05971226
v -0.14374457 -0.38206529 0.03022777
v -0.14374457 -0.45793471 0.03022777
v -0.17723734 -0.44344494 -0.03485345
v -0.17723734 -0.39655506 -0.03485345
v -0.14374457 -0.38206529 0.11067258
v -0.14374457 -0.45793471 0.11067258
v -0.17723734 -0.44344494 0.17575379
v -0.17723734 -0.39655506 0.17575379
v -0.12304490 -0.42000000 0.07045017
v -0.31911500 -0.38206529 0.03022777
v -0.31911500 -0.45793471 0.03022777
v -0.28562223 -0.44344494 -0.03485345
v -0.28562223 -0.39655506 -0.03485345
v -0.31911500 -0.38206529 0.11067258
v -0.31911500 -0.45793471 0.11067258
v -0.28562223 -0.44344494 0.17575379
v -0.28562223 -0.39655506 0.17575379
v -0.33981467 -0.42000000 0.07045017
f 1227 1264 1243
f 1264 1238 1267
f 1243 1267 1232
f 1264 1267 1243
f 1227 1243 1239
f 1243 1232 1244
f 1239 1244 1228
f 1243 1244 1239
f 1227 1239 1248
f 1239 1228 1249
f 1248 1249 1234
f 1239 1249 1248
f 1227 1248 1260
f 1248 1234 1263
f 1260 1263 1237
f 1248 1263 1260
f 1227 1260 1264
f 1260 1237 1268
f 1264 1268 1238
f 1260 1268 1264
f 1228 1244 1255
f 1244 1232 1258
f 1255 1258 1236
f 1244 1258 1255
f 1232 1267 1245
f 1267 1238 1266
f 1245 1266 1231
f 1267 1266 1245
f 1238 1268 1265
f 1268 1237 1261
f 1265 1261 1229
f 1268 1261 1265
f 1237 1263 1262
f 1263 1234 1250
f 1262 1250 1233
f 1263 1250 1262
f 1234 1249 1254
f 1249 1228 1251
f 1254 1251 1235
f 1249 1251 1254
f 1230 1256 1242
f 1256 1236 1257
f 1242 1257 1231
f 1256 1257 1242
f 1230 1242 1240
f 1242 1231 1241
f 1240 1241 1229
f 1242 1241 1240
f 1230 1240 1247
f 1240 1229 1246
f 1247 1246 1233
f 1240 1246 1247
f 1230 1247 1252
f 1247 1233 1253
f 1252 1253 1235
f 1247 1253 1252
f 1230 1252 1256
f 1252 1235 1259
f 1256 1259 1236
f 1252 1259 1256
f 1231 1257 1245
f 1257 1236 1258
f 1245 1258 1232
f 1257 1258 1245
f 1229 1241 1265
f 1241 1231 1266
f 1265 1266 1238
f 1241 1266 1265
f 1233 1246 1262
f 1246 1229 1261
f 1262 1261 1237
f 1246 1261 1262
f 1235 1253 1254
f 1253 1233 1250
f 1254 1250 1234
f 1253 1250 1254
f 1236 1259 1255
f 1259 1235 1251
f 1255 1251 1228
f 1259 1251 1255

o geometry_93
v -0.27689419 -0.34499289 0.08187784
v -0.14444579 -0.34499289 0.08187784
v -0.27689419 -0.49500711 0.08187784
v -0.14444579 -0.49500711 0.08187784
v -0.21066999 -0.46635694 0.15500490
v -0.21066999 -0.37364306 0.15500490
v -0.21066999 -0.46635694 0.00875079
v -0.21066999 -0.37364306 0.00875079
v -0.10351699 -0.42000000 0.03668284
v -0.10351699 -0.42000000 0.12707285
v -0.31782300 -0.42000000 0.03668284
v -0.31782300 -0.42000000 0.12707285
v -0.21066999 -0.33182386 0.08187784
v -0.21066999 -0.50817614 0.08187784
v -0.24959560 -0.49133600 0.12486085
v -0.17174439 -0.49133600 0.12486085
v -0.24959560 -0.34866400 0.12486085
v -0.17174439 -0.34866400 0.12486085
v -0.21066999 -0.42000000 0.16784386
v -0.24959560 -0.49133600 0.03889484
v -0.17174439 -0.49133600 0.03889484
v -0.24959560 -0.34866400 0.03889484
v -0.17174439 -0.34866400 0.03889484
v -0.21066999 -0.42000000 -0.00408817
v -0.10876143 -0.37591193 0.05531289
v -0.10876143 -0.46408807 0.05531289
v -0.14768704 -0.44724793 0.01232988
v -0.14768704 -0.39275207 0.01232988
v -0.10876143 -0.37591193 0.10844280
v -0.10876143 -0.46408807 0.10844280
v -0.14768704 -0.44724793 0.15142581
v -0.14768704 -0.39275207 0.15142581
v -0.08470408 -0.42000000 0.08187784
v -0.31257856 -0.37591193 0.05531289
v -0.31257856 -0.46408807 0.05531289
v -0.27365295 -0.44724793 0.01232988
v -0.27365295 -0.39275207 0.01232988
v -0.31257856 -0.37591193 0.10844280
v -0.31257856 -0.46408807 0.10844280
v -0.27365295 -0.44724793 0.15142581
v -0.27365295 -0.39275207 0.15142581
v -0.33663591 -0.42000000 0.08187784
f 1269 1306 1285
f 1306 1280 1309
f 1285 1309 1274
f 1306 1309 1285
f 1269 1285 1281
f 1285 1274 1286
f 1281 1286 1270
f 1285 1286 1281
f 1269 1281 1290
f 1281 1270 1291
f 1290 1291 1276
f 1281 1291 1290
f 1269 1290 1302
f 1290 1276 1305
f 1302 1305 1279
f 1290 1305 1302
f 1269 1302 1306
f 1302 1279 1310
f 1306 1310 1280
f 1302 1310 1306
f 1270 1286 1297
f 1286 1274 1300
f 1297 1300 1278
f 1286 1300 1297
f 1274 1309 1287
f 1309 1280 1308
f 1287 1308 1273
f 1309 1308 1287
f 1280 1310 1307
f 1310 1279 1303
f 1307 1303 1271
f 1310 1303 1307
f 1279 1305 1304
f 1305 1276 1292
f 1304 1292 1275
f 1305 1292 1304
f 1276 1291 1296
f 1291 1270 1293
f 1296 1293 1277
f 1291 1293 1296
f 1272 1298 1284
f 1298 1278 1299
f 1284 1299 1273
f 1298 1299 1284
f 1272 1284 1282
f 1284 1273 1283
f 1282 1283 1271
f 1284 1283 1282
f 1272 1282 1289
f 1282 1271 1288
f 1289 1288 1275
f 1282 1288 1289
f 1272 1289 1294
f 1289 1275 1295
f 1294 1295 1277
f 1289 1295 1294
f 1272 1294 1298
f 1294 1277 1301
f 1298 1301 1278
f 1294 1301 1298
f 1273 1299 1287
f 1299 1278 1300
f 1287 1300 1274
f 1299 1300 1287
f 1271 1283 1307
f 1283 1273 1308
f 1307 1308 1280
f 1283 1308 1307
f 1275 1288 1304
f 1288 1271 1303
f 1304 1303 1279
f 1288 1303 1304
f 1277 1295 1296
f 1295 1275 1292
f 1296 1292 1276
f 1295 1292 1296
f 1278 1301 1297
f 1301 1277 1293
f 1297 1293 1270
f 1301 1293 1297

o geometry_94
v -0.04004427 -0.27298039 0.16048678
v 0.21956463 -0.27298039 0.16048678
v -0.04004427 -0.56701961 0.16048678
v 0.21956463 -0.56701961 0.16048678
v 0.08976018 -0.51086312 0.31307392
v 0.08976018 -0.32913688 0.31307392
v 0.08976018 -0.51086312 0.00789965
v 0.08976018 -0.32913688 0.00789965
v 0.29978820 -0.42000000 0.06618275
v 0.29978820 -0.42000000 0.25479082
v -0.12026784 -0.42000000 0.06618275
v -0.12026784 -0.42000000 0.25479082
v 0.08976018 -0.24716808 0.16048678
v 0.08976018 -0.59283192 0.16048678
v 0.01346304 -0.55982396 0.25017525
v 0.16605732 -0.55982396 0.25017525
v 0.01346304 -0.28017604 0.25017525
v 0.16605732 -0.28017604 0.25017525
v 0.08976018 -0.42000000 0.33986372
v 0.01346304 -0.55982396 0.07079832
v 0.16605732 -0.55982396 0.07079832
v 0.01346304 -0.28017604 0.07079832
v 0.16605732 -0.28017604 0.07079832
v 0.08976018 -0.42000000 -0.01889015
v 0.28950870 -0.33358404 0.10505626
v 0.28950870 -0.50641596 0.10505626
v 0.21321155 -0.47340800 0.01536780
v 0.21321155 -0.36659200 0.01536780
v 0.28950870 -0.33358404 0.21591731
v 0.28950870 -0.50641596 0.21591731
v 0.21321155 -0.47340800 0.30560577
v 0.21321155 -0.36659200 0.30560577
v 0.33666292 -0.42000000 0.16048678
v -0.10998834 -0.33358404 0.10505626
v -0.10998834 -0.50641596 0.10505626
v -0.03369119 -0.47340800 0.01536780
v -0.03369119 -0.36659200 0.01536780
v -0.10998834 -0.33358404 0.21591731
v -0.10998834 -0.50641596 0.21591731
v -0.03369119 -0.47340800 0.30560577
v -0.03369119 -0.36659200 0.30560577
v -0.15714256 -0.42000000 0.16048678
f 1311 1348 1327
f 1348 1322 1351
f 1327 1351 1316
f 1348 1351 1327
f 1311 1327 1323
f 1327 1316 1328
f 1323 1328 1312
f 1327 1328 1323
f 1311 1323 1332
f 1323 1312 1333
f 1332 1333 1318
f 1323 1333 1332
f 1311 1332 1344
f 1332 1318 1347
f 1344 1347 1321
f 1332 1347 1344
f 1311 1344 1348
f 1344 1321 1352
f 1348 1352 1322
f 1344 1352 1348
f 1312 1328 1339
f 1328 1316 1342
f 1339 1342 1320
f 1328 1342 1339
f 1316 1351 1329
f 1351 1322 1350
f 1329 1350 1315
f 1351 1350 1329
f 1322 1352 1349
f 1352 1321 1345
f 1349 1345 1313
f 1352 1345 1349
f 1321 1347 1346
f 1347 1318 1334
f 1346 1334 1317
f 1347 1334 1346
f 1318 1333 1338
f 1333 1312 1335
f 1338 1335 1319
f 1333 1335 1338
f 1314 1340 1326
f 1340 1320 1341
f 1326 1341 1315
f 1340 1341 1326
f 1314 1326 1324
f 1326 1315 1325
f 1324 1325 1313
f 1326 1325 1324
f 1314 1324 1331
f 1324 1313 1330
f 1331 1330 1317
f 1324 1330 1331
f 1314 1331 1336
f 1331 1317 1337
f 1336 1337 1319
f 1331 1337 1336
f 1314 1336 1340
f 1336 1319 1343
f 1340 1343 1320
f 1336 1343 1340
f 1315 1341 1329
f 1341 1320 1342
f 1329 1342 1316
f 1341 1342 1329
f 1313 1325 1349
f 1325 1315 1350
f 1349 1350 1322
f 1325 1350 1349
f 1317 1330 1346
f 1330 1313 1345
f 1346 1345 1321
f 1330 1345 1346
f 1319 1337 1338
f 1337 1317 1334
f 1338 1334 1318
f 1337 1334 1338
f 1320 1343 1339
f 1343 1319 1335
f 1339 1335 1312
f 1343 1335 1339

o geometry_95
v -0.06051560 -0.29197442 0.13975288
v 0.16555343 -0.29197442 0.13975288
v -0.06051560 -0.54802558 0.13975288
v 0.16555343 -0.54802558 0.13975288
v 0.05251891 -0.49912416 0.29716550
v 0.05251891 -0.34087584 0.29716550
v 0.05251891 -0.49912416 -0.01765975
v 0.05251891 -0.34087584 -0.01765975
v 0.23541260 -0.42000000 0.04246652
v 0.23541260 -0.42000000 0.23703923
v -0.13037478 -0.42000000 0.04246652
v -0.13037478 -0.42000000 0.23703923
v 0.05251891 -0.26949690 0.13975288
v 0.05251891 -0.57050310 0.13975288
v -0.01392111 -0.54175956 0.23227769
v 0.11895893 -0.54175956 0.23227769
v -0.01392111 -0.29824044 0.23227769
v 0.11895893 -0.29824044 0.23227769
v 0.05251891 -0.42000000 0.32480251
v -0.01392111 -0.54175956 0.04722806
v 0.11895893 -0.54175956 0.04722806
v -0.01392111 -0.29824044 0.04722806
v 0.11895893 -0.29824044 0.04722806
v 0.05251891 -0.42000000 -0.04529676
v 0.22646115 -0.34474845 0.08256939
v 0.22646115 -0.49525155 0.08256939
v 0.16002112 -0.46650801 -0.00995543
v 0.16002112 -0.37349199 -0.00995543
v 0.22646115 -0.34474845 0.19693636
v 0.22646115 -0.49525155 0.19693636
v 0.16002112 -0.46650801 0.28946118
v 0.16002112 -0.37349199 0.28946118
v 0.26752334 -0.42000000 0.13975288
v -0.12142332 -0.34474845 0.08256939
v -0.12142332 -0.49525155 0.08256939
v -0.05498330 -0.46650801 -0.00995543
v -0.05498330 -0.37349199 -0.00995543
v -0.12142332 -0.34474845 0.19693636
v -0.12142332 -0.49525155 0.19693636
v -0.05498330 -0.46650801 0.28946118
v -0.05498330 -0.37349199 0.28946118
v -0.16248551 -0.42000000 0.13975288
f 1353 1390 1369
f 1390 1364 1393
f 1369 1393 1358
f 1390 1393 1369
f 1353 1369 1365
f 1369 1358 1370
f 1365 1370 1354
f 1369 1370 1365
f 1353 1365 1374
f 1365 1354 1375
f 1374 1375 1360
f 1365 1375 1374
f 1353 1374 1386
f 1374 1360 1389
f 1386 1389 1363
f 1374 1389 1386
f 1353 1386 1390
f 1386 1363 1394
f 1390 1394 1364
f 1386 1394 1390
f 1354 1370 1381
f 1370 1358 1384
f 1381 1384 1362
f 1370 1384 1381
f 1358 1393 1371
f 1393 1364 1392
f 1371 1392 1357
f 1393 1392 1371
f 1364 1394 1391
f 1394 1363 1387
f 1391 1387 1355
f 1394 1387 1391
f 1363 1389 1388
f 1389 1360 1376
f 1388 1376 1359
f 1389 1376 1388
f 1360 1375 1380
f 1375 1354 1377
f 1380 1377 1361
f 1375 1377 1380
f 1356 1382 1368
f 1382 1362 1383
f 1368 1383 1357
f 1382 1383 1368
f 1356 1368 1366
f 1368 1357 1367
f 1366 1367 1355
f 1368 1367 1366
f 1356 1366 1373
f 1366 1355 1372
f 1373 1372 1359
f 1366 1372 1373
f 1356 1373 1378
f 1373 1359 1379
f 1378 1379 1361
f 1373 1379 1378
f 1356 1378 1382
f 1378 1361 1385
f 1382 1385 1362
f 1378 1385 1382
f 1357 1383 1371
f 1383 1362 1384
f 1371 1384 1358
f 1383 1384 1371
f 1355 1367 1391
f 1367 1357 1392
f 1391 1392 1364
f 1367 1392 1391
f 1359 1372 1388
f 1372 1355 1387
f 1388 1387 1363
f 1372 1387 1388
f 1361 1379 1380
f 1379 1359 1376
f 1380 1376 1360
f 1379 1376 1380
f 1362 1385 1381
f 1385 1361 1377
f 1381 1377 1354
f 1385 1377 1381

o geometry_96
v -0.38196035 -0.35372460 0.07234631
v -0.26493048 -0.35372460 0.07234631
v -0.38196035 -0.48627540 0.07234631
v -0.26493048 -0.48627540 0.07234631
v -0.32344542 -0.46096045 0.13310389
v -0.32344542 -0.37903955 0.13310389
v -0.32344542 -0.46096045 0.01158873
v -0.32344542 -0.37903955 0.01158873
v -0.22876627 -0.42000000 0.03479606
v -0.22876627 -0.42000000 0.10989656
v -0.41812457 -0.42000000 0.03479606
v -0.41812457 -0.42000000 0.10989656
v -0.32344542 -0.34208859 0.07234631
v -0.32344542 -0.49791141 0.07234631
v -0.35783963 -0.48303166 0.10805872
v -0.28905120 -0.48303166 0.10805872
v -0.35783963 -0.35696834 0.10805872
v -0.28905120 -0.35696834 0.10805872
v -0.32344542 -0.42000000 0.14377113
v -0.35783963 -0.48303166 0.03663390
v -0.28905120 -0.48303166 0.03663390
v -0.35783963 -0.35696834 0.03663390
v -0.28905120 -0.35696834 0.03663390
v -0.32344542 -0.42000000 0.00092149
v -0.23340019 -0.38104429 0.05027483
v -0.23340019 -0.45895571 0.05027483
v -0.26779441 -0.44407595 0.01456242
v -0.26779441 -0.39592405 0.01456242
v -0.23340019 -0.38104429 0.09441779
v -0.23340019 -0.45895571 0.09441779
v -0.26779441 -0.44407595 0.13013020
v -0.26779441 -0.39592405 0.13013020
v -0.21214340 -0.42000000 0.07234631
v -0.41349064 -0.38104429 0.05027483
v -0.41349064 -0.45895571 0.05027483
v -0.37909642 -0.44407595 0.01456242
v -0.37909642 -0.39592405 0.01456242
v -0.41349064 -0.38104429 0.09441779
v -0.41349064 -0.45895571 0.09441779
v -0.37909642 -0.44407595 0.13013020
v -0.37909642 -0.39592405 0.13013020
v -0.43474743 -0.42000000 0.07234631
f 1395 1432 1411
f 1432 1406 1435
f 1411 1435 1400
f 1432 1435 1411
f 1395 1411 1407
f 1411 1400 1412
f 1407 1412 1396
f 1411 1412 1407
f 1395 1407 1416
f 1407 1396 1417
f 1416 1417 1402
f 1407 1417 1416
f 1395 1416 1428
f 1416 1402 1431
f 1428 1431 1405
f 1416 1431 1428
f 1395 1428 1432
f 1428 1405 1436
f 1432 1436 1406
f 1428 1436 1432
f 1396 1412 1423
f 1412 1400 1426
f 1423 1426 1404
f 1412 1426 1423
f 1400 1435 1413
f 1435 1406 1434
f 1413 1434 1399
f 1435 1434 1413
f 1406 1436 1433
f 1436 1405 1429
f 1433 1429 1397
f 1436 1429 1433
f 1405 1431 1430
f 1431 1402 1418
f 1430 1418 1401
f 1431 1418 1430
f 1402 1417 1422
f 1417 1396 1419
f 1422 1419 1403
f 1417 1419 1422
f 1398 1424 1410
f 1424 1404 1425
f 1410 1425 1399
f 1424 1425 1410
f 1398 1410 1408
f 1410 1399 1409
f 1408 1409 1397
f 1410 1409 1408
f 1398 1408 1415
f 1408 1397 1414
f 1415 1414 1401
f 1408 1414 1415
f 1398 1415 1420
f 1415 1401 1421
f 1420 1421 1403
f 1415 1421 1420
f 1398 1420 1424
f 1420 1403 1427
f 1424 1427 1404
f 1420 1427 1424
f 1399 1425 1413
f 1425 1404 1426
f 1413 1426 1400
f 1425 1426 1413
f 1397 1409 1433
f 1409 1399 1434
f 1433 1434 1406
f 1409 1434 1433
f 1401 1414 1430
f 1414 1397 1429
f 1430 1429 1405
f 1414 1429 1430
f 1403 1421 1422
f 1421 1401 1418
f 1422 1418 1402
f 1421 1418 1422
f 1404 1427 1423
f 1427 1403 1419
f 1423 1419 1396
f 1427 1419 1423

o geometry_97
v -2.00000000 -0.29500000 0.00000000
v -2.00000000 -0.29500000 0.18000000
v -2.00000000 0.25500000 0.00000000
v -2.00000000 0.25500000 0.18000000
v 2.00000000 -0.29500000 0.00000000
v 2.00000000 -0.29500000 0.18000000
v 2.00000000 0.25500000 0.00000000
v 2.00000000 0.25500000 0.18000000
f 1438 1440 1437
f 1441 1438 1437
f 1437 1440 1439
f 1439 1441 1437
f 1438 1444 1440
f 1442 1438 1441
f 1442 1444 1438
f 1440 1444 1439
f 1443 1441 1439
f 1439 1444 1443
f 1443 1442 1441
f 1444 1442 1443

o geometry_98
v -2.00000000 -0.33000000 3.25000000
v -2.00000000 -0.33000000 3.50000000
v -2.00000000 0.29000000 3.25000000
v -2.00000000 0.29000000 3.50000000
v 2.00000000 -0.33000000 3.25000000
v 2.00000000 -0.33000000 3.50000000
v 2.00000000 0.29000000 3.25000000
v 2.00000000 0.29000000 3.50000000
f 1446 1448 1445
f 1449 1446 1445
f 1445 1448 1447
f 1447 1449 1445
f 1446 1452 1448
f 1450 1446 1449
f 1450 1452 1446
f 1448 1452 1447
f 1451 1449 1447
f 1447 1452 1451
f 1451 1450 1449
f 1452 1450 1451

