# https://github.com/mikedh/trimesh

o geometry_0
v -1.99025061 -0.48207539 0.00599776
v -1.99025061 -0.48207539 0.48099776
v -1.99174705 -0.00207772 0.00599776
v -1.99174705 -0.00207772 0.48099776
v -1.50931754 -0.48057603 0.00599776
v -1.50931754 -0.48057603 0.48099776
v -1.51081399 -0.00057836 0.00599776
v -1.51081399 -0.00057836 0.48099776
f 2 4 1
f 5 2 1
f 1 4 3
f 3 5 1
f 2 8 4
f 6 2 5
f 6 8 2
f 4 8 3
f 7 5 3
f 3 8 7
f 7 6 5
f 8 6 7

o geometry_1
v 0.00710903 -0.47690896 -0.00078345
v 0.00710903 -0.47690896 0.47421655
v -0.00002799 0.00303798 -0.00078345
v -0.00002799 0.00303798 0.47421655
v 0.56591823 -0.46859922 -0.00078345
v 0.56591823 -0.46859922 0.47421655
v 0.55878121 0.01134772 -0.00078345
v 0.55878121 0.01134772 0.47421655
f 10 12 9
f 13 10 9
f 9 12 11
f 11 13 9
f 10 16 12
f 14 10 13
f 14 16 10
f 12 16 11
f 15 13 11
f 11 16 15
f 15 14 13
f 16 14 15

o geometry_2
v 0.58138412 -0.49115799 0.01131766
v 0.58138412 -0.49115799 0.48631766
v 0.57938155 -0.01116217 0.01131766
v 0.57938155 -0.01116217 0.48631766
v 1.09251393 -0.48902552 0.01131766
v 1.09251393 -0.48902552 0.48631766
v 1.09051136 -0.00902970 0.01131766
v 1.09051136 -0.00902970 0.48631766
f 18 20 17
f 21 18 17
f 17 20 19
f 19 21 17
f 18 24 20
f 22 18 21
f 22 24 18
f 20 24 19
f 23 21 19
f 19 24 23
f 23 22 21
f 24 22 23

o geometry_3
v 1.10968183 -0.48420904 0.03090227
v 1.10968183 -0.48420904 0.50590227
v 1.10934802 -0.00420916 0.03090227
v 1.10934802 -0.00420916 0.50590227
v 1.57926185 -0.48388248 0.03090227
v 1.57926185 -0.48388248 0.50590227
v 1.57892804 -0.00388260 0.03090227
v 1.57892804 -0.00388260 0.50590227
f 26 28 25
f 29 26 25
f 25 28 27
f 27 29 25
f 26 32 28
f 30 26 29
f 30 32 26
f 28 32 27
f 31 29 27
f 27 32 31
f 31 30 29
f 32 30 31

o geometry_4
v 1.59896015 -0.48666090 -0.00929843
v 1.59896015 -0.48666090 0.46570157
v 1.59524167 -0.00667530 -0.00929843
v 1.59524167 -0.00667530 0.46570157
v 1.99285333 -0.48360939 -0.00929843
v 1.99285333 -0.48360939 0.46570157
v 1.98913485 -0.00362379 -0.00929843
v 1.98913485 -0.00362379 0.46570157
f 34 36 33
f 37 34 33
f 33 36 35
f 35 37 33
f 34 40 36
f 38 34 37
f 38 40 34
f 36 40 35
f 39 37 35
f 35 40 39
f 39 38 37
f 40 38 39

o geometry_5
v -1.98834832 -0.47765899 0.48905059
v -1.98834832 -0.47765899 0.96405059
v -1.99361181 0.00231215 0.48905059
v -1.99361181 0.00231215 0.96405059
v -1.32533451 -0.47038821 0.48905059
v -1.32533451 -0.47038821 0.96405059
v -1.33059799 0.00958293 0.48905059
v -1.33059799 0.00958293 0.96405059
f 42 44 41
f 45 42 41
f 41 44 43
f 43 45 41
f 42 48 44
f 46 42 45
f 46 48 42
f 44 48 43
f 47 45 43
f 43 48 47
f 47 46 45
f 48 46 47

o geometry_6
v 0.05292980 -0.48530436 0.53355493
v 0.05292980 -0.48530436 1.00855493
v 0.05444232 -0.00530674 0.53355493
v 0.05444232 -0.00530674 1.00855493
v 0.76273335 -0.48754103 0.53355493
v 0.76273335 -0.48754103 1.00855493
v 0.76424588 -0.00754341 0.53355493
v 0.76424588 -0.00754341 1.00855493
f 50 52 49
f 53 50 49
f 49 52 51
f 51 53 49
f 50 56 52
f 54 50 53
f 54 56 50
f 52 56 51
f 55 53 51
f 51 56 55
f 55 54 53
f 56 54 55

o geometry_7
v 0.78424167 -0.48228493 0.53427934
v 0.78424167 -0.48228493 1.00927934
v 0.77878611 -0.00231594 0.53427934
v 0.77878611 -0.00231594 1.00927934
v 1.48134432 -0.47436132 0.53427934
v 1.48134432 -0.47436132 1.00927934
v 1.47588876 0.00560767 0.53427934
v 1.47588876 0.00560767 1.00927934
f 58 60 57
f 61 58 57
f 57 60 59
f 59 61 57
f 58 64 60
f 62 58 61
f 62 64 58
f 60 64 59
f 63 61 59
f 59 64 63
f 63 62 61
f 64 62 63

o geometry_8
v 1.50001450 -0.47250728 0.49834935
v 1.50001450 -0.47250728 0.97334935
v 1.49331180 0.00744592 0.49834935
v 1.49331180 0.00744592 0.97334935
v 1.99432725 -0.46560405 0.49834935
v 1.99432725 -0.46560405 0.97334935
v 1.98762455 0.01434915 0.49834935
v 1.98762455 0.01434915 0.97334935
f 66 68 65
f 69 66 65
f 65 68 67
f 67 69 65
f 66 72 68
f 70 66 69
f 70 72 66
f 68 72 67
f 71 69 67
f 67 72 71
f 71 70 69
f 72 70 71

o geometry_9
v -1.99094784 -0.48386874 1.00255131
v -1.99094784 -0.48386874 1.47755131
v -1.99105214 -0.00386876 1.00255131
v -1.99105214 -0.00386876 1.47755131
v -1.35307155 -0.48373014 1.00255131
v -1.35307155 -0.48373014 1.47755131
v -1.35317585 -0.00373015 1.00255131
v -1.35317585 -0.00373015 1.47755131
f 74 76 73
f 77 74 73
f 73 76 75
f 75 77 73
f 74 80 76
f 78 74 77
f 78 80 74
f 76 80 75
f 79 77 75
f 75 80 79
f 79 78 77
f 80 78 79

o geometry_10
v -0.04408228 -0.48433125 1.03271009
v -0.04408228 -0.48433125 1.50771009
v -0.04670281 -0.00433841 1.03271009
v -0.04670281 -0.00433841 1.50771009
v 0.61798240 -0.48071670 1.03271009
v 0.61798240 -0.48071670 1.50771009
v 0.61536187 -0.00072385 1.03271009
v 0.61536187 -0.00072385 1.50771009
f 82 84 81
f 85 82 81
f 81 84 83
f 83 85 81
f 82 88 84
f 86 82 85
f 86 88 82
f 84 88 83
f 87 85 83
f 83 88 87
f 87 86 85
f 88 86 87

o geometry_11
v 0.63591497 -0.49253334 1.03704948
v 0.63591497 -0.49253334 1.51204948
v 0.63344864 -0.01253967 1.03704948
v 0.63344864 -0.01253967 1.51204948
v 1.35385915 -0.48884436 1.03704948
v 1.35385915 -0.48884436 1.51204948
v 1.35139282 -0.00885070 1.03704948
v 1.35139282 -0.00885070 1.51204948
f 90 92 89
f 93 90 89
f 89 92 91
f 91 93 89
f 90 96 92
f 94 90 93
f 94 96 90
f 92 96 91
f 95 93 91
f 91 96 95
f 95 94 93
f 96 94 95

o geometry_12
v 1.37356634 -0.49440418 1.03573165
v 1.37356634 -0.49440418 1.51073165
v 1.36773886 -0.01443955 1.03573165
v 1.36773886 -0.01443955 1.51073165
v 1.96702629 -0.48719870 1.03573165
v 1.96702629 -0.48719870 1.51073165
v 1.96119881 -0.00723407 1.03573165
v 1.96119881 -0.00723407 1.51073165
f 98 100 97
f 101 98 97
f 97 100 99
f 99 101 97
f 98 104 100
f 102 98 101
f 102 104 98
f 100 104 99
f 103 101 99
f 99 104 103
f 103 102 101
f 104 102 103

o geometry_13
v 1.98452217 -0.48644673 0.99805625
v 1.98452217 -0.48644673 1.47305625
v 1.97974710 -0.00647048 0.99805625
v 1.97974710 -0.00647048 1.47305625
v 1.99338732 -0.48635854 0.99805625
v 1.99338732 -0.48635854 1.47305625
v 1.98861224 -0.00638229 0.99805625
v 1.98861224 -0.00638229 1.47305625
f 106 108 105
f 109 106 105
f 105 108 107
f 107 109 105
f 106 112 108
f 110 106 109
f 110 112 106
f 108 112 107
f 111 109 107
f 107 112 111
f 111 110 109
f 112 110 111

o geometry_14
v -1.98843305 -0.47704022 1.49067303
v -1.98843305 -0.47704022 1.96567303
v -1.99352973 0.00293273 1.49067303
v -1.99352973 0.00293273 1.96567303
v -1.32827126 -0.47003017 1.49067303
v -1.32827126 -0.47003017 1.96567303
v -1.33336794 0.00994277 1.49067303
v -1.33336794 0.00994277 1.96567303
f 114 116 113
f 117 114 113
f 113 116 115
f 115 117 113
f 114 120 116
f 118 114 117
f 118 120 114
f 116 120 115
f 119 117 115
f 115 120 119
f 119 118 117
f 120 118 119

o geometry_15
v 0.03094936 -0.47515411 1.49503827
v 0.03094936 -0.47515411 1.97003827
v 0.03391731 0.00483671 1.49503827
v 0.03391731 0.00483671 1.97003827
v 0.72803278 -0.47946442 1.49503827
v 0.72803278 -0.47946442 1.97003827
v 0.73100073 0.00052640 1.49503827
v 0.73100073 0.00052640 1.97003827
f 122 124 121
f 125 122 121
f 121 124 123
f 123 125 121
f 122 128 124
f 126 122 125
f 126 128 122
f 124 128 123
f 127 125 123
f 123 128 127
f 127 126 125
f 128 126 127

o geometry_16
v 0.74835009 -0.49237032 1.48970950
v 0.74835009 -0.49237032 1.96470950
v 0.74670082 -0.01237315 1.48970950
v 0.74670082 -0.01237315 1.96470950
v 1.44027469 -0.48999287 1.48970950
v 1.44027469 -0.48999287 1.96470950
v 1.43862542 -0.00999570 1.48970950
v 1.43862542 -0.00999570 1.96470950
f 130 132 129
f 133 130 129
f 129 132 131
f 131 133 129
f 130 136 132
f 134 130 133
f 134 136 130
f 132 136 131
f 135 133 131
f 131 136 135
f 135 134 133
f 136 134 135

o geometry_17
v 1.46021197 -0.48958595 1.50404771
v 1.46021197 -0.48958595 1.97904771
v 1.45472706 -0.00961729 1.50404771
v 1.45472706 -0.00961729 1.97904771
v 1.99372504 -0.48348914 1.50404771
v 1.99372504 -0.48348914 1.97904771
v 1.98824012 -0.00352048 1.50404771
v 1.98824012 -0.00352048 1.97904771
f 138 140 137
f 141 138 137
f 137 140 139
f 139 141 137
f 138 144 140
f 142 138 141
f 142 144 138
f 140 144 139
f 143 141 139
f 139 144 143
f 143 142 141
f 144 142 143

o geometry_18
v -1.99236445 -0.47808501 2.03742545
v -1.99236445 -0.47808501 2.51242545
v -1.98962371 0.00190717 2.03742545
v -1.98962371 0.00190717 2.51242545
v -1.26602298 -0.48223239 2.03742545
v -1.26602298 -0.48223239 2.51242545
v -1.26328224 -0.00224021 2.03742545
v -1.26328224 -0.00224021 2.51242545
f 146 148 145
f 149 146 145
f 145 148 147
f 147 149 145
f 146 152 148
f 150 146 149
f 150 152 146
f 148 152 147
f 151 149 147
f 147 152 151
f 151 150 149
f 152 150 151

o geometry_19
v -1.24881355 -0.48035251 1.98906889
v -1.24881355 -0.48035251 2.46406889
v -1.24445595 -0.00037229 1.98906889
v -1.24445595 -0.00037229 2.46406889
v -0.66932969 -0.48561348 1.98906889
v -0.66932969 -0.48561348 2.46406889
v -0.66497209 -0.00563326 1.98906889
v -0.66497209 -0.00563326 2.46406889
f 154 156 153
f 157 154 153
f 153 156 155
f 155 157 153
f 154 160 156
f 158 154 157
f 158 160 154
f 156 160 155
f 159 157 155
f 155 160 159
f 159 158 157
f 160 158 159

o geometry_20
v -0.65240348 -0.47894498 1.99530995
v -0.65240348 -0.47894498 2.47030995
v -0.64581476 0.00100980 1.99530995
v -0.64581476 0.00100980 2.47030995
v -0.01917352 -0.48763783 1.99530995
v -0.01917352 -0.48763783 2.47030995
v -0.01258480 -0.00768305 1.99530995
v -0.01258480 -0.00768305 2.47030995
f 162 164 161
f 165 162 161
f 161 164 163
f 163 165 161
f 162 168 164
f 166 162 165
f 166 168 162
f 164 168 163
f 167 165 163
f 163 168 167
f 167 166 165
f 168 166 167

o geometry_21
v 0.00503162 -0.47861043 2.03543297
v 0.00503162 -0.47861043 2.51043297
v -0.00068015 0.00135558 2.03543297
v -0.00068015 0.00135558 2.51043297
v 0.71299558 -0.47018541 2.03543297
v 0.71299558 -0.47018541 2.51043297
v 0.70728382 0.00978060 2.03543297
v 0.70728382 0.00978060 2.51043297
f 170 172 169
f 173 170 169
f 169 172 171
f 171 173 169
f 170 176 172
f 174 170 173
f 174 176 170
f 172 176 171
f 175 173 171
f 171 176 175
f 175 174 173
f 176 174 175

o geometry_22
v 0.72920369 -0.48016632 2.01350365
v 0.72920369 -0.48016632 2.48850365
v 0.72713170 -0.00017080 2.01350365
v 0.72713170 -0.00017080 2.48850365
v 1.35758858 -0.47745378 2.01350365
v 1.35758858 -0.47745378 2.48850365
v 1.35551659 0.00254175 2.01350365
v 1.35551659 0.00254175 2.48850365
f 178 180 177
f 181 178 177
f 177 180 179
f 179 181 177
f 178 184 180
f 182 178 181
f 182 184 178
f 180 184 179
f 183 181 179
f 179 184 183
f 183 182 181
f 184 182 183

o geometry_23
v 1.37775482 -0.48583102 2.01850631
v 1.37775482 -0.48583102 2.49350631
v 1.37141006 -0.00587296 2.01850631
v 1.37141006 -0.00587296 2.49350631
v 1.99414545 -0.47768270 2.01850631
v 1.99414545 -0.47768270 2.49350631
v 1.98780069 0.00227536 2.01850631
v 1.98780069 0.00227536 2.49350631
f 186 188 185
f 189 186 185
f 185 188 187
f 187 189 185
f 186 192 188
f 190 186 189
f 190 192 186
f 188 192 187
f 191 189 187
f 187 192 191
f 191 190 189
f 192 190 191

o geometry_24
v -1.99287895 -0.47537268 2.52351556
v -1.99287895 -0.47537268 2.99851556
v -1.98910094 0.00461245 2.52351556
v -1.98910094 0.00461245 2.99851556
v -1.34350720 -0.48048395 2.52351556
v -1.34350720 -0.48048395 2.99851556
v -1.33972920 -0.00049881 2.52351556
v -1.33972920 -0.00049881 2.99851556
f 194 196 193
f 197 194 193
f 193 196 195
f 195 197 193
f 194 200 196
f 198 194 197
f 198 200 194
f 196 200 195
f 199 197 195
f 195 200 199
f 199 198 197
f 200 198 199

o geometry_25
v -1.32325912 -0.49478111 2.51355636
v -1.32325912 -0.49478111 2.98855636
v -1.32395652 -0.01478162 2.51355636
v -1.32395652 -0.01478162 2.98855636
v -0.70733315 -0.49388622 2.51355636
v -0.70733315 -0.49388622 2.98855636
v -0.70803055 -0.01388673 2.51355636
v -0.70803055 -0.01388673 2.98855636
f 202 204 201
f 205 202 201
f 201 204 203
f 203 205 201
f 202 208 204
f 206 202 205
f 206 208 202
f 204 208 203
f 207 205 203
f 203 208 207
f 207 206 205
f 208 206 207

o geometry_26
v -0.69310754 -0.47333622 2.51649826
v -0.69310754 -0.47333622 2.99149826
v -0.68619654 0.00661402 2.51649826
v -0.68619654 0.00661402 2.99149826
v -0.12430467 -0.48152665 2.51649826
v -0.12430467 -0.48152665 2.99149826
v -0.11739367 -0.00157640 2.51649826
v -0.11739367 -0.00157640 2.99149826
f 210 212 209
f 213 210 209
f 209 212 211
f 211 213 209
f 210 216 212
f 214 210 213
f 214 216 210
f 212 216 211
f 215 213 211
f 211 216 215
f 215 214 213
f 216 214 215

o geometry_27
v -0.10190040 -0.48523784 2.49050403
v -0.10190040 -0.48523784 2.96550403
v -0.10373411 -0.00524134 2.49050403
v -0.10373411 -0.00524134 2.96550403
v 0.56516190 -0.48268949 2.49050403
v 0.56516190 -0.48268949 2.96550403
v 0.56332819 -0.00269299 2.49050403
v 0.56332819 -0.00269299 2.96550403
f 218 220 217
f 221 218 217
f 217 220 219
f 219 221 217
f 218 224 220
f 222 218 221
f 222 224 218
f 220 224 219
f 223 221 219
f 219 224 223
f 223 222 221
f 224 222 223

o geometry_28
v 0.58374371 -0.48736911 2.50512885
v 0.58374371 -0.48736911 2.98012885
v 0.58076364 -0.00737836 2.50512885
v 0.58076364 -0.00737836 2.98012885
v 1.22649701 -0.48337852 2.50512885
v 1.22649701 -0.48337852 2.98012885
v 1.22351695 -0.00338777 2.50512885
v 1.22351695 -0.00338777 2.98012885
f 226 228 225
f 229 226 225
f 225 228 227
f 227 229 225
f 226 232 228
f 230 226 229
f 230 232 226
f 228 232 227
f 231 229 227
f 227 232 231
f 231 230 229
f 232 230 231

o geometry_29
v 1.24428530 -0.46747583 2.49052884
v 1.24428530 -0.46747583 2.96552884
v 1.24175062 0.01251748 2.49052884
v 1.24175062 0.01251748 2.96552884
v 1.93120630 -0.46384843 2.49052884
v 1.93120630 -0.46384843 2.96552884
v 1.92867162 0.01614488 2.49052884
v 1.92867162 0.01614488 2.96552884
f 234 236 233
f 237 234 233
f 233 236 235
f 235 237 233
f 234 240 236
f 238 234 237
f 238 240 234
f 236 240 235
f 239 237 235
f 235 240 239
f 239 238 237
f 240 238 239

o geometry_30
v 1.94861107 -0.47259259 2.51031561
v 1.94861107 -0.47259259 2.98531561
v 1.94727659 0.00740555 2.51031561
v 1.94727659 0.00740555 2.98531561
v 1.99166715 -0.47247289 2.51031561
v 1.99166715 -0.47247289 2.98531561
v 1.99033268 0.00752526 2.51031561
v 1.99033268 0.00752526 2.98531561
f 242 244 241
f 245 242 241
f 241 244 243
f 243 245 241
f 242 248 244
f 246 242 245
f 246 248 242
f 244 248 243
f 247 245 243
f 243 248 247
f 247 246 245
f 248 246 247

o geometry_31
v -1.99194020 -0.47495194 3.00313353
v -1.99194020 -0.47495194 3.47813353
v -1.99005602 0.00504436 3.00313353
v -1.99005602 0.00504436 3.47813353
v -1.50034068 -0.47688167 3.00313353
v -1.50034068 -0.47688167 3.47813353
v -1.49845650 0.00311464 3.00313353
v -1.49845650 0.00311464 3.47813353
f 250 252 249
f 253 250 249
f 249 252 251
f 251 253 249
f 250 256 252
f 254 250 253
f 254 256 250
f 252 256 251
f 255 253 251
f 251 256 255
f 255 254 253
f 256 254 255

o geometry_32
v -1.47942756 -0.47615817 3.00635802
v -1.47942756 -0.47615817 3.48135802
v -1.48334825 0.00382582 3.00635802
v -1.48334825 0.00382582 3.48135802
v -0.95201435 -0.47185006 3.00635802
v -0.95201435 -0.47185006 3.48135802
v -0.95593505 0.00813393 3.00635802
v -0.95593505 0.00813393 3.48135802
f 258 260 257
f 261 258 257
f 257 260 259
f 259 261 257
f 258 264 260
f 262 258 261
f 262 264 258
f 260 264 259
f 263 261 259
f 259 264 263
f 263 262 261
f 264 262 263

o geometry_33
v -0.93733009 -0.48078149 3.02425866
v -0.93733009 -0.48078149 3.49925866
v -0.93459435 -0.00078928 3.02425866
v -0.93459435 -0.00078928 3.49925866
v -0.48383770 -0.48336620 3.02425866
v -0.48383770 -0.48336620 3.49925866
v -0.48110196 -0.00337399 3.02425866
v -0.48110196 -0.00337399 3.49925866
f 266 268 265
f 269 266 265
f 265 268 267
f 267 269 265
f 266 272 268
f 270 266 269
f 270 272 266
f 268 272 267
f 271 269 267
f 267 272 271
f 271 270 269
f 272 270 271

o geometry_34
v -0.46670634 -0.48685797 2.99943476
v -0.46670634 -0.48685797 3.47443476
v -0.46220489 -0.00687907 2.99943476
v -0.46220489 -0.00687907 3.47443476
v 0.01220251 -0.49134939 2.99943476
v 0.01220251 -0.49134939 3.47443476
v 0.01670397 -0.01137049 2.99943476
v 0.01670397 -0.01137049 3.47443476
f 274 276 273
f 277 274 273
f 273 276 275
f 275 277 273
f 274 280 276
f 278 274 277
f 278 280 274
f 276 280 275
f 279 277 275
f 275 280 279
f 279 278 277
f 280 278 279

o geometry_35
v 0.03118555 -0.48458575 2.99259208
v 0.03118555 -0.48458575 3.46759208
v 0.03374922 -0.00459259 2.99259208
v 0.03374922 -0.00459259 3.46759208
v 0.53775878 -0.48729139 2.99259208
v 0.53775878 -0.48729139 3.46759208
v 0.54032246 -0.00729824 2.99259208
v 0.54032246 -0.00729824 3.46759208
f 282 284 281
f 285 282 281
f 281 284 283
f 283 285 281
f 282 288 284
f 286 282 285
f 286 288 282
f 284 288 283
f 287 285 283
f 283 288 287
f 287 286 285
f 288 286 287

o geometry_36
v 0.55961807 -0.49262372 3.00942154
v 0.55961807 -0.49262372 3.48442154
v 0.55449846 -0.01265102 3.00942154
v 0.55449846 -0.01265102 3.48442154
v 1.05297798 -0.48736131 3.00942154
v 1.05297798 -0.48736131 3.48442154
v 1.04785837 -0.00738862 3.00942154
v 1.04785837 -0.00738862 3.48442154
f 290 292 289
f 293 290 289
f 289 292 291
f 291 293 289
f 290 296 292
f 294 290 293
f 294 296 290
f 292 296 291
f 295 293 291
f 291 296 295
f 295 294 293
f 296 294 295

o geometry_37
v 1.07121915 -0.47781037 3.02001162
v 1.07121915 -0.47781037 3.49501162
v 1.06567674 0.00215763 3.02001162
v 1.06567674 0.00215763 3.49501162
v 1.54319463 -0.47236025 3.02001162
v 1.54319463 -0.47236025 3.49501162
v 1.53765222 0.00760775 3.02001162
v 1.53765222 0.00760775 3.49501162
f 298 300 297
f 301 298 297
f 297 300 299
f 299 301 297
f 298 304 300
f 302 298 301
f 302 304 298
f 300 304 299
f 303 301 299
f 299 304 303
f 303 302 301
f 304 302 303

o geometry_38
v 1.55865256 -0.47194298 2.99354597
v 1.55865256 -0.47194298 3.46854597
v 1.55822593 0.00805683 2.99354597
v 1.55822593 0.00805683 3.46854597
v 1.99121323 -0.47155850 2.99354597
v 1.99121323 -0.47155850 3.46854597
v 1.99078660 0.00844131 2.99354597
v 1.99078660 0.00844131 3.46854597
f 306 308 305
f 309 306 305
f 305 308 307
f 307 309 305
f 306 312 308
f 310 306 309
f 310 312 306
f 308 312 307
f 311 309 307
f 307 312 311
f 311 310 309
f 312 310 311

o geometry_39
v -1.05000000 -0.60000000 0.02000000
v -1.05000000 -0.60000000 1.98000000
v -1.05000000 -0.48000000 0.02000000
v -1.05000000 -0.48000000 1.98000000
v -0.19000000 -0.60000000 0.02000000
v -0.19000000 -0.60000000 1.98000000
v -0.19000000 -0.48000000 0.02000000
v -0.19000000 -0.48000000 1.98000000
f 314 316 313
f 317 314 313
f 313 316 315
f 315 317 313
f 314 320 316
f 318 314 317
f 318 320 314
f 316 320 315
f 319 317 315
f 315 320 319
f 319 318 317
f 320 318 319

o geometry_40
v -1.30000000 -0.64000000 0.00000000
v -1.30000000 -0.64000000 2.00000000
v -1.30000000 0.02000000 0.00000000
v -1.30000000 0.02000000 2.00000000
v -1.08000000 -0.64000000 0.00000000
v -1.08000000 -0.64000000 2.00000000
v -1.08000000 0.02000000 0.00000000
v -1.08000000 0.02000000 2.00000000
f 322 324 321
f 325 322 321
f 321 324 323
f 323 325 321
f 322 328 324
f 326 322 325
f 326 328 322
f 324 328 323
f 327 325 323
f 323 328 327
f 327 326 325
f 328 326 327

o geometry_41
v -0.16000000 -0.64000000 0.00000000
v -0.16000000 -0.64000000 2.00000000
v -0.16000000 0.02000000 0.00000000
v -0.16000000 0.02000000 2.00000000
v 0.06000000 -0.64000000 0.00000000
v 0.06000000 -0.64000000 2.00000000
v 0.06000000 0.02000000 0.00000000
v 0.06000000 0.02000000 2.00000000
f 330 332 329
f 333 330 329
f 329 332 331
f 331 333 329
f 330 336 332
f 334 330 333
f 334 336 330
f 332 336 331
f 335 333 331
f 331 336 335
f 335 334 333
f 336 334 335

o geometry_42
v -1.30000000 -0.64000000 1.90000000
v -1.30000000 -0.64000000 2.14000000
v -1.30000000 0.02000000 1.90000000
v -1.30000000 0.02000000 2.14000000
v 0.06000000 -0.64000000 1.90000000
v 0.06000000 -0.64000000 2.14000000
v 0.06000000 0.02000000 1.90000000
v 0.06000000 0.02000000 2.14000000
f 338 340 337
f 341 338 337
f 337 340 339
f 339 341 337
f 338 344 340
f 342 338 341
f 342 344 338
f 340 344 339
f 343 341 339
f 339 344 343
f 343 342 341
f 344 342 343

o geometry_43
v -1.99025061 -0.48207539 0.00599776
v -1.99025061 -0.48207539 0.48099776
v -1.99174705 -0.00207772 0.00599776
v -1.99174705 -0.00207772 0.48099776
v -1.50931754 -0.48057603 0.00599776
v -1.50931754 -0.48057603 0.48099776
v -1.51081399 -0.00057836 0.00599776
v -1.51081399 -0.00057836 0.48099776
f 346 348 345
f 349 346 345
f 345 348 347
f 347 349 345
f 346 352 348
f 350 346 349
f 350 352 346
f 348 352 347
f 351 349 347
f 347 352 351
f 351 350 349
f 352 350 351

o geometry_44
v -1.48962125 -0.46964320 -0.01184160
v -1.48962125 -0.46964320 0.46315840
v -1.49448072 0.01033220 -0.01184160
v -1.49448072 0.01033220 0.46315840
v -0.95830484 -0.46426393 -0.01184160
v -0.95830484 -0.46426393 0.46315840
v -0.96316431 0.01571147 -0.01184160
v -0.96316431 0.01571147 0.46315840
f 354 356 353
f 357 354 353
f 353 356 355
f 355 357 353
f 354 360 356
f 358 354 357
f 358 360 354
f 356 360 355
f 359 357 355
f 355 360 359
f 359 358 357
f 360 358 359

o geometry_45
v -0.94293497 -0.47181407 0.03728224
v -0.94293497 -0.47181407 0.51228224
v -0.94250676 0.00818574 0.03728224
v -0.94250676 0.00818574 0.51228224
v -0.45921914 -0.47224559 0.03728224
v -0.45921914 -0.47224559 0.51228224
v -0.45879093 0.00775422 0.03728224
v -0.45879093 0.00775422 0.51228224
f 362 364 361
f 365 362 361
f 361 364 363
f 363 365 361
f 362 368 364
f 366 362 365
f 366 368 362
f 364 368 363
f 367 365 363
f 363 368 367
f 367 366 365
f 368 366 367

o geometry_46
v -0.44350511 -0.47634925 0.01945341
v -0.44350511 -0.47634925 0.49445341
v -0.43847408 0.00362439 0.01945341
v -0.43847408 0.00362439 0.49445341
v 0.11520419 -0.48220558 0.01945341
v 0.11520419 -0.48220558 0.49445341
v 0.12023522 -0.00223194 0.01945341
v 0.12023522 -0.00223194 0.49445341
f 370 372 369
f 373 370 369
f 369 372 371
f 371 373 369
f 370 376 372
f 374 370 373
f 374 376 370
f 372 376 371
f 375 373 371
f 371 376 375
f 375 374 373
f 376 374 375

o geometry_47
v 1.26399610 -0.48382956 0.02107057
v 1.26399610 -0.48382956 0.49607057
v 1.27027386 -0.00387061 0.02107057
v 1.27027386 -0.00387061 0.49607057
v 1.78196535 -0.49060450 0.02107057
v 1.78196535 -0.49060450 0.49607057
v 1.78824312 -0.01064555 0.02107057
v 1.78824312 -0.01064555 0.49607057
f 378 380 377
f 381 378 377
f 377 380 379
f 379 381 377
f 378 384 380
f 382 378 381
f 382 384 378
f 380 384 379
f 383 381 379
f 379 384 383
f 383 382 381
f 384 382 383

o geometry_48
v 1.79975908 -0.48138762 0.00256338
v 1.79975908 -0.48138762 0.47756338
v 1.80651229 -0.00143513 0.00256338
v 1.80651229 -0.00143513 0.47756338
v 1.98761410 -0.48403085 0.00256338
v 1.98761410 -0.48403085 0.47756338
v 1.99436731 -0.00407836 0.00256338
v 1.99436731 -0.00407836 0.47756338
f 386 388 385
f 389 386 385
f 385 388 387
f 387 389 385
f 386 392 388
f 390 386 389
f 390 392 386
f 388 392 387
f 391 389 387
f 387 392 391
f 391 390 389
f 392 390 391

o geometry_49
v -1.98824976 -0.48318788 0.52344120
v -1.98824976 -0.48318788 0.99844120
v -1.99370455 -0.00321888 0.52344120
v -1.99370455 -0.00321888 0.99844120
v -1.28064728 -0.47514607 0.52344120
v -1.28064728 -0.47514607 0.99844120
v -1.28610207 0.00482294 0.52344120
v -1.28610207 0.00482294 0.99844120
f 394 396 393
f 397 394 393
f 393 396 395
f 395 397 393
f 394 400 396
f 398 394 397
f 398 400 394
f 396 400 395
f 399 397 395
f 395 400 399
f 399 398 397
f 400 398 399

o geometry_50
v -1.26317139 -0.49570616 0.50724817
v -1.26317139 -0.49570616 0.98224817
v -1.26750442 -0.01572572 0.50724817
v -1.26750442 -0.01572572 0.98224817
v -0.58015318 -0.48954020 0.50724817
v -0.58015318 -0.48954020 0.98224817
v -0.58448621 -0.00955976 0.50724817
v -0.58448621 -0.00955976 0.98224817
f 402 404 401
f 405 402 401
f 401 404 403
f 403 405 401
f 402 408 404
f 406 402 405
f 406 408 402
f 404 408 403
f 407 405 403
f 403 408 407
f 407 406 405
f 408 406 407

o geometry_51
v -0.56718073 -0.48919028 0.53144333
v -0.56718073 -0.48919028 1.00644333
v -0.56138422 -0.00922528 0.53144333
v -0.56138422 -0.00922528 1.00644333
v 0.07202357 -0.49690992 0.53144333
v 0.07202357 -0.49690992 1.00644333
v 0.07782009 -0.01694492 0.53144333
v 0.07782009 -0.01694492 1.00644333
f 410 412 409
f 413 410 409
f 409 412 411
f 411 413 409
f 410 416 412
f 414 410 413
f 414 416 410
f 412 416 411
f 415 413 411
f 411 416 415
f 415 414 413
f 416 414 415

o geometry_52
v 1.31887383 -0.47607882 0.51883241
v 1.31887383 -0.47607882 0.99383241
v 1.32173903 0.00391263 0.51883241
v 1.32173903 0.00391263 0.99383241
v 1.98956142 -0.48008234 0.51883241
v 1.98956142 -0.48008234 0.99383241
v 1.99242663 -0.00009089 0.51883241
v 1.99242663 -0.00009089 0.99383241
f 418 420 417
f 421 418 417
f 417 420 419
f 419 421 417
f 418 424 420
f 422 418 421
f 422 424 418
f 420 424 419
f 423 421 419
f 419 424 423
f 423 422 421
f 424 422 423

o geometry_53
v -1.99038641 -0.47740395 1.00504552
v -1.99038641 -0.47740395 1.48004552
v -1.99161148 0.00259449 1.00504552
v -1.99161148 0.00259449 1.48004552
v -1.34096154 -0.47574647 1.00504552
v -1.34096154 -0.47574647 1.48004552
v -1.34218661 0.00425197 1.00504552
v -1.34218661 0.00425197 1.48004552
f 426 428 425
f 429 426 425
f 425 428 427
f 427 429 425
f 426 432 428
f 430 426 429
f 430 432 426
f 428 432 427
f 431 429 427
f 427 432 431
f 431 430 429
f 432 430 431

o geometry_54
v -1.32045729 -0.49636511 1.02159911
v -1.32045729 -0.49636511 1.49659911
v -1.32663394 -0.01640486 1.02159911
v -1.32663394 -0.01640486 1.49659911
v -0.65857118 -0.48784725 1.02159911
v -0.65857118 -0.48784725 1.49659911
v -0.66474782 -0.00788699 1.02159911
v -0.66474782 -0.00788699 1.49659911
f 434 436 433
f 437 434 433
f 433 436 435
f 435 437 433
f 434 440 436
f 438 434 437
f 438 440 434
f 436 440 435
f 439 437 435
f 435 440 439
f 439 438 437
f 440 438 439

o geometry_55
v -0.64603971 -0.49114888 1.02106368
v -0.64603971 -0.49114888 1.49606368
v -0.64118842 -0.01117340 1.02106368
v -0.64118842 -0.01117340 1.49606368
v 0.06008932 -0.49828598 1.02106368
v 0.06008932 -0.49828598 1.49606368
v 0.06494060 -0.01831050 1.02106368
v 0.06494060 -0.01831050 1.49606368
f 442 444 441
f 445 442 441
f 441 444 443
f 443 445 441
f 442 448 444
f 446 442 445
f 446 448 442
f 444 448 443
f 447 445 443
f 443 448 447
f 447 446 445
f 448 446 447

o geometry_56
v 1.54506791 -0.48014093 1.02319085
v 1.54506791 -0.48014093 1.49819085
v 1.54922765 -0.00015896 1.02319085
v 1.54922765 -0.00015896 1.49819085
v 1.98891179 -0.48398749 1.02319085
v 1.98891179 -0.48398749 1.49819085
v 1.99307154 -0.00400552 1.02319085
v 1.99307154 -0.00400552 1.49819085
f 450 452 449
f 453 450 449
f 449 452 451
f 451 453 449
f 450 456 452
f 454 450 453
f 454 456 450
f 452 456 451
f 455 453 451
f 451 456 455
f 455 454 453
f 456 454 455

o geometry_57
v -1.99411289 -0.47758787 1.50174787
v -1.99411289 -0.47758787 1.97674787
v -1.98782690 0.00237097 1.50174787
v -1.98782690 0.00237097 1.97674787
v -1.29203681 -0.48678291 1.50174787
v -1.29203681 -0.48678291 1.97674787
v -1.28575082 -0.00682407 1.50174787
v -1.28575082 -0.00682407 1.97674787
f 458 460 457
f 461 458 457
f 457 460 459
f 459 461 457
f 458 464 460
f 462 458 461
f 462 464 458
f 460 464 459
f 463 461 459
f 459 464 463
f 463 462 461
f 464 462 463

o geometry_58
v -1.26868511 -0.49786663 1.49192590
v -1.26868511 -0.49786663 1.96692590
v -1.27301362 -0.01788614 1.49192590
v -1.27301362 -0.01788614 1.96692590
v -0.56294815 -0.49150222 1.49192590
v -0.56294815 -0.49150222 1.96692590
v -0.56727666 -0.01152173 1.49192590
v -0.56727666 -0.01152173 1.96692590
f 466 468 465
f 469 466 465
f 465 468 467
f 467 469 465
f 466 472 468
f 470 466 469
f 470 472 466
f 468 472 467
f 471 469 467
f 467 472 471
f 471 470 469
f 472 470 471

o geometry_59
v -0.54515247 -0.47207013 1.50219456
v -0.54515247 -0.47207013 1.97719456
v -0.54902304 0.00791426 1.50219456
v -0.54902304 0.00791426 1.97719456
v 0.08852697 -0.46696018 1.50219456
v 0.08852697 -0.46696018 1.97719456
v 0.08465641 0.01302421 1.50219456
v 0.08465641 0.01302421 1.97719456
f 474 476 473
f 477 474 473
f 473 476 475
f 475 477 473
f 474 480 476
f 478 474 477
f 478 480 474
f 476 480 475
f 479 477 475
f 475 480 479
f 479 478 477
f 480 478 479

o geometry_60
v 1.42239404 -0.46490640 1.52342202
v 1.42239404 -0.46490640 1.99842202
v 1.42482829 0.01508743 1.52342202
v 1.42482829 0.01508743 1.99842202
v 1.98977923 -0.46778385 1.52342202
v 1.98977923 -0.46778385 1.99842202
v 1.99221348 0.01220998 1.52342202
v 1.99221348 0.01220998 1.99842202
f 482 484 481
f 485 482 481
f 481 484 483
f 483 485 481
f 482 488 484
f 486 482 485
f 486 488 482
f 484 488 483
f 487 485 483
f 483 488 487
f 487 486 485
f 488 486 487

o geometry_61
v -1.98737116 -0.49970226 2.01277102
v -1.98737116 -0.49970226 2.48777102
v -1.99454942 -0.01975593 2.01277102
v -1.99454942 -0.01975593 2.48777102
v -1.27730346 -0.48908221 2.01277102
v -1.27730346 -0.48908221 2.48777102
v -1.28448173 -0.00913589 2.01277102
v -1.28448173 -0.00913589 2.48777102
f 490 492 489
f 493 490 489
f 489 492 491
f 491 493 489
f 490 496 492
f 494 490 493
f 494 496 490
f 492 496 491
f 495 493 491
f 491 496 495
f 495 494 493
f 496 494 495

o geometry_62
v -1.26619635 -0.46294619 2.01748814
v -1.26619635 -0.46294619 2.49248814
v -1.25944842 0.01700638 2.01748814
v -1.25944842 0.01700638 2.49248814
v -0.64893598 -0.47162462 2.01748814
v -0.64893598 -0.47162462 2.49248814
v -0.64218804 0.00832795 2.01748814
v -0.64218804 0.00832795 2.49248814
f 498 500 497
f 501 498 497
f 497 500 499
f 499 501 497
f 498 504 500
f 502 498 501
f 502 504 498
f 500 504 499
f 503 501 499
f 499 504 503
f 503 502 501
f 504 502 503

o geometry_63
v -0.62999090 -0.47413593 2.01802336
v -0.62999090 -0.47413593 2.49302336
v -0.62504025 0.00583853 2.01802336
v -0.62504025 0.00583853 2.49302336
v -0.03094772 -0.48031470 2.01802336
v -0.03094772 -0.48031470 2.49302336
v -0.02599707 -0.00034023 2.01802336
v -0.02599707 -0.00034023 2.49302336
f 506 508 505
f 509 506 505
f 505 508 507
f 507 509 505
f 506 512 508
f 510 506 509
f 510 512 506
f 508 512 507
f 511 509 507
f 507 512 511
f 511 510 509
f 512 510 511

o geometry_64
v -0.00712706 -0.49495887 2.00319153
v -0.00712706 -0.49495887 2.47819153
v -0.01373154 -0.01500431 2.00319153
v -0.01373154 -0.01500431 2.47819153
v 0.56671444 -0.48706244 2.00319153
v 0.56671444 -0.48706244 2.47819153
v 0.56010995 -0.00710787 2.00319153
v 0.56010995 -0.00710787 2.47819153
f 514 516 513
f 517 514 513
f 513 516 515
f 515 517 513
f 514 520 516
f 518 514 517
f 518 520 514
f 516 520 515
f 519 517 515
f 515 520 519
f 519 518 517
f 520 518 519

o geometry_65
v 0.58158395 -0.47654823 2.01052048
v 0.58158395 -0.47654823 2.48552048
v 0.58129490 0.00345169 2.01052048
v 0.58129490 0.00345169 2.48552048
v 1.29429101 -0.47611904 2.01052048
v 1.29429101 -0.47611904 2.48552048
v 1.29400196 0.00388087 2.01052048
v 1.29400196 0.00388087 2.48552048
f 522 524 521
f 525 522 521
f 521 524 523
f 523 525 521
f 522 528 524
f 526 522 525
f 526 528 522
f 524 528 523
f 527 525 523
f 523 528 527
f 527 526 525
f 528 526 527

o geometry_66
v 1.31301364 -0.48407815 2.01546305
v 1.31301364 -0.48407815 2.49046305
v 1.31128382 -0.00408127 2.01546305
v 1.31128382 -0.00408127 2.49046305
v 1.98464119 -0.48165774 2.01546305
v 1.98464119 -0.48165774 2.49046305
v 1.98291138 -0.00166086 2.01546305
v 1.98291138 -0.00166086 2.49046305
f 530 532 529
f 533 530 529
f 529 532 531
f 531 533 529
f 530 536 532
f 534 530 533
f 534 536 530
f 532 536 531
f 535 533 531
f 531 536 535
f 535 534 533
f 536 534 535

o geometry_67
v -1.98940591 -0.48258441 2.50905958
v -1.98940591 -0.48258441 2.98405958
v -1.99257837 -0.00259490 2.50905958
v -1.99257837 -0.00259490 2.98405958
v -1.26957068 -0.47782671 2.50905958
v -1.26957068 -0.47782671 2.98405958
v -1.27274314 0.00216281 2.50905958
v -1.27274314 0.00216281 2.98405958
f 538 540 537
f 541 538 537
f 537 540 539
f 539 541 537
f 538 544 540
f 542 538 541
f 542 544 538
f 540 544 539
f 543 541 539
f 539 544 543
f 543 542 541
f 544 542 543

o geometry_68
v -1.25299687 -0.47422448 2.53638987
v -1.25299687 -0.47422448 3.01138987
v -1.25330110 0.00577542 2.53638987
v -1.25330110 0.00577542 3.01138987
v -0.64738120 -0.47384063 2.53638987
v -0.64738120 -0.47384063 3.01138987
v -0.64768544 0.00615927 2.53638987
v -0.64768544 0.00615927 3.01138987
f 546 548 545
f 549 546 545
f 545 548 547
f 547 549 545
f 546 552 548
f 550 546 549
f 550 552 546
f 548 552 547
f 551 549 547
f 547 552 551
f 551 550 549
f 552 550 551

o geometry_69
v -0.62895656 -0.46613003 2.50826052
v -0.62895656 -0.46613003 2.98326052
v -0.63010806 0.01386858 2.50826052
v -0.63010806 0.01386858 2.98326052
v 0.02716150 -0.46455603 2.50826052
v 0.02716150 -0.46455603 2.98326052
v 0.02601000 0.01544259 2.50826052
v 0.02601000 0.01544259 2.98326052
f 554 556 553
f 557 554 553
f 553 556 555
f 555 557 553
f 554 560 556
f 558 554 557
f 558 560 554
f 556 560 555
f 559 557 555
f 555 560 559
f 559 558 557
f 560 558 559

o geometry_70
v 0.04144420 -0.47969013 2.51910903
v 0.04144420 -0.47969013 2.99410903
v 0.04777885 0.00026807 2.51910903
v 0.04777885 0.00026807 2.99410903
v 0.61165313 -0.48721595 2.51910903
v 0.61165313 -0.48721595 2.99410903
v 0.61798779 -0.00725775 2.51910903
v 0.61798779 -0.00725775 2.99410903
f 562 564 561
f 565 562 561
f 561 564 563
f 563 565 561
f 562 568 564
f 566 562 565
f 566 568 562
f 564 568 563
f 567 565 563
f 563 568 567
f 567 566 565
f 568 566 567

o geometry_71
v 0.63178712 -0.47750591 2.52146407
v 0.63178712 -0.47750591 2.99646407
v 0.63391000 0.00248940 2.52146407
v 0.63391000 0.00248940 2.99646407
v 1.30072350 -0.48046442 2.52146407
v 1.30072350 -0.48046442 2.99646407
v 1.30284639 -0.00046912 2.52146407
v 1.30284639 -0.00046912 2.99646407
f 570 572 569
f 573 570 569
f 569 572 571
f 571 573 569
f 570 576 572
f 574 570 573
f 574 576 570
f 572 576 571
f 575 573 571
f 571 576 575
f 575 574 573
f 576 574 575

o geometry_72
v 1.31665362 -0.48269611 2.48860912
v 1.31665362 -0.48269611 2.96360912
v 1.32298113 -0.00273782 2.48860912
v 1.32298113 -0.00273782 2.96360912
v 1.98780708 -0.49154424 2.48860912
v 1.98780708 -0.49154424 2.96360912
v 1.99413459 -0.01158594 2.48860912
v 1.99413459 -0.01158594 2.96360912
f 578 580 577
f 581 578 577
f 577 580 579
f 579 581 577
f 578 584 580
f 582 578 581
f 582 584 578
f 580 584 579
f 583 581 579
f 579 584 583
f 583 582 581
f 584 582 583

o geometry_73
v -1.99131432 -0.49354648 3.00005611
v -1.99131432 -0.49354648 3.47505611
v -1.99068522 -0.01354689 3.00005611
v -1.99068522 -0.01354689 3.47505611
v -1.45343214 -0.49425145 3.00005611
v -1.45343214 -0.49425145 3.47505611
v -1.45280304 -0.01425186 3.00005611
v -1.45280304 -0.01425186 3.47505611
f 586 588 585
f 589 586 585
f 585 588 587
f 587 589 585
f 586 592 588
f 590 586 589
f 590 592 586
f 588 592 587
f 591 589 587
f 587 592 591
f 591 590 589
f 592 590 591

o geometry_74
v -1.43646196 -0.47311601 3.00569775
v -1.43646196 -0.47311601 3.48069775
v -1.43376443 0.00687641 3.00569775
v -1.43376443 0.00687641 3.48069775
v -0.90942294 -0.47607794 3.00569775
v -0.90942294 -0.47607794 3.48069775
v -0.90672541 0.00391448 3.00569775
v -0.90672541 0.00391448 3.48069775
f 594 596 593
f 597 594 593
f 593 596 595
f 595 597 593
f 594 600 596
f 598 594 597
f 598 600 594
f 596 600 595
f 599 597 595
f 595 600 599
f 599 598 597
f 600 598 599

o geometry_75
v -0.89095277 -0.48194942 3.00252020
v -0.89095277 -0.48194942 3.47752020
v -0.88918388 -0.00195268 3.00252020
v -0.88918388 -0.00195268 3.47752020
v -0.39296613 -0.48378461 3.00252020
v -0.39296613 -0.48378461 3.47752020
v -0.39119725 -0.00378787 3.00252020
v -0.39119725 -0.00378787 3.47752020
f 602 604 601
f 605 602 601
f 601 604 603
f 603 605 601
f 602 608 604
f 606 602 605
f 606 608 602
f 604 608 603
f 607 605 603
f 603 608 607
f 607 606 605
f 608 606 607

o geometry_76
v -0.37237992 -0.46774322 3.01596290
v -0.37237992 -0.46774322 3.49096290
v -0.37576638 0.01224483 3.01596290
v -0.37576638 0.01224483 3.49096290
v 0.17800193 -0.46386011 3.01596290
v 0.17800193 -0.46386011 3.49096290
v 0.17461546 0.01612795 3.01596290
v 0.17461546 0.01612795 3.49096290
f 610 612 609
f 613 610 609
f 609 612 611
f 611 613 609
f 610 616 612
f 614 610 613
f 614 616 610
f 612 616 611
f 615 613 611
f 611 616 615
f 615 614 613
f 616 614 615

o geometry_77
v 0.19244170 -0.46974701 3.02769038
v 0.19244170 -0.46974701 3.50269038
v 0.19620445 0.01023825 3.02769038
v 0.19620445 0.01023825 3.50269038
v 0.68272881 -0.47359052 3.02769038
v 0.68272881 -0.47359052 3.50269038
v 0.68649156 0.00639474 3.02769038
v 0.68649156 0.00639474 3.50269038
f 618 620 617
f 621 618 617
f 617 620 619
f 619 621 617
f 618 624 620
f 622 618 621
f 622 624 618
f 620 624 619
f 623 621 619
f 619 624 623
f 623 622 621
f 624 622 623

o geometry_78
v 0.69976796 -0.47520691 3.02240332
v 0.69976796 -0.47520691 3.49740332
v 0.70550131 0.00475885 3.02240332
v 0.70550131 0.00475885 3.49740332
v 1.17409539 -0.48087290 3.02240332
v 1.17409539 -0.48087290 3.49740332
v 1.17982873 -0.00090715 3.02240332
v 1.17982873 -0.00090715 3.49740332
f 626 628 625
f 629 626 625
f 625 628 627
f 627 629 625
f 626 632 628
f 630 626 629
f 630 632 626
f 628 632 627
f 631 629 627
f 627 632 631
f 631 630 629
f 632 630 631

o geometry_79
v 1.19453610 -0.47455795 3.02917694
v 1.19453610 -0.47455795 3.50417694
v 1.19542270 0.00544123 3.02917694
v 1.19542270 0.00544123 3.50417694
v 1.68639084 -0.47546645 3.02917694
v 1.68639084 -0.47546645 3.50417694
v 1.68727744 0.00453273 3.02917694
v 1.68727744 0.00453273 3.50417694
f 634 636 633
f 637 634 633
f 633 636 635
f 635 637 633
f 634 640 636
f 638 634 637
f 638 640 634
f 636 640 635
f 639 637 635
f 635 640 639
f 639 638 637
f 640 638 639

o geometry_80
v 1.70591768 -0.47072096 3.00433551
v 1.70591768 -0.47072096 3.47933551
v 1.70375434 0.00927417 3.00433551
v 1.70375434 0.00927417 3.47933551
v 1.99208022 -0.46943122 3.00433551
v 1.99208022 -0.46943122 3.47933551
v 1.98991688 0.01056390 3.00433551
v 1.98991688 0.01056390 3.47933551
f 642 644 641
f 645 642 641
f 641 644 643
f 643 645 641
f 642 648 644
f 646 642 645
f 646 648 642
f 644 648 643
f 647 645 643
f 643 648 647
f 647 646 645
f 648 646 647

o geometry_81
v 0.19000000 -0.60000000 0.02000000
v 0.19000000 -0.60000000 1.98000000
v 0.19000000 -0.48000000 0.02000000
v 0.19000000 -0.48000000 1.98000000
v 1.05000000 -0.60000000 0.02000000
v 1.05000000 -0.60000000 1.98000000
v 1.05000000 -0.48000000 0.02000000
v 1.05000000 -0.48000000 1.98000000
f 650 652 649
f 653 650 649
f 649 652 651
f 651 653 649
f 650 656 652
f 654 650 653
f 654 656 650
f 652 656 651
f 655 653 651
f 651 656 655
f 655 654 653
f 656 654 655

o geometry_82
v -0.06000000 -0.64000000 0.00000000
v -0.06000000 -0.64000000 2.00000000
v -0.06000000 0.02000000 0.00000000
v -0.06000000 0.02000000 2.00000000
v 0.16000000 -0.64000000 0.00000000
v 0.16000000 -0.64000000 2.00000000
v 0.16000000 0.02000000 0.00000000
v 0.16000000 0.02000000 2.00000000
f 658 660 657
f 661 658 657
f 657 660 659
f 659 661 657
f 658 664 660
f 662 658 661
f 662 664 658
f 660 664 659
f 663 661 659
f 659 664 663
f 663 662 661
f 664 662 663

o geometry_83
v 1.08000000 -0.64000000 0.00000000
v 1.08000000 -0.64000000 2.00000000
v 1.08000000 0.02000000 0.00000000
v 1.08000000 0.02000000 2.00000000
v 1.30000000 -0.64000000 0.00000000
v 1.30000000 -0.64000000 2.00000000
v 1.30000000 0.02000000 0.00000000
v 1.30000000 0.02000000 2.00000000
f 666 668 665
f 669 666 665
f 665 668 667
f 667 669 665
f 666 672 668
f 670 666 669
f 670 672 666
f 668 672 667
f 671 669 667
f 667 672 671
f 671 670 669
f 672 670 671

o geometry_84
v 1.28549500 -0.66000000 1.92681998
v 1.06709905 -0.66000000 1.95333805
v 1.28549500 0.00000000 1.92681998
v 1.06709905 0.00000000 1.95333805
v 1.30458907 -0.66000000 2.08407377
v 1.08619312 -0.66000000 2.11059184
v 1.30458907 0.00000000 2.08407377
v 1.08619312 0.00000000 2.11059184
f 674 676 673
f 677 674 673
f 673 676 675
f 675 677 673
f 674 680 676
f 678 674 677
f 678 680 674
f 676 680 675
f 679 677 675
f 675 680 679
f 679 678 677
f 680 678 679

o geometry_85
v 1.22772478 -0.66000000 2.03906086
v 1.02202121 -0.66000000 2.11707394
v 1.22772478 0.00000000 2.03906086
v 1.02202121 0.00000000 2.11707394
v 1.28389731 -0.66000000 2.18717563
v 1.07819373 -0.66000000 2.26518871
v 1.28389731 0.00000000 2.18717563
v 1.07819373 0.00000000 2.26518871
f 682 684 681
f 685 682 681
f 681 684 683
f 683 685 681
f 682 688 684
f 686 682 685
f 686 688 682
f 684 688 683
f 687 685 683
f 683 688 687
f 687 686 685
f 688 686 687

o geometry_86
v 1.13463581 -0.66000000 2.14612585
v 0.95357936 -0.66000000 2.27110010
v 1.13463581 0.00000000 2.14612585
v 0.95357936 0.00000000 2.27110010
v 1.22462225 -0.66000000 2.27649371
v 1.04356580 -0.66000000 2.40146796
v 1.22462225 0.00000000 2.27649371
v 1.04356580 0.00000000 2.40146796
f 690 692 689
f 693 690 689
f 689 692 691
f 691 693 689
f 690 696 692
f 694 690 693
f 694 696 690
f 692 696 691
f 695 693 691
f 691 696 695
f 695 694 693
f 696 694 695

o geometry_87
v 1.01163807 -0.66000000 2.24179272
v 0.86575109 -0.66000000 2.40646509
v 1.01163807 0.00000000 2.24179272
v 0.86575109 0.00000000 2.40646509
v 1.13020874 -0.66000000 2.34683717
v 0.98432176 -0.66000000 2.51150953
v 1.13020874 0.00000000 2.34683717
v 0.98432176 0.00000000 2.51150953
f 698 700 697
f 701 698 697
f 697 700 699
f 699 701 697
f 698 704 700
f 702 698 701
f 702 704 698
f 700 704 699
f 703 701 699
f 699 704 703
f 703 702 701
f 704 702 703

o geometry_88
v 0.86587976 -0.66000000 2.32050166
v 0.76364066 -0.66000000 2.51530198
v 0.86587976 0.00000000 2.32050166
v 0.76364066 0.00000000 2.51530198
v 1.00614376 -0.66000000 2.39411788
v 0.90390466 -0.66000000 2.58891821
v 1.00614376 0.00000000 2.39411788
v 0.90390466 0.00000000 2.58891821
f 706 708 705
f 709 706 705
f 705 708 707
f 707 709 705
f 706 712 708
f 710 706 709
f 710 712 706
f 708 712 707
f 711 709 707
f 707 712 711
f 711 710 709
f 712 710 711

o geometry_89
v 0.70583180 -0.66000000 2.37767839
v 0.65318236 -0.66000000 2.59128559
v 0.70583180 0.00000000 2.37767839
v 0.65318236 0.00000000 2.59128559
v 0.85963750 -0.66000000 2.41558809
v 0.80698805 -0.66000000 2.62919529
v 0.85963750 0.00000000 2.41558809
v 0.80698805 0.00000000 2.62919529
f 714 716 713
f 717 714 713
f 713 716 715
f 715 717 713
f 714 720 716
f 718 714 717
f 718 720 714
f 716 720 715
f 719 717 715
f 715 720 719
f 719 718 717
f 720 718 719

o geometry_90
v 0.54079562 -0.66000000 2.41000000
v 0.54079562 -0.66000000 2.63000000
v 0.54079562 0.00000000 2.41000000
v 0.54079562 0.00000000 2.63000000
v 0.69920438 -0.66000000 2.41000000
v 0.69920438 -0.66000000 2.63000000
v 0.69920438 0.00000000 2.41000000
v 0.69920438 0.00000000 2.63000000
f 722 724 721
f 725 722 721
f 721 724 723
f 723 725 721
f 722 728 724
f 726 722 725
f 726 728 722
f 724 728 723
f 727 725 723
f 723 728 727
f 727 726 725
f 728 726 727

o geometry_91
v 0.38036250 -0.66000000 2.41558809
v 0.43301195 -0.66000000 2.62919529
v 0.38036250 0.00000000 2.41558809
v 0.43301195 0.00000000 2.62919529
v 0.53416820 -0.66000000 2.37767839
v 0.58681764 -0.66000000 2.59128559
v 0.53416820 0.00000000 2.37767839
v 0.58681764 0.00000000 2.59128559
f 730 732 729
f 733 730 729
f 729 732 731
f 731 733 729
f 730 736 732
f 734 730 733
f 734 736 730
f 732 736 731
f 735 733 731
f 731 736 735
f 735 734 733
f 736 734 735

o geometry_92
v 0.23385624 -0.66000000 2.39411788
v 0.33609534 -0.66000000 2.58891821
v 0.23385624 0.00000000 2.39411788
v 0.33609534 0.00000000 2.58891821
v 0.37412024 -0.66000000 2.32050166
v 0.47635934 -0.66000000 2.51530198
v 0.37412024 0.00000000 2.32050166
v 0.47635934 0.00000000 2.51530198
f 738 740 737
f 741 738 737
f 737 740 739
f 739 741 737
f 738 744 740
f 742 738 741
f 742 744 738
f 740 744 739
f 743 741 739
f 739 744 743
f 743 742 741
f 744 742 743

o geometry_93
v 0.10979126 -0.66000000 2.34683717
v 0.25567824 -0.66000000 2.51150953
v 0.10979126 0.00000000 2.34683717
v 0.25567824 0.00000000 2.51150953
v 0.22836193 -0.66000000 2.24179272
v 0.37424891 -0.66000000 2.40646509
v 0.22836193 0.00000000 2.24179272
v 0.37424891 0.00000000 2.40646509
f 746 748 745
f 749 746 745
f 745 748 747
f 747 749 745
f 746 752 748
f 750 746 749
f 750 752 746
f 748 752 747
f 751 749 747
f 747 752 751
f 751 750 749
f 752 750 751

o geometry_94
v 0.01537775 -0.66000000 2.27649371
v 0.19643420 -0.66000000 2.40146796
v 0.01537775 0.00000000 2.27649371
v 0.19643420 0.00000000 2.40146796
v 0.10536419 -0.66000000 2.14612585
v 0.28642064 -0.66000000 2.27110010
v 0.10536419 0.00000000 2.14612585
v 0.28642064 0.00000000 2.27110010
f 754 756 753
f 757 754 753
f 753 756 755
f 755 757 753
f 754 760 756
f 758 754 757
f 758 760 754
f 756 760 755
f 759 757 755
f 755 760 759
f 759 758 757
f 760 758 759

o geometry_95
v -0.04389731 -0.66000000 2.18717563
v 0.16180627 -0.66000000 2.26518871
v -0.04389731 0.00000000 2.18717563
v 0.16180627 0.00000000 2.26518871
v 0.01227522 -0.66000000 2.03906086
v 0.21797879 -0.66000000 2.11707394
v 0.01227522 0.00000000 2.03906086
v 0.21797879 0.00000000 2.11707394
f 762 764 761
f 765 762 761
f 761 764 763
f 763 765 761
f 762 768 764
f 766 762 765
f 766 768 762
f 764 768 763
f 767 765 763
f 763 768 767
f 767 766 765
f 768 766 767

o geometry_96
v -0.06458907 -0.66000000 2.08407377
v 0.15380688 -0.66000000 2.11059184
v -0.06458907 0.00000000 2.08407377
v 0.15380688 0.00000000 2.11059184
v -0.04549500 -0.66000000 1.92681998
v 0.17290095 -0.66000000 1.95333805
v -0.04549500 0.00000000 1.92681998
v 0.17290095 0.00000000 1.95333805
f 770 772 769
f 773 770 769
f 769 772 771
f 771 773 769
f 770 776 772
f 774 770 773
f 774 776 770
f 772 776 771
f 775 773 771
f 771 776 775
f 775 774 773
f 776 774 775

o geometry_97
v -0.15000000 -0.68000000 0.00500000
v -0.15000000 -0.68000000 2.15500000
v -0.15000000 0.04000000 0.00500000
v -0.15000000 0.04000000 2.15500000
v 0.15000000 -0.68000000 0.00500000
v 0.15000000 -0.68000000 2.15500000
v 0.15000000 0.04000000 0.00500000
v 0.15000000 0.04000000 2.15500000
f 778 780 777
f 781 778 777
f 777 780 779
f 779 781 777
f 778 784 780
f 782 778 781
f 782 784 778
f 780 784 779
f 783 781 779
f 779 784 783
f 783 782 781
f 784 782 783

o geometry_98
v -1.70000000 -0.32000000 0.10000000
v -1.47000000 -0.32000000 0.10000000
v -1.47000000 -0.32000000 3.35000000
v -1.70000000 -0.32000000 3.35000000
v -1.47783706 -0.26047162 0.10000000
v -1.47783706 -0.26047162 3.35000000
v -1.50081416 -0.20500000 0.10000000
v -1.50081416 -0.20500000 3.35000000
v -1.53736544 -0.15736544 0.10000000
v -1.53736544 -0.15736544 3.35000000
v -1.58500000 -0.12081416 0.10000000
v -1.58500000 -0.12081416 3.35000000
v -1.64047162 -0.09783706 0.10000000
v -1.64047162 -0.09783706 3.35000000
v -1.70000000 -0.09000000 0.10000000
v -1.70000000 -0.09000000 3.35000000
v -1.75952838 -0.09783706 0.10000000
v -1.75952838 -0.09783706 3.35000000
v -1.81500000 -0.12081416 0.10000000
v -1.81500000 -0.12081416 3.35000000
v -1.86263456 -0.15736544 0.10000000
v -1.86263456 -0.15736544 3.35000000
v -1.89918584 -0.20500000 0.10000000
v -1.89918584 -0.20500000 3.35000000
v -1.92216294 -0.26047162 0.10000000
v -1.92216294 -0.26047162 3.35000000
v -1.93000000 -0.32000000 0.10000000
v -1.93000000 -0.32000000 3.35000000
v -1.92216294 -0.37952838 0.10000000
v -1.92216294 -0.37952838 3.35000000
v -1.89918584 -0.43500000 0.10000000
v -1.89918584 -0.43500000 3.35000000
v -1.86263456 -0.48263456 0.10000000
v -1.86263456 -0.48263456 3.35000000
v -1.81500000 -0.51918584 0.10000000
v -1.81500000 -0.51918584 3.35000000
v -1.75952838 -0.54216294 0.10000000
v -1.75952838 -0.54216294 3.35000000
v -1.70000000 -0.55000000 0.10000000
v -1.70000000 -0.55000000 3.35000000
v -1.64047162 -0.54216294 0.10000000
v -1.64047162 -0.54216294 3.35000000
v -1.58500000 -0.51918584 0.10000000
v -1.58500000 -0.51918584 3.35000000
v -1.53736544 -0.48263456 0.10000000
v -1.53736544 -0.48263456 3.35000000
v -1.50081416 -0.43500000 0.10000000
v -1.50081416 -0.43500000 3.35000000
v -1.47783706 -0.37952838 0.10000000
v -1.47783706 -0.37952838 3.35000000
f 786 785 789
f 786 789 787
f 787 789 790
f 787 790 788
f 789 785 791
f 789 791 790
f 790 791 792
f 790 792 788
f 791 785 793
f 791 793 792
f 792 793 794
f 792 794 788
f 793 785 795
f 793 795 794
f 794 795 796
f 794 796 788
f 795 785 797
f 795 797 796
f 796 797 798
f 796 798 788
f 797 785 799
f 797 799 798
f 798 799 800
f 798 800 788
f 799 785 801
f 799 801 800
f 800 801 802
f 800 802 788
f 801 785 803
f 801 803 802
f 802 803 804
f 802 804 788
f 803 785 805
f 803 805 804
f 804 805 806
f 804 806 788
f 805 785 807
f 805 807 806
f 806 807 808
f 806 808 788
f 807 785 809
f 807 809 808
f 808 809 810
f 808 810 788
f 809 785 811
f 809 811 810
f 810 811 812
f 810 812 788
f 811 785 813
f 811 813 812
f 812 813 814
f 812 814 788
f 813 785 815
f 813 815 814
f 814 815 816
f 814 816 788
f 815 785 817
f 815 817 816
f 816 817 818
f 816 818 788
f 817 785 819
f 817 819 818
f 818 819 820
f 818 820 788
f 819 785 821
f 819 821 820
f 820 821 822
f 820 822 788
f 821 785 823
f 821 823 822
f 822 823 824
f 822 824 788
f 823 785 825
f 823 825 824
f 824 825 826
f 824 826 788
f 825 785 827
f 825 827 826
f 826 827 828
f 826 828 788
f 827 785 829
f 827 829 828
f 828 829 830
f 828 830 788
f 829 785 831
f 829 831 830
f 830 831 832
f 830 832 788
f 831 785 833
f 831 833 832
f 832 833 834
f 832 834 788
f 833 785 786
f 833 786 834
f 834 786 787
f 834 787 788

o geometry_99
v -1.70000000 -0.32000000 0.10000000
v -1.40560000 -0.32000000 0.10000000
v -1.40560000 -0.32000000 0.26000000
v -1.70000000 -0.32000000 0.26000000
v -1.41563144 -0.24380367 0.10000000
v -1.41563144 -0.24380367 0.26000000
v -1.44504212 -0.17280000 0.10000000
v -1.44504212 -0.17280000 0.26000000
v -1.49182776 -0.11182776 0.10000000
v -1.49182776 -0.11182776 0.26000000
v -1.55280000 -0.06504212 0.10000000
v -1.55280000 -0.06504212 0.26000000
v -1.62380367 -0.03563144 0.10000000
v -1.62380367 -0.03563144 0.26000000
v -1.70000000 -0.02560000 0.10000000
v -1.70000000 -0.02560000 0.26000000
v -1.77619633 -0.03563144 0.10000000
v -1.77619633 -0.03563144 0.26000000
v -1.84720000 -0.06504212 0.10000000
v -1.84720000 -0.06504212 0.26000000
v -1.90817224 -0.11182776 0.10000000
v -1.90817224 -0.11182776 0.26000000
v -1.95495788 -0.17280000 0.10000000
v -1.95495788 -0.17280000 0.26000000
v -1.98436856 -0.24380367 0.10000000
v -1.98436856 -0.24380367 0.26000000
v -1.99440000 -0.32000000 0.10000000
v -1.99440000 -0.32000000 0.26000000
v -1.98436856 -0.39619633 0.10000000
v -1.98436856 -0.39619633 0.26000000
v -1.95495788 -0.46720000 0.10000000
v -1.95495788 -0.46720000 0.26000000
v -1.90817224 -0.52817224 0.10000000
v -1.90817224 -0.52817224 0.26000000
v -1.84720000 -0.57495788 0.10000000
v -1.84720000 -0.57495788 0.26000000
v -1.77619633 -0.60436856 0.10000000
v -1.77619633 -0.60436856 0.26000000
v -1.70000000 -0.61440000 0.10000000
v -1.70000000 -0.61440000 0.26000000
v -1.62380367 -0.60436856 0.10000000
v -1.62380367 -0.60436856 0.26000000
v -1.55280000 -0.57495788 0.10000000
v -1.55280000 -0.57495788 0.26000000
v -1.49182776 -0.52817224 0.10000000
v -1.49182776 -0.52817224 0.26000000
v -1.44504212 -0.46720000 0.10000000
v -1.44504212 -0.46720000 0.26000000
v -1.41563144 -0.39619633 0.10000000
v -1.41563144 -0.39619633 0.26000000
f 836 835 839
f 836 839 837
f 837 839 840
f 837 840 838
f 839 835 841
f 839 841 840
f 840 841 842
f 840 842 838
f 841 835 843
f 841 843 842
f 842 843 844
f 842 844 838
f 843 835 845
f 843 845 844
f 844 845 846
f 844 846 838
f 845 835 847
f 845 847 846
f 846 847 848
f 846 848 838
f 847 835 849
f 847 849 848
f 848 849 850
f 848 850 838
f 849 835 851
f 849 851 850
f 850 851 852
f 850 852 838
f 851 835 853
f 851 853 852
f 852 853 854
f 852 854 838
f 853 835 855
f 853 855 854
f 854 855 856
f 854 856 838
f 855 835 857
f 855 857 856
f 856 857 858
f 856 858 838
f 857 835 859
f 857 859 858
f 858 859 860
f 858 860 838
f 859 835 861
f 859 861 860
f 860 861 862
f 860 862 838
f 861 835 863
f 861 863 862
f 862 863 864
f 862 864 838
f 863 835 865
f 863 865 864
f 864 865 866
f 864 866 838
f 865 835 867
f 865 867 866
f 866 867 868
f 866 868 838
f 867 835 869
f 867 869 868
f 868 869 870
f 868 870 838
f 869 835 871
f 869 871 870
f 870 871 872
f 870 872 838
f 871 835 873
f 871 873 872
f 872 873 874
f 872 874 838
f 873 835 875
f 873 875 874
f 874 875 876
f 874 876 838
f 875 835 877
f 875 877 876
f 876 877 878
f 876 878 838
f 877 835 879
f 877 879 878
f 878 879 880
f 878 880 838
f 879 835 881
f 879 881 880
f 880 881 882
f 880 882 838
f 881 835 883
f 881 883 882
f 882 883 884
f 882 884 838
f 883 835 836
f 883 836 884
f 884 836 837
f 884 837 838

o geometry_100
v -1.70000000 -0.32000000 3.18000000
v -1.41940000 -0.32000000 3.18000000
v -1.41940000 -0.32000000 3.36000000
v -1.70000000 -0.32000000 3.36000000
v -1.42896121 -0.24737538 3.18000000
v -1.42896121 -0.24737538 3.36000000
v -1.45699327 -0.17970000 3.18000000
v -1.45699327 -0.17970000 3.36000000
v -1.50158584 -0.12158584 3.18000000
v -1.50158584 -0.12158584 3.36000000
v -1.55970000 -0.07699327 3.18000000
v -1.55970000 -0.07699327 3.36000000
v -1.62737538 -0.04896121 3.18000000
v -1.62737538 -0.04896121 3.36000000
v -1.70000000 -0.03940000 3.18000000
v -1.70000000 -0.03940000 3.36000000
v -1.77262462 -0.04896121 3.18000000
v -1.77262462 -0.04896121 3.36000000
v -1.84030000 -0.07699327 3.18000000
v -1.84030000 -0.07699327 3.36000000
v -1.89841416 -0.12158584 3.18000000
v -1.89841416 -0.12158584 3.36000000
v -1.94300673 -0.17970000 3.18000000
v -1.94300673 -0.17970000 3.36000000
v -1.97103879 -0.24737538 3.18000000
v -1.97103879 -0.24737538 3.36000000
v -1.98060000 -0.32000000 3.18000000
v -1.98060000 -0.32000000 3.36000000
v -1.97103879 -0.39262462 3.18000000
v -1.97103879 -0.39262462 3.36000000
v -1.94300673 -0.46030000 3.18000000
v -1.94300673 -0.46030000 3.36000000
v -1.89841416 -0.51841416 3.18000000
v -1.89841416 -0.51841416 3.36000000
v -1.84030000 -0.56300673 3.18000000
v -1.84030000 -0.56300673 3.36000000
v -1.77262462 -0.59103879 3.18000000
v -1.77262462 -0.59103879 3.36000000
v -1.70000000 -0.60060000 3.18000000
v -1.70000000 -0.60060000 3.36000000
v -1.62737538 -0.59103879 3.18000000
v -1.62737538 -0.59103879 3.36000000
v -1.55970000 -0.56300673 3.18000000
v -1.55970000 -0.56300673 3.36000000
v -1.50158584 -0.51841416 3.18000000
v -1.50158584 -0.51841416 3.36000000
v -1.45699327 -0.46030000 3.18000000
v -1.45699327 -0.46030000 3.36000000
v -1.42896121 -0.39262462 3.18000000
v -1.42896121 -0.39262462 3.36000000
f 886 885 889
f 886 889 887
f 887 889 890
f 887 890 888
f 889 885 891
f 889 891 890
f 890 891 892
f 890 892 888
f 891 885 893
f 891 893 892
f 892 893 894
f 892 894 888
f 893 885 895
f 893 895 894
f 894 895 896
f 894 896 888
f 895 885 897
f 895 897 896
f 896 897 898
f 896 898 888
f 897 885 899
f 897 899 898
f 898 899 900
f 898 900 888
f 899 885 901
f 899 901 900
f 900 901 902
f 900 902 888
f 901 885 903
f 901 903 902
f 902 903 904
f 902 904 888
f 903 885 905
f 903 905 904
f 904 905 906
f 904 906 888
f 905 885 907
f 905 907 906
f 906 907 908
f 906 908 888
f 907 885 909
f 907 909 908
f 908 909 910
f 908 910 888
f 909 885 911
f 909 911 910
f 910 911 912
f 910 912 888
f 911 885 913
f 911 913 912
f 912 913 914
f 912 914 888
f 913 885 915
f 913 915 914
f 914 915 916
f 914 916 888
f 915 885 917
f 915 917 916
f 916 917 918
f 916 918 888
f 917 885 919
f 917 919 918
f 918 919 920
f 918 920 888
f 919 885 921
f 919 921 920
f 920 921 922
f 920 922 888
f 921 885 923
f 921 923 922
f 922 923 924
f 922 924 888
f 923 885 925
f 923 925 924
f 924 925 926
f 924 926 888
f 925 885 927
f 925 927 926
f 926 927 928
f 926 928 888
f 927 885 929
f 927 929 928
f 928 929 930
f 928 930 888
f 929 885 931
f 929 931 930
f 930 931 932
f 930 932 888
f 931 885 933
f 931 933 932
f 932 933 934
f 932 934 888
f 933 885 886
f 933 886 934
f 934 886 887
f 934 887 888

o geometry_101
v -1.98750000 -0.67000000 3.11000000
v -1.98750000 -0.67000000 3.27000000
v -1.98750000 0.03000000 3.11000000
v -1.98750000 0.03000000 3.27000000
v -1.41250000 -0.67000000 3.11000000
v -1.41250000 -0.67000000 3.27000000
v -1.41250000 0.03000000 3.11000000
v -1.41250000 0.03000000 3.27000000
f 936 938 935
f 939 936 935
f 935 938 937
f 937 939 935
f 936 942 938
f 940 936 939
f 940 942 936
f 938 942 937
f 941 939 937
f 937 942 941
f 941 940 939
f 942 940 941

o geometry_102
v 1.70000000 -0.32000000 0.10000000
v 1.93000000 -0.32000000 0.10000000
v 1.93000000 -0.32000000 3.35000000
v 1.70000000 -0.32000000 3.35000000
v 1.92216294 -0.26047162 0.10000000
v 1.92216294 -0.26047162 3.35000000
v 1.89918584 -0.20500000 0.10000000
v 1.89918584 -0.20500000 3.35000000
v 1.86263456 -0.15736544 0.10000000
v 1.86263456 -0.15736544 3.35000000
v 1.81500000 -0.12081416 0.10000000
v 1.81500000 -0.12081416 3.35000000
v 1.75952838 -0.09783706 0.10000000
v 1.75952838 -0.09783706 3.35000000
v 1.70000000 -0.09000000 0.10000000
v 1.70000000 -0.09000000 3.35000000
v 1.64047162 -0.09783706 0.10000000
v 1.64047162 -0.09783706 3.35000000
v 1.58500000 -0.12081416 0.10000000
v 1.58500000 -0.12081416 3.35000000
v 1.53736544 -0.15736544 0.10000000
v 1.53736544 -0.15736544 3.35000000
v 1.50081416 -0.20500000 0.10000000
v 1.50081416 -0.20500000 3.35000000
v 1.47783706 -0.26047162 0.10000000
v 1.47783706 -0.26047162 3.35000000
v 1.47000000 -0.32000000 0.10000000
v 1.47000000 -0.32000000 3.35000000
v 1.47783706 -0.37952838 0.10000000
v 1.47783706 -0.37952838 3.35000000
v 1.50081416 -0.43500000 0.10000000
v 1.50081416 -0.43500000 3.35000000
v 1.53736544 -0.48263456 0.10000000
v 1.53736544 -0.48263456 3.35000000
v 1.58500000 -0.51918584 0.10000000
v 1.58500000 -0.51918584 3.35000000
v 1.64047162 -0.54216294 0.10000000
v 1.64047162 -0.54216294 3.35000000
v 1.70000000 -0.55000000 0.10000000
v 1.70000000 -0.55000000 3.35000000
v 1.75952838 -0.54216294 0.10000000
v 1.75952838 -0.54216294 3.35000000
v 1.81500000 -0.51918584 0.10000000
v 1.81500000 -0.51918584 3.35000000
v 1.86263456 -0.48263456 0.10000000
v 1.86263456 -0.48263456 3.35000000
v 1.89918584 -0.43500000 0.10000000
v 1.89918584 -0.43500000 3.35000000
v 1.92216294 -0.37952838 0.10000000
v 1.92216294 -0.37952838 3.35000000
f 944 943 947
f 944 947 945
f 945 947 948
f 945 948 946
f 947 943 949
f 947 949 948
f 948 949 950
f 948 950 946
f 949 943 951
f 949 951 950
f 950 951 952
f 950 952 946
f 951 943 953
f 951 953 952
f 952 953 954
f 952 954 946
f 953 943 955
f 953 955 954
f 954 955 956
f 954 956 946
f 955 943 957
f 955 957 956
f 956 957 958
f 956 958 946
f 957 943 959
f 957 959 958
f 958 959 960
f 958 960 946
f 959 943 961
f 959 961 960
f 960 961 962
f 960 962 946
f 961 943 963
f 961 963 962
f 962 963 964
f 962 964 946
f 963 943 965
f 963 965 964
f 964 965 966
f 964 966 946
f 965 943 967
f 965 967 966
f 966 967 968
f 966 968 946
f 967 943 969
f 967 969 968
f 968 969 970
f 968 970 946
f 969 943 971
f 969 971 970
f 970 971 972
f 970 972 946
f 971 943 973
f 971 973 972
f 972 973 974
f 972 974 946
f 973 943 975
f 973 975 974
f 974 975 976
f 974 976 946
f 975 943 977
f 975 977 976
f 976 977 978
f 976 978 946
f 977 943 979
f 977 979 978
f 978 979 980
f 978 980 946
f 979 943 981
f 979 981 980
f 980 981 982
f 980 982 946
f 981 943 983
f 981 983 982
f 982 983 984
f 982 984 946
f 983 943 985
f 983 985 984
f 984 985 986
f 984 986 946
f 985 943 987
f 985 987 986
f 986 987 988
f 986 988 946
f 987 943 989
f 987 989 988
f 988 989 990
f 988 990 946
f 989 943 991
f 989 991 990
f 990 991 992
f 990 992 946
f 991 943 944
f 991 944 992
f 992 944 945
f 992 945 946

o geometry_103
v 1.70000000 -0.32000000 0.10000000
v 1.99440000 -0.32000000 0.10000000
v 1.99440000 -0.32000000 0.26000000
v 1.70000000 -0.32000000 0.26000000
v 1.98436856 -0.24380367 0.10000000
v 1.98436856 -0.24380367 0.26000000
v 1.95495788 -0.17280000 0.10000000
v 1.95495788 -0.17280000 0.26000000
v 1.90817224 -0.11182776 0.10000000
v 1.90817224 -0.11182776 0.26000000
v 1.84720000 -0.06504212 0.10000000
v 1.84720000 -0.06504212 0.26000000
v 1.77619633 -0.03563144 0.10000000
v 1.77619633 -0.03563144 0.26000000
v 1.70000000 -0.02560000 0.10000000
v 1.70000000 -0.02560000 0.26000000
v 1.62380367 -0.03563144 0.10000000
v 1.62380367 -0.03563144 0.26000000
v 1.55280000 -0.06504212 0.10000000
v 1.55280000 -0.06504212 0.26000000
v 1.49182776 -0.11182776 0.10000000
v 1.49182776 -0.11182776 0.26000000
v 1.44504212 -0.17280000 0.10000000
v 1.44504212 -0.17280000 0.26000000
v 1.41563144 -0.24380367 0.10000000
v 1.41563144 -0.24380367 0.26000000
v 1.40560000 -0.32000000 0.10000000
v 1.40560000 -0.32000000 0.26000000
v 1.41563144 -0.39619633 0.10000000
v 1.41563144 -0.39619633 0.26000000
v 1.44504212 -0.46720000 0.10000000
v 1.44504212 -0.46720000 0.26000000
v 1.49182776 -0.52817224 0.10000000
v 1.49182776 -0.52817224 0.26000000
v 1.55280000 -0.57495788 0.10000000
v 1.55280000 -0.57495788 0.26000000
v 1.62380367 -0.60436856 0.10000000
v 1.62380367 -0.60436856 0.26000000
v 1.70000000 -0.61440000 0.10000000
v 1.70000000 -0.61440000 0.26000000
v 1.77619633 -0.60436856 0.10000000
v 1.77619633 -0.60436856 0.26000000
v 1.84720000 -0.57495788 0.10000000
v 1.84720000 -0.57495788 0.26000000
v 1.90817224 -0.52817224 0.10000000
v 1.90817224 -0.52817224 0.26000000
v 1.95495788 -0.46720000 0.10000000
v 1.95495788 -0.46720000 0.26000000
v 1.98436856 -0.39619633 0.10000000
v 1.98436856 -0.39619633 0.26000000
f 994 993 997
f 994 997 995
f 995 997 998
f 995 998 996
f 997 993 999
f 997 999 998
f 998 999 1000
f 998 1000 996
f 999 993 1001
f 999 1001 1000
f 1000 1001 1002
f 1000 1002 996
f 1001 993 1003
f 1001 1003 1002
f 1002 1003 1004
f 1002 1004 996
f 1003 993 1005
f 1003 1005 1004
f 1004 1005 1006
f 1004 1006 996
f 1005 993 1007
f 1005 1007 1006
f 1006 1007 1008
f 1006 1008 996
f 1007 993 1009
f 1007 1009 1008
f 1008 1009 1010
f 1008 1010 996
f 1009 993 1011
f 1009 1011 1010
f 1010 1011 1012
f 1010 1012 996
f 1011 993 1013
f 1011 1013 1012
f 1012 1013 1014
f 1012 1014 996
f 1013 993 1015
f 1013 1015 1014
f 1014 1015 1016
f 1014 1016 996
f 1015 993 1017
f 1015 1017 1016
f 1016 1017 1018
f 1016 1018 996
f 1017 993 1019
f 1017 1019 1018
f 1018 1019 1020
f 1018 1020 996
f 1019 993 1021
f 1019 1021 1020
f 1020 1021 1022
f 1020 1022 996
f 1021 993 1023
f 1021 1023 1022
f 1022 1023 1024
f 1022 1024 996
f 1023 993 1025
f 1023 1025 1024
f 1024 1025 1026
f 1024 1026 996
f 1025 993 1027
f 1025 1027 1026
f 1026 1027 1028
f 1026 1028 996
f 1027 993 1029
f 1027 1029 1028
f 1028 1029 1030
f 1028 1030 996
f 1029 993 1031
f 1029 1031 1030
f 1030 1031 1032
f 1030 1032 996
f 1031 993 1033
f 1031 1033 1032
f 1032 1033 1034
f 1032 1034 996
f 1033 993 1035
f 1033 1035 1034
f 1034 1035 1036
f 1034 1036 996
f 1035 993 1037
f 1035 1037 1036
f 1036 1037 1038
f 1036 1038 996
f 1037 993 1039
f 1037 1039 1038
f 1038 1039 1040
f 1038 1040 996
f 1039 993 1041
f 1039 1041 1040
f 1040 1041 1042
f 1040 1042 996
f 1041 993 994
f 1041 994 1042
f 1042 994 995
f 1042 995 996

o geometry_104
v 1.70000000 -0.32000000 3.18000000
v 1.98060000 -0.32000000 3.18000000
v 1.98060000 -0.32000000 3.36000000
v 1.70000000 -0.32000000 3.36000000
v 1.97103879 -0.24737538 3.18000000
v 1.97103879 -0.24737538 3.36000000
v 1.94300673 -0.17970000 3.18000000
v 1.94300673 -0.17970000 3.36000000
v 1.89841416 -0.12158584 3.18000000
v 1.89841416 -0.12158584 3.36000000
v 1.84030000 -0.07699327 3.18000000
v 1.84030000 -0.07699327 3.36000000
v 1.77262462 -0.04896121 3.18000000
v 1.77262462 -0.04896121 3.36000000
v 1.70000000 -0.03940000 3.18000000
v 1.70000000 -0.03940000 3.36000000
v 1.62737538 -0.04896121 3.18000000
v 1.62737538 -0.04896121 3.36000000
v 1.55970000 -0.07699327 3.18000000
v 1.55970000 -0.07699327 3.36000000
v 1.50158584 -0.12158584 3.18000000
v 1.50158584 -0.12158584 3.36000000
v 1.45699327 -0.17970000 3.18000000
v 1.45699327 -0.17970000 3.36000000
v 1.42896121 -0.24737538 3.18000000
v 1.42896121 -0.24737538 3.36000000
v 1.41940000 -0.32000000 3.18000000
v 1.41940000 -0.32000000 3.36000000
v 1.42896121 -0.39262462 3.18000000
v 1.42896121 -0.39262462 3.36000000
v 1.45699327 -0.46030000 3.18000000
v 1.45699327 -0.46030000 3.36000000
v 1.50158584 -0.51841416 3.18000000
v 1.50158584 -0.51841416 3.36000000
v 1.55970000 -0.56300673 3.18000000
v 1.55970000 -0.56300673 3.36000000
v 1.62737538 -0.59103879 3.18000000
v 1.62737538 -0.59103879 3.36000000
v 1.70000000 -0.60060000 3.18000000
v 1.70000000 -0.60060000 3.36000000
v 1.77262462 -0.59103879 3.18000000
v 1.77262462 -0.59103879 3.36000000
v 1.84030000 -0.56300673 3.18000000
v 1.84030000 -0.56300673 3.36000000
v 1.89841416 -0.51841416 3.18000000
v 1.89841416 -0.51841416 3.36000000
v 1.94300673 -0.46030000 3.18000000
v 1.94300673 -0.46030000 3.36000000
v 1.97103879 -0.39262462 3.18000000
v 1.97103879 -0.39262462 3.36000000
f 1044 1043 1047
f 1044 1047 1045
f 1045 1047 1048
f 1045 1048 1046
f 1047 1043 1049
f 1047 1049 1048
f 1048 1049 1050
f 1048 1050 1046
f 1049 1043 1051
f 1049 1051 1050
f 1050 1051 1052
f 1050 1052 1046
f 1051 1043 1053
f 1051 1053 1052
f 1052 1053 1054
f 1052 1054 1046
f 1053 1043 1055
f 1053 1055 1054
f 1054 1055 1056
f 1054 1056 1046
f 1055 1043 1057
f 1055 1057 1056
f 1056 1057 1058
f 1056 1058 1046
f 1057 1043 1059
f 1057 1059 1058
f 1058 1059 1060
f 1058 1060 1046
f 1059 1043 1061
f 1059 1061 1060
f 1060 1061 1062
f 1060 1062 1046
f 1061 1043 1063
f 1061 1063 1062
f 1062 1063 1064
f 1062 1064 1046
f 1063 1043 1065
f 1063 1065 1064
f 1064 1065 1066
f 1064 1066 1046
f 1065 1043 1067
f 1065 1067 1066
f 1066 1067 1068
f 1066 1068 1046
f 1067 1043 1069
f 1067 1069 1068
f 1068 1069 1070
f 1068 1070 1046
f 1069 1043 1071
f 1069 1071 1070
f 1070 1071 1072
f 1070 1072 1046
f 1071 1043 1073
f 1071 1073 1072
f 1072 1073 1074
f 1072 1074 1046
f 1073 1043 1075
f 1073 1075 1074
f 1074 1075 1076
f 1074 1076 1046
f 1075 1043 1077
f 1075 1077 1076
f 1076 1077 1078
f 1076 1078 1046
f 1077 1043 1079
f 1077 1079 1078
f 1078 1079 1080
f 1078 1080 1046
f 1079 1043 1081
f 1079 1081 1080
f 1080 1081 1082
f 1080 1082 1046
f 1081 1043 1083
f 1081 1083 1082
f 1082 1083 1084
f 1082 1084 1046
f 1083 1043 1085
f 1083 1085 1084
f 1084 1085 1086
f 1084 1086 1046
f 1085 1043 1087
f 1085 1087 1086
f 1086 1087 1088
f 1086 1088 1046
f 1087 1043 1089
f 1087 1089 1088
f 1088 1089 1090
f 1088 1090 1046
f 1089 1043 1091
f 1089 1091 1090
f 1090 1091 1092
f 1090 1092 1046
f 1091 1043 1044
f 1091 1044 1092
f 1092 1044 1045
f 1092 1045 1046

o geometry_105
v 1.41250000 -0.67000000 3.11000000
v 1.41250000 -0.67000000 3.27000000
v 1.41250000 0.03000000 3.11000000
v 1.41250000 0.03000000 3.27000000
v 1.98750000 -0.67000000 3.11000000
v 1.98750000 -0.67000000 3.27000000
v 1.98750000 0.03000000 3.11000000
v 1.98750000 0.03000000 3.27000000
f 1094 1096 1093
f 1097 1094 1093
f 1093 1096 1095
f 1095 1097 1093
f 1094 1100 1096
f 1098 1094 1097
f 1098 1100 1094
f 1096 1100 1095
f 1099 1097 1095
f 1095 1100 1099
f 1099 1098 1097
f 1100 1098 1099

o geometry_106
v -1.99000000 -0.66000000 2.63000000
v -1.99000000 -0.66000000 2.81000000
v -1.99000000 -0.58000000 2.63000000
v -1.99000000 -0.58000000 2.81000000
v -1.57000000 -0.66000000 2.63000000
v -1.57000000 -0.66000000 2.81000000
v -1.57000000 -0.58000000 2.63000000
v -1.57000000 -0.58000000 2.81000000
f 1102 1104 1101
f 1105 1102 1101
f 1101 1104 1103
f 1103 1105 1101
f 1102 1108 1104
f 1106 1102 1105
f 1106 1108 1102
f 1104 1108 1103
f 1107 1105 1103
f 1103 1108 1107
f 1107 1106 1105
f 1108 1106 1107

o geometry_107
v -1.89550000 -0.73000000 2.76000000
v -1.89550000 -0.73000000 2.84000000
v -1.89550000 -0.63000000 2.76000000
v -1.89550000 -0.63000000 2.84000000
v -1.66450000 -0.73000000 2.76000000
v -1.66450000 -0.73000000 2.84000000
v -1.66450000 -0.63000000 2.76000000
v -1.66450000 -0.63000000 2.84000000
f 1110 1112 1109
f 1113 1110 1109
f 1109 1112 1111
f 1111 1113 1109
f 1110 1116 1112
f 1114 1110 1113
f 1114 1116 1110
f 1112 1116 1111
f 1115 1113 1111
f 1111 1116 1115
f 1115 1114 1113
f 1116 1114 1115

o geometry_108
v -1.57000000 -0.66000000 2.63000000
v -1.57000000 -0.66000000 2.81000000
v -1.57000000 -0.58000000 2.63000000
v -1.57000000 -0.58000000 2.81000000
v -1.15000000 -0.66000000 2.63000000
v -1.15000000 -0.66000000 2.81000000
v -1.15000000 -0.58000000 2.63000000
v -1.15000000 -0.58000000 2.81000000
f 1118 1120 1117
f 1121 1118 1117
f 1117 1120 1119
f 1119 1121 1117
f 1118 1124 1120
f 1122 1118 1121
f 1122 1124 1118
f 1120 1124 1119
f 1123 1121 1119
f 1119 1124 1123
f 1123 1122 1121
f 1124 1122 1123

o geometry_109
v -1.47550000 -0.73000000 2.60000000
v -1.47550000 -0.73000000 2.68000000
v -1.47550000 -0.63000000 2.60000000
v -1.47550000 -0.63000000 2.68000000
v -1.24450000 -0.73000000 2.60000000
v -1.24450000 -0.73000000 2.68000000
v -1.24450000 -0.63000000 2.60000000
v -1.24450000 -0.63000000 2.68000000
f 1126 1128 1125
f 1129 1126 1125
f 1125 1128 1127
f 1127 1129 1125
f 1126 1132 1128
f 1130 1126 1129
f 1130 1132 1126
f 1128 1132 1127
f 1131 1129 1127
f 1127 1132 1131
f 1131 1130 1129
f 1132 1130 1131

o geometry_110
v -1.15000000 -0.66000000 2.63000000
v -1.15000000 -0.66000000 2.81000000
v -1.15000000 -0.58000000 2.63000000
v -1.15000000 -0.58000000 2.81000000
v -0.73000000 -0.66000000 2.63000000
v -0.73000000 -0.66000000 2.81000000
v -0.73000000 -0.58000000 2.63000000
v -0.73000000 -0.58000000 2.81000000
f 1134 1136 1133
f 1137 1134 1133
f 1133 1136 1135
f 1135 1137 1133
f 1134 1140 1136
f 1138 1134 1137
f 1138 1140 1134
f 1136 1140 1135
f 1139 1137 1135
f 1135 1140 1139
f 1139 1138 1137
f 1140 1138 1139

o geometry_111
v -1.05550000 -0.73000000 2.76000000
v -1.05550000 -0.73000000 2.84000000
v -1.05550000 -0.63000000 2.76000000
v -1.05550000 -0.63000000 2.84000000
v -0.82450000 -0.73000000 2.76000000
v -0.82450000 -0.73000000 2.84000000
v -0.82450000 -0.63000000 2.76000000
v -0.82450000 -0.63000000 2.84000000
f 1142 1144 1141
f 1145 1142 1141
f 1141 1144 1143
f 1143 1145 1141
f 1142 1148 1144
f 1146 1142 1145
f 1146 1148 1142
f 1144 1148 1143
f 1147 1145 1143
f 1143 1148 1147
f 1147 1146 1145
f 1148 1146 1147

o geometry_112
v -0.73000000 -0.66000000 2.63000000
v -0.73000000 -0.66000000 2.81000000
v -0.73000000 -0.58000000 2.63000000
v -0.73000000 -0.58000000 2.81000000
v -0.31000000 -0.66000000 2.63000000
v -0.31000000 -0.66000000 2.81000000
v -0.31000000 -0.58000000 2.63000000
v -0.31000000 -0.58000000 2.81000000
f 1150 1152 1149
f 1153 1150 1149
f 1149 1152 1151
f 1151 1153 1149
f 1150 1156 1152
f 1154 1150 1153
f 1154 1156 1150
f 1152 1156 1151
f 1155 1153 1151
f 1151 1156 1155
f 1155 1154 1153
f 1156 1154 1155

o geometry_113
v -0.63550000 -0.73000000 2.60000000
v -0.63550000 -0.73000000 2.68000000
v -0.63550000 -0.63000000 2.60000000
v -0.63550000 -0.63000000 2.68000000
v -0.40450000 -0.73000000 2.60000000
v -0.40450000 -0.73000000 2.68000000
v -0.40450000 -0.63000000 2.60000000
v -0.40450000 -0.63000000 2.68000000
f 1158 1160 1157
f 1161 1158 1157
f 1157 1160 1159
f 1159 1161 1157
f 1158 1164 1160
f 1162 1158 1161
f 1162 1164 1158
f 1160 1164 1159
f 1163 1161 1159
f 1159 1164 1163
f 1163 1162 1161
f 1164 1162 1163

o geometry_114
v -0.31000000 -0.66000000 2.63000000
v -0.31000000 -0.66000000 2.81000000
v -0.31000000 -0.58000000 2.63000000
v -0.31000000 -0.58000000 2.81000000
v 0.11000000 -0.66000000 2.63000000
v 0.11000000 -0.66000000 2.81000000
v 0.11000000 -0.58000000 2.63000000
v 0.11000000 -0.58000000 2.81000000
f 1166 1168 1165
f 1169 1166 1165
f 1165 1168 1167
f 1167 1169 1165
f 1166 1172 1168
f 1170 1166 1169
f 1170 1172 1166
f 1168 1172 1167
f 1171 1169 1167
f 1167 1172 1171
f 1171 1170 1169
f 1172 1170 1171

o geometry_115
v -0.21550000 -0.73000000 2.76000000
v -0.21550000 -0.73000000 2.84000000
v -0.21550000 -0.63000000 2.76000000
v -0.21550000 -0.63000000 2.84000000
v 0.01550000 -0.73000000 2.76000000
v 0.01550000 -0.73000000 2.84000000
v 0.01550000 -0.63000000 2.76000000
v 0.01550000 -0.63000000 2.84000000
f 1174 1176 1173
f 1177 1174 1173
f 1173 1176 1175
f 1175 1177 1173
f 1174 1180 1176
f 1178 1174 1177
f 1178 1180 1174
f 1176 1180 1175
f 1179 1177 1175
f 1175 1180 1179
f 1179 1178 1177
f 1180 1178 1179

o geometry_116
v 0.11000000 -0.66000000 2.63000000
v 0.11000000 -0.66000000 2.81000000
v 0.11000000 -0.58000000 2.63000000
v 0.11000000 -0.58000000 2.81000000
v 0.53000000 -0.66000000 2.63000000
v 0.53000000 -0.66000000 2.81000000
v 0.53000000 -0.58000000 2.63000000
v 0.53000000 -0.58000000 2.81000000
f 1182 1184 1181
f 1185 1182 1181
f 1181 1184 1183
f 1183 1185 1181
f 1182 1188 1184
f 1186 1182 1185
f 1186 1188 1182
f 1184 1188 1183
f 1187 1185 1183
f 1183 1188 1187
f 1187 1186 1185
f 1188 1186 1187

o geometry_117
v 0.20450000 -0.73000000 2.60000000
v 0.20450000 -0.73000000 2.68000000
v 0.20450000 -0.63000000 2.60000000
v 0.20450000 -0.63000000 2.68000000
v 0.43550000 -0.73000000 2.60000000
v 0.43550000 -0.73000000 2.68000000
v 0.43550000 -0.63000000 2.60000000
v 0.43550000 -0.63000000 2.68000000
f 1190 1192 1189
f 1193 1190 1189
f 1189 1192 1191
f 1191 1193 1189
f 1190 1196 1192
f 1194 1190 1193
f 1194 1196 1190
f 1192 1196 1191
f 1195 1193 1191
f 1191 1196 1195
f 1195 1194 1193
f 1196 1194 1195

o geometry_118
v 0.53000000 -0.66000000 2.63000000
v 0.53000000 -0.66000000 2.81000000
v 0.53000000 -0.58000000 2.63000000
v 0.53000000 -0.58000000 2.81000000
v 0.95000000 -0.66000000 2.63000000
v 0.95000000 -0.66000000 2.81000000
v 0.95000000 -0.58000000 2.63000000
v 0.95000000 -0.58000000 2.81000000
f 1198 1200 1197
f 1201 1198 1197
f 1197 1200 1199
f 1199 1201 1197
f 1198 1204 1200
f 1202 1198 1201
f 1202 1204 1198
f 1200 1204 1199
f 1203 1201 1199
f 1199 1204 1203
f 1203 1202 1201
f 1204 1202 1203

o geometry_119
v 0.62450000 -0.73000000 2.76000000
v 0.62450000 -0.73000000 2.84000000
v 0.62450000 -0.63000000 2.76000000
v 0.62450000 -0.63000000 2.84000000
v 0.85550000 -0.73000000 2.76000000
v 0.85550000 -0.73000000 2.84000000
v 0.85550000 -0.63000000 2.76000000
v 0.85550000 -0.63000000 2.84000000
f 1206 1208 1205
f 1209 1206 1205
f 1205 1208 1207
f 1207 1209 1205
f 1206 1212 1208
f 1210 1206 1209
f 1210 1212 1206
f 1208 1212 1207
f 1211 1209 1207
f 1207 1212 1211
f 1211 1210 1209
f 1212 1210 1211

o geometry_120
v 0.95000000 -0.66000000 2.63000000
v 0.95000000 -0.66000000 2.81000000
v 0.95000000 -0.58000000 2.63000000
v 0.95000000 -0.58000000 2.81000000
v 1.37000000 -0.66000000 2.63000000
v 1.37000000 -0.66000000 2.81000000
v 1.37000000 -0.58000000 2.63000000
v 1.37000000 -0.58000000 2.81000000
f 1214 1216 1213
f 1217 1214 1213
f 1213 1216 1215
f 1215 1217 1213
f 1214 1220 1216
f 1218 1214 1217
f 1218 1220 1214
f 1216 1220 1215
f 1219 1217 1215
f 1215 1220 1219
f 1219 1218 1217
f 1220 1218 1219

o geometry_121
v 1.04450000 -0.73000000 2.60000000
v 1.04450000 -0.73000000 2.68000000
v 1.04450000 -0.63000000 2.60000000
v 1.04450000 -0.63000000 2.68000000
v 1.27550000 -0.73000000 2.60000000
v 1.27550000 -0.73000000 2.68000000
v 1.27550000 -0.63000000 2.60000000
v 1.27550000 -0.63000000 2.68000000
f 1222 1224 1221
f 1225 1222 1221
f 1221 1224 1223
f 1223 1225 1221
f 1222 1228 1224
f 1226 1222 1225
f 1226 1228 1222
f 1224 1228 1223
f 1227 1225 1223
f 1223 1228 1227
f 1227 1226 1225
f 1228 1226 1227

o geometry_122
v 1.37000000 -0.66000000 2.63000000
v 1.37000000 -0.66000000 2.81000000
v 1.37000000 -0.58000000 2.63000000
v 1.37000000 -0.58000000 2.81000000
v 1.79000000 -0.66000000 2.63000000
v 1.79000000 -0.66000000 2.81000000
v 1.79000000 -0.58000000 2.63000000
v 1.79000000 -0.58000000 2.81000000
f 1230 1232 1229
f 1233 1230 1229
f 1229 1232 1231
f 1231 1233 1229
f 1230 1236 1232
f 1234 1230 1233
f 1234 1236 1230
f 1232 1236 1231
f 1235 1233 1231
f 1231 1236 1235
f 1235 1234 1233
f 1236 1234 1235

o geometry_123
v 1.46450000 -0.73000000 2.76000000
v 1.46450000 -0.73000000 2.84000000
v 1.46450000 -0.63000000 2.76000000
v 1.46450000 -0.63000000 2.84000000
v 1.69550000 -0.73000000 2.76000000
v 1.69550000 -0.73000000 2.84000000
v 1.69550000 -0.63000000 2.76000000
v 1.69550000 -0.63000000 2.84000000
f 1238 1240 1237
f 1241 1238 1237
f 1237 1240 1239
f 1239 1241 1237
f 1238 1244 1240
f 1242 1238 1241
f 1242 1244 1238
f 1240 1244 1239
f 1243 1241 1239
f 1239 1244 1243
f 1243 1242 1241
f 1244 1242 1243

o geometry_124
v -2.00000000 -0.29500000 0.00000000
v -2.00000000 -0.29500000 0.18000000
v -2.00000000 0.25500000 0.00000000
v -2.00000000 0.25500000 0.18000000
v 2.00000000 -0.29500000 0.00000000
v 2.00000000 -0.29500000 0.18000000
v 2.00000000 0.25500000 0.00000000
v 2.00000000 0.25500000 0.18000000
f 1246 1248 1245
f 1249 1246 1245
f 1245 1248 1247
f 1247 1249 1245
f 1246 1252 1248
f 1250 1246 1249
f 1250 1252 1246
f 1248 1252 1247
f 1251 1249 1247
f 1247 1252 1251
f 1251 1250 1249
f 1252 1250 1251

o geometry_125
v -2.00000000 -0.33000000 3.25000000
v -2.00000000 -0.33000000 3.50000000
v -2.00000000 0.29000000 3.25000000
v -2.00000000 0.29000000 3.50000000
v 2.00000000 -0.33000000 3.25000000
v 2.00000000 -0.33000000 3.50000000
v 2.00000000 0.29000000 3.25000000
v 2.00000000 0.29000000 3.50000000
f 1254 1256 1253
f 1257 1254 1253
f 1253 1256 1255
f 1255 1257 1253
f 1254 1260 1256
f 1258 1254 1257
f 1258 1260 1254
f 1256 1260 1255
f 1259 1257 1255
f 1255 1260 1259
f 1259 1258 1257
f 1260 1258 1259

o geometry_126
v -0.48506266 -0.33615566 0.09152459
v -0.33700936 -0.33615566 0.09152459
v -0.48506266 -0.50384434 0.09152459
v -0.33700936 -0.50384434 0.09152459
v -0.41103601 -0.47181865 0.24407416
v -0.41103601 -0.36818135 0.24407416
v -0.41103601 -0.47181865 -0.06102499
v -0.41103601 -0.36818135 -0.06102499
v -0.29125838 -0.42000000 -0.00275624
v -0.29125838 -0.42000000 0.18580541
v -0.53081365 -0.42000000 -0.00275624
v -0.53081365 -0.42000000 0.18580541
v -0.41103601 -0.32143506 0.09152459
v -0.41103601 -0.51856494 0.09152459
v -0.45454778 -0.49974071 0.18119098
v -0.36752424 -0.49974071 0.18119098
v -0.45454778 -0.34025929 0.18119098
v -0.36752424 -0.34025929 0.18119098
v -0.41103601 -0.42000000 0.27085737
v -0.45454778 -0.49974071 0.00185819
v -0.36752424 -0.49974071 0.00185819
v -0.45454778 -0.34025929 0.00185819
v -0.36752424 -0.34025929 0.00185819
v -0.41103601 -0.42000000 -0.08780820
v -0.29712071 -0.37071753 0.03610771
v -0.29712071 -0.46928247 0.03610771
v -0.34063248 -0.45045824 -0.05355868
v -0.34063248 -0.38954176 -0.05355868
v -0.29712071 -0.37071753 0.14694146
v -0.29712071 -0.46928247 0.14694146
v -0.34063248 -0.45045824 0.23660786
v -0.34063248 -0.38954176 0.23660786
v -0.27022896 -0.42000000 0.09152459
v -0.52495131 -0.37071753 0.03610771
v -0.52495131 -0.46928247 0.03610771
v -0.48143954 -0.45045824 -0.05355868
v -0.48143954 -0.38954176 -0.05355868
v -0.52495131 -0.37071753 0.14694146
v -0.52495131 -0.46928247 0.14694146
v -0.48143954 -0.45045824 0.23660786
v -0.48143954 -0.38954176 0.23660786
v -0.55184307 -0.42000000 0.09152459
f 1261 1298 1277
f 1298 1272 1301
f 1277 1301 1266
f 1298 1301 1277
f 1261 1277 1273
f 1277 1266 1278
f 1273 1278 1262
f 1277 1278 1273
f 1261 1273 1282
f 1273 1262 1283
f 1282 1283 1268
f 1273 1283 1282
f 1261 1282 1294
f 1282 1268 1297
f 1294 1297 1271
f 1282 1297 1294
f 1261 1294 1298
f 1294 1271 1302
f 1298 1302 1272
f 1294 1302 1298
f 1262 1278 1289
f 1278 1266 1292
f 1289 1292 1270
f 1278 1292 1289
f 1266 1301 1279
f 1301 1272 1300
f 1279 1300 1265
f 1301 1300 1279
f 1272 1302 1299
f 1302 1271 1295
f 1299 1295 1263
f 1302 1295 1299
f 1271 1297 1296
f 1297 1268 1284
f 1296 1284 1267
f 1297 1284 1296
f 1268 1283 1288
f 1283 1262 1285
f 1288 1285 1269
f 1283 1285 1288
f 1264 1290 1276
f 1290 1270 1291
f 1276 1291 1265
f 1290 1291 1276
f 1264 1276 1274
f 1276 1265 1275
f 1274 1275 1263
f 1276 1275 1274
f 1264 1274 1281
f 1274 1263 1280
f 1281 1280 1267
f 1274 1280 1281
f 1264 1281 1286
f 1281 1267 1287
f 1286 1287 1269
f 1281 1287 1286
f 1264 1286 1290
f 1286 1269 1293
f 1290 1293 1270
f 1286 1293 1290
f 1265 1291 1279
f 1291 1270 1292
f 1279 1292 1266
f 1291 1292 1279
f 1263 1275 1299
f 1275 1265 1300
f 1299 1300 1272
f 1275 1300 1299
f 1267 1280 1296
f 1280 1263 1295
f 1296 1295 1271
f 1280 1295 1296
f 1269 1287 1288
f 1287 1267 1284
f 1288 1284 1268
f 1287 1284 1288
f 1270 1293 1289
f 1293 1269 1285
f 1289 1285 1262
f 1293 1285 1289

o geometry_127
v -0.39708598 -0.28491075 0.14746358
v -0.15854385 -0.28491075 0.14746358
v -0.39708598 -0.55508925 0.14746358
v -0.15854385 -0.55508925 0.14746358
v -0.27781492 -0.50348975 0.27476198
v -0.27781492 -0.33651025 0.27476198
v -0.27781492 -0.50348975 0.02016518
v -0.27781492 -0.33651025 0.02016518
v -0.08483028 -0.42000000 0.06878884
v -0.08483028 -0.42000000 0.22613831
v -0.47079955 -0.42000000 0.06878884
v -0.47079955 -0.42000000 0.22613831
v -0.27781492 -0.26119307 0.14746358
v -0.27781492 -0.57880693 0.14746358
v -0.34792069 -0.54847751 0.22228770
v -0.20770914 -0.54847751 0.22228770
v -0.34792069 -0.29152249 0.22228770
v -0.20770914 -0.29152249 0.22228770
v -0.27781492 -0.42000000 0.29711182
v -0.34792069 -0.54847751 0.07263946
v -0.20770914 -0.54847751 0.07263946
v -0.34792069 -0.29152249 0.07263946
v -0.20770914 -0.29152249 0.07263946
v -0.27781492 -0.42000000 -0.00218466
v -0.09427562 -0.34059653 0.10121973
v -0.09427562 -0.49940347 0.10121973
v -0.16438139 -0.46907404 0.02639561
v -0.16438139 -0.37092596 0.02639561
v -0.09427562 -0.34059653 0.19370743
v -0.09427562 -0.49940347 0.19370743
v -0.16438139 -0.46907404 0.26853155
v -0.16438139 -0.37092596 0.26853155
v -0.05094787 -0.42000000 0.14746358
v -0.46135421 -0.34059653 0.10121973
v -0.46135421 -0.49940347 0.10121973
v -0.39124844 -0.46907404 0.02639561
v -0.39124844 -0.37092596 0.02639561
v -0.46135421 -0.34059653 0.19370743
v -0.46135421 -0.49940347 0.19370743
v -0.39124844 -0.46907404 0.26853155
v -0.39124844 -0.37092596 0.26853155
v -0.50468196 -0.42000000 0.14746358
f 1303 1340 1319
f 1340 1314 1343
f 1319 1343 1308
f 1340 1343 1319
f 1303 1319 1315
f 1319 1308 1320
f 1315 1320 1304
f 1319 1320 1315
f 1303 1315 1324
f 1315 1304 1325
f 1324 1325 1310
f 1315 1325 1324
f 1303 1324 1336
f 1324 1310 1339
f 1336 1339 1313
f 1324 1339 1336
f 1303 1336 1340
f 1336 1313 1344
f 1340 1344 1314
f 1336 1344 1340
f 1304 1320 1331
f 1320 1308 1334
f 1331 1334 1312
f 1320 1334 1331
f 1308 1343 1321
f 1343 1314 1342
f 1321 1342 1307
f 1343 1342 1321
f 1314 1344 1341
f 1344 1313 1337
f 1341 1337 1305
f 1344 1337 1341
f 1313 1339 1338
f 1339 1310 1326
f 1338 1326 1309
f 1339 1326 1338
f 1310 1325 1330
f 1325 1304 1327
f 1330 1327 1311
f 1325 1327 1330
f 1306 1332 1318
f 1332 1312 1333
f 1318 1333 1307
f 1332 1333 1318
f 1306 1318 1316
f 1318 1307 1317
f 1316 1317 1305
f 1318 1317 1316
f 1306 1316 1323
f 1316 1305 1322
f 1323 1322 1309
f 1316 1322 1323
f 1306 1323 1328
f 1323 1309 1329
f 1328 1329 1311
f 1323 1329 1328
f 1306 1328 1332
f 1328 1311 1335
f 1332 1335 1312
f 1328 1335 1332
f 1307 1333 1321
f 1333 1312 1334
f 1321 1334 1308
f 1333 1334 1321
f 1305 1317 1341
f 1317 1307 1342
f 1341 1342 1314
f 1317 1342 1341
f 1309 1322 1338
f 1322 1305 1337
f 1338 1337 1313
f 1322 1337 1338
f 1311 1329 1330
f 1329 1309 1326
f 1330 1326 1310
f 1329 1326 1330
f 1312 1335 1331
f 1335 1311 1327
f 1331 1327 1304
f 1335 1327 1331

o geometry_128
v 0.00893303 -0.25336585 0.18189804
v 0.30317752 -0.25336585 0.18189804
v 0.00893303 -0.58663415 0.18189804
v 0.30317752 -0.58663415 0.18189804
v 0.15605528 -0.52298557 0.35962011
v 0.15605528 -0.31701443 0.35962011
v 0.15605528 -0.52298557 0.00417597
v 0.15605528 -0.31701443 0.00417597
v 0.39410407 -0.42000000 0.07205976
v 0.39410407 -0.42000000 0.29173632
v -0.08199351 -0.42000000 0.07205976
v -0.08199351 -0.42000000 0.29173632
v 0.15605528 -0.22410980 0.18189804
v 0.15605528 -0.61589020 0.18189804
v 0.06957899 -0.57847850 0.28636045
v 0.24253156 -0.57847850 0.28636045
v 0.06957899 -0.26152150 0.28636045
v 0.24253156 -0.26152150 0.28636045
v 0.15605528 -0.42000000 0.39082286
v 0.06957899 -0.57847850 0.07743563
v 0.24253156 -0.57847850 0.07743563
v 0.06957899 -0.26152150 0.07743563
v 0.24253156 -0.26152150 0.07743563
v 0.15605528 -0.42000000 -0.02702679
v 0.38245313 -0.32205490 0.11733672
v 0.38245313 -0.51794510 0.11733672
v 0.29597685 -0.48053340 0.01287430
v 0.29597685 -0.35946660 0.01287430
v 0.38245313 -0.32205490 0.24645936
v 0.38245313 -0.51794510 0.24645936
v 0.29597685 -0.48053340 0.35092177
v 0.29597685 -0.35946660 0.35092177
v 0.43589842 -0.42000000 0.18189804
v -0.07034258 -0.32205490 0.11733672
v -0.07034258 -0.51794510 0.11733672
v 0.01613371 -0.48053340 0.01287430
v 0.01613371 -0.35946660 0.01287430
v -0.07034258 -0.32205490 0.24645936
v -0.07034258 -0.51794510 0.24645936
v 0.01613371 -0.48053340 0.35092177
v 0.01613371 -0.35946660 0.35092177
v -0.12378786 -0.42000000 0.18189804
f 1345 1382 1361
f 1382 1356 1385
f 1361 1385 1350
f 1382 1385 1361
f 1345 1361 1357
f 1361 1350 1362
f 1357 1362 1346
f 1361 1362 1357
f 1345 1357 1366
f 1357 1346 1367
f 1366 1367 1352
f 1357 1367 1366
f 1345 1366 1378
f 1366 1352 1381
f 1378 1381 1355
f 1366 1381 1378
f 1345 1378 1382
f 1378 1355 1386
f 1382 1386 1356
f 1378 1386 1382
f 1346 1362 1373
f 1362 1350 1376
f 1373 1376 1354
f 1362 1376 1373
f 1350 1385 1363
f 1385 1356 1384
f 1363 1384 1349
f 1385 1384 1363
f 1356 1386 1383
f 1386 1355 1379
f 1383 1379 1347
f 1386 1379 1383
f 1355 1381 1380
f 1381 1352 1368
f 1380 1368 1351
f 1381 1368 1380
f 1352 1367 1372
f 1367 1346 1369
f 1372 1369 1353
f 1367 1369 1372
f 1348 1374 1360
f 1374 1354 1375
f 1360 1375 1349
f 1374 1375 1360
f 1348 1360 1358
f 1360 1349 1359
f 1358 1359 1347
f 1360 1359 1358
f 1348 1358 1365
f 1358 1347 1364
f 1365 1364 1351
f 1358 1364 1365
f 1348 1365 1370
f 1365 1351 1371
f 1370 1371 1353
f 1365 1371 1370
f 1348 1370 1374
f 1370 1353 1377
f 1374 1377 1354
f 1370 1377 1374
f 1349 1375 1363
f 1375 1354 1376
f 1363 1376 1350
f 1375 1376 1363
f 1347 1359 1383
f 1359 1349 1384
f 1383 1384 1356
f 1359 1384 1383
f 1351 1364 1380
f 1364 1347 1379
f 1380 1379 1355
f 1364 1379 1380
f 1353 1371 1372
f 1371 1351 1368
f 1372 1368 1352
f 1371 1368 1372
f 1354 1377 1373
f 1377 1353 1369
f 1373 1369 1346
f 1377 1369 1373

o geometry_129
v -0.10154071 -0.31124357 0.11871865
v 0.09050264 -0.31124357 0.11871865
v -0.10154071 -0.52875643 0.11871865
v 0.09050264 -0.52875643 0.11871865
v -0.00551904 -0.48721517 0.26121952
v -0.00551904 -0.35278483 0.26121952
v -0.00551904 -0.48721517 -0.02378222
v -0.00551904 -0.35278483 -0.02378222
v 0.14984730 -0.42000000 0.03064827
v 0.14984730 -0.42000000 0.20678903
v -0.16088537 -0.42000000 0.03064827
v -0.16088537 -0.42000000 0.20678903
v -0.00551904 -0.29214915 0.11871865
v -0.00551904 -0.54785085 0.11871865
v -0.06195916 -0.52343351 0.20247856
v 0.05092109 -0.52343351 0.20247856
v -0.06195916 -0.31656649 0.20247856
v 0.05092109 -0.31656649 0.20247856
v -0.00551904 -0.42000000 0.28623846
v -0.06195916 -0.52343351 0.03495874
v 0.05092109 -0.52343351 0.03495874
v -0.06195916 -0.31656649 0.03495874
v 0.05092109 -0.31656649 0.03495874
v -0.00551904 -0.42000000 -0.04880116
v 0.14224313 -0.35607457 0.06695218
v 0.14224313 -0.48392543 0.06695218
v 0.08580300 -0.45950809 -0.01680773
v 0.08580300 -0.38049191 -0.01680773
v 0.14224313 -0.35607457 0.17048512
v 0.14224313 -0.48392543 0.17048512
v 0.08580300 -0.45950809 0.25424503
v 0.08580300 -0.38049191 0.25424503
v 0.17712504 -0.42000000 0.11871865
v -0.15328120 -0.35607457 0.06695218
v -0.15328120 -0.48392543 0.06695218
v -0.09684108 -0.45950809 -0.01680773
v -0.09684108 -0.38049191 -0.01680773
v -0.15328120 -0.35607457 0.17048512
v -0.15328120 -0.48392543 0.17048512
v -0.09684108 -0.45950809 0.25424503
v -0.09684108 -0.38049191 0.25424503
v -0.18816311 -0.42000000 0.11871865
f 1387 1424 1403
f 1424 1398 1427
f 1403 1427 1392
f 1424 1427 1403
f 1387 1403 1399
f 1403 1392 1404
f 1399 1404 1388
f 1403 1404 1399
f 1387 1399 1408
f 1399 1388 1409
f 1408 1409 1394
f 1399 1409 1408
f 1387 1408 1420
f 1408 1394 1423
f 1420 1423 1397
f 1408 1423 1420
f 1387 1420 1424
f 1420 1397 1428
f 1424 1428 1398
f 1420 1428 1424
f 1388 1404 1415
f 1404 1392 1418
f 1415 1418 1396
f 1404 1418 1415
f 1392 1427 1405
f 1427 1398 1426
f 1405 1426 1391
f 1427 1426 1405
f 1398 1428 1425
f 1428 1397 1421
f 1425 1421 1389
f 1428 1421 1425
f 1397 1423 1422
f 1423 1394 1410
f 1422 1410 1393
f 1423 1410 1422
f 1394 1409 1414
f 1409 1388 1411
f 1414 1411 1395
f 1409 1411 1414
f 1390 1416 1402
f 1416 1396 1417
f 1402 1417 1391
f 1416 1417 1402
f 1390 1402 1400
f 1402 1391 1401
f 1400 1401 1389
f 1402 1401 1400
f 1390 1400 1407
f 1400 1389 1406
f 1407 1406 1393
f 1400 1406 1407
f 1390 1407 1412
f 1407 1393 1413
f 1412 1413 1395
f 1407 1413 1412
f 1390 1412 1416
f 1412 1395 1419
f 1416 1419 1396
f 1412 1419 1416
f 1391 1417 1405
f 1417 1396 1418
f 1405 1418 1392
f 1417 1418 1405
f 1389 1401 1425
f 1401 1391 1426
f 1425 1426 1398
f 1401 1426 1425
f 1393 1406 1422
f 1406 1389 1421
f 1422 1421 1397
f 1406 1421 1422
f 1395 1413 1414
f 1413 1393 1410
f 1414 1410 1394
f 1413 1410 1414
f 1396 1419 1415
f 1419 1395 1411
f 1415 1411 1388
f 1419 1411 1415

o geometry_130
v -0.52224204 -0.33985076 0.08749101
v -0.38071359 -0.33985076 0.08749101
v -0.52224204 -0.50014924 0.08749101
v -0.38071359 -0.50014924 0.08749101
v -0.45147781 -0.46953496 0.22275601
v -0.45147781 -0.37046504 0.22275601
v -0.45147781 -0.46953496 -0.04777399
v -0.45147781 -0.37046504 -0.04777399
v -0.33697890 -0.42000000 0.00389264
v -0.33697890 -0.42000000 0.17108938
v -0.56597673 -0.42000000 0.00389264
v -0.56597673 -0.42000000 0.17108938
v -0.45147781 -0.32577891 0.08749101
v -0.45147781 -0.51422109 0.08749101
v -0.49307198 -0.49622646 0.16699778
v -0.40988365 -0.49622646 0.16699778
v -0.49307198 -0.34377354 0.16699778
v -0.40988365 -0.34377354 0.16699778
v -0.45147781 -0.42000000 0.24650456
v -0.49307198 -0.49622646 0.00798423
v -0.40988365 -0.49622646 0.00798423
v -0.49307198 -0.34377354 0.00798423
v -0.40988365 -0.34377354 0.00798423
v -0.45147781 -0.42000000 -0.07152254
v -0.34258287 -0.37288946 0.03835312
v -0.34258287 -0.46711054 0.03835312
v -0.38417704 -0.44911592 -0.04115365
v -0.38417704 -0.39088408 -0.04115365
v -0.34258287 -0.37288946 0.13662890
v -0.34258287 -0.46711054 0.13662890
v -0.38417704 -0.44911592 0.21613567
v -0.38417704 -0.39088408 0.21613567
v -0.31687626 -0.42000000 0.08749101
v -0.56037276 -0.37288946 0.03835312
v -0.56037276 -0.46711054 0.03835312
v -0.51877859 -0.44911592 -0.04115365
v -0.51877859 -0.39088408 -0.04115365
v -0.56037276 -0.37288946 0.13662890
v -0.56037276 -0.46711054 0.13662890
v -0.51877859 -0.44911592 0.21613567
v -0.51877859 -0.39088408 0.21613567
v -0.58607937 -0.42000000 0.08749101
f 1429 1466 1445
f 1466 1440 1469
f 1445 1469 1434
f 1466 1469 1445
f 1429 1445 1441
f 1445 1434 1446
f 1441 1446 1430
f 1445 1446 1441
f 1429 1441 1450
f 1441 1430 1451
f 1450 1451 1436
f 1441 1451 1450
f 1429 1450 1462
f 1450 1436 1465
f 1462 1465 1439
f 1450 1465 1462
f 1429 1462 1466
f 1462 1439 1470
f 1466 1470 1440
f 1462 1470 1466
f 1430 1446 1457
f 1446 1434 1460
f 1457 1460 1438
f 1446 1460 1457
f 1434 1469 1447
f 1469 1440 1468
f 1447 1468 1433
f 1469 1468 1447
f 1440 1470 1467
f 1470 1439 1463
f 1467 1463 1431
f 1470 1463 1467
f 1439 1465 1464
f 1465 1436 1452
f 1464 1452 1435
f 1465 1452 1464
f 1436 1451 1456
f 1451 1430 1453
f 1456 1453 1437
f 1451 1453 1456
f 1432 1458 1444
f 1458 1438 1459
f 1444 1459 1433
f 1458 1459 1444
f 1432 1444 1442
f 1444 1433 1443
f 1442 1443 1431
f 1444 1443 1442
f 1432 1442 1449
f 1442 1431 1448
f 1449 1448 1435
f 1442 1448 1449
f 1432 1449 1454
f 1449 1435 1455
f 1454 1455 1437
f 1449 1455 1454
f 1432 1454 1458
f 1454 1437 1461
f 1458 1461 1438
f 1454 1461 1458
f 1433 1459 1447
f 1459 1438 1460
f 1447 1460 1434
f 1459 1460 1447
f 1431 1443 1467
f 1443 1433 1468
f 1467 1468 1440
f 1443 1468 1467
f 1435 1448 1464
f 1448 1431 1463
f 1464 1463 1439
f 1448 1463 1464
f 1437 1455 1456
f 1455 1435 1452
f 1456 1452 1436
f 1455 1452 1456
f 1438 1461 1457
f 1461 1437 1453
f 1457 1453 1430
f 1461 1453 1457

o geometry_131
v -0.33129001 -0.33535425 0.09239941
v -0.18182157 -0.33535425 0.09239941
v -0.33129001 -0.50464575 0.09239941
v -0.18182157 -0.50464575 0.09239941
v -0.25655579 -0.47231395 0.16664509
v -0.25655579 -0.36768605 0.16664509
v -0.25655579 -0.47231395 0.01815372
v -0.25655579 -0.36768605 0.01815372
v -0.13563329 -0.42000000 0.04651305
v -0.13563329 -0.42000000 0.13828576
v -0.37747830 -0.42000000 0.04651305
v -0.37747830 -0.42000000 0.13828576
v -0.25655579 -0.32049295 0.09239941
v -0.25655579 -0.51950705 0.09239941
v -0.30048346 -0.50050290 0.13603992
v -0.21262812 -0.50050290 0.13603992
v -0.30048346 -0.33949710 0.13603992
v -0.21262812 -0.33949710 0.13603992
v -0.25655579 -0.42000000 0.17968044
v -0.30048346 -0.50050290 0.04875889
v -0.21262812 -0.50050290 0.04875889
v -0.30048346 -0.33949710 0.04875889
v -0.21262812 -0.33949710 0.04875889
v -0.25655579 -0.42000000 0.00511837
v -0.14155165 -0.37024647 0.06542808
v -0.14155165 -0.46975353 0.06542808
v -0.18547933 -0.45074937 0.02178757
v -0.18547933 -0.38925063 0.02178757
v -0.14155165 -0.37024647 0.11937073
v -0.14155165 -0.46975353 0.11937073
v -0.18547933 -0.45074937 0.16301125
v -0.18547933 -0.38925063 0.16301125
v -0.11440286 -0.42000000 0.09239941
v -0.37155993 -0.37024647 0.06542808
v -0.37155993 -0.46975353 0.06542808
v -0.32763226 -0.45074937 0.02178757
v -0.32763226 -0.38925063 0.02178757
v -0.37155993 -0.37024647 0.11937073
v -0.37155993 -0.46975353 0.11937073
v -0.32763226 -0.45074937 0.16301125
v -0.32763226 -0.38925063 0.16301125
v -0.39870873 -0.42000000 0.09239941
f 1471 1508 1487
f 1508 1482 1511
f 1487 1511 1476
f 1508 1511 1487
f 1471 1487 1483
f 1487 1476 1488
f 1483 1488 1472
f 1487 1488 1483
f 1471 1483 1492
f 1483 1472 1493
f 1492 1493 1478
f 1483 1493 1492
f 1471 1492 1504
f 1492 1478 1507
f 1504 1507 1481
f 1492 1507 1504
f 1471 1504 1508
f 1504 1481 1512
f 1508 1512 1482
f 1504 1512 1508
f 1472 1488 1499
f 1488 1476 1502
f 1499 1502 1480
f 1488 1502 1499
f 1476 1511 1489
f 1511 1482 1510
f 1489 1510 1475
f 1511 1510 1489
f 1482 1512 1509
f 1512 1481 1505
f 1509 1505 1473
f 1512 1505 1509
f 1481 1507 1506
f 1507 1478 1494
f 1506 1494 1477
f 1507 1494 1506
f 1478 1493 1498
f 1493 1472 1495
f 1498 1495 1479
f 1493 1495 1498
f 1474 1500 1486
f 1500 1480 1501
f 1486 1501 1475
f 1500 1501 1486
f 1474 1486 1484
f 1486 1475 1485
f 1484 1485 1473
f 1486 1485 1484
f 1474 1484 1491
f 1484 1473 1490
f 1491 1490 1477
f 1484 1490 1491
f 1474 1491 1496
f 1491 1477 1497
f 1496 1497 1479
f 1491 1497 1496
f 1474 1496 1500
f 1496 1479 1503
f 1500 1503 1480
f 1496 1503 1500
f 1475 1501 1489
f 1501 1480 1502
f 1489 1502 1476
f 1501 1502 1489
f 1473 1485 1509
f 1485 1475 1510
f 1509 1510 1482
f 1485 1510 1509
f 1477 1490 1506
f 1490 1473 1505
f 1506 1505 1481
f 1490 1505 1506
f 1479 1497 1498
f 1497 1477 1494
f 1498 1494 1478
f 1497 1494 1498
f 1480 1503 1499
f 1503 1479 1495
f 1499 1495 1472
f 1503 1495 1499

