# https://github.com/mikedh/trimesh

o geometry_0
v -1.98834538 -0.47899004 -0.00557303
v -1.98834538 -0.47899004 0.46942697
v -1.99362377 0.00098094 -0.00557303
v -1.99362377 0.00098094 0.46942697
v -1.47818528 -0.47337965 -0.00557303
v -1.47818528 -0.47337965 0.46942697
v -1.48346366 0.00659132 -0.00557303
v -1.48346366 0.00659132 0.46942697
f 2 4 1
f 5 2 1
f 1 4 3
f 3 5 1
f 2 8 4
f 6 2 5
f 6 8 2
f 4 8 3
f 7 5 3
f 3 8 7
f 7 6 5
f 8 6 7

o geometry_1
v -1.46580927 -0.47722980 0.03241490
v -1.46580927 -0.47722980 0.50741490
v -1.45977316 0.00273225 0.03241490
v -1.45977316 0.00273225 0.50741490
v -1.01500837 -0.48289917 0.03241490
v -1.01500837 -0.48289917 0.50741490
v -1.00897226 -0.00293713 0.03241490
v -1.00897226 -0.00293713 0.50741490
f 10 12 9
f 13 10 9
f 9 12 11
f 11 13 9
f 10 16 12
f 14 10 13
f 14 16 10
f 12 16 11
f 15 13 11
f 11 16 15
f 15 14 13
f 16 14 15

o geometry_2
v -0.99484182 -0.48255055 -0.01045521
v -0.99484182 -0.48255055 0.46454479
v -0.99309971 -0.00255371 -0.01045521
v -0.99309971 -0.00255371 0.46454479
v -0.47279010 -0.48444530 -0.01045521
v -0.47279010 -0.48444530 0.46454479
v -0.47104799 -0.00444846 -0.01045521
v -0.47104799 -0.00444846 0.46454479
f 18 20 17
f 21 18 17
f 17 20 19
f 19 21 17
f 18 24 20
f 22 18 21
f 22 24 18
f 20 24 19
f 23 21 19
f 19 24 23
f 23 22 21
f 24 22 23

o geometry_3
v -0.45637143 -0.47576349 0.02375327
v -0.45637143 -0.47576349 0.49875327
v -0.45143458 0.00421113 0.02375327
v -0.45143458 0.00421113 0.49875327
v 0.08505238 -0.48133238 0.02375327
v 0.08505238 -0.48133238 0.49875327
v 0.08998923 -0.00135777 0.02375327
v 0.08998923 -0.00135777 0.49875327
f 26 28 25
f 29 26 25
f 25 28 27
f 27 29 25
f 26 32 28
f 30 26 29
f 30 32 26
f 28 32 27
f 31 29 27
f 27 32 31
f 31 30 29
f 32 30 31

o geometry_4
v 0.10860606 -0.47136650 0.01281345
v 0.10860606 -0.47136650 0.48781345
v 0.10250307 0.00859470 0.01281345
v 0.10250307 0.00859470 0.48781345
v 0.58950877 -0.46525155 0.01281345
v 0.58950877 -0.46525155 0.48781345
v 0.58340578 0.01470965 0.01281345
v 0.58340578 0.01470965 0.48781345
f 34 36 33
f 37 34 33
f 33 36 35
f 35 37 33
f 34 40 36
f 38 34 37
f 38 40 34
f 36 40 35
f 39 37 35
f 35 40 39
f 39 38 37
f 40 38 39

o geometry_5
v 0.60625576 -0.49016421 0.00668324
v 0.60625576 -0.49016421 0.48168324
v 0.60271202 -0.01017729 0.00668324
v 0.60271202 -0.01017729 0.48168324
v 1.13299710 -0.48627528 0.00668324
v 1.13299710 -0.48627528 0.48168324
v 1.12945336 -0.00628836 0.00668324
v 1.12945336 -0.00628836 0.48168324
f 42 44 41
f 45 42 41
f 41 44 43
f 43 45 41
f 42 48 44
f 46 42 45
f 46 48 42
f 44 48 43
f 47 45 43
f 43 48 47
f 47 46 45
f 48 46 47

o geometry_6
v 1.15086279 -0.47529809 0.02121180
v 1.15086279 -0.47529809 0.49621180
v 1.14761265 0.00469090 0.02121180
v 1.14761265 0.00469090 0.49621180
v 1.61406920 -0.47216159 0.02121180
v 1.61406920 -0.47216159 0.49621180
v 1.61081906 0.00782741 0.02121180
v 1.61081906 0.00782741 0.49621180
f 50 52 49
f 53 50 49
f 49 52 51
f 51 53 49
f 50 56 52
f 54 50 53
f 54 56 50
f 52 56 51
f 55 53 51
f 51 56 55
f 55 54 53
f 56 54 55

o geometry_7
v 1.62836750 -0.46605331 0.00083668
v 1.62836750 -0.46605331 0.47583668
v 1.63254503 0.01392851 0.00083668
v 1.63254503 0.01392851 0.47583668
v 1.98890441 -0.46919125 0.00083668
v 1.98890441 -0.46919125 0.47583668
v 1.99308194 0.01079057 0.00083668
v 1.99308194 0.01079057 0.47583668
f 58 60 57
f 61 58 57
f 57 60 59
f 59 61 57
f 58 64 60
f 62 58 61
f 62 64 58
f 60 64 59
f 63 61 59
f 59 64 63
f 63 62 61
f 64 62 63

o geometry_8
v -1.98819740 -0.49282028 0.49747416
v -1.98819740 -0.49282028 0.97247416
v -1.99376143 -0.01285253 0.49747416
v -1.99376143 -0.01285253 0.97247416
v -1.37554610 -0.48571811 0.49747416
v -1.37554610 -0.48571811 0.97247416
v -1.38111013 -0.00575036 0.49747416
v -1.38111013 -0.00575036 0.97247416
f 66 68 65
f 69 66 65
f 65 68 67
f 67 69 65
f 66 72 68
f 70 66 69
f 70 72 66
f 68 72 67
f 71 69 67
f 67 72 71
f 71 70 69
f 72 70 71

o geometry_9
v -1.36036720 -0.46655542 0.50644082
v -1.36036720 -0.46655542 0.98144082
v -1.36024785 0.01344457 0.50644082
v -1.36024785 0.01344457 0.98144082
v -0.65046908 -0.46673193 0.50644082
v -0.65046908 -0.46673193 0.98144082
v -0.65034972 0.01326805 0.50644082
v -0.65034972 0.01326805 0.98144082
f 74 76 73
f 77 74 73
f 73 76 75
f 75 77 73
f 74 80 76
f 78 74 77
f 78 80 74
f 76 80 75
f 79 77 75
f 75 80 79
f 79 78 77
f 80 78 79

o geometry_10
v -0.63518326 -0.47440383 0.53282053
v -0.63518326 -0.47440383 1.00782053
v -0.62959686 0.00556366 0.53282053
v -0.62959686 0.00556366 1.00782053
v -0.06440591 -0.48104718 0.53282053
v -0.06440591 -0.48104718 1.00782053
v -0.05881950 -0.00107969 0.53282053
v -0.05881950 -0.00107969 1.00782053
f 82 84 81
f 85 82 81
f 81 84 83
f 83 85 81
f 82 88 84
f 86 82 85
f 86 88 82
f 84 88 83
f 87 85 83
f 83 88 87
f 87 86 85
f 88 86 87

o geometry_11
v -0.04072391 -0.47255715 0.51643501
v -0.04072391 -0.47255715 0.99143501
v -0.04641615 0.00740909 0.51643501
v -0.04641615 0.00740909 0.99143501
v 0.62321681 -0.46468304 0.51643501
v 0.62321681 -0.46468304 0.99143501
v 0.61752458 0.01528321 0.51643501
v 0.61752458 0.01528321 0.99143501
f 90 92 89
f 93 90 89
f 89 92 91
f 91 93 89
f 90 96 92
f 94 90 93
f 94 96 90
f 92 96 91
f 95 93 91
f 91 96 95
f 95 94 93
f 96 94 95

o geometry_12
v 0.63868059 -0.46560533 0.49167518
v 0.63868059 -0.46560533 0.96667518
v 0.63810791 0.01439433 0.49167518
v 0.63810791 0.01439433 0.96667518
v 1.23867631 -0.46488948 0.49167518
v 1.23867631 -0.46488948 0.96667518
v 1.23810363 0.01511017 0.49167518
v 1.23810363 0.01511017 0.96667518
f 98 100 97
f 101 98 97
f 97 100 99
f 99 101 97
f 98 104 100
f 102 98 101
f 102 104 98
f 100 104 99
f 103 101 99
f 99 104 103
f 103 102 101
f 104 102 103

o geometry_13
v 1.25944349 -0.47112376 0.51233708
v 1.25944349 -0.47112376 0.98733708
v 1.25338231 0.00883797 0.51233708
v 1.25338231 0.00883797 0.98733708
v 1.82923609 -0.46392816 0.51233708
v 1.82923609 -0.46392816 0.98733708
v 1.82317492 0.01603357 0.51233708
v 1.82317492 0.01603357 0.98733708
f 106 108 105
f 109 106 105
f 105 108 107
f 107 109 105
f 106 112 108
f 110 106 109
f 110 112 106
f 108 112 107
f 111 109 107
f 107 112 111
f 111 110 109
f 112 110 111

o geometry_14
v 1.84130636 -0.47603109 0.51943588
v 1.84130636 -0.47603109 0.99443588
v 1.84716100 0.00393320 0.51943588
v 1.84716100 0.00393320 0.99443588
v 1.98806722 -0.47782129 0.51943588
v 1.98806722 -0.47782129 0.99443588
v 1.99392186 0.00214300 0.51943588
v 1.99392186 0.00214300 0.99443588
f 114 116 113
f 117 114 113
f 113 116 115
f 115 117 113
f 114 120 116
f 118 114 117
f 118 120 114
f 116 120 115
f 119 117 115
f 115 120 119
f 119 118 117
f 120 118 119

o geometry_15
v -1.98766891 -0.47469962 1.01794442
v -1.98766891 -0.47469962 1.49294442
v -1.99426859 0.00525500 1.01794442
v -1.99426859 0.00525500 1.49294442
v -1.32651388 -0.46560832 1.01794442
v -1.32651388 -0.46560832 1.49294442
v -1.33311357 0.01434631 1.01794442
v -1.33311357 0.01434631 1.49294442
f 122 124 121
f 125 122 121
f 121 124 123
f 123 125 121
f 122 128 124
f 126 122 125
f 126 128 122
f 124 128 123
f 127 125 123
f 123 128 127
f 127 126 125
f 128 126 127

o geometry_16
v -1.31429150 -0.47860962 1.01781904
v -1.31429150 -0.47860962 1.49281904
v -1.30924158 0.00136381 1.01781904
v -1.30924158 0.00136381 1.49281904
v -0.73852022 -0.48466746 1.01781904
v -0.73852022 -0.48466746 1.49281904
v -0.73347030 -0.00469402 1.01781904
v -0.73347030 -0.00469402 1.49281904
f 130 132 129
f 133 130 129
f 129 132 131
f 131 133 129
f 130 136 132
f 134 130 133
f 134 136 130
f 132 136 131
f 135 133 131
f 131 136 135
f 135 134 133
f 136 134 135

o geometry_17
v -0.72068596 -0.49136292 1.03739821
v -0.72068596 -0.49136292 1.51239821
v -0.71523331 -0.01139389 1.03739821
v -0.71523331 -0.01139389 1.51239821
v -0.11012489 -0.49829915 1.03739821
v -0.11012489 -0.49829915 1.51239821
v -0.10467224 -0.01833012 1.03739821
v -0.10467224 -0.01833012 1.51239821
f 138 140 137
f 141 138 137
f 137 140 139
f 139 141 137
f 138 144 140
f 142 138 141
f 142 144 138
f 140 144 139
f 143 141 139
f 139 144 143
f 143 142 141
f 144 142 143

o geometry_18
v -0.08857685 -0.49466258 0.99933930
v -0.08857685 -0.49466258 1.47433930
v -0.09017709 -0.01466525 0.99933930
v -0.09017709 -0.01466525 1.47433930
v 0.59305795 -0.49239012 0.99933930
v 0.59305795 -0.49239012 1.47433930
v 0.59145772 -0.01239279 0.99933930
v 0.59145772 -0.01239279 1.47433930
f 146 148 145
f 149 146 145
f 145 148 147
f 147 149 145
f 146 152 148
f 150 146 149
f 150 152 146
f 148 152 147
f 151 149 147
f 147 152 151
f 151 150 149
f 152 150 151

o geometry_19
v 0.61091064 -0.47675465 1.02120624
v 0.61091064 -0.47675465 1.49620624
v 0.60961092 0.00324360 1.02120624
v 0.60961092 0.00324360 1.49620624
v 1.18490104 -0.47520041 1.02120624
v 1.18490104 -0.47520041 1.49620624
v 1.18360131 0.00479783 1.02120624
v 1.18360131 0.00479783 1.49620624
f 154 156 153
f 157 154 153
f 153 156 155
f 155 157 153
f 154 160 156
f 158 154 157
f 158 160 154
f 156 160 155
f 159 157 155
f 155 160 159
f 159 158 157
f 160 158 159

o geometry_20
v 1.20489389 -0.47137127 1.00485991
v 1.20489389 -0.47137127 1.47985991
v 1.19965188 0.00860011 1.00485991
v 1.19965188 0.00860011 1.47985991
v 1.89772913 -0.46380446 1.00485991
v 1.89772913 -0.46380446 1.47985991
v 1.89248712 0.01616692 1.00485991
v 1.89248712 0.01616692 1.47985991
f 162 164 161
f 165 162 161
f 161 164 163
f 163 165 161
f 162 168 164
f 166 162 165
f 166 168 162
f 164 168 163
f 167 165 163
f 163 168 167
f 167 166 165
f 168 166 167

o geometry_21
v 1.91663252 -0.47908123 1.00760852
v 1.91663252 -0.47908123 1.48260852
v 1.90963333 0.00086774 1.00760852
v 1.90963333 0.00086774 1.48260852
v 1.99449545 -0.47794574 1.00760852
v 1.99449545 -0.47794574 1.48260852
v 1.98749627 0.00200323 1.00760852
v 1.98749627 0.00200323 1.48260852
f 170 172 169
f 173 170 169
f 169 172 171
f 171 173 169
f 170 176 172
f 174 170 173
f 174 176 170
f 172 176 171
f 175 173 171
f 171 176 175
f 175 174 173
f 176 174 175

o geometry_22
v -1.99222891 -0.46385120 1.52746849
v -1.99222891 -0.46385120 2.00246849
v -1.98976237 0.01614246 1.52746849
v -1.98976237 0.01614246 2.00246849
v -1.33189179 -0.46724446 1.52746849
v -1.33189179 -0.46724446 2.00246849
v -1.32942525 0.01274920 1.52746849
v -1.32942525 0.01274920 2.00246849
f 178 180 177
f 181 178 177
f 177 180 179
f 179 181 177
f 178 184 180
f 182 178 181
f 182 184 178
f 180 184 179
f 183 181 179
f 179 184 183
f 183 182 181
f 184 182 183

o geometry_23
v -1.31391184 -0.46972341 1.50970072
v -1.31391184 -0.46972341 1.98470072
v -1.31138767 0.01026996 1.50970072
v -1.31138767 0.01026996 1.98470072
v -0.67646512 -0.47307559 1.50970072
v -0.67646512 -0.47307559 1.98470072
v -0.67394095 0.00691778 1.50970072
v -0.67394095 0.00691778 1.98470072
f 186 188 185
f 189 186 185
f 185 188 187
f 187 189 185
f 186 192 188
f 190 186 189
f 190 192 186
f 188 192 187
f 191 189 187
f 187 192 191
f 191 190 189
f 192 190 191

o geometry_24
v -0.65514259 -0.48635432 1.49265347
v -0.65514259 -0.48635432 1.96765347
v -0.65923356 -0.00637176 1.49265347
v -0.65923356 -0.00637176 1.96765347
v -0.07373101 -0.48139885 1.49265347
v -0.07373101 -0.48139885 1.96765347
v -0.07782199 -0.00141629 1.49265347
v -0.07782199 -0.00141629 1.96765347
f 194 196 193
f 197 194 193
f 193 196 195
f 195 197 193
f 194 200 196
f 198 194 197
f 198 200 194
f 196 200 195
f 199 197 195
f 195 200 199
f 199 198 197
f 200 198 199

o geometry_25
v -0.05778516 -0.48839877 1.52787749
v -0.05778516 -0.48839877 2.00287749
v -0.05774672 -0.00839877 1.52787749
v -0.05774672 -0.00839877 2.00287749
v 0.51334089 -0.48844451 1.52787749
v 0.51334089 -0.48844451 2.00287749
v 0.51337933 -0.00844451 1.52787749
v 0.51337933 -0.00844451 2.00287749
f 202 204 201
f 205 202 201
f 201 204 203
f 203 205 201
f 202 208 204
f 206 202 205
f 206 208 202
f 204 208 203
f 207 205 203
f 203 208 207
f 207 206 205
f 208 206 207

o geometry_26
v 0.53082103 -0.47167972 1.52438084
v 0.53082103 -0.47167972 1.99938084
v 0.53190092 0.00831907 1.52438084
v 0.53190092 0.00831907 1.99938084
v 1.21310458 -0.47321472 1.52438084
v 1.21310458 -0.47321472 1.99938084
v 1.21418448 0.00678407 1.52438084
v 1.21418448 0.00678407 1.99938084
f 210 212 209
f 213 210 209
f 209 212 211
f 211 213 209
f 210 216 212
f 214 210 213
f 214 216 210
f 212 216 211
f 215 213 211
f 211 216 215
f 215 214 213
f 216 214 215

o geometry_27
v 1.23073297 -0.49276860 1.50754520
v 1.23073297 -0.49276860 1.98254520
v 1.23256221 -0.01277208 1.50754520
v 1.23256221 -0.01277208 1.98254520
v 1.83525850 -0.49507240 1.50754520
v 1.83525850 -0.49507240 1.98254520
v 1.83708773 -0.01507589 1.50754520
v 1.83708773 -0.01507589 1.98254520
f 218 220 217
f 221 218 217
f 217 220 219
f 219 221 217
f 218 224 220
f 222 218 221
f 222 224 218
f 220 224 219
f 223 221 219
f 219 224 223
f 223 222 221
f 224 222 223

o geometry_28
v 1.85181031 -0.47539402 1.52087527
v 1.85181031 -0.47539402 1.99587527
v 1.85654697 0.00458261 1.52087527
v 1.85654697 0.00458261 1.99587527
v 1.98862834 -0.47674421 1.52087527
v 1.98862834 -0.47674421 1.99587527
v 1.99336500 0.00323242 1.52087527
v 1.99336500 0.00323242 1.99587527
f 226 228 225
f 229 226 225
f 225 228 227
f 227 229 225
f 226 232 228
f 230 226 229
f 230 232 226
f 228 232 227
f 231 229 227
f 227 232 231
f 231 230 229
f 232 230 231

o geometry_29
v -1.98754247 -0.47776176 1.99002519
v -1.98754247 -0.47776176 2.46502519
v -1.99438597 0.00218945 1.99002519
v -1.99438597 0.00218945 2.46502519
v -1.28358205 -0.46772418 1.99002519
v -1.28358205 -0.46772418 2.46502519
v -1.29042555 0.01222704 1.99002519
v -1.29042555 0.01222704 2.46502519
f 234 236 233
f 237 234 233
f 233 236 235
f 235 237 233
f 234 240 236
f 238 234 237
f 238 240 234
f 236 240 235
f 239 237 235
f 235 240 239
f 239 238 237
f 240 238 239

o geometry_30
v -1.26819929 -0.49434549 2.03680830
v -1.26819929 -0.49434549 2.51180830
v -1.26973372 -0.01434794 2.03680830
v -1.26973372 -0.01434794 2.51180830
v -0.67312945 -0.49244321 2.03680830
v -0.67312945 -0.49244321 2.51180830
v -0.67466388 -0.01244566 2.03680830
v -0.67466388 -0.01244566 2.51180830
f 242 244 241
f 245 242 241
f 241 244 243
f 243 245 241
f 242 248 244
f 246 242 245
f 246 248 242
f 244 248 243
f 247 245 243
f 243 248 247
f 247 246 245
f 248 246 247

o geometry_31
v -0.65669364 -0.46587769 1.99793009
v -0.65669364 -0.46587769 2.47293009
v -0.65509349 0.01411965 1.99793009
v -0.65509349 0.01411965 2.47293009
v -0.08776716 -0.46777429 1.99793009
v -0.08776716 -0.46777429 2.47293009
v -0.08616701 0.01222304 1.99793009
v -0.08616701 0.01222304 2.47293009
f 250 252 249
f 253 250 249
f 249 252 251
f 251 253 249
f 250 256 252
f 254 250 253
f 254 256 250
f 252 256 251
f 255 253 251
f 251 256 255
f 255 254 253
f 256 254 255

o geometry_32
v -0.07153345 -0.49038713 2.00522656
v -0.07153345 -0.49038713 2.48022656
v -0.06635883 -0.01041502 2.00522656
v -0.06635883 -0.01041502 2.48022656
v 0.59480449 -0.49757097 2.00522656
v 0.59480449 -0.49757097 2.48022656
v 0.59997911 -0.01759887 2.00522656
v 0.59997911 -0.01759887 2.48022656
f 258 260 257
f 261 258 257
f 257 260 259
f 259 261 257
f 258 264 260
f 262 258 261
f 262 264 258
f 260 264 259
f 263 261 259
f 259 264 263
f 263 262 261
f 264 262 263

o geometry_33
v 0.61581453 -0.46967124 1.99182941
v 0.61581453 -0.46967124 2.46682941
v 0.61500871 0.01032809 1.99182941
v 0.61500871 0.01032809 2.46682941
v 1.27412758 -0.46856606 1.99182941
v 1.27412758 -0.46856606 2.46682941
v 1.27332176 0.01143326 1.99182941
v 1.27332176 0.01143326 2.46682941
f 266 268 265
f 269 266 265
f 265 268 267
f 267 269 265
f 266 272 268
f 270 266 269
f 270 272 266
f 268 272 267
f 271 269 267
f 267 272 271
f 271 270 269
f 272 270 271

o geometry_34
v 1.29319916 -0.46904291 2.01007002
v 1.29319916 -0.46904291 2.48507002
v 1.29026382 0.01094811 2.01007002
v 1.29026382 0.01094811 2.48507002
v 1.97328452 -0.46488392 2.01007002
v 1.97328452 -0.46488392 2.48507002
v 1.97034918 0.01510710 2.01007002
v 1.97034918 0.01510710 2.48507002
f 274 276 273
f 277 274 273
f 273 276 275
f 275 277 273
f 274 280 276
f 278 274 277
f 278 280 274
f 276 280 275
f 279 277 275
f 275 280 279
f 279 278 277
f 280 278 279

o geometry_35
v -1.99336556 -0.47304739 2.53185883
v -1.99336556 -0.47304739 3.00685883
v -1.98860038 0.00692896 2.53185883
v -1.98860038 0.00692896 3.00685883
v -1.30222195 -0.47990901 2.53185883
v -1.30222195 -0.47990901 3.00685883
v -1.29745678 0.00006733 2.53185883
v -1.29745678 0.00006733 3.00685883
f 282 284 281
f 285 282 281
f 281 284 283
f 283 285 281
f 282 288 284
f 286 282 285
f 286 288 282
f 284 288 283
f 287 285 283
f 283 288 287
f 287 286 285
f 288 286 287

o geometry_36
v -1.28186239 -0.48809411 2.53151279
v -1.28186239 -0.48809411 3.00651279
v -1.28178227 -0.00809412 2.53151279
v -1.28178227 -0.00809412 3.00651279
v -0.59859910 -0.48820817 2.53151279
v -0.59859910 -0.48820817 3.00651279
v -0.59851897 -0.00820817 2.53151279
v -0.59851897 -0.00820817 3.00651279
f 290 292 289
f 293 290 289
f 289 292 291
f 291 293 289
f 290 296 292
f 294 290 293
f 294 296 290
f 292 296 291
f 295 293 291
f 291 296 295
f 295 294 293
f 296 294 295

o geometry_37
v -0.58289702 -0.46358496 2.51394189
v -0.58289702 -0.46358496 2.98894189
v -0.57819303 0.01639199 2.51394189
v -0.57819303 0.01639199 2.98894189
v 0.00019927 -0.46929957 2.51394189
v 0.00019927 -0.46929957 2.98894189
v 0.00490326 0.01067738 2.51394189
v 0.00490326 0.01067738 2.98894189
f 298 300 297
f 301 298 297
f 297 300 299
f 299 301 297
f 298 304 300
f 302 298 301
f 302 304 298
f 300 304 299
f 303 301 299
f 299 304 303
f 303 302 301
f 304 302 303

o geometry_38
v 0.01857823 -0.46473289 2.52650745
v 0.01857823 -0.46473289 3.00150745
v 0.02257551 0.01525046 2.52650745
v 0.02257551 0.01525046 3.00150745
v 0.68787863 -0.47030680 2.52650745
v 0.68787863 -0.47030680 3.00150745
v 0.69187591 0.00967656 2.52650745
v 0.69187591 0.00967656 3.00150745
f 306 308 305
f 309 306 305
f 305 308 307
f 307 309 305
f 306 312 308
f 310 306 309
f 310 312 306
f 308 312 307
f 311 309 307
f 307 312 311
f 311 310 309
f 312 310 311

o geometry_39
v 0.70831589 -0.47078090 2.51033488
v 0.70831589 -0.47078090 2.98533488
v 0.70746276 0.00921834 2.51033488
v 0.70746276 0.00921834 2.98533488
v 1.27742980 -0.46976938 2.51033488
v 1.27742980 -0.46976938 2.98533488
v 1.27657667 0.01022987 2.51033488
v 1.27657667 0.01022987 2.98533488
f 314 316 313
f 317 314 313
f 313 316 315
f 315 317 313
f 314 320 316
f 318 314 317
f 318 320 314
f 316 320 315
f 319 317 315
f 315 320 319
f 319 318 317
f 320 318 319

o geometry_40
v 1.29824619 -0.47438932 2.51160308
v 1.29824619 -0.47438932 2.98660308
v 1.29181769 0.00556763 2.51160308
v 1.29181769 0.00556763 2.98660308
v 1.92828583 -0.46595062 2.51160308
v 1.92828583 -0.46595062 2.98660308
v 1.92185733 0.01400633 2.51160308
v 1.92185733 0.01400633 2.98660308
f 322 324 321
f 325 322 321
f 321 324 323
f 323 325 321
f 322 328 324
f 326 322 325
f 326 328 322
f 324 328 323
f 327 325 323
f 323 328 327
f 327 326 325
f 328 326 327

o geometry_41
v 1.94665304 -0.49356668 2.48893867
v 1.94665304 -0.49356668 2.96393867
v 1.93955188 -0.01361921 2.48893867
v 1.93955188 -0.01361921 2.96393867
v 1.99454796 -0.49285804 2.48893867
v 1.99454796 -0.49285804 2.96393867
v 1.98744680 -0.01291057 2.48893867
v 1.98744680 -0.01291057 2.96393867
f 330 332 329
f 333 330 329
f 329 332 331
f 331 333 329
f 330 336 332
f 334 330 333
f 334 336 330
f 332 336 331
f 335 333 331
f 331 336 335
f 335 334 333
f 336 334 335

o geometry_42
v -1.99073253 -0.48164541 3.01367477
v -1.99073253 -0.48164541 3.48867477
v -1.99126712 -0.00164570 3.01367477
v -1.99126712 -0.00164570 3.48867477
v -1.42516365 -0.48101552 3.01367477
v -1.42516365 -0.48101552 3.48867477
v -1.42569823 -0.00101582 3.01367477
v -1.42569823 -0.00101582 3.48867477
f 338 340 337
f 341 338 337
f 337 340 339
f 339 341 337
f 338 344 340
f 342 338 341
f 342 344 338
f 340 344 339
f 343 341 339
f 339 344 343
f 343 342 341
f 344 342 343

o geometry_43
v -1.40712705 -0.46732646 3.01964052
v -1.40712705 -0.46732646 3.49464052
v -1.40773403 0.01267315 3.01964052
v -1.40773403 0.01267315 3.49464052
v -0.83888803 -0.46660790 3.01964052
v -0.83888803 -0.46660790 3.49464052
v -0.83949500 0.01339171 3.01964052
v -0.83949500 0.01339171 3.49464052
f 346 348 345
f 349 346 345
f 345 348 347
f 347 349 345
f 346 352 348
f 350 346 349
f 350 352 346
f 348 352 347
f 351 349 347
f 347 352 351
f 351 350 349
f 352 350 351

o geometry_44
v -0.82403078 -0.48382018 3.02353381
v -0.82403078 -0.48382018 3.49853381
v -0.81831714 -0.00385419 3.02353381
v -0.81831714 -0.00385419 3.49853381
v -0.33502407 -0.48964144 3.02353381
v -0.33502407 -0.48964144 3.49853381
v -0.32931043 -0.00967545 3.02353381
v -0.32931043 -0.00967545 3.49853381
f 354 356 353
f 357 354 353
f 353 356 355
f 355 357 353
f 354 360 356
f 358 354 357
f 358 360 354
f 356 360 355
f 359 357 355
f 355 360 359
f 359 358 357
f 360 358 359

o geometry_45
v -0.31316297 -0.47971362 3.01201079
v -0.31316297 -0.47971362 3.48701079
v -0.31513233 0.00028234 3.01201079
v -0.31513233 0.00028234 3.48701079
v 0.22777015 -0.47749424 3.01201079
v 0.22777015 -0.47749424 3.48701079
v 0.22580079 0.00250172 3.01201079
v 0.22580079 0.00250172 3.48701079
f 362 364 361
f 365 362 361
f 361 364 363
f 363 365 361
f 362 368 364
f 366 362 365
f 366 368 362
f 364 368 363
f 367 365 363
f 363 368 367
f 367 366 365
f 368 366 367

o geometry_46
v 0.24752932 -0.48566755 3.00615714
v 0.24752932 -0.48566755 3.48115714
v 0.24207567 -0.00569853 3.00615714
v 0.24207567 -0.00569853 3.48115714
v 0.70438308 -0.48047654 3.00615714
v 0.70438308 -0.48047654 3.48115714
v 0.69892943 -0.00050753 3.00615714
v 0.69892943 -0.00050753 3.48115714
f 370 372 369
f 373 370 369
f 369 372 371
f 371 373 369
f 370 376 372
f 374 370 373
f 374 376 370
f 372 376 371
f 375 373 371
f 371 376 375
f 375 374 373
f 376 374 375

o geometry_47
v 0.72057258 -0.49059194 3.02397948
v 0.72057258 -0.49059194 3.49897948
v 0.71877279 -0.01059531 3.02397948
v 0.71877279 -0.01059531 3.49897948
v 1.20061289 -0.48879198 3.02397948
v 1.20061289 -0.48879198 3.49897948
v 1.19881310 -0.00879535 3.02397948
v 1.19881310 -0.00879535 3.49897948
f 378 380 377
f 381 378 377
f 377 380 379
f 379 381 377
f 378 384 380
f 382 378 381
f 382 384 378
f 380 384 379
f 383 381 379
f 379 384 383
f 383 382 381
f 384 382 383

o geometry_48
v 1.21853188 -0.46703664 3.01734796
v 1.21853188 -0.46703664 3.49234796
v 1.21690074 0.01296059 3.01734796
v 1.21690074 0.01296059 3.49234796
v 1.78238905 -0.46512052 3.01734796
v 1.78238905 -0.46512052 3.49234796
v 1.78075791 0.01487670 3.01734796
v 1.78075791 0.01487670 3.49234796
f 386 388 385
f 389 386 385
f 385 388 387
f 387 389 385
f 386 392 388
f 390 386 389
f 390 392 386
f 388 392 387
f 391 389 387
f 387 392 391
f 391 390 389
f 392 390 391

o geometry_49
v 1.79734075 -0.47629713 2.99094824
v 1.79734075 -0.47629713 3.46594824
v 1.80181779 0.00368199 2.99094824
v 1.80181779 0.00368199 3.46594824
v 1.98875732 -0.47808258 2.99094824
v 1.98875732 -0.47808258 3.46594824
v 1.99323436 0.00189654 2.99094824
v 1.99323436 0.00189654 3.46594824
f 394 396 393
f 397 394 393
f 393 396 395
f 395 397 393
f 394 400 396
f 398 394 397
f 398 400 394
f 396 400 395
f 399 397 395
f 395 400 399
f 399 398 397
f 400 398 399

o geometry_50
v 2.46864007 -3.71091724 0.01352331
v 2.46864007 -3.71091724 0.48852331
v 1.98864010 -3.71108272 0.01352331
v 1.98864010 -3.71108272 0.48852331
v 2.46845458 -3.17289092 0.01352331
v 2.46845458 -3.17289092 0.48852331
v 1.98845461 -3.17305640 0.01352331
v 1.98845461 -3.17305640 0.48852331
f 402 404 401
f 405 402 401
f 401 404 403
f 403 405 401
f 402 408 404
f 406 402 405
f 406 408 402
f 404 408 403
f 407 405 403
f 403 408 407
f 407 406 405
f 408 406 407

o geometry_51
v 2.47224703 -3.15749217 0.00196825
v 2.47224703 -3.15749217 0.47696825
v 1.99227375 -3.15242721 0.00196825
v 1.99227375 -3.15242721 0.47696825
v 2.47753527 -2.65636057 0.00196825
v 2.47753527 -2.65636057 0.47696825
v 1.99756199 -2.65129560 0.00196825
v 1.99756199 -2.65129560 0.47696825
f 410 412 409
f 413 410 409
f 409 412 411
f 411 413 409
f 410 416 412
f 414 410 413
f 414 416 410
f 412 416 411
f 415 413 411
f 411 416 415
f 415 414 413
f 416 414 415

o geometry_52
v 2.45112255 -2.63747930 0.00386835
v 2.45112255 -2.63747930 0.47886835
v 1.97113419 -2.63413724 0.00386835
v 1.97113419 -2.63413724 0.47886835
v 2.45449204 -2.15355082 0.00386835
v 2.45449204 -2.15355082 0.47886835
v 1.97450368 -2.15020876 0.00386835
v 1.97450368 -2.15020876 0.47886835
f 418 420 417
f 421 418 417
f 417 420 419
f 419 421 417
f 418 424 420
f 422 418 421
f 422 424 418
f 420 424 419
f 423 421 419
f 419 424 423
f 423 422 421
f 424 422 423

o geometry_53
v 2.45524638 -2.13337489 0.00305325
v 2.45524638 -2.13337489 0.47805325
v 1.97524741 -2.13437195 0.00305325
v 1.97524741 -2.13437195 0.47805325
v 2.45428257 -1.66938218 0.00305325
v 2.45428257 -1.66938218 0.47805325
v 1.97428361 -1.67037924 0.00305325
v 1.97428361 -1.67037924 0.47805325
f 426 428 425
f 429 426 425
f 425 428 427
f 427 429 425
f 426 432 428
f 430 426 429
f 430 432 426
f 428 432 427
f 431 429 427
f 427 432 431
f 431 430 429
f 432 430 431

o geometry_54
v 2.44742661 -1.65157443 -0.00237240
v 2.44742661 -1.65157443 0.47262760
v 1.96742700 -1.65218560 -0.00237240
v 1.96742700 -1.65218560 0.47262760
v 2.44682026 -1.17536279 -0.00237240
v 2.44682026 -1.17536279 0.47262760
v 1.96682065 -1.17597397 -0.00237240
v 1.96682065 -1.17597397 0.47262760
f 434 436 433
f 437 434 433
f 433 436 435
f 435 437 433
f 434 440 436
f 438 434 437
f 438 440 434
f 436 440 435
f 439 437 435
f 435 440 439
f 439 438 437
f 440 438 439

o geometry_55
v 2.46636095 -1.15828341 0.02765298
v 2.46636095 -1.15828341 0.50265298
v 1.98636253 -1.15705132 0.02765298
v 1.98636253 -1.15705132 0.50265298
v 2.46764570 -0.65777203 0.02765298
v 2.46764570 -0.65777203 0.50265298
v 1.98764728 -0.65653993 0.02765298
v 1.98764728 -0.65653993 0.50265298
f 442 444 441
f 445 442 441
f 441 444 443
f 443 445 441
f 442 448 444
f 446 442 445
f 446 448 442
f 444 448 443
f 447 445 443
f 443 448 447
f 447 446 445
f 448 446 447

o geometry_56
v 2.46635513 -0.63990274 0.02528316
v 2.46635513 -0.63990274 0.50028316
v 1.98635747 -0.63840606 0.02528316
v 1.98635747 -0.63840606 0.50028316
v 2.46732223 -0.32974910 0.02528316
v 2.46732223 -0.32974910 0.50028316
v 1.98732456 -0.32825241 0.02528316
v 1.98732456 -0.32825241 0.50028316
f 450 452 449
f 453 450 449
f 449 452 451
f 451 453 449
f 450 456 452
f 454 450 453
f 454 456 450
f 452 456 451
f 455 453 451
f 451 456 455
f 455 454 453
f 456 454 455

o geometry_57
v 2.45733408 -3.70857973 0.53324467
v 2.45733408 -3.70857973 1.00824467
v 1.97735815 -3.71338647 0.53324467
v 1.97735815 -3.71338647 1.00824467
v 2.45058490 -3.03464152 0.53324467
v 2.45058490 -3.03464152 1.00824467
v 1.97060897 -3.03944826 0.53324467
v 1.97060897 -3.03944826 1.00824467
f 458 460 457
f 461 458 457
f 457 460 459
f 459 461 457
f 458 464 460
f 462 458 461
f 462 464 458
f 460 464 459
f 463 461 459
f 459 464 463
f 463 462 461
f 464 462 463

o geometry_58
v 2.47408945 -3.01870185 0.49914206
v 2.47408945 -3.01870185 0.97414206
v 1.99408989 -3.01935348 0.49914206
v 1.99408989 -3.01935348 0.97414206
v 2.47314501 -2.32300850 0.49914206
v 2.47314501 -2.32300850 0.97414206
v 1.99314545 -2.32366013 0.49914206
v 1.99314545 -2.32366013 0.97414206
f 466 468 465
f 469 466 465
f 465 468 467
f 467 469 465
f 466 472 468
f 470 466 469
f 470 472 466
f 468 472 467
f 471 469 467
f 467 472 471
f 471 470 469
f 472 470 471

o geometry_59
v 2.46531162 -2.30791627 0.50701401
v 2.46531162 -2.30791627 0.98201401
v 1.98533984 -2.30271140 0.50701401
v 1.98533984 -2.30271140 0.98201401
v 2.47274861 -1.62210779 0.50701401
v 2.47274861 -1.62210779 0.98201401
v 1.99277683 -1.61690292 0.50701401
v 1.99277683 -1.61690292 0.98201401
f 474 476 473
f 477 474 473
f 473 476 475
f 475 477 473
f 474 480 476
f 478 474 477
f 478 480 474
f 476 480 475
f 479 477 475
f 475 480 479
f 479 478 477
f 480 478 479

o geometry_60
v 2.44316713 -1.60499841 0.52276799
v 2.44316713 -1.60499841 0.99776799
v 1.96321963 -1.59789882 0.52276799
v 1.96321963 -1.59789882 0.99776799
v 2.45305888 -0.93629501 0.52276799
v 2.45305888 -0.93629501 0.99776799
v 1.97311138 -0.92919542 0.52276799
v 1.97311138 -0.92919542 0.99776799
f 482 484 481
f 485 482 481
f 481 484 483
f 483 485 481
f 482 488 484
f 486 482 485
f 486 488 482
f 484 488 483
f 487 485 483
f 483 488 487
f 487 486 485
f 488 486 487

o geometry_61
v 2.45921858 -0.91485119 0.49348994
v 2.45921858 -0.91485119 0.96848994
v 1.97921866 -0.91456597 0.49348994
v 1.97921866 -0.91456597 0.96848994
v 2.45956660 -0.32914266 0.49348994
v 2.45956660 -0.32914266 0.96848994
v 1.97956669 -0.32885744 0.49348994
v 1.97956669 -0.32885744 0.96848994
f 490 492 489
f 493 490 489
f 489 492 491
f 491 493 489
f 490 496 492
f 494 490 493
f 494 496 490
f 492 496 491
f 495 493 491
f 491 496 495
f 495 494 493
f 496 494 495

o geometry_62
v 2.45961724 -3.70834480 1.03231366
v 2.45961724 -3.70834480 1.50731366
v 1.97964618 -3.71361611 1.03231366
v 1.97964618 -3.71361611 1.50731366
v 2.45249811 -3.06012312 1.03231366
v 2.45249811 -3.06012312 1.50731366
v 1.97252706 -3.06539442 1.03231366
v 1.97252706 -3.06539442 1.50731366
f 498 500 497
f 501 498 497
f 497 500 499
f 499 501 497
f 498 504 500
f 502 498 501
f 502 504 498
f 500 504 499
f 503 501 499
f 499 504 503
f 503 502 501
f 504 502 503

o geometry_63
v 2.45102761 -3.04562518 0.98879412
v 2.45102761 -3.04562518 1.46379412
v 1.97103090 -3.04384839 0.98879412
v 1.97103090 -3.04384839 1.46379412
v 2.45366211 -2.33391816 0.98879412
v 2.45366211 -2.33391816 1.46379412
v 1.97366540 -2.33214137 0.98879412
v 1.97366540 -2.33214137 1.46379412
f 506 508 505
f 509 506 505
f 505 508 507
f 507 509 505
f 506 512 508
f 510 506 509
f 510 512 506
f 508 512 507
f 511 509 507
f 507 512 511
f 511 510 509
f 512 510 511

o geometry_64
v 2.46287853 -2.31768472 1.00064689
v 2.46287853 -2.31768472 1.47564689
v 1.98290836 -2.31233355 1.00064689
v 1.98290836 -2.31233355 1.47564689
v 2.46940550 -1.73225165 1.00064689
v 2.46940550 -1.73225165 1.47564689
v 1.98943533 -1.72690048 1.00064689
v 1.98943533 -1.72690048 1.47564689
f 514 516 513
f 517 514 513
f 513 516 515
f 515 517 513
f 514 520 516
f 518 514 517
f 518 520 514
f 516 520 515
f 519 517 515
f 515 520 519
f 519 518 517
f 520 518 519

o geometry_65
v 2.45674424 -1.71183818 1.02426998
v 2.45674424 -1.71183818 1.49926998
v 1.97674457 -1.71127715 1.02426998
v 1.97674457 -1.71127715 1.49926998
v 2.45746083 -1.09873607 1.02426998
v 2.45746083 -1.09873607 1.49926998
v 1.97746116 -1.09817504 1.02426998
v 1.97746116 -1.09817504 1.49926998
f 522 524 521
f 525 522 521
f 521 524 523
f 523 525 521
f 522 528 524
f 526 522 525
f 526 528 522
f 524 528 523
f 527 525 523
f 523 528 527
f 527 526 525
f 528 526 527

o geometry_66
v 2.46262532 -1.08253732 0.98976633
v 2.46262532 -1.08253732 1.46476633
v 1.98264359 -1.07834994 0.98976633
v 1.98264359 -1.07834994 1.46476633
v 2.46799862 -0.46661942 0.98976633
v 2.46799862 -0.46661942 1.46476633
v 1.98801688 -0.46243204 0.98976633
v 1.98801688 -0.46243204 1.46476633
f 530 532 529
f 533 530 529
f 529 532 531
f 531 533 529
f 530 536 532
f 534 530 533
f 534 536 530
f 532 536 531
f 535 533 531
f 531 536 535
f 535 534 533
f 536 534 535

o geometry_67
v 2.46677694 -0.44963039 0.99256545
v 2.46677694 -0.44963039 1.46756545
v 1.98681754 -0.44338770 0.99256545
v 1.98681754 -0.44338770 1.46756545
v 2.46830528 -0.33212631 0.99256545
v 2.46830528 -0.33212631 1.46756545
v 1.98834588 -0.32588363 0.99256545
v 1.98834588 -0.32588363 1.46756545
f 538 540 537
f 541 538 537
f 537 540 539
f 539 541 537
f 538 544 540
f 542 538 541
f 542 544 538
f 540 544 539
f 543 541 539
f 539 544 543
f 543 542 541
f 544 542 543

o geometry_68
v 2.46407740 -3.71145463 1.48830579
v 2.46407740 -3.71145463 1.96330579
v 1.98407827 -3.71054420 1.48830579
v 1.98407827 -3.71054420 1.96330579
v 2.46530874 -3.06226388 1.48830579
v 2.46530874 -3.06226388 1.96330579
v 1.98530960 -3.06135346 1.48830579
v 1.98530960 -3.06135346 1.96330579
f 546 548 545
f 549 546 545
f 545 548 547
f 547 549 545
f 546 552 548
f 550 546 549
f 550 552 546
f 548 552 547
f 551 549 547
f 547 552 551
f 551 550 549
f 552 550 551

o geometry_69
v 2.44558334 -3.04534371 1.49605696
v 2.44558334 -3.04534371 1.97105696
v 1.96559324 -3.04225984 1.49605696
v 1.96559324 -3.04225984 1.97105696
v 2.44951306 -2.43370136 1.49605696
v 2.44951306 -2.43370136 1.97105696
v 1.96952297 -2.43061748 1.49605696
v 1.96952297 -2.43061748 1.97105696
f 554 556 553
f 557 554 553
f 553 556 555
f 555 557 553
f 554 560 556
f 558 554 557
f 558 560 554
f 556 560 555
f 559 557 555
f 555 560 559
f 559 558 557
f 560 558 559

o geometry_70
v 2.45200359 -2.41140538 1.51851717
v 2.45200359 -2.41140538 1.99351717
v 1.97203458 -2.41685933 1.51851717
v 1.97203458 -2.41685933 1.99351717
v 2.44469877 -1.76855289 1.51851717
v 2.44469877 -1.76855289 1.99351717
v 1.96472976 -1.77400684 1.51851717
v 1.96472976 -1.77400684 1.99351717
f 562 564 561
f 565 562 561
f 561 564 563
f 563 565 561
f 562 568 564
f 566 562 565
f 566 568 562
f 564 568 563
f 567 565 563
f 563 568 567
f 567 566 565
f 568 566 567

o geometry_71
v 2.44839907 -1.75229253 1.51992479
v 2.44839907 -1.75229253 1.99492479
v 1.96840294 -1.75422022 1.51992479
v 1.96840294 -1.75422022 1.99492479
v 2.44567562 -1.07415184 1.51992479
v 2.44567562 -1.07415184 1.99492479
v 1.96567949 -1.07607953 1.51992479
v 1.96567949 -1.07607953 1.99492479
f 570 572 569
f 573 570 569
f 569 572 571
f 571 573 569
f 570 576 572
f 574 570 573
f 574 576 570
f 572 576 571
f 575 573 571
f 571 576 575
f 575 574 573
f 576 574 575

o geometry_72
v 2.46035705 -1.05384612 1.52012744
v 2.46035705 -1.05384612 1.99512744
v 1.98040081 -1.06032796 1.52012744
v 1.98040081 -1.06032796 1.99512744
v 2.45268113 -0.48547288 1.52012744
v 2.45268113 -0.48547288 1.99512744
v 1.97272490 -0.49195472 1.52012744
v 1.97272490 -0.49195472 1.99512744
f 578 580 577
f 581 578 577
f 577 580 579
f 579 581 577
f 578 584 580
f 582 578 581
f 582 584 578
f 580 584 579
f 583 581 579
f 579 584 583
f 583 582 581
f 584 582 583

o geometry_73
v 2.46303760 -0.46738031 1.51694256
v 2.46303760 -0.46738031 1.99194256
v 1.98308300 -0.47398206 1.51694256
v 1.98308300 -0.47398206 1.99194256
v 2.46108888 -0.32570583 1.51694256
v 2.46108888 -0.32570583 1.99194256
v 1.98113428 -0.33230757 1.51694256
v 1.98113428 -0.33230757 1.99194256
f 586 588 585
f 589 586 585
f 585 588 587
f 587 589 585
f 586 592 588
f 590 586 589
f 590 592 586
f 588 592 587
f 591 589 587
f 587 592 591
f 591 590 589
f 592 590 591

o geometry_74
v 2.46274253 -3.70901273 1.99057719
v 2.46274253 -3.70901273 2.46557719
v 1.98275882 -3.71296687 1.99057719
v 1.98275882 -3.71296687 2.46557719
v 2.45778975 -3.10780630 1.99057719
v 2.45778975 -3.10780630 2.46557719
v 1.97780604 -3.11176045 1.99057719
v 1.97780604 -3.11176045 2.46557719
f 594 596 593
f 597 594 593
f 593 596 595
f 595 597 593
f 594 600 596
f 598 594 597
f 598 600 594
f 596 600 595
f 599 597 595
f 595 600 599
f 599 598 597
f 600 598 599

o geometry_75
v 2.45155702 -3.09160228 1.99735415
v 2.45155702 -3.09160228 2.47235415
v 1.97155714 -3.09194390 1.99735415
v 1.97155714 -3.09194390 2.47235415
v 2.45107788 -2.41838504 1.99735415
v 2.45107788 -2.41838504 2.47235415
v 1.97107800 -2.41872667 1.99735415
v 1.97107800 -2.41872667 2.47235415
f 602 604 601
f 605 602 601
f 601 604 603
f 603 605 601
f 602 608 604
f 606 602 605
f 606 608 602
f 604 608 603
f 607 605 603
f 603 608 607
f 607 606 605
f 608 606 607

o geometry_76
v 2.44920848 -2.40046389 2.00367024
v 2.44920848 -2.40046389 2.47867024
v 1.96920852 -2.40064760 2.00367024
v 1.96920852 -2.40064760 2.47867024
v 2.44894474 -1.71131238 2.00367024
v 2.44894474 -1.71131238 2.47867024
v 1.96894477 -1.71149608 2.00367024
v 1.96894477 -1.71149608 2.47867024
f 610 612 609
f 613 610 609
f 609 612 611
f 611 613 609
f 610 616 612
f 614 610 613
f 614 616 610
f 612 616 611
f 615 613 611
f 611 616 615
f 615 614 613
f 616 614 615

o geometry_77
v 2.47567495 -1.69009698 2.02375182
v 2.47567495 -1.69009698 2.49875182
v 1.99571975 -1.69665456 2.02375182
v 1.99571975 -1.69665456 2.49875182
v 2.46734894 -1.08070899 2.02375182
v 2.46734894 -1.08070899 2.49875182
v 1.98739373 -1.08726657 2.02375182
v 1.98739373 -1.08726657 2.49875182
f 618 620 617
f 621 618 617
f 617 620 619
f 619 621 617
f 618 624 620
f 622 618 621
f 622 624 618
f 620 624 619
f 623 621 619
f 619 624 623
f 623 622 621
f 624 622 623

o geometry_78
v 2.46548570 -1.06592542 2.00177338
v 2.46548570 -1.06592542 2.47677338
v 1.98548570 -1.06599326 2.00177338
v 1.98548570 -1.06599326 2.47677338
v 2.46539084 -0.39476668 2.00177338
v 2.46539084 -0.39476668 2.47677338
v 1.98539085 -0.39483451 2.00177338
v 1.98539085 -0.39483451 2.47677338
f 626 628 625
f 629 626 625
f 625 628 627
f 627 629 625
f 626 632 628
f 630 626 629
f 630 632 626
f 628 632 627
f 631 629 627
f 627 632 631
f 631 630 629
f 632 630 631

o geometry_79
v 2.45959117 -0.37428165 1.99062348
v 2.45959117 -0.37428165 2.46562348
v 1.97961758 -0.37931691 1.99062348
v 1.97961758 -0.37931691 2.46562348
v 2.45908973 -0.32648368 1.99062348
v 2.45908973 -0.32648368 2.46562348
v 1.97911614 -0.33151895 1.99062348
v 1.97911614 -0.33151895 2.46562348
f 634 636 633
f 637 634 633
f 633 636 635
f 635 637 633
f 634 640 636
f 638 634 637
f 638 640 634
f 636 640 635
f 639 637 635
f 635 640 639
f 639 638 637
f 640 638 639

o geometry_80
v 2.45886497 -3.71090671 2.53400208
v 2.45886497 -3.71090671 3.00900208
v 1.97886501 -3.71109325 2.53400208
v 1.97886501 -3.71109325 3.00900208
v 2.45863487 -3.11881362 2.53400208
v 2.45863487 -3.11881362 3.00900208
v 1.97863490 -3.11900016 2.53400208
v 1.97863490 -3.11900016 3.00900208
f 642 644 641
f 645 642 641
f 641 644 643
f 643 645 641
f 642 648 644
f 646 642 645
f 646 648 642
f 644 648 643
f 647 645 643
f 643 648 647
f 647 646 645
f 648 646 647

o geometry_81
v 2.45153106 -3.10177393 2.51084262
v 2.45153106 -3.10177393 2.98584262
v 1.97153421 -3.10003515 2.51084262
v 1.97153421 -3.10003515 2.98584262
v 2.45409624 -2.39364444 2.51084262
v 2.45409624 -2.39364444 2.98584262
v 1.97409939 -2.39190567 2.51084262
v 1.97409939 -2.39190567 2.98584262
f 650 652 649
f 653 650 649
f 649 652 651
f 651 653 649
f 650 656 652
f 654 650 653
f 654 656 650
f 652 656 651
f 655 653 651
f 651 656 655
f 655 654 653
f 656 654 655

o geometry_82
v 2.45924656 -2.37229578 2.50976220
v 2.45924656 -2.37229578 2.98476220
v 1.97927179 -2.37721712 2.50976220
v 1.97927179 -2.37721712 2.98476220
v 2.45289294 -1.75263159 2.50976220
v 2.45289294 -1.75263159 2.98476220
v 1.97291817 -1.75755293 2.50976220
v 1.97291817 -1.75755293 2.98476220
f 658 660 657
f 661 658 657
f 657 660 659
f 659 661 657
f 658 664 660
f 662 658 661
f 662 664 658
f 660 664 659
f 663 661 659
f 659 664 663
f 663 662 661
f 664 662 663

o geometry_83
v 2.44815161 -1.73686818 2.52088461
v 2.44815161 -1.73686818 2.99588461
v 1.96815179 -1.73728349 2.52088461
v 1.96815179 -1.73728349 2.99588461
v 2.44752451 -1.01208792 2.52088461
v 2.44752451 -1.01208792 2.99588461
v 1.96752469 -1.01250324 2.52088461
v 1.96752469 -1.01250324 2.99588461
f 666 668 665
f 669 666 665
f 665 668 667
f 667 669 665
f 666 672 668
f 670 666 669
f 670 672 666
f 668 672 667
f 671 669 667
f 667 672 671
f 671 670 669
f 672 670 671

o geometry_84
v 2.44447843 -0.99560826 2.50559209
v 2.44447843 -0.99560826 2.98059209
v 1.96448566 -0.99297307 2.50559209
v 1.96448566 -0.99297307 2.98059209
v 2.44795983 -0.36147917 2.50559209
v 2.44795983 -0.36147917 2.98059209
v 1.96796706 -0.35884398 2.50559209
v 1.96796706 -0.35884398 2.98059209
f 674 676 673
f 677 674 673
f 673 676 675
f 675 677 673
f 674 680 676
f 678 674 677
f 678 680 674
f 676 680 675
f 679 677 675
f 675 680 679
f 679 678 677
f 680 678 679

o geometry_85
v 2.46275936 -0.34362709 2.50585515
v 2.46275936 -0.34362709 2.98085515
v 1.98276837 -0.34068625 2.50585515
v 1.98276837 -0.34068625 2.98085515
v 2.46283997 -0.33047054 2.50585515
v 2.46283997 -0.33047054 2.98085515
v 1.98284898 -0.32752970 2.50585515
v 1.98284898 -0.32752970 2.98085515
f 682 684 681
f 685 682 681
f 681 684 683
f 683 685 681
f 682 688 684
f 686 682 685
f 686 688 682
f 684 688 683
f 687 685 683
f 683 688 687
f 687 686 685
f 688 686 687

o geometry_86
v 2.47773884 -3.70757098 3.00709268
v 2.47773884 -3.70757098 3.48209268
v 1.99778714 -3.71438015 3.00709268
v 1.99778714 -3.71438015 3.48209268
v 2.47084946 -3.22196472 3.00709268
v 2.47084946 -3.22196472 3.48209268
v 1.99089775 -3.22877388 3.00709268
v 1.99089775 -3.22877388 3.48209268
f 690 692 689
f 693 690 689
f 689 692 691
f 691 693 689
f 690 696 692
f 694 690 693
f 694 696 690
f 692 696 691
f 695 693 691
f 691 696 695
f 695 694 693
f 696 694 695

o geometry_87
v 2.46639696 -3.20582900 3.01522355
v 2.46639696 -3.20582900 3.49022355
v 1.98640647 -3.20885138 3.01522355
v 1.98640647 -3.20885138 3.49022355
v 2.46342791 -2.73430809 3.01522355
v 2.46342791 -2.73430809 3.49022355
v 1.98343743 -2.73733047 3.01522355
v 1.98343743 -2.73733047 3.49022355
f 698 700 697
f 701 698 697
f 697 700 699
f 699 701 697
f 698 704 700
f 702 698 701
f 702 704 698
f 700 704 699
f 703 701 699
f 699 704 703
f 703 702 701
f 704 702 703

o geometry_88
v 2.46767905 -2.72105476 3.01687797
v 2.46767905 -2.72105476 3.49187797
v 1.98772345 -2.71452665 3.01687797
v 1.98772345 -2.71452665 3.49187797
v 2.47470867 -2.20422826 3.01687797
v 2.47470867 -2.20422826 3.49187797
v 1.99475306 -2.19770014 3.01687797
v 1.99475306 -2.19770014 3.49187797
f 706 708 705
f 709 706 705
f 705 708 707
f 707 709 705
f 706 712 708
f 710 706 709
f 710 712 706
f 708 712 707
f 711 709 707
f 707 712 711
f 711 710 709
f 712 710 711

o geometry_89
v 2.46525299 -2.18127317 2.99976522
v 2.46525299 -2.18127317 3.47476522
v 1.98526449 -2.18459452 2.99976522
v 1.98526449 -2.18459452 3.47476522
v 2.46152519 -1.64254637 2.99976522
v 2.46152519 -1.64254637 3.47476522
v 1.98153668 -1.64586773 2.99976522
v 1.98153668 -1.64586773 3.47476522
f 714 716 713
f 717 714 713
f 713 716 715
f 715 717 713
f 714 720 716
f 718 714 717
f 718 720 714
f 716 720 715
f 719 717 715
f 715 720 719
f 719 718 717
f 720 718 719

o geometry_90
v 2.45154265 -1.62771324 2.99492095
v 2.45154265 -1.62771324 3.46992095
v 1.97155226 -1.62467678 2.99492095
v 1.97155226 -1.62467678 3.46992095
v 2.45507662 -1.06907975 2.99492095
v 2.45507662 -1.06907975 3.46992095
v 1.97508622 -1.06604329 2.99492095
v 1.97508622 -1.06604329 3.46992095
f 722 724 721
f 725 722 721
f 721 724 723
f 723 725 721
f 722 728 724
f 726 722 725
f 726 728 722
f 724 728 723
f 727 725 723
f 723 728 727
f 727 726 725
f 728 726 727

o geometry_91
v 2.45792604 -1.04991812 2.99110940
v 2.45792604 -1.04991812 3.46610940
v 1.97792659 -1.04919315 2.99110940
v 1.97792659 -1.04919315 3.46610940
v 2.45872145 -0.52328530 2.99110940
v 2.45872145 -0.52328530 3.46610940
v 1.97872200 -0.52256032 2.99110940
v 1.97872200 -0.52256032 3.46610940
f 730 732 729
f 733 730 729
f 729 732 731
f 731 733 729
f 730 736 732
f 734 730 733
f 734 736 730
f 732 736 731
f 735 733 731
f 731 736 735
f 735 734 733
f 736 734 735

o geometry_92
v 2.46310577 -0.50286528 3.00519124
v 2.46310577 -0.50286528 3.48019124
v 1.98312335 -0.50697329 3.00519124
v 1.98312335 -0.50697329 3.48019124
v 2.46160017 -0.32694922 3.00519124
v 2.46160017 -0.32694922 3.48019124
v 1.98161774 -0.33105722 3.00519124
v 1.98161774 -0.33105722 3.48019124
f 738 740 737
f 741 738 737
f 737 740 739
f 739 741 737
f 738 744 740
f 742 738 741
f 742 744 738
f 740 744 739
f 743 741 739
f 739 744 743
f 743 742 741
f 744 742 743

o geometry_93
v -1.70000000 -0.32000000 0.10000000
v -1.47000000 -0.32000000 0.10000000
v -1.47000000 -0.32000000 3.35000000
v -1.70000000 -0.32000000 3.35000000
v -1.47783706 -0.26047162 0.10000000
v -1.47783706 -0.26047162 3.35000000
v -1.50081416 -0.20500000 0.10000000
v -1.50081416 -0.20500000 3.35000000
v -1.53736544 -0.15736544 0.10000000
v -1.53736544 -0.15736544 3.35000000
v -1.58500000 -0.12081416 0.10000000
v -1.58500000 -0.12081416 3.35000000
v -1.64047162 -0.09783706 0.10000000
v -1.64047162 -0.09783706 3.35000000
v -1.70000000 -0.09000000 0.10000000
v -1.70000000 -0.09000000 3.35000000
v -1.75952838 -0.09783706 0.10000000
v -1.75952838 -0.09783706 3.35000000
v -1.81500000 -0.12081416 0.10000000
v -1.81500000 -0.12081416 3.35000000
v -1.86263456 -0.15736544 0.10000000
v -1.86263456 -0.15736544 3.35000000
v -1.89918584 -0.20500000 0.10000000
v -1.89918584 -0.20500000 3.35000000
v -1.92216294 -0.26047162 0.10000000
v -1.92216294 -0.26047162 3.35000000
v -1.93000000 -0.32000000 0.10000000
v -1.93000000 -0.32000000 3.35000000
v -1.92216294 -0.37952838 0.10000000
v -1.92216294 -0.37952838 3.35000000
v -1.89918584 -0.43500000 0.10000000
v -1.89918584 -0.43500000 3.35000000
v -1.86263456 -0.48263456 0.10000000
v -1.86263456 -0.48263456 3.35000000
v -1.81500000 -0.51918584 0.10000000
v -1.81500000 -0.51918584 3.35000000
v -1.75952838 -0.54216294 0.10000000
v -1.75952838 -0.54216294 3.35000000
v -1.70000000 -0.55000000 0.10000000
v -1.70000000 -0.55000000 3.35000000
v -1.64047162 -0.54216294 0.10000000
v -1.64047162 -0.54216294 3.35000000
v -1.58500000 -0.51918584 0.10000000
v -1.58500000 -0.51918584 3.35000000
v -1.53736544 -0.48263456 0.10000000
v -1.53736544 -0.48263456 3.35000000
v -1.50081416 -0.43500000 0.10000000
v -1.50081416 -0.43500000 3.35000000
v -1.47783706 -0.37952838 0.10000000
v -1.47783706 -0.37952838 3.35000000
f 746 745 749
f 746 749 747
f 747 749 750
f 747 750 748
f 749 745 751
f 749 751 750
f 750 751 752
f 750 752 748
f 751 745 753
f 751 753 752
f 752 753 754
f 752 754 748
f 753 745 755
f 753 755 754
f 754 755 756
f 754 756 748
f 755 745 757
f 755 757 756
f 756 757 758
f 756 758 748
f 757 745 759
f 757 759 758
f 758 759 760
f 758 760 748
f 759 745 761
f 759 761 760
f 760 761 762
f 760 762 748
f 761 745 763
f 761 763 762
f 762 763 764
f 762 764 748
f 763 745 765
f 763 765 764
f 764 765 766
f 764 766 748
f 765 745 767
f 765 767 766
f 766 767 768
f 766 768 748
f 767 745 769
f 767 769 768
f 768 769 770
f 768 770 748
f 769 745 771
f 769 771 770
f 770 771 772
f 770 772 748
f 771 745 773
f 771 773 772
f 772 773 774
f 772 774 748
f 773 745 775
f 773 775 774
f 774 775 776
f 774 776 748
f 775 745 777
f 775 777 776
f 776 777 778
f 776 778 748
f 777 745 779
f 777 779 778
f 778 779 780
f 778 780 748
f 779 745 781
f 779 781 780
f 780 781 782
f 780 782 748
f 781 745 783
f 781 783 782
f 782 783 784
f 782 784 748
f 783 745 785
f 783 785 784
f 784 785 786
f 784 786 748
f 785 745 787
f 785 787 786
f 786 787 788
f 786 788 748
f 787 745 789
f 787 789 788
f 788 789 790
f 788 790 748
f 789 745 791
f 789 791 790
f 790 791 792
f 790 792 748
f 791 745 793
f 791 793 792
f 792 793 794
f 792 794 748
f 793 745 746
f 793 746 794
f 794 746 747
f 794 747 748

o geometry_94
v -1.70000000 -0.32000000 0.10000000
v -1.40560000 -0.32000000 0.10000000
v -1.40560000 -0.32000000 0.26000000
v -1.70000000 -0.32000000 0.26000000
v -1.41563144 -0.24380367 0.10000000
v -1.41563144 -0.24380367 0.26000000
v -1.44504212 -0.17280000 0.10000000
v -1.44504212 -0.17280000 0.26000000
v -1.49182776 -0.11182776 0.10000000
v -1.49182776 -0.11182776 0.26000000
v -1.55280000 -0.06504212 0.10000000
v -1.55280000 -0.06504212 0.26000000
v -1.62380367 -0.03563144 0.10000000
v -1.62380367 -0.03563144 0.26000000
v -1.70000000 -0.02560000 0.10000000
v -1.70000000 -0.02560000 0.26000000
v -1.77619633 -0.03563144 0.10000000
v -1.77619633 -0.03563144 0.26000000
v -1.84720000 -0.06504212 0.10000000
v -1.84720000 -0.06504212 0.26000000
v -1.90817224 -0.11182776 0.10000000
v -1.90817224 -0.11182776 0.26000000
v -1.95495788 -0.17280000 0.10000000
v -1.95495788 -0.17280000 0.26000000
v -1.98436856 -0.24380367 0.10000000
v -1.98436856 -0.24380367 0.26000000
v -1.99440000 -0.32000000 0.10000000
v -1.99440000 -0.32000000 0.26000000
v -1.98436856 -0.39619633 0.10000000
v -1.98436856 -0.39619633 0.26000000
v -1.95495788 -0.46720000 0.10000000
v -1.95495788 -0.46720000 0.26000000
v -1.90817224 -0.52817224 0.10000000
v -1.90817224 -0.52817224 0.26000000
v -1.84720000 -0.57495788 0.10000000
v -1.84720000 -0.57495788 0.26000000
v -1.77619633 -0.60436856 0.10000000
v -1.77619633 -0.60436856 0.26000000
v -1.70000000 -0.61440000 0.10000000
v -1.70000000 -0.61440000 0.26000000
v -1.62380367 -0.60436856 0.10000000
v -1.62380367 -0.60436856 0.26000000
v -1.55280000 -0.57495788 0.10000000
v -1.55280000 -0.57495788 0.26000000
v -1.49182776 -0.52817224 0.10000000
v -1.49182776 -0.52817224 0.26000000
v -1.44504212 -0.46720000 0.10000000
v -1.44504212 -0.46720000 0.26000000
v -1.41563144 -0.39619633 0.10000000
v -1.41563144 -0.39619633 0.26000000
f 796 795 799
f 796 799 797
f 797 799 800
f 797 800 798
f 799 795 801
f 799 801 800
f 800 801 802
f 800 802 798
f 801 795 803
f 801 803 802
f 802 803 804
f 802 804 798
f 803 795 805
f 803 805 804
f 804 805 806
f 804 806 798
f 805 795 807
f 805 807 806
f 806 807 808
f 806 808 798
f 807 795 809
f 807 809 808
f 808 809 810
f 808 810 798
f 809 795 811
f 809 811 810
f 810 811 812
f 810 812 798
f 811 795 813
f 811 813 812
f 812 813 814
f 812 814 798
f 813 795 815
f 813 815 814
f 814 815 816
f 814 816 798
f 815 795 817
f 815 817 816
f 816 817 818
f 816 818 798
f 817 795 819
f 817 819 818
f 818 819 820
f 818 820 798
f 819 795 821
f 819 821 820
f 820 821 822
f 820 822 798
f 821 795 823
f 821 823 822
f 822 823 824
f 822 824 798
f 823 795 825
f 823 825 824
f 824 825 826
f 824 826 798
f 825 795 827
f 825 827 826
f 826 827 828
f 826 828 798
f 827 795 829
f 827 829 828
f 828 829 830
f 828 830 798
f 829 795 831
f 829 831 830
f 830 831 832
f 830 832 798
f 831 795 833
f 831 833 832
f 832 833 834
f 832 834 798
f 833 795 835
f 833 835 834
f 834 835 836
f 834 836 798
f 835 795 837
f 835 837 836
f 836 837 838
f 836 838 798
f 837 795 839
f 837 839 838
f 838 839 840
f 838 840 798
f 839 795 841
f 839 841 840
f 840 841 842
f 840 842 798
f 841 795 843
f 841 843 842
f 842 843 844
f 842 844 798
f 843 795 796
f 843 796 844
f 844 796 797
f 844 797 798

o geometry_95
v -1.70000000 -0.32000000 3.18000000
v -1.41940000 -0.32000000 3.18000000
v -1.41940000 -0.32000000 3.36000000
v -1.70000000 -0.32000000 3.36000000
v -1.42896121 -0.24737538 3.18000000
v -1.42896121 -0.24737538 3.36000000
v -1.45699327 -0.17970000 3.18000000
v -1.45699327 -0.17970000 3.36000000
v -1.50158584 -0.12158584 3.18000000
v -1.50158584 -0.12158584 3.36000000
v -1.55970000 -0.07699327 3.18000000
v -1.55970000 -0.07699327 3.36000000
v -1.62737538 -0.04896121 3.18000000
v -1.62737538 -0.04896121 3.36000000
v -1.70000000 -0.03940000 3.18000000
v -1.70000000 -0.03940000 3.36000000
v -1.77262462 -0.04896121 3.18000000
v -1.77262462 -0.04896121 3.36000000
v -1.84030000 -0.07699327 3.18000000
v -1.84030000 -0.07699327 3.36000000
v -1.89841416 -0.12158584 3.18000000
v -1.89841416 -0.12158584 3.36000000
v -1.94300673 -0.17970000 3.18000000
v -1.94300673 -0.17970000 3.36000000
v -1.97103879 -0.24737538 3.18000000
v -1.97103879 -0.24737538 3.36000000
v -1.98060000 -0.32000000 3.18000000
v -1.98060000 -0.32000000 3.36000000
v -1.97103879 -0.39262462 3.18000000
v -1.97103879 -0.39262462 3.36000000
v -1.94300673 -0.46030000 3.18000000
v -1.94300673 -0.46030000 3.36000000
v -1.89841416 -0.51841416 3.18000000
v -1.89841416 -0.51841416 3.36000000
v -1.84030000 -0.56300673 3.18000000
v -1.84030000 -0.56300673 3.36000000
v -1.77262462 -0.59103879 3.18000000
v -1.77262462 -0.59103879 3.36000000
v -1.70000000 -0.60060000 3.18000000
v -1.70000000 -0.60060000 3.36000000
v -1.62737538 -0.59103879 3.18000000
v -1.62737538 -0.59103879 3.36000000
v -1.55970000 -0.56300673 3.18000000
v -1.55970000 -0.56300673 3.36000000
v -1.50158584 -0.51841416 3.18000000
v -1.50158584 -0.51841416 3.36000000
v -1.45699327 -0.46030000 3.18000000
v -1.45699327 -0.46030000 3.36000000
v -1.42896121 -0.39262462 3.18000000
v -1.42896121 -0.39262462 3.36000000
f 846 845 849
f 846 849 847
f 847 849 850
f 847 850 848
f 849 845 851
f 849 851 850
f 850 851 852
f 850 852 848
f 851 845 853
f 851 853 852
f 852 853 854
f 852 854 848
f 853 845 855
f 853 855 854
f 854 855 856
f 854 856 848
f 855 845 857
f 855 857 856
f 856 857 858
f 856 858 848
f 857 845 859
f 857 859 858
f 858 859 860
f 858 860 848
f 859 845 861
f 859 861 860
f 860 861 862
f 860 862 848
f 861 845 863
f 861 863 862
f 862 863 864
f 862 864 848
f 863 845 865
f 863 865 864
f 864 865 866
f 864 866 848
f 865 845 867
f 865 867 866
f 866 867 868
f 866 868 848
f 867 845 869
f 867 869 868
f 868 869 870
f 868 870 848
f 869 845 871
f 869 871 870
f 870 871 872
f 870 872 848
f 871 845 873
f 871 873 872
f 872 873 874
f 872 874 848
f 873 845 875
f 873 875 874
f 874 875 876
f 874 876 848
f 875 845 877
f 875 877 876
f 876 877 878
f 876 878 848
f 877 845 879
f 877 879 878
f 878 879 880
f 878 880 848
f 879 845 881
f 879 881 880
f 880 881 882
f 880 882 848
f 881 845 883
f 881 883 882
f 882 883 884
f 882 884 848
f 883 845 885
f 883 885 884
f 884 885 886
f 884 886 848
f 885 845 887
f 885 887 886
f 886 887 888
f 886 888 848
f 887 845 889
f 887 889 888
f 888 889 890
f 888 890 848
f 889 845 891
f 889 891 890
f 890 891 892
f 890 892 848
f 891 845 893
f 891 893 892
f 892 893 894
f 892 894 848
f 893 845 846
f 893 846 894
f 894 846 847
f 894 847 848

o geometry_96
v -1.98750000 -0.67000000 3.11000000
v -1.98750000 -0.67000000 3.27000000
v -1.98750000 0.03000000 3.11000000
v -1.98750000 0.03000000 3.27000000
v -1.41250000 -0.67000000 3.11000000
v -1.41250000 -0.67000000 3.27000000
v -1.41250000 0.03000000 3.11000000
v -1.41250000 0.03000000 3.27000000
f 896 898 895
f 899 896 895
f 895 898 897
f 897 899 895
f 896 902 898
f 900 896 899
f 900 902 896
f 898 902 897
f 901 899 897
f 897 902 901
f 901 900 899
f 902 900 901

o geometry_97
v 1.70000000 -0.32000000 0.10000000
v 1.93000000 -0.32000000 0.10000000
v 1.93000000 -0.32000000 3.35000000
v 1.70000000 -0.32000000 3.35000000
v 1.92216294 -0.26047162 0.10000000
v 1.92216294 -0.26047162 3.35000000
v 1.89918584 -0.20500000 0.10000000
v 1.89918584 -0.20500000 3.35000000
v 1.86263456 -0.15736544 0.10000000
v 1.86263456 -0.15736544 3.35000000
v 1.81500000 -0.12081416 0.10000000
v 1.81500000 -0.12081416 3.35000000
v 1.75952838 -0.09783706 0.10000000
v 1.75952838 -0.09783706 3.35000000
v 1.70000000 -0.09000000 0.10000000
v 1.70000000 -0.09000000 3.35000000
v 1.64047162 -0.09783706 0.10000000
v 1.64047162 -0.09783706 3.35000000
v 1.58500000 -0.12081416 0.10000000
v 1.58500000 -0.12081416 3.35000000
v 1.53736544 -0.15736544 0.10000000
v 1.53736544 -0.15736544 3.35000000
v 1.50081416 -0.20500000 0.10000000
v 1.50081416 -0.20500000 3.35000000
v 1.47783706 -0.26047162 0.10000000
v 1.47783706 -0.26047162 3.35000000
v 1.47000000 -0.32000000 0.10000000
v 1.47000000 -0.32000000 3.35000000
v 1.47783706 -0.37952838 0.10000000
v 1.47783706 -0.37952838 3.35000000
v 1.50081416 -0.43500000 0.10000000
v 1.50081416 -0.43500000 3.35000000
v 1.53736544 -0.48263456 0.10000000
v 1.53736544 -0.48263456 3.35000000
v 1.58500000 -0.51918584 0.10000000
v 1.58500000 -0.51918584 3.35000000
v 1.64047162 -0.54216294 0.10000000
v 1.64047162 -0.54216294 3.35000000
v 1.70000000 -0.55000000 0.10000000
v 1.70000000 -0.55000000 3.35000000
v 1.75952838 -0.54216294 0.10000000
v 1.75952838 -0.54216294 3.35000000
v 1.81500000 -0.51918584 0.10000000
v 1.81500000 -0.51918584 3.35000000
v 1.86263456 -0.48263456 0.10000000
v 1.86263456 -0.48263456 3.35000000
v 1.89918584 -0.43500000 0.10000000
v 1.89918584 -0.43500000 3.35000000
v 1.92216294 -0.37952838 0.10000000
v 1.92216294 -0.37952838 3.35000000
f 904 903 907
f 904 907 905
f 905 907 908
f 905 908 906
f 907 903 909
f 907 909 908
f 908 909 910
f 908 910 906
f 909 903 911
f 909 911 910
f 910 911 912
f 910 912 906
f 911 903 913
f 911 913 912
f 912 913 914
f 912 914 906
f 913 903 915
f 913 915 914
f 914 915 916
f 914 916 906
f 915 903 917
f 915 917 916
f 916 917 918
f 916 918 906
f 917 903 919
f 917 919 918
f 918 919 920
f 918 920 906
f 919 903 921
f 919 921 920
f 920 921 922
f 920 922 906
f 921 903 923
f 921 923 922
f 922 923 924
f 922 924 906
f 923 903 925
f 923 925 924
f 924 925 926
f 924 926 906
f 925 903 927
f 925 927 926
f 926 927 928
f 926 928 906
f 927 903 929
f 927 929 928
f 928 929 930
f 928 930 906
f 929 903 931
f 929 931 930
f 930 931 932
f 930 932 906
f 931 903 933
f 931 933 932
f 932 933 934
f 932 934 906
f 933 903 935
f 933 935 934
f 934 935 936
f 934 936 906
f 935 903 937
f 935 937 936
f 936 937 938
f 936 938 906
f 937 903 939
f 937 939 938
f 938 939 940
f 938 940 906
f 939 903 941
f 939 941 940
f 940 941 942
f 940 942 906
f 941 903 943
f 941 943 942
f 942 943 944
f 942 944 906
f 943 903 945
f 943 945 944
f 944 945 946
f 944 946 906
f 945 903 947
f 945 947 946
f 946 947 948
f 946 948 906
f 947 903 949
f 947 949 948
f 948 949 950
f 948 950 906
f 949 903 951
f 949 951 950
f 950 951 952
f 950 952 906
f 951 903 904
f 951 904 952
f 952 904 905
f 952 905 906

o geometry_98
v 1.70000000 -0.32000000 0.10000000
v 1.99440000 -0.32000000 0.10000000
v 1.99440000 -0.32000000 0.26000000
v 1.70000000 -0.32000000 0.26000000
v 1.98436856 -0.24380367 0.10000000
v 1.98436856 -0.24380367 0.26000000
v 1.95495788 -0.17280000 0.10000000
v 1.95495788 -0.17280000 0.26000000
v 1.90817224 -0.11182776 0.10000000
v 1.90817224 -0.11182776 0.26000000
v 1.84720000 -0.06504212 0.10000000
v 1.84720000 -0.06504212 0.26000000
v 1.77619633 -0.03563144 0.10000000
v 1.77619633 -0.03563144 0.26000000
v 1.70000000 -0.02560000 0.10000000
v 1.70000000 -0.02560000 0.26000000
v 1.62380367 -0.03563144 0.10000000
v 1.62380367 -0.03563144 0.26000000
v 1.55280000 -0.06504212 0.10000000
v 1.55280000 -0.06504212 0.26000000
v 1.49182776 -0.11182776 0.10000000
v 1.49182776 -0.11182776 0.26000000
v 1.44504212 -0.17280000 0.10000000
v 1.44504212 -0.17280000 0.26000000
v 1.41563144 -0.24380367 0.10000000
v 1.41563144 -0.24380367 0.26000000
v 1.40560000 -0.32000000 0.10000000
v 1.40560000 -0.32000000 0.26000000
v 1.41563144 -0.39619633 0.10000000
v 1.41563144 -0.39619633 0.26000000
v 1.44504212 -0.46720000 0.10000000
v 1.44504212 -0.46720000 0.26000000
v 1.49182776 -0.52817224 0.10000000
v 1.49182776 -0.52817224 0.26000000
v 1.55280000 -0.57495788 0.10000000
v 1.55280000 -0.57495788 0.26000000
v 1.62380367 -0.60436856 0.10000000
v 1.62380367 -0.60436856 0.26000000
v 1.70000000 -0.61440000 0.10000000
v 1.70000000 -0.61440000 0.26000000
v 1.77619633 -0.60436856 0.10000000
v 1.77619633 -0.60436856 0.26000000
v 1.84720000 -0.57495788 0.10000000
v 1.84720000 -0.57495788 0.26000000
v 1.90817224 -0.52817224 0.10000000
v 1.90817224 -0.52817224 0.26000000
v 1.95495788 -0.46720000 0.10000000
v 1.95495788 -0.46720000 0.26000000
v 1.98436856 -0.39619633 0.10000000
v 1.98436856 -0.39619633 0.26000000
f 954 953 957
f 954 957 955
f 955 957 958
f 955 958 956
f 957 953 959
f 957 959 958
f 958 959 960
f 958 960 956
f 959 953 961
f 959 961 960
f 960 961 962
f 960 962 956
f 961 953 963
f 961 963 962
f 962 963 964
f 962 964 956
f 963 953 965
f 963 965 964
f 964 965 966
f 964 966 956
f 965 953 967
f 965 967 966
f 966 967 968
f 966 968 956
f 967 953 969
f 967 969 968
f 968 969 970
f 968 970 956
f 969 953 971
f 969 971 970
f 970 971 972
f 970 972 956
f 971 953 973
f 971 973 972
f 972 973 974
f 972 974 956
f 973 953 975
f 973 975 974
f 974 975 976
f 974 976 956
f 975 953 977
f 975 977 976
f 976 977 978
f 976 978 956
f 977 953 979
f 977 979 978
f 978 979 980
f 978 980 956
f 979 953 981
f 979 981 980
f 980 981 982
f 980 982 956
f 981 953 983
f 981 983 982
f 982 983 984
f 982 984 956
f 983 953 985
f 983 985 984
f 984 985 986
f 984 986 956
f 985 953 987
f 985 987 986
f 986 987 988
f 986 988 956
f 987 953 989
f 987 989 988
f 988 989 990
f 988 990 956
f 989 953 991
f 989 991 990
f 990 991 992
f 990 992 956
f 991 953 993
f 991 993 992
f 992 993 994
f 992 994 956
f 993 953 995
f 993 995 994
f 994 995 996
f 994 996 956
f 995 953 997
f 995 997 996
f 996 997 998
f 996 998 956
f 997 953 999
f 997 999 998
f 998 999 1000
f 998 1000 956
f 999 953 1001
f 999 1001 1000
f 1000 1001 1002
f 1000 1002 956
f 1001 953 954
f 1001 954 1002
f 1002 954 955
f 1002 955 956

o geometry_99
v 1.70000000 -0.32000000 3.18000000
v 1.98060000 -0.32000000 3.18000000
v 1.98060000 -0.32000000 3.36000000
v 1.70000000 -0.32000000 3.36000000
v 1.97103879 -0.24737538 3.18000000
v 1.97103879 -0.24737538 3.36000000
v 1.94300673 -0.17970000 3.18000000
v 1.94300673 -0.17970000 3.36000000
v 1.89841416 -0.12158584 3.18000000
v 1.89841416 -0.12158584 3.36000000
v 1.84030000 -0.07699327 3.18000000
v 1.84030000 -0.07699327 3.36000000
v 1.77262462 -0.04896121 3.18000000
v 1.77262462 -0.04896121 3.36000000
v 1.70000000 -0.03940000 3.18000000
v 1.70000000 -0.03940000 3.36000000
v 1.62737538 -0.04896121 3.18000000
v 1.62737538 -0.04896121 3.36000000
v 1.55970000 -0.07699327 3.18000000
v 1.55970000 -0.07699327 3.36000000
v 1.50158584 -0.12158584 3.18000000
v 1.50158584 -0.12158584 3.36000000
v 1.45699327 -0.17970000 3.18000000
v 1.45699327 -0.17970000 3.36000000
v 1.42896121 -0.24737538 3.18000000
v 1.42896121 -0.24737538 3.36000000
v 1.41940000 -0.32000000 3.18000000
v 1.41940000 -0.32000000 3.36000000
v 1.42896121 -0.39262462 3.18000000
v 1.42896121 -0.39262462 3.36000000
v 1.45699327 -0.46030000 3.18000000
v 1.45699327 -0.46030000 3.36000000
v 1.50158584 -0.51841416 3.18000000
v 1.50158584 -0.51841416 3.36000000
v 1.55970000 -0.56300673 3.18000000
v 1.55970000 -0.56300673 3.36000000
v 1.62737538 -0.59103879 3.18000000
v 1.62737538 -0.59103879 3.36000000
v 1.70000000 -0.60060000 3.18000000
v 1.70000000 -0.60060000 3.36000000
v 1.77262462 -0.59103879 3.18000000
v 1.77262462 -0.59103879 3.36000000
v 1.84030000 -0.56300673 3.18000000
v 1.84030000 -0.56300673 3.36000000
v 1.89841416 -0.51841416 3.18000000
v 1.89841416 -0.51841416 3.36000000
v 1.94300673 -0.46030000 3.18000000
v 1.94300673 -0.46030000 3.36000000
v 1.97103879 -0.39262462 3.18000000
v 1.97103879 -0.39262462 3.36000000
f 1004 1003 1007
f 1004 1007 1005
f 1005 1007 1008
f 1005 1008 1006
f 1007 1003 1009
f 1007 1009 1008
f 1008 1009 1010
f 1008 1010 1006
f 1009 1003 1011
f 1009 1011 1010
f 1010 1011 1012
f 1010 1012 1006
f 1011 1003 1013
f 1011 1013 1012
f 1012 1013 1014
f 1012 1014 1006
f 1013 1003 1015
f 1013 1015 1014
f 1014 1015 1016
f 1014 1016 1006
f 1015 1003 1017
f 1015 1017 1016
f 1016 1017 1018
f 1016 1018 1006
f 1017 1003 1019
f 1017 1019 1018
f 1018 1019 1020
f 1018 1020 1006
f 1019 1003 1021
f 1019 1021 1020
f 1020 1021 1022
f 1020 1022 1006
f 1021 1003 1023
f 1021 1023 1022
f 1022 1023 1024
f 1022 1024 1006
f 1023 1003 1025
f 1023 1025 1024
f 1024 1025 1026
f 1024 1026 1006
f 1025 1003 1027
f 1025 1027 1026
f 1026 1027 1028
f 1026 1028 1006
f 1027 1003 1029
f 1027 1029 1028
f 1028 1029 1030
f 1028 1030 1006
f 1029 1003 1031
f 1029 1031 1030
f 1030 1031 1032
f 1030 1032 1006
f 1031 1003 1033
f 1031 1033 1032
f 1032 1033 1034
f 1032 1034 1006
f 1033 1003 1035
f 1033 1035 1034
f 1034 1035 1036
f 1034 1036 1006
f 1035 1003 1037
f 1035 1037 1036
f 1036 1037 1038
f 1036 1038 1006
f 1037 1003 1039
f 1037 1039 1038
f 1038 1039 1040
f 1038 1040 1006
f 1039 1003 1041
f 1039 1041 1040
f 1040 1041 1042
f 1040 1042 1006
f 1041 1003 1043
f 1041 1043 1042
f 1042 1043 1044
f 1042 1044 1006
f 1043 1003 1045
f 1043 1045 1044
f 1044 1045 1046
f 1044 1046 1006
f 1045 1003 1047
f 1045 1047 1046
f 1046 1047 1048
f 1046 1048 1006
f 1047 1003 1049
f 1047 1049 1048
f 1048 1049 1050
f 1048 1050 1006
f 1049 1003 1051
f 1049 1051 1050
f 1050 1051 1052
f 1050 1052 1006
f 1051 1003 1004
f 1051 1004 1052
f 1052 1004 1005
f 1052 1005 1006

o geometry_100
v 1.41250000 -0.67000000 3.11000000
v 1.41250000 -0.67000000 3.27000000
v 1.41250000 0.03000000 3.11000000
v 1.41250000 0.03000000 3.27000000
v 1.98750000 -0.67000000 3.11000000
v 1.98750000 -0.67000000 3.27000000
v 1.98750000 0.03000000 3.11000000
v 1.98750000 0.03000000 3.27000000
f 1054 1056 1053
f 1057 1054 1053
f 1053 1056 1055
f 1055 1057 1053
f 1054 1060 1056
f 1058 1054 1057
f 1058 1060 1054
f 1056 1060 1055
f 1059 1057 1055
f 1055 1060 1059
f 1059 1058 1057
f 1060 1058 1059

o geometry_101
v -2.00000000 -0.29500000 0.00000000
v -2.00000000 -0.29500000 0.18000000
v -2.00000000 0.25500000 0.00000000
v -2.00000000 0.25500000 0.18000000
v 2.00000000 -0.29500000 0.00000000
v 2.00000000 -0.29500000 0.18000000
v 2.00000000 0.25500000 0.00000000
v 2.00000000 0.25500000 0.18000000
f 1062 1064 1061
f 1065 1062 1061
f 1061 1064 1063
f 1063 1065 1061
f 1062 1068 1064
f 1066 1062 1065
f 1066 1068 1062
f 1064 1068 1063
f 1067 1065 1063
f 1063 1068 1067
f 1067 1066 1065
f 1068 1066 1067

o geometry_102
v -2.00000000 -0.33000000 3.25000000
v -2.00000000 -0.33000000 3.50000000
v -2.00000000 0.29000000 3.25000000
v -2.00000000 0.29000000 3.50000000
v 2.00000000 -0.33000000 3.25000000
v 2.00000000 -0.33000000 3.50000000
v 2.00000000 0.29000000 3.25000000
v 2.00000000 0.29000000 3.50000000
f 1070 1072 1069
f 1073 1070 1069
f 1069 1072 1071
f 1071 1073 1069
f 1070 1076 1072
f 1074 1070 1073
f 1074 1076 1070
f 1072 1076 1071
f 1075 1073 1071
f 1071 1076 1075
f 1075 1074 1073
f 1076 1074 1075

