# Stylized ethereal sorceress avatar
o Ethereal_Sorceress
v 0.000000 0.000000 7.920000
v 0.000000 0.000000 7.920000
v 0.000000 0.000000 7.920000
v 0.000000 0.000000 7.920000
v 0.000000 0.000000 7.920000
v 0.000000 0.000000 7.920000
v 0.000000 0.000000 7.920000
v 0.000000 0.000000 7.920000
v 0.000000 0.000000 7.920000
v 0.000000 0.000000 7.920000
v 0.000000 0.000000 7.920000
v 0.000000 0.000000 7.920000
v 0.000000 0.000000 7.920000
v 0.000000 0.000000 7.920000
v 0.000000 0.000000 7.920000
v 0.000000 0.000000 7.920000
v 0.222492 0.000000 7.884761
v 0.205556 0.085144 7.884761
v 0.157326 0.157326 7.884761
v 0.085144 0.205556 7.884761
v 0.000000 0.222492 7.884761
v -0.085144 0.205556 7.884761
v -0.157326 0.157326 7.884761
v -0.205556 0.085144 7.884761
v -0.222492 0.000000 7.884761
v -0.205556 -0.085144 7.884761
v -0.157326 -0.157326 7.884761
v -0.085144 -0.205556 7.884761
v -0.000000 -0.222492 7.884761
v 0.085144 -0.205556 7.884761
v 0.157326 -0.157326 7.884761
v 0.205556 -0.085144 7.884761
v 0.423205 0.000000 7.782492
v 0.390991 0.161954 7.782492
v 0.299251 0.299251 7.782492
v 0.161954 0.390991 7.782492
v 0.000000 0.423205 7.782492
v -0.161954 0.390991 7.782492
v -0.299251 0.299251 7.782492
v -0.390991 0.161954 7.782492
v -0.423205 0.000000 7.782492
v -0.390991 -0.161954 7.782492
v -0.299251 -0.299251 7.782492
v -0.161954 -0.390991 7.782492
v -0.000000 -0.423205 7.782492
v 0.161954 -0.390991 7.782492
v 0.299251 -0.299251 7.782492
v 0.390991 -0.161954 7.782492
v 0.582492 0.000000 7.623205
v 0.538153 0.222910 7.623205
v 0.411884 0.411884 7.623205
v 0.222910 0.538153 7.623205
v 0.000000 0.582492 7.623205
v -0.222910 0.538153 7.623205
v -0.411884 0.411884 7.623205
v -0.538153 0.222910 7.623205
v -0.582492 0.000000 7.623205
v -0.538153 -0.222910 7.623205
v -0.411884 -0.411884 7.623205
v -0.222910 -0.538153 7.623205
v -0.000000 -0.582492 7.623205
v 0.222910 -0.538153 7.623205
v 0.411884 -0.411884 7.623205
v 0.538153 -0.222910 7.623205
v 0.684761 0.000000 7.422492
v 0.632636 0.262047 7.422492
v 0.484199 0.484199 7.422492
v 0.262047 0.632636 7.422492
v 0.000000 0.684761 7.422492
v -0.262047 0.632636 7.422492
v -0.484199 0.484199 7.422492
v -0.632636 0.262047 7.422492
v -0.684761 0.000000 7.422492
v -0.632636 -0.262047 7.422492
v -0.484199 -0.484199 7.422492
v -0.262047 -0.632636 7.422492
v -0.000000 -0.684761 7.422492
v 0.262047 -0.632636 7.422492
v 0.484199 -0.484199 7.422492
v 0.632636 -0.262047 7.422492
v 0.720000 0.000000 7.200000
v 0.665193 0.275532 7.200000
v 0.509117 0.509117 7.200000
v 0.275532 0.665193 7.200000
v 0.000000 0.720000 7.200000
v -0.275532 0.665193 7.200000
v -0.509117 0.509117 7.200000
v -0.665193 0.275532 7.200000
v -0.720000 0.000000 7.200000
v -0.665193 -0.275532 7.200000
v -0.509117 -0.509117 7.200000
v -0.275532 -0.665193 7.200000
v -0.000000 -0.720000 7.200000
v 0.275532 -0.665193 7.200000
v 0.509117 -0.509117 7.200000
v 0.665193 -0.275532 7.200000
v 0.684761 0.000000 6.977508
v 0.632636 0.262047 6.977508
v 0.484199 0.484199 6.977508
v 0.262047 0.632636 6.977508
v 0.000000 0.684761 6.977508
v -0.262047 0.632636 6.977508
v -0.484199 0.484199 6.977508
v -0.632636 0.262047 6.977508
v -0.684761 0.000000 6.977508
v -0.632636 -0.262047 6.977508
v -0.484199 -0.484199 6.977508
v -0.262047 -0.632636 6.977508
v -0.000000 -0.684761 6.977508
v 0.262047 -0.632636 6.977508
v 0.484199 -0.484199 6.977508
v 0.632636 -0.262047 6.977508
v 0.582492 0.000000 6.776795
v 0.538153 0.222910 6.776795
v 0.411884 0.411884 6.776795
v 0.222910 0.538153 6.776795
v 0.000000 0.582492 6.776795
v -0.222910 0.538153 6.776795
v -0.411884 0.411884 6.776795
v -0.538153 0.222910 6.776795
v -0.582492 0.000000 6.776795
v -0.538153 -0.222910 6.776795
v -0.411884 -0.411884 6.776795
v -0.222910 -0.538153 6.776795
v -0.000000 -0.582492 6.776795
v 0.222910 -0.538153 6.776795
v 0.411884 -0.411884 6.776795
v 0.538153 -0.222910 6.776795
v 0.423205 0.000000 6.617508
v 0.390991 0.161954 6.617508
v 0.299251 0.299251 6.617508
v 0.161954 0.390991 6.617508
v 0.000000 0.423205 6.617508
v -0.161954 0.390991 6.617508
v -0.299251 0.299251 6.617508
v -0.390991 0.161954 6.617508
v -0.423205 0.000000 6.617508
v -0.390991 -0.161954 6.617508
v -0.299251 -0.299251 6.617508
v -0.161954 -0.390991 6.617508
v -0.000000 -0.423205 6.617508
v 0.161954 -0.390991 6.617508
v 0.299251 -0.299251 6.617508
v 0.390991 -0.161954 6.617508
v 0.222492 0.000000 6.515239
v 0.205556 0.085144 6.515239
v 0.157326 0.157326 6.515239
v 0.085144 0.205556 6.515239
v 0.000000 0.222492 6.515239
v -0.085144 0.205556 6.515239
v -0.157326 0.157326 6.515239
v -0.205556 0.085144 6.515239
v -0.222492 0.000000 6.515239
v -0.205556 -0.085144 6.515239
v -0.157326 -0.157326 6.515239
v -0.085144 -0.205556 6.515239
v -0.000000 -0.222492 6.515239
v 0.085144 -0.205556 6.515239
v 0.157326 -0.157326 6.515239
v 0.205556 -0.085144 6.515239
v 0.000000 0.000000 6.480000
v 0.000000 0.000000 6.480000
v 0.000000 0.000000 6.480000
v 0.000000 0.000000 6.480000
v 0.000000 0.000000 6.480000
v -0.000000 0.000000 6.480000
v -0.000000 0.000000 6.480000
v -0.000000 0.000000 6.480000
v -0.000000 0.000000 6.480000
v -0.000000 -0.000000 6.480000
v -0.000000 -0.000000 6.480000
v -0.000000 -0.000000 6.480000
v -0.000000 -0.000000 6.480000
v 0.000000 -0.000000 6.480000
v 0.000000 -0.000000 6.480000
v 0.000000 -0.000000 6.480000
v 1.650000 0.000000 2.000000
v 1.569243 0.509878 2.000000
v 1.334878 0.969846 2.000000
v 0.969846 1.334878 2.000000
v 0.509878 1.569243 2.000000
v 0.000000 1.650000 2.000000
v -0.509878 1.569243 2.000000
v -0.969846 1.334878 2.000000
v -1.334878 0.969846 2.000000
v -1.569243 0.509878 2.000000
v -1.650000 0.000000 2.000000
v -1.569243 -0.509878 2.000000
v -1.334878 -0.969846 2.000000
v -0.969846 -1.334878 2.000000
v -0.509878 -1.569243 2.000000
v -0.000000 -1.650000 2.000000
v 0.509878 -1.569243 2.000000
v 0.969846 -1.334878 2.000000
v 1.334878 -0.969846 2.000000
v 1.569243 -0.509878 2.000000
v 0.550000 0.000000 5.800000
v 0.523081 0.169959 5.800000
v 0.444959 0.323282 5.800000
v 0.323282 0.444959 5.800000
v 0.169959 0.523081 5.800000
v 0.000000 0.550000 5.800000
v -0.169959 0.523081 5.800000
v -0.323282 0.444959 5.800000
v -0.444959 0.323282 5.800000
v -0.523081 0.169959 5.800000
v -0.550000 0.000000 5.800000
v -0.523081 -0.169959 5.800000
v -0.444959 -0.323282 5.800000
v -0.323282 -0.444959 5.800000
v -0.169959 -0.523081 5.800000
v -0.000000 -0.550000 5.800000
v 0.169959 -0.523081 5.800000
v 0.323282 -0.444959 5.800000
v 0.444959 -0.323282 5.800000
v 0.523081 -0.169959 5.800000
v 0.000000 0.000000 2.000000
v 0.000000 0.000000 5.800000
v 0.750000 0.000000 5.000000
v 0.713292 0.231763 5.000000
v 0.606763 0.440839 5.000000
v 0.440839 0.606763 5.000000
v 0.231763 0.713292 5.000000
v 0.000000 0.750000 5.000000
v -0.231763 0.713292 5.000000
v -0.440839 0.606763 5.000000
v -0.606763 0.440839 5.000000
v -0.713292 0.231763 5.000000
v -0.750000 0.000000 5.000000
v -0.713292 -0.231763 5.000000
v -0.606763 -0.440839 5.000000
v -0.440839 -0.606763 5.000000
v -0.231763 -0.713292 5.000000
v -0.000000 -0.750000 5.000000
v 0.231763 -0.713292 5.000000
v 0.440839 -0.606763 5.000000
v 0.606763 -0.440839 5.000000
v 0.713292 -0.231763 5.000000
v 0.520000 0.000000 6.700000
v 0.494549 0.160689 6.700000
v 0.420689 0.305648 6.700000
v 0.305648 0.420689 6.700000
v 0.160689 0.494549 6.700000
v 0.000000 0.520000 6.700000
v -0.160689 0.494549 6.700000
v -0.305648 0.420689 6.700000
v -0.420689 0.305648 6.700000
v -0.494549 0.160689 6.700000
v -0.520000 0.000000 6.700000
v -0.494549 -0.160689 6.700000
v -0.420689 -0.305648 6.700000
v -0.305648 -0.420689 6.700000
v -0.160689 -0.494549 6.700000
v -0.000000 -0.520000 6.700000
v 0.160689 -0.494549 6.700000
v 0.305648 -0.420689 6.700000
v 0.420689 -0.305648 6.700000
v 0.494549 -0.160689 6.700000
v 0.000000 0.000000 5.000000
v 0.000000 0.000000 6.700000
v 1.000000 0.000000 7.550000
v 0.951057 0.309017 7.550000
v 0.809017 0.587785 7.550000
v 0.587785 0.809017 7.550000
v 0.309017 0.951057 7.550000
v 0.000000 1.000000 7.550000
v -0.309017 0.951057 7.550000
v -0.587785 0.809017 7.550000
v -0.809017 0.587785 7.550000
v -0.951057 0.309017 7.550000
v -1.000000 0.000000 7.550000
v -0.951057 -0.309017 7.550000
v -0.809017 -0.587785 7.550000
v -0.587785 -0.809017 7.550000
v -0.309017 -0.951057 7.550000
v -0.000000 -1.000000 7.550000
v 0.309017 -0.951057 7.550000
v 0.587785 -0.809017 7.550000
v 0.809017 -0.587785 7.550000
v 0.951057 -0.309017 7.550000
v 0.550000 0.000000 9.050000
v 0.523081 0.169959 9.050000
v 0.444959 0.323282 9.050000
v 0.323282 0.444959 9.050000
v 0.169959 0.523081 9.050000
v 0.000000 0.550000 9.050000
v -0.169959 0.523081 9.050000
v -0.323282 0.444959 9.050000
v -0.444959 0.323282 9.050000
v -0.523081 0.169959 9.050000
v -0.550000 0.000000 9.050000
v -0.523081 -0.169959 9.050000
v -0.444959 -0.323282 9.050000
v -0.323282 -0.444959 9.050000
v -0.169959 -0.523081 9.050000
v -0.000000 -0.550000 9.050000
v 0.169959 -0.523081 9.050000
v 0.323282 -0.444959 9.050000
v 0.444959 -0.323282 9.050000
v 0.523081 -0.169959 9.050000
v 0.000000 0.000000 7.550000
v 0.000000 0.000000 9.050000
v -0.128922 0.000000 7.237660
v -0.169461 -0.189565 7.271032
v -0.291199 -0.328336 7.338961
v -0.461517 -0.379129 7.423245
v -0.634777 -0.328336 7.501301
v -0.764555 -0.189565 7.552213
v -0.816078 -0.000000 7.562340
v -0.775539 0.189565 7.528968
v -0.653801 0.328336 7.461039
v -0.483483 0.379129 7.376755
v -0.310223 0.328336 7.298699
v -0.180445 0.189565 7.247787
v -1.073922 -0.150000 5.237660
v -1.114461 -0.339565 5.271032
v -1.236199 -0.478336 5.338961
v -1.406517 -0.529129 5.423245
v -1.579777 -0.478336 5.501301
v -1.709555 -0.339565 5.552213
v -1.761078 -0.150000 5.562340
v -1.720539 0.039565 5.528968
v -1.598801 0.178336 5.461039
v -1.428483 0.229129 5.376755
v -1.255223 0.178336 5.298699
v -1.125445 0.039565 5.247787
v -0.721948 0.267559 7.000000
v -0.615849 0.237538 6.876389
v -0.527609 0.130471 6.785899
v -0.480872 -0.024953 6.752778
v -0.488161 -0.187088 6.785899
v -0.547523 -0.312491 6.876389
v -0.643052 -0.367559 7.000000
v -0.749151 -0.337538 7.123611
v -0.837391 -0.230471 7.214101
v -0.884128 -0.075047 7.247222
v -0.876839 0.087088 7.214101
v -0.817477 0.212491 7.123611
v -1.929448 0.117559 6.000000
v -1.823349 0.087538 5.876389
v -1.735109 -0.019529 5.785899
v -1.688372 -0.174953 5.752778
v -1.695661 -0.337088 5.785899
v -1.755023 -0.462491 5.876389
v -1.850552 -0.517559 6.000000
v -1.956651 -0.487538 6.123611
v -2.044891 -0.380471 6.214101
v -2.091628 -0.225047 6.247222
v -2.084339 -0.062912 6.214101
v -2.024977 0.062491 6.123611
v 0.816078 0.000000 7.562340
v 0.764555 -0.189565 7.552213
v 0.634777 -0.328336 7.501301
v 0.461517 -0.379129 7.423245
v 0.291199 -0.328336 7.338961
v 0.169461 -0.189565 7.271032
v 0.128922 -0.000000 7.237660
v 0.180445 0.189565 7.247787
v 0.310223 0.328336 7.298699
v 0.483483 0.379129 7.376755
v 0.653801 0.328336 7.461039
v 0.775539 0.189565 7.528968
v 1.761078 -0.150000 5.562340
v 1.709555 -0.339565 5.552213
v 1.579777 -0.478336 5.501301
v 1.406517 -0.529129 5.423245
v 1.236199 -0.478336 5.338961
v 1.114461 -0.339565 5.271032
v 1.073922 -0.150000 5.237660
v 1.125445 0.039565 5.247787
v 1.255223 0.178336 5.298699
v 1.428483 0.229129 5.376755
v 1.598801 0.178336 5.461039
v 1.720539 0.039565 5.528968
v 0.643052 -0.367559 7.000000
v 0.547523 -0.312491 6.876389
v 0.488161 -0.187088 6.785899
v 0.480872 -0.024953 6.752778
v 0.527609 0.130471 6.785899
v 0.615849 0.237538 6.876389
v 0.721948 0.267559 7.000000
v 0.817477 0.212491 7.123611
v 0.876839 0.087088 7.214101
v 0.884128 -0.075047 7.247222
v 0.837391 -0.230471 7.214101
v 0.749151 -0.337538 7.123611
v 1.850552 -0.517559 6.000000
v 1.755023 -0.462491 5.876389
v 1.695661 -0.337088 5.785899
v 1.688372 -0.174953 5.752778
v 1.735109 -0.019529 5.785899
v 1.823349 0.087538 5.876389
v 1.929448 0.117559 6.000000
v 2.024977 0.062491 6.123611
v 2.084339 -0.062912 6.214101
v 2.091628 -0.225047 6.247222
v 2.044891 -0.380471 6.214101
v 1.956651 -0.487538 6.123611
v -0.504677 0.235682 6.250000
v -0.538742 0.218030 6.150319
v -0.575038 0.157194 6.070381
v -0.606374 0.065225 6.026019
v -0.626545 -0.039663 6.026019
v -0.631555 -0.136696 6.070381
v -0.620412 -0.206654 6.150319
v -0.595323 -0.235682 6.250000
v -0.561258 -0.218030 6.349681
v -0.524962 -0.157194 6.429619
v -0.493626 -0.065225 6.473981
v -0.473455 0.039663 6.473981
v -0.468445 0.136696 6.429619
v -0.479588 0.206654 6.349681
v -1.804677 0.485682 6.650000
v -1.838742 0.468030 6.550319
v -1.875038 0.407194 6.470381
v -1.906374 0.315225 6.426019
v -1.926545 0.210337 6.426019
v -1.931555 0.113304 6.470381
v -1.920412 0.043346 6.550319
v -1.895323 0.014318 6.650000
v -1.861258 0.031970 6.749681
v -1.824962 0.092806 6.829619
v -1.793626 0.184775 6.873981
v -1.773455 0.289663 6.873981
v -1.768445 0.386696 6.829619
v -1.779588 0.456654 6.749681
v 0.595323 -0.235682 6.250000
v 0.620412 -0.206654 6.150319
v 0.631555 -0.136696 6.070381
v 0.626545 -0.039663 6.026019
v 0.606374 0.065225 6.026019
v 0.575038 0.157194 6.070381
v 0.538742 0.218030 6.150319
v 0.504677 0.235682 6.250000
v 0.479588 0.206654 6.349681
v 0.468445 0.136696 6.429619
v 0.473455 0.039663 6.473981
v 0.493626 -0.065225 6.473981
v 0.524962 -0.157194 6.429619
v 0.561258 -0.218030 6.349681
v 1.895323 0.014318 6.650000
v 1.920412 0.043346 6.550319
v 1.931555 0.113304 6.470381
v 1.926545 0.210337 6.426019
v 1.906374 0.315225 6.426019
v 1.875038 0.407194 6.470381
v 1.838742 0.468030 6.550319
v 1.804677 0.485682 6.650000
v 1.779588 0.456654 6.749681
v 1.768445 0.386696 6.829619
v 1.773455 0.289663 6.873981
v 1.793626 0.184775 6.873981
v 1.824962 0.092806 6.829619
v 1.861258 0.031970 6.749681
v -2.000000 0.280000 6.960000
v -2.000000 0.280000 6.960000
v -2.000000 0.280000 6.960000
v -2.000000 0.280000 6.960000
v -2.000000 0.280000 6.960000
v -2.000000 0.280000 6.960000
v -2.000000 0.280000 6.960000
v -2.000000 0.280000 6.960000
v -2.000000 0.280000 6.960000
v -2.000000 0.280000 6.960000
v -2.000000 0.280000 6.960000
v -2.000000 0.280000 6.960000
v -1.892849 0.280000 6.938686
v -1.907204 0.333576 6.938686
v -1.946424 0.372796 6.938686
v -2.000000 0.387151 6.938686
v -2.053576 0.372796 6.938686
v -2.092796 0.333576 6.938686
v -2.107151 0.280000 6.938686
v -2.092796 0.226424 6.938686
v -2.053576 0.187204 6.938686
v -2.000000 0.172849 6.938686
v -1.946424 0.187204 6.938686
v -1.907204 0.226424 6.938686
v -1.802010 0.280000 6.877990
v -1.828536 0.378995 6.877990
v -1.901005 0.451464 6.877990
v -2.000000 0.477990 6.877990
v -2.098995 0.451464 6.877990
v -2.171464 0.378995 6.877990
v -2.197990 0.280000 6.877990
v -2.171464 0.181005 6.877990
v -2.098995 0.108536 6.877990
v -2.000000 0.082010 6.877990
v -1.901005 0.108536 6.877990
v -1.828536 0.181005 6.877990
v -1.741314 0.280000 6.787151
v -1.775971 0.409343 6.787151
v -1.870657 0.504029 6.787151
v -2.000000 0.538686 6.787151
v -2.129343 0.504029 6.787151
v -2.224029 0.409343 6.787151
v -2.258686 0.280000 6.787151
v -2.224029 0.150657 6.787151
v -2.129343 0.055971 6.787151
v -2.000000 0.021314 6.787151
v -1.870657 0.055971 6.787151
v -1.775971 0.150657 6.787151
v -1.720000 0.280000 6.680000
v -1.757513 0.420000 6.680000
v -1.860000 0.522487 6.680000
v -2.000000 0.560000 6.680000
v -2.140000 0.522487 6.680000
v -2.242487 0.420000 6.680000
v -2.280000 0.280000 6.680000
v -2.242487 0.140000 6.680000
v -2.140000 0.037513 6.680000
v -2.000000 0.000000 6.680000
v -1.860000 0.037513 6.680000
v -1.757513 0.140000 6.680000
v -1.741314 0.280000 6.572849
v -1.775971 0.409343 6.572849
v -1.870657 0.504029 6.572849
v -2.000000 0.538686 6.572849
v -2.129343 0.504029 6.572849
v -2.224029 0.409343 6.572849
v -2.258686 0.280000 6.572849
v -2.224029 0.150657 6.572849
v -2.129343 0.055971 6.572849
v -2.000000 0.021314 6.572849
v -1.870657 0.055971 6.572849
v -1.775971 0.150657 6.572849
v -1.802010 0.280000 6.482010
v -1.828536 0.378995 6.482010
v -1.901005 0.451464 6.482010
v -2.000000 0.477990 6.482010
v -2.098995 0.451464 6.482010
v -2.171464 0.378995 6.482010
v -2.197990 0.280000 6.482010
v -2.171464 0.181005 6.482010
v -2.098995 0.108536 6.482010
v -2.000000 0.082010 6.482010
v -1.901005 0.108536 6.482010
v -1.828536 0.181005 6.482010
v -1.892849 0.280000 6.421314
v -1.907204 0.333576 6.421314
v -1.946424 0.372796 6.421314
v -2.000000 0.387151 6.421314
v -2.053576 0.372796 6.421314
v -2.092796 0.333576 6.421314
v -2.107151 0.280000 6.421314
v -2.092796 0.226424 6.421314
v -2.053576 0.187204 6.421314
v -2.000000 0.172849 6.421314
v -1.946424 0.187204 6.421314
v -1.907204 0.226424 6.421314
v -2.000000 0.280000 6.400000
v -2.000000 0.280000 6.400000
v -2.000000 0.280000 6.400000
v -2.000000 0.280000 6.400000
v -2.000000 0.280000 6.400000
v -2.000000 0.280000 6.400000
v -2.000000 0.280000 6.400000
v -2.000000 0.280000 6.400000
v -2.000000 0.280000 6.400000
v -2.000000 0.280000 6.400000
v -2.000000 0.280000 6.400000
v -2.000000 0.280000 6.400000
v 2.000000 0.280000 6.960000
v 2.000000 0.280000 6.960000
v 2.000000 0.280000 6.960000
v 2.000000 0.280000 6.960000
v 2.000000 0.280000 6.960000
v 2.000000 0.280000 6.960000
v 2.000000 0.280000 6.960000
v 2.000000 0.280000 6.960000
v 2.000000 0.280000 6.960000
v 2.000000 0.280000 6.960000
v 2.000000 0.280000 6.960000
v 2.000000 0.280000 6.960000
v 2.107151 0.280000 6.938686
v 2.092796 0.333576 6.938686
v 2.053576 0.372796 6.938686
v 2.000000 0.387151 6.938686
v 1.946424 0.372796 6.938686
v 1.907204 0.333576 6.938686
v 1.892849 0.280000 6.938686
v 1.907204 0.226424 6.938686
v 1.946424 0.187204 6.938686
v 2.000000 0.172849 6.938686
v 2.053576 0.187204 6.938686
v 2.092796 0.226424 6.938686
v 2.197990 0.280000 6.877990
v 2.171464 0.378995 6.877990
v 2.098995 0.451464 6.877990
v 2.000000 0.477990 6.877990
v 1.901005 0.451464 6.877990
v 1.828536 0.378995 6.877990
v 1.802010 0.280000 6.877990
v 1.828536 0.181005 6.877990
v 1.901005 0.108536 6.877990
v 2.000000 0.082010 6.877990
v 2.098995 0.108536 6.877990
v 2.171464 0.181005 6.877990
v 2.258686 0.280000 6.787151
v 2.224029 0.409343 6.787151
v 2.129343 0.504029 6.787151
v 2.000000 0.538686 6.787151
v 1.870657 0.504029 6.787151
v 1.775971 0.409343 6.787151
v 1.741314 0.280000 6.787151
v 1.775971 0.150657 6.787151
v 1.870657 0.055971 6.787151
v 2.000000 0.021314 6.787151
v 2.129343 0.055971 6.787151
v 2.224029 0.150657 6.787151
v 2.280000 0.280000 6.680000
v 2.242487 0.420000 6.680000
v 2.140000 0.522487 6.680000
v 2.000000 0.560000 6.680000
v 1.860000 0.522487 6.680000
v 1.757513 0.420000 6.680000
v 1.720000 0.280000 6.680000
v 1.757513 0.140000 6.680000
v 1.860000 0.037513 6.680000
v 2.000000 0.000000 6.680000
v 2.140000 0.037513 6.680000
v 2.242487 0.140000 6.680000
v 2.258686 0.280000 6.572849
v 2.224029 0.409343 6.572849
v 2.129343 0.504029 6.572849
v 2.000000 0.538686 6.572849
v 1.870657 0.504029 6.572849
v 1.775971 0.409343 6.572849
v 1.741314 0.280000 6.572849
v 1.775971 0.150657 6.572849
v 1.870657 0.055971 6.572849
v 2.000000 0.021314 6.572849
v 2.129343 0.055971 6.572849
v 2.224029 0.150657 6.572849
v 2.197990 0.280000 6.482010
v 2.171464 0.378995 6.482010
v 2.098995 0.451464 6.482010
v 2.000000 0.477990 6.482010
v 1.901005 0.451464 6.482010
v 1.828536 0.378995 6.482010
v 1.802010 0.280000 6.482010
v 1.828536 0.181005 6.482010
v 1.901005 0.108536 6.482010
v 2.000000 0.082010 6.482010
v 2.098995 0.108536 6.482010
v 2.171464 0.181005 6.482010
v 2.107151 0.280000 6.421314
v 2.092796 0.333576 6.421314
v 2.053576 0.372796 6.421314
v 2.000000 0.387151 6.421314
v 1.946424 0.372796 6.421314
v 1.907204 0.333576 6.421314
v 1.892849 0.280000 6.421314
v 1.907204 0.226424 6.421314
v 1.946424 0.187204 6.421314
v 2.000000 0.172849 6.421314
v 2.053576 0.187204 6.421314
v 2.092796 0.226424 6.421314
v 2.000000 0.280000 6.400000
v 2.000000 0.280000 6.400000
v 2.000000 0.280000 6.400000
v 2.000000 0.280000 6.400000
v 2.000000 0.280000 6.400000
v 2.000000 0.280000 6.400000
v 2.000000 0.280000 6.400000
v 2.000000 0.280000 6.400000
v 2.000000 0.280000 6.400000
v 2.000000 0.280000 6.400000
v 2.000000 0.280000 6.400000
v 2.000000 0.280000 6.400000
v -0.150462 0.000000 2.233359
v -0.180326 -0.130115 2.231404
v -0.263602 -0.234459 2.233132
v -0.383796 -0.292366 2.238201
v -0.517103 -0.292366 2.245607
v -0.637120 -0.234459 2.253883
v -0.720075 -0.130115 2.261390
v -0.749538 -0.000000 2.266641
v -0.719674 0.130115 2.268596
v -0.636398 0.234459 2.266868
v -0.516204 0.292366 2.261799
v -0.382897 0.292366 2.254393
v -0.262880 0.234459 2.246117
v -0.179925 0.130115 2.238610
v -0.250462 0.050000 0.433359
v -0.280326 -0.080115 0.431404
v -0.363602 -0.184459 0.433132
v -0.483796 -0.242366 0.438201
v -0.617103 -0.242366 0.445607
v -0.737120 -0.184459 0.453883
v -0.820075 -0.080115 0.461390
v -0.849538 0.050000 0.466641
v -0.819674 0.180115 0.468596
v -0.736398 0.284459 0.466868
v -0.616204 0.342366 0.461799
v -0.482897 0.342366 0.454393
v -0.362880 0.284459 0.446117
v -0.279925 0.180115 0.438610
v 0.749538 0.000000 2.266641
v 0.720075 -0.130115 2.261390
v 0.637120 -0.234459 2.253883
v 0.517103 -0.292366 2.245607
v 0.383796 -0.292366 2.238201
v 0.263602 -0.234459 2.233132
v 0.180326 -0.130115 2.231404
v 0.150462 -0.000000 2.233359
v 0.179925 0.130115 2.238610
v 0.262880 0.234459 2.246117
v 0.382897 0.292366 2.254393
v 0.516204 0.292366 2.261799
v 0.636398 0.234459 2.266868
v 0.719674 0.130115 2.268596
v 0.849538 0.050000 0.466641
v 0.820075 -0.080115 0.461390
v 0.737120 -0.184459 0.453883
v 0.617103 -0.242366 0.445607
v 0.483796 -0.242366 0.438201
v 0.363602 -0.184459 0.433132
v 0.280326 -0.080115 0.431404
v 0.250462 0.050000 0.433359
v 0.279925 0.180115 0.438610
v 0.362880 0.284459 0.446117
v 0.482897 0.342366 0.454393
v 0.616204 0.342366 0.461799
v 0.736398 0.284459 0.466868
v 0.819674 0.180115 0.468596
v -0.210000 0.180000 0.000000
v -0.255551 0.350000 0.000000
v -0.380000 0.474449 0.000000
v -0.550000 0.520000 0.000000
v -0.720000 0.474449 0.000000
v -0.844449 0.350000 0.000000
v -0.890000 0.180000 0.000000
v -0.844449 0.010000 0.000000
v -0.720000 -0.114449 0.000000
v -0.550000 -0.160000 0.000000
v -0.380000 -0.114449 0.000000
v -0.255551 0.010000 0.000000
v -0.350000 0.180000 0.650000
v -0.376795 0.280000 0.650000
v -0.450000 0.353205 0.650000
v -0.550000 0.380000 0.650000
v -0.650000 0.353205 0.650000
v -0.723205 0.280000 0.650000
v -0.750000 0.180000 0.650000
v -0.723205 0.080000 0.650000
v -0.650000 0.006795 0.650000
v -0.550000 -0.020000 0.650000
v -0.450000 0.006795 0.650000
v -0.376795 0.080000 0.650000
v -0.550000 0.180000 0.000000
v -0.550000 0.180000 0.650000
v 0.890000 0.180000 0.000000
v 0.844449 0.350000 0.000000
v 0.720000 0.474449 0.000000
v 0.550000 0.520000 0.000000
v 0.380000 0.474449 0.000000
v 0.255551 0.350000 0.000000
v 0.210000 0.180000 0.000000
v 0.255551 0.010000 0.000000
v 0.380000 -0.114449 0.000000
v 0.550000 -0.160000 0.000000
v 0.720000 -0.114449 0.000000
v 0.844449 0.010000 0.000000
v 0.750000 0.180000 0.650000
v 0.723205 0.280000 0.650000
v 0.650000 0.353205 0.650000
v 0.550000 0.380000 0.650000
v 0.450000 0.353205 0.650000
v 0.376795 0.280000 0.650000
v 0.350000 0.180000 0.650000
v 0.376795 0.080000 0.650000
v 0.450000 0.006795 0.650000
v 0.550000 -0.020000 0.650000
v 0.650000 0.006795 0.650000
v 0.723205 0.080000 0.650000
v 0.550000 0.180000 0.000000
v 0.550000 0.180000 0.650000
v 1.050000 0.000000 5.450000
v 1.029825 0.204845 5.450000
v 0.970074 0.401818 5.450000
v 0.873043 0.583349 5.450000
v 0.742462 0.742462 5.450000
v 0.583349 0.873043 5.450000
v 0.401818 0.970074 5.450000
v 0.204845 1.029825 5.450000
v 0.000000 1.050000 5.450000
v -0.204845 1.029825 5.450000
v -0.401818 0.970074 5.450000
v -0.583349 0.873043 5.450000
v -0.742462 0.742462 5.450000
v -0.873043 0.583349 5.450000
v -0.970074 0.401818 5.450000
v -1.029825 0.204845 5.450000
v -1.050000 0.000000 5.450000
v -1.029825 -0.204845 5.450000
v -0.970074 -0.401818 5.450000
v -0.873043 -0.583349 5.450000
v -0.742462 -0.742462 5.450000
v -0.583349 -0.873043 5.450000
v -0.401818 -0.970074 5.450000
v -0.204845 -1.029825 5.450000
v -0.000000 -1.050000 5.450000
v 0.204845 -1.029825 5.450000
v 0.401818 -0.970074 5.450000
v 0.583349 -0.873043 5.450000
v 0.742462 -0.742462 5.450000
v 0.873043 -0.583349 5.450000
v 0.970074 -0.401818 5.450000
v 1.029825 -0.204845 5.450000
v 1.050000 0.000000 5.630000
v 1.029825 0.204845 5.630000
v 0.970074 0.401818 5.630000
v 0.873043 0.583349 5.630000
v 0.742462 0.742462 5.630000
v 0.583349 0.873043 5.630000
v 0.401818 0.970074 5.630000
v 0.204845 1.029825 5.630000
v 0.000000 1.050000 5.630000
v -0.204845 1.029825 5.630000
v -0.401818 0.970074 5.630000
v -0.583349 0.873043 5.630000
v -0.742462 0.742462 5.630000
v -0.873043 0.583349 5.630000
v -0.970074 0.401818 5.630000
v -1.029825 0.204845 5.630000
v -1.050000 0.000000 5.630000
v -1.029825 -0.204845 5.630000
v -0.970074 -0.401818 5.630000
v -0.873043 -0.583349 5.630000
v -0.742462 -0.742462 5.630000
v -0.583349 -0.873043 5.630000
v -0.401818 -0.970074 5.630000
v -0.204845 -1.029825 5.630000
v -0.000000 -1.050000 5.630000
v 0.204845 -1.029825 5.630000
v 0.401818 -0.970074 5.630000
v 0.583349 -0.873043 5.630000
v 0.742462 -0.742462 5.630000
v 0.873043 -0.583349 5.630000
v 0.970074 -0.401818 5.630000
v 1.029825 -0.204845 5.630000
v 0.000000 0.000000 5.450000
v 0.000000 0.000000 5.630000
v 2.080000 0.250000 6.750000
v 2.093369 0.208855 6.750000
v 2.128369 0.183426 6.750000
v 2.171631 0.183426 6.750000
v 2.206631 0.208855 6.750000
v 2.220000 0.250000 6.750000
v 2.206631 0.291145 6.750000
v 2.171631 0.316574 6.750000
v 2.128369 0.316574 6.750000
v 2.093369 0.291145 6.750000
v 2.080000 0.250000 9.000000
v 2.093369 0.208855 9.000000
v 2.128369 0.183426 9.000000
v 2.171631 0.183426 9.000000
v 2.206631 0.208855 9.000000
v 2.220000 0.250000 9.000000
v 2.206631 0.291145 9.000000
v 2.171631 0.316574 9.000000
v 2.128369 0.316574 9.000000
v 2.093369 0.291145 9.000000
v 2.150000 0.250000 9.450000
v 2.150000 0.250000 9.450000
v 2.150000 0.250000 9.450000
v 2.150000 0.250000 9.450000
v 2.150000 0.250000 9.450000
v 2.150000 0.250000 9.450000
v 2.150000 0.250000 9.450000
v 2.150000 0.250000 9.450000
v 2.150000 0.250000 9.450000
v 2.150000 0.250000 9.450000
v 2.150000 0.250000 9.450000
v 2.150000 0.250000 9.450000
v 2.150000 0.250000 9.450000
v 2.150000 0.250000 9.450000
v 2.150000 0.250000 9.450000
v 2.150000 0.250000 9.450000
v 2.258156 0.250000 9.432870
v 2.249923 0.291389 9.432870
v 2.226478 0.326478 9.432870
v 2.191389 0.349923 9.432870
v 2.150000 0.358156 9.432870
v 2.108611 0.349923 9.432870
v 2.073522 0.326478 9.432870
v 2.050077 0.291389 9.432870
v 2.041844 0.250000 9.432870
v 2.050077 0.208611 9.432870
v 2.073522 0.173522 9.432870
v 2.108611 0.150077 9.432870
v 2.150000 0.141844 9.432870
v 2.191389 0.150077 9.432870
v 2.226478 0.173522 9.432870
v 2.249923 0.208611 9.432870
v 2.355725 0.250000 9.383156
v 2.340065 0.328727 9.383156
v 2.295469 0.395469 9.383156
v 2.228727 0.440065 9.383156
v 2.150000 0.455725 9.383156
v 2.071273 0.440065 9.383156
v 2.004531 0.395469 9.383156
v 1.959935 0.328727 9.383156
v 1.944275 0.250000 9.383156
v 1.959935 0.171273 9.383156
v 2.004531 0.104531 9.383156
v 2.071273 0.059935 9.383156
v 2.150000 0.044275 9.383156
v 2.228727 0.059935 9.383156
v 2.295469 0.104531 9.383156
v 2.340065 0.171273 9.383156
v 2.433156 0.250000 9.305725
v 2.411602 0.358359 9.305725
v 2.350221 0.450221 9.305725
v 2.258359 0.511602 9.305725
v 2.150000 0.533156 9.305725
v 2.041641 0.511602 9.305725
v 1.949779 0.450221 9.305725
v 1.888398 0.358359 9.305725
v 1.866844 0.250000 9.305725
v 1.888398 0.141641 9.305725
v 1.949779 0.049779 9.305725
v 2.041641 -0.011602 9.305725
v 2.150000 -0.033156 9.305725
v 2.258359 -0.011602 9.305725
v 2.350221 0.049779 9.305725
v 2.411602 0.141641 9.305725
v 2.482870 0.250000 9.208156
v 2.457532 0.377384 9.208156
v 2.385374 0.485374 9.208156
v 2.277384 0.557532 9.208156
v 2.150000 0.582870 9.208156
v 2.022616 0.557532 9.208156
v 1.914626 0.485374 9.208156
v 1.842468 0.377384 9.208156
v 1.817130 0.250000 9.208156
v 1.842468 0.122616 9.208156
v 1.914626 0.014626 9.208156
v 2.022616 -0.057532 9.208156
v 2.150000 -0.082870 9.208156
v 2.277384 -0.057532 9.208156
v 2.385374 0.014626 9.208156
v 2.457532 0.122616 9.208156
v 2.500000 0.250000 9.100000
v 2.473358 0.383939 9.100000
v 2.397487 0.497487 9.100000
v 2.283939 0.573358 9.100000
v 2.150000 0.600000 9.100000
v 2.016061 0.573358 9.100000
v 1.902513 0.497487 9.100000
v 1.826642 0.383939 9.100000
v 1.800000 0.250000 9.100000
v 1.826642 0.116061 9.100000
v 1.902513 0.002513 9.100000
v 2.016061 -0.073358 9.100000
v 2.150000 -0.100000 9.100000
v 2.283939 -0.073358 9.100000
v 2.397487 0.002513 9.100000
v 2.473358 0.116061 9.100000
v 2.482870 0.250000 8.991844
v 2.457532 0.377384 8.991844
v 2.385374 0.485374 8.991844
v 2.277384 0.557532 8.991844
v 2.150000 0.582870 8.991844
v 2.022616 0.557532 8.991844
v 1.914626 0.485374 8.991844
v 1.842468 0.377384 8.991844
v 1.817130 0.250000 8.991844
v 1.842468 0.122616 8.991844
v 1.914626 0.014626 8.991844
v 2.022616 -0.057532 8.991844
v 2.150000 -0.082870 8.991844
v 2.277384 -0.057532 8.991844
v 2.385374 0.014626 8.991844
v 2.457532 0.122616 8.991844
v 2.433156 0.250000 8.894275
v 2.411602 0.358359 8.894275
v 2.350221 0.450221 8.894275
v 2.258359 0.511602 8.894275
v 2.150000 0.533156 8.894275
v 2.041641 0.511602 8.894275
v 1.949779 0.450221 8.894275
v 1.888398 0.358359 8.894275
v 1.866844 0.250000 8.894275
v 1.888398 0.141641 8.894275
v 1.949779 0.049779 8.894275
v 2.041641 -0.011602 8.894275
v 2.150000 -0.033156 8.894275
v 2.258359 -0.011602 8.894275
v 2.350221 0.049779 8.894275
v 2.411602 0.141641 8.894275
v 2.355725 0.250000 8.816844
v 2.340065 0.328727 8.816844
v 2.295469 0.395469 8.816844
v 2.228727 0.440065 8.816844
v 2.150000 0.455725 8.816844
v 2.071273 0.440065 8.816844
v 2.004531 0.395469 8.816844
v 1.959935 0.328727 8.816844
v 1.944275 0.250000 8.816844
v 1.959935 0.171273 8.816844
v 2.004531 0.104531 8.816844
v 2.071273 0.059935 8.816844
v 2.150000 0.044275 8.816844
v 2.228727 0.059935 8.816844
v 2.295469 0.104531 8.816844
v 2.340065 0.171273 8.816844
v 2.258156 0.250000 8.767130
v 2.249923 0.291389 8.767130
v 2.226478 0.326478 8.767130
v 2.191389 0.349923 8.767130
v 2.150000 0.358156 8.767130
v 2.108611 0.349923 8.767130
v 2.073522 0.326478 8.767130
v 2.050077 0.291389 8.767130
v 2.041844 0.250000 8.767130
v 2.050077 0.208611 8.767130
v 2.073522 0.173522 8.767130
v 2.108611 0.150077 8.767130
v 2.150000 0.141844 8.767130
v 2.191389 0.150077 8.767130
v 2.226478 0.173522 8.767130
v 2.249923 0.208611 8.767130
v 2.150000 0.250000 8.750000
v 2.150000 0.250000 8.750000
v 2.150000 0.250000 8.750000
v 2.150000 0.250000 8.750000
v 2.150000 0.250000 8.750000
v 2.150000 0.250000 8.750000
v 2.150000 0.250000 8.750000
v 2.150000 0.250000 8.750000
v 2.150000 0.250000 8.750000
v 2.150000 0.250000 8.750000
v 2.150000 0.250000 8.750000
v 2.150000 0.250000 8.750000
v 2.150000 0.250000 8.750000
v 2.150000 0.250000 8.750000
v 2.150000 0.250000 8.750000
v 2.150000 0.250000 8.750000
f 1 2 18
f 1 18 17
f 2 3 19
f 2 19 18
f 3 4 20
f 3 20 19
f 4 5 21
f 4 21 20
f 5 6 22
f 5 22 21
f 6 7 23
f 6 23 22
f 7 8 24
f 7 24 23
f 8 9 25
f 8 25 24
f 9 10 26
f 9 26 25
f 10 11 27
f 10 27 26
f 11 12 28
f 11 28 27
f 12 13 29
f 12 29 28
f 13 14 30
f 13 30 29
f 14 15 31
f 14 31 30
f 15 16 32
f 15 32 31
f 16 1 17
f 16 17 32
f 17 18 34
f 17 34 33
f 18 19 35
f 18 35 34
f 19 20 36
f 19 36 35
f 20 21 37
f 20 37 36
f 21 22 38
f 21 38 37
f 22 23 39
f 22 39 38
f 23 24 40
f 23 40 39
f 24 25 41
f 24 41 40
f 25 26 42
f 25 42 41
f 26 27 43
f 26 43 42
f 27 28 44
f 27 44 43
f 28 29 45
f 28 45 44
f 29 30 46
f 29 46 45
f 30 31 47
f 30 47 46
f 31 32 48
f 31 48 47
f 32 17 33
f 32 33 48
f 33 34 50
f 33 50 49
f 34 35 51
f 34 51 50
f 35 36 52
f 35 52 51
f 36 37 53
f 36 53 52
f 37 38 54
f 37 54 53
f 38 39 55
f 38 55 54
f 39 40 56
f 39 56 55
f 40 41 57
f 40 57 56
f 41 42 58
f 41 58 57
f 42 43 59
f 42 59 58
f 43 44 60
f 43 60 59
f 44 45 61
f 44 61 60
f 45 46 62
f 45 62 61
f 46 47 63
f 46 63 62
f 47 48 64
f 47 64 63
f 48 33 49
f 48 49 64
f 49 50 66
f 49 66 65
f 50 51 67
f 50 67 66
f 51 52 68
f 51 68 67
f 52 53 69
f 52 69 68
f 53 54 70
f 53 70 69
f 54 55 71
f 54 71 70
f 55 56 72
f 55 72 71
f 56 57 73
f 56 73 72
f 57 58 74
f 57 74 73
f 58 59 75
f 58 75 74
f 59 60 76
f 59 76 75
f 60 61 77
f 60 77 76
f 61 62 78
f 61 78 77
f 62 63 79
f 62 79 78
f 63 64 80
f 63 80 79
f 64 49 65
f 64 65 80
f 65 66 82
f 65 82 81
f 66 67 83
f 66 83 82
f 67 68 84
f 67 84 83
f 68 69 85
f 68 85 84
f 69 70 86
f 69 86 85
f 70 71 87
f 70 87 86
f 71 72 88
f 71 88 87
f 72 73 89
f 72 89 88
f 73 74 90
f 73 90 89
f 74 75 91
f 74 91 90
f 75 76 92
f 75 92 91
f 76 77 93
f 76 93 92
f 77 78 94
f 77 94 93
f 78 79 95
f 78 95 94
f 79 80 96
f 79 96 95
f 80 65 81
f 80 81 96
f 81 82 98
f 81 98 97
f 82 83 99
f 82 99 98
f 83 84 100
f 83 100 99
f 84 85 101
f 84 101 100
f 85 86 102
f 85 102 101
f 86 87 103
f 86 103 102
f 87 88 104
f 87 104 103
f 88 89 105
f 88 105 104
f 89 90 106
f 89 106 105
f 90 91 107
f 90 107 106
f 91 92 108
f 91 108 107
f 92 93 109
f 92 109 108
f 93 94 110
f 93 110 109
f 94 95 111
f 94 111 110
f 95 96 112
f 95 112 111
f 96 81 97
f 96 97 112
f 97 98 114
f 97 114 113
f 98 99 115
f 98 115 114
f 99 100 116
f 99 116 115
f 100 101 117
f 100 117 116
f 101 102 118
f 101 118 117
f 102 103 119
f 102 119 118
f 103 104 120
f 103 120 119
f 104 105 121
f 104 121 120
f 105 106 122
f 105 122 121
f 106 107 123
f 106 123 122
f 107 108 124
f 107 124 123
f 108 109 125
f 108 125 124
f 109 110 126
f 109 126 125
f 110 111 127
f 110 127 126
f 111 112 128
f 111 128 127
f 112 97 113
f 112 113 128
f 113 114 130
f 113 130 129
f 114 115 131
f 114 131 130
f 115 116 132
f 115 132 131
f 116 117 133
f 116 133 132
f 117 118 134
f 117 134 133
f 118 119 135
f 118 135 134
f 119 120 136
f 119 136 135
f 120 121 137
f 120 137 136
f 121 122 138
f 121 138 137
f 122 123 139
f 122 139 138
f 123 124 140
f 123 140 139
f 124 125 141
f 124 141 140
f 125 126 142
f 125 142 141
f 126 127 143
f 126 143 142
f 127 128 144
f 127 144 143
f 128 113 129
f 128 129 144
f 129 130 146
f 129 146 145
f 130 131 147
f 130 147 146
f 131 132 148
f 131 148 147
f 132 133 149
f 132 149 148
f 133 134 150
f 133 150 149
f 134 135 151
f 134 151 150
f 135 136 152
f 135 152 151
f 136 137 153
f 136 153 152
f 137 138 154
f 137 154 153
f 138 139 155
f 138 155 154
f 139 140 156
f 139 156 155
f 140 141 157
f 140 157 156
f 141 142 158
f 141 158 157
f 142 143 159
f 142 159 158
f 143 144 160
f 143 160 159
f 144 129 145
f 144 145 160
f 145 146 162
f 145 162 161
f 146 147 163
f 146 163 162
f 147 148 164
f 147 164 163
f 148 149 165
f 148 165 164
f 149 150 166
f 149 166 165
f 150 151 167
f 150 167 166
f 151 152 168
f 151 168 167
f 152 153 169
f 152 169 168
f 153 154 170
f 153 170 169
f 154 155 171
f 154 171 170
f 155 156 172
f 155 172 171
f 156 157 173
f 156 173 172
f 157 158 174
f 157 174 173
f 158 159 175
f 158 175 174
f 159 160 176
f 159 176 175
f 160 145 161
f 160 161 176
f 177 178 198
f 177 198 197
f 217 177 178
f 218 198 197
f 178 179 199
f 178 199 198
f 217 178 179
f 218 199 198
f 179 180 200
f 179 200 199
f 217 179 180
f 218 200 199
f 180 181 201
f 180 201 200
f 217 180 181
f 218 201 200
f 181 182 202
f 181 202 201
f 217 181 182
f 218 202 201
f 182 183 203
f 182 203 202
f 217 182 183
f 218 203 202
f 183 184 204
f 183 204 203
f 217 183 184
f 218 204 203
f 184 185 205
f 184 205 204
f 217 184 185
f 218 205 204
f 185 186 206
f 185 206 205
f 217 185 186
f 218 206 205
f 186 187 207
f 186 207 206
f 217 186 187
f 218 207 206
f 187 188 208
f 187 208 207
f 217 187 188
f 218 208 207
f 188 189 209
f 188 209 208
f 217 188 189
f 218 209 208
f 189 190 210
f 189 210 209
f 217 189 190
f 218 210 209
f 190 191 211
f 190 211 210
f 217 190 191
f 218 211 210
f 191 192 212
f 191 212 211
f 217 191 192
f 218 212 211
f 192 193 213
f 192 213 212
f 217 192 193
f 218 213 212
f 193 194 214
f 193 214 213
f 217 193 194
f 218 214 213
f 194 195 215
f 194 215 214
f 217 194 195
f 218 215 214
f 195 196 216
f 195 216 215
f 217 195 196
f 218 216 215
f 196 177 197
f 196 197 216
f 217 196 177
f 218 197 216
f 219 220 240
f 219 240 239
f 259 219 220
f 260 240 239
f 220 221 241
f 220 241 240
f 259 220 221
f 260 241 240
f 221 222 242
f 221 242 241
f 259 221 222
f 260 242 241
f 222 223 243
f 222 243 242
f 259 222 223
f 260 243 242
f 223 224 244
f 223 244 243
f 259 223 224
f 260 244 243
f 224 225 245
f 224 245 244
f 259 224 225
f 260 245 244
f 225 226 246
f 225 246 245
f 259 225 226
f 260 246 245
f 226 227 247
f 226 247 246
f 259 226 227
f 260 247 246
f 227 228 248
f 227 248 247
f 259 227 228
f 260 248 247
f 228 229 249
f 228 249 248
f 259 228 229
f 260 249 248
f 229 230 250
f 229 250 249
f 259 229 230
f 260 250 249
f 230 231 251
f 230 251 250
f 259 230 231
f 260 251 250
f 231 232 252
f 231 252 251
f 259 231 232
f 260 252 251
f 232 233 253
f 232 253 252
f 259 232 233
f 260 253 252
f 233 234 254
f 233 254 253
f 259 233 234
f 260 254 253
f 234 235 255
f 234 255 254
f 259 234 235
f 260 255 254
f 235 236 256
f 235 256 255
f 259 235 236
f 260 256 255
f 236 237 257
f 236 257 256
f 259 236 237
f 260 257 256
f 237 238 258
f 237 258 257
f 259 237 238
f 260 258 257
f 238 219 239
f 238 239 258
f 259 238 219
f 260 239 258
f 261 262 282
f 261 282 281
f 301 261 262
f 302 282 281
f 262 263 283
f 262 283 282
f 301 262 263
f 302 283 282
f 263 264 284
f 263 284 283
f 301 263 264
f 302 284 283
f 264 265 285
f 264 285 284
f 301 264 265
f 302 285 284
f 265 266 286
f 265 286 285
f 301 265 266
f 302 286 285
f 266 267 287
f 266 287 286
f 301 266 267
f 302 287 286
f 267 268 288
f 267 288 287
f 301 267 268
f 302 288 287
f 268 269 289
f 268 289 288
f 301 268 269
f 302 289 288
f 269 270 290
f 269 290 289
f 301 269 270
f 302 290 289
f 270 271 291
f 270 291 290
f 301 270 271
f 302 291 290
f 271 272 292
f 271 292 291
f 301 271 272
f 302 292 291
f 272 273 293
f 272 293 292
f 301 272 273
f 302 293 292
f 273 274 294
f 273 294 293
f 301 273 274
f 302 294 293
f 274 275 295
f 274 295 294
f 301 274 275
f 302 295 294
f 275 276 296
f 275 296 295
f 301 275 276
f 302 296 295
f 276 277 297
f 276 297 296
f 301 276 277
f 302 297 296
f 277 278 298
f 277 298 297
f 301 277 278
f 302 298 297
f 278 279 299
f 278 299 298
f 301 278 279
f 302 299 298
f 279 280 300
f 279 300 299
f 301 279 280
f 302 300 299
f 280 261 281
f 280 281 300
f 301 280 261
f 302 281 300
f 303 304 316
f 303 316 315
f 304 305 317
f 304 317 316
f 305 306 318
f 305 318 317
f 306 307 319
f 306 319 318
f 307 308 320
f 307 320 319
f 308 309 321
f 308 321 320
f 309 310 322
f 309 322 321
f 310 311 323
f 310 323 322
f 311 312 324
f 311 324 323
f 312 313 325
f 312 325 324
f 313 314 326
f 313 326 325
f 314 303 315
f 314 315 326
f 327 328 340
f 327 340 339
f 328 329 341
f 328 341 340
f 329 330 342
f 329 342 341
f 330 331 343
f 330 343 342
f 331 332 344
f 331 344 343
f 332 333 345
f 332 345 344
f 333 334 346
f 333 346 345
f 334 335 347
f 334 347 346
f 335 336 348
f 335 348 347
f 336 337 349
f 336 349 348
f 337 338 350
f 337 350 349
f 338 327 339
f 338 339 350
f 351 352 364
f 351 364 363
f 352 353 365
f 352 365 364
f 353 354 366
f 353 366 365
f 354 355 367
f 354 367 366
f 355 356 368
f 355 368 367
f 356 357 369
f 356 369 368
f 357 358 370
f 357 370 369
f 358 359 371
f 358 371 370
f 359 360 372
f 359 372 371
f 360 361 373
f 360 373 372
f 361 362 374
f 361 374 373
f 362 351 363
f 362 363 374
f 375 376 388
f 375 388 387
f 376 377 389
f 376 389 388
f 377 378 390
f 377 390 389
f 378 379 391
f 378 391 390
f 379 380 392
f 379 392 391
f 380 381 393
f 380 393 392
f 381 382 394
f 381 394 393
f 382 383 395
f 382 395 394
f 383 384 396
f 383 396 395
f 384 385 397
f 384 397 396
f 385 386 398
f 385 398 397
f 386 375 387
f 386 387 398
f 399 400 414
f 399 414 413
f 400 401 415
f 400 415 414
f 401 402 416
f 401 416 415
f 402 403 417
f 402 417 416
f 403 404 418
f 403 418 417
f 404 405 419
f 404 419 418
f 405 406 420
f 405 420 419
f 406 407 421
f 406 421 420
f 407 408 422
f 407 422 421
f 408 409 423
f 408 423 422
f 409 410 424
f 409 424 423
f 410 411 425
f 410 425 424
f 411 412 426
f 411 426 425
f 412 399 413
f 412 413 426
f 427 428 442
f 427 442 441
f 428 429 443
f 428 443 442
f 429 430 444
f 429 444 443
f 430 431 445
f 430 445 444
f 431 432 446
f 431 446 445
f 432 433 447
f 432 447 446
f 433 434 448
f 433 448 447
f 434 435 449
f 434 449 448
f 435 436 450
f 435 450 449
f 436 437 451
f 436 451 450
f 437 438 452
f 437 452 451
f 438 439 453
f 438 453 452
f 439 440 454
f 439 454 453
f 440 427 441
f 440 441 454
f 455 456 468
f 455 468 467
f 456 457 469
f 456 469 468
f 457 458 470
f 457 470 469
f 458 459 471
f 458 471 470
f 459 460 472
f 459 472 471
f 460 461 473
f 460 473 472
f 461 462 474
f 461 474 473
f 462 463 475
f 462 475 474
f 463 464 476
f 463 476 475
f 464 465 477
f 464 477 476
f 465 466 478
f 465 478 477
f 466 455 467
f 466 467 478
f 467 468 480
f 467 480 479
f 468 469 481
f 468 481 480
f 469 470 482
f 469 482 481
f 470 471 483
f 470 483 482
f 471 472 484
f 471 484 483
f 472 473 485
f 472 485 484
f 473 474 486
f 473 486 485
f 474 475 487
f 474 487 486
f 475 476 488
f 475 488 487
f 476 477 489
f 476 489 488
f 477 478 490
f 477 490 489
f 478 467 479
f 478 479 490
f 479 480 492
f 479 492 491
f 480 481 493
f 480 493 492
f 481 482 494
f 481 494 493
f 482 483 495
f 482 495 494
f 483 484 496
f 483 496 495
f 484 485 497
f 484 497 496
f 485 486 498
f 485 498 497
f 486 487 499
f 486 499 498
f 487 488 500
f 487 500 499
f 488 489 501
f 488 501 500
f 489 490 502
f 489 502 501
f 490 479 491
f 490 491 502
f 491 492 504
f 491 504 503
f 492 493 505
f 492 505 504
f 493 494 506
f 493 506 505
f 494 495 507
f 494 507 506
f 495 496 508
f 495 508 507
f 496 497 509
f 496 509 508
f 497 498 510
f 497 510 509
f 498 499 511
f 498 511 510
f 499 500 512
f 499 512 511
f 500 501 513
f 500 513 512
f 501 502 514
f 501 514 513
f 502 491 503
f 502 503 514
f 503 504 516
f 503 516 515
f 504 505 517
f 504 517 516
f 505 506 518
f 505 518 517
f 506 507 519
f 506 519 518
f 507 508 520
f 507 520 519
f 508 509 521
f 508 521 520
f 509 510 522
f 509 522 521
f 510 511 523
f 510 523 522
f 511 512 524
f 511 524 523
f 512 513 525
f 512 525 524
f 513 514 526
f 513 526 525
f 514 503 515
f 514 515 526
f 515 516 528
f 515 528 527
f 516 517 529
f 516 529 528
f 517 518 530
f 517 530 529
f 518 519 531
f 518 531 530
f 519 520 532
f 519 532 531
f 520 521 533
f 520 533 532
f 521 522 534
f 521 534 533
f 522 523 535
f 522 535 534
f 523 524 536
f 523 536 535
f 524 525 537
f 524 537 536
f 525 526 538
f 525 538 537
f 526 515 527
f 526 527 538
f 527 528 540
f 527 540 539
f 528 529 541
f 528 541 540
f 529 530 542
f 529 542 541
f 530 531 543
f 530 543 542
f 531 532 544
f 531 544 543
f 532 533 545
f 532 545 544
f 533 534 546
f 533 546 545
f 534 535 547
f 534 547 546
f 535 536 548
f 535 548 547
f 536 537 549
f 536 549 548
f 537 538 550
f 537 550 549
f 538 527 539
f 538 539 550
f 539 540 552
f 539 552 551
f 540 541 553
f 540 553 552
f 541 542 554
f 541 554 553
f 542 543 555
f 542 555 554
f 543 544 556
f 543 556 555
f 544 545 557
f 544 557 556
f 545 546 558
f 545 558 557
f 546 547 559
f 546 559 558
f 547 548 560
f 547 560 559
f 548 549 561
f 548 561 560
f 549 550 562
f 549 562 561
f 550 539 551
f 550 551 562
f 563 564 576
f 563 576 575
f 564 565 577
f 564 577 576
f 565 566 578
f 565 578 577
f 566 567 579
f 566 579 578
f 567 568 580
f 567 580 579
f 568 569 581
f 568 581 580
f 569 570 582
f 569 582 581
f 570 571 583
f 570 583 582
f 571 572 584
f 571 584 583
f 572 573 585
f 572 585 584
f 573 574 586
f 573 586 585
f 574 563 575
f 574 575 586
f 575 576 588
f 575 588 587
f 576 577 589
f 576 589 588
f 577 578 590
f 577 590 589
f 578 579 591
f 578 591 590
f 579 580 592
f 579 592 591
f 580 581 593
f 580 593 592
f 581 582 594
f 581 594 593
f 582 583 595
f 582 595 594
f 583 584 596
f 583 596 595
f 584 585 597
f 584 597 596
f 585 586 598
f 585 598 597
f 586 575 587
f 586 587 598
f 587 588 600
f 587 600 599
f 588 589 601
f 588 601 600
f 589 590 602
f 589 602 601
f 590 591 603
f 590 603 602
f 591 592 604
f 591 604 603
f 592 593 605
f 592 605 604
f 593 594 606
f 593 606 605
f 594 595 607
f 594 607 606
f 595 596 608
f 595 608 607
f 596 597 609
f 596 609 608
f 597 598 610
f 597 610 609
f 598 587 599
f 598 599 610
f 599 600 612
f 599 612 611
f 600 601 613
f 600 613 612
f 601 602 614
f 601 614 613
f 602 603 615
f 602 615 614
f 603 604 616
f 603 616 615
f 604 605 617
f 604 617 616
f 605 606 618
f 605 618 617
f 606 607 619
f 606 619 618
f 607 608 620
f 607 620 619
f 608 609 621
f 608 621 620
f 609 610 622
f 609 622 621
f 610 599 611
f 610 611 622
f 611 612 624
f 611 624 623
f 612 613 625
f 612 625 624
f 613 614 626
f 613 626 625
f 614 615 627
f 614 627 626
f 615 616 628
f 615 628 627
f 616 617 629
f 616 629 628
f 617 618 630
f 617 630 629
f 618 619 631
f 618 631 630
f 619 620 632
f 619 632 631
f 620 621 633
f 620 633 632
f 621 622 634
f 621 634 633
f 622 611 623
f 622 623 634
f 623 624 636
f 623 636 635
f 624 625 637
f 624 637 636
f 625 626 638
f 625 638 637
f 626 627 639
f 626 639 638
f 627 628 640
f 627 640 639
f 628 629 641
f 628 641 640
f 629 630 642
f 629 642 641
f 630 631 643
f 630 643 642
f 631 632 644
f 631 644 643
f 632 633 645
f 632 645 644
f 633 634 646
f 633 646 645
f 634 623 635
f 634 635 646
f 635 636 648
f 635 648 647
f 636 637 649
f 636 649 648
f 637 638 650
f 637 650 649
f 638 639 651
f 638 651 650
f 639 640 652
f 639 652 651
f 640 641 653
f 640 653 652
f 641 642 654
f 641 654 653
f 642 643 655
f 642 655 654
f 643 644 656
f 643 656 655
f 644 645 657
f 644 657 656
f 645 646 658
f 645 658 657
f 646 635 647
f 646 647 658
f 647 648 660
f 647 660 659
f 648 649 661
f 648 661 660
f 649 650 662
f 649 662 661
f 650 651 663
f 650 663 662
f 651 652 664
f 651 664 663
f 652 653 665
f 652 665 664
f 653 654 666
f 653 666 665
f 654 655 667
f 654 667 666
f 655 656 668
f 655 668 667
f 656 657 669
f 656 669 668
f 657 658 670
f 657 670 669
f 658 647 659
f 658 659 670
f 671 672 686
f 671 686 685
f 672 673 687
f 672 687 686
f 673 674 688
f 673 688 687
f 674 675 689
f 674 689 688
f 675 676 690
f 675 690 689
f 676 677 691
f 676 691 690
f 677 678 692
f 677 692 691
f 678 679 693
f 678 693 692
f 679 680 694
f 679 694 693
f 680 681 695
f 680 695 694
f 681 682 696
f 681 696 695
f 682 683 697
f 682 697 696
f 683 684 698
f 683 698 697
f 684 671 685
f 684 685 698
f 699 700 714
f 699 714 713
f 700 701 715
f 700 715 714
f 701 702 716
f 701 716 715
f 702 703 717
f 702 717 716
f 703 704 718
f 703 718 717
f 704 705 719
f 704 719 718
f 705 706 720
f 705 720 719
f 706 707 721
f 706 721 720
f 707 708 722
f 707 722 721
f 708 709 723
f 708 723 722
f 709 710 724
f 709 724 723
f 710 711 725
f 710 725 724
f 711 712 726
f 711 726 725
f 712 699 713
f 712 713 726
f 727 728 740
f 727 740 739
f 751 727 728
f 752 740 739
f 728 729 741
f 728 741 740
f 751 728 729
f 752 741 740
f 729 730 742
f 729 742 741
f 751 729 730
f 752 742 741
f 730 731 743
f 730 743 742
f 751 730 731
f 752 743 742
f 731 732 744
f 731 744 743
f 751 731 732
f 752 744 743
f 732 733 745
f 732 745 744
f 751 732 733
f 752 745 744
f 733 734 746
f 733 746 745
f 751 733 734
f 752 746 745
f 734 735 747
f 734 747 746
f 751 734 735
f 752 747 746
f 735 736 748
f 735 748 747
f 751 735 736
f 752 748 747
f 736 737 749
f 736 749 748
f 751 736 737
f 752 749 748
f 737 738 750
f 737 750 749
f 751 737 738
f 752 750 749
f 738 727 739
f 738 739 750
f 751 738 727
f 752 739 750
f 753 754 766
f 753 766 765
f 777 753 754
f 778 766 765
f 754 755 767
f 754 767 766
f 777 754 755
f 778 767 766
f 755 756 768
f 755 768 767
f 777 755 756
f 778 768 767
f 756 757 769
f 756 769 768
f 777 756 757
f 778 769 768
f 757 758 770
f 757 770 769
f 777 757 758
f 778 770 769
f 758 759 771
f 758 771 770
f 777 758 759
f 778 771 770
f 759 760 772
f 759 772 771
f 777 759 760
f 778 772 771
f 760 761 773
f 760 773 772
f 777 760 761
f 778 773 772
f 761 762 774
f 761 774 773
f 777 761 762
f 778 774 773
f 762 763 775
f 762 775 774
f 777 762 763
f 778 775 774
f 763 764 776
f 763 776 775
f 777 763 764
f 778 776 775
f 764 753 765
f 764 765 776
f 777 764 753
f 778 765 776
f 779 780 812
f 779 812 811
f 843 779 780
f 844 812 811
f 780 781 813
f 780 813 812
f 843 780 781
f 844 813 812
f 781 782 814
f 781 814 813
f 843 781 782
f 844 814 813
f 782 783 815
f 782 815 814
f 843 782 783
f 844 815 814
f 783 784 816
f 783 816 815
f 843 783 784
f 844 816 815
f 784 785 817
f 784 817 816
f 843 784 785
f 844 817 816
f 785 786 818
f 785 818 817
f 843 785 786
f 844 818 817
f 786 787 819
f 786 819 818
f 843 786 787
f 844 819 818
f 787 788 820
f 787 820 819
f 843 787 788
f 844 820 819
f 788 789 821
f 788 821 820
f 843 788 789
f 844 821 820
f 789 790 822
f 789 822 821
f 843 789 790
f 844 822 821
f 790 791 823
f 790 823 822
f 843 790 791
f 844 823 822
f 791 792 824
f 791 824 823
f 843 791 792
f 844 824 823
f 792 793 825
f 792 825 824
f 843 792 793
f 844 825 824
f 793 794 826
f 793 826 825
f 843 793 794
f 844 826 825
f 794 795 827
f 794 827 826
f 843 794 795
f 844 827 826
f 795 796 828
f 795 828 827
f 843 795 796
f 844 828 827
f 796 797 829
f 796 829 828
f 843 796 797
f 844 829 828
f 797 798 830
f 797 830 829
f 843 797 798
f 844 830 829
f 798 799 831
f 798 831 830
f 843 798 799
f 844 831 830
f 799 800 832
f 799 832 831
f 843 799 800
f 844 832 831
f 800 801 833
f 800 833 832
f 843 800 801
f 844 833 832
f 801 802 834
f 801 834 833
f 843 801 802
f 844 834 833
f 802 803 835
f 802 835 834
f 843 802 803
f 844 835 834
f 803 804 836
f 803 836 835
f 843 803 804
f 844 836 835
f 804 805 837
f 804 837 836
f 843 804 805
f 844 837 836
f 805 806 838
f 805 838 837
f 843 805 806
f 844 838 837
f 806 807 839
f 806 839 838
f 843 806 807
f 844 839 838
f 807 808 840
f 807 840 839
f 843 807 808
f 844 840 839
f 808 809 841
f 808 841 840
f 843 808 809
f 844 841 840
f 809 810 842
f 809 842 841
f 843 809 810
f 844 842 841
f 810 779 811
f 810 811 842
f 843 810 779
f 844 811 842
f 845 846 856
f 845 856 855
f 846 847 857
f 846 857 856
f 847 848 858
f 847 858 857
f 848 849 859
f 848 859 858
f 849 850 860
f 849 860 859
f 850 851 861
f 850 861 860
f 851 852 862
f 851 862 861
f 852 853 863
f 852 863 862
f 853 854 864
f 853 864 863
f 854 845 855
f 854 855 864
f 865 866 882
f 865 882 881
f 866 867 883
f 866 883 882
f 867 868 884
f 867 884 883
f 868 869 885
f 868 885 884
f 869 870 886
f 869 886 885
f 870 871 887
f 870 887 886
f 871 872 888
f 871 888 887
f 872 873 889
f 872 889 888
f 873 874 890
f 873 890 889
f 874 875 891
f 874 891 890
f 875 876 892
f 875 892 891
f 876 877 893
f 876 893 892
f 877 878 894
f 877 894 893
f 878 879 895
f 878 895 894
f 879 880 896
f 879 896 895
f 880 865 881
f 880 881 896
f 881 882 898
f 881 898 897
f 882 883 899
f 882 899 898
f 883 884 900
f 883 900 899
f 884 885 901
f 884 901 900
f 885 886 902
f 885 902 901
f 886 887 903
f 886 903 902
f 887 888 904
f 887 904 903
f 888 889 905
f 888 905 904
f 889 890 906
f 889 906 905
f 890 891 907
f 890 907 906
f 891 892 908
f 891 908 907
f 892 893 909
f 892 909 908
f 893 894 910
f 893 910 909
f 894 895 911
f 894 911 910
f 895 896 912
f 895 912 911
f 896 881 897
f 896 897 912
f 897 898 914
f 897 914 913
f 898 899 915
f 898 915 914
f 899 900 916
f 899 916 915
f 900 901 917
f 900 917 916
f 901 902 918
f 901 918 917
f 902 903 919
f 902 919 918
f 903 904 920
f 903 920 919
f 904 905 921
f 904 921 920
f 905 906 922
f 905 922 921
f 906 907 923
f 906 923 922
f 907 908 924
f 907 924 923
f 908 909 925
f 908 925 924
f 909 910 926
f 909 926 925
f 910 911 927
f 910 927 926
f 911 912 928
f 911 928 927
f 912 897 913
f 912 913 928
f 913 914 930
f 913 930 929
f 914 915 931
f 914 931 930
f 915 916 932
f 915 932 931
f 916 917 933
f 916 933 932
f 917 918 934
f 917 934 933
f 918 919 935
f 918 935 934
f 919 920 936
f 919 936 935
f 920 921 937
f 920 937 936
f 921 922 938
f 921 938 937
f 922 923 939
f 922 939 938
f 923 924 940
f 923 940 939
f 924 925 941
f 924 941 940
f 925 926 942
f 925 942 941
f 926 927 943
f 926 943 942
f 927 928 944
f 927 944 943
f 928 913 929
f 928 929 944
f 929 930 946
f 929 946 945
f 930 931 947
f 930 947 946
f 931 932 948
f 931 948 947
f 932 933 949
f 932 949 948
f 933 934 950
f 933 950 949
f 934 935 951
f 934 951 950
f 935 936 952
f 935 952 951
f 936 937 953
f 936 953 952
f 937 938 954
f 937 954 953
f 938 939 955
f 938 955 954
f 939 940 956
f 939 956 955
f 940 941 957
f 940 957 956
f 941 942 958
f 941 958 957
f 942 943 959
f 942 959 958
f 943 944 960
f 943 960 959
f 944 929 945
f 944 945 960
f 945 946 962
f 945 962 961
f 946 947 963
f 946 963 962
f 947 948 964
f 947 964 963
f 948 949 965
f 948 965 964
f 949 950 966
f 949 966 965
f 950 951 967
f 950 967 966
f 951 952 968
f 951 968 967
f 952 953 969
f 952 969 968
f 953 954 970
f 953 970 969
f 954 955 971
f 954 971 970
f 955 956 972
f 955 972 971
f 956 957 973
f 956 973 972
f 957 958 974
f 957 974 973
f 958 959 975
f 958 975 974
f 959 960 976
f 959 976 975
f 960 945 961
f 960 961 976
f 961 962 978
f 961 978 977
f 962 963 979
f 962 979 978
f 963 964 980
f 963 980 979
f 964 965 981
f 964 981 980
f 965 966 982
f 965 982 981
f 966 967 983
f 966 983 982
f 967 968 984
f 967 984 983
f 968 969 985
f 968 985 984
f 969 970 986
f 969 986 985
f 970 971 987
f 970 987 986
f 971 972 988
f 971 988 987
f 972 973 989
f 972 989 988
f 973 974 990
f 973 990 989
f 974 975 991
f 974 991 990
f 975 976 992
f 975 992 991
f 976 961 977
f 976 977 992
f 977 978 994
f 977 994 993
f 978 979 995
f 978 995 994
f 979 980 996
f 979 996 995
f 980 981 997
f 980 997 996
f 981 982 998
f 981 998 997
f 982 983 999
f 982 999 998
f 983 984 1000
f 983 1000 999
f 984 985 1001
f 984 1001 1000
f 985 986 1002
f 985 1002 1001
f 986 987 1003
f 986 1003 1002
f 987 988 1004
f 987 1004 1003
f 988 989 1005
f 988 1005 1004
f 989 990 1006
f 989 1006 1005
f 990 991 1007
f 990 1007 1006
f 991 992 1008
f 991 1008 1007
f 992 977 993
f 992 993 1008
f 993 994 1010
f 993 1010 1009
f 994 995 1011
f 994 1011 1010
f 995 996 1012
f 995 1012 1011
f 996 997 1013
f 996 1013 1012
f 997 998 1014
f 997 1014 1013
f 998 999 1015
f 998 1015 1014
f 999 1000 1016
f 999 1016 1015
f 1000 1001 1017
f 1000 1017 1016
f 1001 1002 1018
f 1001 1018 1017
f 1002 1003 1019
f 1002 1019 1018
f 1003 1004 1020
f 1003 1020 1019
f 1004 1005 1021
f 1004 1021 1020
f 1005 1006 1022
f 1005 1022 1021
f 1006 1007 1023
f 1006 1023 1022
f 1007 1008 1024
f 1007 1024 1023
f 1008 993 1009
f 1008 1009 1024
f 1009 1010 1026
f 1009 1026 1025
f 1010 1011 1027
f 1010 1027 1026
f 1011 1012 1028
f 1011 1028 1027
f 1012 1013 1029
f 1012 1029 1028
f 1013 1014 1030
f 1013 1030 1029
f 1014 1015 1031
f 1014 1031 1030
f 1015 1016 1032
f 1015 1032 1031
f 1016 1017 1033
f 1016 1033 1032
f 1017 1018 1034
f 1017 1034 1033
f 1018 1019 1035
f 1018 1035 1034
f 1019 1020 1036
f 1019 1036 1035
f 1020 1021 1037
f 1020 1037 1036
f 1021 1022 1038
f 1021 1038 1037
f 1022 1023 1039
f 1022 1039 1038
f 1023 1024 1040
f 1023 1040 1039
f 1024 1009 1025
f 1024 1025 1040
